<?xml version="1.0" encoding="UTF-8"?>
<!-- Generator: Adobe Illustrator 25.2.3, SVG Export Plug-In . SVG Version: 6.00 Build 0)  -->
<svg xmlns="http://www.w3.org/2000/svg" xmlns:xlink="http://www.w3.org/1999/xlink" version="1.1" id="Layer_1" x="0px" y="0px" viewBox="0 0 792 612" style="enable-background:new 0 0 792 612;" xml:space="preserve">
<style type="text/css">
	.st0{fill:#FFFFFF;}
	.st1{fill:none;stroke:#000000;stroke-width:2.5;stroke-linecap:round;stroke-linejoin:round;stroke-miterlimit:10;}
</style>
<g id="White">
	<g>
		<rect x="-75.6" y="-71.1" class="st0 file-7-element-1" width="941.1" height="730.1"/>
		<polygon class="st0 file-7-element-2" points="385.4,336.4 307.1,868.1 463.7,868.1   "/>
		<polygon class="st0 file-7-element-3" points="385.4,336.4 583.5,836 719.1,757.7   "/>
		<polygon class="st0 file-7-element-4" points="385.4,336.4 806.8,670.1 885,534.5   "/>
		<polygon class="st0 file-7-element-5" points="385.4,336.4 917.1,414.7 917.1,258.1   "/>
		<polygon class="st0 file-7-element-6" points="385.4,336.4 885,138.4 806.8,2.8   "/>
		<polygon class="st0 file-7-element-7" points="385.4,336.4 719.1,-84.9 583.5,-163.2   "/>
		<polygon class="st0 file-7-element-8" points="385.4,336.4 463.7,-195.3 307.1,-195.3   "/>
		<polygon class="st0 file-7-element-9" points="385.4,336.4 187.4,-163.2 51.8,-84.9   "/>
		<polygon class="st0 file-7-element-10" points="385.4,336.4 -35.9,2.8 -114.2,138.4   "/>
		<polygon class="st0 file-7-element-11" points="385.4,336.4 -146.3,258.1 -146.3,414.7   "/>
		<polygon class="st0 file-7-element-12" points="385.4,336.4 -114.2,534.5 -35.9,670.1   "/>
	</g>
	<path class="st0 file-7-element-13" d="M665.8,351.2c0.5-1.5,0.6-3.6-1-4.3c-0.7-0.3-1.4-0.2-2.1,0c-0.8,0.2-2.9,1.3-5.3,2.9c0.1-1.4,0.1-2.8,0-4.2   c1.7-2.3,4.3-5.9,5-8c0.9-3-1-5.7-4.2-4.8c-1.7,0.5-3.7,1.8-5.4,3c-0.1-0.1-0.2-0.2-0.3-0.3c-0.2-0.2-0.5-0.3-0.7-0.5   c1.5-2.1,3.1-4.6,3.6-6.2c0.9-3-1-5.7-4.2-4.8c-2.2,0.6-5,2.7-6.9,4c-1,0.7-2,1.4-2.9,2.2c0.3-0.4,0.5-0.8,0.6-1.3   c0.4-1.8-0.7-3.6-2.2-4.5c-1.6-0.9-3.5-1-5.3-0.7c-6.1,0.9-11,5.4-15.4,9.7c-7.6,7.4-15.5,15.2-18.8,25.2c-4.1,3.1-8.2,6-12.5,8.7   c-12,7.4-28.4,7.7-42.4,9.9l17,36.4c11.7-7.2,23.4-14.3,35.1-21.5c2.8-1.7,5.6-3.4,8.8-4.4c10.8-3.3,22.9,3.1,33.4-0.9   c3.8-1.5,7-4.3,9.5-7.6c1.6-0.7,3.1-1.7,4.5-2.7c2.9-2.3,7.2-5.9,8.9-9.3c1.5-3.2-0.8-5.2-3.8-4c-1.2,0.5-2.4,1-3.7,1.7   c0,0,0-0.1,0-0.1C660,361.4,663.9,356.7,665.8,351.2z M639.2,331.8c-0.8,0.7-1.5,1.4-2.2,2.2c-0.8,0.3-1.5,0.6-2.3,0.9   c0.5-0.5,1-1,1.6-1.4C637.2,332.9,638.2,332.4,639.2,331.8z"/>
	<path class="st0 file-7-element-14" d="M357.7,151c-11.9-28-39.6-48.1-69.8-53.3s-58.6-3-90.1,4.4C115.9,121.3,85.7,434.9,85.7,434.9   s30.2,0,25.6,14.4c-4.7,14.4,28.7,20.6,34.7,24.1c0.2,0.1,2.5,0.2,2.7,0.4c0.5-3,0.9-5.9,1.3-8.9c5.5-39.5,12.1-88.1,43.3-119.7   c7.8-7.9,19.1-11.6,30.2-14.3c-4.6-2.3-8.8-5.3-12.7-8.7c-7.2-4-24.6-27.5-28-31.2c-2.1-2.2-0.6-5.2,1.6-5.9   c-5.4-7.1-10.2-15.1-14.2-23.8c6.3-14.5,10.7-29.8,11-45.7c0.4-13.3-2-26.6-1.2-39.9c0.5-8.2,2.6-16.7,6.6-23.7   c6.7-6.1,14.3-11.2,22.5-15.3c5.3-1,10.9-1.1,16.3-1.2c9.8-0.2,19.6-0.3,29.3-0.5c13.4-0.2,27.6-0.2,38.9,7.1   c6.4,4.1,11.3,10.2,15.5,16.6c17.5,27,22.2,59.8,28.2,92.1c-2.9,7.2-9,36.2-14,42.1c-2,2.4-4.1,4.8-6.1,7.3c-2,3.4-4.1,6.7-6.5,9.9   c-3.5,4.7-7.2,9.4-12.5,12.2c-0.3,0.1-0.5,0.3-0.8,0.4c-2.8,2.1-5.7,3.9-8.7,5.5c6.5,1.5,12.9,1.5,19,4.2   c23.1,10.2,36.2,31.4,47.7,53.5c5.2,10,9.2,20.6,12.5,31.4c1.8,6,3.4,12.1,4.6,18.3c0.5,2.6,0.5,5.7,1.5,8.1   c0.8,1.9,5.3,11.9,6.4,13.6c4.9-5.8,7-21.9,15.8-21.5c16.1,0.7,27.6-15.6,27.6-15.6S369.6,178.9,357.7,151z"/>
	<path class="st0 file-7-element-15" d="M523.6,320.1c-27-25.9-112,75.4-142.6,117.2c-32.2-5.7-129.4-44.6-161.6-50.3c-8.3,19.9-23.2,33.6-25.3,70.5   c-1.5,26.6,5.4,63.2,5.4,63.2l227.9-18.8c8.5-1,16.4-5.1,22.1-11.6C477.9,457.8,561.4,356.3,523.6,320.1z"/>
	<path class="st0 file-7-element-16" d="M683.4,657.8c0,0-0.1-0.1-0.2-0.1l-8.8-57.9l-27.4,4l-74.7-263.1c0.3-0.4,0.7-0.8,1-1.3   c0.6-0.2,0.8-0.4,0.5-0.6l-5.3-35.4c35.6-13.6,61.6-49,63.9-91.2c11-8.4,22.3-28.6,14.8-39.6c-5-7.2-11-4.8-15.5-1   c-3.7-47.5-21.6-93.8-99.6-90.5c-78.5,3.3-92,45-94.2,90.1c-4.5-3.6-10.2-5.6-15,1.4c-7.5,10.9,3.8,31.1,14.7,39.5   c2,43.3,29.7,79.1,67.4,92.1l-7.1,32.6L449,457.7l-85.5,10.9L248,432.8l6.6-22.7c-14.1,0-30.4,2.2-43.4-3.3   c-4.7-2-9.2-4.3-13.7-6.7c-4.8-9.4-13.8-15.9-22.4-22c-5.1-3.5-10.6-7.2-16.7-7.2c-1.8,0-3.7,0.4-5.1,1.5c-1.4,1.1-2.2,3.2-1.5,4.9   c0.2,0.5,0.5,0.8,0.8,1.2c-1.1-0.6-2.1-1.2-3.2-1.7c-2.1-1-5.1-2.6-7.4-2.9c-3.2-0.4-4.7,2.6-3.4,5.4c0.7,1.5,2.7,3.7,4.5,5.6   c-0.2,0.2-0.4,0.4-0.6,0.6c-0.1,0.1-0.2,0.2-0.3,0.3c-1.9-0.9-4-1.9-5.8-2.1c-3.2-0.4-4.7,2.6-3.4,5.4c1,2,4.1,5.2,6.2,7.2   c0.1,1.4,0.3,2.8,0.6,4.1c-2.7-1.1-4.9-2-5.7-2c-0.7,0-1.5,0-2.1,0.4c-1.4,0.9-1.1,3-0.3,4.4c2.7,5.1,7.2,9.2,12.7,11.5   c0,0,0,0.1,0,0.1c-1.3-0.5-2.6-0.8-3.9-1.1c-3.2-0.7-5.1,1.6-3.1,4.5c2.1,3.1,6.9,6,10.2,7.8c1.5,0.9,3.2,1.5,4.9,2   c2.9,2.9,6.5,5.2,10.5,6.1c11,2.4,22-5.8,33.1-4.2c3.2,0.5,6.3,1.7,9.3,3c12.7,5.3,25.4,10.6,38,15.9l4.3-14.9l115.7,35.8l0.2,0   l80.9-18.4l11.1,1.5l41.6-112.5l-18,82.2c0.6,0.4,1.2,0.7,1.9,1.1l19.5-89.3l8.8-15.6v24.4c0,0,6,14.9,18.4,19.9L509.2,870   l-11.4-0.8c1.4,23.2,5.7,46.9,3.6,70.1c-0.6,6.5-1.3,13.2-4.2,19c-4.5,8.9-13.4,14.7-21.9,19.9c-11.9,7.4-23.7,14.7-35.6,22.1   c-4.1,2.6-8.8,7.1-6.5,11.4c1.5,2.8,5.4,3.3,8.6,3.2c16-0.9,30-10.5,45-16.2c9.5-3.6,19.6-5.6,29.8-6c4.3-0.2,9.3-0.4,11.6-4   c1.1-1.7,1.8-3.9,1.4-5.8c-7.6-40.8,3-74.6,9.9-110.6l-28.4-2.1l18.6-506.6c2.3,0.7,4.9,1,7.6,0.9l46.1,506.4l-18.7,1.4   c7,36,17.6,69.8,9.9,110.6c-0.4,2,0.3,4.1,1.4,5.8c2.3,3.6,7.3,3.9,11.6,4c10.2,0.4,20.3,2.4,29.8,6c15,5.7,29,15.3,45,16.2   c3.2,0.2,7-0.3,8.6-3.2c2.3-4.2-2.4-8.8-6.5-11.4c-11.8-7.4-23.7-14.7-35.6-22.1c-8.5-5.3-17.4-11-21.9-19.9   c-2.9-5.8-3.7-12.5-4.2-19c-2.1-23.2,2.2-46.8,3.6-70.1l-21,1.5l-46.1-506.4c8.5-1.2,18.9-7.1,31.2-21.6l74.3,261.4l-6.9,1   l18.8,50.4c-0.2,0.3-0.5,0.6-0.7,0.9c-0.1,0.1-0.2,0.2-0.2,0.3c-0.2,0.3-0.3,0.5-0.5,0.8c-3.1,2-9.2,6.9-10.8,16.5   c-1.4,8.3-9.6,17.7-8,19.4s8.9,0.1,10.3-2.5c0.5-0.9,3.5-4.1,6.5-8.3c0.1,14,0.6,26.3,0.6,26.3s-2.6,24-1.3,28.8   c0.1,0.5,0.3,0.8,0.5,0.8c1.8,0.6,6.8-13,9.1-21.8c-1.5,9.4-4,26.6-1.9,27.3c2.7,1,7.7-17.7,8.2-19.4c-0.8,5.8-4.2,18.5-1.2,23.5   c5.3-5,8.2-18.3,9.2-25.3c-1,6.8-1.7,13.5-0.3,14c0.2,0.1,0.4,0,0.6-0.1c0,0,0,0,0,0c2.4,0.9,8.5-16.7,10.1-26.1   c1.1-3.3,1.9-7.6,2.4-12.3C691.3,683,689.7,662.3,683.4,657.8z M157.4,381.7c-0.8-0.6-1.6-1.2-2.5-1.8c1,0.4,2.1,0.8,3.1,1.2   c0.7,0.3,1.3,0.7,1.8,1.1C159,382.1,158.2,381.9,157.4,381.7z M509.4,316.5l-8.1,14.3l5.7-25.9c0.8,0.2,1.6,0.5,2.4,0.8   L509.4,316.5L509.4,316.5z"/>
	<g>
		<g>
			<path class="st0 file-7-element-17" d="M545.3,377c13.9-2.2,30.4-2.5,42.4-9.9c15.2-9.4,28.1-22.5,44-30.7c3.3-1.7,6.7-3.1,10.3-3.6
					s7.5,0.3,10.4,2.6c2.9,2.3,4.4,6.1,4.8,9.8c0.4,3.7-0.1,7.4-0.7,11.1c-1,6-2,12.1-4.5,17.6s-6.8,10.5-12.4,12.7
					c-10.5,4-22.6-2.3-33.4,0.9c-3.1,1-6,2.7-8.8,4.4c-11.7,7.2-23.4,14.3-35.1,21.5"/>
			<g>
				<path class="st0 file-7-element-18" d="M653.5,376.1c-3.1,2.4-6.8,4.1-10.7,4.3c-1.5,0-3.3-0.5-3.5-1.9c-0.2-0.9,0.4-1.8,1-2.5
					 c4.3-5.3,12-10.6,18.3-13.1c3-1.2,5.3,0.8,3.8,4C660.7,370.2,656.4,373.9,653.5,376.1z"/>
			</g>
			<g>
				<path class="st0 file-7-element-19" d="M600,359.1c3.1-10.4,11.2-18.5,19-26c4.5-4.3,9.3-8.8,15.4-9.7c1.8-0.3,3.7-0.2,5.3,0.7s2.7,2.8,2.2,4.5
					 c-0.6,2.5-3.5,3.4-5.6,4.8c-3.1,2.1-4.8,5.6-5.8,9.2c-1,3.5-1.6,7.3-3.1,10.6s-4.2,6.5-7.9,7.2"/>
			</g>
			<g>
				<path class="st0 file-7-element-20" d="M641.1,365.6c-1-1.5-0.8-3.5,0.2-4.9c0.4-0.7,1-1.3,1.6-1.8c0.2-0.1,0.3-0.1,0.4-0.2
					 c1.8-1,16.7-11.2,19.2-11.8c0.7-0.1,1.5-0.3,2.1,0c1.6,0.7,1.5,2.8,1,4.3c-2.5,7.3-8.5,13.2-16.1,15.9c-1.4,0.5-2.9,0.9-4.5,0.7
					 C643.6,367.6,642,366.9,641.1,365.6z"/>
			</g>
			<g>
				<path class="st0 file-7-element-21" d="M645.5,355.4c-0.7,0.5-1.5,1.1-2.1,1.7c-1.4,0.8-3.1,1.4-4.5,0.7c-1.3-0.6-1.9-2.2-1.8-3.6
					 c0.1-1.4,0.7-2.7,1.4-4c3.1-5.4,7.5-10.1,12.7-13.5c1.9-1.3,4.7-3.4,6.9-4c3.2-0.9,5.1,1.9,4.2,4.8c-1,3.2-6.4,9.9-6.6,10
					 c-2.5,1.7-4.7,3.8-7.1,5.7C647.5,354,646.4,354.7,645.5,355.4z"/>
			</g>
			<g>
				<path class="st0 file-7-element-22" d="M638.5,346.5c-0.7,0.5-1.5,1.1-2.1,1.7c-1.4,0.8-3.1,1.4-4.5,0.7c-1.3-0.6-1.9-2.2-1.8-3.6
					 c0.1-1.4,0.7-2.7,1.4-4c3.1-5.4,7.5-10.1,12.7-13.5c1.9-1.3,4.7-3.4,6.9-4c3.2-0.9,5.1,1.9,4.2,4.8c-1,3.2-6.4,9.9-6.6,10
					 c-2.5,1.7-4.7,3.8-7.1,5.7C640.6,345.1,639.5,345.8,638.5,346.5z"/>
			</g>
		</g>
		<g>
			<path class="st0 file-7-element-23" d="M265.6,329.4c22.7-29.7,122.2,57.3,158.9,93.9c30.9-10.6,121-64,151.9-74.5c11.2,18.4,28.1,29.6,35.9,65.8
					c5.6,26,4.4,63.3,4.4,63.3l-228,16.4c-8.6,0.3-17-2.6-23.6-8.1C332,458.5,233.8,371,265.6,329.4z"/>
		</g>
	</g>
	<path class="st0 file-7-element-24" d="M375,979c-11.4-7.1-22.8-14.1-34.1-21.2c-8.1-5.1-16.7-10.5-21-19.1c-2.8-5.6-3.5-12-4.1-18.2   c-2-22.2,2.1-44.9,3.5-67.2l-18.4,1.3c-5-33.4-9.5-62.3-10.6-64.4l-0.5-0.6l-0.6,0.1c-1.2,0.1-3.3,0.3-35.4,88.1   c-2.3,6.4-4.7,12.8-6.9,19c2.4-13.6,5.6-26.9,8.3-40.6l-11-0.8l74.6-412.4l5.2,13.5c0.5-0.4,1.1-0.8,1.6-1.2l-6.2-16l0.3-1.6   l-1-0.2l-45.5-118.3c30.9-8.1,50.8-34.8,64.3-68.9c-6-32.3-10.8-65-28.2-92.1c-4.1-6.4-9.1-12.5-15.5-16.6   c-11.4-7.3-25.6-7.3-38.9-7.1c-9.8,0.2-19.6,0.3-29.3,0.5c-5.4,0.1-11,0.2-16.3,1.2c-8.2,4.1-15.8,9.3-22.5,15.3   c-4.1,7-6.1,15.5-6.6,23.7c-0.8,13.3,1.5,26.6,1.2,39.9c-0.3,15.9-4.7,31.2-11,45.7c11.5,25.3,29.8,44.3,50.9,53.9   C202.9,397,175.6,521.3,160,597l-21-1.5l-4.2,56c-0.1,0-0.1,0.1-0.2,0.1c-5.6,4.7-5.7,24.6-2.7,39.2c0.8,4.5,1.9,8.5,3.2,11.6   c2.2,8.9,9.4,25.2,11.6,24.2c0,0,0,0,0,0c0.2,0.1,0.4,0.2,0.6,0.1c1.3-0.6,0.1-6.9-1.3-13.3c1.3,4,6.1,22.9,10.9,23.1   c1.4-7.7-1.9-14.8-3.2-22.1c0.6,1.7,6.7,19.3,9.3,18.2c1.9-0.8-1.7-17.1-3.9-26c2.8,8.3,8.6,20.8,10.3,20.2   c0.2-0.1,0.3-0.4,0.4-0.8c0.9-4.7-3.4-27.5-3.4-27.5s-0.4-11.8-1.4-25.2c3.2,3.8,6.3,6.6,6.8,7.5c1.5,2.4,8.6,3.4,10.1,1.6   s-7.1-10.1-9.1-18c-2.3-9.1-8.4-13.4-11.6-15c-0.2-0.3-0.4-0.5-0.5-0.7c-0.1-0.1-0.1-0.2-0.2-0.3c-0.2-0.3-0.5-0.5-0.8-0.8   l14.3-49.6l-12.2-0.8c14.6-70.5,39.8-185.7,61-281.8c9.5,4.1,19.6,6.3,29.9,6.3c6.5,0,12.7-0.7,18.4-2.1l46.1,119.8l-75.2,415.8   l-27.1-2c1.4,22.3,5.4,45,3.4,67.2c-0.6,6.2-1.3,12.6-4.1,18.2c-4.3,8.6-12.8,14-21,19.1c-11.4,7.1-22.8,14.1-34.1,21.2   c-3.9,2.5-8.5,6.8-6.2,10.9c1.5,2.7,5.1,3.2,8.2,3c15.4-0.8,28.8-10.1,43.2-15.5c9.1-3.5,18.8-5.4,28.6-5.7   c4.1-0.1,8.9-0.4,11.1-3.9c1-1.7,1.7-3.7,1.3-5.6c-3.7-19.7-2.9-37.7-0.4-55.1c19.3-53.2,39-106.2,43.9-114.6   c1.5,6.2,5.4,31.1,10,62.2l-19.7,1.4c6.7,34.5,16.9,67,9.5,106.1c-0.4,1.9,0.3,4,1.3,5.6c2.2,3.5,7,3.7,11.1,3.9   c9.8,0.3,19.5,2.3,28.6,5.7c14.4,5.4,27.8,14.7,43.2,15.5c3.1,0.2,6.7-0.3,8.2-3C383.5,985.8,379,981.4,375,979z"/>
	<path class="st0 file-7-element-25" d="M216.2,339.6c-30.4-7.9-48.2,37.5-58.3,82.9c0,0,0,0,0,0c0.1,0,0.2,0,0.4,0.1c0.2,0.1,0.4,0.1,0.6,0.2   c0,0,0.1,0,0.1,0.1c0.1,0.1,0.3,0.2,0.4,0.3c0,0,0,0,0,0c0,0,0.1,0,0.1,0.1c0.1,0.1,0.3,0.3,0.4,0.5c0.1,0.2,0.2,0.4,0.2,0.6   c0,0.1,0,0.2,0.1,0.4c0.1,0.2,0.1,0.3,0.2,0.5c0.1,0.3,0.1,0.6,0,1c-0.1,0.1-0.1,0.3-0.2,0.4c-0.1,0.2-0.3,0.4-0.5,0.5   c-0.2,0.2-0.4,0.3-0.6,0.3c-0.3,0.1-0.7,0.2-1,0.2c-0.3,0-0.6-0.1-0.9-0.2c-0.1,0-0.2-0.1-0.3-0.1c-5.9,28.2-8.9,55.6-10.2,69.5   l-0.4,0L101,649.5c0,0,10.6,5.5,32.2,9.4c21.6,3.9,24.6,4.5,46.3,0.6c-0.9-26.9,25.1-141.4,25.1-141.4   C221.6,472,235.1,344.5,216.2,339.6z"/>
	<path class="st0 file-7-element-26" d="M247.6,961.7c0.2,3.2-8.1,7.7-10.4,8.7c-5.1,2.3-9.8,1.2-15,2.1c-6,1-12,2.1-18,3.1c-0.4-2.5-1.2-7.2-3-11.1   c4-3.5,15.4-14,19.9-24.5h21.9v-11.2l-26.4,3.4c0,0-7.5,20.9-28.5,28.1l0.6,0.3l-11.4,7.1c0,0,13.2,5.3,9.5,15.4   c-0.1,0.1-0.2,0.2-0.4,0.3c-5.2,4.8-12.5,8-19.4,8c-5.9,0-14.6,0.1-14.2-7.3c-0.7,0.3-1.3,0.6-1.8,0.9c-9.7,6.1-6.4,16.5,10.5,16.5   s52.6-20,55.4-20.6s17.9-0.6,27.1-1.2C251.5,979.2,247.8,966.2,247.6,961.7z"/>
	<path class="st0 file-7-element-27" d="M288.5,961.7c-0.2,3.2,8.1,7.7,10.4,8.7c5.1,2.3,9.8,1.2,15,2.1c6,1,12,2.1,18,3.1c0.4-2.5,1.2-7.2,3-11.1   c-4-3.5-15.4-14-19.9-24.5H293v-11.2l26.4,3.4c0,0,7.5,20.9,28.5,28.1l-0.6,0.3l11.4,7.1c0,0-13.2,5.3-9.5,15.4   c0.1,0.1,0.2,0.2,0.4,0.3c5.2,4.8,12.5,8,19.4,8c5.9,0,14.6,0.1,14.2-7.3c0.7,0.3,1.3,0.6,1.8,0.9c9.7,6.1,6.4,16.5-10.5,16.5   s-52.6-20-55.4-20.6s-17.9-0.6-27.1-1.2C284.6,979.2,288.2,966.2,288.5,961.7z"/>
	<path class="st0 file-7-element-28" d="M337.8,517.9c0,0-8.6-20-0.3-48c5.6-19,6.1-52.1,3.8-78.8c-0.9-10.6-7-29.9-10.7-46c0,0-21.8-23.2-63.1-23.2   c-0.3,0-0.5,0-0.8,0c-0.3,0-0.5,0-0.8,0c-41.3,0-70.9,23.2-70.9,23.2c-3.6,16.1-7.3,32.1-10.9,48.2c-5.9,25.9,0.3,48.3,8.1,74.9   c8.3,28,5,56.2,5,56.2l-62.6,433.1c14.1,4,31.3,8.4,55.2,3.1c30.6-6.8,26.4,1.9,50.8,1.9c17.8,0,51.2-7.9,74.1-4.9   c5.4,4.7,16.3,0.3,29,3.1c23.9,5.3,46.6-5.7,60.6-9.7L337.8,517.9z"/>
	<path class="st0 file-7-element-29" d="M196.8,389.2c-0.3,9,2.1,18.2,7.9,25c5.3,6.2,13,9.8,20.8,12.1c13.5,4,27.8,4.4,41.8,3   c15.3-1.5,31.3-5.8,41.8-17c7.1-7.6,11-17.9,11.9-28.2s-1.1-20.8-4.6-30.6c-2-5.6-4.6-11.1-8.8-15.4c-3.8-3.9-8.6-6.5-13.6-8.5   c-15.8-6.2-33.4-5.9-50.2-3.5c-12.5,1.8-21.7-0.6-33.7,15.4C198,357.5,197.1,379.2,196.8,389.2z"/>
	<path class="st0 file-7-element-30" d="M337.4,250.2c-16.3,41.2-41.8,71.5-84.6,71.5c-33.7,0-65.5-23.5-82.6-61c-0.4,0.9-0.8,1.8-1.2,2.8   c-1.8,3.9,8.8,20.7,10.7,24.2c16.8,31.4,45.7,56.2,83.3,49.1c0,0,67.8-13.5,74.5-86.3C337.4,250.3,337.4,250.2,337.4,250.2z"/>
	<path class="st0 file-7-element-31" d="M309.2,158.1c-4.1-6.4-9.1-12.5-15.5-16.6c-11.4-7.3-25.6-7.3-38.9-7.1c-9.8,0.2-19.6,0.3-29.3,0.5   c-9.9,0.2-20.4,0.5-28.8,5.9c-11,7-15.8,21.1-16.6,34.4c0,0.5,0,0.9-0.1,1.4c20.8-17.5,69.4-45.9,136.6-5.1   C314.4,166.9,312,162.4,309.2,158.1z"/>
	<path class="st0 file-7-element-32" d="M306.9,301.7c0.1-0.1,0.2-0.2,0.2-0.3c1.2-1.9,2.6-3.7,4-5.5c0.4-0.7,0.9-1.4,1.3-2.2   c-2.9,3.3-5.9,6.4-9.1,9.2c1.1-0.4,2.3-0.8,3.5-1.2C306.8,301.7,306.8,301.8,306.9,301.7z"/>
	<g>
		<path class="st0 file-7-element-33" d="M254.6,410.1c-14.1,0-30.4,2.2-43.4-3.3c-16.5-6.9-31.2-17.9-48.2-23.6c-3.5-1.1-7.1-2.1-10.8-2    c-3.7,0.1-7.4,1.4-9.9,4.1c-2.5,2.8-3.4,6.7-3.3,10.4c0.2,3.7,1.3,7.3,2.4,10.9c1.9,5.8,3.8,11.6,7.2,16.7    c3.4,5.1,8.3,9.4,14.2,10.6c11,2.4,22-5.8,33.1-4.2c3.2,0.5,6.3,1.7,9.3,3c12.7,5.3,25.4,10.6,38,15.9"/>
		<path class="st0 file-7-element-34" d="M138.8,407.1c2.1,2,5.1,3.3,7.9,4.6C144,410.1,141.5,408.4,138.8,407.1z"/>
		<path class="st0 file-7-element-35" d="M146.6,411.7c1.7,1,3.5,2,5.3,2.8c0.1,0.1,0.3,0.1,0.4,0.2c-0.8-0.5-1.6-0.9-2.4-1.3    C149,412.8,147.8,412.2,146.6,411.7z"/>
		<g>
			<path class="st0 file-7-element-36" d="M147.5,425.9c3.4,1.9,7.4,3,11.2,2.6c1.4-0.2,3.2-1,3.2-2.4c0-0.9-0.7-1.7-1.4-2.3
					c-5.1-4.6-13.4-8.6-20.1-10.2c-3.2-0.7-5.1,1.6-3.1,4.5C139.5,421.2,144.3,424.1,147.5,425.9z"/>
		</g>
		<g>
			<path class="st0 file-7-element-37" d="M197.8,400.9c-4.6-9.8-13.9-16.5-22.8-22.8c-5.1-3.5-10.6-7.2-16.7-7.2c-1.8,0-3.7,0.4-5.1,1.5
					c-1.4,1.1-2.2,3.2-1.5,4.9c1,2.4,4,2.8,6.3,3.9c3.4,1.6,5.6,4.9,7.2,8.2s2.7,6.9,4.7,10s5.2,5.8,8.9,5.9"/>
		</g>
		<g>
			<path class="st0 file-7-element-38" d="M158.1,413.6c0.8-1.7,0.2-3.6-0.9-4.9c-0.5-0.6-1.2-1.1-1.9-1.5c-0.2,0-0.3-0.1-0.5-0.1
					c-2-0.7-18.2-8.5-20.8-8.7c-0.7,0-1.5,0-2.1,0.4c-1.4,0.9-1.1,3-0.3,4.4c3.6,6.8,10.4,11.8,18.4,13.2c1.5,0.3,3,0.4,4.5,0
					C156,416,157.5,415,158.1,413.6z"/>
		</g>
		<g>
			<path class="st0 file-7-element-39" d="M152.3,404.2c0.8,0.4,1.6,0.8,2.4,1.3c1.5,0.6,3.2,0.9,4.5,0c1.1-0.8,1.5-2.4,1.2-3.8s-1.1-2.6-2-3.7
					c-3.9-4.9-8.9-8.8-14.6-11.4c-2.1-1-5.1-2.6-7.4-2.9c-3.2-0.4-4.7,2.6-3.4,5.4c1.5,3,7.9,8.8,8,8.9c2.7,1.3,5.2,3,7.9,4.6
					C150,403.1,151.2,403.6,152.3,404.2z"/>
		</g>
		<g>
			<path class="st0 file-7-element-40" d="M157.8,394.4c0.8,0.4,1.6,0.8,2.4,1.3c1.5,0.6,3.2,0.9,4.5,0c1.1-0.8,1.5-2.4,1.2-3.8s-1.1-2.6-2-3.7
					c-3.9-4.9-8.9-8.8-14.6-11.4c-2.1-1-5.1-2.6-7.4-2.9c-3.2-0.4-4.7,2.6-3.4,5.4c1.5,3,7.9,8.8,8,8.9c2.7,1.3,5.2,3,7.9,4.6
					C155.5,393.3,156.7,393.8,157.8,394.4z"/>
		</g>
	</g>
	<g>
		<g>
			<path class="st0 file-7-element-41" d="M529.7,982.8c0.4,2-0.3,4.1-1.4,5.8c-2.3,3.6-7.3,3.9-11.6,4c-3.7,0.1-7.5,0.5-11.1,1.1
					c-2.1,0.8-4,1.4-5.5,1.8c-1.4,0.3-3.8,0.7-7,1c-2.1,0.6-4.1,1.3-6.2,2.1c0,0-0.7-7.5-3.3-13.4c4.1-3.6,16-14.6,20.8-25.5h22.8
					V948l-27.5,3.5l-16.8,22l-24.2,15c0,0,16.2,6.4,8.5,18.9l0.9-0.4c-8.5,3.9-17,7.3-26.2,7.8c-3.2,0.2-7-0.3-8.6-3.2
					c-1.2-2.1-0.6-4.4,0.9-6.4c-1.1,0.4-2.1,0.9-2.9,1.3c-10.1,6.3-6.6,17.2,10.9,17.2c17.6,0,54.8-20.9,57.8-21.5
					c3-0.6,18.7-0.6,28.2-1.3C537.8,1000.4,529.7,982.8,529.7,982.8z"/>
			<path class="st0 file-7-element-42" d="M574,982.8c-0.4,2,0.3,4.1,1.4,5.8c2.3,3.6,7.3,3.9,11.6,4c3.7,0.1,7.5,0.5,11.2,1.1c2.1,0.8,4,1.4,5.5,1.8
					c1.4,0.3,3.8,0.7,7,1c2.1,0.6,4.1,1.3,6.2,2.1c0,0,0.7-7.5,3.3-13.4c-4.1-3.6-16-14.6-20.8-25.5h-22.8V948l27.5,3.5l16.8,22
					l24.2,15c0,0-16.2,6.4-8.5,18.9l-0.9-0.4c8.5,3.9,17,7.3,26.2,7.8c3.2,0.2,7-0.3,8.6-3.2c1.2-2.1,0.6-4.4-0.9-6.4
					c1.2,0.4,2.1,0.9,2.9,1.3c10.1,6.3,6.6,17.2-10.9,17.2s-54.8-20.9-57.8-21.5c-3-0.6-18.7-0.6-28.2-1.3
					C565.9,1000.4,574,982.8,574,982.8z"/>
			<path class="st0 file-7-element-43" d="M666.7,503.2c0,0-21.5-188.7-81.6-169.9c-18.3,5.7,7.8,120.9,27.6,173.6c2.3,34.7,23.2,131.2,24.6,162.7
					c22.8,2.3,25.9,1.5,48-4.3s32.7-12.4,32.7-12.4L666.7,503.2z"/>
			<path class="st0 file-7-element-44" d="M632.6,555.6l-30.8-219.9c0,0-8.4-10-29.3-13.6c-0.1,2.1-0.3,4.2-0.6,6.2c-0.8,5.4-2.3,10.7-4.7,15.6
					c-3.7,7.5-9.7,13.7-17.4,17c-7.7,3.3-17.7,4.6-25.6,1.2c-12.6-5.4-14-21-15.2-33.5c-20.3,5.4-37.3,12.2-37.9,16.1
					c-1.2,7.2-9.6,271.6-9.6,271.6l-17,358.4l47.3-11.2l50.7,10.8c0,0,27.9-15.2,42.8-15.2s82.4,14.6,91.9,6.4L632.6,555.6z"/>
			<path class="st0 file-7-element-45" d="M560,310.1c-2.5,3.2,24.6,22.6,15.8,47.8c-9.6,27.4-38.3,59-38.3,59s62.1-11.5,84.6-42.6
					C644.6,343.1,569.9,297.6,560,310.1z"/>
			<path class="st0 file-7-element-46" d="M515.3,310.1c2.5,3.2-24.6,22.6-15.8,47.8c9.6,27.4,34.2,59,34.2,59s-58-11.5-80.5-42.6
					S505.4,297.6,515.3,310.1z"/>
			<g>
				<path class="st0 file-7-element-47" d="M637.1,179c14-32.8-3.6-56.3-3.6-56.3c-4.3-36.7-26.2-36.6-26.2-36.6c-20-23.2-43.7-12.3-43.7-12.3
					 c-20.5-16.8-46.4-4.1-46.4-4.1c-26-15.9-43.5,10-44.6,9.6c-18.2-0.5-29.2,14.1-29.2,14.1c-10.9,9.6-17.6,40.9-17.6,40.9
					 c-25.9,29.5,5.1,46,5.1,46l2.9,2.4c1,7.1,2.3,17.3,2.4,22.7c0,3.6-1.6,7.4-1.6,7.4c-2.6,8.9-5,18.2,4.7,24.6
					 c-5,6-6.5,14.4-4,21.7c2.5,7.3,9.1,13.1,16.8,15c-5.2,4.3-7.3,11.9-5,18.1c2.3,6.3,8.9,10.9,15.8,11.1
					 c-1.6,4.3-0.5,9.4,2.9,12.6c3.4,3.2,8.7,4.3,13.1,2.7c-0.3,7.8,4,15.6,10.9,19.7c5.6,3.3,12.6,4,18.9,2.1
					 c10.7,11,37.1,11,47.8,0c6.2,1.9,13.3,1.1,18.9-2.1c6.9-4.1,11.3-11.9,10.9-19.7c4.4,1.6,9.8,0.5,13.2-2.7
					 c3.3-3.2,4.5-8.4,2.9-12.6c6.9-0.2,13.5-4.8,15.8-11.1s0.2-13.8-5-18.1c7.7-1.9,14.3-7.7,16.8-15c2.5-7.3,1-15.7-4-21.7
					 c9.7-6.4,7.4-15.6,4.7-24.6c0,0-1.7-3.9-1.6-7.4c0.1-5.7,1.5-16.7,2.5-23.8C633.7,180.3,635.8,179.2,637.1,179z M565,250.9
					 c-9.5-27.1-30.6-25.2-30.6-25.2c5.8,18.6,11.5,28.5,16.5,33.4c-1.6,0.6-3.2,1.2-4.8,1.7c-4.3,1.2-8.8,1.8-13.5,1.9
					 c-4.7-0.1-9.2-0.7-13.5-1.9c-1.2-0.4-2.4-0.8-3.5-1.2c5.1-4.7,11-14.6,17-33.9c0,0-21.7-1.9-31,26.3c-22.2-15.7-40-45.3-51.4-67
					 c7.8-47.9,27.2-87.6,35.4-90c5.6-1.6,11.6-0.4,17.1,1.7c7.3,2.8,14.1,6.9,21.4,9.8c9.4,3.7,18.8-0.8,26.8-5.7
					 c7.2-4.5,14.7-9.5,23.1-9.7c6.8-0.1,12.8,6.7,17.7,11.5c19.6,19.1,21.4,67.8,21.4,86.1C601.9,209.4,585.3,235.9,565,250.9z"/>
			</g>
		</g>
	</g>
	<g>
		<g>
			<g>
				<g>
					<path class="st0 file-7-element-48" d="M630.5,212.9c0,0-1.7-3.9-1.6-7.4c0.1-8.8,3.5-30.4,3.5-30.4l-7.4-0.7c-1.9,1-4.4,2.9-6.7,6
					  c-1.3,1.2-2.4,2.6-3.4,4.4c-14.2,27.2-38.6,66.9-69,76c-4.3,1.2-8.8,1.8-13.5,1.9c-4.7-0.1-9.2-0.7-13.5-1.9
					  c-30.4-9.1-54.8-48.9-69-76c-0.9-1.8-2.1-3.2-3.4-4.4c-2.2-3.1-6.8-4-6.8-4c-3.9-1.3-7.2-1.2-7.2-1.2s3.4,21.6,3.5,30.4
					  c0,3.6-1.6,7.4-1.6,7.4c-2.6,8.9-5,18.2,4.7,24.6c-5,6-6.5,14.4-4,21.7c2.5,7.3,9.1,13.1,16.8,15c-5.2,4.3-7.3,11.9-5,18.1
					  c2.3,6.3,8.9,10.9,15.8,11.1c-1.6,4.3-0.5,9.4,2.9,12.6c3.4,3.2,8.7,4.3,13.1,2.7c-0.3,7.8,4,15.6,10.9,19.7
					  c5.6,3.3,12.6,4,18.9,2.1c10.7,11,37.1,11,47.8,0c6.2,1.9,13.3,1.1,18.9-2.1c6.9-4.1,11.3-11.9,10.9-19.7
					  c4.4,1.6,9.8,0.5,13.2-2.7c3.3-3.2,4.5-8.4,2.9-12.6c6.9-0.2,13.5-4.8,15.8-11.1s0.2-13.8-5-18.1c7.7-1.9,14.3-7.7,16.8-15
					  c2.5-7.3,1-15.7-4-21.7C635.5,231.1,633.2,221.9,630.5,212.9z"/>
				</g>
			</g>
		</g>
	</g>
</g>
<g id="Blacklines">
	<path class="st1 file-7-element-49" d="M360.2,507.8c-3.8,25.7-7.8,52.7-11.8,80"/>
	<path class="st1 file-7-element-50" d="M433.4,662.5c-7.8-52.9-16.1-109.2-23.5-159.9"/>
	<path class="st1 file-7-element-51" d="M447.5,492.9c5.3,13.4,10.8,27.3,16.4,41.4"/>
	<path class="st1 file-7-element-52" d="M423.2,384.1c-3.7-4.7-7.2-9.1-10.4-13.2"/>
	<path class="st1 file-7-element-53" d="M409.1,355.1c6.6,5.3,14.5,11.5,23.4,18.5"/>
	<path class="st1 file-7-element-54" d="M693.9,580.7c64.2,50.9,112.9,89.4,112.9,89.4L885,534.5c0,0-109.5-43.4-226.1-89.6"/>
	<path class="st1 file-7-element-55" d="M445.6,360.2c-15.4-6.1-28.5-11.3-38.5-15.3"/>
	<path class="st1 file-7-element-56" d="M405.8,339.4c11.7,1.7,28,4.1,47.5,7"/>
	<path class="st1 file-7-element-57" d="M654.6,376c131.8,19.4,262.5,38.7,262.5,38.7V258.1c0,0-166.7,24.5-313.3,46.1"/>
	<path class="st1 file-7-element-58" d="M477.4,322.9c-31.2,4.6-56.7,8.4-72.9,10.7"/>
	<path class="st1 file-7-element-59" d="M403.5,329.2c13.5-5.3,33.8-13.4,58.6-23.2"/>
	<path class="st1 file-7-element-60" d="M628,240.3C755.2,189.8,885,138.4,885,138.4L806.8,2.8c0,0-78.2,61.9-167.2,132.4"/>
	<path class="st1 file-7-element-61" d="M445.7,288.7c-18.1,14.3-33.1,26.2-43.6,34.5"/>
	<path class="st1 file-7-element-62" d="M400.7,317.1c9.6-12.1,23.2-29.2,39.4-49.8"/>
	<path class="st1 file-7-element-63" d="M593.3,73.9C661-11.6,719.1-84.9,719.1-84.9l-135.6-78.3c0,0-43.8,110.6-90.3,227.7"/>
	<path class="st1 file-7-element-64" d="M432.5,219.1c-13.7,34.6-26.5,65.3-34.7,86.1"/>
	<path class="st1 file-7-element-65" d="M392.9,285.7c19.6-132.9,70.8-481,70.8-481H307.1c0,0,28.6,194.4,51.3,348.1"/>
	<path class="st1 file-7-element-66" d="M290.9,97.9c-51-128.6-103.5-261.1-103.5-261.1L51.8-84.9c0,0,71.2,89.9,147.8,186.6"/>
	<path class="st1 file-7-element-67" d="M151.2,150.9C54.3,74.2-35.9,2.8-35.9,2.8l-78.3,135.6c0,0,115.5,45.8,235.4,93.3"/>
	<path class="st1 file-7-element-68" d="M106.2,295.2c-128-18.8-252.5-37-252.5-37v156.6c0,0,115.1-17,238.2-35.1"/>
	<path class="st1 file-7-element-69" d="M109.9,445.4c-115,45.6-224.1,89-224.1,89l78.3,135.6c0,0,79.2-62.9,171.7-136.2"/>
	<path class="st1 file-7-element-70" d="M647.5,380.7c-1.9,2.1-4.1,4-6.7,5.2"/>
	<path class="st1 file-7-element-71" d="M653.5,376.1c-3.1,2.4-6.8,4.1-10.7,4.3c-1.5,0-3.3-0.5-3.5-1.9c-0.2-0.9,0.4-1.8,1-2.5   c4.3-5.3,12-10.6,18.3-13.1c3-1.2,5.3,0.8,3.8,4C660.7,370.2,656.4,373.9,653.5,376.1z"/>
	<path class="st1 file-7-element-72" d="M615.4,336.6c1.2-1.2,2.4-2.3,3.5-3.5c4.5-4.3,9.3-8.8,15.4-9.7c1.8-0.3,3.7-0.2,5.3,0.7s2.7,2.8,2.2,4.5   c-0.6,2.5-3.5,3.4-5.6,4.8c-3.1,2.1-4.8,5.6-5.8,9.2c-1,3.5-1.6,7.3-3.1,10.6c-0.1,0.2-0.2,0.5-0.3,0.7"/>
	<path class="st1 file-7-element-73" d="M641.1,365.6c-1-1.5-0.8-3.5,0.2-4.9c0.4-0.7,1-1.3,1.6-1.8c0.2-0.1,0.3-0.1,0.4-0.2   c1.8-1,16.7-11.2,19.2-11.8c0.7-0.1,1.5-0.3,2.1,0c1.6,0.7,1.5,2.8,1,4.3c-2.5,7.3-8.5,13.2-16.1,15.9c-1.4,0.5-2.9,0.9-4.5,0.7   C643.6,367.6,642,366.9,641.1,365.6z"/>
	<path class="st1 file-7-element-74" d="M645.5,355.4c-0.7,0.5-1.5,1.1-2.1,1.7c-1.4,0.8-3.1,1.4-4.5,0.7c-1.3-0.6-1.9-2.2-1.8-3.6   c0.1-1.4,0.7-2.7,1.4-4c3.1-5.4,7.5-10.1,12.7-13.5c1.9-1.3,4.7-3.4,6.9-4c3.2-0.9,5.1,1.9,4.2,4.8c-1,3.2-6.4,9.9-6.6,10   c-2.5,1.7-4.7,3.8-7.1,5.7C647.5,354,646.4,354.7,645.5,355.4z"/>
	<path class="st1 file-7-element-75" d="M638.5,346.5c-0.7,0.5-1.5,1.1-2.1,1.7c-1.4,0.8-3.1,1.4-4.5,0.7c-1.3-0.6-1.9-2.2-1.8-3.6   c0.1-1.4,0.7-2.7,1.4-4c3.1-5.4,7.5-10.1,12.7-13.5c1.9-1.3,4.7-3.4,6.9-4c3.2-0.9,5.1,1.9,4.2,4.8c-1,3.2-6.4,9.9-6.6,10   c-2.5,1.7-4.7,3.8-7.1,5.7C640.6,345.1,639.5,345.8,638.5,346.5z"/>
	<path class="st1 file-7-element-76" d="M147.5,473.7c-0.5-0.3-1-0.5-1.5-0.8c-6.1-3.4-39.4-9.7-34.7-24.1c4.7-14.4-25.6-14.4-25.6-14.4   s30.2-313.6,112.1-332.8c31.5-7.4,60-9.6,90.1-4.4s57.9,25.3,69.8,53.3c9.4,22,45,176.3,59.7,240.8"/>
	<g>
		<g>
			<path class="st1 file-7-element-77" d="M134.8,700.9c1.7,8.4,9.6,26.9,11.9,25.8c2.5-1.1-3.7-25.1-4.2-27"/>
			<path class="st1 file-7-element-78" d="M142.6,701c1.2,8.5,11.8,37.1,14.3,36c2.4-1.1-5.7-33.5-6.8-37.6"/>
			<path class="st1 file-7-element-79" d="M149.8,699.8c0.2,6.5,10.7,34,13.3,32.8s-5.3-31.7-5.3-31.7s0.2-3.9,0.1-4"/>
			<path class="st1 file-7-element-80" d="M157.8,698.8c0.3,5.1,9.5,28.9,11.7,28c2.2-0.9-3-28.3-3-28.3"/>
		</g>
		<path class="st1 file-7-element-81" d="M171.9,661.3c0.4,1,0.7,2,1,3.1c0.5,2,1.4,4,2.5,6"/>
		<path class="st1 file-7-element-82" d="M172.6,681.5c-0.3-0.2-0.5-0.5-0.7-0.7c-0.5-0.8-3.3-3.4-6.4-7"/>
		<g>
			<path class="st1 file-7-element-83" d="M135.7,703.8c-4.6-9.8-7.1-32.1-4.6-44.5"/>
			<path class="st1 file-7-element-84" d="M164.3,663c1.5,17,2.2,35.5,2.2,35.5"/>
		</g>
	</g>
	<path class="st1 file-7-element-85" d="M195.3,344.3c-18.6,13-30,45.5-37.1,77"/>
	<path class="st1 file-7-element-86" d="M156.5,429c-5.7,27.6-8.6,54.3-9.9,67.9l-0.4,0L101,649.5c0,0,10.6,5.5,32.2,9.4c20.6,3.8,24.3,4.5,43.3,1.1"/>
	<path class="st1 file-7-element-87" d="M288.8,962.2c0,0-7.8,16.9,1.4,17.5s24.2,0.6,27.1,1.2s38.5,20.6,55.4,20.6c16.6,0,20.1-10.2,10.9-16.3"/>
	<path class="st1 file-7-element-88" d="M348.6,962.5c8.8,5.5,17.6,10.9,26.4,16.4c4,2.5,8.5,6.8,6.2,10.9c-1.5,2.7-5.1,3.2-8.2,3   c-15.4-0.8-28.8-10.1-43.2-15.5c-9.1-3.5-18.8-5.4-28.6-5.7c-4.1-0.1-9-0.4-11.1-3.9c-1-1.7-1.7-3.7-1.3-5.6   c0.3-1.8,0.6-3.6,0.9-5.3"/>
	<path class="st1 file-7-element-89" d="M349.9,963.3c3.2,2,7.1,4.4,7.1,4.4s-15.5,6.2-8.2,18.1l-18.9-8.4c0,0,0.7-7.2,3.2-12.8   c-1.3-1.2-3.5-3.1-6-5.6"/>
	<path class="st1 file-7-element-90" d="M246.2,963.7c1.7,4.2,5.5,15.5-2,16c-9.2,0.6-24.2,0.6-27.1,1.2c-2.9,0.6-38.5,20.6-55.4,20.6   s-20.2-10.5-10.5-16.5c0.4-0.2,0.9-0.5,1.4-0.7"/>
	<path class="st1 file-7-element-91" d="M245.6,962.5c0.2,1.8-0.4,3.7-1.4,5.2c-2.2,3.5-7,3.7-11.1,3.9c-9.8,0.3-19.5,2.3-28.6,5.7   c-14.4,5.4-27.8,14.7-43.2,15.5c-3.1,0.2-6.7-0.3-8.2-3c-2.2-4.1,2.3-8.5,6.2-10.9c9.9-6.2,19.8-12.3,29.7-18.5"/>
	<path class="st1 file-7-element-92" d="M187.7,961.3c-2.8,1.7-10.4,6.4-10.4,6.4s15.5,6.2,8.2,18.1l18.9-8.4c0,0-0.7-7.2-3.2-12.8   c1.5-1.3,4.1-3.7,7-6.7"/>
	<path class="st1 file-7-element-93" d="M219.4,331.5C204.2,337.9,195,345,195,345c-3.6,16.1-7.3,32.1-10.9,48.2c-5.9,25.9,0.3,48.3,8.1,74.9   c8.3,28,5,56.2,5,56.2l-62.6,433.1c14.1,4,31.3,8.4,55.2,3.1c30.6-6.8,26.4,1.9,50.8,1.9c17.8,0,51.2-7.9,74.1-4.9   c5.4,4.7,16.3,0.3,29,3.1c23.9,5.3,46.6-5.7,60.6-9.7l-66.5-432.9c0,0-8.6-20-0.3-48c5.6-19,6.1-52.1,3.8-78.8   c-0.9-10.6-7-29.9-10.7-46c0,0-14.2-13.9-37.5-20.5"/>
	<path class="st1 file-7-element-94" d="M219.9,331.6c-3.2,2.1-6.4,5.2-9.9,9.9c-11.9,16-12.8,37.7-13.2,47.7c-0.3,9,2.1,18.2,7.9,25   c5.3,6.2,13,9.8,20.8,12.1c13.5,4,27.8,4.4,41.8,3c15.3-1.5,31.3-5.8,41.8-17c7.1-7.6,11-17.9,11.9-28.2s-1.1-20.8-4.6-30.6   c-2-5.6-4.6-11.1-8.8-15.4c-3.8-3.9-8.6-6.5-13.6-8.5c-1.7-0.7-4.4-2.3-6.2-2.8"/>
	<path class="st1 file-7-element-95" d="M288.1,348.1c-0.3-2.1-2.3-11.3-3.4-19.1"/>
	<path class="st1 file-7-element-96" d="M226.4,334.3c0,7.4,0,16,0,17.9"/>
	<path class="st1 file-7-element-97" d="M169.3,264.1c9.6,26.5,37,83.4,93.7,72.6c0,0,67.5-13.4,74.5-85.6"/>
	<path class="st1 file-7-element-98" d="M337.3,252c-16.3,39.7-42.6,69.7-84.5,69.7c-33.7,0-65.5-23.5-82.6-60.9"/>
	<path class="st1 file-7-element-99" d="M225.6,278.6c0,0,21.2,11.6,39.6,0"/>
	<path class="st1 file-7-element-100" d="M180,176.5c20.7-17.4,69-45.5,135.6-5.7"/>
	<path class="st1 file-7-element-101" d="M167.6,266.4c7.7-16.1,13.2-33.4,13.6-51.4c0.4-13.3-2-26.6-1.2-39.9s5.7-27.4,16.6-34.4   c8.4-5.4,18.9-5.7,28.8-5.9c9.8-0.2,19.6-0.3,29.3-0.5c13.4-0.2,27.6-0.2,38.9,7.1c6.4,4.1,11.3,10.2,15.5,16.6   c20,31,23.3,69.4,31,106.2"/>
	<path class="st1 file-7-element-102" d="M307.8,132.4c16.1,10.3,27.3,27.3,33.4,45.5s7.5,37.6,7.3,56.8c-0.1,13.2-1,26.4-2.5,39.5   c-2.4,20.4-6.6,41.4-0.7,61c0.2,0.8,0.5,1.5,0.8,2.3"/>
	<path class="st1 file-7-element-103" d="M144.4,267.2c-10.6-46.3,7.3-97.6,39.1-141.6"/>
	<path class="st1 file-7-element-104" d="M144.3,282.6c13.1,11.9,16.9,32.5,12.5,49.2c-3.1,12-10.2,22.5-15.8,33.4"/>
	<path class="st1 file-7-element-105" d="M101.1,426.1c0-17.5,0.9-59.6,9.3-76"/>
	<path class="st1 file-7-element-106" d="M216.6,389.3c14.6,23.8,54.1,17.8,74.6-2.9"/>
	<path class="st1 file-7-element-107" d="M228.6,378.6c14.7,12.1,39.7,9.4,58-2.4"/>
	<path class="st1 file-7-element-108" d="M247.6,207.2c-6.1,18.1-10.9,40.9-10.9,40.9s10.7,3,22.6,1.2"/>
	<path class="st1 file-7-element-109" d="M395.2,389c-5.4-20.7-6.4-41.9-8.8-63c-2.3-19.5-13.2-37.3-14.3-56.9"/>
	<path class="st1 file-7-element-110" d="M188.9,189.8c3.7-6,9.8-10.4,16.5-12.3s14.2-1,20.5,2.3"/>
	<path class="st1 file-7-element-111" d="M271.7,183.2c4-5.5,10.5-9,17.2-9.4s13.6,2.4,18.2,7.4"/>
	<g>
		<g>
			<g>
				<g>
					<g>
						<path d="M216.1,201.5c0.1-0.1,0.1-0.2,0.1-0.4c1.4-3.3-1.5-7.2-4.6-8.1c-3.8-1-6.7,1.3-8.1,4.6c-2.6,6.2-3,12.8-2.1,19.4
					   c0.3,2.5,3.2,4.4,5.4,4.7c2.7,0.3,5.1-0.9,6.5-3.1C216.7,213.5,217.6,207.4,216.1,201.5z" class="undefined file-7-element-112"/>
					</g>
				</g>
				<g>
					<g>
						<path d="M300.3,201.5c0-0.1,0.1-0.2,0.1-0.4c1.4-3.3-1.5-7.2-4.6-8.1c-3.8-1-6.7,1.3-8.1,4.6c-2.6,6.2-3,12.8-2.1,19.4
					   c0.3,2.5,3.2,4.4,5.5,4.7c2.7,0.3,5.1-0.9,6.5-3.1C301,213.5,301.8,207.4,300.3,201.5z" class="undefined file-7-element-113"/>
					</g>
				</g>
			</g>
		</g>
	</g>
	<path class="st1 file-7-element-114" d="M466.1,488.5c-42.5,3.1-77.5,5.6-77.5,5.6c-8.6,0.3-17-2.6-23.6-8.1c-6.4-5.3-15.2-12.9-25.1-22"/>
	<path class="st1 file-7-element-115" d="M331.7,345.9c34.6,22.8,72.9,57.5,92.8,77.3c9.9-3.4,25.7-11.1,43.8-20.4"/>
	<path class="st1 file-7-element-116" d="M147.5,425.9c3.4,1.9,7.4,3,11.2,2.6c1.4-0.2,3.2-1,3.2-2.4c0-0.9-0.7-1.7-1.4-2.3   c-5.1-4.6-13.4-8.6-20.1-10.2c-3.2-0.7-5.1,1.6-3.1,4.5C139.5,421.2,144.3,424.1,147.5,425.9z"/>
	<path class="st1 file-7-element-117" d="M172.3,376.2c-4.3-2.9-8.9-5.4-14-5.4c-1.8,0-3.7,0.4-5.1,1.5c-1.4,1.1-2.2,3.2-1.5,4.9c1,2.4,4,2.8,6.3,3.9   c3.4,1.6,5.6,4.9,7.2,8.2c0.2,0.5,0.5,1.1,0.7,1.6"/>
	<path class="st1 file-7-element-118" d="M158.1,413.6c0.8-1.7,0.2-3.6-0.9-4.9c-0.5-0.6-1.2-1.1-1.9-1.5c-0.2,0-0.3-0.1-0.5-0.1   c-2-0.7-18.2-8.5-20.8-8.7c-0.7,0-1.5,0-2.1,0.4c-1.4,0.9-1.1,3-0.3,4.4c3.6,6.8,10.4,11.8,18.4,13.2c1.5,0.3,3,0.4,4.5,0   C156,416,157.5,415,158.1,413.6z"/>
	<path class="st1 file-7-element-119" d="M152.3,404.2c0.8,0.4,1.6,0.8,2.4,1.3c1.5,0.6,3.2,0.9,4.5,0c1.1-0.8,1.5-2.4,1.2-3.8s-1.1-2.6-2-3.7   c-3.9-4.9-8.9-8.8-14.6-11.4c-2.1-1-5.1-2.6-7.4-2.9c-3.2-0.4-4.7,2.6-3.4,5.4c1.5,3,7.9,8.8,8,8.9c2.7,1.3,5.2,3,7.9,4.6   C150,403.1,151.2,403.6,152.3,404.2z"/>
	<path class="st1 file-7-element-120" d="M157.8,394.4c0.8,0.4,1.6,0.8,2.4,1.3c1.5,0.6,3.2,0.9,4.5,0c1.1-0.8,1.5-2.4,1.2-3.8s-1.1-2.6-2-3.7   c-3.9-4.9-8.9-8.8-14.6-11.4c-2.1-1-5.1-2.6-7.4-2.9c-3.2-0.4-4.7,2.6-3.4,5.4c1.5,3,7.9,8.8,8,8.9c2.7,1.3,5.2,3,7.9,4.6   C155.5,393.3,156.7,393.8,157.8,394.4z"/>
	<path class="st1 file-7-element-121" d="M687.3,706.7c0.2,7-7.7,31.1-10.5,30.1c-2.7-1,1.9-26.4,2.2-28.4"/>
	<path class="st1 file-7-element-122" d="M679,709.6c-0.6,9-9.3,39.5-12,38.6c-2.6-1,3.3-35.3,4-39.6"/>
	<path class="st1 file-7-element-123" d="M671.5,709c0.3,6.7-8.4,36.2-11.2,35.2c-2.8-1,2.9-33.4,2.9-33.4s-0.5-4.1-0.4-4.1"/>
	<path class="st1 file-7-element-124" d="M663,708.5c0.1,5.3-7.5,30.8-9.9,30.1S654,709,654,709"/>
	<path class="st1 file-7-element-125" d="M686.4,712.1c4.2-11.1,4.8-36.2,0.7-48.3"/>
	<path class="st1 file-7-element-126" d="M653.4,671.9c-0.2,17.8,0.5,37.1,0.5,37.1"/>
	<path class="st1 file-7-element-127" d="M647.3,670.4c14.4,1,19.6-0.4,38-5.2c22.2-5.8,32.7-12.4,32.7-12.4l-51.4-149.7c0,0-12.2-99.4-41.1-147"/>
	<path class="st1 file-7-element-128" d="M531.1,986.5c1.8,5.2,3.8,14.1-2.9,14.5c-9.6,0.6-25.3,0.6-28.2,1.3c-3,0.6-40.2,21.5-57.8,21.5   c-16.5,0-20.5-9.5-12.7-16"/>
	<path class="st1 file-7-element-129" d="M528.1,972.5c0.4,3.4,0.9,6.8,1.6,10.3c0.4,2-0.3,4.1-1.4,5.8c-2.3,3.6-7.3,3.9-11.6,4   c-10.2,0.4-20.3,2.4-29.8,6c-15,5.7-29,15.3-45,16.2c-3.2,0.2-7-0.3-8.6-3.2c-2.3-4.2,2.4-8.8,6.5-11.4   c11.9-7.4,23.7-14.7,35.6-22.1c6-3.7,12.2-7.7,16.9-12.8"/>
	<path class="st1 file-7-element-130" d="M492.5,963.8c-6.4,7-22,17.4-22,17.4l-11.9,7.4c0,0,16.2,6.4,8.5,18.9l19.7-8.8c0,0-0.7-7.5-3.3-13.4   c3.4-3,12.2-11.1,17.8-20"/>
	<path class="st1 file-7-element-131" d="M574.8,982.8c0,0-8.1,17.7,1.4,18.3c9.6,0.6,25.3,0.6,28.2,1.3s40.2,21.5,57.8,21.5c16.7,0,20.7-9.9,12.3-16.3   "/>
	<path class="st1 file-7-element-132" d="M609,961.4c4.8,7.2,12.6,12.2,20,16.8c11.8,7.4,23.7,14.7,35.6,22.1c4.1,2.6,8.8,7.1,6.5,11.4   c-1.5,2.8-5.3,3.3-8.6,3.2c-16-0.9-30-10.5-45-16.2c-9.5-3.6-19.6-5.6-29.8-6c-4.3-0.2-9.3-0.4-11.6-4c-1.1-1.7-1.8-3.9-1.4-5.8   c1.5-7.8,2.3-15.4,2.5-22.8"/>
	<path class="st1 file-7-element-133" d="M610.2,961.7c4.6,6.7,12.3,15.1,24.3,19.2l-0.6,0.3l11.9,7.4c0,0-16.2,6.4-8.5,18.9l-19.7-8.8   c0,0,0.7-7.5,3.3-13.4c-3.9-3.4-14.7-13.4-19.9-23.7"/>
	<path class="st1 file-7-element-134" d="M469,390.2c-2.9,77.4-7.6,226-7.6,226l-17,358.4l47.3-11.2l50.7,10.8c0,0,27.9-15.2,42.8-15.2   s82.4,14.6,91.9,6.4l-44.5-409.7c0,0-14.2-101.8-23.4-166.9"/>
	<path class="st1 file-7-element-135" d="M576.1,338.1c1.8,6,2.2,12.7-0.3,19.9c-9.6,27.4-38.3,59-38.3,59s62.1-11.5,84.6-42.6   c13.3-18.4-7.5-41.9-28.6-55.4"/>
	<path class="st1 file-7-element-136" d="M498.3,341.8c-0.9,5-0.8,10.4,1.2,16.1c9.6,27.4,36.2,59,36.2,59s-60.1-11.5-82.5-42.6   c-12.6-17.6,5.5-39.7,25.6-53.4"/>
	<path class="st1 file-7-element-137" d="M509.4,342.7c0,0.1,0,0.2,0,0.2s20.5,50.8,63.8-3.5c0.2-0.1,0.3-0.1,0.5-0.2"/>
	<path class="st1 file-7-element-138" d="M479.3,948c0,0,0-443.4,0-551.1"/>
	<path class="st1 file-7-element-139" d="M645.8,942c0,0-49.3-438.4-49.3-546.1"/>
	<path class="st1 file-7-element-140" d="M522,251c5.7,1.7,13.6,3,21.9,1.2"/>
	<path class="st1 file-7-element-141" d="M421.8,174.7c-4.6,10.2,3.7,26.2,12.9,35"/>
	<path class="st1 file-7-element-142" d="M642.4,168.5c1.7,0.6,3.3,1.9,4.8,4.2c7.6,11.1-4.2,31.8-15.3,39.9"/>
	<path class="st1 file-7-element-143" d="M432.8,180.3c-18.9-9-22.7-28.2-7.1-46c0,0,6.7-31.3,17.6-40.9c0,0,11-14.6,29.2-14.1   c1,0.4,18.6-25.5,44.6-9.6c0,0,26-12.8,46.4,4.1c0,0,23.7-10.9,43.7,12.3c0,0,21.9-0.1,26.2,36.6c0,0,21.3,38.2,0.4,57.6"/>
	<path class="st1 file-7-element-144" d="M613,190.9c0.2-16.2-0.9-68.4-21.4-88.3c-4.9-4.7-10.9-11.6-17.7-11.5c-8.5,0.1-15.9,5.2-23.1,9.7   c-8,5-17.4,9.4-26.8,5.7c-7.3-2.9-14.1-6.9-21.4-9.8c-5.4-2.1-11.5-3.3-17.1-1.7c-8.4,2.4-23.6,27.4-35.5,89.8"/>
	<path class="st1 file-7-element-145" d="M529.8,170c-6.3,18.9-11.3,42.6-11.3,42.6s11.1,3.1,23.6,1.3"/>
	<g>
		<g>
			<path class="st1 file-7-element-146" d="M432.6,175.1c0,0,3.4,21.6,3.5,30.4c0,3.6-1.6,7.4-1.6,7.4c-2.6,8.9-5,18.2,4.7,24.6c-5,6-6.5,14.4-4,21.7
					c2.5,7.3,9.1,13.1,16.8,15c-5.2,4.3-7.3,11.9-5,18.1c2.3,6.3,8.9,10.9,15.8,11.1c-1.6,4.3-0.5,9.4,2.9,12.6
					c3.4,3.2,8.7,4.3,13.1,2.7c-0.3,7.8,4,15.6,10.9,19.7c5.6,3.3,12.6,4,18.9,2.1c10.7,11,37.1,11,47.8,0c6.2,1.9,13.3,1.1,18.9-2.1
					c6.9-4.1,11.3-11.9,10.9-19.7c4.4,1.6,9.8,0.5,13.2-2.7c3.3-3.2,4.5-8.4,2.9-12.6c6.9-0.2,13.5-4.8,15.8-11.1s0.2-13.8-5-18.1
					c7.7-1.9,14.3-7.7,16.8-15c2.5-7.3,1-15.7-4-21.7c9.7-6.4,7.4-15.6,4.7-24.6c0,0-1.7-3.9-1.6-7.4c0.1-8.8,3.5-30.4,3.5-30.4"/>
			<path class="st1 file-7-element-147" d="M613,188.6c-11.1,20.7-27.5,47-47.7,62.1"/>
			<path class="st1 file-7-element-148" d="M550.1,259.4c-1.3,0.5-2.7,1-4.1,1.4c-4.3,1.2-8.8,1.8-13.5,1.9c-4.7-0.1-9.2-0.7-13.5-1.9
					c-1.2-0.4-2.4-0.8-3.6-1.2"/>
			<path class="st1 file-7-element-149" d="M500.6,251.4c-21.8-15.9-39.4-45.1-50.6-66.6c0,0,0-0.1,0-0.1"/>
			<path class="st1 file-7-element-150" d="M532.5,225.7c0,0-25.5-2.2-33,34C499.4,259.7,515.7,280.1,532.5,225.7z"/>
		</g>
		<path class="st1 file-7-element-151" d="M533.4,225.7c0,0,26.5-2.2,34,34C567.4,259.7,550.2,280.1,533.4,225.7z"/>
	</g>
	<path class="st1 file-7-element-152" d="M469.8,167.6c3.9-11.1,16.3-18.6,27.9-16.8"/>
	<path class="st1 file-7-element-153" d="M566.4,149.9c9.9-0.2,19.8,4.1,26.3,11.6"/>
	<path class="st1 file-7-element-154" d="M449.4,357.4c-15.3,15.1-30.6,32.4-43.6,48.1"/>
	<path class="st1 file-7-element-155" d="M335.1,509.4c48.9-4,92.3-7.6,92.3-7.6c8.5-1,16.4-5.1,22.1-11.6c0.5-0.5,0.9-1.1,1.4-1.6"/>
	<g>
		<g>
			<path d="M494.3,184.2c0-0.1,0.1-0.3,0.1-0.4c1.4-3.4-1.5-7.5-4.8-8.4c-3.9-1.1-7,1.4-8.4,4.8c-2.7,6.5-3.1,13.3-2.2,20.2
					c0.4,2.6,3.3,4.6,5.7,4.9c2.8,0.3,5.3-0.9,6.8-3.3C495,196.7,495.9,190.3,494.3,184.2z" class="undefined file-7-element-156"/>
		</g>
	</g>
	<g>
		<g>
			<path d="M582.2,184.2c0-0.1,0.1-0.3,0.2-0.4c1.4-3.4-1.5-7.5-4.8-8.4c-3.9-1.1-7,1.4-8.4,4.8c-2.7,6.5-3.1,13.3-2.2,20.2
					c0.3,2.6,3.3,4.6,5.7,4.9c2.8,0.3,5.3-0.9,6.8-3.3C582.8,196.7,583.7,190.3,582.2,184.2z" class="undefined file-7-element-157"/>
		</g>
	</g>
</g>
</svg>
