<?xml version="1.0" encoding="UTF-8"?>
<!-- Generator: Adobe Illustrator 25.2.3, SVG Export Plug-In . SVG Version: 6.00 Build 0)  -->
<svg xmlns="http://www.w3.org/2000/svg" xmlns:xlink="http://www.w3.org/1999/xlink" version="1.1" id="Layer_1" x="0px" y="0px" viewBox="0 0 792 612" style="enable-background:new 0 0 792 612;" xml:space="preserve">
<style type="text/css">
	.st0{fill:#FFFFFF;}
	.st1{fill:none;stroke:#000000;stroke-width:2.5;stroke-linecap:round;stroke-linejoin:round;stroke-miterlimit:10;}
	.st2{fill:none;stroke:#000000;stroke-width:2.5449;stroke-linecap:round;stroke-linejoin:round;stroke-miterlimit:10;}
	.st3{fill:none;}
</style>
<g id="white">
	<polygon class="st0 file-3-element-1" points="812.2,446.9 -13.7,448.4 -13.7,-11.9 812.2,-13.4  "/>
	<rect x="-18.5" y="429.4" class="st0 file-3-element-2" width="854.3" height="205.8"/>
	<g>
		<rect x="36.4" y="387.7" class="st0 file-3-element-3" width="29.8" height="41.2"/>
		<rect x="36.4" y="334.3" class="st0 file-3-element-4" width="29.8" height="53.4"/>
		<rect x="36.4" y="279.3" class="st0 file-3-element-5" width="29.8" height="53.4"/>
		<rect x="36.4" y="224.3" class="st0 file-3-element-6" width="29.8" height="53.4"/>
		<rect x="254.7" y="387.7" class="st0 file-3-element-7" width="29.8" height="41.2"/>
		<rect x="254.7" y="334.3" class="st0 file-3-element-8" width="29.8" height="53.4"/>
		<rect x="254.7" y="279.3" class="st0 file-3-element-9" width="29.8" height="53.4"/>
		<rect x="254.7" y="224.3" class="st0 file-3-element-10" width="29.8" height="53.4"/>
		<path class="st0 file-3-element-11" d="M66.1,203.4c0-11.8,2.2-23.1,6.1-33.4c-6.8-1.6-19.8-4.6-29.3-6.7c-4.3,12.8-6.6,26.3-6.6,40.1v20.8h29.8    V203.4z"/>
		<path class="st0 file-3-element-12" d="M106.2,126.4L86.4,104c-4.8,3.6-9.4,7.6-13.8,11.9c-13.8,13.8-24,30.3-30,48.4c7.7,1.3,20.7,3.7,29.7,5.4    C79.1,152.1,91,137.1,106.2,126.4z"/>
		<path class="st0 file-3-element-13" d="M254.3,428.9H66.1V203.4c0-51.9,42.1-94.1,94.1-94.1l0,0c51.9,0,94.1,42.1,94.1,94.1L254.3,428.9L254.3,428.9    z"/>
		<path class="st0 file-3-element-14" d="M160.2,109.4L160.2,109.4V79.6c-27.3,0-53.3,8.8-74.7,25c5.8,6,14.2,15,20.6,21.8    C121.4,115.7,140.1,109.4,160.2,109.4z"/>
		<path class="st0 file-3-element-15" d="M254.7,203.4c0-11.8-2.2-23.1-6.1-33.4c6.8-1.6,19.8-4.6,29.3-6.7c4.4,12.8,6.6,26.3,6.6,40.1v20.8h-29.8    V203.4z"/>
		<path class="st0 file-3-element-16" d="M214.6,126.4l19.8-22.4c4.8,3.6,9.4,7.6,13.8,11.9c13.8,13.8,24,30.3,30,48.4c-7.7,1.3-20.7,3.7-29.7,5.4    C241.7,152.1,229.8,137.1,214.6,126.4z"/>
		<path class="st0 file-3-element-17" d="M160.6,109.4L160.6,109.4V79.6c27.3,0,53.3,8.8,74.7,25c-5.8,6-14.2,15-20.6,21.8    C199.4,115.7,180.8,109.4,160.6,109.4z"/>
	</g>
	<g>
		<rect x="517" y="387.7" class="st0 file-3-element-18" width="29.8" height="41.2"/>
		<rect x="517" y="334.3" class="st0 file-3-element-19" width="29.8" height="53.4"/>
		<rect x="517" y="279.3" class="st0 file-3-element-20" width="29.8" height="51.4"/>
		<rect x="517" y="224.3" class="st0 file-3-element-21" width="29.8" height="53.4"/>
		<rect x="735.3" y="387.7" class="st0 file-3-element-22" width="29.8" height="41.2"/>
		<rect x="735.3" y="334.3" class="st0 file-3-element-23" width="29.8" height="52.4"/>
		<rect x="735.3" y="279.3" class="st0 file-3-element-24" width="29.8" height="53.4"/>
		<rect x="735.3" y="224.3" class="st0 file-3-element-25" width="29.8" height="53.4"/>
		<path class="st0 file-3-element-26" d="M546.7,203.4c0-11.8,2.2-23.1,6.1-33.4c-6.8-1.6-19.8-4.6-29.3-6.7c-4.3,12.8-6.6,26.3-6.6,40.1v20.8h29.8    V203.4z"/>
		<path class="st0 file-3-element-27" d="M586.8,126.4L567,104c-4.8,3.6-9.4,7.6-13.8,11.9c-13.8,13.8-24,30.3-30,48.4c7.7,1.3,20.7,3.7,29.7,5.4    C559.7,152.1,571.6,137.1,586.8,126.4z"/>
		<path class="st0 file-3-element-28" d="M734.9,428.9H546.7V203.4c0-51.9,42.1-94.1,94.1-94.1l0,0c52,0,94.1,42.1,94.1,94.1L734.9,428.9L734.9,428.9z    "/>
		<path class="st0 file-3-element-29" d="M640.8,109.4L640.8,109.4V79.6c-27.3,0-53.3,8.8-74.7,25c5.8,6,14.2,15,20.6,21.8    C602,115.7,620.7,109.4,640.8,109.4z"/>
		<path class="st0 file-3-element-30" d="M735.3,203.4c0-11.8-2.2-23.1-6.1-33.4c6.8-1.6,19.8-4.6,29.3-6.7c4.3,12.8,6.6,26.3,6.6,40.1v20.8h-29.8    V203.4z"/>
		<path class="st0 file-3-element-31" d="M695.2,126.4L715,104c4.8,3.6,9.4,7.6,13.8,11.9c13.8,13.8,24,30.3,30,48.4c-7.7,1.3-20.7,3.7-29.7,5.4    C722.3,152.1,710.4,137.1,695.2,126.4z"/>
		<path class="st0 file-3-element-32" d="M641.2,109.4L641.2,109.4V79.6c27.3,0,53.3,8.8,74.7,25c-5.8,6-14.2,15-20.6,21.8    C680,115.7,661.4,109.4,641.2,109.4z"/>
	</g>
	<polygon class="st0 file-3-element-33" points="421.7,197.8 408.6,197.8 408.6,175.4 392.6,175.4 392.6,197.8 379.6,197.8 379.6,214.1 392.6,214.1    392.6,259.6 410,259.2 410,213.7 421.7,214.1  "/>
	<rect x="342.9" y="408.6" class="st0 file-3-element-34" width="265.5" height="118.1"/>
	<path class="st0 file-3-element-35" d="M475.6,433.7L475.6,433.7c25.7,0,46.5,20.8,46.5,46.5v46.5h-93v-46.5C429.1,454.5,450,433.7,475.6,433.7z"/>
	<path class="st0 file-3-element-36" d="M592.2,408.3H490.4c-1.7,0-3.1-1.4-3.1-3.1v-1.4c0-1.7,1.4-3.1,3.1-3.1h101.8c1.7,0,3.2,1.4,3.2,3.1v1.4   C595.3,406.9,593.9,408.3,592.2,408.3z"/>
	<path class="st0 file-3-element-37" d="M186.4,202.6c-0.7-3.4-1.9-6.6-2.6-10c-0.6-2.5-0.2-5.5-1.4-7.8c-0.4-0.8-3.7-3.1-3.6-3.6   c0.4-2.9-1.3-5.8-3.7-7.3s-5.3-1.9-8-1.7c-0.1,0-0.1,0-0.2,0c-2.1-2.8-5.5-4.4-8.9-4.8c-1.1-0.2-2.3-0.2-3.4-0.2   c-0.7-0.5-1.4-0.9-2.2-1.2c-4-1.6-8.3,0.1-12.6,1.1c-4.3-1-8.6-2.6-12.6-1.1c-4.4,1.8-9.2,1.4-13.1,4.8c-0.6,0.5-1.1,1.1-1.8,1.3   c-0.5,0.2-1.1,0.1-1.7,0.1c-4.2,0-8.7,2.5-9.6,6.5c-0.2,0.8-0.2,1.6-0.5,2.3c-0.3,0.6-0.9,1.1-1.4,1.6c-2.3,2.3-2.5,5.2-2.8,8.2   c-0.3,3.2-2.6,5.6-3.7,8.5c-1.1,2.7-1.3,5.5-1.4,8.3c-0.1,5.5,0.1,11.9,4.1,16.3c0.8,0.9,1.9,1.9,1.9,1.9l4.5,5.4   c-0.8-2.5,2.2-35,6.6-37.1c0.6-0.3,1.1-0.5,1.7-0.7c0.6-0.1,1.2-0.3,1.8-0.4c2.9-0.4,5.5,0.3,8.7,1.1c4.4,1.1,4.6-2.2,8.6-2.1   c4,0,3,3.9,8.3,1.8c1.6-0.6,3.1-1.3,4.7-1.7c0.8-0.2,1.6-0.4,2.4-0.4c0.9,0,1.7,0.2,2.5,0.6c1.1,0.4,2.1,0.9,3.1,1.5   c1.3,0.7,2.6,0.8,4,0.4c4.4-1.1,7.5-0.7,11.9,1.4c4.4,2.1,12.2,25.6,10.3,31.6c0,0,3.3,0.4,5-0.3c2.1-0.9,3.6-2.3,4.7-4   C189.1,217.2,187.5,208.1,186.4,202.6z"/>
	<path class="st0 file-3-element-38" d="M460.9,408.3H359.1c-1.7,0-3.1-1.4-3.1-3.1v-1.4c0-1.7,1.4-3.1,3.1-3.1h101.8c1.7,0,3.1,1.4,3.1,3.1v1.4   C464.1,406.9,462.6,408.3,460.9,408.3z"/>
	<g>
		<g>
			<path class="st0 file-3-element-39" d="M263.5,338.2c-1.4-3-4-5.6-7.2-6.7c-1.2-0.4-2.4-0.5-3.5-0.4c-0.5-1-1.7-1.6-2.8-1.2
					c-6.3,2.4-8.5,9.9-7.5,16.1c0.5,3.3,2.4,6.3,5.4,8c2.7,1.5,6.2,1.9,9.2,0.8C263.6,352.1,266.3,344.5,263.5,338.2z"/>
			<path class="st0 file-3-element-40" d="M239.5,333.5c-1.9-2.6-2.2-6-1.8-9.2c2.2,1.9,4.8,3.2,6.9,5.2c1.4,1.3,4.9,5.7,2.4,7.3
					C244.7,338.2,240.7,335.2,239.5,333.5z"/>
		</g>
		<g>
			<path class="st0 file-3-element-41" d="M245.5,351.9c1.7-6.1-1.6-12.4-5.5-16.9c-1.1-1.3-2.5-2.4-4.2-2.7c-1.5-0.3-3,0-4.4,0.5
					c-0.8,0.3-1.5,0.6-2.3,1c-2.9,0.5-5.8,1.9-8.1,3.6c-2.4,1.8-4.5,4-5.3,6.9c-0.9,3.3,0.6,6.4,2.8,8.8c1.9,2.2,4.4,4,6.8,5.6
					c2.4,1.5,5,2.6,7.8,2.8C239,362,244,357.5,245.5,351.9z"/>
			<path class="st0 file-3-element-42" d="M236.5,339.5c1.5-2.8,4.4-4.7,7.4-5.7c-0.7,2.8-0.7,5.7-1.5,8.5c-0.5,1.9-2.9,6.9-5.4,5.4
					C234.7,346.2,235.6,341.3,236.5,339.5z"/>
		</g>
		<g>
			<path class="st0 file-3-element-43" d="M233.4,345.4c-0.3-3.3-1.9-6.2-4.1-8.7c-4.4-4.9-11.7-6.7-17.6-3.4c-5.8,3.3-7.7,11.3-3.6,16.5
					c0.2,0.3,0.4,0.7,0.6,1c2.2,3,5.7,4.1,9.4,4.1c0.7,0,1.4,0,2.2-0.1c1.1,0,2.3,0,3.4-0.3c1.8-0.2,3.6-0.4,5.3-1.1
					C232.2,352.1,233.8,348.7,233.4,345.4z"/>
			<path class="st0 file-3-element-44" d="M211.1,336.8c-1.3-3.2-0.8-6.9,0.5-10c1.8,2.5,4.2,4.6,6,7.2c1.2,1.7,3.7,7.2,0.6,8.2
					C215.4,343.1,212,338.9,211.1,336.8z"/>
		</g>
		<g>
			<path class="st0 file-3-element-45" d="M284.5,344.5c-0.3-3.3-1.9-6.2-4.1-8.7c-4.4-4.9-11.7-6.7-17.6-3.4c-5.8,3.3-7.7,11.3-3.6,16.5
					c0.2,0.3,0.4,0.7,0.6,1c2.2,3,5.7,4.1,9.4,4.1c0.7,0,1.5,0,2.2-0.1c1.1,0,2.3,0,3.4-0.3c1.8-0.2,3.6-0.4,5.3-1.1
					C283.2,351.2,284.8,347.9,284.5,344.5z"/>
			<path class="st0 file-3-element-46" d="M262.1,336c-1.3-3.2-0.8-6.9,0.5-10c1.8,2.5,4.2,4.6,6,7.2c1.2,1.7,3.7,7.2,0.6,8.2
					C266.5,342.2,263,338.1,262.1,336z"/>
		</g>
		<g>
			<path class="st0 file-3-element-47" d="M246.1,350.8c-20-0.2-40.2-0.6-43.3-0.6c4.2,6,12.9,10.6,19.6,13.3c7.4,3,14.7,4.1,22.6,4.5c0,0,0.1,0,0.1,0
					s0.1,0,0.1,0c0.3,0,0.6,0,1,0c0.3,0,0.6,0,1,0c0,0,0.1,0,0.1,0s0.1,0,0.1,0c7.9-0.4,15.2-1.5,22.6-4.5
					c6.6-2.7,15.4-7.3,19.6-13.3C286.3,350.2,266,350.6,246.1,350.8z"/>
			<rect x="223.9" y="365.3" class="st0 file-3-element-48" width="44.3" height="4.7"/>
		</g>
	</g>
	<path class="st0 file-3-element-49" d="M102.2,534.6c-6.9,0-8.2-4.3-4.3-6.7s23.5-3.5,26.8-4.3s11.6-5,11.6-5s3.2,6.9-0.6,7.1s-9.9,0.2-11,0.5   C123.6,526.4,109.1,534.6,102.2,534.6z"/>
	<path class="st0 file-3-element-50" d="M188.2,534.6c6.9,0,8.2-4.3,4.3-6.7s-23.5-3.5-26.9-4.3s-11.6-5-11.6-5s-3.2,6.9,0.6,7.1s9.9,0.2,11,0.5   C166.8,526.4,181.3,534.6,188.2,534.6z"/>
	<path class="st0 file-3-element-51" d="M580.7,320.8c0,0.8-15.5,3.8-34.6,3.8s-34.6-3-34.6-3.8c0-0.8,15.5-1.8,34.6-1.8S580.7,320,580.7,320.8z"/>
	<path class="st0 file-3-element-52" d="M702.5,245.6c0,0,18-6.5,30.6,14.3l-31.1,4L702.5,245.6z"/>
	<path class="st0 file-3-element-53" d="M629,526.6c-7.2,0-8.6-4.5-4.5-7.1c4.1-2.6,24.7-3.7,28.2-4.5c3.5-0.8,12.2-5.2,12.2-5.2s3.3,7.2-0.6,7.5   c-3.9,0.3-10.4,0.3-11.6,0.5C651.5,518,636.2,526.6,629,526.6z"/>
	<path class="st0 file-3-element-54" d="M607.9,262.8C607.9,262.7,607.9,262.7,607.9,262.8c0-0.2-0.1-0.4-0.1-0.5c0,0,0-0.1,0-0.1c0,0,0,0,0-0.1   c0,0,0,0,0,0s0,0,0-0.1c0,0-0.1,0-0.1-0.1c0,0-0.1,0-0.1,0c-0.2,0-0.4,0-0.4,0c-0.1,0-0.2,0-0.3,0c-0.2,0-0.3,0.1-0.5,0.1   c-0.3,0.1-0.6,0.2-0.9,0.3c-0.1,0-0.1,0-0.2,0.1c-0.4,0.2-0.8,0.4-1.2,0.6c-5.4,8.8-10.8,17.4-16.5,26   c-6.7,10.3-13.6,20.4-20.6,30.5c-0.4,0.5-0.8,1-1.2,1.5c-1.5,2-3,4.1-4.5,6.1c-1.7,2.4-5,3-7.6,4.6c-9.8,6.3-12.5,15.9-8.7,23.2   c2.7,5.3,9.9,5.3,14.6,2.7c5.6-3.1,8.2-9.9,7.7-16.1c-0.2-2.8-0.8-5.5-0.4-8.3c0.6-4.6,4-7.7,6.3-11.5c3-5.1,6-10.2,9.1-15.3   c7-11.5,14.1-22.9,21.2-34.3c1.5-2.3,3-4.7,4.4-7c0-0.1,0-0.2,0-0.3c0-0.5,0-0.9,0-1.4C607.9,263.2,607.9,263,607.9,262.8z"/>
	<path class="st0 file-3-element-55" d="M675.9,533.3c-7.2,0-8.6-4.5-4.5-7.1c4.1-2.6,24.7-3.7,28.2-4.5c3.5-0.8,12.2-5.2,12.2-5.2s3.3,7.2-0.6,7.5   c-3.9,0.3-10.4,0.3-11.6,0.5C698.4,524.7,683.2,533.3,675.9,533.3z"/>
	<path class="st0 file-3-element-56" d="M710.8,502.2l0.5-0.1l-0.4-2.4c0.7-9.9,3.1-19,5-28.6l-9.3-0.7l-19.5-131.8c3.8-8.6,7-16.1,6.9-16.9   c-0.2-1.7-3.6-43.6-3.6-44.1l-3.3-15.1l10.8,4.8l7-11.3l-3.5-24.9c2.4-6.1,4-13.1,4.9-19.6c3.5-3.2,6.5-9.7,3.9-13.1   c-1-1.2-2-1.5-3-1.4c-0.8-15.2-14.7-29-30.2-28.1c-7.8,0.4-14.7,3.8-21.2,7.7c-19.1,11.7-13.3,38.2-13.3,38.2l-7.4,17.1   c-3.5,8.8,7.6,3.9,7.6,3.9l4.8,13.7c2.8,7.1,10.8,8.4,19.6,6.7l-2.1,66.6l-3.9,11l-18.5-1.5c-5.4-3-11.6-6.5-17.8-10l3.7-7.1   l-21.6-8.6c-0.5-1.8-1.3-3.4-2.4-5c-1.7-3.1-4.1-6.6-6.8-7.7c-0.1,0-0.2-0.1-0.2-0.1c-0.7-0.6-1.5-1.1-2.3-1.4   c-2.1-1.6-3.8-3.6-4.4-3.2c-0.8,0.5-0.8,3.5,0.1,4.3l0,0c0,0.2,0,0.3,0,0.5c0.2,1,1.3,1.4,2.1,2c0.2,0.2,0.3,0.4,0.5,0.5   c-0.7-0.3-1.3-0.6-2-0.8c-0.1-0.2-0.2-0.5-0.3-0.7c-1.1-2.2-2.8-4.2-4.8-5.6c-0.7-0.5-1.8-1.4-2.7-1.7c-1.2-0.4-2.1,0.6-1.8,1.9   c0.3,1.3,2.4,4.1,2.4,4.1c1,0.7,1.8,1.6,2.7,2.4c0,0,0,0,0,0c-0.2,0.1-0.3,0.2-0.4,0.3c-0.2,0.1-0.3,0.3-0.5,0.5   c-1-1.3-2.1-2.4-3.3-3.4c-0.7-0.5-1.8-1.4-2.7-1.7c-1.2-0.4-2.1,0.6-1.8,1.9c0.3,1.3,2.4,4.1,2.4,4.1c0.6,0.4,1.1,0.9,1.6,1.4   c-1.9-1.4-4.3-3.1-4.9-3.3c-0.3-0.1-0.6-0.1-0.8,0c-0.6,0.2-0.7,1.1-0.5,1.7c0.4,1.3,1,2.5,1.9,3.5c-0.3-0.1-0.5-0.3-0.8-0.4   c-1.2-0.5-2.1,0.2-1.6,1.5c0.6,1.4,2.2,2.9,3.4,3.9c0.5,0.4,1.1,0.8,1.6,1.1c0,0,0,0,0,0c0.9,2.2,9.3,6.1,11.5,7.1   c1.5,0.7,2.9,1.1,4.3,1.5l24.6,13.4l3.3-6.2c7.9,4.4,14.9,8.4,17.8,10l19.6,1.7l3.1-8.7l-1.4,42.4L614,387.8l0.4,0.9l48.9-19.2   l-3,94.1l-8.4-0.6c0.6,9.5,2.3,19.3,1.5,28.8c-0.2,2.7-0.5,5.4-1.7,7.8c-1.8,3.7-5.5,6-9,8.2c-4.9,3-9.7,6.1-14.6,9.1   c-1.7,1-3.6,2.9-2.7,4.7c0.6,1.2,2.2,1.4,3.5,1.3c6.6-0.4,12.3-4.3,18.5-6.6c3.9-1.5,8.1-2.3,12.2-2.5c1.8-0.1,3.8-0.2,4.8-1.7   c0.4-0.7,0.7-1.6,0.6-2.4c-3.1-16.8,1.2-30.6,4.1-45.4l-7.7-0.6l3-94.6L675,365l0.2-0.1l0.1-0.2c1.6-3.6,6.7-14.5,11.1-24.4   l19.2,130l-6.8-0.5c0.6,9.5,2.3,19.3,1.5,28.8c-0.2,2.7-0.5,5.4-1.7,7.8c-1.8,3.7-5.5,6-9,8.2c-4.9,3-9.7,6-14.6,9.1   c-1.7,1-3.6,2.9-2.7,4.7c0.6,1.2,2.2,1.4,3.5,1.3c6.6-0.4,12.3-4.3,18.5-6.6c3.9-1.5,8.1-2.3,12.2-2.5c1.8-0.1,3.8-0.2,4.8-1.7   c0.4-0.7,0.7-1.6,0.6-2.4C710.9,511.5,710.7,506.7,710.8,502.2z M685.7,261.1l3.7,16.6c0.1,1.7,3.4,42.4,3.6,44.1   c0,0.8-2.7,7-6.2,14.9l-7.7-51.7l6.2-17.5l0-0.1l-2.9-14.2L685.7,261.1z M681.1,251.4l3.3,15.8l-5.5,15.6l-4.3-28.8   C676.8,253.4,679,252.4,681.1,251.4z M667.9,256c1.9-0.4,3.8-0.9,5.7-1.6l4.5,30.5l-12.3,34.7L667.9,256z M674.4,364.1l-10.1,4   l1.5-45.1l12.7-35.9l7.6,51.4C682.4,346.6,678,356.3,674.4,364.1z"/>
	<path class="st0 file-3-element-57" d="M578.1,328.5l2.5-6.8c-1.4,1-16.3,3.2-34.5,3.2s-33.1-2.2-34.5-3.2l2.5,6.8c0,0-15.1,8-13.4,23.2   c1.6,13.9,4.1,43.8,25.2,46.7c5.1,0.7,12.6,1.1,20.2,1.1c7.6,0,15.1-0.4,20.2-1.1c21.1-3,23.6-32.8,25.2-46.7   C593.2,336.5,578.1,328.5,578.1,328.5z"/>
	<path class="st0 file-3-element-58" d="M700.7,270.5c-11.3-9.2-36.5,34.9-47.7,53.4c-12.2-8.7-31.8-17.1-40.2-21.9c-5.7,7.3-11.8,15.2-14.5,24.1   s-0.5,18.1-0.5,18.1l62.4,3.7l4.4-2.2C664.6,345.6,720.2,286.3,700.7,270.5z"/>
	<g>
		<path class="st0 file-3-element-59" d="M677.4,260.2c-0.1,0-0.1,0-0.1,0s3.9-6.6,4.4-7.5"/>
	</g>
	<path class="st0 file-3-element-60" d="M652.6,496.9c0,0-3.2,8.9-12.2,12l0.2,0.1l-4.9,3c0,0,6.6,2.6,3.5,7.7l8.1-3.6c0,0-0.3-3.1-1.4-5.5   c1.7-1.5,6.6-6,8.5-10.5h9.4v-4.8L652.6,496.9z"/>
	<path class="st0 file-3-element-61" d="M170.9,337.5c7.5-0.5,27.3,13.8,32.2-1.3c4.9-15.1-29.7-63.6-30.4-65c-1.3-2.6-5.7-6.5-8.6-6.8   c-6.1,21.7-5.5,33.6-5.5,33.6l8.6,37.4C167.9,334.7,169.6,337.6,170.9,337.5z"/>
	<path class="st0 file-3-element-62" d="M699.5,503.6c0,0-3.2,8.9-12.2,12l0.2,0.1l-4.9,3c0,0,6.6,2.6,3.5,7.7l8.1-3.6c0,0-0.3-3.1-1.4-5.5   c1.7-1.5,6.6-6,8.5-10.5h9.4v-4.8L699.5,503.6z"/>
	<path class="st0 file-3-element-63" d="M109.2,339.4c-8.3-0.5-25.8,13.8-31.3-1.3c-5.4-15.1,28.5-63.6,29.2-65c1.4-2.6,6.3-6.5,9.6-6.8   c6.7,21.7,6.1,33.6,6.1,33.6l-10.4,40.8C111.6,340,110.6,339.5,109.2,339.4z"/>
	<path class="st0 file-3-element-64" d="M667.5,275.2l10.9-15c0,0,16.1,6,25-7.6c0,0,7.8,8,10.1,13.6c7,17.4-1.1,77.2-1.1,77.2v7.9   c0,0-0.7,1.2,3.7,9.2c10.6,19.1,20.9,144.1,15.7,144.9s-32.9-1.3-43.4-1.3c-10.5,0-17.1-3.1-20.1,0c-3,3.1-26.1-5.1-26.1-5.1   S651.2,318.2,667.5,275.2z"/>
	<path class="st0 file-3-element-65" d="M733.2,260.2c0.2-1.5-22.8-13.3-38.2-6.4c-10,4.5-26.7,21.6-26.7,21.6s11.3-12.7,27.4-13.4   c16.1-0.8,21.9,25.8,21.9,25.8S730.6,287.1,733.2,260.2z"/>
	<path class="st0 file-3-element-66" d="M689.6,208c1.8-0.9,8.5-2.9,13.5-4.7c-0.1-0.2-0.2-0.5-0.2-0.7c0-0.9,0.2-1.8,0.7-2.6c0.2-0.3,0.4-0.6,0.7-0.9   c0.3-0.2,0.6-0.5,0.9-0.6c0.3-0.2,0.7-0.3,1.1-0.4c0.3,0,0.6-0.1,0.8-0.1c0.3,0,0.5,0.1,0.8,0.1c0.1,0,0.3,0.1,0.4,0.1   c0.1,0,0.3,0.1,0.4,0.1c0.2,0.1,0.3,0.2,0.5,0.3c1.4-17.1-9.9-24.9-9.9-24.9c-7.4-14.2-18.3-10.4-18.3-10.4   c-13.3-6-23.6,2.6-23.6,2.6c-0.4,0.3-5.5-4.7-10.7-1.3c-3.5,2.3-6.7,8.8-6.6,13c0.3,13.7,16.7-0.5,21.4-2.1   c0.5-0.2,0.9-0.3,1.4-0.5c11.5-3.5,22.4-0.6,26.2,11.9C689.8,189,691.1,207.3,689.6,208z"/>
	<path class="st0 file-3-element-67" d="M690.9,196.8c0,0-3,11.1-3,11.1c-2.1,27.2-21.7,26.2-26.5,33.6c-10.6,16.3-14.2,6.6-14.2,6.6   s-10.8,15.7-9.6,21.2c0.7,3.1,6.5,4.6,6.3,3.4c0.5,3.2,2.9,6,6,7c2.5,0.9,5.4,0.6,7.8-0.7c5.2,3.6,15.8,1.5,19.2-3.9   c2.7,0.2,5.4-0.6,7.4-2.4c2.5-2.2,3.6-5.7,2.8-8.8c1.9,0.3,4-0.6,5.1-2.2c1.1-1.6,1.2-3.7,0.1-5.3c2.8-0.6,5-3,5.5-5.7   c0.4-2.7-1-5.6-3.5-6.9c3-1.4,5.1-4.2,5.6-7.4c0.4-3.1-0.9-6.4-3.4-8.4c3.4-3.4,1.7-6.9-0.1-10.3c0,0-1-1.4-1.2-2.9   c-0.5-2.6,0.2-8.1,0-10.9"/>
	<path class="st0 file-3-element-68" d="M642.9,235.3c0,0,12.8-7.7,24,4.6C666.9,239.9,662.7,252.3,642.9,235.3z"/>
	<path class="st0 file-3-element-69" d="M642.4,365.5c0,0-24.5,12.7-24.5,12.7c0,0-4.4-1.5-8.7,2c-2.7,2.2-7.8,2.9-7.7,3.8c0,1,2.7,2.5,3.9,2   c0.2-0.1,0.5-0.1,1.1-0.2c-2.3,2.5-4.3,5.1-5.3,7.1l0.3-0.3c0,0,0,0,0,0c0,0-0.1,0.1-0.1,0.2c0,0.1-0.1,0.1-0.1,0.2   c0,0.1-0.1,0.1-0.1,0.2c0,0.1-0.1,0.1-0.1,0.2s-0.1,0.1-0.1,0.2c0,0.1-0.1,0.1-0.1,0.2c0,0.1-0.1,0.1-0.1,0.2   c0,0.1-0.1,0.2-0.1,0.2c0,0.1-0.1,0.2-0.1,0.2c0,0.1-0.1,0.2-0.1,0.3c0,0.1-0.1,0.2-0.1,0.3c0,0.1-0.1,0.2-0.1,0.3   c0,0.1-0.1,0.2-0.1,0.3c0,0.1-0.1,0.2-0.1,0.3c0,0.1-0.1,0.2-0.1,0.3c0,0.1-0.1,0.2-0.1,0.3c0,0.1-0.1,0.2-0.1,0.3   c0,0.1-0.1,0.2-0.1,0.3c0,0.1-0.1,0.2-0.1,0.3c0,0.1-0.1,0.2-0.1,0.3c0,0.1-0.1,0.2-0.1,0.3c0,0.1-0.1,0.2-0.1,0.3   c0,0.1-0.1,0.2-0.1,0.3c0,0.1-0.1,0.2-0.1,0.3c0,0.1-0.1,0.2-0.1,0.3s-0.1,0.2-0.1,0.3s-0.1,0.2-0.1,0.3c0,0.1-0.1,0.2-0.1,0.3   c0,0.1-0.1,0.2-0.1,0.3c0,0.1,0,0.2-0.1,0.3c0,0.1-0.1,0.2-0.1,0.4c0,0.1,0,0.2-0.1,0.2c0,0.1-0.1,0.2-0.1,0.3c0,0.1,0,0.2-0.1,0.3   c0,0.1,0,0.2-0.1,0.3c0,0.1,0,0.2-0.1,0.3c0,0.1,0,0.2-0.1,0.3s0,0.2-0.1,0.3s0,0.2-0.1,0.3c0,0.1,0,0.2,0,0.2c0,0.1,0,0.2,0,0.3   c0,0.1,0,0.2,0,0.2c0,0.1,0,0.2,0,0.2c0,0.1,0,0.2,0,0.2c0,0.1,0,0.1,0,0.2s0,0.1,0,0.2c0,0.1,0,0.1,0,0.2c0,0.1,0,0.1,0,0.2   c0,0.1,0,0.1,0,0.2c0,0,0,0.1,0,0.2c0,0.1,0,0.1,0,0.2c0,0,0,0.1,0,0.1c0,0,0,0.1,0,0.1c0,0,0,0.1,0,0.1c0,0,0,0.1,0,0.1   c0,0,0,0,0,0.1c0,0,0,0.1,0,0.1c0,0,0,0,0,0c0,0,0.1,0,0.1,0.1s0.1,0,0.1,0c0,0,0,0,0,0c0,0,0.1,0,0.1,0c0,0,0,0,0.1-0.1   c0,0,0.1,0,0.1-0.1c0,0,0-0.1,0.1-0.1c0,0,0.1-0.1,0.1-0.1c0,0,0.1-0.1,0.1-0.1c0,0,0.1-0.1,0.1-0.1c0,0,0.1-0.1,0.1-0.1   c0-0.1,0.1-0.1,0.1-0.2c0,0,0.1-0.1,0.1-0.2c0-0.1,0.1-0.1,0.1-0.2c0-0.1,0.1-0.1,0.1-0.2c0-0.1,0.1-0.1,0.1-0.2   c0-0.1,0.1-0.1,0.1-0.2c0-0.1,0.1-0.1,0.1-0.2c0-0.1,0.1-0.1,0.1-0.2c0-0.1,0.1-0.2,0.1-0.3c0-0.1,0.1-0.1,0.1-0.2   c0-0.1,0.1-0.2,0.1-0.3c0-0.1,0.1-0.2,0.1-0.2c0-0.1,0.1-0.2,0.1-0.3c0-0.1,0.1-0.2,0.1-0.2c0-0.1,0.1-0.2,0.2-0.3   c0-0.1,0.1-0.2,0.1-0.2c0-0.1,0.1-0.2,0.2-0.3c0-0.1,0.1-0.2,0.1-0.3c0-0.1,0.1-0.2,0.1-0.3c0-0.1,0.1-0.2,0.1-0.3   c0-0.1,0.1-0.2,0.2-0.3c0-0.1,0.1-0.2,0.1-0.2c0-0.1,0.1-0.2,0.2-0.3c0-0.1,0.1-0.2,0.1-0.3c0-0.1,0.1-0.2,0.1-0.3   c0-0.1,0.1-0.2,0.1-0.3c0-0.1,0.1-0.2,0.1-0.3c0-0.1,0.1-0.2,0.1-0.3c0-0.1,0.1-0.2,0.1-0.3c0-0.1,0.1-0.2,0.1-0.2c0,0,0,0.1,0,0.1   c0,0.1-0.1,0.2-0.1,0.3c0,0.1-0.1,0.3-0.2,0.5c0,0.1,0,0.2-0.1,0.2c-0.1,0.2-0.1,0.4-0.2,0.6c0,0,0,0.1,0,0.1   c-0.1,0.2-0.2,0.5-0.2,0.7c0,0.1-0.1,0.2-0.1,0.3c0,0.2-0.1,0.3-0.2,0.5c0,0.1-0.1,0.2-0.1,0.3c0,0.1-0.1,0.3-0.1,0.5   c0,0.1-0.1,0.2-0.1,0.3c0,0.1-0.1,0.3-0.1,0.4c0,0.1-0.1,0.2-0.1,0.3c0,0.1-0.1,0.3-0.1,0.4c0,0.1-0.1,0.2-0.1,0.3   c0,0.1-0.1,0.3-0.1,0.4c0,0.1-0.1,0.2-0.1,0.3c0,0.1-0.1,0.3-0.1,0.4c0,0.1,0,0.2-0.1,0.3c0,0.1-0.1,0.2-0.1,0.4   c0,0.1,0,0.2-0.1,0.3c0,0.1-0.1,0.2-0.1,0.4c0,0.1,0,0.2-0.1,0.3c0,0.1,0,0.2-0.1,0.3c0,0.1,0,0.2-0.1,0.3c0,0.1,0,0.2-0.1,0.3   c0,0.1,0,0.2-0.1,0.3c0,0.1,0,0.2-0.1,0.3c0,0.1,0,0.2,0,0.2c0,0.1,0,0.2,0,0.3c0,0.1,0,0.1,0,0.2c0,0.1,0,0.2,0,0.2   c0,0.1,0,0.1,0,0.2c0,0.1,0,0.1,0,0.2c0,0.1,0,0.1,0,0.2c0,0.1,0,0.1,0,0.2c0,0,0,0.1,0,0.1c0,0.1,0,0.1,0,0.2c0,0,0,0.1,0,0.1   c0,0,0,0.1,0,0.1c0,0,0,0.1,0,0.1c0,0,0,0.1,0,0.1c0,0,0,0,0,0c0,0,0.1,0.1,0.1,0.1c0,0,0.1,0,0.1,0c0,0,0,0,0,0c0,0,0.1,0,0.1-0.1   c0,0,0,0,0.1-0.1c0,0,0.1-0.1,0.1-0.1c0,0,0-0.1,0.1-0.1c0,0,0.1-0.1,0.1-0.1c0,0,0.1-0.1,0.1-0.1c0-0.1,0.1-0.1,0.1-0.2   c0,0,0.1-0.1,0.1-0.2c0-0.1,0.1-0.1,0.1-0.2c0-0.1,0.1-0.1,0.1-0.2c0-0.1,0.1-0.1,0.1-0.2c0-0.1,0.1-0.1,0.1-0.2   c0-0.1,0.1-0.2,0.2-0.3c0-0.1,0.1-0.1,0.1-0.2c0-0.1,0.1-0.2,0.2-0.3c0-0.1,0.1-0.2,0.1-0.2c0-0.1,0.1-0.2,0.2-0.3   c0-0.1,0.1-0.2,0.1-0.2c0.1-0.1,0.1-0.2,0.2-0.4c0-0.1,0.1-0.2,0.1-0.2c0.1-0.1,0.1-0.2,0.2-0.4c0-0.1,0.1-0.2,0.1-0.3   c0.1-0.1,0.1-0.3,0.2-0.4c0-0.1,0.1-0.1,0.1-0.2c0.1-0.2,0.2-0.3,0.2-0.5c0-0.1,0-0.1,0.1-0.2c0.1-0.2,0.2-0.5,0.3-0.7c0,0,0,0,0,0   c0.1-0.2,0.2-0.4,0.3-0.6c0-0.1,0.1-0.2,0.1-0.3c0.1-0.1,0.1-0.3,0.2-0.4c0-0.1,0.1-0.2,0.1-0.3c0-0.1,0.1-0.2,0.2-0.4   c-1.2,4-2.2,8.5-1.5,8.7c0.9,0.2,3.8-6.3,5.3-9.9c-1.2,3.5-2.4,9.4-1.6,9.6c1,0.2,4.8-9.2,4.8-9.2s4.6-3.7,8.5-8   c1.4-1.4,2.9-2.9,4.3-4.3c1.1-1.1,1.8-2.3,2-3.5l20.3-5.7L642.4,365.5z"/>
	<path class="st0 file-3-element-70" d="M694.9,275.5c-14.4-2.9-20.2,71.3-20.2,71.3c-12.2,5.3-42.7,18.1-54.9,23.4c2.4,9.1,5.2,18.9,10.6,26.5   c5.5,7.6,24,12.2,24,12.2l35.8-42.7c4.8-3.7,7.2-11.1,7.2-11.1S719.9,280.5,694.9,275.5z"/>
	<path class="st0 file-3-element-71" d="M189.1,525.3c-4.6-2.9-9.3-5.8-13.9-8.6c-3.3-2.1-6.8-4.3-8.6-7.8c-1.1-2.3-1.4-4.9-1.7-7.4   c-0.8-9.1,0.9-18.3,1.4-27.4l-4,0.3l-3.3-135l8.3-1l-1.6-14.3l-7,2.4l-0.1-5.5c0,0,0,0,0,0c3-2.2,8.1-7.5,7.4-8.2c0,0,0,0,0,0   c0-0.1,0-0.2-0.1-0.2c-0.4-0.4-2.6,1-4.8,2.6c3.6-3.1,7.7-7.3,7.1-7.8c0,0-0.1,0-0.1,0c0,0,0,0-0.1,0c0,0-0.1,0-0.1,0   c0,0-0.1,0-0.1,0c0,0-0.1,0-0.1,0c0,0-0.1,0-0.1,0c-0.1,0-0.1,0-0.2,0.1c0,0-0.1,0-0.1,0.1c-0.1,0-0.1,0-0.2,0.1   c-0.1,0-0.1,0-0.2,0.1c-0.1,0-0.1,0.1-0.2,0.1c-0.1,0-0.1,0.1-0.2,0.1c-0.1,0-0.1,0.1-0.2,0.1c-0.1,0-0.1,0.1-0.2,0.1   c-0.1,0-0.2,0.1-0.2,0.1c-0.1,0-0.1,0.1-0.2,0.1c-0.1,0-0.2,0.1-0.3,0.2c-0.1,0-0.1,0.1-0.2,0.1c-0.1,0.1-0.2,0.1-0.3,0.2   c-0.1,0-0.1,0.1-0.2,0.1c-0.1,0.1-0.2,0.1-0.3,0.2c-0.1,0-0.1,0.1-0.2,0.1c-0.1,0.1-0.2,0.1-0.3,0.2c-0.1,0-0.2,0.1-0.2,0.2   c-0.1,0.1-0.2,0.1-0.3,0.2c-0.1,0-0.1,0.1-0.2,0.1c-0.1,0.1-0.3,0.2-0.4,0.3c0,0-0.1,0.1-0.1,0.1c-0.2,0.1-0.4,0.3-0.6,0.4   c0,0,0,0-0.1,0c-0.2,0.1-0.4,0.2-0.5,0.4c-0.1,0-0.1,0.1-0.2,0.1c-0.1,0.1-0.3,0.2-0.4,0.3c-0.1,0-0.1,0.1-0.2,0.1   c-0.1,0.1-0.2,0.2-0.4,0.2c3-2.7,5.9-5.9,5.4-6.4c-0.5-0.5-4.3,2-7.3,4.2l0-0.4c2.3-2.2,4.5-4.9,4.1-5.3c0,0-0.1-0.1-0.2,0   c-0.6,0-2.2,0.9-4,1.9l-1.2-50.8c11.4-6.5,19.2-19,19.8-33.4l0.4,1.9c3.3-1.3,7-10,3.6-13.1c-1.2-1.1-2.3-1-3.1-0.5   c0.3,1.2-1.1,2.8-2.7,2.1c-4.8-2.3-3.6-8.4-5.9-12.5c-1.2-2.2-0.8-3.8-3.3-4.2c-3.2-0.5-8.7-1.2-11.9-1.4c-1.7-0.1-3.9-0.7-5.5-1.2   c-1.4-0.4-2.6-1.2-4.1-1.2c-1.6-0.1-4.7,1.9-6.2,2.2c-1.3,0.3-4.1,0.8-5.3,0.1c-6-3.5-7.5,0.3-12.3-0.1c-4.6-0.4-9.2-3.4-12.4,0.3   c-0.8,0.9-2.1,4-2.8,3.4c-2.2,4.3-2.6,10-3.3,15.2c-1.1-1.6-4-4.2-6.1-1.9c-3.2,3.5,1.3,12.2,4.7,13.2l0.1-0.6   c1.3,16.6,12.3,30.4,27.1,35V321l-14.6,1.7l1.8,5.4c-0.7,0-1.2,0-1.5,0.1c0,0,0,0,0,0c-0.1,0-0.1,0.1-0.2,0.1c0,0,0,0.1,0,0.2   c0.2,0.3,1.1,0.9,2.3,1.4l0.4,1.3c-2.6-0.4-4.8-0.6-5-0.1c-0.2,0.6,2.7,1.8,5.9,2.9l0.1,0.3c-0.1,0-0.2,0-0.2,0c-0.1,0-0.2,0-0.2,0   c-0.2,0-0.4-0.1-0.7-0.1c-0.1,0-0.2,0-0.2,0c-0.2,0-0.3,0-0.5-0.1c-0.1,0-0.1,0-0.2,0c-0.2,0-0.3,0-0.5-0.1c-0.1,0-0.2,0-0.3,0   c-0.1,0-0.2,0-0.4,0c-0.1,0-0.2,0-0.3,0c-0.1,0-0.2,0-0.3,0c-0.1,0-0.2,0-0.3,0c-0.1,0-0.2,0-0.3,0c-0.1,0-0.2,0-0.3,0   c-0.1,0-0.2,0-0.3,0c-0.1,0-0.2,0-0.2,0c-0.1,0-0.2,0-0.3,0c-0.1,0-0.2,0-0.2,0c-0.1,0-0.2,0-0.3,0c-0.1,0-0.1,0-0.2,0   c-0.1,0-0.2,0-0.2,0c-0.1,0-0.1,0-0.2,0c-0.1,0-0.1,0-0.2,0c-0.1,0-0.1,0-0.2,0c-0.1,0-0.1,0-0.2,0c0,0-0.1,0-0.1,0   c-0.1,0-0.1,0-0.1,0c0,0-0.1,0-0.1,0c0,0-0.1,0-0.1,0c0,0,0,0-0.1,0c0,0-0.1,0-0.1,0.1c-0.3,0.7,5.2,2.7,9.8,4   c-2.6-0.5-5.2-0.8-5.4-0.3c0,0.1,0,0.2,0,0.2c0,0,0,0,0,0c-0.4,0.9,6.4,3.5,10.1,4.3c1.1,0.4,2.4,0.7,3.9,1v131.6l-4-0.3   c0.6,9.1,2.2,18.3,1.4,27.4c-0.2,2.5-0.5,5.1-1.7,7.4c-1.8,3.5-5.2,5.7-8.6,7.8l-13.9,8.6c-1.6,1-3.4,2.8-2.5,4.4   c0.6,1.1,2.1,1.3,3.3,1.2c6.3-0.3,11.7-4.1,17.6-6.3c3.7-1.4,7.7-2.2,11.6-2.3c1.7-0.1,3.6-0.2,4.5-1.6c0.4-0.7,0.7-1.5,0.5-2.3   c-3-15.9,1.1-29.2,3.9-43.2l-11.3-0.8V342.9c5.9,1,13.9,0.6,15.7-1.8c0,0,0,0,0.1-0.1l13.4-1.6l3.3,135l-11.3,0.8   c2.7,14.1,6.9,27.3,3.9,43.2c-0.1,0.8,0.1,1.6,0.5,2.3c0.9,1.4,2.9,1.5,4.5,1.6c4,0.1,7.9,0.9,11.6,2.3c5.9,2.2,11.3,6,17.6,6.3   c1.2,0.1,2.7-0.1,3.4-1.2C192.6,528.1,190.7,526.3,189.1,525.3z M157.5,310.5c-0.3,0.2-0.6,0.5-0.9,0.6c0.3-0.2,0.6-0.5,0.9-0.8   V310.5z M143.1,314.2c0.9-1.8,1.5-3.4,1.7-3.8c0.6-1-0.1-3.8-1-4c-0.9-0.3-2.7,4.3-5.3,6.2c-3.1,2.3-3.7,5.3-3.8,6.7   c-0.1,0.1-0.1,0.2-0.2,0.3c0,0-0.1,0.1-0.1,0.1c-0.1,0.1-0.1,0.3-0.2,0.4l-5.4,0.6v-51.3c2,3.8,9.9,15.7,24.4-2.4   c0.2-0.1,0.3-0.2,0.2-0.2l-1.4-9.3c1.4-0.5,2.7-1.1,3.9-1.8l1.2,50.9c-2.5,1.5-5,3.1-5,3.1S148,311.7,143.1,314.2z M145.9,330.8   c-0.2-0.2-0.5-0.4-0.8-0.6c-0.2-0.3-0.5-0.8-0.9-1.2c3.3-0.8,7.4-2.8,10.5-5c1.1-0.7,2.1-1.4,2.9-2.1l0.1,5L145.9,330.8z"/>
	<path class="st0 file-3-element-72" d="M124.6,506.3c0,0-3.1,8.5-11.6,11.5l0.2,0.1l-4.6,2.9c0,0,6.3,2.5,3.3,7.4l7.7-3.4c0,0-0.3-2.9-1.3-5.2   c1.6-1.4,6.3-5.7,8.1-10h8.9v-4.6L124.6,506.3z"/>
	<path class="st0 file-3-element-73" d="M181,392.1l-2.2-20.7c-1.3-12.1-2.2-19.8-2.2-19.8l-12-85.9c0,0-4.6-5.5-16.3-5.8c-11.7-0.4-34.3,6.5-34.8,9.3   c-0.3,1.6-1.4,35.2-2.4,64.2c0,0,0,0,0.1,0c0.1,0,0.1,0,0.2,0c0.1,0,0.2,0,0.3,0c0.1,0,0.2,0,0.2,0c0.1,0,0.2,0,0.3,0   c0.1,0,0.2,0,0.2,0c0.1,0,0.2,0,0.3,0c0.1,0,0.2,0,0.3,0c0.1,0,0.2,0,0.3,0c0.1,0,0.2,0,0.3,0c0.1,0,0.2,0,0.3,0c0.1,0,0.2,0,0.3,0   c0.1,0,0.2,0,0.4,0c0.1,0,0.2,0,0.3,0c0.2,0,0.3,0,0.5,0.1c0.1,0,0.1,0,0.2,0c0.2,0,0.3,0,0.5,0.1c0.1,0,0.2,0,0.2,0   c0.2,0,0.4,0.1,0.7,0.1c0.1,0,0.2,0,0.2,0c0.1,0,0.2,0,0.2,0l-0.1-0.3c-3.2-1.1-6.2-2.4-5.9-2.9c0.2-0.5,2.4-0.2,5,0.1l-0.4-1.3   c-1.2-0.6-2.1-1.1-2.3-1.4c0-0.1-0.1-0.1,0-0.2c0,0,0.1-0.1,0.2-0.1c0,0,0,0,0,0c0.3-0.1,0.8-0.1,1.5-0.1l-1.8-5.4l20.9-2.4   c0.1-0.1,0.1-0.3,0.2-0.4c0,0,0.1-0.1,0.1-0.1c0.1-0.1,0.1-0.2,0.2-0.3c0.1-1.4,0.8-4.4,3.8-6.7c2.6-2,4.4-6.5,5.3-6.2   c0.9,0.3,1.6,3.1,1,4c-0.2,0.3-0.8,1.9-1.7,3.8c4.9-2.5,9.2-4.5,9.2-4.5s8.4-5.5,9.9-5.6c0.1,0,0.2,0,0.2,0c0.5,0.5-3.3,4.7-6,7   c3-2.2,8.6-6.1,9.2-5.5c0.5,0.5-2.5,3.7-5.4,6.4c0.1-0.1,0.2-0.2,0.4-0.2c0.1,0,0.1-0.1,0.2-0.1c0.1-0.1,0.3-0.2,0.4-0.3   c0.1,0,0.1-0.1,0.2-0.1c0.2-0.1,0.4-0.2,0.5-0.4c0,0,0,0,0.1,0c0.2-0.1,0.4-0.3,0.6-0.4c0,0,0.1-0.1,0.1-0.1   c0.1-0.1,0.3-0.2,0.4-0.3c0.1,0,0.1-0.1,0.2-0.1c0.1-0.1,0.2-0.1,0.3-0.2c0.1,0,0.2-0.1,0.2-0.2c0.1-0.1,0.2-0.1,0.3-0.2   c0.1,0,0.1-0.1,0.2-0.1c0.1-0.1,0.2-0.1,0.3-0.2c0.1,0,0.1-0.1,0.2-0.1c0.1-0.1,0.2-0.1,0.3-0.2c0.1,0,0.1-0.1,0.2-0.1   c0.1,0,0.2-0.1,0.3-0.2c0.1,0,0.1-0.1,0.2-0.1c0.1,0,0.2-0.1,0.2-0.1c0.1,0,0.1-0.1,0.2-0.1c0.1,0,0.1-0.1,0.2-0.1   c0.1,0,0.1-0.1,0.2-0.1c0.1,0,0.1-0.1,0.2-0.1c0.1,0,0.1-0.1,0.2-0.1c0.1,0,0.1-0.1,0.2-0.1c0.1,0,0.1,0,0.1-0.1   c0.1,0,0.1,0,0.2-0.1c0,0,0.1,0,0.1,0c0.1,0,0.1,0,0.1,0c0,0,0.1,0,0.1,0c0,0,0.1,0,0.1,0c0,0,0,0,0.1,0c0.1,0,0.1,0,0.1,0   c0.6,0.5-3.5,4.6-7.1,7.8c2.2-1.6,4.4-3,4.8-2.6c0.1,0,0.1,0.1,0.1,0.2c0,0,0,0,0,0c0.7,0.7-4.4,6-7.4,8.2c-1,1-2.4,2-3.9,3.1   c-3.2,2.1-7.3,4.2-10.5,5c0.4,0.5,0.7,0.9,0.9,1.2c0.3,0.2,0.5,0.4,0.8,0.6l19.9-6.7l1.6,14.3l-22.7,2.7c0,0,0,0.1-0.1,0.1   c-1.8,2.4-9.9,2.8-15.9,1.8c-1.8-0.3-3.5-0.6-4.8-1.1c-3.7-0.8-10.4-3.4-10.1-4.3c0,0,0,0,0,0c-0.1-0.1-0.1-0.2,0-0.2   c0.2-0.5,2.8-0.2,5.4,0.3c-3-0.9-6.5-2-8.3-2.9c-0.5,15.6-1,29.6-1.2,36.4l-0.9,21.1c-1.8,37.2-5.8,123.2-5.8,123.2l18.5-4.4   l19.8,4.2c0,0,10.9-6,16.7-6s32.2,5.7,35.9,2.5C194,511.7,186.1,439.5,181,392.1z"/>
	<path class="st0 file-3-element-74" d="M181.8,520.8l-4.6-2.9l0.2-0.1c-4-1.4-6.8-4-8.6-6.4c-0.5,0.2-1.1,0.4-1.6,0.6c-0.5,0.2-0.9,0.4-1.4,0.7   c2.2,3.1,5.1,5.7,6.3,6.8c-1,2.3-1.3,5.2-1.3,5.2l7.7,3.4C175.4,523.3,181.8,520.8,181.8,520.8z"/>
	<path class="st0 file-3-element-75" d="M130.8,255.6c1,1.2-9.6,8.9-6.2,18.7c3.7,10.7,13.4,23.1,13.4,23.1s-22.7-4.5-31.4-16.6   S126.9,250.7,130.8,255.6z"/>
	<path class="st0 file-3-element-76" d="M148.2,255.6c-1,1.2,9.6,8.9,6.2,18.7c-3.8,10.7-13.4,23.1-13.4,23.1s22.7-4.5,31.4-16.6   S152.1,250.7,148.2,255.6z"/>
	<g>
		<path class="st0 file-3-element-77" d="M122.7,304.8c-1.4-3-4-5.6-7.2-6.7c-1.2-0.4-2.4-0.5-3.5-0.4c-0.5-1-1.7-1.6-2.8-1.2    c-6.3,2.4-8.5,9.9-7.5,16.1c0.5,3.3,2.4,6.3,5.3,8c2.7,1.5,6.2,1.9,9.2,0.8C122.8,318.7,125.5,311.1,122.7,304.8z"/>
		<path class="st0 file-3-element-78" d="M98.7,300c-1.8-2.6-2.2-6-1.8-9.2c2.2,1.9,4.8,3.2,6.9,5.2c1.4,1.3,4.9,5.7,2.4,7.3    C103.9,304.8,99.9,301.8,98.7,300z"/>
	</g>
	<g>
		<path class="st0 file-3-element-79" d="M177.2,304.3c-1.1-2.3-3.2-3.9-5.3-5.2c-2.7-1.5-5.9-2.6-9-2.4c-0.8-0.7-1.9-1-3-0.7    c-5.1,1.5-8.2,6.6-7.9,11.9c0,0.1,0,0.1,0,0.2c2.3-1.4,4.4-3.3,7-4.4c0.9-0.4,2.2-0.9,3.1-0.3c0.4,0.3,0.6,0.8,0.6,1.3    c0.6-0.1,1.2-0.2,1.9-0.1c0.3,0,0.7,0.2,0.7,0.6c0.1,0.3,0.1,0.7,0.1,1c0.6,0,1.1,0.2,1.4,0.8c0.5,0.9,0.3,2.2,0.1,3.2    s-0.5,2-0.9,2.9c-0.6,1.5-1.3,2.9-2,4.4c4.8,0,10-1,12.6-5.4C178.1,309.6,178.4,306.8,177.2,304.3z"/>
		<path class="st0 file-3-element-80" d="M170.9,298.6c3.1-0.9,6.4-0.1,9.2,1.4c-2.5,1.4-4.6,3.4-7.2,4.8c-1.7,0.9-7,2.7-7.6-0.2    C164.7,301.9,168.9,299.1,170.9,298.6z"/>
	</g>
	<path class="st0 file-3-element-81" d="M183.6,321.4c-0.3-3.3-1.9-6.2-4.1-8.7c-3.3-3.7-8.3-5.7-13.1-4.9c0.8,1.1,1.1,2.4,0.9,3.8   c-0.4,2.7-2.6,4.8-4.6,6.4c-1.9,1.6-4.1,2.9-6.1,4.4c0.4,1.2,0.9,2.4,1.8,3.4c0.2,0.3,0.4,0.7,0.6,1c2.2,3,5.7,4.1,9.4,4.1   c0.7,0,1.4,0,2.2-0.1c1.1,0,2.3,0,3.4-0.3c1.8-0.2,3.6-0.4,5.3-1.1C182.3,328.1,183.9,324.8,183.6,321.4z"/>
	<path class="st0 file-3-element-82" d="M167.7,310c-0.2-0.3-0.4-0.6-0.6-0.9c-0.1,0.4-0.2,0.9-0.4,1.3c0.2,1.1,0.1,2.1-0.4,3.1   c-0.5,1-1.4,1.6-2.5,1.9c-0.2,0.2-0.4,0.4-0.6,0.6c1.4,1.6,3.4,2.8,5,2.3C171.4,317.2,168.9,311.7,167.7,310z"/>
	<path class="st0 file-3-element-83" d="M155.9,262.9c2.5-6.4,3.3-15-0.6-20.4c-4-5.5-11.8-7.9-18.3-8.6c-2.9-0.4-7.8,2.6-10.1,4   c-6.9,4.1-10.3,9.9-9.4,18c0.5,4.2,1.6,9.9,4.6,13c1.1,1.2,2.4,2.1,4,2.6c0.6,0.2,6.5,0.5,6.3,0c1,3.1,3.7,6,10.6,0.1   c0.7-0.6,5.4,0,6.9-0.8c2.1-1.1,3.5-2.8,4.6-4.8C155,265,155.5,264,155.9,262.9z M128.1,247.7c4.4-2.4,6.9-5.7,9.2-9.8   c1.3,2.4,9,7.8,10.6,9C142.4,249.7,134,253.4,128.1,247.7z"/>
	<rect x="50.8" y="392" class="st0 file-3-element-84" width="22.7" height="130.2"/>
	<rect x="280.3" y="392" class="st0 file-3-element-85" width="22.7" height="130.2"/>
	<rect x="50.8" y="371" class="st0 file-3-element-86" width="252.2" height="21"/>
	<path class="st0 file-3-element-87" d="M207.1,329.5c2,11.5-21.1,18-26.6,18.7c-5.5,0.7-34.1,12.6-34.1,12.6s-12-26.9,2.9-36.5   C149.8,324,204.3,313.3,207.1,329.5z"/>
	<g>
		<path class="st0 file-3-element-88" d="M146.8,298.6c1.5-2.8,4.4-4.7,7.4-5.7c-0.7,2.8-0.7,5.7-1.5,8.5c-0.5,1.9-2.9,6.9-5.4,5.4    C145,305.4,145.8,300.5,146.8,298.6z"/>
		<path class="st0 file-3-element-89" d="M143.9,306.4c0.3-0.1,0.3,0.5,0.6,0.7c0.2,0.1,0.3,0.3,0.4,0.5c0.4-0.5,0.6-1.1,0.6-1.7c0-3-5.6-2.3-7.4-1.8    c-2.8,0.8-5.3,2.3-8,3.2c2.5,2,5.6,3.5,8.8,3.3c0.6,0,1.4-0.2,2.2-0.5C141.3,308.7,142.6,307,143.9,306.4z"/>
	</g>
	<path class="st0 file-3-element-90" d="M113.9,337.5C113.9,337.5,114,337.5,113.9,337.5c0-0.1-0.1-0.2,0-0.3c0.2-0.5,2.8-0.2,5.4,0.3   c-4.6-1.3-10-3.3-9.8-4c0,0,0-0.1,0.1-0.1c0,0,0,0,0.1,0c0,0,0.1,0,0.1,0c0,0,0.1,0,0.1,0c0,0,0.1,0,0.1,0c0,0,0.1,0,0.1,0   c0.1,0,0.1,0,0.2,0c0.1,0,0.1,0,0.2,0c0.1,0,0.1,0,0.2,0c0.1,0,0.1,0,0.2,0c0.1,0,0.2,0,0.2,0c0.1,0,0.1,0,0.2,0c0.1,0,0.2,0,0.3,0   c0.1,0,0.2,0,0.2,0c0.1,0,0.2,0,0.3,0c0.1,0,0.2,0,0.2,0c0.1,0,0.2,0,0.3,0c0.1,0,0.2,0,0.3,0c0.1,0,0.2,0,0.3,0c0.1,0,0.2,0,0.3,0   c0.1,0,0.2,0,0.3,0c0.1,0,0.2,0,0.3,0c0.1,0,0.2,0,0.4,0c0.1,0,0.2,0,0.3,0c0.2,0,0.3,0,0.5,0.1c0.1,0,0.1,0,0.2,0   c0.2,0,0.3,0,0.5,0.1c0.1,0,0.2,0,0.2,0c0.2,0,0.4,0.1,0.7,0.1c0.1,0,0.2,0,0.2,0c0.2,0,0.3,0,0.5,0.1c0.1,0,0.2,0,0.3,0   c0.1,0,0.3,0,0.4,0.1c0.1,0,0.2,0,0.3,0c0.1,0,0.2,0,0.4,0.1c-3.8-1.2-7.9-2.8-7.6-3.5c0.3-0.8,7,0.4,10.7,1.1   c-3.2-0.9-7.9-2.9-8.4-3.7c0-0.1-0.1-0.1,0-0.2c0,0,0.1-0.1,0.2-0.1c0,0,0,0,0,0c1.5-0.6,11.4,0.9,11.4,0.9s4.8,0,10.3,0.1   c-1.6-1.3-2.8-2.5-3.2-2.7c-1-0.6-1.5-3.5-0.8-4.1c0.7-0.6,4.2,2.7,7.5,3.4c1.7,0.4,3,1,4,1.8c-1.8-6.4-5.3-14.5-11.6-16.2   c-0.6-0.2-57.5,3-58.2,27.3c-0.3,11.7,30.1,5.9,35.6,4.9c1.9-0.4,6.7-1.4,12.2-2.6C117.4,339.8,113.7,338.2,113.9,337.5z"/>
	<path class="st0 file-3-element-91" d="M153.3,298.4c-0.1,1-0.3,2-0.6,3c-0.5,1.9-2.9,6.9-5.4,5.4c-2.3-1.4-1.5-6.3-0.5-8.2c0.9-1.7,2.2-3,3.8-4   c-0.1-0.1-0.2-0.3-0.4-0.4c-1.1-1.3-2.5-2.4-4.2-2.7c-1.5-0.3-3,0-4.4,0.5c-0.8,0.3-1.5,0.6-2.3,1c-2.9,0.5-5.8,1.9-8.1,3.6   c-0.8,0.6-1.5,1.2-2.2,1.9c-1,1.2-2.7,3.6-3.1,5c-0.7,2.5,0.8,5.7,2.3,8c1.9-0.1,3-0.2,3.1-0.2c2,0.6,3.8,1.8,5.3,3.4   c0.5-0.7,1.2-1.4,2.1-2.1c0.9-0.6,1.6-1.6,2.3-2.5c-0.8,0.3-1.6,0.5-2.1,0.5c-3.2,0.2-6.3-1.2-8.8-3.3c2.7-0.9,5.2-2.4,8-3.2   c1.9-0.5,7.4-1.2,7.4,1.8c0,0.6-0.2,1.2-0.6,1.8c0.4,1,0.5,2.2,0.1,2.8c-0.2,0.3-0.8,1.9-1.7,3.8c4.9-2.5,9.2-4.5,9.2-4.5   s1.8-1.2,3.9-2.5C156.1,304.1,155,301.1,153.3,298.4z"/>
</g>
<g id="InteriorKitchen">
	<g>
		<g>
			<g>
				<g>
					<path class="st1 file-3-element-92" d="M50.6,428.9c-9,0-14.2,0-14.2,0V203.4c0-33.1,12.9-64.2,36.3-87.6s54.5-36.3,87.6-36.3
					  s64.2,12.9,87.6,36.3s36.3,54.5,36.3,87.6c0,0,0,74.9,0,138.4"/>
					<path class="st1 file-3-element-93" d="M284,356.2c0,4.8,0,9.5,0,14.1"/>
					<path class="st1 file-3-element-94" d="M254.3,392.5c0,21.8,0,36.4,0,36.4s-32.2,0-70,0"/>
					<path class="st1 file-3-element-95" d="M107.2,428.9c-14.4,0-26.4,0-33.6,0"/>
					<path class="st1 file-3-element-96" d="M66.1,370.9c0-66.8,0-167.5,0-167.5c0-51.9,42.1-94.1,94.1-94.1c51.9,0,94.1,42.1,94.1,94.1
					  c0,0,0,66.8,0,127.7"/>
				</g>
				<line class="st1 file-3-element-97" x1="160.2" y1="79.6" x2="160.2" y2="109.4"/>
				<g>
					<g>
						<line class="st1 file-3-element-98" x1="86" y1="104" x2="105.6" y2="126.6"/>
						<g>
							<line class="st1 file-3-element-99" x1="42.5" y1="163.6" x2="71.9" y2="169.8"/>
							<line class="st1 file-3-element-100" x1="36" y1="224.3" x2="65.7" y2="224.3"/>
							<line class="st1 file-3-element-101" x1="36" y1="278.7" x2="65.7" y2="278.7"/>
							<line class="st1 file-3-element-102" x1="36" y1="333.2" x2="65.7" y2="333.2"/>
							<path class="st1 file-3-element-103" d="M36,387.7c0,0,7.5,0,15,0"/>
						</g>
					</g>
					<g>
						<line class="st1 file-3-element-104" x1="234.4" y1="104" x2="214.8" y2="126.6"/>
						<g>
							<line class="st1 file-3-element-105" x1="277.9" y1="163.6" x2="248.5" y2="169.8"/>
							<line class="st1 file-3-element-106" x1="284.4" y1="224.3" x2="254.7" y2="224.3"/>
							<line class="st1 file-3-element-107" x1="284.4" y1="278.7" x2="254.7" y2="278.7"/>
							<path class="st1 file-3-element-108" d="M284.4,333.2c0,0-2.6,0-6.2,0"/>
						</g>
					</g>
				</g>
			</g>
		</g>
		<g>
			<g>
				<g>
					<path class="st1 file-3-element-109" d="M517.2,399.3c0-1.5,0-3.1,0-4.7"/>
					<path class="st1 file-3-element-110" d="M517.2,321.4c0-58.1,0-118,0-118c0-33.1,12.9-64.2,36.3-87.6C576.9,92.5,608,79.6,641,79.6
					  s64.2,12.9,87.5,36.3s36.3,54.5,36.3,87.6v225.4c0,0-14.7,0-36.9,0"/>
					<path class="st1 file-3-element-111" d="M646.7,428.9c-12.5,0-25,0-37.2,0"/>
					<path class="st1 file-3-element-112" d="M547,317.2c0-56.7,0-113.8,0-113.8c0-51.9,42.1-94.1,94.1-94.1c52,0,94.1,42.1,94.1,94.1v225.4
					  c0,0-2.6,0-7.2,0"/>
					<path class="st1 file-3-element-113" d="M647.2,428.9c-12.6,0-25.3,0-37.3,0"/>
				</g>
				<line class="st1 file-3-element-114" x1="641" y1="79.6" x2="641" y2="109.4"/>
				<g>
					<g>
						<line class="st1 file-3-element-115" x1="566.8" y1="104" x2="586.4" y2="126.6"/>
						<g>
							<line class="st1 file-3-element-116" x1="523.3" y1="163.6" x2="552.7" y2="169.8"/>
							<line class="st1 file-3-element-117" x1="516.8" y1="224.3" x2="546.5" y2="224.3"/>
							<line class="st1 file-3-element-118" x1="516.8" y1="278.7" x2="546.5" y2="278.7"/>
							<path class="st1 file-3-element-119" d="M546.5,333.2"/>
							<path class="st1 file-3-element-120" d="M516.8,333.2"/>
						</g>
					</g>
					<g>
						<line class="st1 file-3-element-121" x1="715.3" y1="104" x2="695.7" y2="126.6"/>
						<g>
							<line class="st1 file-3-element-122" x1="758.7" y1="163.6" x2="729.3" y2="169.8"/>
							<line class="st1 file-3-element-123" x1="765.3" y1="224.3" x2="735.5" y2="224.3"/>
							<line class="st1 file-3-element-124" x1="765.3" y1="278.7" x2="735.5" y2="278.7"/>
							<line class="st1 file-3-element-125" x1="765.3" y1="333.2" x2="735.5" y2="333.2"/>
							<line class="st1 file-3-element-126" x1="765.3" y1="387.7" x2="735.5" y2="387.7"/>
						</g>
					</g>
				</g>
			</g>
		</g>
	</g>
	<polygon class="st1 file-3-element-127" points="421.7,197.8 408.6,197.8 408.6,175.4 392.6,175.4 392.6,197.8 379.6,197.8 379.6,214.1 392.6,214.1    392.6,259.6 410,259.2 410,213.7 421.7,214.1  "/>
	<path class="st1 file-3-element-128" d="M728.6,429.4c41.9,0,107.2,0,107.2,0v205.8H-18.5V429.4c0,0,20,0,53.8,0"/>
	<path class="st1 file-3-element-129" d="M254.3,428.9c6.3,0,15.6,0,26,0.1"/>
	<path class="st1 file-3-element-130" d="M302.9,429.1c14.9,0.1,29.4,0.2,39.1,0.2"/>
	<rect x="342.9" y="408.6" class="st1 file-3-element-131" width="265.5" height="118.1"/>
	<path class="st1 file-3-element-132" d="M475.6,433.7L475.6,433.7c25.7,0,46.5,20.8,46.5,46.5v46.5h-93v-46.5C429.1,454.5,450,433.7,475.6,433.7z"/>
	<path class="st1 file-3-element-133" d="M592.2,408.3H490.4c-1.7,0-3.1-1.4-3.1-3.1v-1.4c0-1.7,1.4-3.1,3.1-3.1h101.8c1.7,0,3.2,1.4,3.2,3.1v1.4   C595.3,406.9,593.9,408.3,592.2,408.3z"/>
	<path class="st1 file-3-element-134" d="M460.9,408.3H359.1c-1.7,0-3.1-1.4-3.1-3.1v-1.4c0-1.7,1.4-3.1,3.1-3.1h101.8c1.7,0,3.1,1.4,3.1,3.1v1.4   C464.1,406.9,462.6,408.3,460.9,408.3z"/>
	<path class="st1 file-3-element-135" d="M79.2,324.2c5.2-16.1,19.4-38.3,25.3-47.2"/>
	<path class="st1 file-3-element-136" d="M201.9,323.9c-5.6-17.8-23.6-44.2-28.1-51"/>
	<path class="st1 file-3-element-137" d="M136.4,518.5c0,0,3.2,6.9-0.6,7.1s-9.9,0.2-11,0.5c-1.2,0.2-15.7,8.4-22.6,8.4c-6.8,0-8.2-4.1-4.5-6.6"/>
	<path class="st1 file-3-element-138" d="M135.8,514.5c0.2,1.3,0.4,2.7,0.6,4c0.1,0.8-0.1,1.6-0.5,2.3c-0.9,1.4-2.9,1.5-4.5,1.6   c-4,0.1-7.9,0.9-11.7,2.3c-5.9,2.2-11.3,6-17.6,6.3c-1.2,0.1-2.7-0.1-3.3-1.2c-0.9-1.7,0.9-3.4,2.5-4.4c4.6-2.9,9.3-5.8,13.9-8.6   c2.5-1.6,5.2-3.2,7-5.5"/>
	<path class="st1 file-3-element-139" d="M121.5,511.6c-1.8,2.3-4.6,4.8-8.5,6.2l0.2,0.1l-4.6,2.9c0,0,6.3,2.5,3.3,7.4l7.7-3.4c0,0-0.3-2.9-1.3-5.2   c1.3-1.1,4.4-4,6.6-7.2"/>
	<path class="st1 file-3-element-140" d="M153.7,519.2c-0.7,1.7-2.2,6.3,0.8,6.5c3.7,0.2,9.9,0.2,11,0.5c1.2,0.2,15.7,8.4,22.6,8.4   c6.5,0,8.1-3.8,4.8-6.4"/>
	<path class="st1 file-3-element-141" d="M167.9,510.9c1.9,2.4,4.6,4.2,7.3,5.8c4.6,2.9,9.3,5.8,13.9,8.6c1.6,1,3.4,2.8,2.5,4.4   c-0.6,1.1-2.1,1.3-3.4,1.2c-6.3-0.3-11.7-4.1-17.6-6.3c-3.7-1.4-7.7-2.2-11.6-2.3c-1.7-0.1-3.6-0.2-4.5-1.6   c-0.4-0.7-0.7-1.5-0.5-2.3c0.6-3,0.9-5.8,1-8.6"/>
	<path class="st1 file-3-element-142" d="M168.3,510.9c1.8,2.5,4.8,5.4,9.1,6.9l-0.2,0.1l4.6,2.9c0,0-6.3,2.5-3.3,7.4l-7.7-3.4c0,0,0.3-2.9,1.3-5.2   c-1.5-1.3-5.7-5.2-7.7-9.1"/>
	<path class="st1 file-3-element-143" d="M108.9,392.1c-1.8,37.2-5.8,123.2-5.8,123.2l18.5-4.4l19.8,4.2c0,0,10.9-6,16.7-6c5.8,0,32.2,5.7,35.9,2.5   c0,0-7.9-72.2-13-119.6"/>
	<path class="st1 file-3-element-144" d="M178.7,371.4c-1.3-12.1-2.2-19.8-2.2-19.8s-0.1-0.6-0.2-1.8"/>
	<path class="st1 file-3-element-145" d="M168.9,296.6c-0.5-3.6-1-7.1-1.5-10.4"/>
	<path class="st1 file-3-element-146" d="M112.7,286.9c-0.1,3-0.2,6.3-0.3,9.8"/>
	<path class="st1 file-3-element-147" d="M110.8,343.5c-0.4,11.9-0.7,22.1-0.9,27.5"/>
	<path class="st1 file-3-element-148" d="M124,271.7c0.1,0.9,0.3,1.7,0.6,2.6c2.4,6.8,7.5,14.2,10.9,18.7"/>
	<path class="st1 file-3-element-149" d="M132.4,295.7c-7.7-2.2-20.1-6.9-25.9-15c-5.2-7.2,2.8-16.3,11.1-21.6"/>
	<path class="st1 file-3-element-150" d="M154.6,266.8c0.6,2.3,0.7,4.8-0.2,7.5c-2,5.6-5.9,11.8-9.1,16.3"/>
	<path class="st1 file-3-element-151" d="M155.5,292.6c6.4-2.6,13.2-6.5,17.1-11.9c5.9-8.1-5.2-18.8-14.4-23.5"/>
	<path class="st1 file-3-element-152" d="M116.7,504.9c0,0,0-56.4,0-112.4"/>
	<path class="st1 file-3-element-153" d="M116.7,370.7c0-10.5,0-20.8,0-30.4"/>
	<path class="st1 file-3-element-154" d="M116.7,297.7c0-2.5,0-4.7,0-6.6"/>
	<path class="st1 file-3-element-155" d="M181.8,502.6c0,0-6.2-54.3-11.5-109.1"/>
	<path class="st1 file-3-element-156" d="M168,370c-0.5-5.6-1-11.1-1.5-16.5"/>
	<path class="st1 file-3-element-157" d="M162.5,295.3c0-1.1,0-5.2,0-6.2"/>
	<path class="st1 file-3-element-158" d="M176.5,226.4c-1.7,11.6-8.3,21.6-17.4,27.6"/>
	<path class="st1 file-3-element-159" d="M116.8,252.7c-8.3-6.1-14.1-15.6-15.7-26.6"/>
	<g>
		<path d="M122.7,216.2c0-0.1,0-0.1,0.1-0.1c0.6-1.3-0.6-2.9-1.9-3.3c-1.5-0.4-2.7,0.5-3.3,1.9c-1.1,2.6-1.2,5.2-0.9,7.9    c0.1,1,1.3,1.8,2.2,1.9c1.1,0.1,2.1-0.4,2.7-1.3C122.9,221.1,123.3,218.6,122.7,216.2z" class="undefined file-3-element-160"/>
		<path class="st1 file-3-element-161" d="M114.2,205.2c0,0,7.8-4,13.6,0"/>
	</g>
	<path class="st1 file-3-element-162" d="M134.6,243.9c2.5,0.5,5.7,0.7,8.8-0.5"/>
	<g>
		<path d="M157,216.2c0-0.1,0-0.1,0.1-0.1c0.6-1.3-0.6-2.9-1.9-3.3c-1.5-0.4-2.7,0.5-3.3,1.9c-1.1,2.6-1.2,5.2-0.9,7.9    c0.1,1,1.3,1.8,2.2,1.9c1.1,0.1,2.1-0.4,2.7-1.3C157.3,221.1,157.6,218.6,157,216.2z" class="undefined file-3-element-163"/>
		<path class="st1 file-3-element-164" d="M148.5,205.2c0,0,7.8-4,13.6,0"/>
	</g>
	<path class="st1 file-3-element-165" d="M155.9,262.9c2.5-6.4,3.3-15-0.6-20.4c-4-5.5-11.8-7.9-18.3-8.6c-2.9-0.4-7.8,2.6-10.1,4   c-6.9,4.1-10.3,9.9-9.4,18c0.5,4.2,1.6,9.9,4.6,13c1.1,1.2,2.4,2.1,4,2.6c0.6,0.2,6.5,0.5,6.3,0c1,3.1,3.7,6,10.6,0.1   c0.7-0.6,5.4,0,6.9-0.8c2.1-1.1,3.5-2.8,4.6-4.8C155,265,155.5,264,155.9,262.9z M128.1,247.7c4.4-2.4,6.9-5.7,9.2-9.8   c1.3,2.4,9,7.8,10.6,9C142.4,249.7,134,253.4,128.1,247.7z"/>
	<path class="st2 file-3-element-166" d="M186.4,202.6c-0.7-3.4-1.9-6.6-2.6-10c-0.6-2.5-0.2-5.5-1.4-7.8c-0.4-0.8-3.7-3.1-3.6-3.6   c0.4-2.9-1.3-5.8-3.7-7.3s-5.3-1.9-8-1.7c-0.1,0-0.1,0-0.2,0c-2.1-2.8-5.5-4.4-8.9-4.8c-1.1-0.2-2.3-0.2-3.4-0.2   c-0.7-0.5-1.4-0.9-2.2-1.2c-4-1.6-8.3,0.1-12.6,1.1c-4.3-1-8.6-2.6-12.6-1.1c-4.4,1.8-9.2,1.4-13.1,4.8c-0.6,0.5-1.1,1.1-1.8,1.3   c-0.5,0.2-1.1,0.1-1.7,0.1c-4.2,0-8.7,2.5-9.6,6.5c-0.2,0.8-0.2,1.6-0.5,2.3c-0.3,0.6-0.9,1.1-1.4,1.6c-2.3,2.3-2.5,5.2-2.8,8.2   c-0.3,3.2-2.6,5.6-3.7,8.5c-1.1,2.7-1.3,5.5-1.4,8.3c-0.1,5.5,0.1,11.9,4.1,16.3c0.8,0.9,1.9,1.9,1.9,1.9l4.5,5.4   c-0.8-2.5,2.2-35,6.6-37.1c0.6-0.3,1.1-0.5,1.7-0.7c0.6-0.1,1.2-0.3,1.8-0.4c2.9-0.4,5.5,0.3,8.7,1.1c4.4,1.1,4.6-2.2,8.6-2.1   c4,0,3,3.9,8.3,1.8c1.6-0.6,3.1-1.3,4.7-1.7c0.8-0.2,1.6-0.4,2.4-0.4c0.9,0,1.7,0.2,2.5,0.6c1.1,0.4,2.1,0.9,3.1,1.5   c1.3,0.7,2.6,0.8,4,0.4c4.4-1.1,7.5-0.7,11.9,1.4c4.4,2.1,12.2,25.6,10.3,31.6c0,0,3.3,0.4,5-0.3c2.1-0.9,3.6-2.3,4.7-4   C189.1,217.2,187.5,208.1,186.4,202.6z"/>
	<path class="st1 file-3-element-167" d="M136.6,210c0.9,4,0.5,8.3-1.2,12.1c-0.7,1.6-1.6,3.1-1.4,4.8c0.2,1.5,1.3,2.8,2.8,3.2s3.1-0.1,4-1.3"/>
	<path class="st1 file-3-element-168" d="M175.1,213.7c0.3-0.7,2.6-6,5.8-3.1c3.4,3.1-0.4,11.8-3.6,13.1"/>
	<path class="st1 file-3-element-169" d="M102.1,213.4c-0.3-0.7-3.1-5.9-6.1-2.7c-3.2,3.5,1.3,12.2,4.7,13.2"/>
	<g>
		<g>
			<g>
				<path class="st1 file-3-element-170" d="M102.7,303.1c-1.2,2.9-1.4,6.3-1,9.4c0.1,0.4,0.2,0.8,0.3,1.2"/>
				<path class="st1 file-3-element-171" d="M123.8,310.2c0-1.8-0.3-3.7-1.1-5.4c-1.4-3-4-5.6-7.2-6.7c-1.2-0.4-2.4-0.5-3.5-0.4c-0.5-1-1.7-1.6-2.8-1.2
					 c-1.1,0.4-2,0.9-2.8,1.6"/>
				<path d="M106.2,310.5c-1,0-1,1.6,0,1.6S107.2,310.5,106.2,310.5z" class="undefined file-3-element-172"/>
				<path d="M110.3,310c-1,0-1,1.6,0,1.6S111.3,310,110.3,310z" class="undefined file-3-element-173"/>
				<path class="st1 file-3-element-174" d="M98.7,300c-1.8-2.6-2.2-6-1.8-9.2c2.2,1.9,4.8,3.2,6.9,5.2c1.4,1.3,4.9,5.7,2.4,7.3
					 C103.9,304.8,99.9,301.8,98.7,300z"/>
			</g>
			<g>
				<path class="st1 file-3-element-175" d="M170.5,298.4c-2.3-1.1-5-1.8-7.6-1.7c-0.8-0.7-1.9-1-3-0.7c-2.4,0.7-4.4,2.2-5.7,4.2"/>
				<path class="st1 file-3-element-176" d="M177.5,310.2c0.6-1.9,0.6-4-0.3-5.9c-0.2-0.5-0.5-0.9-0.8-1.3"/>
				<path d="M166.8,311c-1,0-1,1.6,0,1.6C167.8,312.5,167.8,311,166.8,311z" class="undefined file-3-element-177"/>
				<path d="M163.7,309.8c-1,0-1,1.6,0,1.6S164.7,309.8,163.7,309.8z" class="undefined file-3-element-178"/>
				<path d="M168.2,306.5c-1,0-1,1.6,0,1.6S169.2,306.5,168.2,306.5z" class="undefined file-3-element-179"/>
				<path class="st1 file-3-element-180" d="M170.9,298.6c3.1-0.9,6.4-0.1,9.2,1.4c-2.5,1.4-4.6,3.4-7.2,4.8c-1.7,0.9-7,2.7-7.6-0.2
					 C164.7,301.9,168.9,299.1,170.9,298.6z"/>
			</g>
			<g>
				<path class="st1 file-3-element-181" d="M156.1,305.8c-0.6-4.3-3.1-8.4-5.8-11.6c-1.1-1.3-2.5-2.4-4.2-2.7c-1.5-0.3-3,0-4.4,0.5
					 c-0.8,0.3-1.5,0.6-2.3,1c-2.9,0.5-5.8,1.9-8.1,3.6c-2.4,1.8-4.5,4-5.3,6.9c-0.7,2.4,0,4.7,1.2,6.7"/>
				<path d="M137.1,298.7c-0.6-0.8-1.9,0-1.3,0.9C136.4,300.4,137.7,299.6,137.1,298.7z" class="undefined file-3-element-182"/>
				<path d="M134.4,301.2c-0.6-0.8-1.9,0-1.3,0.9C133.6,303,134.9,302.1,134.4,301.2z" class="undefined file-3-element-183"/>
				<path d="M151.9,306.3c-0.6-0.8-1.9,0-1.3,0.9C151.1,308,152.4,307.1,151.9,306.3z" class="undefined file-3-element-184"/>
				<path class="st1 file-3-element-185" d="M146.8,298.6c1.5-2.8,4.4-4.7,7.4-5.7c-0.7,2.8-0.7,5.7-1.5,8.5c-0.5,1.9-2.9,6.9-5.4,5.4
					 C145,305.4,145.8,300.5,146.8,298.6z"/>
				<path class="st1 file-3-element-186" d="M139.1,310.6c-0.1,0-0.2,0-0.3,0c-3.2,0.2-6.3-1.2-8.8-3.3c2.7-0.9,5.2-2.4,8-3.2c1.4-0.4,5.1-0.9,6.7,0.3"/>
			</g>
			<g>
				<path class="st1 file-3-element-187" d="M183.4,320.2c-0.6-2.8-2-5.3-3.9-7.5c-2.8-3.1-6.7-5-10.7-5.1"/>
				<path d="M175,313.7c-1,0-1,1.6,0,1.6C176,315.3,176,313.7,175,313.7z" class="undefined file-3-element-188"/>
				<path d="M174,317.4c-1,0-1,1.6,0,1.6S175,317.4,174,317.4z" class="undefined file-3-element-189"/>
				<path d="M177.2,317.4c-1,0-1,1.6,0,1.6S178.2,317.4,177.2,317.4z" class="undefined file-3-element-190"/>
				<path class="st1 file-3-element-191" d="M162.1,303.3c1.8,2.3,4,4.3,5.6,6.7c1.2,1.7,3.7,7.2,0.6,8.2c-1.7,0.6-3.7-0.8-5.1-2.4"/>
			</g>
		</g>
	</g>
	<g>
		<path class="st3 file-3-element-192" d="M157.5,320.7c2.4-1.1,9.4-8.5,8.6-9.3c-0.9-0.8-9.4,6.1-9.4,6.1L157.5,320.7z"/>
		<path class="st3 file-3-element-193" d="M156,318c2.4-1.1,13.2-11,12.4-11.8s-13.2,8.6-13.2,8.6L156,318z"/>
		<path class="st3 file-3-element-194" d="M155.5,314.8c2.4-1.1,11.1-9.4,10.2-10.1c-0.9-0.8-11.1,7-11.1,7L155.5,314.8z"/>
		<path class="st3 file-3-element-195" d="M154.6,311.7c1.9-0.9,8.6-7.8,7.9-8.5c-0.7-0.7-8.4,5.2-8.4,5.2L154.6,311.7z"/>
		<path class="st1 file-3-element-196" d="M157.5,320.7c2.5-1.2,9.4-8.2,8.6-9c-0.8-0.8-8.9,5.4-9.5,5.8"/>
		<path class="st1 file-3-element-197" d="M157.1,317.3c3-1.8,12.1-10.3,11.3-11c-0.8-0.7-11.7,7.4-13.1,8.5"/>
		<path class="st1 file-3-element-198" d="M155.5,314.8c2.4-1.1,11.1-9.4,10.2-10.1c-0.9-0.8-11.1,7-11.1,7s-1.5,0.5-1.5,0.6"/>
		<path class="st1 file-3-element-199" d="M153.9,311.9c1.9-0.9,9.4-8.1,8.7-8.8c-0.7-0.7-10.2,5.6-10.2,5.6"/>
		<path class="st1 file-3-element-200" d="M137,313.1c0.4-0.5,1-1,1.6-1.5c2.6-2,4.4-6.5,5.3-6.2c0.9,0.3,1.6,3.1,1,4c-0.1,0.2-0.4,1-0.9,2"/>
		<g>
			<path class="st3 file-3-element-201" d="M158.4,320c-3.8,4.2-15.2,9.8-18.6,8c-0.9-0.5-4.3-4.2-5-5.5c-1.7-2.8-0.1-4.9,2.5-6.3
					c6.6-3.6,15.1-7.5,15.1-7.5L158.4,320z"/>
			<path class="st1 file-3-element-202" d="M159.2,319.4c-0.8,0.9-2.1,2-3.6,3"/>
			<path class="st1 file-3-element-203" d="M139.4,315.1c6.2-3.2,13-6.4,13-6.4"/>
		</g>
	</g>
	<g>
		<path class="st1 file-3-element-204" d="M142.9,326.6c-1.8-6.4-5.3-14.6-11.6-16.3c-0.6-0.2-57.5,3-58.2,27.3c-0.3,11.7,30.1,5.9,35.6,4.9    c0.8-0.1,6.2-1.4,8-1.8"/>
	</g>
	<g>
		<g>
			<path class="st3 file-3-element-205" d="M124.6,342c-2.6,0-12.1-3.7-11.7-4.8c0.4-1.1,11.1,1.5,11.1,1.5L124.6,342z"/>
			<path class="st3 file-3-element-206" d="M124.8,338.9c-2.6,0-16.6-4.3-16.2-5.4c0.4-1.1,15.6,2.1,15.6,2.1L124.8,338.9z"/>
			<path class="st3 file-3-element-207" d="M123.9,335.8c-2.6,0-14-3.8-13.6-4.8s13,1.6,13,1.6L123.9,335.8z"/>
			<path class="st3 file-3-element-208" d="M123.3,332.6c-2.1,0-11.1-3.4-10.8-4.3c0.3-0.9,9.8,1.2,9.8,1.2L123.3,332.6z"/>
			<path class="st1 file-3-element-209" d="M123.6,341.9c-3.5-0.5-11.1-3.4-10.7-4.4c0.4-1,10.3,1.1,11.1,1.2"/>
			<path class="st1 file-3-element-210" d="M123.5,338.7c-3.5-0.4-15.3-4.1-14.9-5.2c0.4-1,13.7,1.8,15.4,2.1"/>
			<path class="st1 file-3-element-211" d="M123.9,335.8c-2.6,0-14-3.8-13.6-4.8s13,1.6,13,1.6s1.6-0.1,1.6-0.1"/>
			<path class="st1 file-3-element-212" d="M124.2,332.5c-2.1,0-11.9-3.4-11.6-4.3c0.3-0.9,11.6,0.7,11.6,0.7"/>
		</g>
		<g>
			<path class="st3 file-3-element-213" d="M123.4,341.7c5.2,2.2,17.9,2.5,20.3-0.6c0.6-0.8,2.1-5.6,2.2-7.1c0.3-3.3-2-4.5-4.9-4.7
					c-7.5-0.4-16.9-0.4-16.9-0.4L123.4,341.7z"/>
			<path class="st1 file-3-element-214" d="M122.5,341.6c4,1.7,13,2.3,18,1.1"/>
			<path class="st1 file-3-element-215" d="M141,329.4c-7.5-0.4-16.9-0.4-16.9-0.4"/>
		</g>
	</g>
	<path class="st1 file-3-element-216" d="M143.2,328.9c-1-1.2-2.7-2.6-5.4-3.1c-3.2-0.7-6.8-4-7.5-3.4c-0.7,0.6-0.2,3.5,0.8,4.1   c0.4,0.2,1.6,1.5,3.3,2.8"/>
	<g>
		<path class="st3 file-3-element-217" d="M141.8,330.4c-0.3,0-0.6-0.1-0.9-0.1c-7.5-0.4-16.9-0.4-16.9-0.4l-0.7,12.8c4.2,1.8,13.2,2.3,17.8,0.8"/>
	</g>
	<path class="st1 file-3-element-218" d="M206.1,329.5c2,11.5-21.1,18-26.6,18.7c-5.5,0.7-34.1,12.6-34.1,12.6s-12-26.9,2.9-36.5   C148.8,324,203.3,313.3,206.1,329.5z"/>
	<g>
		<path class="st1 file-3-element-219" d="M574.6,319.9c3.8,0.3,6.1,0.6,6.1,0.9c0,0.8-15.5,3.8-34.6,3.8s-34.6-3-34.6-3.8c0-0.8,15.5-1.8,34.6-1.8    c7.7,0,14.7,0.2,20.5,0.4"/>
		<g>
			<path class="st1 file-3-element-220" d="M608.4,308c-0.6-0.5-1.2-1-1.7-1.4"/>
			<g>
				<path class="st1 file-3-element-221" d="M580.5,307.3c0.8,1,10.5,6.2,11.8,6.7c3.6,1.6,6.5,2.4,10,3.6"/>
			</g>
		</g>
		<path class="st1 file-3-element-222" d="M658.1,315.6c-1.9,3.1-3.5,5.9-5,8.3c-12.2-8.7-31.8-17.1-40.2-21.9c-5.7,7.3-11.8,15.2-14.5,24.1    s-0.5,18.1-0.5,18.1s41.1,2.4,56.6,3.4"/>
		<path class="st1 file-3-element-223" d="M572.1,323.3c0.3-0.5,0.7-1,1-1.6c2.9-5,5.9-9.9,8.9-14.9"/>
		<path class="st1 file-3-element-224" d="M592.2,290.2c3.7-6,7.5-12,11.2-18c1.5-2.3,3-4.7,4.4-7c0-0.1,0-0.2,0-0.3c0-0.5,0-0.9,0-1.4    c0-0.2,0-0.5,0-0.7c0,0,0,0,0-0.1c0-0.1-0.1-0.3-0.1-0.5c0,0,0-0.1,0-0.1c0,0,0,0,0-0.1c0,0,0,0,0,0s0,0,0-0.1c0,0-0.1,0-0.1-0.1    c0,0-0.1,0-0.1,0c-0.2,0-0.4,0-0.4,0c-0.1,0-0.2,0-0.3,0c-0.2,0-0.3,0.1-0.5,0.1c-0.3,0.1-0.6,0.2-0.9,0.3c-0.1,0-0.1,0-0.2,0.1    c-0.4,0.2-0.8,0.4-1.2,0.6c-5.3,8.7-10.8,17.4-16.4,26"/>
		<path class="st1 file-3-element-225" d="M576.9,304.9c-3.3,4.9-6.6,9.7-10,14.5c-0.4,0.5-0.8,1-1.2,1.5c-0.7,0.9-1.4,1.9-2.1,2.8"/>
		<g>
			<g>
				<path class="st1 file-3-element-226" d="M578.9,306.1c1.2,1,2.6,1.8,4.2,1.9c0.6,0,1.3-0.1,1.5-0.7c0.1-0.4-0.1-0.7-0.3-1c-1.6-2.2-4.6-4.5-7.1-5.6
					 c-1.2-0.5-2.1,0.2-1.6,1.5C576.1,303.6,577.7,305.2,578.9,306.1z"/>
			</g>
			<g>
				<path class="st1 file-3-element-227" d="M585.5,303.9c0.4-0.6,0.4-1.4,0-2c-0.2-0.3-0.4-0.5-0.6-0.7c-0.1,0-0.1-0.1-0.2-0.1
					 c-0.7-0.4-6.4-4.8-7.4-5.1c-0.3-0.1-0.6-0.1-0.8,0c-0.6,0.2-0.7,1.1-0.5,1.7c0.8,3,3.1,5.5,6.1,6.6c0.6,0.2,1.2,0.4,1.8,0.4
					 C584.5,304.6,585.2,304.4,585.5,303.9z"/>
			</g>
			<g>
				<path class="st1 file-3-element-228" d="M584.5,301.2c0.3,0.2,0.6,0.5,0.8,0.7c0.5,0.3,1.2,0.6,1.8,0.4c0.5-0.2,0.8-0.8,0.8-1.4
					 c0-0.6-0.2-1.1-0.5-1.6c-1.1-2.2-2.8-4.2-4.8-5.6c-0.7-0.5-1.8-1.4-2.7-1.7c-1.2-0.4-2.1,0.6-1.8,1.9c0.3,1.3,2.4,4.1,2.4,4.1
					 c1,0.7,1.8,1.6,2.7,2.4C583.8,300.6,584.2,300.9,584.5,301.2z"/>
			</g>
			<path class="st1 file-3-element-229" d="M606.7,306.5c0,0-4-10.6-9.1-12.6c-3.2-1.2-6.2-5.2-7-4.8c-0.8,0.5-0.8,3.5,0.1,4.3c0.5,0.4,2.7,3.7,5.5,5.8
					c0,0,0,5.7,4.4,8.2"/>
			<g>
				<path class="st1 file-3-element-230" d="M588.1,297.1c0.3,0.2,0.6,0.5,0.8,0.7c0.5,0.3,1.2,0.6,1.8,0.4c0.5-0.2,0.8-0.8,0.8-1.4s-0.2-1.1-0.5-1.6
					 c-1.1-2.2-2.8-4.2-4.8-5.6c-0.7-0.5-1.8-1.4-2.7-1.7c-1.2-0.4-2.1,0.6-1.8,1.9c0.3,1.3,2.4,4.1,2.4,4.1c1,0.7,1.8,1.6,2.7,2.4
					 C587.3,296.5,587.7,296.8,588.1,297.1z"/>
			</g>
		</g>
		<path class="st1 file-3-element-231" d="M578.1,328.5l2.5-6.8c-1.4,1-16.3,3.2-34.5,3.2s-33.1-2.2-34.5-3.2l2.5,6.8c0,0-15.1,8-13.4,23.2    c1.6,13.9,4.1,43.8,25.2,46.7c5.1,0.7,12.6,1.1,20.2,1.1c7.6,0,15.1-0.4,20.2-1.1c21.1-3,23.6-32.8,25.2-46.7    C593.2,336.5,578.1,328.5,578.1,328.5z"/>
	</g>
	<g>
		<path class="st1 file-3-element-232" d="M704,245.2c4.5-1,18.5-2.5,28.9,14.2"/>
		<path class="st1 file-3-element-233" d="M701.6,229c0,0,1.8,19,2.3,22.4"/>
		<g>
			<path class="st1 file-3-element-234" d="M664.9,509.7c0,0,3.3,7.2-0.6,7.5c-3.9,0.3-10.4,0.3-11.6,0.5c-1.2,0.3-16.5,8.8-23.7,8.8
					c-7.1,0-8.6-4.3-4.7-7"/>
			<path class="st1 file-3-element-235" d="M650.5,501.4c-2,2.7-5,4.6-7.9,6.4c-4.9,3-9.7,6-14.6,9.1c-1.7,1-3.6,2.9-2.7,4.7c0.6,1.2,2.2,1.4,3.5,1.3
					c6.6-0.4,12.3-4.3,18.5-6.6c3.9-1.5,8.1-2.3,12.2-2.5c1.8-0.1,3.8-0.2,4.8-1.7c0.4-0.7,0.7-1.6,0.6-2.4c-0.2-1.3-0.4-2.5-0.6-3.8
					"/>
			<path class="st1 file-3-element-236" d="M650,501.5c-1.9,2.7-5,5.8-9.6,7.4l0.2,0.1l-4.9,3c0,0,6.6,2.6,3.5,7.7l8.1-3.6c0,0-0.3-3.1-1.4-5.5
					c1.5-1.3,5.2-4.8,7.5-8.6"/>
		</g>
		<g>
			<path class="st1 file-3-element-237" d="M711.9,516.5c0.3,0.8,3.1,7.2-0.6,7.4c-3.9,0.3-10.4,0.3-11.6,0.5c-1.2,0.3-16.5,8.8-23.7,8.8
					c-6.4,0-8.2-3.5-5.7-6.1"/>
			<path class="st1 file-3-element-238" d="M699.1,504.9c-0.2,0.5-0.4,1-0.6,1.5c-1.8,3.7-5.5,6-9,8.2c-4.9,3-9.7,6-14.6,9.1c-1.7,1-3.6,2.9-2.7,4.7
					c0.6,1.2,2.2,1.4,3.5,1.3c6.6-0.4,12.3-4.3,18.5-6.6c3.9-1.5,8.1-2.3,12.2-2.5c1.8-0.1,3.8-0.2,4.8-1.7c0.4-0.7,0.7-1.6,0.6-2.4
					c-0.7-4-1.1-7.8-1.1-11.5"/>
			<path class="st1 file-3-element-239" d="M699.2,504.2c-0.9,2.1-4.4,8.8-12,11.4l0.2,0.1l-4.9,3c0,0,6.6,2.6,3.5,7.7l8.1-3.6c0,0-0.3-3.1-1.4-5.5
					c1.7-1.5,6.6-6,8.5-10.5h9.4c0,0,0-1,0-2"/>
		</g>
		<path class="st1 file-3-element-240" d="M716.2,283.3c1.1,24.2-3.8,60.1-3.8,60.1v7.9c0,0-0.7,1.2,3.7,9.2c10.6,19.1,20.9,144.1,15.7,144.9    s-32.9-1.3-43.4-1.3c-10.5,0-17.1-3.1-20.1,0c-3,3.1-26.1-5.1-26.1-5.1s2.1-42.9,6.2-91.8"/>
		<path class="st1 file-3-element-241" d="M653.4,355.5c3.3-30.4,7.4-58.1,12.2-74.4"/>
		<path class="st1 file-3-element-242" d="M676.1,499.7c0,0,2.8-65.4,5.3-123.6"/>
		<path class="st1 file-3-element-243" d="M693.6,262.2c0.7-0.1,1.4-0.1,2.1-0.2c16.1-0.8,21.9,25.8,21.9,25.8s12.9-0.7,15.5-27.6    c0.1-1.5-20.5-12.1-35.7-7.3"/>
		<path class="st1 file-3-element-244" d="M706,212.8c-0.7,5-1.8,10.2-3.5,15"/>
		<path class="st1 file-3-element-245" d="M647.3,249.5l-4.8-13.7c0,0-11,4.9-7.6-3.9l7.4-17.1c0,0-4.2-19.1,6.2-32.1"/>
		<g>
			<path d="M656.1,208c0-0.1,0-0.1,0-0.2c0.1-1.5-1.6-2.7-3-2.6c-1.7,0.1-2.5,1.5-2.6,3c-0.2,2.9,0.6,5.6,1.9,8.1
					c0.5,0.9,1.9,1.3,2.9,1.1c1.1-0.2,1.9-1.1,2.2-2.2C658.1,212.7,657.5,210.1,656.1,208z" class="undefined file-3-element-246"/>
		</g>
		<path class="st1 file-3-element-247" d="M695.2,206c2.5-0.9,5.5-1.8,8-2.7"/>
		<path class="st1 file-3-element-248" d="M709.3,194.7c-0.4-14.4-10-21-10-21c-7.4-14.2-18.3-10.4-18.3-10.4c-13.3-6-23.6,2.6-23.6,2.6    c-0.4,0.3-5.5-4.7-10.7-1.3c-3.5,2.3-6.7,8.8-6.6,13c0.4,13.7,16.7-0.5,21.4-2.1c0.5-0.2,0.9-0.3,1.4-0.5    c11.5-3.5,22.4-0.6,26.2,11.9c0.3,1.1,0.8,6.4,1,11.5"/>
		<path class="st1 file-3-element-249" d="M702.5,201c0.5-0.8,4.3-6.6,7.6-2.6c3.5,4.3-2.8,14-6.9,14.9"/>
		<path class="st1 file-3-element-250" d="M690.9,196.8c0,0-3,11.1-3,11.1c-1.7,21.2-13.9,25.3-21.5,29.6"/>
		<path class="st1 file-3-element-251" d="M659.6,244.1c-9.2,12.6-12.5,4.1-12.5,4.1s-10.8,15.7-9.6,21.2c0.7,3.1,6.5,4.6,6.3,3.4c0.5,3.2,2.9,6,6,7    c2.5,0.9,5.4,0.6,7.8-0.7c5.2,3.6,15.8,1.5,19.2-3.9c2.7,0.2,5.4-0.6,7.4-2.4c2.5-2.2,3.6-5.7,2.8-8.8c1.9,0.3,4-0.6,5.1-2.2    c1.1-1.6,1.2-3.7,0.1-5.3c2.8-0.6,5-3,5.5-5.7c0.4-2.7-1-5.6-3.5-6.9c3-1.4,5.1-4.2,5.6-7.4c0.4-3.1-0.9-6.4-3.4-8.4    c3.4-3.4,1.7-6.9-0.1-10.3c0,0-1-1.4-1.2-2.9c-0.5-2.6,0.2-8.1,0-10.9"/>
		<path class="st1 file-3-element-252" d="M647.2,245.8c0,0,3.9-0.3,7.1-2.6"/>
		<path class="st1 file-3-element-253" d="M642.9,235.3c0,0,12.8-7.7,24,4.6C666.9,239.9,662.7,252.3,642.9,235.3z"/>
	</g>
	<g>
		<path class="st1 file-3-element-254" d="M618.6,377.9c0.5-0.3,1.4-0.7,2.5-1.3"/>
		<g>
			<path class="st1 file-3-element-255" d="M601.7,392.2c-1.6,2.4-5,14.4-3.8,14.6c1.2,0.2,6-11.4,6.3-12.2"/>
			<path class="st1 file-3-element-256" d="M604.3,394.2c-1.8,3.2-5.8,16.6-4.6,16.8c1.1,0.2,6.6-13,7.3-14.6"/>
			<path class="st1 file-3-element-257" d="M606.7,396.5c-1.6,2.3-5,14.4-3.8,14.6c1.2,0.3,6.3-12.2,6.3-12.2s0,0-0.1-0.1"/>
			<path class="st1 file-3-element-258" d="M609.2,398.8c-1.2,1.8-3.6,11.7-2.6,12c1,0.2,4.8-9.2,4.8-9.2"/>
		</g>
		<path class="st1 file-3-element-259" d="M617.8,378.2c-0.5-0.1-4.6-1.3-8.7,2c-2.7,2.2-7.8,2.9-7.7,3.8c0,1,2.7,2.5,3.9,2c0,0,0,0,0,0"/>
		<g>
			<path class="st1 file-3-element-260" d="M601.1,392.9c2.5-5.4,12.8-15.4,16.7-14.7c0,0,0,0,0,0"/>
			<path class="st1 file-3-element-261" d="M625.3,387.7c-0.3,0.5-0.7,1-1.2,1.5c-5.5,5.7-12.8,12.3-12.8,12.3"/>
		</g>
	</g>
	<path class="st1 file-3-element-262" d="M694.9,275.5c-14.4-2.9-17.5,49.9-19,72.4l-1.2-1.1c-12.2,5.3-42.7,18.1-54.9,23.4c2.4,9.1,5.2,18.9,10.6,26.5   c5.5,7.6,24,12.2,24,12.2l35.8-42.7c4.8-3.7,7.2-11.1,7.2-11.1S719.9,280.5,694.9,275.5z"/>
	<path class="st1 file-3-element-263" d="M646.5,200.2c4.9-3.5,11.7-4.1,17.2-1.5"/>
	<g>
		<rect x="50.8" y="392" class="st1 file-3-element-264" width="22.7" height="130.2"/>
		<rect x="280.3" y="392" class="st1 file-3-element-265" width="22.7" height="130.2"/>
		<rect x="50.8" y="371" class="st1 file-3-element-266" width="252.2" height="21"/>
	</g>
	<g>
		<g>
			<path class="st1 file-3-element-267" d="M260.9,334.4c-1.3-1.3-2.8-2.3-4.5-2.9c-1.2-0.4-2.4-0.5-3.5-0.4c-0.5-1-1.7-1.6-2.8-1.2
					c-0.8,0.3-1.6,0.7-2.3,1.2"/>
			<path d="M247,343.9c-1,0-1,1.6,0,1.6C248,345.4,248,343.9,247,343.9z" class="undefined file-3-element-268"/>
			<path d="M249,346.9c-1,0-1,1.6,0,1.6C250,348.5,250,346.9,249,346.9z" class="undefined file-3-element-269"/>
			<path d="M251.1,343.5c-1,0-1,1.6,0,1.6S252.1,343.5,251.1,343.5z" class="undefined file-3-element-270"/>
			<path class="st1 file-3-element-271" d="M239.5,333.5c-1.9-2.6-2.2-6-1.8-9.2c2.2,1.9,4.8,3.2,6.9,5.2c1.4,1.3,4.9,5.7,2.4,7.3
					C244.7,338.2,240.7,335.2,239.5,333.5z"/>
		</g>
		<g>
			<path class="st1 file-3-element-272" d="M246,349.2c0.1-3.1-0.8-6.2-2.3-9"/>
			<path class="st1 file-3-element-273" d="M239.8,334.7c-1.1-1.2-2.4-2.2-4-2.5c-1.5-0.3-3,0-4.4,0.5c-0.8,0.3-1.5,0.6-2.3,1c-0.4,0.1-0.8,0.1-1.1,0.2
					"/>
			<path d="M226.8,339.5c-0.6-0.8-1.9,0-1.3,0.9C226.1,341.2,227.4,340.4,226.8,339.5z" class="undefined file-3-element-274"/>
			<path d="M224.1,342.1c-0.6-0.8-1.9,0-1.3,0.9C223.4,343.8,224.7,342.9,224.1,342.1z" class="undefined file-3-element-275"/>
			<path d="M238.8,350c-0.6-0.8-1.9,0-1.3,0.9C238.1,351.6,239.4,350.8,238.8,350z" class="undefined file-3-element-276"/>
			<path class="st1 file-3-element-277" d="M243,339.4c-0.1,1-0.3,1.9-0.6,2.9c-0.5,1.9-2.9,6.9-5.4,5.4c-2.3-1.4-1.5-6.3-0.5-8.2
					c1.5-2.8,4.4-4.7,7.4-5.7L243,339.4z"/>
		</g>
		<g>
			<path class="st1 file-3-element-278" d="M210.3,334.2c-4.6,3.7-5.9,10.8-2.1,15.6c0,0.1,0.1,0.1,0.1,0.2 M232.5,350.2c0.8-1.4,1.1-3.1,0.9-4.8
					c-0.3-3.3-1.9-6.2-4.1-8.7c-3.2-3.6-8.1-5.6-12.8-5"/>
			<path d="M224.9,337.7c-1,0-1,1.6,0,1.6S225.9,337.7,224.9,337.7z" class="undefined file-3-element-279"/>
			<path d="M223.8,341.4c-1,0-1,1.6,0,1.6S224.8,341.4,223.8,341.4z" class="undefined file-3-element-280"/>
			<path d="M227.1,341.4c-1,0-1,1.6,0,1.6S228.1,341.4,227.1,341.4z" class="undefined file-3-element-281"/>
			<path class="st1 file-3-element-282" d="M211.1,336.8c-1.3-3.2-0.8-6.9,0.5-10c1.8,2.5,4.2,4.6,6,7.2c1.2,1.7,3.7,7.2,0.6,8.2
					C215.4,343.1,212,338.9,211.1,336.8z"/>
		</g>
		<g>
			<path class="st1 file-3-element-283" d="M283.1,350c1.1-1.6,1.5-3.5,1.3-5.5c-0.3-3.3-1.9-6.2-4.1-8.7c-3.4-3.8-8.4-5.7-13.3-4.9 M261.2,333.5
					c-4.5,3.7-5.7,10.7-2,15.5c0,0.1,0.1,0.2,0.1,0.3"/>
			<path d="M275.9,336.9c-1,0-1,1.6,0,1.6C276.9,338.4,276.9,336.9,275.9,336.9z" class="undefined file-3-element-284"/>
			<path d="M274.8,340.5c-1,0-1,1.6,0,1.6C275.9,342.1,275.9,340.5,274.8,340.5z" class="undefined file-3-element-285"/>
			<path d="M278.1,340.5c-1,0-1,1.6,0,1.6S279.1,340.5,278.1,340.5z" class="undefined file-3-element-286"/>
			<path class="st1 file-3-element-287" d="M262.1,336c-1.3-3.2-0.8-6.9,0.5-10c1.8,2.5,4.2,4.6,6,7.2c1.2,1.7,3.7,7.2,0.6,8.2
					C266.5,342.2,263,338.1,262.1,336z"/>
		</g>
		<g>
			<path class="st1 file-3-element-288" d="M266.5,364.7c1.1-0.4,2.2-0.8,3.3-1.2c6.6-2.7,15.4-7.3,19.6-13.3c-3,0-23.3,0.4-43.3,0.6
					c-20-0.2-40.2-0.6-43.3-0.6c4.2,6,12.9,10.6,19.6,13.3c1.7,0.7,3.5,1.3,5.2,1.8"/>
			<rect x="223.9" y="365.3" class="st1 file-3-element-289" width="44.3" height="4.7"/>
		</g>
	</g>
</g>
</svg>
