<?xml version="1.0" encoding="UTF-8"?>
<!-- Generator: Adobe Illustrator 25.2.3, SVG Export Plug-In . SVG Version: 6.00 Build 0)  -->
<svg xmlns="http://www.w3.org/2000/svg" xmlns:xlink="http://www.w3.org/1999/xlink" version="1.1" id="Layer_1" x="0px" y="0px" viewBox="0 0 792 611" style="enable-background:new 0 0 792 611;" xml:space="preserve">
<style type="text/css">
	.st0{fill:#FFFFFF;}
	.st1{fill:none;stroke:#000000;stroke-width:2.5;stroke-miterlimit:10;}
	.st2{fill:none;}
	.st3{fill:none;stroke:#000000;stroke-width:2.5;stroke-linecap:round;stroke-linejoin:round;stroke-miterlimit:10;}
	.st4{fill:#231F20;}
</style>
<g id="White">
	<rect x="-24.5" y="-29" class="st0 file-6-element-1" width="844.7" height="542.9"/>
	<g>
		<g>
			<path class="st0 file-6-element-2" d="M571.3,276l-20.9-108.4l-54.1,30.3l20.1,99.8c2,6.3,10.9,4.2,10.9,4.2l-1.5-7.9L571.3,276z"/>
			<polygon class="st0 file-6-element-3" points="555.2,171.7 572.4,179.3 510.4,199.8 499.4,196.2    "/>
			<polygon class="st0 file-6-element-4" points="507.6,200.8 578.5,178 593.3,276.4 527.3,301.8    "/>
		</g>
	</g>
	<path class="st0 file-6-element-5" d="M305.8,298.2c3.6-13.5,7.7-26.8,10.5-40.5c4.2-20.3,5.7-41.9-1.1-61.6c-3.3-9.6-9.2-19.1-18.6-22.9   c-10.6-4.3-23.1-0.1-31.4,7.8c-8.3,7.8-14.5,28.2-14.5,28.2c-11.4-0.9-23.2-0.8-33.6,3.8c-10.4,4.6-19.1,14.6-19.3,26   c-0.1,10.1,6.4,19.2,13.9,26c15.5,13.8,36,21.8,56.4,25.8C280.3,293.1,305.8,298.2,305.8,298.2z"/>
	<g>
		<g>
			<polygon class="st0 file-6-element-6" points="826.6,559.8 767.2,559.8 767.2,500.5 707.8,500.5 707.8,559.8 648.4,559.8 648.4,500.5 589,500.5
					 589,559.8 529.6,559.8 529.6,500.5 470.1,500.5 470.1,559.8 410.8,559.8 410.8,500.5 351.3,500.5 351.3,559.8 292,559.8
					 292,500.5 232.5,500.5 232.5,559.8 173.1,559.8 173.1,500.5 113.7,500.5 113.7,559.8 54.3,559.8 54.3,500.5 -5.1,500.5
					 -5.1,559.8 -64.5,559.8 -64.5,619.2 -5.1,619.2 -5.1,560 54.3,560 54.3,619.2 113.8,619.2 113.8,560 173.1,560 173.1,619.2
					 232.6,619.2 232.6,560 292,560 292,619.2 351.4,619.2 351.4,560 410.8,560 410.8,619.2 470.2,619.2 470.2,560 529.6,560
					 529.6,619.2 589,619.2 589,560 648.4,560 648.4,619.2 707.8,619.2 707.8,560 767.2,560 767.2,619.2 826.6,619.2 826.6,560
					 886,560 886,500.5 826.6,500.5    "/>
			<polygon class="st0 file-6-element-7" points="826.6,381.4 826.6,440.7 767.2,440.7 767.2,381.4 707.8,381.4 707.8,440.7 648.4,440.7 648.4,381.4
					 589,381.4 589,440.7 529.6,440.7 529.6,381.4 470.1,381.4 470.1,440.7 410.8,440.7 410.8,381.4 351.3,381.4 351.3,440.7
					 292,440.7 292,381.4 232.5,381.4 232.5,440.7 173.1,440.7 173.1,381.4 113.7,381.4 113.7,440.7 54.3,440.7 54.3,381.4
					 -5.1,381.4 -5.1,440.7 -64.5,440.7 -64.5,500.1 -5.1,500.1 -5.1,440.8 54.3,440.8 54.3,500.1 113.8,500.1 113.8,440.8
					 173.1,440.8 173.1,500.1 232.6,500.1 232.6,440.8 292,440.8 292,500.1 351.4,500.1 351.4,440.8 410.8,440.8 410.8,500.1
					 470.2,500.1 470.2,440.8 529.6,440.8 529.6,500.1 589,500.1 589,440.8 648.4,440.8 648.4,500.1 707.8,500.1 707.8,440.8
					 767.2,440.8 767.2,500.1 826.6,500.1 826.6,440.8 886,440.8 886,381.4    "/>
		</g>
		<g>
			<polygon class="st0 file-6-element-8" points="826.6,500.5 767.2,500.5 767.2,559.8 707.8,559.8 707.8,500.5 648.4,500.5 648.4,559.8 589,559.8
					 589,500.5 529.6,500.5 529.6,559.8 470.2,559.8 470.2,500.5 410.8,500.5 410.8,559.8 351.4,559.8 351.4,500.5 292,500.5
					 292,559.8 232.6,559.8 232.6,500.5 173.1,500.5 173.1,559.8 113.8,559.8 113.8,500.5 54.3,500.5 54.3,559.8 -5.1,559.8
					 -5.1,500.5 -64.5,500.5 -64.5,560 -5.1,560 -5.1,619.2 54.3,619.2 54.3,560 113.7,560 113.7,619.2 173.1,619.2 173.1,560
					 232.5,560 232.5,619.2 292,619.2 292,560 351.3,560 351.3,619.2 410.8,619.2 410.8,560 470.1,560 470.1,619.2 529.6,619.2
					 529.6,560 589,560 589,619.2 648.4,619.2 648.4,560 707.8,560 707.8,619.2 767.2,619.2 767.2,560 826.6,560 826.6,619.2
					 886,619.2 886,559.8 826.6,559.8    "/>
			<polygon class="st0 file-6-element-9" points="826.6,440.7 826.6,381.4 767.2,381.4 767.2,440.7 707.8,440.7 707.8,381.4 648.4,381.4 648.4,440.7
					 589,440.7 589,381.4 529.6,381.4 529.6,440.7 470.2,440.7 470.2,381.4 410.8,381.4 410.8,440.7 351.4,440.7 351.4,381.4
					 292,381.4 292,440.7 232.6,440.7 232.6,381.4 173.1,381.4 173.1,440.7 113.8,440.7 113.8,381.4 54.3,381.4 54.3,440.7
					 -5.1,440.7 -5.1,381.4 -64.5,381.4 -64.5,440.8 -5.1,440.8 -5.1,500.1 54.3,500.1 54.3,440.8 113.7,440.8 113.7,500.1
					 173.1,500.1 173.1,440.8 232.5,440.8 232.5,500.1 292,500.1 292,440.8 351.3,440.8 351.3,500.1 410.8,500.1 410.8,440.8
					 470.1,440.8 470.1,500.1 529.6,500.1 529.6,440.8 589,440.8 589,500.1 648.4,500.1 648.4,440.8 707.8,440.8 707.8,500.1
					 767.2,500.1 767.2,440.8 826.6,440.8 826.6,500.1 886,500.1 886,440.7    "/>
		</g>
	</g>
	<g>
		<g>
			<path class="st0 file-6-element-10" d="M320.7,291c0,26.5-25.8,48-57.6,48s-57.6-21.5-57.6-48H320.7z"/>
			<path class="st0 file-6-element-11" d="M561.6,146.7c-8.5,0.8-17.1,0.7-25.4-1.4c-13.3-3.4-26-12.2-38.4-18.1c-15.2-7.3-30.8-16.8-48.1-17.5
					c-8-0.3-16.1,0.4-23.9,1.6c-1.8,0.3-18.3,2.5-18.3,4.9c-11.1-6.4-29.3-7-41.8-6.5c-17.7,0.7-34.5,10.1-49.9,17.5
					c-12.4,5.9-25.1,14.7-38.4,18.1c-8.3,2.1-16.9,2.2-25.4,1.4c-2.7-0.3-21.4-1.9-22-4c3.8,14.2,28.5,17.9,40.3,17.9
					c22.7,0,46-11.4,66.4-20c10.2-4.3,19.5-8.7,30.7-9.4c6.7-0.4,33.4-0.4,40.1-0.1c6.7-0.3,32.1-0.3,38.8,0.1
					c11.1,0.7,20.4,5.1,30.7,9.4c20.5,8.6,43.7,20,66.4,20c11.8,0,36.5-3.7,40.3-17.9C583,144.8,564.3,146.5,561.6,146.7z"/>
			<path class="st0 file-6-element-12" d="M492.8,291c0,26.5,25.8,48,57.7,48s57.7-21.5,57.7-48H492.8z"/>
		</g>
	</g>
	<path class="st0 file-6-element-13" d="M428.5,424.8c16.3-4.4,27-12.1,27-12.1l-39.2-43.8c11-7.5,0-15.6,0-15.6c21.9-9.8,3.6-58.3,3.6-58.3   c7.9-11.1-3.6-13.6-3.6-13.6c14.4-17.7-0.4-147.6-0.4-147.6H399c0,0-14.9,129.9-0.4,147.6c0,0-11.5,2.5-3.6,13.6   c0,0-18.3,48.5,3.6,58.3c0,0-11,8.1,0,15.6l-39.2,43.8c0,0,10.7,7.7,27,12.1c7.3,2.1,14.4,2.9,21.1,2.9   C414.1,427.7,421.2,426.9,428.5,424.8z"/>
	<path class="st0 file-6-element-14" d="M419.1,98c-3,0.5-5.9,0.8-8.9,0.9c-5.1,0.3-10.3,0.3-15.4,0.2l-31.2,38.3c0,0,9.7,7.7,24.6,12.1   c6.7,2.1,13.1,2.9,19.2,2.9c6.1,0,12.5-0.8,19.2-2.9c14.9-4.4,24.6-12.1,24.6-12.1L419.1,98z"/>
	<ellipse class="st0 file-6-element-15" cx="407.4" cy="92.6" rx="15.9" ry="10.2"/>
	<path class="st0 file-6-element-16" d="M197.1,305.3c0,0-0.1,0-0.1,0l-6.2-28l-11.2,2.4l-29.9-77.6l0.1-0.8l-0.5-0.1l-23.2-60.4   c15.8-4.1,25.9-17.7,32.8-35.2c-3.1-16.5-5.5-33.2-14.4-47c-2.1-3.3-4.6-6.4-7.9-8.5c-5.8-3.7-13-3.7-19.9-3.6   c-5,0.1-10,0.2-15,0.2c-2.8,0-5.6,0.1-8.3,0.6c-4.2,2.1-8.1,4.7-11.5,7.8c-2.1,3.5-3.1,7.9-3.4,12.1c-0.4,6.8,0.8,13.6,0.6,20.3   c-0.2,8.1-2.4,15.9-5.6,23.3c5.9,12.9,15.2,22.6,25.9,27.5C90.3,180.6,76.4,244,68.4,282.6l-10.7-0.7l-2.2,28.6c0,0-0.1,0-0.1,0.1   c-2.9,2.4-2.9,12.6-1.4,20c0.4,2.3,1,4.4,1.6,5.9c1.1,4.5,4.8,12.9,5.9,12.4c0,0,0,0,0,0c0.1,0.1,0.2,0.1,0.3,0   c0.6-0.3,0.1-3.5-0.7-6.8c0.7,2,3.1,11.7,5.6,11.8c0.7-3.9-0.9-7.5-1.6-11.3c0.3,0.9,3.4,9.9,4.7,9.3c1-0.4-0.9-8.7-2-13.3   c1.4,4.2,4.4,10.6,5.2,10.3c0.1,0,0.2-0.2,0.2-0.4c0.5-2.4-1.7-14-1.7-14s-0.2-6-0.7-12.8c1.7,1.9,3.2,3.4,3.5,3.8   c0.8,1.2,4.4,1.7,5.1,0.8S76,321,75,317c-1.2-4.7-4.3-6.8-5.9-7.7c-0.1-0.1-0.2-0.3-0.3-0.4c0,0-0.1-0.1-0.1-0.1   c-0.1-0.1-0.2-0.3-0.4-0.4l7.3-25.3l-6.2-0.4c7.5-35.9,20.3-94.7,31.1-143.7c4.9,2.1,10,3.2,15.2,3.2c3.3,0,6.5-0.4,9.4-1.1   l23.5,61.1l-38.4,212.1l-13.8-1c0.7,11.4,2.8,23,1.8,34.3c-0.3,3.2-0.6,6.5-2.1,9.3c-2.2,4.4-6.6,7.2-10.7,9.8   c-5.8,3.6-11.6,7.2-17.4,10.8c-2,1.2-4.3,3.5-3.2,5.6c0.8,1.4,2.6,1.6,4.2,1.5c7.8-0.4,14.7-5.1,22-7.9c4.7-1.8,9.6-2.8,14.6-2.9   c2.1-0.1,4.6-0.2,5.7-2c0.5-0.8,0.9-1.9,0.7-2.9c-1.9-10-1.5-19.2-0.2-28.1c9.8-27.1,19.9-54.1,22.4-58.5   c0.8,3.1,2.7,15.9,5.1,31.7l-10,0.7c3.4,17.6,8.6,34.1,4.9,54.1c-0.2,1,0.1,2,0.7,2.9c1.1,1.8,3.6,1.9,5.7,2   c5,0.2,9.9,1.2,14.6,2.9c7.3,2.8,14.2,7.5,22,7.9c1.6,0.1,3.4-0.2,4.2-1.5c1.1-2.1-1.2-4.3-3.2-5.6c-5.8-3.6-11.6-7.2-17.4-10.8   c-4.1-2.6-8.5-5.4-10.7-9.8c-1.4-2.9-1.8-6.1-2.1-9.3c-1-11.4,1.1-22.9,1.8-34.3l-9.4,0.7c-2.5-17-4.9-31.8-5.4-32.8l-0.2-0.3   l-0.3,0c-0.6,0-1.7,0.1-18.1,45c-1.2,3.2-2.4,6.5-3.5,9.7c1.2-6.9,2.9-13.7,4.2-20.7l-5.6-0.4L149.3,204l29.2,75.9l-5.4,1.2   l10.9,24c-0.1,0.1-0.2,0.3-0.3,0.4c0,0-0.1,0.1-0.1,0.2c-0.1,0.1-0.1,0.3-0.2,0.4c-1.5,1.1-4.2,3.7-4.7,8.4c-0.4,4.1-4.1,9-3.3,9.7   c0.8,0.8,4.4-0.2,4.9-1.6c0.2-0.5,1.6-2.1,2.9-4.3c0.5,6.8,1.1,12.8,1.1,12.8s-0.5,11.8,0.3,14.1c0.1,0.2,0.2,0.4,0.3,0.4   c0.9,0.2,2.9-6.6,3.7-10.9c-0.4,4.6-1.1,13.1,0,13.4c1.3,0.4,3-8.4,3.2-9.2c-0.7,3.1-0.4,7.8,0,10.9c2.6-0.4,3.6-10.4,4-12.6   c-0.3,3.4-0.4,6.6,0.3,6.8c0.1,0,0.2,0,0.3-0.1c0,0,0,0,0,0c1.2,0.3,3.6-8.4,4.1-13.1c0.4-1.7,0.7-3.8,0.7-6.1   C201.8,317.3,200.3,307.2,197.1,305.3z"/>
	<path class="st0 file-6-element-17" d="M86.1,241.3c8.7-23.5,20.6-87.4,10.9-89.9c-25.7-6.7-33.8,61.4-35.5,80.2l-0.2,0l-23,77.8   c0,0,5.4,2.8,16.4,4.8c11,2,12.6,2.3,23.6,0.3C77.9,300.8,86.1,241.3,86.1,241.3z"/>
	<path class="st0 file-6-element-18" d="M183.8,230.3c0,0-16.8-91.4-45.5-80.3c-8.8,3.4,7.8,58.8,19.2,83.9c2.3,16.9,15.7,63.3,17.4,78.6   c11.2,0.4,12.7-0.1,23.3-3.7c10.6-3.6,15.6-7.1,15.6-7.1L183.8,230.3z"/>
	<path class="st0 file-6-element-19" d="M113.1,468.7c0.1,1.6-4.1,3.9-5.3,4.4c-2.6,1.2-5,0.6-7.6,1.1c-3.1,0.5-6.1,1.1-9.2,1.6   c-0.2-1.3-0.6-3.6-1.5-5.7c2-1.8,7.8-7.1,10.2-12.5h11.2v-5.7l-13.5,1.7c0,0-3.8,10.6-14.6,14.4l0.3,0.1l-5.8,3.6   c0,0,6.7,2.7,4.8,7.9c-0.1,0.1-0.1,0.1-0.2,0.2c-2.7,2.5-6.4,4.1-9.9,4.1c-3,0-7.4,0.1-7.2-3.7c-0.3,0.1-0.7,0.3-0.9,0.5   c-4.9,3.1-3.2,8.4,5.4,8.4s26.8-10.2,28.3-10.5c1.5-0.3,9.1-0.3,13.8-0.6C115.1,477.6,113.2,471,113.1,468.7z"/>
	<path class="st0 file-6-element-20" d="M133.9,468.7c-0.1,1.6,4.1,3.9,5.3,4.4c2.6,1.2,5,0.6,7.6,1.1c3.1,0.5,6.1,1.1,9.2,1.6   c0.2-1.3,0.6-3.6,1.5-5.7c-2-1.8-7.8-7.1-10.2-12.5h-11.2v-5.7l13.5,1.7c0,0,3.8,10.6,14.6,14.4l-0.3,0.1l5.8,3.6   c0,0-6.7,2.7-4.8,7.9c0.1,0.1,0.1,0.1,0.2,0.2c2.6,2.5,6.4,4.1,9.9,4.1c3,0,7.4,0.1,7.2-3.7c0.4,0.1,0.7,0.3,0.9,0.5   c4.9,3.1,3.2,8.4-5.4,8.4s-26.8-10.2-28.3-10.5c-1.5-0.3-9.1-0.3-13.8-0.6C132,477.6,133.8,471,133.9,468.7z"/>
	<path class="st0 file-6-element-21" d="M159.1,242.3c0,0-4.4-10.2-0.2-24.5c2.9-9.7,3.1-26.6,1.9-40.2c-0.5-5.4-3.6-15.2-5.4-23.4   c0,0-11.1-11.8-32.2-11.8c-0.1,0-0.3,0-0.4,0c-0.1,0-0.3,0-0.4,0c-21,0-36.2,11.8-36.2,11.8c-1.8,8.2-3.7,16.4-5.6,24.6   c-3,13.2,0.1,24.6,4.1,38.2c4.2,14.3,2.5,28.6,2.5,28.6L55.5,466.4c7.2,2.1,16,4.3,28.1,1.6c15.6-3.5,13.4,1,25.9,1   c9.1,0,26.1-4,37.8-2.5c2.8,2.4,8.3,0.1,14.8,1.6c12.2,2.7,23.8-2.9,30.9-4.9L159.1,242.3z"/>
	<path class="st0 file-6-element-22" d="M87.2,176.6c-0.2,4.6,1.1,9.3,4,12.8c2.7,3.1,6.6,5,10.6,6.2c6.9,2,14.2,2.3,21.3,1.6c7.8-0.8,16-3,21.3-8.7   c3.6-3.9,5.6-9.1,6.1-14.4c0.5-5.3-0.6-10.6-2.4-15.6c-1-2.9-2.4-5.7-4.5-7.9c-1.9-2-4.4-3.3-6.9-4.3c-8.1-3.2-17.1-3-25.6-1.8   c-6.4,0.9-11.1-0.3-17.2,7.8S87.3,171.5,87.2,176.6z"/>
	<path class="st0 file-6-element-23" d="M158.9,105.7c-8.3,21-21.3,36.5-43.2,36.5c-17.2,0-33.4-12-42.1-31.1c-0.2,0.5-0.4,0.9-0.6,1.4   c-0.9,2,4.5,10.5,5.4,12.3c8.6,16,23.3,28.7,42.5,25c0,0,34.6-6.9,38-44C158.9,105.8,158.9,105.8,158.9,105.7z"/>
	<path class="st0 file-6-element-24" d="M144.5,58.7c-2.1-3.3-4.6-6.4-7.9-8.5c-5.8-3.7-13-3.7-19.9-3.6c-5,0.1-10,0.2-15,0.2   c-5.1,0.1-10.4,0.2-14.7,3c-5.6,3.6-8.1,10.8-8.5,17.5c0,0.2,0,0.5,0,0.7c10.6-8.9,35.4-23.4,69.7-2.6   C147.2,63.2,145.9,60.9,144.5,58.7z"/>
	<path class="st0 file-6-element-25" d="M169.2,54.9c-6.1-14.3-20.2-24.5-35.6-27.2s-29.9-1.5-46,2.2c-41.7,9.8-57.2,169.8-57.2,169.8s15.4,0,13,7.3   c-2.4,7.3,14.6,10.5,17.7,12.3c0.1,0.1,0.2,0.1,0.4,0.2c0.2-1.5,0.5-3,0.7-4.5c2.8-20.1,7.2-44.9,23.1-61.1c4-4.1,9.7-5.9,15.4-7.3   c-2.3-1.2-4.5-2.7-6.5-4.4c-3.7-2-12.6-14-14.3-15.9c-1.1-1.1-0.3-2.6,0.8-3c-2.8-3.6-5.2-7.7-7.2-12.1c3.2-7.4,5.4-15.2,5.6-23.3   c0.2-6.8-1-13.6-0.6-20.3c0.3-4.2,1.3-8.5,3.4-12.1c3.4-3.1,7.3-5.7,11.5-7.8c2.7-0.5,5.5-0.6,8.3-0.6c5-0.1,10-0.2,15-0.2   c6.8-0.1,14.1-0.1,19.9,3.6c3.2,2.1,5.8,5.2,7.9,8.5c8.9,13.8,11.3,30.5,14.4,47c-1.5,3.7-3.1,7.2-4.8,10.5   c0.2-0.3,0.5-0.6,0.7-0.8c1.3-1.3,3.5,0.1,3,1.8c-1,3.9-3.5,7-6.1,10c-1.1,1.2-2.1,2.4-3.1,3.7c-1,1.7-2.1,3.4-3.3,5.1   c-1.8,2.4-3.7,4.8-6.4,6.2c-0.1,0.1-0.3,0.1-0.4,0.2c-1.4,1.1-2.9,2-4.4,2.8c3.3,0.8,6.6,0.8,9.7,2.2c11.8,5.2,18.5,16,24.3,27.3   c2.7,5.1,4.7,10.5,6.4,16c0.9,3.1,1.7,6.2,2.3,9.4c0.2,1.3,0.3,2.9,0.8,4.1c0.4,1,2.7,6.1,3.2,6.9c2.5-2.9,3.6-11.2,8-11   c8.2,0.4,14.1-7.9,14.1-7.9S175.3,69.1,169.2,54.9z"/>
	<path class="st0 file-6-element-26" d="M101.9,141c0.1,0,0.1,0.1,0.2,0.1c2.8,0.5,5.6,0.7,8.5,0.7c-4.2-0.6-8.2-1.9-12.1-3.8   C99.7,139,100.8,139.9,101.9,141z"/>
	<path class="st0 file-6-element-27" d="M748.5,308.6C748.5,308.6,748.4,308.5,748.5,308.6l-4.4-28.4l-13.4,2l-36.6-128.7c0.2-0.2,0.3-0.4,0.5-0.6   c0.3-0.1,0.4-0.2,0.2-0.3l-2.6-17.3c17.4-6.6,30.2-24,31.3-44.7c5.4-4.1,10.9-14,7.2-19.4c-2.4-3.5-5.4-2.4-7.6-0.5   c-1.8-23.3-10.6-45.9-48.8-44.3c-38.4,1.6-45,22-46.1,44.1c-2.2-1.7-5-2.7-7.3,0.7c-3.7,5.3,1.8,15.2,7.2,19.3   c1,21.2,14.5,38.7,33,45.1L629,283.1l-11.7-1.1l-3,28.5c0,0-0.1,0-0.1,0.1c-3,2.3-3.3,12.5-1.9,19.9c0.4,2.3,0.8,4.4,1.5,6   c1,4.6,4.4,13,5.5,12.5c0,0,0,0,0,0c0.1,0.1,0.2,0.1,0.3,0c0.7-0.3,0.2-3.5-0.5-6.8c0.7,2.5,2.6,11.5,5.3,12   c0.2-3.6-0.5-7.2-1.3-10.7c0.3,0.7,3.1,9.3,4.3,8.8c1-0.4-0.6-8.7-1.6-13.3c1.3,4.2,4.1,10.8,5,10.4c0.1,0,0.2-0.2,0.2-0.4   c0.5-2.4-1.3-14.1-1.3-14.1s-0.1-6-0.3-12.9c1.6,2,3.1,3.5,3.4,3.9c0.7,1.2,4.4,1.8,5.1,1s-3.5-5.3-4.4-9.3c-1-4.7-4.1-7-5.7-7.8   c-0.1-0.1-0.2-0.3-0.3-0.4c0,0-0.1-0.1-0.1-0.1c-0.1-0.1-0.2-0.3-0.4-0.4l8-25.1l-5.2-0.5l32.2-147.3c0.4,0.1,0.8,0.2,1.2,0.4v18.3   c0,0,2.9,7.3,9,9.7l-9.1,248.2l-5.6-0.4c0.7,11.4,2.8,23,1.8,34.3c-0.3,3.2-0.6,6.5-2.1,9.3c-2.2,4.4-6.5,7.2-10.7,9.8   c-5.8,3.6-11.6,7.2-17.4,10.8c-2,1.2-4.3,3.5-3.2,5.6c0.8,1.4,2.6,1.6,4.2,1.5c7.8-0.4,14.7-5.1,22-7.9c4.7-1.8,9.6-2.8,14.6-2.9   c2.1-0.1,4.6-0.2,5.7-2c0.5-0.8,0.9-1.9,0.7-2.9c-3.7-20,1.5-36.5,4.9-54.1l-13.9-1l9.1-247.9c1.1,0.3,2.4,0.5,3.7,0.4l22.5,247.8   l-9.2,0.7c3.4,17.6,8.6,34.1,4.9,54.1c-0.2,1,0.2,2,0.7,2.9c1.1,1.8,3.6,1.9,5.7,2c5,0.2,9.9,1.2,14.6,2.9c7.3,2.8,14.2,7.5,22,7.9   c1.6,0.1,3.4-0.2,4.2-1.5c1.2-2.1-1.2-4.3-3.2-5.6c-5.8-3.6-11.6-7.2-17.4-10.8c-4.2-2.6-8.5-5.4-10.7-9.8   c-1.4-2.9-1.8-6.1-2.1-9.3c-1-11.4,1.1-22.9,1.8-34.3l-10.3,0.8l-22.5-247.9c4.2-0.6,9.2-3.5,15.3-10.6l36.3,127.9l-3.4,0.5   l9.2,24.7c-0.1,0.1-0.2,0.3-0.3,0.4c0,0-0.1,0.1-0.1,0.2c-0.1,0.1-0.2,0.3-0.2,0.4c-1.5,1-4.5,3.4-5.3,8.1   c-0.7,4.1-4.7,8.7-3.9,9.5s4.4,0,5-1.2c0.2-0.5,1.7-2,3.2-4.1c0,6.9,0.3,12.9,0.3,12.9s-1.3,11.8-0.6,14.1c0,0.2,0.1,0.4,0.2,0.4   c0.9,0.3,3.3-6.4,4.4-10.7c-0.7,4.6-1.9,13-0.9,13.4c1.3,0.5,3.7-8.6,4-9.5c-0.4,2.8-2.1,9.1-0.6,11.5c2.6-2.5,4-9,4.5-12.4   c-0.5,3.3-0.8,6.6-0.2,6.8c0.1,0,0.2,0,0.3-0.1c0,0,0,0,0,0c1.2,0.4,4.2-8.1,4.9-12.8c0.5-1.6,0.9-3.7,1.2-6   C752.4,320.9,751.6,310.8,748.5,308.6z"/>
	<path class="st0 file-6-element-28" d="M143.3,132c0-0.1,0.1-0.1,0.1-0.2c0.6-1,1.3-1.9,2-2.8c0.2-0.4,0.4-0.7,0.7-1.1c-1.5,1.7-3,3.3-4.6,4.7   C142.1,132.4,142.7,132.2,143.3,132C143.3,132,143.3,132,143.3,132z"/>
	<g>
		<g>
			<path class="st0 file-6-element-29" d="M673.3,467.6c0.2,1-0.2,2-0.7,2.9c-1.1,1.8-3.6,1.9-5.7,2c-1.8,0.1-3.7,0.2-5.5,0.5c-1,0.4-2,0.7-2.7,0.9
					c-0.7,0.2-1.9,0.3-3.4,0.5c-1,0.3-2,0.6-3,1c0,0-0.4-3.6-1.6-6.5c2-1.8,7.8-7.1,10.2-12.5H672v-5.7l-13.5,1.7l-8.2,10.8
					l-11.8,7.4c0,0,7.9,3.1,4.2,9.2l0.5-0.2c-4.1,1.9-8.3,3.6-12.8,3.8c-1.6,0.1-3.4-0.2-4.2-1.5c-0.6-1-0.3-2.1,0.4-3.1
					c-0.6,0.2-1,0.4-1.4,0.7c-4.9,3.1-3.2,8.4,5.4,8.4s26.8-10.2,28.3-10.5c1.5-0.3,9.1-0.3,13.8-0.6
					C677.2,476.3,673.3,467.6,673.3,467.6z"/>
			<path class="st0 file-6-element-30" d="M695,467.6c-0.2,1,0.2,2,0.7,2.9c1.1,1.8,3.6,1.9,5.7,2c1.8,0.1,3.7,0.2,5.5,0.5c1,0.4,2,0.7,2.7,0.9
					c0.7,0.2,1.9,0.3,3.4,0.5c1,0.3,2,0.6,3,1c0,0,0.4-3.6,1.6-6.5c-2-1.8-7.8-7.1-10.2-12.5h-11.2v-5.7l13.5,1.7l8.2,10.8l11.8,7.4
					c0,0-7.9,3.1-4.2,9.2l-0.5-0.2c4.1,1.9,8.3,3.6,12.8,3.8c1.6,0.1,3.4-0.2,4.2-1.5c0.6-1,0.3-2.1-0.4-3.1c0.6,0.2,1,0.4,1.4,0.7
					c4.9,3.1,3.2,8.4-5.4,8.4s-26.8-10.2-28.3-10.5c-1.5-0.3-9.1-0.3-13.8-0.6C691,476.3,695,467.6,695,467.6z"/>
			<path class="st0 file-6-element-31" d="M658.3,150.1c-26.4-6.9-34.2,65.3-35.6,81.7l-0.3,0l-25.2,77.2c0,0,5.3,3,16.3,5.3c11,2.3,12.5,2.7,23.6,1
					c-0.1-14.2,10.3-75.1,10.3-75.1C656,216.5,667.9,152.6,658.3,150.1z"/>
			<path class="st0 file-6-element-32" d="M740.4,232.9c0,0-10.5-92.4-39.9-83.2c-9,2.8,3.8,59.2,13.5,85c1.1,17,11.4,64.2,12,79.6
					c11.2,1.1,12.7,0.7,23.5-2.1c10.8-2.9,16-6,16-6L740.4,232.9z"/>
			<path class="st0 file-6-element-33" d="M639.9,288.2l-8.3,175.4l23.1-5.5l24.8,5.3c0,0,13.7-7.5,20.9-7.5s40.3,7.1,45,3.1l-21.8-200.5l-15.1-107.6
					c0,0-5.7-6.8-20.4-7.3s-43,8.1-43.5,11.6C644,158.8,639.9,288.2,639.9,288.2z"/>
			<path class="st0 file-6-element-34" d="M688.1,138.4c-1.2,1.6,12,11.1,7.7,23.4c-4.7,13.4-18.7,28.9-18.7,28.9s30.4-5.6,41.4-20.9
					C729.5,154.6,693,132.3,688.1,138.4z"/>
			<path class="st0 file-6-element-35" d="M666.2,138.4c1.2,1.6-12,11.1-7.7,23.4c4.7,13.4,16.7,28.9,16.7,28.9s-28.4-5.6-39.4-20.9
					S661.4,132.3,666.2,138.4z"/>
			<g>
				<path class="st0 file-6-element-36" d="M725.8,74.2c9-14.1-1.8-27.5-1.8-27.5c-2.1-18-12.8-17.9-12.8-17.9c-9.8-11.4-21.4-6-21.4-6
					 c-10-8.2-22.7-2-22.7-2c-12.7-7.8-21.3,4.9-21.8,4.7c-8.9-0.2-14.3,6.9-14.3,6.9c-5.3,4.7-8.6,20-8.6,20
					 c-12.7,14.4,2.5,22.5,2.5,22.5l1.4,1.2c0.5,3.5,1.1,8.5,1.2,11.1c0,1.8-0.8,3.6-0.8,3.6c-1.3,4.4-2.4,8.9,2.3,12
					 c-2.4,2.9-3.2,7.1-2,10.6s4.5,6.4,8.2,7.3c-2.6,2.1-3.6,5.8-2.5,8.9c1.1,3.1,4.3,5.3,7.7,5.4c-0.8,2.1-0.2,4.6,1.4,6.2
					 s4.3,2.1,6.4,1.3c-0.2,3.8,2,7.6,5.3,9.6c2.7,1.6,6.2,1.9,9.2,1c5.2,5.4,18.2,5.4,23.4,0c3,0.9,6.5,0.6,9.2-1
					 c3.4-2,5.5-5.8,5.3-9.6c2.2,0.8,4.8,0.2,6.4-1.3s2.2-4.1,1.4-6.2c3.4-0.1,6.6-2.4,7.7-5.4c1.1-3.1,0.1-6.8-2.5-8.9
					 c3.8-0.9,7-3.8,8.2-7.3s0.5-7.7-2-10.6c4.7-3.1,3.6-7.7,2.3-12c0,0-0.8-1.9-0.8-3.6c0-2.8,0.7-8.2,1.2-11.6
					 C724.2,74.9,725.2,74.4,725.8,74.2z M690.6,109.5c-4.6-13.2-15-12.4-15-12.4c2.8,9.1,5.6,13.9,8,16.3c-0.8,0.3-1.6,0.6-2.4,0.8
					 c-2.1,0.6-4.3,0.9-6.6,0.9c-2.3,0-4.5-0.4-6.6-0.9c-0.6-0.2-1.2-0.4-1.7-0.6c2.5-2.3,5.4-7.1,8.3-16.6c0,0-10.6-0.9-15.2,12.9
					 c-10.8-7.7-19.6-22.2-25.1-32.8c3.8-23.5,13.3-42.9,17.3-44c2.7-0.8,5.7-0.2,8.3,0.8c3.6,1.4,6.9,3.4,10.5,4.8
					 c4.6,1.8,9.2-0.4,13.1-2.8c3.5-2.2,7.2-4.7,11.3-4.7c3.3,0,6.3,3.3,8.6,5.6c9.6,9.4,10.5,33.2,10.5,42.1
					 C708.6,89.1,700.5,102.1,690.6,109.5z"/>
			</g>
		</g>
	</g>
</g>
<g id="blacklines">
	<g>
		<g>
			<g>
				<rect x="-64.5" y="500.5" class="st1 file-6-element-37" width="59.4" height="59.4"/>
				<rect x="-64.5" y="559.8" class="st1 file-6-element-38" width="59.4" height="59.4"/>
			</g>
			<g>
				<rect x="-5.1" y="500.5" class="st1 file-6-element-39" width="59.4" height="59.4"/>
				<rect x="-5.1" y="559.8" class="st1 file-6-element-40" width="59.4" height="59.4"/>
			</g>
		</g>
		<g>
			<g>
				<rect x="54.3" y="500.5" class="st1 file-6-element-41" width="59.4" height="59.4"/>
				<rect x="54.3" y="559.8" class="st1 file-6-element-42" width="59.4" height="59.4"/>
			</g>
			<g>
				<rect x="113.7" y="500.5" class="st1 file-6-element-43" width="59.4" height="59.4"/>
				<rect x="113.7" y="559.8" class="st1 file-6-element-44" width="59.4" height="59.4"/>
			</g>
		</g>
		<g>
			<g>
				<rect x="173.1" y="500.5" class="st1 file-6-element-45" width="59.4" height="59.4"/>
				<rect x="173.1" y="559.8" class="st1 file-6-element-46" width="59.4" height="59.4"/>
			</g>
			<g>
				<rect x="232.5" y="500.5" class="st1 file-6-element-47" width="59.4" height="59.4"/>
				<rect x="232.5" y="559.8" class="st1 file-6-element-48" width="59.4" height="59.4"/>
			</g>
		</g>
		<g>
			<g>
				<rect x="292" y="500.5" class="st1 file-6-element-49" width="59.4" height="59.4"/>
				<rect x="292" y="559.8" class="st1 file-6-element-50" width="59.4" height="59.4"/>
			</g>
			<g>
				<rect x="351.3" y="500.5" class="st1 file-6-element-51" width="59.4" height="59.4"/>
				<rect x="351.3" y="559.8" class="st1 file-6-element-52" width="59.4" height="59.4"/>
			</g>
		</g>
		<g>
			<g>
				<rect x="410.8" y="500.5" class="st1 file-6-element-53" width="59.4" height="59.4"/>
				<rect x="410.8" y="559.8" class="st1 file-6-element-54" width="59.4" height="59.4"/>
			</g>
			<g>
				<rect x="470.1" y="500.5" class="st1 file-6-element-55" width="59.4" height="59.4"/>
				<rect x="470.1" y="559.8" class="st1 file-6-element-56" width="59.4" height="59.4"/>
			</g>
		</g>
		<g>
			<g>
				<rect x="529.6" y="500.5" class="st1 file-6-element-57" width="59.4" height="59.4"/>
				<rect x="529.6" y="559.8" class="st1 file-6-element-58" width="59.4" height="59.4"/>
			</g>
			<g>
				<rect x="589" y="500.5" class="st1 file-6-element-59" width="59.4" height="59.4"/>
				<rect x="589" y="559.8" class="st1 file-6-element-60" width="59.4" height="59.4"/>
			</g>
		</g>
		<g>
			<g>
				<rect x="648.4" y="500.5" class="st1 file-6-element-61" width="59.4" height="59.4"/>
				<rect x="648.4" y="559.8" class="st1 file-6-element-62" width="59.4" height="59.4"/>
			</g>
			<g>
				<rect x="707.8" y="500.5" class="st1 file-6-element-63" width="59.4" height="59.4"/>
				<rect x="707.8" y="559.8" class="st1 file-6-element-64" width="59.4" height="59.4"/>
			</g>
		</g>
		<g>
			<g>
				<rect x="767.2" y="500.5" class="st1 file-6-element-65" width="59.4" height="59.4"/>
				<rect x="767.2" y="559.8" class="st1 file-6-element-66" width="59.4" height="59.4"/>
			</g>
			<g>
				<rect x="826.6" y="500.5" class="st1 file-6-element-67" width="59.4" height="59.4"/>
				<rect x="826.6" y="559.8" class="st1 file-6-element-68" width="59.4" height="59.4"/>
			</g>
		</g>
	</g>
	<g>
		<g>
			<g>
				<rect x="-64.5" y="381.4" class="st1 file-6-element-69" width="59.4" height="59.4"/>
				<rect x="-64.5" y="440.7" class="st1 file-6-element-70" width="59.4" height="59.4"/>
			</g>
			<g>
				<rect x="-5.1" y="381.4" class="st1 file-6-element-71" width="59.4" height="59.4"/>
				<rect x="-5.1" y="440.7" class="st1 file-6-element-72" width="59.4" height="59.4"/>
			</g>
		</g>
		<g>
			<g>
				<path class="st1 file-6-element-73" d="M58.2,440.8c-2.5,0-3.9,0-3.9,0v-59.4c0,0,5.4,0,12.9,0"/>
				<path class="st1 file-6-element-74" d="M113.8,468.2c0,15.5,0,31.9,0,31.9H54.3v-59.4c0,0,1.9,0,4.9,0"/>
			</g>
			<g>
				<path class="st1 file-6-element-75" d="M173.1,468.8c0,2,0,4,0,6"/>
				<path class="st1 file-6-element-76" d="M173.1,487.8c0,7.2,0,12.3,0,12.3h-59.4c0,0,0-11.8,0-24.8"/>
			</g>
		</g>
		<g>
			<g>
				<path class="st1 file-6-element-77" d="M181.2,381.4c16.3,0,51.3,0,51.3,0v59.4c0,0-25.2,0-42.8,0"/>
				<path class="st1 file-6-element-78" d="M173.1,474.8c0-2.3,0-4.7,0-7"/>
				<path class="st1 file-6-element-79" d="M190.2,440.7c17.6,0,42.3,0,42.3,0v59.4h-59.4c0,0,0-4.6,0-11.4"/>
			</g>
			<g>
				<rect x="232.5" y="381.4" class="st1 file-6-element-80" width="59.4" height="59.4"/>
				<rect x="232.5" y="440.7" class="st1 file-6-element-81" width="59.4" height="59.4"/>
			</g>
		</g>
		<g>
			<g>
				<rect x="292" y="381.4" class="st1 file-6-element-82" width="59.4" height="59.4"/>
				<rect x="292" y="440.7" class="st1 file-6-element-83" width="59.4" height="59.4"/>
			</g>
			<g>
				<path class="st1 file-6-element-84" d="M410.8,427.1c0,8,0,13.7,0,13.7h-59.4v-59.4c0,0,18.9,0,35.4,0"/>
				<rect x="351.3" y="440.7" class="st1 file-6-element-85" width="59.4" height="59.4"/>
			</g>
		</g>
		<g>
			<g>
				<path class="st1 file-6-element-86" d="M427.9,381.4c17.6,0,42.3,0,42.3,0v59.4h-59.4c0,0,0-5.6,0-13.3"/>
				<rect x="410.8" y="440.7" class="st1 file-6-element-87" width="59.4" height="59.4"/>
			</g>
			<g>
				<rect x="470.1" y="381.4" class="st1 file-6-element-88" width="59.4" height="59.4"/>
				<rect x="470.1" y="440.7" class="st1 file-6-element-89" width="59.4" height="59.4"/>
			</g>
		</g>
		<g>
			<g>
				<rect x="529.6" y="381.4" class="st1 file-6-element-90" width="59.4" height="59.4"/>
				<rect x="529.6" y="440.7" class="st1 file-6-element-91" width="59.4" height="59.4"/>
			</g>
			<g>
				<path class="st1 file-6-element-92" d="M633,440.8c-17.6,0-44,0-44,0v-59.4c0,0,27.8,0,45.4,0"/>
				<path class="st1 file-6-element-93" d="M648.4,460.3c0,1.1,0,2.3,0,3.5"/>
				<path class="st1 file-6-element-94" d="M648.4,482c0,10.1,0,18.1,0,18.1H589v-59.4c0,0,25.6,0,43.2,0"/>
			</g>
		</g>
		<g>
			<g>
				<path class="st1 file-6-element-95" d="M707.8,477.6c0,12.1,0,22.5,0,22.5h-59.4c0,0,0-7.9,0-17.9"/>
			</g>
			<g>
				<path class="st1 file-6-element-96" d="M737.1,381.4c15,0,30.1,0,30.1,0v59.4c0,0-10.8,0-23.3,0"/>
				<path class="st1 file-6-element-97" d="M744.2,440.7c12.3,0,23,0,23,0v59.4h-59.4c0,0,0-10.9,0-23.3"/>
			</g>
		</g>
		<g>
			<g>
				<rect x="767.2" y="381.4" class="st1 file-6-element-98" width="59.4" height="59.4"/>
				<rect x="767.2" y="440.7" class="st1 file-6-element-99" width="59.4" height="59.4"/>
			</g>
			<g>
				<rect x="826.6" y="381.4" class="st1 file-6-element-100" width="59.4" height="59.4"/>
				<rect x="826.6" y="440.7" class="st1 file-6-element-101" width="59.4" height="59.4"/>
			</g>
		</g>
	</g>
	<g>
		<g>
			<g>
				<g>
					<g>
						<g>
							<path class="st2 file-6-element-102" d="M613.5,334.4c0,3.3,4.8,15.1,6.2,14.6c1.3-0.6-2.1-13.9-2.1-13.9L613.5,334.4z"/>
							<path class="st2 file-6-element-103" d="M617.3,334.1c0,3.3,5.7,20.7,7,20.2c1.3-0.6-3-19.5-3-19.5L617.3,334.1z"/>
							<path class="st2 file-6-element-104" d="M621.3,335.3c0,3.3,4.9,17.5,6.3,16.9c1.3-0.6-2.2-16.2-2.2-16.2L621.3,335.3z"/>
							<path class="st2 file-6-element-105" d="M625.3,335.8c0.1,2.6,4.5,13.9,5.6,13.5s-1.6-12.3-1.6-12.3L625.3,335.8z"/>
							<path class="st3 file-6-element-106" d="M613.5,334.5c0.1,3.4,4.5,15,5.8,14.5c1.3-0.5-1.5-12.9-1.8-13.8"/>
							<path class="st3 file-6-element-107" d="M617.6,335.7c0.5,4.4,5.5,19.1,6.8,18.6c1.3-0.5-2.4-17.2-2.9-19.3"/>
							<path class="st3 file-6-element-108" d="M621.3,335.3c0,3.3,4.9,17.5,6.3,16.9c1.3-0.6-2.2-16.2-2.2-16.2s0.2-2,0.1-2"/>
							<path class="st3 file-6-element-109" d="M625.4,334.8c0.1,2.6,4.4,14.9,5.5,14.5s-1.1-14.5-1.1-14.5"/>
						</g>
						<g>
							<g>
								<path class="st1 file-6-element-110" d="M633.3,316.6c0.1,0.3,0.2,0.6,0.2,1c0.9,4,5.1,8.4,4.4,9.3c-0.7,0.9-4.4,0.3-5.1-1
					
					c-0.5-0.8-5.3-5.2-7-9.9"/>
							</g>
							<g>
								<path class="st3 file-6-element-111" d="M633.3,316.6c0.1,0.3,0.2,0.6,0.2,1c0.9,4,5.1,8.4,4.4,9.3c-0.7,0.9-4.4,0.3-5.1-1
					
					c-0.5-0.8-5.3-5.2-7-9.9"/>
							</g>
						</g>
						<g>
							<path class="st3 file-6-element-112" d="M614,337.1c-2.2-5.2-3.2-17-1.6-23.1"/>
							<path class="st3 file-6-element-113" d="M629.5,323c0.2,6.4,0.3,11.8,0.3,11.8"/>
						</g>
					</g>
					<path class="st3 file-6-element-114" d="M635,170.6c-8.2,20.9-11.4,51.2-12.3,61.2l-0.3,0l-25.2,77.2c0,0,5.3,3,16.3,5.3c11,2.3,12.5,2.7,23.6,1
					  c0-5.2,1.3-16.5,3.1-28.9"/>
				</g>
				<g>
					<g>
						<g>
							<path class="st2 file-6-element-115" d="M750.4,332.4c0.2,3.3-4.1,15.3-5.5,14.8s1.4-14,1.4-14L750.4,332.4z"/>
							<path class="st2 file-6-element-116" d="M746.6,332.3c0.2,3.3-4.7,21-6,20.5s2-19.6,2-19.6L746.6,332.3z"/>
							<path class="st2 file-6-element-117" d="M742.7,333.6c0.2,3.3-4.1,17.7-5.5,17.2s1.4-16.3,1.4-16.3L742.7,333.6z"/>
							<path class="st2 file-6-element-118" d="M738.7,334.4c0.1,2.6-3.8,14.1-5,13.7c-1.2-0.4,1-12.3,1-12.3L738.7,334.4z"/>
							<path class="st3 file-6-element-119" d="M750.4,332.5c0.1,3.4-3.8,15.2-5.1,14.7c-1.3-0.5,0.9-12.9,1.1-13.9"/>
							<path class="st3 file-6-element-120" d="M746.4,334c-0.3,4.4-4.5,19.4-5.8,18.9c-1.3-0.5,1.6-17.2,2-19.4"/>
							<path class="st3 file-6-element-121" d="M742.7,333.6c0.2,3.3-4.1,17.7-5.5,17.2s1.4-16.3,1.4-16.3s-0.2-2-0.2-2"/>
							<path class="st3 file-6-element-122" d="M738.5,333.4c0.1,2.6-3.7,15.1-4.8,14.7s0.4-14.5,0.4-14.5"/>
						</g>
						<g>
							<g>
								<path class="st0 file-6-element-123" d="M730.3,325.2c0.1-0.1,0.2-0.2,0.3-0.4c0.2-0.4,1.6-1.9,3-3.8"/>
								<path class="st0 file-6-element-124" d="M730.5,313.5c-0.4,0.9-0.7,1.9-0.9,3.1c0,0,0,0,0,0"/>
							</g>
							<g>
								<path class="st1 file-6-element-125" d="M730.3,325.2c0.1-0.1,0.2-0.2,0.3-0.4c0.2-0.4,1.6-1.9,3-3.8"/>
								<path class="st1 file-6-element-126" d="M730.5,313.5c-0.4,0.9-0.7,1.9-0.9,3.1c0,0,0,0,0,0"/>
							</g>
						</g>
						<g>
							<path class="st2 file-6-element-127" d="M750.1,333.9c2.5-6.7,2.3-22.5-1.6-25.3c-1.1-0.8-7.1-2.3-9-2.5c-4.1-0.3-5.6,2.7-5.7,6.4
					    c-0.2,9.4,0.2,21.1,0.2,21.1L750.1,333.9z"/>
							<path class="st3 file-6-element-128" d="M750,335.1c2-5.4,2.4-17.7,0.3-23.6"/>
							<path class="st3 file-6-element-129" d="M733.8,315.5c-0.1,8.7,0.3,18.2,0.3,18.2"/>
						</g>
					</g>
					<path class="st3 file-6-element-130" d="M730.9,314.8c7,0.5,9.6-0.2,18.6-2.6c10.8-2.9,16-6,16-6l-25.2-73.2c0,0-5.5-48.1-19.6-71.5"/>
				</g>
				<path class="st3 file-6-element-131" d="M674,469.5c0.9,2.5,1.9,6.9-1.4,7.1c-4.7,0.3-12.4,0.3-13.8,0.6s-19.7,10.5-28.3,10.5
					 c-8.1,0-10-4.7-6.2-7.8"/>
				<path class="st3 file-6-element-132" d="M672.5,462.6c0.2,1.7,0.5,3.4,0.8,5.1c0.2,1-0.2,2-0.7,2.9c-1.1,1.8-3.6,1.9-5.7,2c-5,0.2-9.9,1.2-14.6,2.9
					 c-7.3,2.8-14.2,7.5-22,7.9c-1.6,0.1-3.4-0.2-4.2-1.5c-1.2-2.1,1.2-4.3,3.2-5.6c5.8-3.6,11.6-7.2,17.4-10.8
					 c2.9-1.8,6-3.8,8.3-6.3"/>
				<path class="st3 file-6-element-133" d="M655.1,458.3c-3.1,3.4-10.8,8.5-10.8,8.5l-5.8,3.6c0,0,7.9,3.1,4.2,9.2l9.6-4.3c0,0-0.4-3.6-1.6-6.5
					 c1.7-1.5,6-5.4,8.7-9.8"/>
				<path class="st3 file-6-element-134" d="M695.3,467.6c0,0-4,8.6,0.7,9c4.7,0.3,12.4,0.3,13.8,0.6s19.7,10.5,28.3,10.5c8.2,0,10.1-4.8,6-8"/>
				<path class="st3 file-6-element-135" d="M712.1,457.1c2.4,3.5,6.2,6,9.8,8.2c5.8,3.6,11.6,7.2,17.4,10.8c2,1.2,4.3,3.5,3.2,5.6
					 c-0.8,1.4-2.6,1.6-4.2,1.5c-7.8-0.4-14.7-5.1-22-7.9c-4.7-1.8-9.6-2.8-14.6-2.9c-2.1-0.1-4.6-0.2-5.7-2
					 c-0.5-0.8-0.9-1.9-0.7-2.9c0.7-3.8,1.1-7.5,1.2-11.2"/>
				<path class="st3 file-6-element-136" d="M712.7,457.3c2.2,3.3,6,7.4,11.9,9.4l-0.3,0.1l5.8,3.6c0,0-7.9,3.1-4.2,9.2l-9.6-4.3c0,0,0.4-3.6,1.6-6.5
					 c-1.9-1.7-7.2-6.6-9.8-11.6"/>
				<path class="st3 file-6-element-137" d="M643.6,177.2c-1.4,37.8-3.7,111.1-3.7,111.1l-8.3,175.4l23.1-5.5l24.8,5.3c0,0,13.7-7.5,20.9-7.5
					 s40.3,7.1,45,3.1l-21.8-200.5c0,0-7-49.8-11.4-81.7"/>
				<path class="st3 file-6-element-138" d="M696,152.1c0.9,2.9,1.1,6.2-0.1,9.7c-4.7,13.4-18.7,28.9-18.7,28.9s30.4-5.6,41.4-20.9
					 c6.5-9-3.7-20.5-14-27.1"/>
				<path class="st3 file-6-element-139" d="M657.9,153.9c-0.5,2.4-0.4,5.1,0.6,7.9c4.7,13.4,17.7,28.9,17.7,28.9s-29.4-5.6-40.4-20.9
					 c-6.2-8.6,2.7-19.4,12.5-26.1"/>
				<path class="st3 file-6-element-140" d="M663.4,154.4c0,0.1,0,0.1,0,0.1s10,24.8,31.2-1.7c0.1,0,0.2-0.1,0.2-0.1"/>
				<path class="st3 file-6-element-141" d="M648.6,450.6c0,0,0-215.1,0-267.7"/>
				<path class="st3 file-6-element-142" d="M730.1,447.7c0,0-24.1-212.1-24.1-264.8"/>
				<path class="st3 file-6-element-143" d="M669.5,109.5c2.8,0.8,6.7,1.5,10.7,0.6"/>
				<g>
					<g>
						<path class="st4 file-6-element-144" d="M656,76.8c0-0.1,0-0.1,0.1-0.2c0.7-1.7-0.8-3.7-2.3-4.1c-1.9-0.5-3.4,0.7-4.1,2.3
					   c-1.3,3.2-1.5,6.5-1.1,9.9c0.2,1.3,1.6,2.3,2.8,2.4c1.4,0.2,2.6-0.4,3.3-1.6C656.3,82.9,656.8,79.8,656,76.8z"/>
					</g>
				</g>
				<g>
					<g>
						<path class="st4 file-6-element-145" d="M699,76.8c0-0.1,0-0.1,0.1-0.2c0.7-1.7-0.8-3.7-2.3-4.1c-1.9-0.5-3.4,0.7-4.1,2.3
					   c-1.3,3.2-1.5,6.5-1.1,9.9c0.2,1.3,1.6,2.3,2.8,2.4c1.4,0.2,2.6-0.4,3.3-1.6C699.3,82.9,699.7,79.8,699,76.8z"/>
					</g>
				</g>
				<path class="st3 file-6-element-146" d="M620.5,72.2c-2.2,5,1.8,12.8,6.3,17.1"/>
				<path class="st3 file-6-element-147" d="M728.4,69.1c0.8,0.3,1.6,0.9,2.4,2.1c3.7,5.4-2,15.5-7.5,19.5"/>
				<path class="st3 file-6-element-148" d="M624.9,74.9c-7.5-5.1-10.1-13.8-2.5-22.5c0,0,3.3-15.3,8.6-20c0,0,5.4-7.1,14.3-6.9
					 c0.5,0.2,9.1-12.5,21.8-4.7c0,0,12.7-6.2,22.7,2c0,0,11.6-5.4,21.4,6c0,0,10.7-0.1,12.8,17.9c0,0,10.4,18.7,0.2,28.2"/>
				<path class="st3 file-6-element-149" d="M714.1,78.2c0-9.5-1.2-32.2-10.5-41.3c-2.4-2.3-5.3-5.7-8.6-5.6c-4.1,0.1-7.8,2.5-11.3,4.7
					 c-3.9,2.4-8.5,4.6-13.1,2.8c-3.6-1.4-6.9-3.4-10.5-4.8c-2.7-1-5.6-1.6-8.3-0.8c-4.1,1.2-11.6,13.4-17.4,43.9"/>
				<path class="st3 file-6-element-150" d="M673.3,69.8c-3.1,9.3-5.5,20.8-5.5,20.8s5.5,1.5,11.5,0.6"/>
				<g>
					<path class="st2 file-6-element-151" d="M722.6,90.9c0,0-0.8-1.9-0.8-3.6c0-4.3,1.7-14.8,1.7-14.8L720,72c-0.9,0.5-2.2,1.4-3.3,2.9
					  c-0.6,0.6-1.2,1.3-1.6,2.2c-7,13.3-18.9,32.8-33.8,37.2c-2.1,0.6-4.3,0.9-6.6,0.9c-2.3,0-4.5-0.4-6.6-0.9
					  c-14.9-4.5-26.8-23.9-33.8-37.2c-0.5-0.9-1-1.6-1.6-2.2c-1.1-1.5-3.3-2-3.3-2c-1.9-0.7-3.5-0.6-3.5-0.6s1.7,10.6,1.7,14.8
					  c0,1.8-0.8,3.6-0.8,3.6c-1.3,4.4-2.4,8.9,2.3,12c-2.4,2.9-3.2,7.1-2,10.6s4.5,6.4,8.2,7.3c-2.6,2.1-3.6,5.8-2.5,8.9
					  c1.1,3.1,4.3,5.3,7.7,5.4c-0.8,2.1-0.2,4.6,1.4,6.2s4.3,2.1,6.4,1.3c-0.2,3.8,2,7.6,5.3,9.6c2.7,1.6,6.2,1.9,9.2,1
					  c5.2,5.4,18.2,5.4,23.4,0c3,0.9,6.5,0.6,9.2-1c3.4-2,5.5-5.8,5.3-9.6c2.2,0.8,4.8,0.2,6.4-1.3s2.2-4.1,1.4-6.2
					  c3.4-0.1,6.6-2.4,7.7-5.4c1.1-3.1,0.1-6.8-2.5-8.9c3.8-0.9,7-3.8,8.2-7.3s0.5-7.7-2-10.6C725.1,99.8,723.9,95.2,722.6,90.9z"/>
				</g>
				<g>
					<g>
						<path class="st3 file-6-element-152" d="M625.8,72.4c0,0,1.7,10.6,1.7,14.8c0,1.8-0.8,3.6-0.8,3.6c-1.3,4.4-2.4,8.9,2.3,12
					   c-2.4,2.9-3.2,7.1-2,10.6s4.5,6.4,8.2,7.3c-2.6,2.1-3.6,5.8-2.5,8.9c1.1,3.1,4.3,5.3,7.7,5.4c-0.8,2.1-0.2,4.6,1.4,6.2
					   s4.3,2.1,6.4,1.3c-0.2,3.8,2,7.6,5.3,9.6c2.7,1.6,6.2,1.9,9.2,1c5.2,5.4,18.2,5.4,23.4,0c3,0.9,6.5,0.6,9.2-1
					   c3.4-2,5.5-5.8,5.3-9.6c2.2,0.8,4.8,0.2,6.4-1.3s2.2-4.1,1.4-6.2c3.4-0.1,6.6-2.4,7.7-5.4c1.1-3.1,0.1-6.8-2.5-8.9
					   c3.8-0.9,7-3.8,8.2-7.3s0.5-7.7-2-10.6c4.7-3.1,3.6-7.7,2.3-12c0,0-0.8-1.9-0.8-3.6c0-4.3,1.7-14.8,1.7-14.8"/>
						<path class="st3 file-6-element-153" d="M715,77.3c-5.4,10.3-13.8,24.2-24.2,32"/>
						<path class="st3 file-6-element-154" d="M683.7,113.4c-0.8,0.3-1.6,0.6-2.4,0.9c-2.1,0.6-4.3,0.9-6.6,0.9c-2.3,0-4.5-0.4-6.6-0.9
					   c-0.7-0.2-1.3-0.4-2-0.7"/>
						<path class="st3 file-6-element-155" d="M659,109.7c-10.7-7.8-19.3-22.1-24.8-32.6c0,0,0,0,0,0"/>
						<path class="st3 file-6-element-156" d="M674.6,97.1c0,0-12.5-1.1-16.2,16.7C658.5,113.8,666.4,123.8,674.6,97.1z"/>
					</g>
					<path class="st3 file-6-element-157" d="M675.6,97.1c0,0,12.5-1.1,16.2,16.7C691.8,113.8,683.8,123.8,675.6,97.1z"/>
				</g>
			</g>
		</g>
		<path class="st3 file-6-element-158" d="M644,68.7c1.9-5.4,8-9.1,13.7-8.2"/>
		<path class="st3 file-6-element-159" d="M691.2,60c4.8-0.1,9.7,2,12.9,5.7"/>
	</g>
	<g>
		<g>
			<g>
				<path class="st3 file-6-element-160" d="M62,219.7c-0.2-0.1-0.5-0.3-0.8-0.4c-3.1-1.8-20.1-4.9-17.7-12.3c2.4-7.3-13-7.3-13-7.3
					 s15.4-160,57.2-169.8c16.1-3.8,30.6-4.9,46-2.2s29.5,12.9,35.6,27.2c6.1,14.3,33.7,137.2,33.7,137.2s-5.8,8.3-14.1,7.9
					 c-8.2-0.4-7.2,17.3-7.2,17.6"/>
				<g>
					<g>
						<path class="st3 file-6-element-161" d="M55.5,335.6c0.8,4.3,4.9,13.7,6.1,13.2c1.3-0.6-1.9-12.8-2.2-13.8"/>
						<path class="st3 file-6-element-162" d="M59.5,335.6c0.6,4.4,6,18.9,7.3,18.4c1.2-0.6-2.9-17.1-3.5-19.2"/>
						<path class="st3 file-6-element-163" d="M63.2,335.1c0.1,3.3,5.4,17.3,6.8,16.7s-2.7-16.2-2.7-16.2s0.1-2,0-2"/>
						<path class="st3 file-6-element-164" d="M67.3,334.5c0.1,2.6,4.8,14.8,5.9,14.3c1.1-0.5-1.5-14.4-1.5-14.4"/>
					</g>
					<path class="st3 file-6-element-165" d="M74.5,315.5c0.2,0.5,0.4,1,0.5,1.6c0.3,1,0.7,2,1.3,3"/>
					<path class="st3 file-6-element-166" d="M74.9,325.7c-0.2-0.1-0.3-0.2-0.3-0.4c-0.3-0.4-1.7-1.7-3.3-3.5"/>
					<g>
						<path class="st3 file-6-element-167" d="M56,337.1c-2.3-5-3.6-16.4-2.3-22.7"/>
						<path class="st3 file-6-element-168" d="M70.6,316.3c0.8,8.7,1.1,18.1,1.1,18.1"/>
					</g>
				</g>
				<path class="st3 file-6-element-169" d="M84.9,154.2c-16.2,13.2-21.9,61.9-23.3,77.3l-0.2,0l-23,77.9c0,0,5.4,2.8,16.4,4.8c11,2,12.6,2.3,23.6,0.3
					 c-0.4-13.1,7.9-67.9,8.7-72.9"/>
				<g>
					<g>
						<g>
							<path class="st3 file-6-element-170" d="M200.6,329c0.3,3.4-2.7,15.4-4.1,15c-1.4-0.4,0-12.9,0.1-13.9"/>
							<path class="st3 file-6-element-171" d="M196.7,330.7c0,4.4-3.2,19.6-4.6,19.2c-1.3-0.4,0.4-17.3,0.7-19.5"/>
							<path class="st3 file-6-element-172" d="M193,330.7c0.4,3.3-2.9,17.9-4.3,17.5c-1.4-0.4,0.3-16.4,0.3-16.4s-0.4-2-0.3-2"/>
							<path class="st3 file-6-element-173" d="M188.9,330.7c0.2,2.6-2.7,15.3-3.8,15c-1.2-0.3-0.6-14.5-0.6-14.5"/>
						</g>
						<path class="st3 file-6-element-174" d="M178.8,313.5c-0.1,0.3-0.1,0.6-0.1,1c-0.4,4.1-4.1,9-3.3,9.7c0.8,0.8,4.4-0.2,4.9-1.6
					   c0.2-0.4,1.1-1.6,2.2-3.2"/>
						<g>
							<path class="st3 file-6-element-175" d="M200.4,331.7c1.7-5.5,1.2-17.6-1.2-23.4"/>
							<path class="st3 file-6-element-176" d="M182.9,313.1c0.5,8.7,1.5,18.2,1.5,18.2"/>
						</g>
					</g>
					<path class="st3 file-6-element-177" d="M157.8,235.2c2.7,17.8,15.6,62.3,17.2,77.3c11.2,0.4,12.7-0.1,23.3-3.7s15.6-7.1,15.6-7.1l-30.1-71.4
					  c0,0-10-54.7-27.9-74.3"/>
				</g>
				<path class="st3 file-6-element-178" d="M134.1,468.9c0,0-4,8.6,0.7,9s12.4,0.3,13.8,0.6c1.5,0.3,19.7,10.5,28.3,10.5c8.5,0,10.2-5.2,5.6-8.3"/>
				<path class="st3 file-6-element-179" d="M164.6,469.1c4.5,2.8,9,5.6,13.5,8.4c2,1.2,4.3,3.5,3.2,5.6c-0.8,1.4-2.6,1.6-4.2,1.5
					 c-7.8-0.4-14.7-5.1-22-7.9c-4.7-1.8-9.6-2.8-14.6-2.9c-2.1-0.1-4.6-0.2-5.7-2c-0.5-0.8-0.9-1.9-0.7-2.9c0.2-0.9,0.3-1.8,0.5-2.7
					 "/>
				<path class="st3 file-6-element-180" d="M165.3,469.5c1.6,1,3.6,2.2,3.6,2.2s-7.9,3.1-4.2,9.2l-9.6-4.3c0,0,0.4-3.6,1.6-6.5c-0.7-0.6-1.8-1.6-3-2.9
					 "/>
				<path class="st3 file-6-element-181" d="M112.3,469.7c0.8,2.1,2.8,7.9-1,8.2c-4.7,0.3-12.4,0.3-13.8,0.6C96,478.8,77.8,489,69.2,489
					 s-10.3-5.3-5.4-8.4c0.2-0.1,0.4-0.2,0.7-0.4"/>
				<path class="st3 file-6-element-182" d="M112.1,469.1c0.1,0.9-0.2,1.9-0.7,2.7c-1.1,1.8-3.6,1.9-5.7,2c-5,0.2-9.9,1.2-14.6,2.9
					 c-7.3,2.8-14.2,7.5-22,7.9c-1.6,0.1-3.4-0.2-4.2-1.5c-1.2-2.1,1.2-4.3,3.2-5.6c5.1-3.1,10.1-6.3,15.2-9.4"/>
				<path class="st3 file-6-element-183" d="M82.6,468.4c-1.4,0.9-5.3,3.3-5.3,3.3s7.9,3.1,4.2,9.2l9.6-4.3c0,0-0.4-3.6-1.6-6.5
					 c0.8-0.7,2.1-1.9,3.6-3.4"/>
				<path class="st3 file-6-element-184" d="M98.7,147.2c-7.8,3.2-12.5,6.9-12.5,6.9c-1.8,8.2-3.7,16.4-5.6,24.6c-3,13.2,0.1,24.6,4.1,38.2
					 c4.2,14.3,2.5,28.6,2.5,28.6L55.5,466.4c7.2,2.1,16,4.3,28.1,1.6c15.6-3.5,13.4,1,25.9,1c9.1,0,26.1-4,37.8-2.5
					 c2.8,2.4,8.3,0.1,14.8,1.6c12.2,2.7,23.8-2.9,30.9-4.9l-33.9-220.8c0,0-4.4-10.2-0.2-24.5c2.9-9.7,3.1-26.6,1.9-40.2
					 c-0.5-5.4-3.6-15.2-5.4-23.4c0,0-6.2-6.6-18.1-9.9"/>
				<path class="st3 file-6-element-185" d="M98.9,147.2c-1.6,1.1-3.3,2.7-5.1,5.1c-6.1,8.2-6.5,19.2-6.7,24.3c-0.2,4.6,1.1,9.3,4,12.8
					 c2.7,3.1,6.6,5,10.6,6.2c6.9,2,14.2,2.3,21.3,1.6c7.8-0.8,16-3,21.3-8.7c3.6-3.9,5.6-9.1,6.1-14.4c0.5-5.3-0.6-10.6-2.4-15.6
					 c-1-2.9-2.4-5.7-4.5-7.9c-1.9-2-4.4-3.3-6.9-4.3c-0.9-0.3-1.8-0.6-2.6-0.9"/>
				<path class="st3 file-6-element-186" d="M133.7,155.7c-0.2-1.1-0.7-4.8-1.2-8.7"/>
				<path class="st3 file-6-element-187" d="M102.3,149.6c0,3.8,0,7.2,0,8.1"/>
				<path class="st3 file-6-element-188" d="M73.1,112.8c4.9,13.5,18.9,42.5,47.8,37c0,0,35.2-7,38.1-44.9"/>
				<path class="st3 file-6-element-189" d="M158.3,107.1c-8.3,20.3-21.2,35-42.6,35c-17.3,0-33.6-12.1-42.3-31.4"/>
				<path class="st3 file-6-element-190" d="M101.9,120.2c0,0,10.8,5.9,20.2,0"/>
				<path class="st3 file-6-element-191" d="M78.6,68.2c10.6-8.9,35.2-23.2,69.2-2.9"/>
				<path class="st3 file-6-element-192" d="M72.3,114c3.9-8.2,6.7-17,6.9-26.2c0.2-6.8-1-13.6-0.6-20.3c0.4-6.8,2.9-14,8.5-17.5
					 c4.3-2.7,9.6-2.9,14.7-3c5-0.1,10-0.2,15-0.2c6.8-0.1,14.1-0.1,19.9,3.6c3.2,2.1,5.8,5.2,7.9,8.5c10.2,15.8,11.9,35.4,15.8,54.2
					 "/>
				<path class="st3 file-6-element-193" d="M143.8,45.7c8.2,5.3,13.9,13.9,17,23.2c3.1,9.3,3.8,19.2,3.7,29c-0.1,6.7-0.5,13.5-1.3,20.1
					 c-1.2,10.4-3.4,21.1-0.3,31.1c0.1,0.4,0.2,0.8,0.4,1.2"/>
				<path class="st3 file-6-element-194" d="M60.5,114.4c-5.4-23.6,3.7-49.8,19.9-72.2"/>
				<path class="st3 file-6-element-195" d="M60.4,122.3c6.7,6.1,8.6,16.6,6.4,25.1c-3,11.3-12.9,20.1-11.8,32.5"/>
				<path class="st3 file-6-element-196" d="M38.4,199.5c0,0-0.8-32.1,4.7-42.8"/>
				<g>
					<g>
						<path class="st4 file-6-element-197" d="M97,80.9c0-0.1,0.1-0.1,0.1-0.2c0.7-1.7-0.8-3.7-2.3-4.1c-1.9-0.5-3.4,0.7-4.1,2.3
					   c-1.3,3.2-1.5,6.5-1.1,9.9c0.2,1.3,1.6,2.3,2.8,2.4c1.4,0.2,2.6-0.4,3.3-1.6C97.3,87,97.8,83.9,97,80.9z"/>
					</g>
				</g>
				<g>
					<g>
						<path class="st4 file-6-element-198" d="M140,80.9c0-0.1,0.1-0.1,0.1-0.2c0.7-1.7-0.8-3.7-2.3-4.1c-1.9-0.5-3.4,0.7-4.1,2.3
					   c-1.3,3.2-1.5,6.5-1.1,9.9c0.2,1.3,1.6,2.3,2.8,2.4c1.4,0.2,2.6-0.4,3.3-1.6C140.3,87,140.8,83.9,140,80.9z"/>
					</g>
				</g>
				<path class="st3 file-6-element-199" d="M97.3,176.7c7.4,12.2,27.6,9.1,38.1-1.5"/>
				<path class="st3 file-6-element-200" d="M103.4,171.2c7.5,6.2,20.3,4.8,29.6-1.2"/>
				<path class="st3 file-6-element-201" d="M113.1,83.8c-3.1,9.3-5.5,20.8-5.5,20.8s5.4,1.5,11.5,0.6"/>
				<path class="st3 file-6-element-202" d="M188.4,176.5c-2.7-10.6-3.3-21.4-4.5-32.1c-1.1-9.9-6.8-19-7.3-29"/>
			</g>
		</g>
		<path class="st3 file-6-element-203" d="M83.2,74.9c1.9-3,5-5.3,8.4-6.2c3.5-0.9,7.3-0.5,10.4,1.2"/>
		<path class="st3 file-6-element-204" d="M125.4,71.6c2-2.8,5.3-4.6,8.8-4.8c3.4-0.2,6.9,1.2,9.3,3.8"/>
	</g>
	<g>
		<g>
			<path class="st3 file-6-element-205" d="M514,285.8c-5.3-26.5-17.7-87.8-17.7-87.8l54.1-30.3c0,0,0.4,2.1,1.1,5.6"/>
			<polygon class="st3 file-6-element-206" points="555.2,171.7 572.4,179.3 510.4,199.8 499.4,196.2    "/>
			<path class="st3 file-6-element-207" d="M525.2,290.9c-5.1-26.2-17.5-90.1-17.5-90.1l70.9-22.7l14.8,98.3c0,0-18.6,7.2-36.1,13.9"/>
			<path class="st3 file-6-element-208" d="M514.9,290c-4.7-23.4-18.5-92-18.5-92s4.9,4.5,11.3,2.9c0,0,12.2,62.5,17.4,89.2"/>
			<path class="st3 file-6-element-209" d="M500.5,218.5c0,0,2.8,3.9,10.4,1.7"/>
			<path class="st3 file-6-element-210" d="M499.6,212.7c0,0,3.1,3.4,9.7,2.1"/>
			<path class="st3 file-6-element-211" d="M511.8,277.4c0,0,2.9,4.1,11,1.5"/>
			<path class="st3 file-6-element-212" d="M514,285.1c1.2,1,4.2,2.7,9.8,1"/>
			<g>
				<path class="st4 file-6-element-213" d="M529.5,217.5c2.7-1.1,5.5,0.3,6.2,3c0.6,2.4-0.5,5-2.4,6.3l5.8,6.1l-2,0.7l-5.6-5.9l-3.2,1.2l1.8,7.2
					 l-1.8,0.6l-4.2-17.2L529.5,217.5z M526.2,220.6l1.6,6.5l3.8-1.4c1.8-0.7,2.9-2.7,2.4-4.6c-0.5-1.8-2.2-2.7-4.1-2L526.2,220.6z"/>
				<path class="st4 file-6-element-214" d="M551.3,228.4l-1.6,0.6l-0.6-2c-0.2,1.7-1.3,3.1-3,3.8c-3.3,1.2-6-0.4-6.9-4l-1.7-6.3l1.6-0.6l1.8,6.8
					 c0.6,2.1,2.6,3.2,4.7,2.4c2-0.8,3.2-3,2.6-5.2l-1.9-6.8l1.6-0.6L551.3,228.4z"/>
				<path class="st4 file-6-element-215" d="M554.9,227.1l-1.7,0.6l-5-17.8l1.6-0.7L554.9,227.1z"/>
				<path class="st4 file-6-element-216" d="M556.3,219.6L556.3,219.6c0.8,2.7,3.4,3.9,5.7,3c1.4-0.5,2.6-1.8,3.1-3.2l1.5,1c-0.8,1.9-2.4,3.3-4.1,4
					 c-3.3,1.3-6.8-0.5-7.9-4c-1-3.6,0.8-7.4,4.1-8.8c1.5-0.6,3-0.7,4.3-0.1c1.1,0.5,2.7,1.9,3.1,3.1c0.1,0.5-0.1,1.1-0.7,1.3
					 L556.3,219.6z M564.2,214.7c-1-1.5-3.1-2.1-4.9-1.4c-1.8,0.7-3.2,2.7-3.1,4.6L564.2,214.7z"/>
				<path class="st4 file-6-element-217" d="M571.4,209.9c-0.4-0.7-1-1.2-1.9-0.9c-0.7,0.3-1.3,1-1,1.8c0.4,1.4,1.8,1.5,3,1.6c1.7,0.1,3.3,1.3,3.8,2.9
					 c0.8,2.5-0.7,4.5-2.4,5.2c-1.6,0.6-3.2,0.3-4.3-1.2l1.2-1.3c0.5,0.9,1.6,1.1,2.5,0.8c1-0.4,1.7-1.4,1.2-2.7
					 c-0.4-1.4-1.7-1.6-3.2-1.8c-1.6-0.2-3-0.9-3.5-2.6c-0.7-2.3,0.6-3.8,2-4.4c1.3-0.6,2.9-0.3,3.7,1.4L571.4,209.9z"/>
			</g>
		</g>
	</g>
	<path class="st3 file-6-element-218" d="M307.8,290.9c3-11,6.2-22,8.5-33.2c4.2-20.3,5.7-41.9-1.1-61.6c-3.3-9.6-9.2-19.1-18.6-22.9   c-10.6-4.3-23.1-0.1-31.4,7.8c-8.3,7.8-14.5,28.2-14.5,28.2c-11.4-0.9-23.2-0.8-33.6,3.8c-10.4,4.6-19.1,14.6-19.3,26   c-0.1,10.1,6.4,19.2,13.9,26c14.5,13,35.3,21.8,54.5,26"/>
	<g>
		<g>
			<g>
				<path class="st3 file-6-element-219" d="M368,131.2c-0.3,0-0.5,0-0.7,0c-11.1,0.7-20.4,5.1-30.7,9.4c-20.5,8.6-43.7,20-66.4,20
					 c-11.8,0-36.5-3.7-40.3-17.9c0.6,2.1,19.3,3.8,22,4c8.5,0.8,17.1,0.7,25.4-1.4c13.3-3.4,26-12.2,38.4-18.1
					 c15.4-7.4,32.1-16.8,49.9-17.5c5.6-0.2,12.4-0.2,19.2,0.4"/>
				<line class="st3 file-6-element-220" x1="271.4" y1="228.8" x2="271.4" y2="164.7"/>
				<polyline class="st3 file-6-element-221" points="217.5,283.9 271.7,229.1 306.9,284.1
					"/>
				<path class="st3 file-6-element-222" d="M277.1,160.4c-1.5,3.2-4.1,5.3-7,5.3c-4.6,0-8.3-5.3-8.3-11.8c0-6.5,3.7-11.8,8.3-11.8c2.1,0,4,1.1,5.4,2.9
					 "/>
				<path class="st3 file-6-element-223" d="M213.3,289.8c0.1-3.1,1.9-5.6,4.2-5.6c2.3,0,4.2,2.6,4.2,5.9c0,0,0,0.1,0,0.1"/>
				<path class="st3 file-6-element-224" d="M304.5,289.8c0.1-3.1,1.9-5.6,4.2-5.6c2.3,0,4.2,2.6,4.2,5.9c0,0,0,0.1,0,0.1"/>
				<path class="st3 file-6-element-225" d="M255.7,291c-0.6-1-0.9-2.3-0.9-3.7c0-3.3,1.9-5.9,4.2-5.9s4.2,2.6,4.2,5.9c0,1.3-0.3,2.5-0.8,3.5"/>
				<line class="st3 file-6-element-226" x1="258.9" y1="281.3" x2="271.7" y2="229.1"/>
				<path class="st3 file-6-element-227" d="M211.2,291c23.4,0,109.5,0,109.5,0c0,26.5-25.8,48-57.6,48c-26.1,0-48.2-14.5-55.3-34.3"/>
			</g>
			<g>
				<path class="st3 file-6-element-228" d="M446.6,131.3c11,0.8,20.2,5.1,30.3,9.3c20.5,8.6,43.7,20,66.4,20c11.8,0,36.5-3.7,40.3-17.9
					 c-0.6,2.1-19.3,3.8-22,4c-8.5,0.8-17.1,0.7-25.4-1.4c-13.3-3.4-26-12.2-38.4-18.1c-15.2-7.3-30.8-16.8-48.1-17.5
					 c-6.4-0.2-13,0.2-19.4,1"/>
				<line class="st3 file-6-element-229" x1="542.2" y1="228.8" x2="542.2" y2="164.7"/>
				<polyline class="st3 file-6-element-230" points="596,283.9 541.8,229.1 506.6,284.1
					"/>
				<path class="st3 file-6-element-231" d="M550.2,147.1c-1.5-3-4-5-6.8-5c-4.6,0-8.3,5.3-8.3,11.8c0,6.5,3.7,11.8,8.3,11.8c2.9,0,5.5-2.2,7-5.4"/>
				<path class="st3 file-6-element-232" d="M600.2,290c0-3.2-1.9-5.8-4.2-5.8c-2.2,0-4,2.5-4.2,5.6"/>
				<path class="st3 file-6-element-233" d="M509,290.2c0,0,0-0.1,0-0.1c0-3.3-1.9-5.9-4.2-5.9s-4.2,2.6-4.2,5.9c0,0,0,0.1,0,0.1"/>
				<path class="st3 file-6-element-234" d="M558.2,290.2c0.3-0.9,0.5-1.9,0.5-3c0-3.3-1.9-5.9-4.2-5.9s-4.2,2.6-4.2,5.9c0,1,0.2,1.9,0.5,2.8"/>
				<line class="st3 file-6-element-235" x1="554.6" y1="281.3" x2="541.8" y2="229.1"/>
				<path class="st3 file-6-element-236" d="M603.3,291c-21.8,0-110.5,0-110.5,0c0,26.5,25.8,48,57.7,48c23.3,0,43.4-11.5,52.5-28.1"/>
			</g>
		</g>
	</g>
	<path class="st3 file-6-element-237" d="M397.1,151.7c-3.5,36.3-9.7,116.1,1.4,129.6c0,0-11.5,2.5-3.6,13.6c0,0-18.3,48.5,3.6,58.3c0,0-11,8.1,0,15.6   l-39.2,43.8c0,0,10.7,7.7,27,12.1c7.3,2.1,14.4,2.9,21.1,2.9c6.7,0,13.8-0.8,21.1-2.9c16.3-4.4,27-12.1,27-12.1l-39.2-43.8   c11-7.5,0-15.6,0-15.6c21.9-9.8,3.6-58.3,3.6-58.3c7.9-11.1-3.6-13.6-3.6-13.6c11-13.5,5-92.3,1.5-128.9"/>
	<path class="st3 file-6-element-238" d="M393.7,100.5c-5.5,6.8-30.1,36.9-30.1,36.9s9.7,7.7,24.6,12.1c6.7,2.1,13.1,2.9,19.2,2.9   c6.1,0,12.5-0.8,19.2-2.9c14.9-4.4,24.6-12.1,24.6-12.1s-27-33.1-31.5-38.7"/>
	<ellipse class="st3 file-6-element-239" cx="407.4" cy="92.6" rx="15.9" ry="10.2"/>
</g>
</svg>
