<?xml version="1.0" encoding="UTF-8"?>
<!-- Generator: Adobe Illustrator 25.2.3, SVG Export Plug-In . SVG Version: 6.00 Build 0)  -->
<svg xmlns="http://www.w3.org/2000/svg" xmlns:xlink="http://www.w3.org/1999/xlink" version="1.1" id="Layer_1" x="0px" y="0px" viewBox="0 0 792 612" style="enable-background:new 0 0 792 612;" xml:space="preserve">
<style type="text/css">
	.st0{fill:#FFFFFF;}
	.st1{fill:none;stroke:#000000;stroke-width:2.5;stroke-linecap:round;stroke-linejoin:round;stroke-miterlimit:10;}
	.st2{fill:none;stroke:#231F20;stroke-width:2.5;stroke-linecap:round;stroke-linejoin:round;stroke-miterlimit:10;}
	.st3{fill:#231F20;}
</style>
<g id="White">
	<rect class="st0 file-8-element-1" width="792" height="612"/>
	<g>
		<rect x="85.8" y="530.5" class="st0 file-8-element-2" width="74.8" height="134.4"/>
		<rect x="85.8" y="393.1" class="st0 file-8-element-3" width="74.8" height="135.4"/>
		<rect x="632.7" y="530.5" class="st0 file-8-element-4" width="74.8" height="134.4"/>
		<rect x="633.7" y="392.1" class="st0 file-8-element-5" width="74.8" height="136.4"/>
		<path class="st0 file-8-element-6" d="M160.6,339.8c0-29.6,5.5-58,15.4-84.1c-17.2-3.9-49.9-11.4-73.6-16.8c-10.9,32.1-16.7,66-16.7,100.9v52.4    h74.8v-52.4H160.6z"/>
		<path class="st0 file-8-element-7" d="M261.4,146.1l-49.8-56.4c-12.1,9-23.7,19-34.6,29.9c-34.8,34.8-60.3,76.3-75.3,121.6    c19.5,3.3,52.1,9.4,74.7,13.7C193.3,210.7,223.2,172.9,261.4,146.1z"/>
		<path class="st0 file-8-element-8" d="M632.5,612.6h-473V340.4c0-130.6,105.9-236.5,236.5-236.5l0,0c130.6,0,236.5,105.9,236.5,236.5V612.6z"/>
		<path class="st0 file-8-element-9" d="M397.2,103.3L397.2,103.3V28.5c-68.7,0-134,22.1-187.8,63c14.5,15,33.2,38.1,49.2,55.2    C297,119.5,346.5,103.3,397.2,103.3z"/>
		<path class="st0 file-8-element-10" d="M632.8,339.8c0-29.6-5.5-58-15.4-84.1c17.2-3.9,49.9-11.4,73.6-16.8c10.9,32.1,16.7,66,16.7,100.9v52.4h-74.8    L632.8,339.8L632.8,339.8z"/>
		<path class="st0 file-8-element-11" d="M533,146.1l49.8-56.3c12.1,9,23.7,19,34.6,29.9c34.8,34.8,59.3,75.3,74.3,120.6    c-19.5,3.3-51.1,10.4-73.7,14.7C601.1,210.7,571.2,172.9,533,146.1z"/>
		<path class="st0 file-8-element-12" d="M396.3,103.3L396.3,103.3V28.5c68.7,0,134,22.1,187.8,63c-14.5,15-35.8,37.8-51.8,54.8    C493.8,119.2,446.9,103.3,396.3,103.3z"/>
	</g>
	<circle class="st0 file-8-element-13" cx="394.3" cy="182.9" r="109.3"/>
	<path class="st0 file-8-element-14" d="M467.2,156.6c-8.4-19.8-28.1-34-49.4-37.7s-41.5-2.2-63.9,3.1c-58,13.6-79.4,235.7-79.4,235.7   s21.4,0,18.1,10.2s20.3,14.6,24.6,17c11.9,6.8,11.1,3.3,12.6,4.5l154.6-6.8c0,0-1.5-24.9,10-24.4c11.4,0.5,19.5-11,19.5-11   S475.6,176.4,467.2,156.6z M459.2,208.4c-11,38.3-29.7,69.4-66.3,69.4c-31,0-59.8-28.1-66.3-69.4c-6-37.9,26.3-77.8,62.9-77.8   S469.8,171.5,459.2,208.4z"/>
	<path class="st0 file-8-element-15" d="M453.1,416.8c0,0-6.1-14.1-0.2-34c4-13.5,4.3-36.9,2.7-55.8c-0.6-7.5-5-21.2-7.6-32.5c0,0-15.5-16.4-44.7-16.4   c-0.2,0-0.4,0-0.5,0c-0.2,0-0.4,0-0.5,0c-29.2,0-50.2,16.4-50.2,16.4c-2.6,11.4-5.1,22.8-7.7,34.1c-4.1,18.3,0.2,34.2,5.8,53   c5.9,19.9,3.5,39.8,3.5,39.8L309.2,728c10,2.9,22.2,5.9,39.1,2.2c21.7-4.8,18.7,1.3,36,1.3c12.6,0,36.2-5.6,52.5-3.5   c3.8,3.4,11.5,0.2,20.5,2.2c16.9,3.7,33-4,43-6.9L453.1,416.8z"/>
	<path class="st0 file-8-element-16" d="M353.2,325.6c-0.2,6.3,1.5,12.9,5.6,17.7c3.8,4.4,9.2,7,14.7,8.6c9.5,2.8,19.7,3.1,29.6,2.1   c10.8-1.1,22.1-4.1,29.6-12.1c5-5.4,7.8-12.6,8.4-20c0.6-7.3-0.8-14.7-3.3-21.7c-1.4-4-3.3-7.9-6.2-10.9c-2.7-2.7-6.1-4.6-9.6-6   c-11.2-4.4-23.7-4.2-35.6-2.5c-8.9,1.2-15.4-0.4-23.8,10.9S353.5,318.6,353.2,325.6z"/>
	<path class="st0 file-8-element-17" d="M330.9,227.9c0,0,17.2,70.5,69.2,60.6c0,0,50.3-10,53.1-64.8L330.9,227.9z"/>
	<path class="st0 file-8-element-18" d="M333.4,182.9c0,0,45.9-57.4,117.9-2.4c0,0-3.8-53.2-51.1-49.8C324.5,136.1,333.4,182.9,333.4,182.9z"/>
	<path class="st0 file-8-element-19" d="M342.2,202.3c0.3-9.4-1.4-18.8-0.8-28.2s4-19.4,11.8-24.3c6-3.8,13.4-4,20.4-4.1c6.9-0.1,13.9-0.2,20.8-0.3   c9.5-0.2,19.5-0.1,27.6,5c4.5,2.9,8,7.2,10.9,11.8c21.3,32.9,15.9,77.7,34.1,112.5c1.5-24.1,7.5-35.8-3.4-72.4   c-2.5-8.3-3-17.1-5.3-24.1s1.2-15.2-3-21.2c-5.1-7.5-4.9-14.3-11.8-20.2c-22.2-19.2-61.2-19.8-88.1-8.6c-7.2,3-14.2,6.9-20.1,12.2   c-12.2,10.9-19.3,27-22.4,43.3s-2.7,33.2-2.3,49.8c0.1,5.3,0.3,10.6,0.4,15.9c0.1,3.2-1.4,13.3,0.4,15.8   c4.7,6.7,10.8-7.3,13.2-11.3C333.8,238.1,341.9,220.8,342.2,202.3z"/>
	<polygon class="st0 file-8-element-20" points="350.8,411.1 418.7,373 445,509.2 376,536.5  "/>
	<polygon class="st0 file-8-element-21" points="424.7,378.2 446.3,387.7 368.4,413.5 354.5,409  "/>
	<path class="st0 file-8-element-22" d="M350.8,411.1c0,0,6.2,5.7,14.2,3.6l24.7,127c0,0-11.1,2.7-13.6-5.2L350.8,411.1z"/>
	<polygon class="st0 file-8-element-23" points="364.9,414.7 454,386.2 472.5,509.7 389.6,541.7  "/>
	<polygon class="st0 file-8-element-24" points="430.4,430.6 422.5,432.2 419.6,418.7 410,420.8 412.9,434.3 405,436 407.1,445.8 415,444.1    420.8,470.5 430.5,467.4 424.6,442 432.5,440.3  "/>
	<path class="st0 file-8-element-25" d="M390.2,416c5.2,2.7,11.3,5.5,12.1,4.5c1.2-1.5-9.8-10.1-16.1-13.6c-2.9-2.1-7.1-4.4-11.8-6.3   c0.7-0.2,1.2-0.4,1.4-0.5c2.2-0.4,5.1-5.2,4.3-6.7c-0.8-1.5-9.5,2-15.7,1c-4-0.6-7.2,0-9.7,1c-3-0.2-5.5,0.1-6.9,1.1l-0.1,0.1   l-43.3-7.9l-5.1,27.1l40.5-1c1.1,2.2,3.5,3.8,6.5,4.9c13.5,5,30.8,10.2,30.8,10.2s19.8,9.3,20.9,7.8s-14.5-12.7-18.7-14.3   c0.7,0.2,1.4,0.3,1.4,0.3s21.6,12,23,10.3c0.9-1-5.7-6.4-12.1-10.7c7.3,3.8,15.8,7.9,16.6,6.9C409,429,398.2,421,390.2,416z"/>
	<path class="st0 file-8-element-26" d="M315.3,374c9.6-5.8,19.1-11.9,28.8-18.2c-0.7-1.5-0.9-3.2-1-4.8c-0.2-2.3-0.2-4.6-0.1-6.9   c0.2-4.3,0.9-8.6,1.2-12.9c0.3-4,0.9-7.9,1.9-11.9c1.9-7.7,4.6-15.2,4.7-23.2c0-0.5,0.2-0.9,0.4-1.1c0-0.1,0-0.3,0.1-0.4   c-1.8,0.7-3.3,1.6-4.4,2.4c-2.5,1.9-103.3,48.6-105.5,79.5c-5.8,13.1,36.3,40.1,46.3,43.8s67.1,22.5,67.1,22.5s16.7-37.9,2-53.3   C356.3,389,337.6,380.8,315.3,374z"/>
	<path class="st0 file-8-element-27" d="M444.9,515.9l25.3-36l-22.5-16l-16,37.2c-0.6,0-1.2,0.1-1.8,0.3c-2.7-0.6-8.5-1-14.5,3.4   c-5.1,3.8-14.4,4.6-14.4,6.4c0,1.7,4.8,4.7,6.9,4c0.8-0.2,4-0.4,7.9-1.1c-7.2,7.7-13.4,14.6-13.4,14.6l0,0c0,0-16.7,14-15.9,15.7   c0.9,1.6,17.6-7.9,20.8-11c-0.5,0.6-0.9,1.1-0.9,1.1s-19.9,14.6-19,16.6c0.6,1.2,8.1-2.5,14.8-6.5c-6.5,5.1-13.8,11-13.2,12.2   c0.7,1.4,12.5-5,20.4-10.2c-4.6,3.6-9.8,8-9.2,9.1c0.8,1.7,13.3-4.6,19.1-8.9c10-5.5,26.9-23.5,25.5-30.5   C444.9,516,444.9,515.9,444.9,515.9z"/>
	<path class="st0 file-8-element-28" d="M513.6,417.4c-3.3-36.5-55.9-111.6-57.2-114.1c-1.5-2.7-4.9-6.1-8.7-8.8c0.1,0.4,0.2,0.8,0.3,1.2   c0.4,0.2,0.8,0.5,0.9,1.2c1.7,8.1,3.5,16.1,4.9,24.3c2.5,14.3,3.9,28.9,2.5,43.5c-0.6,6.5-1.6,13.3-3.9,19.5   c-0.1,0.3-0.3,0.6-0.4,1c0.2,0,0.4-0.1,0.6-0.1c0.7,0,1.6,0.6,1.8,1.3c0.7,4.4,1,8.9,1,13.4c0,0.1,0,0.3,0,0.4   c5.8,8.6,11.8,17.1,18.2,25.1c-23.6,22.6-46.9,62-47.1,62.8c-5.2,33.6,34.1,44.6,34.1,44.6s34.1-50,40.2-58.8   C506.2,466.1,522.4,433.4,513.6,417.4z"/>
	<path class="st0 file-8-element-29" d="M456.4,531.1c-4-1-7.7-3-11.4-4.7c-5.6,39.4-12,78.6-19.3,117.5c-0.6,3.4,1.6,6.6,4.9,7.2   c0.4,0.1,0.8,0.1,1.1,0.1c2.9,0,5.5-2.1,6.1-5c7.1-38,13.5-76.4,19-115C456.7,531.2,456.5,531.2,456.4,531.1z"/>
	<path class="st0 file-8-element-30" d="M574.9,270.8c-0.6-18.5-18.7-31.3-35.2-31.7c-8.5-0.2-25.2,2.2-42,20.3c-12.6,13.5-21.7,31.7-27.2,54   c-4.5,18.1-6,36.9-7.6,55l-0.3,3.3c-2.1,24.4-4.5,48.8-7.2,73.2c1.4-0.8,2.9-1.6,4.2-2.5c0-0.3,0.1-0.6,0.2-0.8   c1.2-1.9,2.8-3.3,4.5-4.8c1.6-1.4,3-2.8,4-4.6c0.2-0.5,0.6-0.8,1.1-0.9c2.1-19.5,4-39.1,5.6-58.6l0.3-3.4c1.5-17.6,3-35.9,7.2-53.1   c5-20.2,13.1-36.5,24.2-48.5c9.9-10.6,21.8-16.6,32.7-16.4c13.3,0.3,22.8,10.6,23.1,19.7c0.3,10.5-8.7,19.8-17.2,27.6   c-7.2,6.7-14.9,12.6-22.2,11.2c-4.5-0.9-8.4-5.4-8.6-10s3.1-9.5,7.5-10.9c3.3-1,5.1-4.5,4-7.8c-1-3.3-4.5-5.1-7.8-4   c-9.7,3.1-16.7,13.1-16.1,23.3c0.6,10.2,8.5,19.4,18.6,21.4c12.8,2.6,23.9-5.8,33-14.2C565,297.4,575.3,285.7,574.9,270.8z"/>
	<g>
		<path class="st0 file-8-element-31" d="M333,352.6c-3.4-2-5.8-5.8-8.8-8.4c-4.7-4.1-10.1-7.9-15.5-11.1c-8.2-4.8-18.6-9.2-27.9-11.2    c-16.6-3.7-35.3-4-52-1c-10.7,2-21.1,4.4-31.4,7.8c-5.8,1.9-15.6,5.4-19.3,10.1c12.2,8.5,28.2,8.4,42.4,8.6    c15.7,0.2,31.5,1.8,47-1.5c2-0.4,4.5-1.8,6.4-1.5c5.2,0.7,12,5,17.2,6.7c10.3,3.4,19,6.7,29.7,7.9L333,352.6z"/>
		<path class="st0 file-8-element-32" d="M328.7,349.7c3.4-2,5.8-5.8,8.8-8.4c4.7-4.1,10.1-7.9,15.5-11.1c8.2-4.8,18.6-9.2,27.9-11.2    c16.6-3.7,35.3-4,52-1c10.7,2,21.1,4.4,31.4,7.8c5.8,1.9,15.6,5.4,19.3,10.1c-12.2,8.5-28.2,8.4-42.5,8.6    c-15.7,0.2-31.5,1.8-47-1.5c-2-0.4-4.5-1.8-6.4-1.5c-5.2,0.7-12,5-17.2,6.7c-10.3,3.4-19,6.7-29.7,7.9L328.7,349.7z"/>
		<path class="st0 file-8-element-33" d="M319.8,376c7.5,1.4,14.3,4.6,21.5,6.8c5.6,1.7,11.3,3.4,16.5,6c-0.5-12.4-2.5-37.5-9.8-47.4    c-9.9-13.3,0.3-14-21.5-15.5c-13.6-0.9-15.1,16-15,25.8c0.1,8.5,2.8,17,7.4,24.2C319.2,376,319.5,375.9,319.8,376z"/>
		<path class="st0 file-8-element-34" d="M317,326.6c0.5-13.6,12.4-16.3,22.9-10.1c2.9,1.7,5.5,4.1,6.9,7.2c2.1,4.6,0.9,9.9-2.9,13.2    C336.2,343.5,316.6,338.5,317,326.6z"/>
		<polygon class="st0 file-8-element-35" points="348.5,325.3 361.9,333.7 346.7,333.5   "/>
		<path class="st0 file-8-element-36" d="M331.6,320.5c-2.7,0-2.7,4.2,0,4.2C334.3,324.7,334.3,320.5,331.6,320.5z"/>
	</g>
	<path class="st0 file-8-element-37" d="M438.1,171.4c-47.6-28.8-82-8.8-96.8,3.6c-0.4,9.1,1.1,18.1,0.9,27.2c-0.2,11.3-3.3,22.1-7.8,32.4   c12.1,26.5,34.6,43.2,58.5,43.2c30.4,0,48.4-21.5,59.9-50.6C449.3,208,446.3,188.5,438.1,171.4z"/>
</g>
<g id="Blacklines">
	<g>
		<g>
			<g>
				<g>
					<path class="st1 file-8-element-38" d="M84.5,612.7c0-127.4,0-272.7,0-272.7c0-83.2,32.4-161.4,91.2-220.3S312.8,28.5,396,28.5
					  s161.4,32.4,220.3,91.2s91.2,137.1,91.2,220.3c0,0,0,138.2,0,278.1"/>
					<path class="st1 file-8-element-39" d="M483.7,120.1c87.3,34.8,149,120.2,149,219.9c0,0,0,134.6,0,272.7"/>
					<path class="st1 file-8-element-40" d="M159.3,611.7c0-137.7,0-271.7,0-271.7c0-97.6,59.1-181.4,143.5-217.6"/>
				</g>
				<path class="st1 file-8-element-41" d="M396,28.5c0,0,0,23.9,0,44.6"/>
				<g>
					<g>
						<path class="st1 file-8-element-42" d="M209.7,90.4c5.1,5.9,48.8,56.2,48.8,56.2"/>
						<g>
							<path class="st1 file-8-element-43" d="M100.9,239.8c9,1.9,73,15.5,73,15.5"/>
							<path class="st1 file-8-element-44" d="M84.8,392.4c10.3,0,73.4,0,73.4,0"/>
							<path class="st1 file-8-element-45" d="M85.3,529.4c11.6,0,73,0,73,0"/>
						</g>
					</g>
					<g>
						<path class="st1 file-8-element-46" d="M582.5,90.2c-4.3,5-49,56.4-49,56.4"/>
						<g>
							<path class="st1 file-8-element-47" d="M690.8,239.9c-9.9,2.1-72.7,15.4-72.7,15.4"/>
							<path class="st1 file-8-element-48" d="M707,392.4c-10.8,0-73.3,0-73.3,0"/>
							<path class="st1 file-8-element-49" d="M707.7,529.4c-8.6,0-73.9,0-73.9,0"/>
						</g>
					</g>
				</g>
			</g>
		</g>
	</g>
	<path class="st1 file-8-element-50" d="M295.2,229.3c-6.6-14.1-10.3-29.8-10.3-46.4c0-60.4,49-109.3,109.3-109.3s109.3,48.9,109.3,109.3   c0,20.1-5.4,38.9-14.9,55.1"/>
	<g>
		<g>
			<path class="st1 file-8-element-51" d="M279,321.1c8.9-63.7,31.8-189,74.9-199.1c22.3-5.2,42.5-6.8,63.9-3.1c21.4,3.7,41,17.9,49.4,37.7
					c4.3,10.1,16.4,59.7,27.3,105.7"/>
			<path class="st1 file-8-element-52" d="M498.4,279c1.4,5.8,2.7,11.5,3.9,16.9"/>
			<path class="st1 file-8-element-53" d="M506.1,312.4c4.7,20.7,7.9,34.8,7.9,34.8s-11,11.4-22.2,11"/>
			<path class="st1 file-8-element-54" d="M316.1,250.2c9.3,8.4,12,23,8.9,34.8c-2.8,10.9-10.3,20-14.2,30.4"/>
			<path class="st1 file-8-element-55" d="M286.7,322.9c0.9-9.9,2.6-19.4,5.4-24.9"/>
			<path class="st1 file-8-element-56" d="M493.7,325.5c-2.5-9.7-3.7-19.5-4.7-29.4"/>
			<path class="st1 file-8-element-57" d="M486,274c-2.8-10.8-8-22.2-8.6-33.4"/>
		</g>
	</g>
	<path class="st1 file-8-element-58" d="M241.4,376.1c1.3-8.6,9.9-19.3,21.6-28.9"/>
	<path class="st1 file-8-element-59" d="M293.7,325.9c25.9-15.8,56.9-30.6,57.4-30.9"/>
	<path class="st1 file-8-element-60" d="M470.7,421.5c1.4,1.8,2.9,3.6,4.3,5.4"/>
	<path class="st1 file-8-element-61" d="M513.5,416.2c-2.4-20.5-19.4-52.3-34.2-77"/>
	<path class="st1 file-8-element-62" d="M468.2,321.3c-6.6-10.4-11.4-17.3-11.8-18c-1-1.9-5-6.1-7.4-8.2"/>
	<path class="st1 file-8-element-63" d="M368.9,285.8c-9.4,4.2-17,8.6-17,8.6c-1.9,8.5-4.9,18.1-6.8,26.6"/>
	<path class="st1 file-8-element-64" d="M350.5,442.6c-10,69.5-41.2,285.4-41.2,285.4c10,2.9,22.2,5.9,39.1,2.2c21.7-4.8,18.7,1.3,36,1.3   c12.6,0,36.2-5.6,52.5-3.5c3.8,3.4,11.5,0.2,20.5,2.2c16.9,3.7,33-4,43-6.9c0,0-17.4-113.4-31.1-202.3"/>
	<path class="st1 file-8-element-65" d="M451.9,386.5c0.3-1.2,0.6-2.5,1-3.8c2.8-9.4,3.8-23.6,3.6-37.7"/>
	<path class="st1 file-8-element-66" d="M455,322.8c-1.4-7.8-4.8-18.9-7-28.4c0,0-9.8-10.3-26.6-14.9"/>
	<path class="st1 file-8-element-67" d="M366.7,287.1c-1.4,1.2-2.7,2.8-4.2,4.7c-8.4,11.3-9.1,26.7-9.3,33.8c0,0.7,0,1.5,0,2.2"/>
	<path class="st1 file-8-element-68" d="M368.1,350c1.8,0.8,3.6,1.5,5.5,2c9.5,2.8,19.7,3.1,29.6,2.1c9.4-1,19.1-3.3,26.4-9.1"/>
	<path class="st1 file-8-element-69" d="M441.2,319.1c0.1-6.4-1.2-12.7-3.4-18.7c-1.4-4-3.3-7.9-6.2-10.9c-2.7-2.7-6.1-4.6-9.6-6   c-0.9-0.3-2.8-0.7-3.6-1"/>
	<path class="st1 file-8-element-70" d="M417.9,296.6c-0.2-1.6-1-7.4-1.9-13.4"/>
	<path class="st1 file-8-element-71" d="M374.2,287.4c0,5.5,0,10.7,0,12"/>
	<path class="st1 file-8-element-72" d="M330.9,227.9L330.9,227.9c-0.1,0,17.1,70.5,69.2,60.6c0,0,49.9-9.9,53-63.9"/>
	<path class="st1 file-8-element-73" d="M454.1,223.8c-11.5,30.9-29.7,54-61.2,54c-23.8,0-46.3-16.6-58.4-43"/>
	<path class="st2 file-8-element-74" d="M373.7,247.4c0,0,15,8.2,28,0"/>
	<path class="st1 file-8-element-75" d="M341.3,175.1c14.7-12.4,49.1-32.4,96.6-3.8"/>
	<path class="st1 file-8-element-76" d="M334,235.7c4.7-10.6,8-21.8,8.2-33.4c0.3-9.4-1.4-18.8-0.8-28.2s4-19.4,11.8-24.3c6-3.8,13.4-4,20.4-4.1   c6.9-0.1,13.9-0.2,20.8-0.3c9.5-0.2,19.5-0.1,27.6,5c4.5,2.9,8,7.2,10.9,11.8c12.3,19,15.7,42,19.9,64.8"/>
	<path class="st1 file-8-element-77" d="M431.9,143.8c11.4,7.3,19.3,19.3,23.6,32.2c4.3,12.9,5.3,26.6,5.2,40.2c-0.1,9.4-0.7,18.7-1.8,28   c-1.7,14.4-4.7,29.3-0.5,43.2c0.2,0.5,0.3,1.1,0.5,1.6"/>
	<path class="st1 file-8-element-78" d="M316.2,239.2c-7.5-32.8,5.2-69.1,27.7-100.3"/>
	<g>
		<g>
			<path class="st3 file-8-element-79" d="M366.9,192.8c0-0.1,0.1-0.2,0.1-0.3c1-2.3-1-5.1-3.2-5.7c-2.7-0.7-4.7,0.9-5.7,3.2c-1.9,4.4-2.1,9-1.5,13.7
					c0.2,1.8,2.3,3.1,3.9,3.3c1.9,0.2,3.6-0.6,4.6-2.2C367.4,201.2,368,196.9,366.9,192.8z"/>
		</g>
	</g>
	<g>
		<g>
			<path class="st3 file-8-element-80" d="M426.6,192.8c0-0.1,0.1-0.2,0.1-0.3c1-2.3-1-5.1-3.2-5.7c-2.7-0.7-4.7,0.9-5.7,3.2c-1.9,4.4-2.1,9-1.5,13.7
					c0.2,1.8,2.3,3.1,3.9,3.3c1.9,0.2,3.6-0.6,4.6-2.2C427,201.2,427.6,196.9,426.6,192.8z"/>
		</g>
	</g>
	<path class="st1 file-8-element-81" d="M389.2,196.8c-4.3,12.9-7.7,28.9-7.7,28.9s7.6,2.1,16,0.9"/>
	<path class="st1 file-8-element-82" d="M348.8,181.8c2-4,5.8-7,10.1-8.1c4.3-1.1,9.1-0.2,12.7,2.4"/>
	<path class="st1 file-8-element-83" d="M410.1,179.1c3.3-3,7.9-4.7,12.3-4.5s8.9,2.2,11.9,5.5"/>
	<path class="st1 file-8-element-84" d="M467.6,326.9c0.8-4.5,1.7-9.1,2.8-13.6c5.5-22.3,14.6-40.5,27.2-54c16.8-18.1,33.6-20.5,42-20.3   c16.5,0.4,34.6,13.2,35.2,31.7c0.5,14.9-9.9,26.6-21.2,37.1c-9.1,8.5-20.2,16.8-33,14.2c-10-2-18-11.2-18.6-21.4   c-0.6-10.2,6.4-20.2,16.1-23.3c3.3-1,6.7,0.8,7.8,4c1,3.3-0.8,6.7-4,7.8c-4.4,1.4-7.7,6.3-7.5,10.9s4.1,9.1,8.6,10   c7.3,1.5,15-4.5,22.2-11.2c8.5-7.9,17.6-17.2,17.2-27.6c-0.3-9.1-9.8-19.4-23.1-19.7c-10.9-0.2-22.8,5.7-32.7,16.4   c-11.1,12-19.3,28.3-24.2,48.5c-1.3,5.2-2.3,10.6-3.2,16"/>
	<path class="st1 file-8-element-85" d="M478.2,339.5c-1.3,9.9-2.2,20-3,29.8l-0.3,3.4c-1.6,19-3.4,38.1-5.5,57.2"/>
	<path class="st1 file-8-element-86" d="M456.6,532.3c-5.5,38.2-11.8,76.2-18.9,113.8c-0.6,3-3.1,5-6.1,5c-0.4,0-0.8,0-1.1-0.1   c-3.4-0.6-5.6-3.9-4.9-7.2c7.3-38.7,13.7-77.8,19.3-117"/>
	<path class="st1 file-8-element-87" d="M455.2,446.3c2.8-24.9,5.3-49.8,7.4-74.7l0.3-3.3c0.7-8.2,1.4-16.6,2.4-25"/>
	<g>
		<path class="st1 file-8-element-88" d="M313.3,336c-1.5-1-3-1.9-4.5-2.8c-8.2-4.8-18.6-9.2-27.9-11.2c-16.6-3.7-35.3-4-52-1    c-10.7,2-21.1,4.4-31.4,7.8c-5.8,1.9-15.6,5.4-19.3,10.1c12.2,8.5,28.2,8.4,42.4,8.6c15.7,0.2,31.5,1.8,47-1.5    c2-0.4,4.5-1.8,6.4-1.5c5.2,0.7,12,5,17.2,6.7c7.3,2.4,13.8,4.8,20.7,6.4"/>
		<path class="st1 file-8-element-89" d="M355.3,328.9c7.8-4.3,17.1-8,25.5-9.9c16.6-3.7,35.3-4,52-1c10.7,2,21.1,4.4,31.4,7.8    c5.8,1.9,15.6,5.4,19.3,10.1c-12.2,8.5-28.2,8.4-42.5,8.6c-15.7,0.2-31.5,1.8-47-1.5c-2-0.4-4.5-1.8-6.4-1.5    c-5.2,0.7-12,5-17.2,6.7c-5.7,1.9-11,3.8-16.3,5.2"/>
		<path class="st1 file-8-element-90" d="M317.1,329.5c-5,5.3-5.7,15.5-5.6,22.4c0.1,7.9,2.4,15.8,6.5,22.6"/>
		<path class="st1 file-8-element-91" d="M357.9,390.8c-0.4-11.6-2.1-38.9-9.9-49.3c-1.4-1.8-2.3-3.4-3.1-4.8"/>
		<path class="st1 file-8-element-92" d="M317,326.6c0.5-13.6,12.4-16.3,22.9-10.1c2.9,1.7,5.5,4.1,6.9,7.2c2.1,4.6,0.9,9.9-2.9,13.2    C336.2,343.5,316.6,338.5,317,326.6z"/>
		<path class="st1 file-8-element-93" d="M347.5,325.3l14.4,8.4l-15.2-0.2c0,0,0-0.1,0-0.2"/>
		<path d="M331.6,320.5c-2.7,0-2.7,4.2,0,4.2C334.3,324.7,334.3,320.5,331.6,320.5z" class="undefined file-8-element-94"/>
	</g>
	<g>
		<g>
			<path class="st1 file-8-element-95" d="M375.6,534.3c-2.2-10.9-12.3-61.2-18.9-94"/>
			<path class="st1 file-8-element-96" d="M380.4,394.5c18.3-10.3,38.3-21.5,38.3-21.5s0.4,1.9,1,5.2"/>
			<path class="st1 file-8-element-97" d="M379.5,398l45.2-19.9l21.6,9.5c0,0-35.5,11.7-58.5,19.4"/>
			<path class="st1 file-8-element-98" d="M389.4,540.3c-2.1-11-16.2-83.3-22-112.9"/>
			<path class="st1 file-8-element-99" d="M387.4,407.5c26.4-8.5,66.6-21.4,66.6-21.4s1.9,12.5,4.4,29.5"/>
			<path class="st1 file-8-element-100" d="M367.5,427.7c6.3,32.3,22.2,114,22.2,114s-11.1,2.7-13.6-5.2c0,0-12-59.7-19.5-96.7"/>
			<path class="st1 file-8-element-101" d="M356.8,437.8c1.5,1.3,5.3,3.4,12.3,1.3"/>
			<path class="st1 file-8-element-102" d="M358.5,431.9c2,0.7,4.8,1.1,8.5,0.4"/>
			<path class="st1 file-8-element-103" d="M371.7,512.3c1.9,1.3,5.8,2.7,12.2,0.5"/>
			<path class="st1 file-8-element-104" d="M372.9,520.6c1.5,1.3,5.3,3.3,12.3,1.2"/>
		</g>
		<polygon class="st1 file-8-element-105" points="430.4,429.9 422.5,431.7 419.6,418.7 410,420.8 412.9,434 405,436 407.1,445.6 415,443.5
					420.8,469.6 430.5,466.6 424.6,441 432.5,439   "/>
	</g>
	<g>
		<g>
			<path class="st1 file-8-element-106" d="M383.5,405.7c5,1.6,20.2,13.1,18.8,14.8c-1.4,1.7-18.3-7.8-19.6-8.5"/>
			<path class="st1 file-8-element-107" d="M383.6,412.3c6.2,2.6,25.8,16.3,24.5,17.9s-24.3-11-27.2-12.6"/>
			<path class="st1 file-8-element-108" d="M381.3,417.5c4.9,1.4,23.6,14.8,22.2,16.5s-23-10.3-23-10.3s-3-0.6-3-0.7"/>
			<path class="st1 file-8-element-109" d="M378.9,423.4c3.8,1.2,20,12.9,19,14.4c-1.1,1.5-20.9-7.8-20.9-7.8"/>
		</g>
		<path class="st1 file-8-element-110" d="M360.1,394.2c1.3-0.1,2.8,0,4.3,0.2c6.2,1,14.9-2.5,15.7-1s-2.1,6.4-4.3,6.7c-0.1,0-0.2,0-0.3,0.1"/>
		<g>
			<path class="st1 file-8-element-111" d="M387.1,407.6c-5.2-4.4-16.9-9.3-26.3-11.3"/>
			<path class="st1 file-8-element-112" d="M361.4,425c8.6,2.8,15.5,4.9,15.5,4.9"/>
		</g>
	</g>
	<g>
		<path class="st1 file-8-element-113" d="M241.3,376.4c-4.2,13.8,36.3,40.1,46.3,43.8s67.1,22.5,67.1,22.5s16.7-37.9,2-53.3    c-0.4-0.4-27.4-11.5-48.9-18.2"/>
	</g>
	<g>
		<g>
			<g>
				<path class="st1 file-8-element-114" d="M421.6,544.6c-3.5,3.9-20.4,12.9-21.3,10.9c-1-1.9,14.7-13.3,16-14.2"/>
				<path class="st1 file-8-element-115" d="M415.6,541.9c-5,4.6-25.6,16.6-26.5,14.7c-0.9-1.9,20.1-17.4,22.8-19.4"/>
				<path class="st1 file-8-element-116" d="M411.8,537.7c-3.3,3.8-23.4,15.3-24.3,13.3c-1-2,19-16.6,19-16.6s1.9-2.5,1.9-2.4"/>
				<path class="st1 file-8-element-117" d="M407.5,533c-2.7,3-20.1,12.8-21,11.2s15.9-15.7,15.9-15.7"/>
			</g>
			<path class="st1 file-8-element-118" d="M426,501c-3,0-6.8,0.9-10.6,3.7c-5.1,3.8-14.4,4.6-14.4,6.4c0,1.8,4.8,4.7,6.9,4c0.7-0.2,3.8-0.4,7.6-1.1"/>
			<g>
				<path class="st1 file-8-element-119" d="M419.7,546.4c7.1-4,17.4-14,22.4-22"/>
				<path class="st1 file-8-element-120" d="M427.2,502.7c-0.9,0.6-1.8,1.4-2.6,2.2c-10.2,10.2-22.2,23.7-22.2,23.7"/>
			</g>
		</g>
		<g>
			<path class="st1 file-8-element-121" d="M513.7,417.6c8.6,16.1-7.5,48.6-12.8,56.2c-6.1,8.8-40.2,58.1-40.2,58.1s-32.4-2.9-34.7-41.7
					c-0.1-2,26.4-41.3,47.1-64.5"/>
		</g>
	</g>
</g>
</svg>
