<?xml version="1.0" encoding="UTF-8"?>
<!-- Generator: Adobe Illustrator 25.2.3, SVG Export Plug-In . SVG Version: 6.00 Build 0)  -->
<svg xmlns="http://www.w3.org/2000/svg" xmlns:xlink="http://www.w3.org/1999/xlink" version="1.1" id="Layer_1" x="0px" y="0px" viewBox="0 0 792 612" style="enable-background:new 0 0 792 612;" xml:space="preserve">
<style type="text/css">
	.st0{fill:#FFFFFF;}
	.st1{fill:none;stroke:#000000;stroke-width:2.5;stroke-miterlimit:10;}
	.st2{fill:none;stroke:#000000;stroke-width:0.5685;stroke-miterlimit:10;}
	.st3{fill:none;stroke:#000000;stroke-width:2.5;stroke-linecap:round;stroke-linejoin:round;stroke-miterlimit:10;}
	.st4{fill:none;}
	.st5{fill:none;stroke:#000000;stroke-miterlimit:10;}
	.st6{fill:none;stroke:#000000;stroke-width:1.38;stroke-linecap:round;stroke-linejoin:round;stroke-miterlimit:10;}
</style>
<g id="white">
	<rect x="-29.9" y="-23.9" class="st0 file-5-element-1" width="843.5" height="353.6"/>
	<g>
		<rect x="90.9" y="304.2" class="st0 file-5-element-2" width="32.6" height="58.4"/>
		<rect x="90.9" y="244" class="st0 file-5-element-3" width="32.6" height="58.5"/>
		<rect x="90.9" y="183.8" class="st0 file-5-element-4" width="32.6" height="58.5"/>
		<path class="st0 file-5-element-5" d="M90.4,378.3h-205.9V156.6c0-54.4,44.1-98.5,98.5-98.5h8.9c54.4,0,98.5,44.1,98.5,98.5L90.4,378.3L90.4,378.3z    "/>
		<path class="st0 file-5-element-6" d="M90.9,161c0-12.9-2.4-25.2-6.7-36.6c7.5-1.7,21.7-5,32-7.3c4.8,13.9,7.2,28.7,7.2,43.9v22.8H90.9V161z"/>
		<path class="st0 file-5-element-7" d="M47.1,76.7l21.7-24.5c5.3,3.9,10.3,8.3,15.1,13c15.1,15.1,26.2,33.2,32.8,52.9c-8.5,1.4-22.7,4.1-32.5,5.9    C76.7,104.8,63.7,88.4,47.1,76.7z"/>
		<path class="st0 file-5-element-8" d="M-12,58.1L-12,58.1V25.5c29.9,0,58.3,9.6,81.7,27.4c-6.3,6.5-15.6,16.4-22.5,23.9C30.4,65,10,58.1-12,58.1z"/>
	</g>
	<g>
		<rect x="124.5" y="304.2" class="st0 file-5-element-9" width="32.6" height="58.4"/>
		<rect x="124.5" y="244" class="st0 file-5-element-10" width="32.6" height="58.5"/>
		<rect x="124.5" y="183.8" class="st0 file-5-element-11" width="32.6" height="58.5"/>
		<rect x="363.4" y="304.2" class="st0 file-5-element-12" width="32.6" height="58.4"/>
		<rect x="363.4" y="244" class="st0 file-5-element-13" width="32.6" height="58.5"/>
		<rect x="363.4" y="183.8" class="st0 file-5-element-14" width="32.6" height="58.5"/>
		<path class="st0 file-5-element-15" d="M157.1,161c0-12.9,2.4-25.2,6.7-36.6c-7.5-1.7-21.7-5-32-7.3c-4.8,13.9-7.2,28.7-7.2,43.9v22.8h32.6V161z"/>
		<path class="st0 file-5-element-16" d="M200.9,76.7l-21.7-24.5c-5.3,3.9-10.3,8.3-15.1,13c-15.1,15.1-26.2,33.2-32.8,52.9c8.5,1.4,22.7,4.1,32.5,5.9    C171.3,104.8,184.3,88.4,200.9,76.7z"/>
		<path class="st0 file-5-element-17" d="M362.9,378.3H157.1V156.6c0-54.4,44.1-98.5,98.5-98.5h8.9c54.4,0,98.5,44.1,98.5,98.5V378.3z"/>
		<path class="st0 file-5-element-18" d="M260,58.1L260,58.1V25.5c-29.9,0-58.3,9.6-81.7,27.4c6.3,6.5,15.6,16.4,22.6,23.9C217.6,65,238,58.1,260,58.1    z"/>
		<path class="st0 file-5-element-19" d="M363.4,161c0-12.9-2.4-25.2-6.7-36.6c7.5-1.7,21.7-5,32-7.3c4.8,13.9,7.2,28.7,7.2,43.9v22.8h-32.6V161z"/>
		<path class="st0 file-5-element-20" d="M319.6,76.7l21.7-24.5c5.3,3.9,10.3,8.3,15,13c15.1,15.1,26.2,33.2,32.8,52.9c-8.5,1.4-22.7,4.1-32.5,5.9    C349.2,104.8,336.2,88.4,319.6,76.7z"/>
		<path class="st0 file-5-element-21" d="M260.5,58.1L260.5,58.1V25.5c29.9,0,58.3,9.6,81.7,27.4c-6.3,6.5-15.6,16.4-22.5,23.9    C302.9,65,282.5,58.1,260.5,58.1z"/>
	</g>
	<g>
		<rect x="397" y="304.2" class="st0 file-5-element-22" width="32.6" height="58.4"/>
		<rect x="397" y="244" class="st0 file-5-element-23" width="32.6" height="58.5"/>
		<rect x="397" y="183.8" class="st0 file-5-element-24" width="32.6" height="58.5"/>
		<rect x="635.9" y="244" class="st0 file-5-element-25" width="32.6" height="58.5"/>
		<path class="st0 file-5-element-26" d="M429.5,161c0-12.9,2.4-25.2,6.7-36.6c-7.5-1.7-21.7-5-32-7.3c-4.8,13.9-7.2,28.7-7.2,43.9v22.8h32.6V161z"/>
		<path class="st0 file-5-element-27" d="M473.4,76.7l-21.7-24.5c-5.3,3.9-10.3,8.3-15,13c-15.1,15.1-26.2,33.2-32.8,52.9c8.5,1.4,22.7,4.1,32.5,5.9    C443.8,104.8,456.8,88.4,473.4,76.7z"/>
		<path class="st0 file-5-element-28" d="M635.4,378.3H429.5V156.6c0-54.4,44.1-98.5,98.5-98.5h8.8c54.4,0,98.5,44.1,98.5,98.5L635.4,378.3    L635.4,378.3z"/>
		<path class="st0 file-5-element-29" d="M532.5,58.1L532.5,58.1V25.5c-29.9,0-58.3,9.6-81.7,27.4c6.3,6.5,15.6,16.4,22.5,23.9    C490,65,510.4,58.1,532.5,58.1z"/>
		<path class="st0 file-5-element-30" d="M592,76.7l21.7-24.5c5.3,3.9,10.3,8.3,15,13c15.1,15.1,26.2,33.2,32.8,52.9c-8.5,1.4-22.7,4.1-32.5,5.9    C621.7,104.8,608.7,88.4,592,76.7z"/>
		<path class="st0 file-5-element-31" d="M533,58.1L533,58.1V25.5c29.9,0,58.3,9.6,81.7,27.4c-6.3,6.5-15.6,16.4-22.5,23.9C575.4,65,555,58.1,533,58.1    z"/>
	</g>
	<g>
		<rect x="669.5" y="304.2" class="st0 file-5-element-32" width="32.6" height="58.4"/>
		<rect x="669.5" y="244" class="st0 file-5-element-33" width="32.6" height="58.5"/>
		<path class="st0 file-5-element-34" d="M745.9,76.7l-21.7-24.5c-5.3,3.9-10.3,8.3-15,13c-15.1,15.1-26.2,33.2-32.8,52.9c8.5,1.4,22.7,4.1,32.5,5.9    C716.2,104.8,729.3,88.4,745.9,76.7z"/>
		<path class="st0 file-5-element-35" d="M907.9,378.3H702V156.6c0-54.4,44.1-98.5,98.5-98.5h8.8c54.4,0,98.5,44.1,98.5,98.5V378.3z"/>
		<path class="st0 file-5-element-36" d="M805,58.1L805,58.1V25.5c-29.9,0-58.3,9.6-81.7,27.4c6.3,6.5,15.6,16.4,22.5,23.9    C762.5,65,782.9,58.1,805,58.1z"/>
	</g>
	<rect x="89.8" y="172.7" class="st0 file-5-element-37" width="69.7" height="205.6"/>
	<polygon class="st0 file-5-element-38" points="160.2,172.7 89.1,172.7 74.9,145.6 174.4,145.6  "/>
	<rect x="362.1" y="172.7" class="st0 file-5-element-39" width="69.7" height="204.3"/>
	<polygon class="st0 file-5-element-40" points="432.5,172.7 361.4,172.7 347.2,145.6 446.7,145.6  "/>
	<polygon class="st0 file-5-element-41" points="408.2,230.6 401.2,230.6 401.2,218.6 392.7,218.6 392.7,230.6 385.7,230.6 385.7,239.2 392.7,239.2    392.7,263.5 401.2,263.5 401.2,239.2 408.2,239.2  "/>
	<rect x="634.4" y="145.6" class="st0 file-5-element-42" width="69.7" height="232.7"/>
	<path class="st0 file-5-element-43" d="M872.1,436.9v-58.6h-58.6v58.4H755v-58.4h-58.6v58.4H638v-58.4h-58.6v58.4h-58.5v-58.4h-58.6v58.4h-58.5v-58.4   h-58.6v58.4h-58.5v-58.4h-58.6v58.4h-58.5v-58.4h-58.6v58.4H52.6v-58.4H-6v58.4h-58.5v58.6H-6v58.4h-58.5v58.6h58.6v-58.4h58.5   v58.4h58.6v-58.4h58.5v58.4h58.6v-58.4h58.5v58.4h58.6v-58.4h58.5v58.4h58.6v-58.4h58.5v58.4h58.6v-58.4H638v58.4h58.6v-58.4H755   v58.4h58.6v-58.4h58.5v-58.6h-58.5v-58.4H872.1z M-5.9,495.3v-58.4h58.5v58.4h58.5v58.4H52.6v-58.4H-5.9z M111.2,495.3v-58.4h58.5   v58.4h58.5v58.4h-58.5v-58.4H111.2z M228.2,495.3v-58.4h58.5v58.4h58.5v58.4h-58.5v-58.4H228.2z M345.3,495.3v-58.4h58.5v58.4h58.5   v58.4h-58.5v-58.4H345.3z M462.4,495.3v-58.4h58.5v58.4h58.5v58.4h-58.5v-58.4H462.4z M579.5,495.3v-58.4H638v58.4h58.5v58.4H638   v-58.4H579.5z M813.5,553.7H755v-58.4h-58.5v-58.4H755v58.4h58.5V553.7z"/>
	<path class="st0 file-5-element-44" d="M872.1,495.3v-58.6h-58.5v-58.4H755v58.4h-58.5v-58.4H638v58.4h-58.5v-58.4h-58.6v58.4h-58.5v-58.4h-58.6v58.4   h-58.5v-58.4h-58.6v58.4h-58.5v-58.4h-58.6v58.4h-58.5v-58.4H52.6v58.4H-5.9v-58.4h-58.6v58.6H-6v58.4h-58.5v58.6H-6v58.4h58.6   v-58.4h58.5v58.4h58.6v-58.4h58.5v58.4h58.6v-58.4h58.5v58.4h58.6v-58.4h58.5v58.4h58.6v-58.4h58.5v58.4H638v-58.4h58.5v58.4H755   v-58.4h58.5v58.4h58.6v-58.6h-58.5v-58.4H872.1z M52.6,553.7H-5.9v-58.4h58.5v-58.4h58.5v58.4H52.6V553.7z M169.7,553.7h-58.5   v-58.4h58.5v-58.4h58.5v58.4h-58.5V553.7z M286.8,553.7h-58.5v-58.4h58.5v-58.4h58.5v58.4h-58.5V553.7z M403.8,553.7h-58.5v-58.4   h58.5v-58.4h58.5v58.4h-58.5V553.7z M520.9,553.7h-58.5v-58.4h58.5v-58.4h58.5v58.4h-58.5V553.7z M638,553.7h-58.5v-58.4H638v-58.4   h58.5v58.4H638V553.7z M755,495.3v58.4h-58.5v-58.4H755v-58.4h58.5v58.4H755z"/>
	<path class="st0 file-5-element-45" d="M308,294.2c0.1-0.1,0.1-0.4,0-0.8c-0.3-1-1.8-2.1-2.5-2.9c-2-2-4.2-3.8-6.4-5.6c-0.1-0.1-0.2-0.1-0.2-0.2   c0,0,0,0-0.1-0.1c0.1,0.1,0.2,0.1,0.2,0.2c2.4,1.6,4.9,3.2,7.5,4.6c1.6,0.9,1.2-0.5,0.5-1.4c-1-1.2-2.1-2.3-3.2-3.4   c-2.2-2.2-4.7-4.2-7.3-5.9c-1.5-1.3-3.5-2-5.3-2.6c-1-0.4-2.1-0.7-3.2-1c0.5-0.2,0.9-0.4,1-0.4c1.3-0.3,2.9-3.2,2.4-4.1   s-5.6,1.4-9.3,0.9c-6-0.7-9.2,3.2-9.2,3.2l-27.3-5.4l0.3,16.4c0,0,23.1-0.2,23.1-0.2c1.7,3.7,7.4,3.9,10.8,4.4   c2.8,0.5,5.7,1.2,8.5,1.8c1,0.2,3.2,0.2,4.1,0.8c0,0,9,6.5,9.7,5.8c0.6-0.6-3.9-5.3-7-7.9c3.5,2.4,10,6.8,10.6,6.1   c0.6-0.6-2.9-4.1-6.4-7.2c0.1,0.1,0.2,0.2,0.4,0.2c2,1.4,4,2.7,6.2,3.9C306.6,293.9,307.7,294.7,308,294.2z M295.7,278.7   L295.7,278.7"/>
	<path class="st0 file-5-element-46" d="M271,256.1c-12.7,0.2-42,1.1-58.8,1.4c-14.6-22.4-42.3-63.3-53.5-53.6c-19.1,16.4,29.3,66.1,38.6,75.3   l56.8,30.8c0,0,16.2-12.8,18.2-22.9C274.4,277.1,272.6,266.2,271,256.1z"/>
	<path class="st0 file-5-element-47" d="M232.1,350.9c-1.2-2.6-2.6-5.2-4.2-7.5c0-0.1-0.1-0.1-0.1-0.2c-0.1-0.1-0.2-0.3-0.3-0.4c0-0.1-0.1-0.1-0.1-0.2   c0,0,0,0,0,0l0.4,0.2c-1-1.4-2.7-3-4.6-4.6c-0.8-0.6-1.6-1.3-2.4-1.9c0.6,0,0.9,0,1.1,0c1.3,0.2,3.9-1.9,3.7-3s-5.7-0.7-9-2.5   c-5.3-2.8-9.7-0.3-9.7-0.3l-23.5-14.8l-0.7,1.9l-5.4-116.5c0.3,0.1,0.6,0.1,0.9,0.2c20,3.9,29.1-8.3,38.6-34.2   c8.6-23.7-10.4-48.6-34.1-53.2s-53.7,11.4-51.5,36.5c2.1,24,20.2,43,41.4,49.4l-43.3,253l-5.8-1.2c-1.3,16.3-0.8,32.1-8.9,48.8   c-0.4,0.8-0.4,1.8-0.1,2.7c0.6,1.8,2.7,2.5,4.5,3.1c4.3,1.4,8.4,3.5,12.1,6.1c5.8,4.2,10.7,10,17.4,12.3c1.4,0.5,3.1,0.7,4.1-0.3   c1.5-1.5,0-4.1-1.4-5.7c-4.2-4.6-8.4-9.2-12.7-13.8c-3-3.3-6.2-6.8-7-11.2c-0.6-2.9-0.1-5.8,0.4-8.7c1.9-10.2,6.5-19.9,9.9-29.8   l-11.6-2.3l43.3-252.9c0.9,0.2,1.8,0.5,2.7,0.7l5.5,119.1l-4.1,11.1c0,0,1.9,0.7,4.6,1.7l5.4,117.7l-11.8,0.9   c3.1,16.1,7.9,31.2,4.4,49.4c-0.2,0.9,0.1,1.9,0.6,2.6c1,1.6,3.3,1.7,5.2,1.8c4.6,0.2,9.1,1.1,13.3,2.7c6.7,2.5,13,6.8,20.1,7.2   c1.4,0.1,3.1-0.2,3.8-1.4c1.1-1.9-1.1-3.9-2.9-5.1c-5.3-3.3-10.6-6.6-15.9-9.9c-3.8-2.4-7.8-4.9-9.8-8.9c-1.3-2.6-1.6-5.6-1.9-8.5   c-0.9-10.4,1-20.9,1.6-31.3l-5.9,0.4l-5.4-117.3c6.4,2.4,16,6,16,6c0.3,0.4,0.3,1.4,0.6,1.8c1.1,2,3.4,3.2,5.3,4.5   c2.1,1.5,4.3,2.9,6.5,4.3c1.6,1,3.3,2.1,4.9,3.1c0.5,0.3,1.7,0.8,2,1.2c0,0,6,9.3,7,8.9c0.8-0.4-1.8-6.3-3.7-9.9   c2.4,3.5,6.9,9.9,7.7,9.5c0.7-0.3-1.2-4.9-3.4-9c1.1,2,2.5,3.8,4,5.5c0.9,1.1,3.9,3.8,2.5,0.5c-1.5-3.6-3.3-7.1-5.3-10.5   c1.2,1.7,2.4,3.5,3.8,5.2c0.2,0.3,2.6,3.1,2.9,2.6c0,0,0-0.1,0-0.1c0,0,0-0.1,0-0.1C234.3,354.9,232.8,352.5,232.1,350.9z"/>
	<path class="st0 file-5-element-48" d="M193.4,308c0,0-0.2-26,3.7-38.8c1.7-5.7-0.2-12-3-17.3l-16.3-31.2c0,0-18.4,0.2-28.2-14.5   c0,0-7.7,7.9-14.6,32.1s3.4,67.2,2,68.8c-24,27-35,177.1-29.3,177.9c5.7,0.8,46.9-7,58.3-7s11.2,2.5,25.5,5.5   c11.1,2.4,19.8,1.5,26.3-0.3L193.4,308z"/>
	<g>
		<g>
			<path class="st0 file-5-element-49" d="M213.5,350.8c-1.5-0.4-2.7-1.5-3.5-2.8c-0.1-0.1-0.1-0.3-0.2-0.4c-0.7,0.7-1.5,1.4-2.2,2
					c-13.1,11.9-26.4,23.7-39.8,35.3c-1.7,1.5-3.4,3-5.1,4.4c-1.5,1.3-1.3,2.9-0.3,3.6c-1.2,1.2-0.8,2.9,0.1,3.5
					c1.6,1.1,3.3,2.2,4.9,3.3c1,0.7,2.6-0.1,3.5-1.2c2.8-3.3,5.6-6.7,8.4-10c5-4.2,9.5-9,13.8-13.9c0.6-0.6,1.1-1.3,1.7-1.9
					c7.1-7.4,14.2-13.6,21.4-20.8C215.4,352,214.5,351,213.5,350.8z"/>
			<path class="st0 file-5-element-50" d="M363.5,220.6c-6-1.1-12.3,3.6-17.8,7.4c-7.2,5.1-14.2,10.3-21.1,15.8c-13.7,10.8-26.8,22.2-39.7,33.9
					c-12.9,11.8-25.6,23.8-38.3,35.8c-8.2,7.7-16.4,15.4-24.6,23c1.4,0.7,2.8,1.5,4.4,2c0.7,0.2,1.1,0.7,1.2,1.2
					c0.5-0.5,0.9-0.9,1.4-1.4c14.1-13.8,28.6-27.3,43.3-40.4c6.8-6.1,13.6-12.1,20.5-18c5.3-4.1,10.4-8.5,15-13.4
					c3.5-3,7-5.9,10.5-8.8c14.4-11.9,29.2-23.2,45-32.7C365.3,223.7,365.5,220.9,363.5,220.6z"/>
		</g>
		<g>
			<path class="st0 file-5-element-51" d="M336,226.2"/>
			<path class="st0 file-5-element-52" d="M165.6,397"/>
			<path class="st0 file-5-element-53" d="M340.6,231.1"/>
		</g>
		<path class="st0 file-5-element-54" d="M172,401.4c-1.9,15.7-4.2,31.9-12.7,45.3c-10.4,16.4-30.2,41.3-48.1,48.6c-39.4,15.9-65.6-16.8-65.6-16.8    c15.9-12.5,32-27.4,45.1-42.8c13.1-15.4,27.2-30.5,45-39.9c7.2-3.8,15.4-6.7,23.3-5c0,0,12-11.8,20.5-20l11.1,9L172,401.4z"/>
	</g>
	<path class="st0 file-5-element-55" d="M178.7,216.1L178.7,216.1c1.5-6.3,3.3-14,3.3-14c-3.4,0.1-6.8-0.1-10.2-0.8c-5.5-1.1-10.6-3.1-15.1-5.9   c0,0-1.7,5.1-3.4,9.9l4.7,3.7l-8.4-2.8c1.7,34,40.4,34,40.4,34L178.7,216.1z"/>
	<path class="st0 file-5-element-56" d="M216.7,167.2c0,0-0.6-0.2-1.6-0.4c0,2.7-0.3,5.4-0.8,8c-1.6,7.9-5.7,15.6-12.1,20.7   c-5.5,4.4-12.4,6.2-19.4,5.7c-7.3-0.6-14.3-3.3-20.7-6.8c-6.3-3.4-12.2-7.8-17.6-12.6c-1.2-1.1-0.4-2.6,0.8-3   c0.3-1.6,0.5-3.2,0.6-4.8c0.4-8.8-1.6-17.9,0.3-26.6c0,0,0,0,0,0c-7.8-2.2-13-3.7-13-3.7c0.2,0.1-1.3,19.1-1.2,21.3   c0.2,8.1,4.5,43.8,40.8,49.8C218,222.2,216.7,167.2,216.7,167.2z"/>
	<path class="st0 file-5-element-57" d="M219.5,151c0,0-6.7-43.7-84.1-18.6c0,0,9.1-33.8,42.6-24.8C231.6,122,219.5,151,219.5,151z"/>
	<path class="st0 file-5-element-58" d="M160.9,294.2c5.2-21,11.1-48.9,6.9-60.5c-0.3,0-0.5-0.1-0.7-0.2c-2.3-1.4-4.9-2.5-6.8-4.6   c-0.1-0.2-0.3-0.4-0.3-0.5c-25.3,1.3-24.1,81.8-24.1,81.8l40.8,46.6c0,0,19.8-6.1,25.2-14.8c5.5-8.7,7.8-19.5,9.8-29.5   C200.9,308.4,176.9,300,160.9,294.2z"/>
	<path class="st0 file-5-element-59" d="M593.5,316.5c-5.8,2.4-12,6.1-18.2,6.2c-2.3,0-4.6-0.1-7-0.4"/>
	<path class="st0 file-5-element-60" d="M696.3,142.2c-3.5-0.8-6.9-3.1-10.2-4.3c-5-1.9-10-3.7-15.3-4.6c-4.3-0.7-8.6-2.1-12.9-2.1   c-8.5-0.1-18.7,2.9-25.3,8.8c-0.6,0.5-1.2,0.6-1.8,0.4c-1.7,10-3.4,24.7-5,38.4c4.5,19.4,11.9,29.1,29.1,29.1c5,0,10-0.7,14.8-2   l6,46.8L659,266.7l-0.5-3.8l-0.4,4.5l-29,24.2c-25.5-18.2-63.4-46.2-64.1-49.1l-1,0.2c1,4.1,55.9,43.4,64.3,49.5l-30.9,28.4   l-31.2,6.6c-0.8-2.3-1.6-4.5-2.4-6.8c-0.1-0.3-0.1-0.6,0-0.9c-2.6-1.1-5.5-1.7-8.3-2.3c-2.7-0.6-5.5-1.1-8.1,0   c-0.7,0.3-1.4,0.8-1.8,1.5s-0.3,1.7,0.2,2.2c0.2,0.2,0.3,0.3,0.5,0.3c-0.5-0.1-1.1-0.1-1.6-0.1c-1,0-2.5-0.2-3.5,0.1   c-1.4,0.4-1.5,1.9-0.4,2.8c0.6,0.5,1.8,1,2.8,1.5c0,0.1-0.1,0.2-0.2,0.3c0,0.1,0,0.1,0,0.2c-0.9,0-2-0.1-2.7,0.1   c-1.4,0.4-1.5,1.9-0.4,2.8c0.8,0.6,2.6,1.4,3.8,1.9c0.3,0.5,0.6,1.1,1,1.6c-1.3,0-2.3,0-2.7,0.2c-0.3,0.1-0.6,0.2-0.8,0.5   c-0.4,0.6,0.1,1.4,0.6,1.8c2,1.6,4.5,2.5,7.2,2.5c0,0,0,0,0,0c-0.6,0-1.2,0.1-1.8,0.2c-1.4,0.2-1.8,1.5-0.5,2.4   c1.4,0.9,3.9,1.2,5.5,1.4c0.8,0.1,1.6,0.1,2.3,0c1.7,0.7,3.5,1,5.3,0.6c3.6-0.7,6.3-3.8,9.4-5.8c-1.2-2.6-2.2-5.3-3.1-8l31.4-6.7   l31.6-29l28.5-23.9l-20.5,226.4l1,0.1l20.2-222.9l26.5,219.7l1-0.1l-27.1-224.1l17.7-14.9l-6.1-47.5c6.8-1.9,13.2-5,19-9.2   C689.3,179.9,697.1,162.3,696.3,142.2z M549,321.9c-0.4-0.1-0.9-0.2-1.3-0.3c0.5,0,1,0,1.5,0c0.3,0,0.6,0.1,1,0.1   C549.7,321.7,549.4,321.8,549,321.9z"/>
	<path class="st0 file-5-element-61" d="M660.1,229.5c-12.9-6.6-29.6,37.3-38.7,62.9c-15.6,4.6-45.9,13.3-58.6,17c1.5,10.1,3.1,21.1,8,30.1   c4.9,9,24.3,16.3,24.3,16.3l44-42.1C639.2,313.6,684.8,242.1,660.1,229.5z"/>
	<g>
		<path class="st0 file-5-element-62" d="M633.5,448.4c0.6,10.4,2.5,21,1.6,31.3c-0.3,2.9-0.6,5.9-1.9,8.5c-2,4-6,6.5-9.8,8.9    c-5.3,3.3-10.6,6.6-15.9,9.9c-1.8,1.1-4,3.2-2.9,5.1c0.7,1.3,2.4,1.5,3.8,1.4c7.2-0.4,13.4-4.7,20.1-7.2c4.2-1.6,8.8-2.5,13.3-2.7    c1.9-0.1,4.2-0.2,5.2-1.8c0.5-0.8,0.8-1.7,0.6-2.6c-3.4-18.2,1.3-33.3,4.4-49.4L633.5,448.4z"/>
		<path class="st0 file-5-element-63" d="M647.7,499.1c0.5,1.4-0.5,2.9-1.8,3.5c-0.9,0.5-2.2,0.7-3.2,0.6c0,0-6.7,1.2-8.2,1.6c-1,0.2-3.2,0.5-6,0.8    c-0.5-2-2-8.8-2.4-10c-1.5,1-10.1,6.1-10.1,6.1s4,1.6,4.6,4.7c-0.1-0.3-5.3,5.9-7,6.2c-1.8,0.3-3.7,0.4-5.6,0.2    c-1.7-0.2-3.6-0.8-4.5-2.4c-0.1-0.1-0.1-0.2-0.2-0.3c-4.1,2.9-2.5,7.5,5.2,7.5c7.9,0,24.5-9.3,25.8-9.6s8.3-0.3,12.6-0.6    C651,507.1,648.5,501.1,647.7,499.1z"/>
	</g>
	<g>
		<path class="st0 file-5-element-64" d="M666.4,455.1c3.4,9.8,8,19.5,9.9,29.8c0.5,2.9,1,5.8,0.5,8.7c-0.9,4.4-4,7.9-7,11.2    c-4.2,4.6-8.5,9.2-12.7,13.8c-1.5,1.6-3,4.1-1.4,5.7c1,1,2.7,0.8,4.1,0.3c6.8-2.3,11.7-8.1,17.5-12.3c3.7-2.7,7.8-4.8,12.1-6.1    c1.8-0.6,4-1.3,4.5-3.1c0.3-0.9,0.3-1.9-0.1-2.7c-8.2-16.6-7.7-32.5-9-48.8L666.4,455.1z"/>
		<path class="st0 file-5-element-65" d="M694.3,501c2.1,3-17.4,10.3-17.3,10.6c-0.7-1.8-3-7.1-6.7-7.1c-0.8,0.8-2.3,2.2-2.3,2.2s-4.2,4.6-4.2,4.6    c0.9-1,3.2,0.9,3.8,1.5c2.3,1.8,2.2,5.6,0.3,7.6c-1.8,1.9-4.2,3.2-6.6,4c-1.4,0.5-2.9,0.8-4.3,0.5c-1.4-0.2-2.5-1.1-3-2.4    c-3.2,3.9-0.4,7.9,7,5.9c7.6-2.1,21.1-15.5,22.3-16.2c1.2-0.6,8-2.5,12-3.9C698.6,507.1,695.5,502.6,694.3,501z"/>
	</g>
	<path class="st0 file-5-element-66" d="M635.1,315c0,0,0.2-26-3.7-38.8c-1.7-5.7,0.2-12,3-17.3l16.3-31.2c0,0,18.4,0.2,28.2-14.5   c0,0,7.7,7.9,14.6,32.1c6.9,24.2-3.3,67.2-2,68.8c24,27,35,177.1,29.3,177.9c-5.7,0.8-46.9-7-58.3-7s-11.2,2.5-25.5,5.5   c-11.1,2.4-19.8,1.5-26.3-0.3L635.1,315z"/>
	<path class="st0 file-5-element-67" d="M678.1,213.4c-0.5-3.9-1-7.4-1-7.4c-5,1.9-10.3,2.9-15.9,2.9c-3.5,0-6.9-0.4-10.2-1.1c0,0,0.4,8.2,0.6,14.7   l-1.8,0.6l-11.4,24.1c0,0,38.8,0,40.5-34L678.1,213.4z"/>
	<path class="st0 file-5-element-68" d="M703.5,160.3c-1.7,10.7-4.5,21.2-8.4,31.3c-1.6,4.1-3.8,3.8-7.6,6.3c-3.3,2.2-7.3,5-11.2,5.7   c-5.3,1-10.7,3.9-16.1,4.1c-5.1,0.2-10.5-0.2-15.3-1.9c-7.5-2.6-12.6-8.4-15.6-15.6c-2.9-7.1-4-14.8-5.5-22.3   c-0.1-0.4,0-0.8,0.1-1.1c-0.2,0-0.3,0-0.3,0s-11.8,54.7,34,56.1c36.8,1.1,47.9-34.1,49.6-42c0.5-2.2,2.6-21.2,2.9-21.2   C710.1,159.7,707.6,159.9,703.5,160.3z"/>
	<path class="st0 file-5-element-69" d="M624,150.4c0,0,14.9-41.6,86.1-2.2c0,0-2.5-35-37.1-32.5C617.7,119.6,624,150.4,624,150.4z"/>
	<path class="st0 file-5-element-70" d="M634.3,128.3c3.9-2.5,18-2.7,22.6-2.7c4.5-0.1,9.1-0.2,13.7-0.2c6.2-0.1,12.8-0.1,18.1,3.3   c3,1.9,6.8,4.2,7.2,7.7c3.7,29.7-13.8,53.9-1.9,76.8c34.5-5.4,24.4-78.1,9-93.6c-13.6-13.7-40.3-13-58-5.7c-4.8,2-9.3,4.6-13.2,8   c-8,7.2-16.5,26.1-18.5,36.9c-2.1,10.8,2.5,31.4,2.6,34.8c0,2.1,3.2,18.6,4.3,20.2C623.2,218.3,629.2,131.6,634.3,128.3z"/>
	<g>
		<g>
			<path class="st0 file-5-element-71" d="M550.2,405.8l1.2-16.6l11.7-1.6L567,406c7.2,3.8,11.6,11.3,14.7,18.8c7.6,18.7,8.8,39.3,8.9,59.5
					c0.2,20.2,2.9,42,7.1,61.8c0,0-41,8.3-61.1-29.2c-9.1-17.1-8.3-48.9-5.8-68.2C533,433,541.5,419.1,550.2,405.8"/>
		</g>
		<g>
			<path class="st0 file-5-element-72" d="M536.8,166.2"/>
			<path class="st0 file-5-element-73" d="M564.2,405.9c0.2,0,0.4,0,0.4,0"/>
			<path class="st0 file-5-element-74" d="M557.9,406.6"/>
			<path class="st0 file-5-element-75" d="M530.1,167"/>
		</g>
	</g>
	<path class="st0 file-5-element-76" d="M687.3,242.8c-7.6-10.6-37,14-57.2,32.5c-12.7-11.4-31.6-28.4-40.2-36.1c-7.8,6.6-16.3,13.8-21.3,22.7   c-5,8.9-1,29.2-1,29.2l62.5,16.7C630.1,307.8,703.5,265.3,687.3,242.8z"/>
	<path class="st0 file-5-element-77" d="M154,522.6c-0.3-0.3-0.6-0.6-1.1-0.9c0.4,1,0.4,2.1-0.4,2.9c-1,1-2.7,0.8-4.1,0.3c-4-1.4-7.1-4.5-10.2-7.4   c-0.6-5.2,6.2-5.9,6.2-5.9l-4.2-4.6c0,0-1.5-1.4-2.3-2.2c-4.4,0-6.9,7.7-6.9,7.7l0,0l0,0c-0.9-0.4-1.6-1.1-2.4-1.6   c-1.3-0.5-2.3-1-2.9-1.3c-0.6-0.3-1.3-0.8-2.2-1.4c-1.5-0.7-3.1-1.3-4.7-1.8c-1.8-0.6-4-1.3-4.5-3.1c-0.3-0.9-0.3-1.9,0.1-2.7   c0,0-5.6,6.6-1.6,8c4.1,1.4,10.8,3.3,12,3.9c1.2,0.6,14.7,14.1,22.3,16.2S157.6,526.5,154,522.6z"/>
	<path class="st0 file-5-element-78" d="M224.2,512.1c-0.3-0.2-0.8-0.4-1.3-0.6c0.6,0.9,0.9,1.9,0.3,2.9c-0.7,1.2-2.4,1.4-3.9,1.3   c-4.2-0.4-7.9-2.8-11.7-4.8c-1.7-4.9,4.6-7.2,4.6-7.2l-5.2-3.5c0,0-1.8-1-2.7-1.6c-4.3,1-4.9,9.1-4.9,9.1l0,0l0,0   c-1-0.1-1.8-0.7-2.7-1c-1.4-0.2-2.5-0.4-3.1-0.6c-0.7-0.2-1.5-0.5-2.4-0.9c-1.6-0.3-3.3-0.5-5-0.7c-1.9-0.1-4.2-0.3-5.1-2   c-0.4-0.8-0.7-1.8-0.5-2.6c0,0-3.9,7.7,0.3,8.2c4.3,0.5,11.3,0.7,12.6,1c1.3,0.3,17.6,10.3,25.4,10.6   C226.9,519.9,228.6,515.1,224.2,512.1z"/>
	<path class="st0 file-5-element-79" d="M132.6,256.3c-1-9.3,1.1-16.4,4.7-25.2c1.8-4.5,2.9-11,6-14.7c2.9-3.4,5-5.9,6.4-10.1c-1.7-0.4-3.8-5.4-5-6.8   c-1.4-1.6-4-2.6-4-2.6c0.1-4.5,2.4-8.9,5.3-12.2c0.2-0.2,0.5-0.4,0.8-0.5c-0.2-0.2-0.4-0.4-0.7-0.7c4-17.6-1.6-38.5,5.5-60   c1.1-3.4,5.3-4.9,8.5-6.2c5.8-2.3,12.3-1.1,18.4,0.2c4.5,0.9,8.9,1.9,13.4,2.8c1.9,0.4,16.1,3.1,19.8,4.1c5.7,4.3-0.2,7.9,2.9,14.1   c-0.2,10.1-1.3,25.6-2.4,39.9c0.9,11.7-4.9,28.1-13.2,31.4c-4,1.6-7.4,3.2-12.1,4.6c-1.6,0.5-3.6,1.8-3.4,3.4   c0.3,2.1,3.2,4.5,4.1,6.4c1,1.9,3.9,3.4,5.1,5.2c1,1.5,2.4,3.2,3.4,4.8c2.6,4.1,3.8,6.2,7.1,9.8c3.3,3.5,6.6,9,10.8,11.4   c2,1.1,3.9,1.9,6.2,1.8c2.7-0.1,5.2-1.1,7.8-1.6c0.8-0.1,1.5-0.2,2.3-0.3c2.5-37.2,6.1-134.8-22.7-147.8   c-13.8-6.2-26.6-9.7-40.8-10c-14.2-0.3-28.7,6.4-36.7,18.2S76,232.8,76,232.8s3.8,8.5,11.2,9.6c4.2,0.6,4.6,5.8,4.5,9.1   c-0.1,2.3-0.5,3.8,1.8,5.1c2.6,1.5,6.3,1,9.1,1.1c3.1,0.1,6.3,0.4,9.3,1c3.8,0.7,7.7,1.8,11,4.1c2.7,1.9,4.2,5.5,7.4,6.3   c0.7,0.1,1.3,0.3,2,0.5C131.3,265.1,133.1,260.7,132.6,256.3z"/>
	<g>
		<path class="st0 file-5-element-80" d="M552,332c-0.4-0.1-0.8-0.1-1.2-0.1c-0.5,0-1.1,0-1.7-0.1c-0.4,0-0.7-0.1-1.1-0.2c0,0.3,0.1,0.6,0.1,0.9    c2,0,3.8,0.1,4.2,0.1c0.1,0,0.1,0,0.2,0c0.4,0,0.7,0.1,1,0.3c0.7,0.3,1.2,1,1.2,1.8c0,0.7-0.5,1.3-1,1.8c-0.5,0.4-1.2,0.6-1.8,0.8    c-1.1,0.3-2.3,0.3-3.4,0.3c0,0,0,0.1,0,0.2c2.1-0.2,4.6-0.2,6.8,0.2c-0.5-3.7-1-7.4-1.5-11.1c-0.4,0.2-0.9,0.3-1.3,0.3    c-0.4-0.1-0.8-0.1-1.2-0.1c-0.5,0-1.1,0-1.7-0.1c-0.7-0.1-1.4-0.2-2.1-0.3c0,0,0,0,0,0c1.6,0.4,3.2,0.9,4.7,1.7    c0.5,0.3,1.1,0.6,1.5,1.1c0.4,0.5,0.5,1.2,0.2,1.8C553.5,331.8,552.7,332,552,332z"/>
		<path class="st0 file-5-element-81" d="M532.7,215.2c0.4,6.7,1.5,13.3,2.9,19.9c1.5,9,2.8,17.9,4.2,26.9c2.8,19.5,5.2,39.2,7.3,58.8    c0,0.2,0,0.4,0.1,0.6c2,0.3,3.9,1,5.7,1.9c0.3,0.1,0.5,0.3,0.8,0.5c-1.4-11.1-2.8-22.2-4.1-33.3c-2-17.4-4-34.7-6.4-52    c-2.4-17.3-5.1-34.5-8.7-51.5c-1.8-8.6-3.8-17.2-6.1-25.7c-1.7-6.4-3.6-14-8.9-17c-1.8-1-3.4,1.3-2.7,3.5    c6,17.4,10.1,35.6,13.5,54C531,206.2,531.9,210.7,532.7,215.2z"/>
		<path class="st0 file-5-element-82" d="M552.7,341.5c-1.1-0.1-2.5-0.3-3.8-0.7c0.8,9.4,1.6,18.8,2.2,28.2c0,0.9,0,1.7,0,2.6    c0.1,5.8,0.4,11.7,1.3,17.5l10.2-1.4c-2.3-14.8-4.5-29.7-6.6-44.5c-0.1-0.6-0.2-1.2-0.2-1.8C554.8,341.6,553.7,341.6,552.7,341.5z    "/>
	</g>
	<path class="st0 file-5-element-83" d="M576.1,251.1c-0.3-1.7-1.2-4.9-4.8-7.3c-3.1-2.1-5.5-7.1-6.5-6.8c-1,0.4-1.7,3.6-0.8,4.7   c0.1,0.1,0.3,0.5,0.5,1c-0.2-0.5-2.2-0.9-2.7-1.1c-1-0.4-2-0.7-3-1c-1.5-0.4-3-0.7-4.6-0.8c-4.5-0.4-9-0.2-13.4,0.5   c-0.3,0.1-0.8,0.2-0.8,0.6c0,0.4,0.4,0.6,0.8,0.7c3,0.7,6.2,1.5,9.3,1.5c-0.7,0-1.5,0-2.3,0c-0.4,0-0.8,0-1.2,0   c-3.3,0-6.5,0.1-9.8,0.6c-0.3,0-0.6,0.1-0.7,0.4c-0.1,0.3,0.4,0.5,0.7,0.6c3.1,0.7,6.3,0.9,9.4,1.5c-2.8,0.1-5.6,0.2-8.4,0.7   c-0.3,0.1-0.8,0.3-0.8,0.6c0,0.3,0.4,0.4,0.6,0.5c2.2,0.6,4.4,0.9,6.6,1.2c0,0,0.1,0,0.1,0c1.5,0.2,2.9,0.3,4.4,0.5   c-3.2-0.3-6.3,0.3-9.4,0.9c-0.3,0.1-0.8,0.3-0.7,0.6c0.1,0.2,0.3,0.3,0.5,0.4c1.1,0.3,2.3,0.5,3.4,0.7c3.2,0.5,7.1,0.8,7.1,0.8   s9.3,5.4,17,9.2c0.3,0.1,0.5,0.2,0.8,0.4C569.4,258.2,571.8,253.4,576.1,251.1z"/>
	<path class="st0 file-5-element-84" d="M718.5,132.8c-5.5-13-18.5-22.4-32.5-24.8c-14-2.4-27.3-1.4-42,2c-28.6,6.7-43.7,91.7-49.4,133.2   c0.6-0.3,12.8,11.7,18.7,16.7c4.7,4,12,11.5,16.9,15.2c0.1-2.4,9.3-27.9,9.8-31.2c0.2-1.9,2-4.2,2.8-5.9c0.8-1.7,2-3.7,2.4-5.4   c0.6-2.6,1.8-4.9,2.7-7.4c0.7-2.1,2-3.7,2-3.7s-8.8-2-11-3.4c-4.2-2.7-7.9-6.3-10.3-10.8c-4-7.6-5.7-15.8-4.5-23.9   c-0.6-0.2-1.1-0.8-1-1.6c0-0.7,0.2-1.4,0.5-2c0.6-1,1.5-1.8,2.5-2.3c1.5-13,3.1-26.7,4.8-36.4c-0.8-0.1-1.5-0.7-1.5-1.7   c0.1-2.8-0.2-6,0.8-8.7c1-2.7,3.2-4.3,6-4.9c3.5-0.7,7.2-0.9,10.8-0.9c4.5-0.1,9,0,13.5,0.1c6.6,0.2,13.3-0.3,19.9,0   c4.6,0.2,9.7,0.9,13.4,4c4.2,3.5,4.3,9.3,3.5,14.2c-0.1,0.6-0.5,1-0.9,1.2c0.2,18.8-6.8,35.4-6.6,51c0.5,1.3,0.8,2.7,1.2,4.1   c0.7,3.3,1.1,6.8,0,10c-1.1,3.3-7.4,7.6-8,7.6c-0.3,0-0.5,0.4-0.4,0.7c2.8,4.1,10.2,24.2,10.9,27.4c1.7,7.3,1.6,13.3,2.4,20.7   c0.4,3.6,1.3,9,1.5,12.6c0,0.3,3-1.3,3-1c2.8-0.7,5.7-0.9,8.6-0.9c3.1,0,6.3,0.4,9.4,0.8c2.8,0.4,6.4,1.6,9.2,0.7   c2.5-0.9,2.3-2.4,2.7-4.6c0.5-3.3,1.9-8.3,6.1-8.1c7.5,0.3,12.8-7.3,12.8-7.3S724,145.9,718.5,132.8z"/>
</g>
<g id="blacklines">
	<g>
		<g>
			<g>
				<g>
					<path class="st1 file-5-element-85" d="M134.4,109.5c6.7-16.4,16.7-31.4,29.6-44.3c25.6-25.6,59.7-39.7,95.9-39.7s70.3,14.1,95.9,39.7
					  c22.1,22.1,35.7,50.5,38.9,81.2"/>
					<path class="st1 file-5-element-86" d="M177.6,99.2c18.8-25,48.7-41.1,82.4-41.1c51.2,0,93.7,37.3,101.7,86.3"/>
				</g>
				<line class="st1 file-5-element-87" x1="259.9" y1="25.5" x2="259.9" y2="58.1"/>
				<g>
					<g>
						<line class="st1 file-5-element-88" x1="178.6" y1="52.2" x2="200.1" y2="76.9"/>
					</g>
					<g>
						<line class="st1 file-5-element-89" x1="341.2" y1="52.2" x2="319.8" y2="76.9"/>
						<g>
							<line class="st1 file-5-element-90" x1="388.8" y1="117.4" x2="356.6" y2="124.3"/>
						</g>
					</g>
				</g>
			</g>
			<g>
				<g>
					<path class="st1 file-5-element-91" d="M397.5,144.5c3.6-29.9,17.1-57.6,38.7-79.3c25.6-25.6,59.7-39.7,95.9-39.7s70.3,14.1,95.9,39.7
					  c12.3,12.3,21.9,26.5,28.6,42"/>
					<path class="st1 file-5-element-92" d="M430.2,145.6c7.5-49.5,50.3-87.5,101.9-87.5c43.4,0,80.5,26.8,95.7,64.8"/>
				</g>
				<line class="st1 file-5-element-93" x1="532.1" y1="25.5" x2="532.1" y2="58.1"/>
				<g>
					<g>
						<line class="st1 file-5-element-94" x1="450.8" y1="52.2" x2="472.2" y2="76.9"/>
						<g>
							<line class="st1 file-5-element-95" x1="403.2" y1="117.4" x2="435.4" y2="124.3"/>
						</g>
					</g>
					<g>
						<line class="st1 file-5-element-96" x1="613.4" y1="52.2" x2="592" y2="76.9"/>
					</g>
				</g>
			</g>
			<g>
				<g>
					<path class="st1 file-5-element-97" d="M679.4,107c6.7-15.4,16.3-29.6,28.5-41.8c25.6-25.6,59.7-39.7,95.9-39.7c8.7,0,17.3,0.8,25.7,2.4"/>
					<path class="st1 file-5-element-98" d="M709.5,119.8c15.9-36.3,52.2-61.7,94.4-61.7c5.7,0,11.3,0.5,16.8,1.4"/>
				</g>
				<line class="st1 file-5-element-99" x1="803.9" y1="25.5" x2="803.9" y2="58.1"/>
				<g>
					<g>
						<line class="st1 file-5-element-100" x1="722.6" y1="52.2" x2="744" y2="76.9"/>
					</g>
				</g>
			</g>
			<g>
				<g>
					<path class="st1 file-5-element-101" d="M-147.5,406.4c0-21.5,0-245.3,0-245.3c0-36.2,14.1-70.3,39.7-95.9s59.7-39.7,95.9-39.7S58.4,39.6,84,65.2
					  c18.9,18.9,31.5,42.3,36.8,67.8"/>
					<path class="st1 file-5-element-102" d="M-114.9,406.4c0-21.5,0-245.3,0-245.3c0-56.9,46.1-103,103-103c51,0,93.4,38.1,101.6,86.8"/>
				</g>
				<line class="st1 file-5-element-103" x1="-11.9" y1="25.5" x2="-11.9" y2="58.1"/>
				<g>
					<g>
						<line class="st1 file-5-element-104" x1="-93.2" y1="52.2" x2="-71.8" y2="76.9"/>
						<g>
							<line class="st1 file-5-element-105" x1="-140.8" y1="117.4" x2="-108.6" y2="124.3"/>
							<line class="st1 file-5-element-106" x1="-148" y1="183.9" x2="-115.4" y2="183.9"/>
							<line class="st1 file-5-element-107" x1="-148" y1="243.6" x2="-115.4" y2="243.6"/>
							<line class="st1 file-5-element-108" x1="-148" y1="303.3" x2="-115.4" y2="303.3"/>
							<line class="st1 file-5-element-109" x1="-148" y1="363" x2="-115.4" y2="363"/>
						</g>
					</g>
					<g>
						<line class="st1 file-5-element-110" x1="69.4" y1="52.2" x2="48" y2="76.9"/>
						<g>
							<line class="st1 file-5-element-111" x1="117" y1="117.4" x2="84.8" y2="124.3"/>
						</g>
					</g>
				</g>
			</g>
		</g>
		<g>
			<g>
				<g>
					<path class="st2 file-5-element-112" d="M89.8,376.9c0-34.5,0-89.3,0-133.4"/>
					<path class="st2 file-5-element-113" d="M89.8,202.1c0-17.9,0-29.4,0-29.4s5.1,0,12.6,0"/>
					<path class="st1 file-5-element-114" d="M102.4,172.7c-7.9,0-13.3,0-13.3,0l-14.2-27.1c0,0,18.9,0,40.3,0"/>
				</g>
				<g>
					<path class="st1 file-5-element-115" d="M89.8,376.9c0-34.5,0-89.3,0-133.4"/>
					<path class="st1 file-5-element-116" d="M89.8,202.1c0-17.9,0-29.4,0-29.4s5.1,0,12.6,0"/>
					<path class="st1 file-5-element-117" d="M102.4,172.7c-7.9,0-13.3,0-13.3,0l-14.2-27.1c0,0,18.9,0,40.3,0"/>
				</g>
			</g>
			<g>
				<path class="st1 file-5-element-118" d="M362.1,377.8c0-39.9,0-106.6,0-152.7"/>
				<path class="st1 file-5-element-119" d="M362.1,220.6c0-28.1,0-47.9,0-47.9h69.7c0,0,0,137.8,0,204.3"/>
				<polygon class="st1 file-5-element-120" points="432.5,172.7 361.4,172.7 347.2,145.6 446.7,145.6
					"/>
				<polygon class="st1 file-5-element-121" points="408.2,230.6 401.2,230.6 401.2,218.6 392.7,218.6 392.7,230.6 385.7,230.6 385.7,239.2
					  392.7,239.2 392.7,263.5 401.2,263.5 401.2,239.2 408.2,239.2
					"/>
			</g>
			<g>
				<g>
					<path class="st2 file-5-element-122" d="M704.1,276c0,21.6,0,43.8,0,63.9"/>
				</g>
				<g>
					<path class="st1 file-5-element-123" d="M704.1,276c0,21.6,0,43.8,0,63.9"/>
				</g>
			</g>
		</g>
	</g>
	<g>
		<g>
			<g>
				<rect x="-64.5" y="495.3" class="st1 file-5-element-124" width="58.6" height="58.6"/>
				<rect x="-64.5" y="553.7" class="st1 file-5-element-125" width="58.6" height="58.6"/>
			</g>
			<g>
				<rect x="-6" y="495.3" class="st1 file-5-element-126" width="58.6" height="58.6"/>
				<rect x="-6" y="553.7" class="st1 file-5-element-127" width="58.6" height="58.6"/>
			</g>
		</g>
		<g>
			<g>
				<path class="st1 file-5-element-128" d="M111.2,495.3v58.6H52.6v-58.6c0,0,6.6,0,15.4,0"/>
				<rect x="52.6" y="553.7" class="st1 file-5-element-129" width="58.6" height="58.6"/>
			</g>
			<g>
				<path class="st1 file-5-element-130" d="M131.9,495.3c16.8,0,37.8,0,37.8,0v58.6h-58.6v-58.6"/>
				<path class="st1 file-5-element-131" d="M111.1,495.3c0,0,2.5,0,6.4,0"/>
				<rect x="111.1" y="553.7" class="st1 file-5-element-132" width="58.6" height="58.6"/>
			</g>
		</g>
		<g>
			<g>
				<path class="st1 file-5-element-133" d="M199,495.3c14.6,0,29.2,0,29.2,0v58.6h-58.6v-58.6c0,0,4.9,0,11.9,0"/>
				<rect x="169.7" y="553.7" class="st1 file-5-element-134" width="58.6" height="58.6"/>
			</g>
			<g>
				<rect x="228.2" y="495.3" class="st1 file-5-element-135" width="58.6" height="58.6"/>
				<rect x="228.2" y="553.7" class="st1 file-5-element-136" width="58.6" height="58.6"/>
			</g>
		</g>
		<g>
			<g>
				<rect x="286.8" y="495.3" class="st1 file-5-element-137" width="58.6" height="58.6"/>
				<rect x="286.8" y="553.7" class="st1 file-5-element-138" width="58.6" height="58.6"/>
			</g>
			<g>
				<rect x="345.3" y="495.3" class="st1 file-5-element-139" width="58.6" height="58.6"/>
				<rect x="345.3" y="553.7" class="st1 file-5-element-140" width="58.6" height="58.6"/>
			</g>
		</g>
		<g>
			<g>
				<rect x="403.8" y="495.3" class="st1 file-5-element-141" width="58.6" height="58.6"/>
				<rect x="403.8" y="553.7" class="st1 file-5-element-142" width="58.6" height="58.6"/>
			</g>
			<g>
				<rect x="462.3" y="495.3" class="st1 file-5-element-143" width="58.6" height="58.6"/>
				<rect x="462.3" y="553.7" class="st1 file-5-element-144" width="58.6" height="58.6"/>
			</g>
		</g>
		<g>
			<g>
				<path class="st1 file-5-element-145" d="M579.5,546c0,4.7,0,7.8,0,7.8h-58.6v-58.6c0,0,3.2,0,8.2,0"/>
				<rect x="520.9" y="553.7" class="st1 file-5-element-146" width="58.6" height="58.6"/>
			</g>
			<g>
				<path class="st1 file-5-element-147" d="M638,507.7c0,17.2,0,46.1,0,46.1h-58.6c0,0,0-3.1,0-7.8"/>
				<path class="st1 file-5-element-148" d="M591.8,495.3c9.6,0,22.8,0,32.7,0"/>
				<rect x="579.4" y="553.7" class="st1 file-5-element-149" width="58.6" height="58.6"/>
			</g>
		</g>
		<g>
			<g>
				<path class="st1 file-5-element-150" d="M646.7,495.3c7.7,0,19.2,0,29.2,0"/>
				<path class="st1 file-5-element-151" d="M690.8,495.3c3.5,0,5.7,0,5.7,0s0,3.8,0,9.5"/>
				<path class="st1 file-5-element-152" d="M696.5,508.2c0,17.2,0,45.6,0,45.6H638c0,0,0-28.9,0-46.1"/>
				<rect x="638" y="553.7" class="st1 file-5-element-153" width="58.6" height="58.6"/>
			</g>
			<g>
				<rect x="696.5" y="495.3" class="st1 file-5-element-154" width="58.6" height="58.6"/>
				<rect x="696.5" y="553.7" class="st1 file-5-element-155" width="58.6" height="58.6"/>
			</g>
		</g>
		<g>
			<g>
				<rect x="755" y="495.3" class="st1 file-5-element-156" width="58.6" height="58.6"/>
				<rect x="755" y="553.7" class="st1 file-5-element-157" width="58.6" height="58.6"/>
			</g>
			<g>
				<rect x="813.5" y="495.3" class="st1 file-5-element-158" width="58.6" height="58.6"/>
				<rect x="813.5" y="553.7" class="st1 file-5-element-159" width="58.6" height="58.6"/>
			</g>
		</g>
	</g>
	<g>
		<g>
			<g>
				<rect x="-64.5" y="378.3" class="st1 file-5-element-160" width="58.6" height="58.6"/>
				<rect x="-64.5" y="436.7" class="st1 file-5-element-161" width="58.6" height="58.6"/>
			</g>
			<g>
				<rect x="-6" y="378.3" class="st1 file-5-element-162" width="58.6" height="58.6"/>
				<path class="st1 file-5-element-163" d="M52.6,485.7c0,5.7,0,9.6,0,9.6H-6v-58.6h58.6c0,0,0,20.2,0,36.9"/>
			</g>
		</g>
		<g>
			<g>
				<path class="st1 file-5-element-164" d="M89.8,436.9c-16.7,0-37.2,0-37.2,0v-58.6h58.6c0,0,0,13.9,0,28.2"/>
				<path class="st1 file-5-element-165" d="M67.6,495.3c-8.6,0-15,0-15,0s0-3.4,0-8.6"/>
				<path class="st1 file-5-element-166" d="M52.6,473.6c0-16.7,0-36.9,0-36.9s20.5,0,37.2,0"/>
			</g>
			<g>
				<path class="st1 file-5-element-167" d="M111.1,397.9c0-10.8,0-19.6,0-19.6s1.9,0,4.9,0"/>
				<path class="st1 file-5-element-168" d="M169.7,478.7c0,9.4,0,16.6,0,16.6s-19.9,0-36.5,0"/>
				<path class="st1 file-5-element-169" d="M117,495.3c-3.7,0-5.9,0-5.9,0"/>
			</g>
		</g>
		<g>
			<g>
				<path class="st1 file-5-element-170" d="M204.2,378.3c12.7,0,24.1,0,24.1,0v58.6c0,0-7.2,0-16.6,0"/>
				<path class="st1 file-5-element-171" d="M210.6,436.7c9.9,0,17.6,0,17.6,0v58.6c0,0-14.2,0-28.7,0"/>
				<path class="st1 file-5-element-172" d="M180.4,495.3c-6.4,0-10.7,0-10.7,0s0-7.3,0-16.8"/>
			</g>
			<g>
				<rect x="228.2" y="378.3" class="st1 file-5-element-173" width="58.6" height="58.6"/>
				<rect x="228.2" y="436.7" class="st1 file-5-element-174" width="58.6" height="58.6"/>
			</g>
		</g>
		<g>
			<g>
				<rect x="286.8" y="378.3" class="st1 file-5-element-175" width="58.6" height="58.6"/>
				<rect x="286.8" y="436.7" class="st1 file-5-element-176" width="58.6" height="58.6"/>
			</g>
			<g>
				<rect x="345.3" y="378.3" class="st1 file-5-element-177" width="58.6" height="58.6"/>
				<rect x="345.3" y="436.7" class="st1 file-5-element-178" width="58.6" height="58.6"/>
			</g>
		</g>
		<g>
			<g>
				<rect x="403.8" y="378.3" class="st1 file-5-element-179" width="58.6" height="58.6"/>
				<rect x="403.8" y="436.7" class="st1 file-5-element-180" width="58.6" height="58.6"/>
			</g>
			<g>
				<rect x="462.3" y="378.3" class="st1 file-5-element-181" width="58.6" height="58.6"/>
				<rect x="462.3" y="436.7" class="st1 file-5-element-182" width="58.6" height="58.6"/>
			</g>
		</g>
		<g>
			<g>
				<path class="st1 file-5-element-183" d="M534.1,436.9c-7.7,0-13.2,0-13.2,0v-58.6h58.6c0,0,0,23.6,0,40.9"/>
				<path class="st1 file-5-element-184" d="M530.6,495.3c-5.8,0-9.7,0-9.7,0v-58.6c0,0,5,0,12.2,0"/>
			</g>
			<g>
				<path class="st1 file-5-element-185" d="M616,436.9c-11,0-23.6,0-30.8,0"/>
				<path class="st1 file-5-element-186" d="M579.4,419.2c0-17.2,0-40.9,0-40.9s29.4,0,46.5,0"/>
				<path class="st1 file-5-element-187" d="M626,495.3c-10.1,0-24.6,0-34.7,0"/>
				<path class="st1 file-5-element-188" d="M584.8,436.7c7.5,0,21.3,0,32.8,0"/>
			</g>
		</g>
		<g>
			<g>
				<path class="st1 file-5-element-189" d="M710.6,378.3c17.3,0,44.4,0,44.4,0v58.6c0,0-19.9,0-36.5,0"/>
				<path class="st1 file-5-element-190" d="M720.6,436.7c16.1,0,34.4,0,34.4,0v58.6h-58.6c0,0,0-2.5,0-6.4"/>
			</g>
		</g>
		<g>
			<g>
				<rect x="755" y="378.3" class="st1 file-5-element-191" width="58.6" height="58.6"/>
				<rect x="755" y="436.7" class="st1 file-5-element-192" width="58.6" height="58.6"/>
			</g>
			<g>
				<rect x="813.5" y="378.3" class="st1 file-5-element-193" width="58.6" height="58.6"/>
				<rect x="813.5" y="436.7" class="st1 file-5-element-194" width="58.6" height="58.6"/>
			</g>
		</g>
	</g>
	<g>
		<path class="st3 file-5-element-195" d="M697.4,278.6C697.4,278.6,697.5,278.6,697.4,278.6c3.6-1.6,7.7-1.9,11.6-1.9c3.1,0,6.3,0.4,9.4,0.8    c2.8,0.4,6.4,1.6,9.2,0.7c2.5-0.9,2.3-2.4,2.7-4.6c0.5-3.3,1.9-8.3,6.1-8.1c7.5,0.3,12.8-7.3,12.8-7.3S724,145.9,718.5,132.8    c-5.5-13-18.5-22.4-32.5-24.8s-27.3-1.4-42,2c-28.8,6.8-43.9,91.8-49.5,133"/>
		<path class="st3 file-5-element-196" d="M615.3,259.5c0.2-11.5-0.5-23-1.9-34.4"/>
		<path class="st3 file-5-element-197" d="M716.6,183.6c8.9,20.7,14.9,42.6,17.8,65"/>
		<path class="st3 file-5-element-198" d="M703.5,215.6c-0.6,15.4,2.3,30.9,8.6,44.9"/>
		<g>
			<g>
				<path class="st0 file-5-element-199" d="M549.8,335.9c0.9,0.1,1.8,0.2,2.7,0.2c0.1,0,0.1,0,0.2,0c-0.4-0.1-0.8-0.1-1.2-0.1
					 C551,335.9,550.4,335.9,549.8,335.9z"/>
				<path class="st3 file-5-element-200" d="M556,341.9c1.4,0.4,2.9,0.6,4.3,0.3c3.5-0.7,6-3.5,8.9-5.5"/>
				<g>
					<path class="st3 file-5-element-201" d="M564.3,319.9c-2.8-1.2-5.8-1.9-8.8-2.5c-0.7-0.1-1.5-0.3-2.2-0.4"/>
					<path class="st3 file-5-element-202" d="M546.5,317.8c-0.3,0.3-0.6,0.6-0.8,0.9c-0.4,0.7-0.3,1.7,0.2,2.2c0.6,0.6,1.5,0.6,2.3,0.5"/>
					<path class="st3 file-5-element-203" d="M552.9,323.1c0.2,0.2,0.4,0.3,0.6,0.5c1.2,1.1,2.3,2.4,3.7,3.3c1.4,0.9,3.1,1.5,4.7,0.9"/>
				</g>
			</g>
			<path class="st3 file-5-element-204" d="M596.4,299.6c-12.9,3.7-26.2,7.6-33.6,9.8c1.5,10.1,3.1,21.1,8,30.1c4.9,9,24.3,16.3,24.3,16.3
					s27.4-26.2,39-37.3"/>
		</g>
		<g>
			<path class="st3 file-5-element-205" d="M648,499.8c0.8,1.8,2.7,7.3-0.9,7.6c-4.3,0.3-11.3,0.3-12.6,0.6c-1.3,0.3-18,9.6-25.8,9.6s-9.4-4.9-4.9-7.7
					c0,0,0,0,0,0"/>
			<path class="st3 file-5-element-206" d="M630.7,491.7c-2.1,2.1-4.7,3.8-7.2,5.4c-5.3,3.3-10.6,6.6-15.9,9.9c-1.8,1.1-4,3.2-2.9,5.1
					c0.7,1.3,2.4,1.5,3.8,1.4c7.2-0.4,13.4-4.7,20.1-7.2c4.2-1.6,8.8-2.5,13.3-2.7c1.9-0.1,4.2-0.2,5.2-1.8c0.5-0.8,0.8-1.7,0.6-2.6
					c-0.7-3.7-1-7.2-1.2-10.7"/>
			<path class="st3 file-5-element-207" d="M626.1,495.7c-1.5,1-10.1,6.1-10.1,6.1s7.2,2.9,3.8,8.4l8.8-3.9C628.6,506.2,626.5,497.1,626.1,495.7z"/>
		</g>
		<g>
			<path class="st3 file-5-element-208" d="M694.9,501.9c1.4,2.1,3.1,5.4,0.3,6.4c-4,1.4-10.8,3.3-12,3.9c-1.2,0.6-14.7,14.1-22.3,16.2
					c-7.5,2.1-10.3-2.1-6.9-6"/>
			<path class="st3 file-5-element-209" d="M676.8,487.2c0.3,2.1,0.5,4.2,0,6.3c-0.9,4.4-4,7.9-7,11.2c-4.2,4.6-8.5,9.2-12.7,13.8
					c-1.5,1.6-3,4.1-1.4,5.7c1,1,2.7,0.8,4.1,0.3c6.8-2.3,11.7-8.1,17.5-12.3c3.7-2.7,7.8-4.8,12.1-6.1c1.8-0.6,4-1.3,4.5-3.1
					c0.3-0.9,0.3-1.9-0.1-2.7c-1.8-3.6-3.2-7.3-4.2-10.9"/>
			<path class="st3 file-5-element-210" d="M670.3,504.4c-0.8,0.8-2.3,2.2-2.3,2.2l-4.2,4.6c0,0,7.7,0.8,5.9,7.1l7.4-6.1
					C677.2,512.1,674.7,504.4,670.3,504.4z"/>
		</g>
		<path class="st3 file-5-element-211" d="M681.4,216.6c2.8,4.3,7.6,13.1,12.1,28.6c6.9,24.2-3.3,67.2-2,68.8c24,27,35,177.1,29.3,177.9    c-5.7,0.8-46.9-7-58.3-7s-11.2,2.5-25.5,5.5c-11.1,2.4-19.8,1.5-26.3-0.3L635.1,315c0,0,0-4.2-0.2-10.1"/>
		<path class="st3 file-5-element-212" d="M630.8,272.8c-0.3-4.7,1.4-9.6,3.6-13.9c0,0,2.7-5.2,6-11.4"/>
		<path class="st3 file-5-element-213" d="M651.3,222.5c-1,0.3-1.5,0.5-1.5,0.5l-11.4,24.1c0,0,34,0,39.7-27.9"/>
		<g>
			<path class="st3 file-5-element-214" d="M651.6,221.8c0.2,4,0.3,7.6,0.3,8.4"/>
			<path class="st3 file-5-element-215" d="M623.6,198.5c3.7,11.9,13.7,22.8,34,23.4c14.9,0.4,25.6-4.9,33.2-11.9"/>
			<path class="st3 file-5-element-216" d="M689.6,196.5c-10.1,7.2-22.4,11.2-34.6,11.2c-16.4,0-24.9-9.8-29.4-27.4"/>
			<path class="st3 file-5-element-217" d="M631,140.5c8.8-8.2,27.5-16.1,64.2,0.2"/>
		</g>
		<path class="st3 file-5-element-218" d="M642.7,192.5c0,0,9.9,5.4,18.5,0"/>
		<g>
			<g>
				<path d="M638.2,156.6c0-0.1,0-0.1,0.1-0.2c0.6-1.5-0.7-3.4-2.1-3.8c-1.8-0.5-3.1,0.6-3.8,2.1c-1.2,2.9-1.4,5.9-1,9
					 c0.2,1.2,1.5,2.1,2.5,2.2c1.2,0.1,2.4-0.4,3-1.5C638.5,162.2,638.9,159.3,638.2,156.6z" class="undefined file-5-element-219"/>
			</g>
		</g>
		<g>
			<g>
				<path d="M677.5,156.6c0-0.1,0-0.1,0.1-0.2c0.6-1.5-0.7-3.4-2.1-3.8c-1.8-0.5-3.1,0.6-3.8,2.1c-1.2,2.9-1.4,5.9-1,9
					 c0.2,1.2,1.5,2.1,2.5,2.2c1.2,0.1,2.4-0.4,3-1.5C677.8,162.2,678.2,159.3,677.5,156.6z" class="undefined file-5-element-220"/>
			</g>
		</g>
		<path class="st3 file-5-element-221" d="M652.9,159.2c-2.8,8.4-5,19-5,19s5,1.4,10.5,0.6"/>
		<g>
			<g>
				<path class="st3 file-5-element-222" d="M562.6,387.7c-2.3-14.8-4.5-29.7-6.5-44.5c0-0.2-0.1-0.4-0.1-0.6 M553.4,323.1c-1.4-10.9-2.7-21.8-4-32.6
					 c-1.5-12.4-2.9-24.8-4.5-37.2 M543,238.2c-2.4-17.2-5.1-34.3-8.7-51.3c-1.8-8.6-3.8-17.2-6.1-25.7c-1.7-6.4-3.6-14-8.9-17
					 c-1.8-1-3.4,1.3-2.7,3.5c6,17.4,10.1,35.6,13.5,54c0.8,4.5,1.7,9,2.4,13.5c0.4,6.7,1.5,13.3,2.9,19.9c1.5,9,2.8,17.9,4.2,26.9
					 c2.8,19.5,5.2,39.2,7.3,58.8c0,0.2,0,0.3,0,0.5 M548.9,341.3c0.8,9.2,1.5,18.5,2.2,27.8c0,0.9,0,1.7,0,2.6
					 c0.1,5.3,0.3,10.5,1,15.8"/>
				<path class="st3 file-5-element-223" d="M550.2,405.8l1.2-16.6l11.7-1.6L567,406c7.2,3.8,11.6,11.3,14.7,18.8c7.6,18.7,8.8,39.3,8.9,59.5
					 c0.2,20.2,2.9,42,7.1,61.8c0,0-41,8.3-61.1-29.2c-9.1-17.1-8.3-48.9-5.8-68.2C533,433,541.5,419.1,550.2,405.8"/>
				<path class="st3 file-5-element-224" d="M568.3,406.2c-8,0.4-12-2-17-5.2"/>
				<path class="st3 file-5-element-225" d="M565.6,397.7c-4.9-0.8-9.8-1.9-14.6-3.4"/>
				<path class="st3 file-5-element-226" d="M564.7,388.3c-4.1,2.6-8.8,4.3-13.7,4.9"/>
				<path class="st3 file-5-element-227" d="M564.5,387c-5.3,0-10.6-2.6-13.7-7"/>
				<path class="st3 file-5-element-228" d="M562,374.3c-2.8,2.9-6.5,5-10.4,5.7"/>
				<path class="st3 file-5-element-229" d="M562.3,373.5c-4.1,0.6-8.2,0.6-12.3,0.1"/>
				<path class="st3 file-5-element-230" d="M567.9,406.3c-6.4,2-13.1,2.9-19.7,2.8"/>
			</g>
			<g>
				<g>
					<path class="st4 file-5-element-231" d="M557.9,406.6"/>
				</g>
				<g>
					<path class="st4 file-5-element-232" d="M530.1,167"/>
				</g>
			</g>
			<path class="st3 file-5-element-233" d="M550.2,405.8c0,0-0.1-10.4-0.2-19.4"/>
		</g>
		<g>
			<g>
				<g>
					<path class="st3 file-5-element-234" d="M553.4,246.6c-3.3-0.8-16.4-0.4-16.2,0.9c0.1,1.3,14.2,2.5,14.7,2.5"/>
					<path class="st3 file-5-element-235" d="M556.4,240c-3-0.9-16.5-0.5-16.4,0.9c0.1,1.3,13.8,2.4,14.7,2.5"/>
					<path class="st3 file-5-element-236" d="M555.2,243.4c-4-0.8-19.1-0.6-19,0.7c0.1,1.2,15.6,2.6,17.6,2.8"/>
					<path class="st3 file-5-element-237" d="M552,249.9c-2.3-0.7-13.3,0.1-13.3,1.2s11.1,1.9,11.1,1.9"/>
				</g>
				<path class="st3 file-5-element-238" d="M576,250.4c-0.4-1.8-1.6-4.5-4.7-6.6c-3.1-2.1-5.5-7.1-6.5-6.8c-1,0.4-1.7,3.6-0.8,4.7
					 c0.1,0.1,0.2,0.3,0.4,0.6"/>
				<g>
					<path class="st3 file-5-element-239" d="M555.5,239.6c6.2,0.8,18.9,7.5,20.6,11.9"/>
					<path class="st3 file-5-element-240" d="M567.8,262.7c-0.3-0.1-0.6-0.3-1-0.4c-7.7-3.8-17-9.2-17-9.2"/>
				</g>
			</g>
			<path class="st3 file-5-element-241" d="M687.3,242.8c-7.6-10.6-37,14-57.2,32.5c-12.7-11.4-31.6-28.4-40.2-36.1c-7.8,6.6-16.3,13.8-21.3,22.7
					c-5,8.9-1,29.2-1,29.2l62.5,16.7C630.1,307.8,703.5,265.3,687.3,242.8z"/>
		</g>
		<g>
			<path class="st3 file-5-element-242" d="M552.7,341.5c1.7,0.2,3.5,0,5-0.9c0.6-0.3,1.1-0.9,0.9-1.5c-0.2-0.4-0.6-0.6-1-0.7c-2.9-1-7-1.2-10-0.6
					c-1.4,0.2-1.8,1.5-0.5,2.4C548.6,341,551,341.4,552.7,341.5z"/>
		</g>
		<g>
			<path class="st3 file-5-element-243" d="M554.8,334.7c0-0.8-0.5-1.5-1.2-1.8c-0.3-0.1-0.7-0.2-1-0.3c-0.1,0-0.1,0-0.2,0c-0.9,0.1-8.9-0.3-10,0.1
					c-0.3,0.1-0.6,0.2-0.8,0.5c-0.4,0.6,0.1,1.4,0.6,1.8c2.6,2.2,6.3,3,9.8,2.2c0.6-0.1,1.3-0.4,1.8-0.8S554.8,335.4,554.8,334.7z"/>
		</g>
		<g>
			<path class="st3 file-5-element-244" d="M550.8,331.9c0.4,0,0.8,0.1,1.2,0.1c0.7,0,1.5-0.2,1.8-0.8c0.3-0.5,0.2-1.3-0.2-1.8s-0.9-0.9-1.5-1.1
					c-2.4-1.3-5.2-2-7.9-2.1c-1,0-2.5-0.2-3.5,0.1c-1.4,0.4-1.5,1.9-0.4,2.8c1.1,1,4.7,2.2,4.8,2.2c1.3,0.1,2.7,0.3,4,0.5
					C549.7,331.8,550.3,331.8,550.8,331.9z"/>
		</g>
		<g>
			<path class="st3 file-5-element-245" d="M551.3,326.9c0.4,0,0.8,0.1,1.2,0.1c0.7,0,1.5-0.2,1.8-0.8c0.3-0.5,0.2-1.3-0.2-1.8s-0.9-0.9-1.5-1.1
					c-2.4-1.3-5.2-2-7.9-2.1c-1,0-2.5-0.2-3.5,0.1c-1.4,0.4-1.5,1.9-0.4,2.8c1.1,1,4.7,2.2,4.8,2.2c1.3,0.1,2.7,0.3,4,0.5
					C550.2,326.9,550.8,326.9,551.3,326.9z"/>
		</g>
		<path class="st3 file-5-element-246" d="M670.5,144c0,0,10-7.5,15.2,0"/>
		<path class="st3 file-5-element-247" d="M632.9,144c0,0,10-7.5,15.2,0"/>
	</g>
	<path class="st3 file-5-element-248" d="M620.7,213.8c3.2-5.2,8.8-82.4,13.7-85.5c3.9-2.5,18-2.7,22.6-2.7c4.5-0.1,9.1-0.2,13.7-0.2   c6.2-0.1,12.8-0.1,18.1,3.3c3,1.9,6.8,4.2,7.2,7.7c3.7,29.4-13.5,53.5-2.2,76.2"/>
	<path class="st3 file-5-element-249" d="M131.2,269.2c-0.3-0.1-0.6-0.1-0.9-0.2c-3.3-0.8-4.7-4.4-7.4-6.3c-3.2-2.2-7.1-3.4-11-4.1   c-3.1-0.6-6.2-0.8-9.3-1c-2.9-0.1-6.6,0.4-9.1-1.1c-2.3-1.3-1.8-2.8-1.8-5.1c0.1-3.3-0.3-8.5-4.5-9.1c-7.4-1.1-11.2-9.6-11.2-9.6   s46.2-105.4,54.2-117.1s22.4-18.4,36.7-18.2c14.2,0.3,27.1,3.8,40.8,10c29.2,13.2,25.1,113.6,22.6,149.5"/>
	<g>
		<g>
			<g>
				<path class="st4 file-5-element-250" d="M295.8,278.5c2.8,1.2,12.9,10.4,12,11.3s-12.9-7.7-12.9-7.7L295.8,278.5z"/>
				<path class="st4 file-5-element-251" d="M294.2,281.6c2.8,1.2,15.4,12.2,14.5,13.1c-1,0.9-15.3-9.5-15.3-9.5L294.2,281.6z"/>
				<path class="st4 file-5-element-252" d="M293.7,285.3c2.8,1.2,12.9,10.4,12,11.3c-1,0.9-12.9-7.7-12.9-7.7L293.7,285.3z"/>
				<path class="st4 file-5-element-253" d="M292.8,288.9c2.2,1,10.1,8.7,9.3,9.5c-0.8,0.8-9.7-5.8-9.7-5.8L292.8,288.9z"/>
				<path class="st3 file-5-element-254" d="M295.9,278.5c2.8,1.3,12.9,10.4,11.9,11.3c-0.9,0.9-12.1-7.1-12.8-7.6"/>
				<path class="st3 file-5-element-255" d="M294.6,281.8c3.5,2,14.9,12,14,12.9c-0.9,0.9-13.5-8.2-15.2-9.3"/>
				<path class="st3 file-5-element-256" d="M293.7,285.3c2.8,1.2,12.9,10.4,12,11.3c-1,0.9-12.9-7.7-12.9-7.7s0,0,0-0.1"/>
				<path class="st3 file-5-element-257" d="M292.8,288.9c2.2,1,10.1,8.7,9.3,9.5c-0.8,0.8-9.7-5.8-9.7-5.8"/>
			</g>
			<g>
				<path class="st4 file-5-element-258" d="M295.8,278.5c-5.4-3.6-19.6-6.5-22.9-3.6c-0.9,0.8-3.5,5.9-4,7.5c-1.1,3.6,1.3,5.5,4.5,6.3
					 c8.3,2.1,18.9,4,18.9,4L295.8,278.5z"/>
				<path class="st3 file-5-element-259" d="M296.9,278.8c-0.5-0.3-1.1-0.7-1.8-1"/>
				<path class="st3 file-5-element-260" d="M282,290.6c5.6,1.2,10.3,2,10.3,2"/>
			</g>
			<g>
				<g>
					<path class="st5 file-5-element-261" d="M273.7,274.1c1.3-1.1,4.1-3,8.4-2.5c3.7,0.5,8.8-1.8,9.3-0.9s-1.1,3.8-2.4,4.1c-1.2,0.3-11.9,6.1-15.7,0.6
					  "/>
				</g>
				<g>
					<path class="st3 file-5-element-262" d="M273.7,274.1c1.3-1.1,4.1-3,8.4-2.5c3.7,0.5,8.8-1.8,9.3-0.9s-1.1,3.8-2.4,4.1c-1.2,0.3-11.9,6.1-15.7,0.6
					  "/>
				</g>
			</g>
		</g>
		<path class="st3 file-5-element-263" d="M195.4,277.3c7.5,4.1,44.6,25.1,55.4,31"/>
		<path class="st3 file-5-element-264" d="M272,288.7c0.2-0.5,0.3-1,0.4-1.5c2-10,0.2-21-1.4-31.1c-12.7,0.2-42,1.1-58.8,1.4    c-7.9-12.1-19.7-29.7-30.6-41.7"/>
	</g>
	<path class="st3 file-5-element-265" d="M214.2,250.4c-0.4-12.7,4.7-28.6,6.3-41.2"/>
	<path class="st3 file-5-element-266" d="M111.9,176.6c-8.9,20.7-14.9,42.6-17.8,65"/>
	<path class="st3 file-5-element-267" d="M125,208.7c0.6,15.4-2.3,30.9-8.6,44.9"/>
	<g>
		<path class="st3 file-5-element-268" d="M180.3,500.9c-0.3,0.6-3.4,7.9,0.7,8.1c4.3,0.3,11.3,0.3,12.6,0.6c1.3,0.3,17.9,9.6,25.8,9.6s9.4-4.9,4.9-7.7    c0,0,0,0-0.1,0"/>
		<path class="st3 file-5-element-269" d="M193.2,483.8c0.3,2.1,0.7,4.2,1.6,6.1c2,4,6,6.5,9.8,8.9c5.3,3.3,10.6,6.6,15.9,9.9c1.8,1.1,3.9,3.2,2.9,5.1    c-0.7,1.3-2.4,1.5-3.8,1.4c-7.1-0.4-13.4-4.7-20.1-7.2c-4.2-1.6-8.8-2.5-13.3-2.7c-1.9-0.1-4.2-0.2-5.2-1.8    c-0.5-0.8-0.8-1.7-0.6-2.6c1.3-7,1.4-13.6,0.9-19.9"/>
		<path class="st3 file-5-element-270" d="M201.9,497.4c1.5,1,10.1,6.1,10.1,6.1s-7.2,2.9-3.8,8.4l-8.8-3.9C199.4,508,201.6,498.8,201.9,497.4z"/>
	</g>
	<g>
		<path class="st3 file-5-element-271" d="M114.1,501.2c-1.3,1.7-4.4,6.3-1.1,7.5c4.1,1.4,10.8,3.3,12,3.9c1.2,0.6,14.7,14.1,22.3,16.2    s10.4-2.2,6.8-6.1c-0.3-0.4-0.8-0.8-1.4-1.2"/>
		<path class="st3 file-5-element-272" d="M132.2,483.7c-0.1,0.5-0.2,1-0.3,1.5c-0.5,2.9-1,5.8-0.4,8.7c0.9,4.4,4,7.9,7,11.2c4.2,4.6,8.4,9.2,12.7,13.8    c1.5,1.6,2.9,4.1,1.4,5.7c-1,1-2.7,0.8-4.1,0.3c-6.8-2.3-11.7-8.1-17.4-12.3c-3.7-2.7-7.8-4.8-12.1-6.1c-1.8-0.6-4-1.3-4.5-3.1    c-0.3-0.9-0.3-1.9,0.1-2.7c1.3-2.7,2.4-5.3,3.3-8"/>
		<path class="st3 file-5-element-273" d="M137.9,504.8c0.8,0.8,2.3,2.2,2.3,2.2l4.2,4.6c0,0-7.7,0.8-5.9,7.1l-7.4-6.1    C131.1,512.5,133.5,504.8,137.9,504.8z"/>
	</g>
	<path class="st3 file-5-element-274" d="M149.6,206.3c-0.6,0.6-8,8.9-14.6,32c-4.7,16.3-1.5,41.1,0.6,56"/>
	<path class="st3 file-5-element-275" d="M135,309.6c-11.7,16.8-20.1,62.8-24.7,103.4"/>
	<path class="st3 file-5-element-276" d="M133,482.1c12.9-1.9,27-4.1,32.9-4.1c11.4,0,11.2,2.5,25.5,5.5c11.1,2.4,19.8,1.5,26.3-0.3   c0,0-9.2-66-16.2-116.9"/>
	<path class="st3 file-5-element-277" d="M200,355.6c-0.5-3.6-1-7.1-1.4-10.4"/>
	<path class="st3 file-5-element-278" d="M193.4,304.5c0.1-7.6,0.7-25.3,3.7-35.2c1.7-5.7-0.2-12-3-17.3c0,0-2.9-5.6-6.3-12.1"/>
	<path class="st3 file-5-element-279" d="M178.6,216.1C178.7,216.1,178.7,216.1,178.6,216.1l11.5,24.1c0,0-38.8,0-40.4-34c0,0,1.6,0.5,4,1.4"/>
	<path class="st3 file-5-element-280" d="M178.8,215.6c-0.9,4-1.8,7.5-1.9,8.4"/>
	<path class="st3 file-5-element-281" d="M211.4,194.4c-5.4,12.6-16.4,24-38.7,20.4c-15.5-2.6-25.2-10.5-31.2-19.4"/>
	<path class="st3 file-5-element-282" d="M146.2,183.6c8.6,9.1,19.9,15.4,31.9,17.8c17.2,3.4,26.4-5.2,34.6-24.1"/>
	<path class="st3 file-5-element-283" d="M214.3,139.7c-7.3-9.8-24.5-21-64.2-11.5"/>
	<path class="st3 file-5-element-284" d="M189.4,188c0,0-10.7,3.4-18.1-3.5"/>
	<g>
		<g>
			<path class="st3 file-5-element-285" d="M160.1,132.9c7.4-3.2,15.3,3,15.3,3"/>
		</g>
		<g>
			<path class="st3 file-5-element-286" d="M160.1,132.9c7.4-3.2,15.3,3,15.3,3"/>
		</g>
	</g>
	<g>
		<g>
			<path d="M200.6,153.6c0-0.1,0-0.1,0-0.2c-0.3-1.6,1.3-3.2,2.8-3.3c1.8-0.1,2.9,1.2,3.3,2.8c0.6,3.1,0.2,6.1-0.8,9.1
					c-0.4,1.1-1.9,1.7-2.9,1.7c-1.2-0.1-2.2-0.8-2.7-2C199.2,159.1,199.4,156.2,200.6,153.6z" class="undefined file-5-element-287"/>
		</g>
	</g>
	<g>
		<g>
			<path d="M162.1,146.1c0-0.1,0-0.1,0-0.2c-0.3-1.6,1.3-3.2,2.8-3.3c1.8-0.1,2.9,1.2,3.3,2.8c0.6,3.1,0.2,6.1-0.8,9.1
					c-0.4,1.1-1.9,1.7-2.9,1.7c-1.2-0.1-2.2-0.8-2.7-2C160.7,151.6,160.8,148.7,162.1,146.1z" class="undefined file-5-element-288"/>
		</g>
	</g>
	<g>
		<g>
			<path class="st3 file-5-element-289" d="M172.6,399c2.7-3.2,5.2-6.7,7.9-9.9c5-4.2,8.4-9.6,12.7-14.5c0.6-0.6,1.1-1.3,1.7-1.9
					c6.6-6.9,13.3-13.7,20-20.4 M226.7,340.5c0.8-0.7,1.5-1.5,2.3-2.2c14.1-13.8,28.6-27.3,43.3-40.4c6.8-6.1,13.6-12.1,20.5-18
					c5.3-4.1,10.4-8.5,15-13.4c3.5-3,7-5.9,10.5-8.8c14.4-11.9,29.2-23.2,45-32.7c2-1.2,2.2-4,0.2-4.4c-6-1.1-12.3,3.6-17.8,7.4
					c-7.2,5.1-14.2,10.3-21.1,15.8c-11.2,8.8-22,18.1-32.7,27.6 M287,275.7c-0.7,0.6-1.4,1.3-2.1,1.9c-12.9,11.8-25.6,23.8-38.3,35.8
					c-6.7,6.3-13.4,12.7-20.2,18.9 M209.3,348.1c-0.5,0.5-1.1,1-1.6,1.5c-13.1,11.9-26.4,23.7-39.8,35.3c-1.7,1.5-3.4,3-5.1,4.4
					c-0.1,0.1-0.3,0.3-0.4,0.4"/>
			<path class="st3 file-5-element-290" d="M173.8,379.1L159,390.8c-7.9-1.7-16.2,1.2-23.3,5c-17.8,9.4-32,24.5-45,39.9c-13.1,15.4-29.2,30.4-45.1,42.8
					c0,0,26.1,32.7,65.6,16.8c18-7.3,37.8-32.2,48.1-48.6c8.5-13.4,10.9-29.6,12.7-45.3"/>
			<line class="st3 file-5-element-291" x1="172" y1="401.4" x2="190.1" y2="379.8"/>
			<g>
				<g>
					<path class="st6 file-5-element-292" d="M157.9,390.1c5.9,5.4,10.4,6.1,16.4,6.9"/>
					<path class="st6 file-5-element-293" d="M165.4,385.3c4.3,2.5,8.7,4.8,13.3,6.8"/>
					<path class="st6 file-5-element-294" d="M172.1,378.6c1.5,4.6,4,9,7.4,12.5"/>
					<path class="st6 file-5-element-295" d="M173.1,377.8c4.1,3.5,9.8,4.8,15,3.4"/>
					<path class="st6 file-5-element-296" d="M183.2,369.6c0.2,4,1.8,7.9,4.3,11.1"/>
					<path class="st6 file-5-element-297" d="M183.5,368.8c2.8,3.1,5.9,5.8,9.4,8"/>
					<path class="st6 file-5-element-298" d="M158.1,390.4c3.6,5.6,8.1,10.6,13.4,14.8"/>
				</g>
				<g>
					<path class="st3 file-5-element-299" d="M157.9,390.1c5.9,5.4,10.4,6.1,16.4,6.9"/>
					<path class="st3 file-5-element-300" d="M165.4,385.3c4.3,2.5,8.7,4.8,13.3,6.8"/>
					<path class="st3 file-5-element-301" d="M172.1,378.6c1.5,4.6,4,9,7.4,12.5"/>
					<path class="st3 file-5-element-302" d="M173.1,377.8c4.1,3.5,9.8,4.8,15,3.4"/>
					<path class="st3 file-5-element-303" d="M183.2,369.6c0.2,4,1.8,7.9,4.3,11.1"/>
					<path class="st3 file-5-element-304" d="M183.5,368.8c2.8,3.1,5.9,5.8,9.4,8"/>
					<path class="st3 file-5-element-305" d="M158.1,390.4c3.6,5.6,8.1,10.6,13.4,14.8"/>
				</g>
			</g>
		</g>
		<g>
			<g>
				<path class="st4 file-5-element-306" d="M336,226.2"/>
			</g>
			<g>
				<path class="st4 file-5-element-307" d="M165.6,397"/>
			</g>
			<g>
				<path class="st4 file-5-element-308" d="M340.6,231.1"/>
			</g>
		</g>
		<path class="st3 file-5-element-309" d="M179.5,370.8c-8.5,8.2-20.5,20-20.5,20c-7.9-1.7-16.2,1.2-23.3,5c-17.8,9.4-32,24.5-45,39.9    S61.4,466,45.6,478.5c0,0,26.1,32.7,65.6,16.8c18-7.3,37.8-32.2,48.1-48.6c8.5-13.4,10.9-29.6,12.7-45.3"/>
	</g>
	<g>
		<g>
			<g>
				<path class="st4 file-5-element-310" d="M226.9,342.1c2.2,2.1,8.3,14.3,7.1,14.9c-1.2,0.5-9.2-11.8-9.2-11.8L226.9,342.1z"/>
				<path class="st4 file-5-element-311" d="M224.2,344.5c2.2,2.1,10,16.9,8.8,17.4c-1.2,0.5-10.9-14.3-10.9-14.3L224.2,344.5z"/>
				<path class="st4 file-5-element-312" d="M222.5,347.8c2.2,2.1,8.3,14.3,7.1,14.9c-1.2,0.5-9.2-11.8-9.2-11.8L222.5,347.8z"/>
				<path class="st4 file-5-element-313" d="M220.3,350.8c1.7,1.7,6.3,11.8,5.3,12.2s-7-8.9-7-8.9L220.3,350.8z"/>
				<path class="st3 file-5-element-314" d="M226.9,342.2c2.2,2.2,8.3,14.3,7.1,14.8c-1.2,0.5-8.7-11-9.2-11.7"/>
				<path class="st3 file-5-element-315" d="M224.6,344.9c2.6,3.1,9.6,16.5,8.4,17c-1.1,0.5-9.7-12.5-10.8-14.1"/>
				<path class="st3 file-5-element-316" d="M222.5,347.8c2.2,2.1,8.3,14.3,7.1,14.9c-1.2,0.5-9.2-11.8-9.2-11.8s0,0,0.1-0.1"/>
				<path class="st3 file-5-element-317" d="M220.3,350.8c1.7,1.7,6.3,11.8,5.3,12.2s-7-8.9-7-8.9"/>
			</g>
			<g>
				<g>
					<path class="st5 file-5-element-318" d="M207.3,330.3c1.3-0.5,5-1.7,9.2,0.6c3.3,1.8,8.9,1.5,9,2.5c0.1,0.9-1.9,2.7-3.2,3"/>
				</g>
				<g>
					<path class="st3 file-5-element-319" d="M207.3,330.3c1.3-0.5,5-1.7,9.2,0.6c3.3,1.8,8.9,1.5,9,2.5c0.1,0.9-1.9,2.7-3.2,3"/>
				</g>
			</g>
			<g>
				<path class="st4 file-5-element-320" d="M226.9,342.1c-3.8-5.3-16-13.1-20.1-11.6c-1.1,0.4-5.4,4.2-6.4,5.6c-2.3,3-0.8,5.6,2,7.5
					 c7,4.9,16.2,10.5,16.2,10.5L226.9,342.1z"/>
				<path class="st3 file-5-element-321" d="M227.7,342.9c-3.7-5.2-16.2-13.5-20.6-12.4"/>
				<path class="st3 file-5-element-322" d="M201.2,342.7c0.4,0.3,0.8,0.6,1.2,0.9c7,4.9,16.2,10.5,16.2,10.5"/>
			</g>
		</g>
		<path class="st3 file-5-element-323" d="M157.1,228.3c-25.1,11.5-21.2,81.8-21.2,81.8l40.9,46.6c0,0,19.8-6.1,25.2-14.8c5.5-8.7,7.8-19.5,9.8-29.5    c-10.9-3.9-34.8-12.4-50.9-18.2c4.5-18,8.8-44.6,7.6-58.1"/>
	</g>
	<path class="st3 file-5-element-324" d="M201.1,139.7c0,0,5.1-3.1,12.1,2.9"/>
	<path class="st3 file-5-element-325" d="M184.7,147.1c-0.3,2.9-0.5,5.8-0.2,8.7s1.4,5.8,3.5,7.8c1.6,1.6,3.7,2.8,4.2,4.9c0.6,2.4-1.4,4.7-3.7,5.5   s-4.8,0.4-7.2,0"/>
	<path class="st3 file-5-element-326" d="M210.4,219.1c-0.5-14.6,7.1-88.1,3.2-91.8c-3.4-3.2-17.1-6-21.6-7c-4.5-0.9-8.9-1.9-13.4-2.8   c-6.1-1.3-12.6-2.6-18.4-0.2c-3.3,1.3-7.4,2.8-8.5,6.2c-9.3,28.3,3.2,55.4-12.7,75.5"/>
</g>
</svg>
