<?xml version="1.0" encoding="UTF-8"?>
<!-- Generator: Adobe Illustrator 25.2.3, SVG Export Plug-In . SVG Version: 6.00 Build 0)  -->
<svg xmlns="http://www.w3.org/2000/svg" xmlns:xlink="http://www.w3.org/1999/xlink" version="1.1" id="Layer_1" x="0px" y="0px" viewBox="0 0 792 612" style="enable-background:new 0 0 792 612;" xml:space="preserve">
<style type="text/css">
	.st0{fill:#FFFFFF;}
	.st1{fill:none;stroke:#000000;stroke-width:2.5;stroke-miterlimit:10;}
	.st2{fill:none;stroke:#000000;stroke-width:2.5;}
	.st3{fill:none;stroke:#000000;stroke-width:1.75;stroke-miterlimit:10;}
	.st4{fill:none;stroke:#000000;stroke-width:2.5;stroke-linecap:round;stroke-linejoin:round;stroke-miterlimit:10;}
</style>
<g id="White">
	<rect x="-24.2" y="-22.5" class="st0 file-10-element-1" width="839.8" height="542.9"/>
	<rect x="187.2" y="8.4" class="st0 file-10-element-2" width="417.9" height="511.8"/>
	<rect x="33.1" y="583.3" class="st0 file-10-element-3" width="725.7" height="28.7"/>
	<path class="st0 file-10-element-4" d="M687.9,584.4l-59-32H156.2c0,0-46.1,38.7-48.1,38.1c41.9,25,155,42.9,288,42.9c132.9,0,245.9-17.9,287.9-42.8   L687.9,584.4z"/>
	<path class="st0 file-10-element-5" d="M641.6,559.3l-22.1-38.9c0,0-442.6,2.6-447.1,0s-26.2,35.8-25.9,41.4c36.3,25,134.3,42.9,249.5,42.9   c115.1,0,213-17.9,249.4-42.8L641.6,559.3z"/>
	<path class="st0 file-10-element-6" d="M619.6,520.5c0,35.3-100.1,63.9-223.6,63.9s-223.6-28.6-223.6-63.9H619.6z"/>
	<path class="st0 file-10-element-7" d="M564.4,520.5c0,26.6-75.4,48.2-168.4,48.2s-168.4-21.6-168.4-48.2H564.4z"/>
	<path class="st0 file-10-element-8" d="M511.4,520.5c0,18.2-51.7,33-115.4,33s-115.4-14.8-115.4-33H511.4z"/>
	<path class="st0 file-10-element-9" d="M459.2,520.5c0,10-28.3,18.1-63.2,18.1s-63.2-8.1-63.2-18.1H459.2z"/>
	<rect x="236.7" y="95.9" class="st0 file-10-element-10" width="318.5" height="423.4"/>
	<rect x="215.6" y="70.6" class="st0 file-10-element-11" width="360.7" height="25.3"/>
	<rect x="271.2" y="215" class="st0 file-10-element-12" width="249.6" height="305.2"/>
	<rect x="268" y="123.5" class="st0 file-10-element-13" width="256.1" height="69.3"/>
	<polygon class="st0 file-10-element-14" points="419.2,104.1 375.8,104.1 332,17.6 460,17.6  "/>
	<polygon class="st0 file-10-element-15" points="412,103.5 380,103.5 348,-4.6 444,-4.6  "/>
	<path class="st0 file-10-element-16" d="M285.7,170.8c-6.1,0-9.8-5.2-9.8-11.9c0-7,4-12.2,10.1-12.2c6.4,0,9.9,5.4,9.9,11.8   C295.9,166.2,291.8,170.8,285.7,170.8L285.7,170.8z M285.9,166.6c3.2,0,5-3.4,5-7.9c0-4.2-1.8-7.8-5-7.8s-5,3.5-5,7.9   C280.9,163.2,282.7,166.6,285.9,166.6L285.9,166.6L285.9,166.6z"/>
	<path class="st0 file-10-element-17" d="M300.5,147.4c1.5-0.3,3.7-0.5,6.2-0.5c3.1,0,5.2,0.5,6.7,1.9c1.3,1.1,1.9,2.7,1.9,4.9c0,2.9-1.9,5-3.7,5.7v0.1   c1.5,0.7,2.2,2.2,2.8,4.3c0.6,2.7,1.3,5.7,1.7,6.6h-4.8c-0.3-0.7-0.8-2.6-1.4-5.4c-0.6-2.9-1.5-3.7-3.4-3.7h-1.4v9.2h-4.6   L300.5,147.4L300.5,147.4z M305.1,157.4h1.9c2.3,0,3.7-1.3,3.7-3.4c0-2.1-1.3-3.2-3.5-3.2c-1.1,0-1.8,0.1-2.1,0.2V157.4z"/>
	<path class="st0 file-10-element-18" d="M325.4,164.4l-1.5,6H319l6.4-23.3h6.1l6.5,23.3h-5l-1.6-6H325.4z M330.6,160.5l-1.3-4.9   c-0.3-1.4-0.7-3.1-1-4.5h-0.1c-0.3,1.4-0.6,3.1-0.9,4.5l-1.3,4.9H330.6z"/>
	<path class="st0 file-10-element-19" d="M362.4,160.5h-7.6v5.5h8.5v4.3h-13.2v-23.3h12.8v4.3h-8.1v4.8h7.6L362.4,160.5L362.4,160.5z"/>
	<path class="st0 file-10-element-20" d="M394.4,147.1h4.7V166h8.3v4.4h-12.9V147.1z"/>
	<path class="st0 file-10-element-21" d="M416.7,164.4l-1.5,6h-4.9l6.4-23.3h6.1l6.5,23.3h-5l-1.6-6H416.7z M421.9,160.5l-1.3-4.9   c-0.3-1.4-0.7-3.1-1-4.5h-0.1c-0.3,1.4-0.6,3.1-0.9,4.5l-1.3,4.9H421.9z"/>
	<path class="st0 file-10-element-22" d="M433.6,147.4c1.2-0.3,3.7-0.5,6.1-0.5c2.9,0,4.6,0.3,6.1,1.3c1.5,0.9,2.5,2.5,2.5,4.6c0,2-1.1,3.9-3.4,4.9v0.1   c2.4,0.7,4.1,2.7,4.1,5.8c0,2.1-0.9,3.8-2.2,4.9c-1.5,1.4-4,2.1-8.2,2.1c-2.3,0-4-0.2-5.1-0.4V147.4z M438.3,156.3h1.5   c2.5,0,3.8-1.1,3.8-2.9c0-1.8-1.2-2.7-3.3-2.7c-1,0-1.6,0.1-2,0.2L438.3,156.3L438.3,156.3z M438.3,166.7c0.5,0.1,1,0.1,1.8,0.1   c2.1,0,4-0.9,4-3.4c0-2.4-1.9-3.3-4.2-3.3h-1.6V166.7z"/>
	<path class="st0 file-10-element-23" d="M462.6,170.8c-6.1,0-9.8-5.2-9.8-11.9c0-7,4-12.2,10.1-12.2c6.4,0,9.9,5.4,9.9,11.8   C472.8,166.2,468.7,170.8,462.6,170.8L462.6,170.8z M462.8,166.6c3.2,0,5-3.4,5-7.9c0-4.2-1.8-7.8-5-7.8c-3.2,0-5,3.5-5,7.9   C457.8,163.2,459.6,166.6,462.8,166.6L462.8,166.6L462.8,166.6z"/>
	<path class="st0 file-10-element-24" d="M477.4,147.4c1.5-0.3,3.7-0.5,6.2-0.5c3.1,0,5.2,0.5,6.7,1.9c1.3,1.1,1.9,2.7,1.9,4.9c0,2.9-1.9,5-3.7,5.7v0.1   c1.5,0.7,2.2,2.2,2.8,4.3c0.6,2.7,1.3,5.7,1.7,6.6h-4.8c-0.3-0.7-0.8-2.6-1.4-5.4c-0.6-2.9-1.5-3.7-3.4-3.7H482v9.2h-4.6   L477.4,147.4L477.4,147.4z M482,157.4h1.9c2.3,0,3.7-1.3,3.7-3.4c0-2.1-1.3-3.2-3.5-3.2c-1.1,0-1.8,0.1-2.1,0.2L482,157.4   L482,157.4z"/>
	<path class="st0 file-10-element-25" d="M502.3,164.4l-1.5,6h-4.9l6.4-23.3h6.1l6.5,23.3h-5l-1.6-6H502.3z M507.5,160.5l-1.3-4.9   c-0.3-1.4-0.7-3.1-1-4.5h-0.1c-0.3,1.4-0.6,3.1-0.9,4.5l-1.3,4.9H507.5z"/>
	<g>
		<rect x="210.3" y="95.9" class="st0 file-10-element-26" width="31.6" height="61.4"/>
		<rect x="216.8" y="157.3" class="st0 file-10-element-27" width="25.1" height="61.4"/>
		<rect x="210.3" y="219.2" class="st0 file-10-element-28" width="31.6" height="61.4"/>
		<rect x="216.8" y="280.7" class="st0 file-10-element-29" width="25.1" height="61.4"/>
		<rect x="210.3" y="342.6" class="st0 file-10-element-30" width="31.6" height="61.4"/>
		<rect x="187.2" y="465.5" class="st0 file-10-element-31" width="54.7" height="54.7"/>
		<rect x="216.8" y="404.1" class="st0 file-10-element-32" width="25.1" height="61.4"/>
	</g>
	<g>
		<rect x="550.2" y="95.9" class="st0 file-10-element-33" width="31.6" height="61.4"/>
		<rect x="550.2" y="157.3" class="st0 file-10-element-34" width="25.1" height="61.4"/>
		<rect x="550.2" y="219.3" class="st0 file-10-element-35" width="31.6" height="61.4"/>
		<rect x="550.2" y="280.7" class="st0 file-10-element-36" width="25.1" height="61.4"/>
		<rect x="550.2" y="342.6" class="st0 file-10-element-37" width="31.6" height="61.4"/>
		<rect x="550.2" y="465.5" class="st0 file-10-element-38" width="54.7" height="54.7"/>
		<rect x="550.2" y="404.1" class="st0 file-10-element-39" width="25.1" height="61.4"/>
	</g>
	<rect x="283.8" y="292.6" class="st0 file-10-element-40" width="112.2" height="226.5"/>
	<polygon class="st0 file-10-element-41" points="363,420.4 315.3,420.4 307.8,411.4 315.3,402.5 363,402.5 372,411.4  "/>
	<path class="st0 file-10-element-42" d="M362,415.5c-1.1,0-2.2,0.2-3.1,0.7v-3.8c1.9-0.4,3.2-1.4,3.2-2.5c0-1.5-2.3-2.7-5.2-2.7s-5.2,1.2-5.2,2.7   c0,1.1,1.3,2.1,3.2,2.5v5.1h-3.6c-0.4-1.8-1.2-3.1-2.3-3.1c-1,0-1.9,1.3-2.3,3.1h-5.8c-0.2-1.8-0.7-3.1-1.3-3.1s-1.1,1.3-1.3,3.1   h-5.8c-0.4-1.8-1.2-3.1-2.3-3.1c-1,0-1.9,1.3-2.3,3.1h-3.6v-5.1c1.9-0.4,3.2-1.4,3.2-2.5c0-1.5-2.3-2.7-5.2-2.7s-5.2,1.2-5.2,2.7   c0,1.1,1.3,2.1,3.2,2.5v3.8c-0.9-0.4-1.9-0.7-3.1-0.7c-3,0-5.4,1.7-5.4,3.8s2.4,3.8,5.4,3.8c1.1,0,2.2-0.2,3.1-0.7v2.1h3.9v-3.3   h3.6c0.4,1.8,1.2,3.1,2.3,3.1s1.9-1.3,2.3-3.1h5.8c0.2,1.8,0.7,3.1,1.3,3.1s1.1-1.3,1.3-3.1h5.8c0.4,1.8,1.2,3.1,2.3,3.1   s1.9-1.3,2.3-3.1h3.6v3.3h3.9v-2.1c0.9,0.4,1.9,0.7,3.1,0.7c3,0,5.4-1.7,5.4-3.8C367.4,417.2,365,415.5,362,415.5z"/>
	<rect x="283.8" y="497.9" class="st0 file-10-element-43" width="112.2" height="22.2"/>
	<rect x="396" y="292.6" class="st0 file-10-element-44" width="112.2" height="226.5"/>
	<rect x="303.5" y="312.9" class="st0 file-10-element-45" width="73.8" height="80.4"/>
	<polygon class="st0 file-10-element-46" points="475.3,420.4 427.5,420.4 420,411.4 427.5,402.5 475.3,402.5 484.2,411.4  "/>
	<path class="st0 file-10-element-47" d="M474.2,415.5c-1.1,0-2.2,0.2-3.1,0.7v-3.8c1.9-0.4,3.2-1.4,3.2-2.5c0-1.5-2.3-2.7-5.2-2.7s-5.2,1.2-5.2,2.7   c0,1.1,1.3,2.1,3.2,2.5v5.1h-3.6c-0.4-1.8-1.2-3.1-2.3-3.1c-1,0-1.9,1.3-2.3,3.1h-5.8c-0.2-1.8-0.7-3.1-1.3-3.1s-1.1,1.3-1.3,3.1   h-5.8c-0.4-1.8-1.2-3.1-2.3-3.1c-1,0-1.9,1.3-2.3,3.1h-3.6v-5.1c1.9-0.4,3.2-1.4,3.2-2.5c0-1.5-2.3-2.7-5.2-2.7s-5.2,1.2-5.2,2.7   c0,1.1,1.3,2.1,3.2,2.5v3.8c-0.9-0.4-1.9-0.7-3.1-0.7c-3,0-5.4,1.7-5.4,3.8s2.4,3.8,5.4,3.8c1.1,0,2.2-0.2,3.1-0.7v2.1h3.9v-3.3   h3.6c0.4,1.8,1.2,3.1,2.3,3.1s1.9-1.3,2.3-3.1h5.8c0.2,1.8,0.7,3.1,1.3,3.1s1.1-1.3,1.3-3.1h5.8c0.4,1.8,1.2,3.1,2.3,3.1   c1,0,1.9-1.3,2.3-3.1h3.6v3.3h3.9v-2.1c0.9,0.4,1.9,0.7,3.1,0.7c3,0,5.4-1.7,5.4-3.8C479.6,417.2,477.2,415.5,474.2,415.5z"/>
	<rect x="396" y="497.9" class="st0 file-10-element-48" width="112.2" height="22.2"/>
	<rect x="283.5" y="267.6" class="st0 file-10-element-49" width="225" height="20"/>
	<polygon class="st0 file-10-element-50" points="413.4,26.4 398.7,26.4 398.7,17.6 406.4,17.6 406.4,12.1 398.7,12.1 398.7,2.7 393.3,2.7 393.3,12.1    385.6,12.1 385.6,17.6 393.3,17.6 393.3,26.4 378.6,26.4 378.6,31.8 393.3,31.8 393.3,84.4 398.7,84.4 398.7,31.8 413.4,31.8  "/>
	<path class="st0 file-10-element-51" d="M401.8,83.3h-11.6V70.2c0-3.2,2.6-5.8,5.8-5.8l0,0c3.2,0,5.8,2.6,5.8,5.8L401.8,83.3L401.8,83.3z"/>
	<path class="st0 file-10-element-52" d="M396.2,99.3h-11.6V86.4c0-3.2,2.6-5.7,5.7-5.7h0.1c3.2,0,5.7,2.6,5.7,5.7L396.2,99.3L396.2,99.3z"/>
	<path class="st0 file-10-element-53" d="M407.4,99.3h-11.6V86.4c0-3.2,2.6-5.7,5.7-5.7h0.1c3.2,0,5.7,2.6,5.7,5.7L407.4,99.3L407.4,99.3z"/>
	<path class="st0 file-10-element-54" d="M377.8,42.1c1-0.2,2.5-0.3,4.5-0.3c2,0,3.5,0.4,4.5,1.2c1,0.7,1.6,1.9,1.6,3.4c0,1.5-0.5,2.7-1.3,3.5   c-1.1,1-2.8,1.5-4.7,1.5c-0.4,0-0.8,0-1.1-0.1v5.2h-3.3V42.1z M381,48.8c0.3,0.1,0.6,0.1,1.1,0.1c1.8,0,2.8-0.9,2.8-2.4   c0-1.3-0.9-2.1-2.6-2.1c-0.6,0-1.1,0-1.3,0.1V48.8z"/>
	<path class="st0 file-10-element-55" d="M392.4,52.8l-1,3.8H388l4.5-14.6h4.3l4.5,14.6h-3.5l-1.1-3.8H392.4z M396.1,50.3l-0.9-3.1   c-0.2-0.9-0.5-2-0.7-2.8h-0.1c-0.2,0.9-0.4,2-0.6,2.8l-0.9,3.1H396.1z"/>
	<path class="st0 file-10-element-56" d="M410.4,56.5l-1.3-2.6c-0.5-1-0.9-1.8-1.3-2.6h0c-0.3,0.8-0.7,1.6-1.1,2.6l-1.2,2.6h-3.8l4.2-7.4l-4.1-7.2h3.8   l1.3,2.7c0.4,0.9,0.8,1.6,1.1,2.4h0c0.4-0.9,0.6-1.6,1-2.4l1.2-2.7h3.8l-4.1,7.1l4.3,7.5C414.2,56.5,410.4,56.5,410.4,56.5z"/>
	<g>
		<rect x="-46.8" y="17.2" class="st0 file-10-element-57" width="60.4" height="29.5"/>
	</g>
	<g>
		<rect x="13.5" y="76.4" class="st0 file-10-element-58" width="60.4" height="29.5"/>
	</g>
	<g>
		<rect x="46.8" y="105.9" class="st0 file-10-element-59" width="60.4" height="29.5"/>
	</g>
	<g>
		<rect x="134.3" y="194.7" class="st0 file-10-element-60" width="33.2" height="29.5"/>
		<rect x="13.5" y="194.7" class="st0 file-10-element-61" width="60.4" height="29.5"/>
	</g>
	<g>
		<rect x="46.8" y="224.2" class="st0 file-10-element-62" width="60.4" height="29.5"/>
	</g>
	<g>
		<rect x="107.1" y="283.4" class="st0 file-10-element-63" width="60.4" height="29.5"/>
	</g>
	<g>
		<rect x="73.9" y="313.1" class="st0 file-10-element-64" width="60.4" height="29.5"/>
		<rect x="13.5" y="313.1" class="st0 file-10-element-65" width="60.4" height="29.5"/>
	</g>
	<g>
		<rect x="134.3" y="372.3" class="st0 file-10-element-66" width="33.2" height="29.5"/>
	</g>
	<g>
		<rect x="46.8" y="401.8" class="st0 file-10-element-67" width="60.4" height="29.5"/>
	</g>
	<g>
		<rect x="73.9" y="431.5" class="st0 file-10-element-68" width="60.4" height="29.5"/>
		<rect x="13.5" y="431.5" class="st0 file-10-element-69" width="60.4" height="29.5"/>
	</g>
	<rect x="657.7" y="17.2" class="st0 file-10-element-70" width="60.4" height="29.5"/>
	<rect x="718.1" y="76.4" class="st0 file-10-element-71" width="60.4" height="29.5"/>
	<rect x="684.9" y="105.9" class="st0 file-10-element-72" width="60.4" height="29.5"/>
	<rect x="624.5" y="135.5" class="st0 file-10-element-73" width="33.2" height="29.5"/>
	<rect x="718.1" y="135.5" class="st0 file-10-element-74" width="60.4" height="29.5"/>
	<rect x="718.1" y="194.7" class="st0 file-10-element-75" width="60.4" height="29.5"/>
	<rect x="684.9" y="224.2" class="st0 file-10-element-76" width="60.4" height="29.5"/>
	<rect x="657.7" y="313.1" class="st0 file-10-element-77" width="60.4" height="29.5"/>
	<rect x="684.9" y="342.6" class="st0 file-10-element-78" width="60.4" height="29.5"/>
	<rect x="624.5" y="372.3" class="st0 file-10-element-79" width="33.2" height="29.5"/>
	<rect x="684.9" y="401.8" class="st0 file-10-element-80" width="60.4" height="29.5"/>
	<rect x="684.9" y="461" class="st0 file-10-element-81" width="60.4" height="29.5"/>
	<rect x="657.7" y="490.6" class="st0 file-10-element-82" width="60.4" height="29.5"/>
	<rect x="167.5" y="519.1" class="st0 file-10-element-83" width="456.9" height="6.9"/>
	<polygon class="st0 file-10-element-84" points="246.4,8.4 256.3,25.6 256.3,70.6 238,66.3  "/>
	<rect x="219.6" y="8.4" class="st0 file-10-element-85" width="26.8" height="12.4"/>
	<path class="st0 file-10-element-86" d="M256.3,70.6c-11.9-2.5-3.8-19.4-3.8-25.4c0-3.3-1.1-6.8-1.9-10c-1.2-4.9-2.7-9.6-4.4-14.4h-26.6   c1.7,4.8,3.2,9.6,4.4,14.4c0.8,3.2,1.9,6.7,1.9,10c0,6-8.1,22.9,3.8,25.4H256.3z"/>
	<g>
		<polygon class="st0 file-10-element-87" points="303.3,8.4 313.2,25.6 313.2,70.6 294.9,66.3   "/>
		<rect x="276.5" y="8.4" class="st0 file-10-element-88" width="26.8" height="12.4"/>
		<path class="st0 file-10-element-89" d="M313.2,70.6c-11.9-2.5-3.8-19.4-3.8-25.4c0-3.3-1.1-6.8-1.9-10c-1.2-4.9-2.7-9.6-4.4-14.4h-26.6    c1.7,4.8,3.2,9.6,4.4,14.4c0.8,3.2,1.9,6.7,1.9,10c0,6-8,22.9,3.8,25.4H313.2z"/>
	</g>
	<polygon class="st0 file-10-element-90" points="545.6,8.4 535.7,25.6 535.7,70.6 554,66.3  "/>
	<rect x="545.6" y="8.4" class="st0 file-10-element-91" width="26.8" height="12.4"/>
	<path class="st0 file-10-element-92" d="M535.7,70.6c11.9-2.5,3.8-19.4,3.8-25.4c0-3.3,1.1-6.8,1.9-10c1.2-4.9,2.7-9.6,4.4-14.4h26.6   c-1.7,4.8-3.2,9.6-4.4,14.4c-0.8,3.2-1.9,6.7-1.9,10c0,6,8,22.9-3.8,25.4H535.7z"/>
	<polygon class="st0 file-10-element-93" points="488.7,8.4 478.8,25.6 478.8,70.6 497.1,66.3  "/>
	<rect x="488.7" y="8.4" class="st0 file-10-element-94" width="26.8" height="12.4"/>
	<path class="st0 file-10-element-95" d="M478.8,70.6c11.9-2.5,3.8-19.4,3.8-25.4c0-3.3,1.1-6.8,1.9-10c1.2-4.9,2.7-9.6,4.4-14.4h26.6   c-1.7,4.8-3.2,9.6-4.4,14.4c-0.8,3.2-1.9,6.7-1.9,10c0,6,8.1,22.9-3.8,25.4H478.8z"/>
	<path class="st0 file-10-element-96" d="M300.3,312v83.1h79.1V312H300.3z M312.8,391.1h-7.5l1.2-3.9v-67.4l-1.2-3.6h7.5l-1.2,3.6V387L312.8,391.1z    M325.1,391.1h-7.5l1.2-3.9v-67.4l-1.2-3.6h7.5l-1.2,3.6V387L325.1,391.1z M337.5,391.1H330l1.2-3.9v-67.4l-1.2-3.6h7.5l-1.2,3.6   V387L337.5,391.1z M349.8,391.1h-7.5l1.2-3.9v-67.4l-1.2-3.6h7.5l-1.2,3.6V387L349.8,391.1z M362.1,391.1h-7.5l1.2-3.9v-67.4   l-1.2-3.6h7.5l-1.2,3.6V387L362.1,391.1z M374.5,391.1H367l1.2-3.9v-67.4l-1.2-3.6h7.5l-1.2,3.6V387L374.5,391.1z"/>
	<rect x="415.4" y="312.9" class="st0 file-10-element-97" width="73.3" height="80.4"/>
	<path class="st0 file-10-element-98" d="M412.5,312v83.1h79.1V312H412.5z M425,391.1h-7.5l1.2-3.9v-67.4l-1.2-3.6h7.5l-1.2,3.6V387L425,391.1z    M437.4,391.1h-7.5l1.2-3.9v-67.4l-1.2-3.6h7.5l-1.2,3.6V387L437.4,391.1z M449.7,391.1h-7.5l1.2-3.9v-67.4l-1.2-3.6h7.5l-1.2,3.6   V387L449.7,391.1z M462,391.1h-7.5l1.2-3.9v-67.4l-1.2-3.6h7.5l-1.2,3.6V387L462,391.1z M474.4,391.1h-7.5l1.2-3.9v-67.4l-1.2-3.6   h7.5l-1.2,3.6V387L474.4,391.1z M486.7,391.1h-7.5l1.2-3.9v-67.4l-1.2-3.6h7.5l-1.2,3.6V387L486.7,391.1z"/>
	<rect x="303.5" y="432" class="st0 file-10-element-99" width="72.9" height="56.8"/>
	<path class="st0 file-10-element-100" d="M300.3,429.8v61h79.1v-61H300.3z M312.8,486.6h-7.5l1.2-2.8v-47.4l-1.2-2.5h7.5l-1.2,2.5v47.2L312.8,486.6z    M325.1,486.6h-7.5l1.2-2.8v-47.4l-1.2-2.5h7.5l-1.2,2.5v47.2L325.1,486.6z M337.5,486.6H330l1.2-2.8v-47.4L330,434h7.5l-1.2,2.5   v47.2L337.5,486.6z M349.8,486.6h-7.5l1.2-2.8v-47.4l-1.2-2.5h7.5l-1.2,2.5v47.2L349.8,486.6z M362.1,486.6h-7.5l1.2-2.8v-47.4   l-1.2-2.5h7.5l-1.2,2.5v47.2L362.1,486.6z M374.5,486.6H367l1.2-2.8v-47.4L367,434h7.5l-1.2,2.5v47.2L374.5,486.6z"/>
	<rect x="416" y="430.8" class="st0 file-10-element-101" width="71.6" height="59"/>
	<path class="st0 file-10-element-102" d="M412.5,429.8v61h79.1v-61H412.5z M425,486.6h-7.5l1.2-2.8v-47.4l-1.2-2.5h7.5l-1.2,2.5v47.2L425,486.6z    M437.4,486.6h-7.5l1.2-2.8v-47.4l-1.2-2.5h7.5l-1.2,2.5v47.2L437.4,486.6z M449.7,486.6h-7.5l1.2-2.8v-47.4l-1.2-2.5h7.5l-1.2,2.5   v47.2L449.7,486.6z M462,486.6h-7.5l1.2-2.8v-47.4l-1.2-2.5h7.5l-1.2,2.5v47.2L462,486.6z M474.4,486.6h-7.5l1.2-2.8v-47.4   l-1.2-2.5h7.5l-1.2,2.5v47.2L474.4,486.6z M486.7,486.6h-7.5l1.2-2.8v-47.4l-1.2-2.5h7.5l-1.2,2.5v47.2L486.7,486.6z"/>
	<rect x="283.8" y="224.2" class="st0 file-10-element-103" width="220.3" height="43.5"/>
	<g>
		<path class="st0 file-10-element-104" d="M356.8,244.1c0-1.8,1-3.4,2.5-4.2v-16.2h-12.8V240c1.5,0.8,2.5,2.4,2.5,4.2s-1,3.4-2.5,4.2v19.3h12.8v-19.3    C357.9,247.5,356.8,245.9,356.8,244.1z"/>
		<path class="st0 file-10-element-105" d="M339.6,244.1c0-1.8,1-3.4,2.5-4.2v-16.2h-12.8V240c1.5,0.8,2.5,2.4,2.5,4.2s-1,3.4-2.5,4.2v19.3h12.8v-19.3    C340.6,247.5,339.6,245.9,339.6,244.1z"/>
		<path class="st0 file-10-element-106" d="M391.3,244.1c0-1.8,1-3.4,2.5-4.2v-16.2H381V240c1.5,0.8,2.5,2.4,2.5,4.2s-1,3.4-2.5,4.2v19.3h12.8v-19.3    C392.3,247.5,391.3,245.9,391.3,244.1z"/>
		<path class="st0 file-10-element-107" d="M374,244.1c0-1.8,1-3.4,2.5-4.2v-16.2h-12.8V240c1.5,0.8,2.5,2.4,2.5,4.2s-1,3.4-2.5,4.2v19.3h12.8v-19.3    C375.1,247.5,374,245.9,374,244.1z"/>
		<path class="st0 file-10-element-108" d="M322.4,244.1c0-1.8,1-3.4,2.5-4.2v-16.2h-12.8V240c1.5,0.8,2.5,2.4,2.5,4.2s-1,3.4-2.5,4.2v19.3h12.8v-19.3    C323.4,247.5,322.4,245.9,322.4,244.1z"/>
		<path class="st0 file-10-element-109" d="M305.1,244.1c0-1.8,1-3.4,2.5-4.2v-16.2h-12.8V240c1.5,0.8,2.5,2.4,2.5,4.2s-1,3.4-2.5,4.2v19.3h12.8v-19.3    C306.2,247.5,305.1,245.9,305.1,244.1z"/>
		<path class="st0 file-10-element-110" d="M287.9,244.1c0-1.8,1-3.4,2.5-4.2v-16.2h-7v43.8h7v-19.3C289,247.5,287.9,245.9,287.9,244.1z"/>
		<path class="st0 file-10-element-111" d="M477.4,244.1c0-1.8,1-3.4,2.5-4.2v-16.2h-12.8V240c1.5,0.8,2.5,2.4,2.5,4.2s-1,3.4-2.5,4.2v19.3h12.8v-19.3    C478.4,247.5,477.4,245.9,477.4,244.1z"/>
		<path class="st0 file-10-element-112" d="M494.6,244.1c0-1.8,1-3.4,2.5-4.2v-16.2h-12.8V240c1.5,0.8,2.5,2.4,2.5,4.2s-1,3.4-2.5,4.2v19.3h12.8v-19.3    C495.7,247.5,494.6,245.9,494.6,244.1z"/>
		<path class="st0 file-10-element-113" d="M501.6,223.8V240c1.5,0.8,2.5,2.4,2.5,4.2s-1,3.4-2.5,4.2v19.3h7v-43.8L501.6,223.8L501.6,223.8z"/>
		<path class="st0 file-10-element-114" d="M425.7,244.1c0-1.8,1-3.4,2.5-4.2v-16.2h-12.8V240c1.5,0.8,2.5,2.4,2.5,4.2s-1,3.4-2.5,4.2v19.3h12.8v-19.3    C426.8,247.5,425.7,245.9,425.7,244.1z"/>
		<path class="st0 file-10-element-115" d="M408.5,244.1c0-1.8,1-3.4,2.5-4.2v-16.2h-12.8V240c1.5,0.8,2.5,2.4,2.5,4.2s-1,3.4-2.5,4.2v19.3H411v-19.3    C409.5,247.5,408.5,245.9,408.5,244.1z"/>
		<path class="st0 file-10-element-116" d="M460.2,244.1c0-1.8,1-3.4,2.5-4.2v-16.2h-12.8V240c1.5,0.8,2.5,2.4,2.5,4.2s-1,3.4-2.5,4.2v19.3h12.8v-19.3    C461.2,247.5,460.2,245.9,460.2,244.1z"/>
		<path class="st0 file-10-element-117" d="M443,244.1c0-1.8,1-3.4,2.5-4.2v-16.2h-12.8V240c1.5,0.8,2.5,2.4,2.5,4.2s-1,3.4-2.5,4.2v19.3h12.8v-19.3    C444,247.5,443,245.9,443,244.1z"/>
	</g>
	<path class="st0 file-10-element-118" d="M-13.6,519.2l186.1,1.2c0,0-31.6,79.4-180,84.3L-13.6,519.2z"/>
	<path class="st0 file-10-element-119" d="M808.1,519.2L622,520.5c0,0,31.6,79.4,180,84.3L808.1,519.2z"/>
	<path class="st0 file-10-element-120" d="M0.3,618C163.2,601,171,521,171,521l-3.1-0.8c0,0-17,73.2-175.4,70.2L0.3,618z"/>
	<path class="st0 file-10-element-121" d="M791.7,618C628.8,601,621,521,621,521l3.1-0.8c0,0,17,73.2,175.5,70.2L791.7,618z"/>
	<path class="st0 file-10-element-122" d="M372.2,151.5h-5.6v-4.4h16v4.4h-5.7v18.9h-4.7V151.5z"/>
	<rect x="778.5" y="432.3" class="st0 file-10-element-123" width="45.7" height="27.9"/>
</g>
<g id="Blacklines">
	<path class="st1 file-10-element-124" d="M425,95.9c68.9,0,130.2,0,130.2,0v423.4H236.7V95.9c0,0,64.4,0,135.4,0"/>
	<path class="st1 file-10-element-125" d="M435.3,70.6c75.3,0,141.1,0,141.1,0v25.3c0,0-72.8,0-153,0"/>
	<path class="st1 file-10-element-126" d="M370.4,95.9c-80.9,0-154.7,0-154.7,0V70.6c0,0,66.6,0,142.5,0"/>
	<rect x="271.2" y="215" class="st1 file-10-element-127" width="249.6" height="305.2"/>
	<rect x="268" y="123.5" class="st1 file-10-element-128" width="256.1" height="69.3"/>
	<path class="st1 file-10-element-129" d="M187.2,8.4c0,0,77.1,0,165,0"/>
	<path class="st1 file-10-element-130" d="M440.4,8.4c87.8,0,164.6,0,164.6,0"/>
	<path class="st1 file-10-element-131" d="M438.6,17.6c12.2,0,21.4,0,21.4,0l-40.7,86.5h-43.5L332,17.6c0,0,8.9,0,22.1,0"/>
	<polygon class="st1 file-10-element-132" points="412,103.5 380,103.5 348,-4.6 444,-4.6  "/>
	<g>
		<path class="st2 file-10-element-133" d="M285.7,170.8c-6.1,0-9.8-5.2-9.8-11.9c0-7,4-12.2,10.1-12.2c6.4,0,9.9,5.4,9.9,11.8    C295.9,166.2,291.8,170.8,285.7,170.8L285.7,170.8z M285.9,166.6c3.2,0,5-3.4,5-7.9c0-4.2-1.8-7.8-5-7.8s-5,3.5-5,7.9    C280.9,163.2,282.7,166.6,285.9,166.6L285.9,166.6L285.9,166.6z"/>
		<path class="st2 file-10-element-134" d="M300.5,147.4c1.5-0.3,3.7-0.5,6.2-0.5c3.1,0,5.2,0.5,6.7,1.9c1.3,1.1,1.9,2.7,1.9,4.9c0,2.9-1.9,5-3.7,5.7    v0.1c1.5,0.7,2.2,2.2,2.8,4.3c0.6,2.7,1.3,5.7,1.7,6.6h-4.8c-0.3-0.7-0.8-2.6-1.4-5.4c-0.6-2.9-1.5-3.7-3.4-3.7h-1.4v9.2h-4.6    L300.5,147.4L300.5,147.4z M305.1,157.4h1.9c2.3,0,3.7-1.3,3.7-3.4c0-2.1-1.3-3.2-3.5-3.2c-1.1,0-1.8,0.1-2.1,0.2V157.4z"/>
		<path class="st2 file-10-element-135" d="M325.4,164.4l-1.5,6H319l6.4-23.3h6.1l6.5,23.3h-5l-1.6-6H325.4z M330.6,160.5l-1.3-4.9    c-0.3-1.4-0.7-3.1-1-4.5h-0.1c-0.3,1.4-0.6,3.1-0.9,4.5l-1.3,4.9H330.6z"/>
		<path class="st2 file-10-element-136" d="M362.4,160.5h-7.6v5.5h8.5v4.3h-13.2v-23.3h12.8v4.3h-8.1v4.8h7.6L362.4,160.5L362.4,160.5z"/>
		<path class="st2 file-10-element-137" d="M372.2,151.5h-5.6v-4.4h16v4.4h-5.7v18.9h-4.7V151.5z"/>
		<path class="st2 file-10-element-138" d="M394.4,147.1h4.7V166h8.3v4.4h-12.9V147.1z"/>
		<path class="st2 file-10-element-139" d="M416.7,164.4l-1.5,6h-4.9l6.4-23.3h6.1l6.5,23.3h-5l-1.6-6H416.7z M421.9,160.5l-1.3-4.9    c-0.3-1.4-0.7-3.1-1-4.5h-0.1c-0.3,1.4-0.6,3.1-0.9,4.5l-1.3,4.9H421.9z"/>
		<path class="st2 file-10-element-140" d="M433.6,147.4c1.2-0.3,3.7-0.5,6.1-0.5c2.9,0,4.6,0.3,6.1,1.3c1.5,0.9,2.5,2.5,2.5,4.6c0,2-1.1,3.9-3.4,4.9    v0.1c2.4,0.7,4.1,2.7,4.1,5.8c0,2.1-0.9,3.8-2.2,4.9c-1.5,1.4-4,2.1-8.2,2.1c-2.3,0-4-0.2-5.1-0.4V147.4z M438.3,156.3h1.5    c2.5,0,3.8-1.1,3.8-2.9c0-1.8-1.2-2.7-3.3-2.7c-1,0-1.6,0.1-2,0.2L438.3,156.3L438.3,156.3z M438.3,166.7c0.5,0.1,1,0.1,1.8,0.1    c2.1,0,4-0.9,4-3.4c0-2.4-1.9-3.3-4.2-3.3h-1.6V166.7z"/>
		<path class="st2 file-10-element-141" d="M462.6,170.8c-6.1,0-9.8-5.2-9.8-11.9c0-7,4-12.2,10.1-12.2c6.4,0,9.9,5.4,9.9,11.8    C472.8,166.2,468.7,170.8,462.6,170.8L462.6,170.8z M462.8,166.6c3.2,0,5-3.4,5-7.9c0-4.2-1.8-7.8-5-7.8c-3.2,0-5,3.5-5,7.9    C457.8,163.2,459.6,166.6,462.8,166.6L462.8,166.6L462.8,166.6z"/>
		<path class="st2 file-10-element-142" d="M477.4,147.4c1.5-0.3,3.7-0.5,6.2-0.5c3.1,0,5.2,0.5,6.7,1.9c1.3,1.1,1.9,2.7,1.9,4.9c0,2.9-1.9,5-3.7,5.7    v0.1c1.5,0.7,2.2,2.2,2.8,4.3c0.6,2.7,1.3,5.7,1.7,6.6h-4.8c-0.3-0.7-0.8-2.6-1.4-5.4c-0.6-2.9-1.5-3.7-3.4-3.7H482v9.2h-4.6    L477.4,147.4L477.4,147.4z M482,157.4h1.9c2.3,0,3.7-1.3,3.7-3.4c0-2.1-1.3-3.2-3.5-3.2c-1.1,0-1.8,0.1-2.1,0.2L482,157.4    L482,157.4z"/>
		<path class="st2 file-10-element-143" d="M502.3,164.4l-1.5,6h-4.9l6.4-23.3h6.1l6.5,23.3h-5l-1.6-6H502.3z M507.5,160.5l-1.3-4.9    c-0.3-1.4-0.7-3.1-1-4.5h-0.1c-0.3,1.4-0.6,3.1-0.9,4.5l-1.3,4.9H507.5z"/>
	</g>
	<g>
		<rect x="283.5" y="223.8" class="st1 file-10-element-144" width="225" height="43.8"/>
		<g>
			<path class="st1 file-10-element-145" d="M297.4,244.1c0-1.8-1-3.4-2.5-4.2v-16.2h-4.4V240c-1.5,0.8-2.5,2.4-2.5,4.2s1,3.4,2.5,4.2v19.3h4.4v-19.3
					C296.3,247.5,297.4,245.9,297.4,244.1z"/>
			<path class="st1 file-10-element-146" d="M314.6,244.1c0-1.8-1-3.4-2.5-4.2v-16.2h-4.4V240c-1.5,0.8-2.5,2.4-2.5,4.2s1,3.4,2.5,4.2v19.3h4.4v-19.3
					C313.6,247.5,314.6,245.9,314.6,244.1z"/>
			<path class="st1 file-10-element-147" d="M331.8,244.1c0-1.8-1-3.4-2.5-4.2v-16.2h-4.4V240c-1.5,0.8-2.5,2.4-2.5,4.2s1,3.4,2.5,4.2v19.3h4.4v-19.3
					C330.8,247.5,331.8,245.9,331.8,244.1z"/>
			<path class="st1 file-10-element-148" d="M349,244.1c0-1.8-1-3.4-2.5-4.2v-16.2h-4.4V240c-1.5,0.8-2.5,2.4-2.5,4.2s1,3.4,2.5,4.2v19.3h4.4v-19.3
					C348,247.5,349,245.9,349,244.1z"/>
			<path class="st1 file-10-element-149" d="M366.3,244.1c0-1.8-1-3.4-2.5-4.2v-16.2h-4.4V240c-1.5,0.8-2.5,2.4-2.5,4.2s1,3.4,2.5,4.2v19.3h4.4v-19.3
					C365.2,247.5,366.3,245.9,366.3,244.1z"/>
			<path class="st1 file-10-element-150" d="M383.5,244.1c0-1.8-1-3.4-2.5-4.2v-16.2h-4.4V240c-1.5,0.8-2.5,2.4-2.5,4.2s1,3.4,2.5,4.2v19.3h4.4v-19.3
					C382.5,247.5,383.5,245.9,383.5,244.1z"/>
			<path class="st1 file-10-element-151" d="M400.7,244.1c0-1.8-1-3.4-2.5-4.2v-16.2h-4.4V240c-1.5,0.8-2.5,2.4-2.5,4.2s1,3.4,2.5,4.2v19.3h4.4v-19.3
					C399.7,247.5,400.7,245.9,400.7,244.1z"/>
			<path class="st1 file-10-element-152" d="M418,244.1c0-1.8-1-3.4-2.5-4.2v-16.2H411V240c-1.5,0.8-2.5,2.4-2.5,4.2s1,3.4,2.5,4.2v19.3h4.4v-19.3
					C416.9,247.5,418,245.9,418,244.1z"/>
			<path class="st1 file-10-element-153" d="M435.2,244.1c0-1.8-1-3.4-2.5-4.2v-16.2h-4.4V240c-1.5,0.8-2.5,2.4-2.5,4.2s1,3.4,2.5,4.2v19.3h4.4v-19.3
					C434.1,247.5,435.2,245.9,435.2,244.1z"/>
			<path class="st1 file-10-element-154" d="M452.4,244.1c0-1.8-1-3.4-2.5-4.2v-16.2h-4.4V240c-1.5,0.8-2.5,2.4-2.5,4.2s1,3.4,2.5,4.2v19.3h4.4v-19.3
					C451.4,247.5,452.4,245.9,452.4,244.1z"/>
			<path class="st1 file-10-element-155" d="M469.6,244.1c0-1.8-1-3.4-2.5-4.2v-16.2h-4.4V240c-1.5,0.8-2.5,2.4-2.5,4.2s1,3.4,2.5,4.2v19.3h4.4v-19.3
					C468.6,247.5,469.6,245.9,469.6,244.1z"/>
			<path class="st1 file-10-element-156" d="M486.9,244.1c0-1.8-1-3.4-2.5-4.2v-16.2h-4.4V240c-1.5,0.8-2.5,2.4-2.5,4.2s1,3.4,2.5,4.2v19.3h4.4v-19.3
					C485.8,247.5,486.9,245.9,486.9,244.1z"/>
			<path class="st1 file-10-element-157" d="M504.1,244.1c0-1.8-1-3.4-2.5-4.2v-16.2h-4.4V240c-1.5,0.8-2.5,2.4-2.5,4.2s1,3.4,2.5,4.2v19.3h4.4v-19.3
					C503,247.5,504.1,245.9,504.1,244.1z"/>
		</g>
	</g>
	<g>
		<g>
			<rect x="210.3" y="95.9" class="st1 file-10-element-158" width="31.6" height="61.4"/>
			<rect x="216.8" y="157.3" class="st1 file-10-element-159" width="25.1" height="61.4"/>
			<rect x="210.3" y="219.2" class="st1 file-10-element-160" width="31.6" height="61.4"/>
			<rect x="216.8" y="280.7" class="st1 file-10-element-161" width="25.1" height="61.4"/>
			<rect x="210.3" y="342.6" class="st1 file-10-element-162" width="31.6" height="61.4"/>
			<rect x="187.2" y="465.5" class="st1 file-10-element-163" width="54.7" height="54.7"/>
			<rect x="216.8" y="404.1" class="st1 file-10-element-164" width="25.1" height="61.4"/>
		</g>
		<g>
			<rect x="550.2" y="95.9" class="st1 file-10-element-165" width="31.6" height="61.4"/>
			<rect x="550.2" y="157.3" class="st1 file-10-element-166" width="25.1" height="61.4"/>
			<rect x="550.2" y="219.3" class="st1 file-10-element-167" width="31.6" height="61.4"/>
			<rect x="550.2" y="280.7" class="st1 file-10-element-168" width="25.1" height="61.4"/>
			<rect x="550.2" y="342.6" class="st1 file-10-element-169" width="31.6" height="61.4"/>
			<rect x="550.2" y="465.5" class="st1 file-10-element-170" width="54.7" height="54.7"/>
			<rect x="550.2" y="404.1" class="st1 file-10-element-171" width="25.1" height="61.4"/>
		</g>
	</g>
	<rect x="283.8" y="292.6" class="st1 file-10-element-172" width="112.2" height="226.5"/>
	<rect x="300.3" y="312" class="st1 file-10-element-173" width="79.1" height="83.1"/>
	<rect x="300.3" y="429.8" class="st1 file-10-element-174" width="79.1" height="61"/>
	<g>
		<polygon class="st1 file-10-element-175" points="312.8,391.1 305.3,391.1 306.5,387.1 306.5,319.8 305.3,316.2 312.8,316.2 311.6,319.8 311.6,387
					  "/>
		<polygon class="st1 file-10-element-176" points="325.1,391.1 317.6,391.1 318.9,387.1 318.9,319.8 317.6,316.2 325.1,316.2 323.9,319.8 323.9,387
					  "/>
		<polygon class="st1 file-10-element-177" points="337.5,391.1 330,391.1 331.2,387.1 331.2,319.8 330,316.2 337.5,316.2 336.2,319.8 336.2,387   "/>
		<polygon class="st1 file-10-element-178" points="349.8,391.1 342.3,391.1 343.5,387.1 343.5,319.8 342.3,316.2 349.8,316.2 348.5,319.8 348.5,387
					  "/>
		<polygon class="st1 file-10-element-179" points="362.1,391.1 354.6,391.1 355.9,387.1 355.9,319.8 354.6,316.2 362.1,316.2 360.9,319.8 360.9,387
					  "/>
		<polygon class="st1 file-10-element-180" points="374.5,391.1 367,391.1 368.2,387.1 368.2,319.8 367,316.2 374.5,316.2 373.2,319.8 373.2,387   "/>
	</g>
	<g>
		<polygon class="st1 file-10-element-181" points="312.8,486.6 305.3,486.6 306.5,483.9 306.5,436.5 305.3,434 312.8,434 311.6,436.5 311.6,483.8   "/>
		<polygon class="st1 file-10-element-182" points="325.1,486.6 317.6,486.6 318.9,483.9 318.9,436.5 317.6,434 325.1,434 323.9,436.5 323.9,483.8   "/>
		<polygon class="st1 file-10-element-183" points="337.5,486.6 330,486.6 331.2,483.9 331.2,436.5 330,434 337.5,434 336.2,436.5 336.2,483.8   "/>
		<polygon class="st1 file-10-element-184" points="349.8,486.6 342.3,486.6 343.5,483.9 343.5,436.5 342.3,434 349.8,434 348.5,436.5 348.5,483.8   "/>
		<polygon class="st1 file-10-element-185" points="362.1,486.6 354.6,486.6 355.9,483.9 355.9,436.5 354.6,434 362.1,434 360.9,436.5 360.9,483.8   "/>
		<polygon class="st1 file-10-element-186" points="374.5,486.6 367,486.6 368.2,483.9 368.2,436.5 367,434 374.5,434 373.2,436.5 373.2,483.8   "/>
	</g>
	<path class="st1 file-10-element-187" d="M312.4,416.9c-2.1-2.5-4.6-5.5-4.6-5.5l7.5-9h47.8l8.9,9c0,0-2.9,2.9-5.3,5.4"/>
	<path class="st1 file-10-element-188" d="M362,415.5c-1.1,0-2.2,0.2-3.1,0.7v-3.8c1.9-0.4,3.2-1.4,3.2-2.5c0-1.5-2.3-2.7-5.2-2.7s-5.2,1.2-5.2,2.7   c0,1.1,1.3,2.1,3.2,2.5v5.1h-3.6c-0.4-1.8-1.2-3.1-2.3-3.1c-1,0-1.9,1.3-2.3,3.1h-5.8c-0.2-1.8-0.7-3.1-1.3-3.1s-1.1,1.3-1.3,3.1   h-5.8c-0.4-1.8-1.2-3.1-2.3-3.1c-1,0-1.9,1.3-2.3,3.1h-3.6v-5.1c1.9-0.4,3.2-1.4,3.2-2.5c0-1.5-2.3-2.7-5.2-2.7s-5.2,1.2-5.2,2.7   c0,1.1,1.3,2.1,3.2,2.5v3.8c-0.9-0.4-1.9-0.7-3.1-0.7c-3,0-5.4,1.7-5.4,3.8s2.4,3.8,5.4,3.8c1.1,0,2.2-0.2,3.1-0.7v2.1h3.9v-3.3   h3.6c0.4,1.8,1.2,3.1,2.3,3.1s1.9-1.3,2.3-3.1h5.8c0.2,1.8,0.7,3.1,1.3,3.1s1.1-1.3,1.3-3.1h5.8c0.4,1.8,1.2,3.1,2.3,3.1   s1.9-1.3,2.3-3.1h3.6v3.3h3.9v-2.1c0.9,0.4,1.9,0.7,3.1,0.7c3,0,5.4-1.7,5.4-3.8C367.4,417.2,365,415.5,362,415.5z"/>
	<rect x="283.8" y="497.9" class="st1 file-10-element-189" width="112.2" height="22.2"/>
	<rect x="396" y="292.6" class="st1 file-10-element-190" width="112.2" height="226.5"/>
	<rect x="412.5" y="312" class="st1 file-10-element-191" width="79.1" height="83.1"/>
	<g>
		<polygon class="st1 file-10-element-192" points="425,391.1 417.5,391.1 418.8,387.1 418.8,319.8 417.5,316.2 425,316.2 423.8,319.8 423.8,387   "/>
		<polygon class="st1 file-10-element-193" points="437.4,391.1 429.9,391.1 431.1,387.1 431.1,319.8 429.9,316.2 437.4,316.2 436.1,319.8 436.1,387
					  "/>
		<polygon class="st1 file-10-element-194" points="449.7,391.1 442.2,391.1 443.5,387.1 443.5,319.8 442.2,316.2 449.7,316.2 448.5,319.8 448.5,387
					  "/>
		<polygon class="st1 file-10-element-195" points="462,391.1 454.5,391.1 455.8,387.1 455.8,319.8 454.5,316.2 462,316.2 460.8,319.8 460.8,387   "/>
		<polygon class="st1 file-10-element-196" points="474.4,391.1 466.9,391.1 468.1,387.1 468.1,319.8 466.9,316.2 474.4,316.2 473.1,319.8 473.1,387
					  "/>
		<polygon class="st1 file-10-element-197" points="486.7,391.1 479.2,391.1 480.4,387.1 480.4,319.8 479.2,316.2 486.7,316.2 485.5,319.8 485.5,387
					  "/>
	</g>
	<g>
		<polygon class="st1 file-10-element-198" points="425,486.6 417.5,486.6 418.8,483.9 418.8,436.5 417.5,434 425,434 423.8,436.5 423.8,483.8   "/>
		<polygon class="st1 file-10-element-199" points="437.4,486.6 429.9,486.6 431.1,483.9 431.1,436.5 429.9,434 437.4,434 436.1,436.5 436.1,483.8   "/>
		<polygon class="st1 file-10-element-200" points="449.7,486.6 442.2,486.6 443.5,483.9 443.5,436.5 442.2,434 449.7,434 448.5,436.5 448.5,483.8   "/>
		<polygon class="st1 file-10-element-201" points="462,486.6 454.5,486.6 455.8,483.9 455.8,436.5 454.5,434 462,434 460.8,436.5 460.8,483.8   "/>
		<polygon class="st1 file-10-element-202" points="474.4,486.6 466.9,486.6 468.1,483.9 468.1,436.5 466.9,434 474.4,434 473.1,436.5 473.1,483.8   "/>
		<polygon class="st1 file-10-element-203" points="486.7,486.6 479.2,486.6 480.4,483.9 480.4,436.5 479.2,434 486.7,434 485.5,436.5 485.5,483.8   "/>
	</g>
	<path class="st1 file-10-element-204" d="M425,417.4c-2.2-2.6-5-5.9-5-5.9l7.5-9h47.8l8.9,9c0,0-3,3-5.6,5.6"/>
	<path class="st1 file-10-element-205" d="M474.2,415.5c-1.1,0-2.2,0.2-3.1,0.7v-3.8c1.9-0.4,3.2-1.4,3.2-2.5c0-1.5-2.3-2.7-5.2-2.7s-5.2,1.2-5.2,2.7   c0,1.1,1.3,2.1,3.2,2.5v5.1h-3.6c-0.4-1.8-1.2-3.1-2.3-3.1c-1,0-1.9,1.3-2.3,3.1h-5.8c-0.2-1.8-0.7-3.1-1.3-3.1s-1.1,1.3-1.3,3.1   h-5.8c-0.4-1.8-1.2-3.1-2.3-3.1c-1,0-1.9,1.3-2.3,3.1h-3.6v-5.1c1.9-0.4,3.2-1.4,3.2-2.5c0-1.5-2.3-2.7-5.2-2.7s-5.2,1.2-5.2,2.7   c0,1.1,1.3,2.1,3.2,2.5v3.8c-0.9-0.4-1.9-0.7-3.1-0.7c-3,0-5.4,1.7-5.4,3.8s2.4,3.8,5.4,3.8c1.1,0,2.2-0.2,3.1-0.7v2.1h3.9v-3.3   h3.6c0.4,1.8,1.2,3.1,2.3,3.1s1.9-1.3,2.3-3.1h5.8c0.2,1.8,0.7,3.1,1.3,3.1s1.1-1.3,1.3-3.1h5.8c0.4,1.8,1.2,3.1,2.3,3.1   c1,0,1.9-1.3,2.3-3.1h3.6v3.3h3.9v-2.1c0.9,0.4,1.9,0.7,3.1,0.7c3,0,5.4-1.7,5.4-3.8C479.6,417.2,477.2,415.5,474.2,415.5z"/>
	<rect x="396" y="497.9" class="st1 file-10-element-206" width="112.2" height="22.2"/>
	<rect x="412.5" y="429.8" class="st1 file-10-element-207" width="79.1" height="61"/>
	<rect x="283.5" y="267.6" class="st1 file-10-element-208" width="225" height="20"/>
	<g>
		<rect x="-24.2" y="-22.5" class="st1 file-10-element-209" width="191.7" height="542.9"/>
		<rect x="624.5" y="-22.5" class="st1 file-10-element-210" width="191.7" height="542.9"/>
	</g>
	<g>
		<path class="st1 file-10-element-211" d="M393.3,52.1c0,4.2,0,8.6,0,12.8"/>
		<path class="st1 file-10-element-212" d="M398.7,64.6c0-3.8,0-3.8,0-7.7"/>
		<path class="st1 file-10-element-213" d="M398.7,45.8c0-5.9,0-14,0-14h14.6v-5.5h-14.6v-8.8h7.7v-5.5h-7.7V2.7h-5.5v9.4h-7.7v5.5h7.7v8.8h-14.6v5.5    h14.6c0,0,0,4,0,9.7"/>
		<path class="st1 file-10-element-214" d="M390.2,80.8c0-3.8,0-10.6,0-10.6c0-3.2,2.6-5.8,5.8-5.8s5.8,2.6,5.8,5.8c0,0,0,6.8,0,10.6"/>
		<g>
			<path class="st1 file-10-element-215" d="M396.2,99.3h-11.6V86.4c0-3.2,2.6-5.7,5.7-5.7h0.1c3.2,0,5.7,2.6,5.7,5.7L396.2,99.3L396.2,99.3z"/>
			<path class="st1 file-10-element-216" d="M407.4,99.3h-11.6V86.4c0-3.2,2.6-5.7,5.7-5.7h0.1c3.2,0,5.7,2.6,5.7,5.7L407.4,99.3L407.4,99.3z"/>
		</g>
		<g>
			<path class="st3 file-10-element-217" d="M377.8,42.1c1-0.2,2.5-0.3,4.5-0.3c2,0,3.5,0.4,4.5,1.2c1,0.7,1.6,1.9,1.6,3.4c0,1.5-0.5,2.7-1.3,3.5
					c-1.1,1-2.8,1.5-4.7,1.5c-0.4,0-0.8,0-1.1-0.1v5.2h-3.3V42.1z M381,48.8c0.3,0.1,0.6,0.1,1.1,0.1c1.8,0,2.8-0.9,2.8-2.4
					c0-1.3-0.9-2.1-2.6-2.1c-0.6,0-1.1,0-1.3,0.1V48.8z"/>
			<path class="st3 file-10-element-218" d="M392.4,52.8l-1,3.8H388l4.5-14.6h5.3l4.5,14.6h-4.5l-1.1-3.8H392.4z M396.1,50.3l-0.9-3.1
					c-0.2-0.9-0.5-2-0.7-2.8h-0.1c-0.2,0.9-0.4,2-0.6,2.8l-0.9,3.1H396.1z"/>
			<path class="st3 file-10-element-219" d="M410.4,56.5l-1.3-2.6c-0.5-1-0.9-1.8-1.3-2.6h0c-0.3,0.8-0.7,1.6-1.1,2.6l-1.2,2.6h-3.8l4.2-7.4l-4.1-7.2
					h3.8l1.3,2.7c0.4,0.9,0.8,1.6,1.1,2.4h0c0.4-0.9,0.6-1.6,1-2.4l1.2-2.7h3.8l-4.1,7.1l4.3,7.5C414.2,56.5,410.4,56.5,410.4,56.5z"/>
		</g>
	</g>
	<g>
		<g>
			<g>
				<rect x="107.1" y="-12.5" class="st1 file-10-element-220" width="60.4" height="29.5"/>
				<rect x="46.8" y="-12.5" class="st1 file-10-element-221" width="60.4" height="29.5"/>
				<rect x="-13.6" y="-12.5" class="st1 file-10-element-222" width="60.4" height="29.5"/>
			</g>
			<g>
				<rect x="73.9" y="17.2" class="st1 file-10-element-223" width="60.4" height="29.5"/>
				<rect x="134.3" y="17.2" class="st1 file-10-element-224" width="33.2" height="29.5"/>
				<rect x="13.5" y="17.2" class="st1 file-10-element-225" width="60.4" height="29.5"/>
				<rect x="-46.8" y="17.2" class="st1 file-10-element-226" width="60.4" height="29.5"/>
			</g>
			<g>
				<rect x="107.1" y="46.7" class="st1 file-10-element-227" width="60.4" height="29.5"/>
				<rect x="46.8" y="46.7" class="st1 file-10-element-228" width="60.4" height="29.5"/>
				<rect x="-13.6" y="46.7" class="st1 file-10-element-229" width="60.4" height="29.5"/>
			</g>
			<g>
				<rect x="73.9" y="76.4" class="st1 file-10-element-230" width="60.4" height="29.5"/>
				<rect x="134.3" y="76.4" class="st1 file-10-element-231" width="33.2" height="29.5"/>
				<rect x="13.5" y="76.4" class="st1 file-10-element-232" width="60.4" height="29.5"/>
				<rect x="-46.8" y="76.4" class="st1 file-10-element-233" width="60.4" height="29.5"/>
			</g>
			<g>
				<rect x="107.1" y="105.9" class="st1 file-10-element-234" width="60.4" height="29.5"/>
				<rect x="46.8" y="105.9" class="st1 file-10-element-235" width="60.4" height="29.5"/>
				<rect x="-13.6" y="105.9" class="st1 file-10-element-236" width="60.4" height="29.5"/>
			</g>
			<g>
				<rect x="73.9" y="135.5" class="st1 file-10-element-237" width="60.4" height="29.5"/>
				<rect x="134.3" y="135.5" class="st1 file-10-element-238" width="33.2" height="29.5"/>
				<rect x="13.5" y="135.5" class="st1 file-10-element-239" width="60.4" height="29.5"/>
				<rect x="-46.8" y="135.5" class="st1 file-10-element-240" width="60.4" height="29.5"/>
			</g>
			<g>
				<rect x="107.1" y="165.1" class="st1 file-10-element-241" width="60.4" height="29.5"/>
				<rect x="46.8" y="165.1" class="st1 file-10-element-242" width="60.4" height="29.5"/>
				<rect x="-13.6" y="165.1" class="st1 file-10-element-243" width="60.4" height="29.5"/>
			</g>
			<g>
				<rect x="73.9" y="194.7" class="st1 file-10-element-244" width="60.4" height="29.5"/>
				<rect x="134.3" y="194.7" class="st1 file-10-element-245" width="33.2" height="29.5"/>
				<rect x="13.5" y="194.7" class="st1 file-10-element-246" width="60.4" height="29.5"/>
				<rect x="-46.8" y="194.7" class="st1 file-10-element-247" width="60.4" height="29.5"/>
			</g>
			<g>
				<rect x="107.1" y="224.2" class="st1 file-10-element-248" width="60.4" height="29.5"/>
				<rect x="46.8" y="224.2" class="st1 file-10-element-249" width="60.4" height="29.5"/>
				<rect x="-13.6" y="224.2" class="st1 file-10-element-250" width="60.4" height="29.5"/>
			</g>
			<g>
				<rect x="73.9" y="253.9" class="st1 file-10-element-251" width="60.4" height="29.5"/>
				<rect x="134.3" y="253.9" class="st1 file-10-element-252" width="33.2" height="29.5"/>
				<rect x="13.5" y="253.9" class="st1 file-10-element-253" width="60.4" height="29.5"/>
				<rect x="-46.8" y="253.9" class="st1 file-10-element-254" width="60.4" height="29.5"/>
			</g>
			<g>
				<rect x="107.1" y="283.4" class="st1 file-10-element-255" width="60.4" height="29.5"/>
				<rect x="46.8" y="283.4" class="st1 file-10-element-256" width="60.4" height="29.5"/>
				<rect x="-13.6" y="283.4" class="st1 file-10-element-257" width="60.4" height="29.5"/>
			</g>
			<g>
				<rect x="73.9" y="313.1" class="st1 file-10-element-258" width="60.4" height="29.5"/>
				<rect x="134.3" y="313.1" class="st1 file-10-element-259" width="33.2" height="29.5"/>
				<rect x="13.5" y="313.1" class="st1 file-10-element-260" width="60.4" height="29.5"/>
				<rect x="-46.8" y="313.1" class="st1 file-10-element-261" width="60.4" height="29.5"/>
			</g>
			<g>
				<rect x="107.1" y="342.6" class="st1 file-10-element-262" width="60.4" height="29.5"/>
				<rect x="46.8" y="342.6" class="st1 file-10-element-263" width="60.4" height="29.5"/>
				<rect x="-13.6" y="342.6" class="st1 file-10-element-264" width="60.4" height="29.5"/>
			</g>
			<g>
				<rect x="73.9" y="372.3" class="st1 file-10-element-265" width="60.4" height="29.5"/>
				<rect x="134.3" y="372.3" class="st1 file-10-element-266" width="33.2" height="29.5"/>
				<rect x="13.5" y="372.3" class="st1 file-10-element-267" width="60.4" height="29.5"/>
				<rect x="-46.8" y="372.3" class="st1 file-10-element-268" width="60.4" height="29.5"/>
			</g>
			<g>
				<rect x="107.1" y="401.8" class="st1 file-10-element-269" width="60.4" height="29.5"/>
				<rect x="46.8" y="401.8" class="st1 file-10-element-270" width="60.4" height="29.5"/>
				<rect x="-13.6" y="401.8" class="st1 file-10-element-271" width="60.4" height="29.5"/>
			</g>
			<g>
				<rect x="73.9" y="431.5" class="st1 file-10-element-272" width="60.4" height="29.5"/>
				<rect x="134.3" y="431.5" class="st1 file-10-element-273" width="33.2" height="29.5"/>
				<rect x="13.5" y="431.5" class="st1 file-10-element-274" width="60.4" height="29.5"/>
				<rect x="-46.8" y="431.5" class="st1 file-10-element-275" width="60.4" height="29.5"/>
			</g>
			<g>
				<rect x="107.1" y="461" class="st1 file-10-element-276" width="60.4" height="29.5"/>
				<rect x="46.8" y="461" class="st1 file-10-element-277" width="60.4" height="29.5"/>
				<rect x="-13.6" y="461" class="st1 file-10-element-278" width="60.4" height="29.5"/>
			</g>
			<g>
				<rect x="73.9" y="490.6" class="st1 file-10-element-279" width="60.4" height="29.5"/>
				<rect x="134.3" y="490.6" class="st1 file-10-element-280" width="33.2" height="29.5"/>
				<rect x="13.5" y="490.6" class="st1 file-10-element-281" width="60.4" height="29.5"/>
				<rect x="-46.8" y="490.6" class="st1 file-10-element-282" width="60.4" height="29.5"/>
			</g>
		</g>
		<g>
			<g>
				<rect x="624.5" y="-12.5" class="st1 file-10-element-283" width="60.4" height="29.5"/>
				<rect x="684.9" y="-12.5" class="st1 file-10-element-284" width="60.4" height="29.5"/>
				<rect x="745.3" y="-12.5" class="st1 file-10-element-285" width="60.4" height="29.5"/>
			</g>
			<g>
				<rect x="657.7" y="17.2" class="st1 file-10-element-286" width="60.4" height="29.5"/>
				<rect x="624.5" y="17.2" class="st1 file-10-element-287" width="33.2" height="29.5"/>
				<rect x="718.1" y="17.2" class="st1 file-10-element-288" width="60.4" height="29.5"/>
				<rect x="778.5" y="17.2" class="st1 file-10-element-289" width="60.4" height="29.5"/>
			</g>
			<g>
				<rect x="624.5" y="46.7" class="st1 file-10-element-290" width="60.4" height="29.5"/>
				<rect x="684.9" y="46.7" class="st1 file-10-element-291" width="60.4" height="29.5"/>
				<rect x="745.3" y="46.7" class="st1 file-10-element-292" width="60.4" height="29.5"/>
			</g>
			<g>
				<rect x="657.7" y="76.4" class="st1 file-10-element-293" width="60.4" height="29.5"/>
				<rect x="624.5" y="76.4" class="st1 file-10-element-294" width="33.2" height="29.5"/>
				<rect x="718.1" y="76.4" class="st1 file-10-element-295" width="60.4" height="29.5"/>
				<rect x="778.5" y="76.4" class="st1 file-10-element-296" width="60.4" height="29.5"/>
			</g>
			<g>
				<rect x="624.5" y="105.9" class="st1 file-10-element-297" width="60.4" height="29.5"/>
				<rect x="684.9" y="105.9" class="st1 file-10-element-298" width="60.4" height="29.5"/>
				<rect x="745.3" y="105.9" class="st1 file-10-element-299" width="60.4" height="29.5"/>
			</g>
			<g>
				<rect x="657.7" y="135.5" class="st1 file-10-element-300" width="60.4" height="29.5"/>
				<rect x="624.5" y="135.5" class="st1 file-10-element-301" width="33.2" height="29.5"/>
				<rect x="718.1" y="135.5" class="st1 file-10-element-302" width="60.4" height="29.5"/>
				<rect x="778.5" y="135.5" class="st1 file-10-element-303" width="60.4" height="29.5"/>
			</g>
			<g>
				<rect x="624.5" y="165.1" class="st1 file-10-element-304" width="60.4" height="29.5"/>
				<rect x="684.9" y="165.1" class="st1 file-10-element-305" width="60.4" height="29.5"/>
				<rect x="745.3" y="165.1" class="st1 file-10-element-306" width="60.4" height="29.5"/>
			</g>
			<g>
				<rect x="657.7" y="194.7" class="st1 file-10-element-307" width="60.4" height="29.5"/>
				<rect x="624.5" y="194.7" class="st1 file-10-element-308" width="33.2" height="29.5"/>
				<rect x="718.1" y="194.7" class="st1 file-10-element-309" width="60.4" height="29.5"/>
				<rect x="778.5" y="194.7" class="st1 file-10-element-310" width="60.4" height="29.5"/>
			</g>
			<g>
				<rect x="624.5" y="224.2" class="st1 file-10-element-311" width="60.4" height="29.5"/>
				<rect x="684.9" y="224.2" class="st1 file-10-element-312" width="60.4" height="29.5"/>
				<rect x="745.3" y="224.2" class="st1 file-10-element-313" width="60.4" height="29.5"/>
			</g>
			<g>
				<rect x="657.7" y="253.9" class="st1 file-10-element-314" width="60.4" height="29.5"/>
				<rect x="624.5" y="253.9" class="st1 file-10-element-315" width="33.2" height="29.5"/>
				<rect x="718.1" y="253.9" class="st1 file-10-element-316" width="60.4" height="29.5"/>
				<rect x="778.5" y="253.9" class="st1 file-10-element-317" width="60.4" height="29.5"/>
			</g>
			<g>
				<rect x="624.5" y="283.4" class="st1 file-10-element-318" width="60.4" height="29.5"/>
				<rect x="684.9" y="283.4" class="st1 file-10-element-319" width="60.4" height="29.5"/>
				<rect x="745.3" y="283.4" class="st1 file-10-element-320" width="60.4" height="29.5"/>
			</g>
			<g>
				<rect x="657.7" y="313.1" class="st1 file-10-element-321" width="60.4" height="29.5"/>
				<rect x="624.5" y="313.1" class="st1 file-10-element-322" width="33.2" height="29.5"/>
				<rect x="718.1" y="313.1" class="st1 file-10-element-323" width="60.4" height="29.5"/>
				<rect x="778.5" y="313.1" class="st1 file-10-element-324" width="60.4" height="29.5"/>
			</g>
			<g>
				<rect x="624.5" y="342.6" class="st1 file-10-element-325" width="60.4" height="29.5"/>
				<rect x="684.9" y="342.6" class="st1 file-10-element-326" width="60.4" height="29.5"/>
				<rect x="745.3" y="342.6" class="st1 file-10-element-327" width="60.4" height="29.5"/>
			</g>
			<g>
				<rect x="657.7" y="372.3" class="st1 file-10-element-328" width="60.4" height="29.5"/>
				<rect x="624.5" y="372.3" class="st1 file-10-element-329" width="33.2" height="29.5"/>
				<rect x="718.1" y="372.3" class="st1 file-10-element-330" width="60.4" height="29.5"/>
				<rect x="778.5" y="372.3" class="st1 file-10-element-331" width="60.4" height="29.5"/>
			</g>
			<g>
				<rect x="624.5" y="401.8" class="st1 file-10-element-332" width="60.4" height="29.5"/>
				<rect x="684.9" y="401.8" class="st1 file-10-element-333" width="60.4" height="29.5"/>
				<rect x="745.3" y="401.8" class="st1 file-10-element-334" width="60.4" height="29.5"/>
			</g>
			<g>
				<rect x="657.7" y="431.4" class="st1 file-10-element-335" width="60.4" height="29.5"/>
				<rect x="624.5" y="431.4" class="st1 file-10-element-336" width="33.2" height="29.5"/>
				<rect x="718.1" y="431.4" class="st1 file-10-element-337" width="60.4" height="29.5"/>
				<rect x="778.5" y="431.4" class="st1 file-10-element-338" width="60.4" height="29.5"/>
			</g>
			<g>
				<rect x="624.5" y="461" class="st1 file-10-element-339" width="60.4" height="29.5"/>
				<rect x="684.9" y="461" class="st1 file-10-element-340" width="60.4" height="29.5"/>
				<rect x="745.3" y="461" class="st1 file-10-element-341" width="60.4" height="29.5"/>
			</g>
			<g>
				<rect x="657.7" y="490.6" class="st1 file-10-element-342" width="60.4" height="29.5"/>
				<rect x="624.5" y="490.6" class="st1 file-10-element-343" width="33.2" height="29.5"/>
				<rect x="718.1" y="490.6" class="st1 file-10-element-344" width="60.4" height="29.5"/>
				<rect x="778.5" y="490.6" class="st1 file-10-element-345" width="60.4" height="29.5"/>
			</g>
		</g>
	</g>
	<g>
		<path class="st1 file-10-element-346" d="M0.3,618C163.2,601,171,521,171,521l-3.1-0.8c0,0-17,73.2-175.4,70.2L0.3,618z"/>
		<path class="st1 file-10-element-347" d="M791.7,618C628.8,601,621,521,621,521l3.1-0.8c0,0,17,73.2,175.5,70.2L791.7,618z"/>
	</g>
	<path class="st1 file-10-element-348" d="M167.5,519.6c0-0.3,0-0.5,0-0.5s440.5,0,456.5,0"/>
	<path class="st1 file-10-element-349" d="M622.7,526c-29.5,0-416.9,0-452.5,0"/>
	<g>
		<g>
			<g>
				<path class="st4 file-10-element-350" d="M246.1,10.2c0.2-1.2,0.3-1.8,0.3-1.8l9.9,17.2c0,0,0,36.8,0,43.8"/>
				<rect x="219.6" y="8.4" class="st4 file-10-element-351" width="26.8" height="12.4"/>
				<path class="st4 file-10-element-352" d="M256.3,70.6c-11.9-2.5-3.8-19.4-3.8-25.4c0-3.3-1.1-6.8-1.9-10c-1.2-4.9-2.7-9.6-4.4-14.4h-26.6
					 c1.7,4.8,3.2,9.6,4.4,14.4c0.8,3.2,1.9,6.7,1.9,10c0,6-8.1,22.9,3.8,25.4H256.3z"/>
			</g>
			<g>
				<path class="st4 file-10-element-353" d="M303.3,8.4l9.9,17.2c0,0,0,40.8,0,44.6"/>
				<rect x="276.5" y="8.4" class="st4 file-10-element-354" width="26.8" height="12.4"/>
				<path class="st4 file-10-element-355" d="M313.2,70.6c-11.9-2.5-3.8-19.4-3.8-25.4c0-3.3-1.1-6.8-1.9-10c-1.2-4.9-2.7-9.6-4.4-14.4h-26.6
					 c1.7,4.8,3.2,9.6,4.4,14.4c0.8,3.2,1.9,6.7,1.9,10c0,6-8,22.9,3.8,25.4H313.2z"/>
			</g>
		</g>
		<g>
			<g>
				<path class="st4 file-10-element-356" d="M545.6,8.5c0-0.1,0-0.1,0-0.1l-9.9,17.2v44.9"/>
				<rect x="545.6" y="8.4" class="st4 file-10-element-357" width="26.8" height="12.4"/>
				<path class="st4 file-10-element-358" d="M535.7,70.6c11.9-2.5,3.8-19.4,3.8-25.4c0-3.3,1.1-6.8,1.9-10c1.2-4.9,2.7-9.6,4.4-14.4h26.6
					 c-1.7,4.8-3.2,9.6-4.4,14.4c-0.8,3.2-1.9,6.7-1.9,10c0,6,8,22.9-3.8,25.4H535.7z"/>
			</g>
			<g>
				<path class="st4 file-10-element-359" d="M488.7,8.6c0-0.1,0-0.1,0-0.1l-9.9,17.2c0,0,0,36.8,0,43.8"/>
				<rect x="488.7" y="8.4" class="st4 file-10-element-360" width="26.8" height="12.4"/>
				<path class="st4 file-10-element-361" d="M478.8,70.6c11.9-2.5,3.8-19.4,3.8-25.4c0-3.3,1.1-6.8,1.9-10c1.2-4.9,2.7-9.6,4.4-14.4h26.6
					 c-1.7,4.8-3.2,9.6-4.4,14.4c-0.8,3.2-1.9,6.7-1.9,10c0,6,8.1,22.9-3.8,25.4H478.8z"/>
			</g>
		</g>
	</g>
	<g>
		<line class="st1 file-10-element-362" x1="187" y1="520.2" x2="187" y2="0"/>
		<line class="st1 file-10-element-363" x1="605" y1="520.2" x2="605" y2="0"/>
	</g>
	<path class="st1 file-10-element-364" d="M459.2,520.5c0,10-28.3,18.1-63.2,18.1s-63.2-8.1-63.2-18.1H459.2z"/>
	<path class="st1 file-10-element-365" d="M511.4,520.5c0,18.2-51.7,33-115.4,33s-115.4-14.8-115.4-33H511.4z"/>
	<path class="st1 file-10-element-366" d="M564.4,520.5c0,26.6-75.4,48.2-168.4,48.2s-168.4-21.6-168.4-48.2H564.4z"/>
	<path class="st1 file-10-element-367" d="M619.6,520.5c0,35.3-100.1,63.9-223.6,63.9s-223.6-28.6-223.6-63.9H619.6z"/>
	<path class="st1 file-10-element-368" d="M645.4,561.9c-36.4,25-134.3,42.8-249.4,42.8c-115.2,0-213.1-17.9-249.5-42.9"/>
	<path class="st1 file-10-element-369" d="M684,590.6c-42,25-155,42.8-287.9,42.8c-132.9,0-246.1-17.9-288-42.9"/>
</g>
</svg>
