<?xml version="1.0" encoding="UTF-8"?>
<!-- Generator: Adobe Illustrator 25.2.3, SVG Export Plug-In . SVG Version: 6.00 Build 0)  -->
<svg xmlns="http://www.w3.org/2000/svg" xmlns:xlink="http://www.w3.org/1999/xlink" version="1.1" id="Layer_1" x="0px" y="0px" viewBox="0 0 792 612" style="enable-background:new 0 0 792 612;" xml:space="preserve">
<style type="text/css">
	.st0{fill:#FFFFFF;}
	.st1{fill:none;stroke:#000000;stroke-width:2.5;stroke-linecap:round;stroke-linejoin:round;stroke-miterlimit:10;}
	.st2{fill:none;stroke:#000000;stroke-width:2.5784;stroke-linecap:round;stroke-linejoin:round;stroke-miterlimit:10;}
	.st3{fill:none;stroke:#231F20;stroke-width:2.5;stroke-linecap:round;stroke-linejoin:round;stroke-miterlimit:10;}
	.st4{fill:none;}
	.st5{fill:none;stroke:#000000;stroke-width:2.2614;stroke-miterlimit:10;}
	.st6{fill:none;stroke:#000000;stroke-width:0.9117;stroke-linecap:round;stroke-linejoin:round;stroke-miterlimit:10;}
</style>
<g id="White">
	<rect x="-33" y="0.2" class="st0 file-9-element-1" width="858" height="524.1"/>
	<path class="st0 file-9-element-2" d="M-18.8,514c82.9-48.6,185.5-45.6,280.4-31.4s190.3,38,285.5,25.9c86.4-11,171.7-51.3,257.1-34.4l2.3,144h-825   L-18.8,514z"/>
	<path class="st0 file-9-element-3" d="M644.5,28.1c-22.9,0-41.5,18.6-41.5,41.5c0,15.4,8.4,28.9,20.9,36.1c-2.2-4.3-3.4-9.4-3.4-14.9   c0-4.6,0.8-8.9,2.3-12.7c8-1.7,26.3-6.3,29.2-12.6h0.1c0.2,1.6,5.2,15.8,12.4,15c1,3.2,1.5,6.6,1.5,10.2c0,6.3-1.5,12.1-4.4,16.7   c14.3-6.5,24.3-21,24.3-37.8C686.1,46.7,667.5,28.1,644.5,28.1z"/>
	<path class="st0 file-9-element-4" d="M546,55.8C545.9,55.8,545.9,55.8,546,55.8c-4.2-3.5-8.9-6.5-14.2-7.8c-5.4-1.3-10.3-0.5-15.2,1.9   c-1.2,0.6-11,5.6-8.9,7.7c-8-7.9-30.7-8.8-29.8,7.2c-0.1-1.8-17.2,2.9-18.4,3.3c-3,1.1-8,2.5-9.9,5.3c-6.4,9.6,23.4,10.8,27.7,11   c25.2,1.3,50.5,2.5,75.6-1.5c9.7-1.5,42.6-8,34.8-24.5C580.7,44,556.5,51.7,546,55.8z"/>
	<path class="st0 file-9-element-5" d="M675.6,97.9c-1.7-7.2-3.4-14.5-5.1-21.7c-1.7-7.1-3.6-14.7-8.9-19.7s-15.3-5.7-19.2,0.5   c-2.7-4.7-9.6-5.5-14.4-3c-4.8,2.5-7.9,7.4-10,12.4c-7.2,16.2-7.2,35.2-0.5,51.6c2.2,5.5,1.7,13.4,7.4,15.8c2.7,1.1,6,1.7,9.5,1.9   c-0.5-2.6-0.2-4.9,1.6-6.3c-0.2-0.7,0.1-1.5,0.6-2l0.8-10.5l0,0l0,0c-10.5-2.9-16.7-13.6-16.7-26.2c0-4.6,0.8-8.9,2.3-12.7   c8-1.7,26.3-6.3,29.2-12.6h0.1c0.2,1.6,5.2,15.8,12.4,15c1,3.2,1.5,6.6,1.5,10.2c0,11.6-5.2,21.6-14.2,25.4l1.5,10.3   c0.1,0.1,0,0.1-0.1,0.2c-1.3,1.6-2.5,2.8-3.6,3.8c0.7,1.4,1.3,2.7,1.7,4.2c0.5-1.3,0.5-4.3,1.6-3.9c0.9,0.3,1.7,2.3,2.1,3.4   c9.6-1.5,19-7.6,21.7-16.9C678.5,111,677,104.3,675.6,97.9z"/>
	<g>
		<path class="st0 file-9-element-6" d="M631.6,152.1c-6,1-11-5.3-11.7-11.3c-0.7-5.1,0.6-10.2,1-15.4s-0.2-10.8-3.8-14.5c-4.5-4.6-11.9-4.5-18.2-3    c-44.9,10.4-60.6,60-67.7,99.9c-0.4,2.4-4.9,23.1-0.1,23.6c8.1,0.8,16.1-20,17.5-25.8c0.7,4.3,2.4,8.5,5,12c0.7,1,1.6,1.9,2.7,2.3    c1.4,0.4,2.9-0.1,4.1-0.9c3.5-2,6.1-5.3,8-8.9s3.1-7.4,4.2-11.3c-0.6,1.9,0,4.7,0.7,6.4c0.3,0.8,0.8,1.6,1.5,2.1    c1.4,1,3.4,0.6,4.7-0.4c5-3.6,4.9-11,6.5-16.4c2.3-7.8,7.8-14.6,15.5-17.5c6.5-2.4,8.6,5.1,19.3,3.5L631.6,152.1z"/>
	</g>
	<path class="st0 file-9-element-7" d="M138.6,25c-22.9,0-41.5,18.6-41.5,41.5c0,14.5,7.4,27.2,18.7,34.7c-2-4.1-3.1-8.7-3.1-13.5   c0-4.4,0.9-8.6,2.6-12.3c6.2-0.8,13.7-2.9,17-6.1c0.9,1.7,2.6,2.9,4.4,3.1c1.9,0.3,3.8-0.4,5.1-1.7c3,2.2,11.8,4.5,17.6,5.1   c1.8,3.9,2.8,8.3,2.8,12.9c0,5.3-1.3,10.2-3.6,14.3c12.9-7.1,21.6-20.7,21.6-36.4C180.2,43.6,161.6,25,138.6,25z"/>
	<path class="st0 file-9-element-8" d="M195.9,94.2c-2.8-2.7-6.3-4.3-9.5-6.3s-6.4-4.6-7.9-8.5c-1.8-4.6-0.9-10.7-4.1-14.1c-4.6-5-12.3-0.8-17.1-6.8   c-2-2.5-2.9-5.6-5.2-7.8c-2.4-2.3-6.3-3-9.4-1.7c-2.3,1-4.3,6-5.8,6.3c-1.7,0.3-4.6-3.3-6.7-3.7c-3.8-0.8-9,0.1-12.7,1.2   c-3.4,1.1-6.7,3.3-8.4,6.8c-1.7,3.2-1.9,7.3-3.8,10.3c-2.1,3.3-5.7,4.7-8.8,6.7s-6.2,5.3-5.8,9.4c0.3,3.5,3.3,6.7,2.4,10.1   c-0.7,2.5-3.1,3.7-5,5.1c-2,1.4-3.7,3.4-4.6,5.9s-0.8,5.5,0.6,7.7c2,3.2,5.8,3.7,9.2,3.7s7.1-0.3,9.8,2.1c1.5,1.2,2.4,3.1,3.7,4.6   c3.2,3.9,8.5,5.4,12.9,3.7c1.8-0.7,4.8-0.3,7.7,0.1c0.4-0.8,1.3-1.3,2.4-2.7c-0.2-0.7,0.1-1.5,0.6-2v-9.8   c-10.6-3.4-17.8-14.6-17.8-26.9c0-4.4,0.9-8.6,2.6-12.3c6.2-0.8,13.7-2.9,17-6.1c0.9,1.7,2.6,2.9,4.4,3.1c1.9,0.3,3.8-0.4,5.1-1.7   c3,2.2,11.8,4.5,17.6,5.1c1.8,3.9,2.8,8.3,2.8,12.9c0,11.7-6.5,21.6-16.1,25.4l1.4,9.3c0.1,0.1,0,0.1-0.1,0.2   c-1.3,1.6-2.5,2.8-3.6,3.8c0.7,1.3,1.3,2.7,1.6,4.2c0.5-1.3,0.5-4.3,1.6-3.9s2.1,3.6,2.3,4.1c0.6,1.6,0.6,3.2,0.8,4.8   c0,0.2,0.1,0.4,0.2,0.7c11.4,3.1,26.4,2,35.5,1.4c2.9-0.2,5.9-0.8,8.4-2.6s4.3-5,4.2-8.3c-0.2-3.9-2.9-7.3-2.7-11.2   c0.2-4.1,3.4-7.2,4.2-11.3C200.8,101.2,198.7,96.9,195.9,94.2z"/>
	<path class="st0 file-9-element-9" d="M151.6,146.1c6,1,11-5.3,11.7-11.3c0.6-5.1-0.6-10.2-1-15.4s0.2-10.8,3.8-14.5c4.5-4.6,11.9-4.5,18.2-3   c44.9,10.4,60.6,60,67.7,99.9c0.4,2.4,4.9,23.1,0.1,23.6c-8.1,0.8-16.1-20-17.5-25.8c-0.7,4.3-2.4,8.5-5,12c-0.7,1-1.6,1.9-2.7,2.3   c-1.4,0.4-2.9-0.2-4.1-0.9c-3.5-2-6.1-5.3-8-8.9c-1.9-3.6-3.1-7.4-4.2-11.3c0.6,1.9,0.1,4.7-0.7,6.4c-0.3,0.8-0.8,1.6-1.5,2.1   c-1.4,1-3.4,0.6-4.7-0.4c-5-3.6-4.9-11-6.5-16.4c-2.3-7.8-7.8-14.6-15.5-17.5c-6.5-2.4-8.6,5.1-19.3,3.5L151.6,146.1z"/>
	<path class="st0 file-9-element-10" d="M125.7,148.9c-6,1-11-5.3-11.7-11.3c-0.7-5.1,0.6-10.2,1-15.4s-0.2-10.8-3.8-14.5c-4.5-4.6-11.9-4.5-18.2-3   c-44.9,10.4-60.6,60-67.7,99.9c-0.4,2.4-4.9,23.1-0.1,23.6c8.1,0.8,16.1-20,17.5-25.8c0.7,4.3,2.4,8.5,5,12c0.7,1,1.6,1.9,2.7,2.3   c1.4,0.4,2.9-0.2,4.1-0.9c3.5-2,6.1-5.3,8-8.9c1.9-3.6,3.1-7.4,4.2-11.3c-0.6,1.9-0.1,4.7,0.7,6.4c0.3,0.8,0.8,1.6,1.5,2.1   c1.4,1,3.4,0.6,4.7-0.4c5-3.6,4.9-11,6.5-16.4c2.3-7.8,7.8-14.6,15.5-17.5c6.5-2.4,8.6,5.1,19.3,3.5L125.7,148.9z"/>
	<path class="st0 file-9-element-11" d="M117.5,172.4c-5.6-0.4-17.5,9.4-21.2-0.9c-3.7-10.2,19.2-43,19.8-43.9c1-1.8,4.2-4.4,6.5-4.6   c4.6,14.7,4.1,22.8,4.1,22.8l-7.1,27.6C119.1,172.8,118.4,172.5,117.5,172.4z"/>
	<path class="st0 file-9-element-12" d="M169,306.1c-2.8-2.5-5.5-4.9-8.2-7.4c-2-1.8-4-3.7-4.8-6.2c-0.4-1.5-0.4-3.1-0.3-4.7c-1.4-0.2-2.7-0.4-3.7-0.5   l-12.4-133c2.5-4.4,7.8-11.8,14.6-12.3c-1.7-2-3.9-4.1-4.1-5.5c-0.2-1.7-0.2-3.2-0.8-4.8c-0.2-0.5-1.2-3.7-2.3-4.1   s-1.1,2.6-1.6,3.9c-0.4-1.5-1-2.8-1.6-4.2c1.1-1,2.3-2.2,3.6-3.8c0.1-0.1,0.2-0.1,0.1-0.2l-1.4-9.3c9.6-3.8,16.1-13.7,16.1-25.4   c0-4.6-1-9-2.8-12.9c-5.8-0.6-14.6-2.8-17.6-5.1c-1.3,1.3-3.3,2-5.1,1.7c-1.9-0.3-3.6-1.5-4.4-3.1c-3.4,3.2-10.8,5.3-17,6.1   c-1.7,3.7-2.6,7.9-2.6,12.3c0,12.4,7.3,23.5,17.8,26.9v9.8c-0.5,0.5-0.8,1.3-0.6,2c-2.2,2.5-3.3,2.1-2.3,6.1   c0.7,3,3.9,9.3,6.7,12.5c0,0-1.2,0.9-2.7,2.1l3.2,3.3L129,289.1l-1.3-0.3c0,1.3-0.1,2.6-0.6,3.9c-0.9,2.5-3.1,4.2-5.2,5.8   c-2.9,2.3-5.8,4.5-8.8,6.8c-1,0.8-2.1,2.1-1.4,3.2c0.5,0.7,1.5,0.7,2.3,0.6c4.2-0.7,7.6-3.6,11.4-5.5c2.4-1.2,5-2,7.7-2.4   c1.1-0.2,2.4-0.4,2.9-1.4c0.2-0.5,0.4-1.1,0.2-1.6c-0.8-2.7-1.3-5.3-1.5-7.9l-4.8-1l5.7-138.1l2.9,3l12.4,133c-0.2,0-0.3,0-0.4,0   c-0.5,0-1.1,0.1-1.8,0.2c-0.4,3.2-1.1,6.5-2.4,9.9c-0.2,0.5-0.1,1.1,0.1,1.6c0.4,1,1.7,1.4,2.8,1.6c2.6,0.6,5.2,1.5,7.5,2.9   c3.6,2.2,6.9,5.3,11,6.3c0.8,0.2,1.8,0.2,2.4-0.4C171,308.4,170,307,169,306.1z"/>
	<path class="st0 file-9-element-13" d="M159.2,171.1c5.1-0.4,18.5,9.4,21.8-0.9c3.3-10.2-20.1-43-20.5-43.9c-0.9-1.8-3.8-4.4-5.9-4.6   c-4.1,14.7-3.7,22.8-3.7,22.8l6.4,27.6C157.7,171.6,158.4,171.2,159.2,171.1z"/>
	<g>
		<path class="st0 file-9-element-14" d="M163.1,180.6l-8.1-58.1c0,0-2.3-2.8-8.1-3.7l0.7,4.5c0.1,0.1,0,0.1-0.1,0.2c-1.3,1.6-2.5,2.8-3.6,3.8    c0.7,1.4,1.3,2.7,1.6,4.2c0.5-1.3,0.5-4.3,1.6-3.9s2.1,3.6,2.3,4.1c0.6,1.6,0.6,3.2,0.8,4.8c0.1,1.4,2.4,3.5,4.1,5.5    c-7.1,0.5-12.6,8.6-14.9,12.9l0,0l-7.8-8c1.5-1.2,2.7-2.1,2.7-2.1c-2.8-3.2-6-9.4-6.7-12.5c-0.9-3.9,0.2-3.5,2.3-6.1    c-0.2-0.7,0.1-1.5,0.6-2v-3.7c-5.4,1.4-10,3.3-10.2,4.3c-0.3,1.9-2.5,71.8-2.5,71.8l-4.5,94.8l12.5-3l13.4,2.9c0,0,7.4-4,11.3-4    s21.8,3.9,24.3,1.7L163.1,180.6z"/>
	</g>
	<path class="st0 file-9-element-15" d="M95.9,176.2c1.9,7.7,20.7-1.6,24.1-3.2c3.4-1.6,22-11.6,22-11.6s-5.5-13.4-13-13.4   C128.6,148,92,160.3,95.9,176.2z"/>
	<path class="st0 file-9-element-16" d="M139.3,167.7"/>
	<path class="st0 file-9-element-17" d="M153.1,149.6"/>
	<path class="st0 file-9-element-18" d="M347.8,42.8c-4.1-2.7-14.4-4.1-21.5-2c1.7-3.1,1-6.6-4.9-8.6c-4.9-1.7-14,1.4-19.2,6.2   c0.2-1.2,0.2-2.4-0.1-3.6c-1.9-6.7-9.8-5.2-15.4-4.4c-13.5,2-28.2,11.8-28.1,26.3c-7.7-0.5-15.5-1.1-23.2-0.5   c-5.1,0.4-17.7,3.1-14.1,10.9c2.8,6,17.4,9,23.1,9.6c10,1.1,20.3,2,30.4,2.1c21.5,0.2,48.3-0.4,66.4-13.8c5.5-4.1,3.4-7.1-0.3-8   C348.4,54.3,356.2,48.3,347.8,42.8z"/>
	<polygon class="st0 file-9-element-19" points="590.2,152.9 416.1,152.9 416.1,29.3 375.9,29.3 375.9,152.9 201.8,152.9 201.8,193.1 375.9,193.1    375.9,560.2 416.1,560.2 416.1,193.1 590.2,193.1  "/>
	<rect x="348.2" y="550.4" class="st0 file-9-element-20" width="95.5" height="25.2"/>
	<rect x="322.1" y="563.7" class="st0 file-9-element-21" width="147.8" height="34.7"/>
	<circle class="st0 file-9-element-22" cx="367.9" cy="142.6" r="60.4"/>
	<g>
		<path class="st0 file-9-element-23" d="M587.1,165.1L587,165c0,0,0,0-0.1,0h-0.1h-0.1c0,0-0.1,0-0.2,0h-0.1c-0.1,0-0.1,0-0.2,0.1c0,0-0.1,0-0.2,0.1    c-0.1,0-0.1,0.1-0.2,0.1c-0.1,0-0.1,0.1-0.2,0.1c-0.1,0-0.2,0.1-0.2,0.1c-0.1,0-0.1,0.1-0.2,0.1c-0.1,0-0.2,0.1-0.3,0.1    s-0.2,0.1-0.2,0.1c-0.1,0.1-0.2,0.1-0.3,0.1s-0.2,0.1-0.2,0.1c-0.1,0.1-0.2,0.1-0.3,0.2c-0.1,0-0.2,0.1-0.3,0.1    c-0.1,0.1-0.2,0.1-0.3,0.2c-0.1,0.1-0.2,0.1-0.3,0.1c-0.1,0.1-0.2,0.1-0.3,0.2c-0.1,0.1-0.2,0.1-0.3,0.1c-0.1,0.1-0.3,0.1-0.4,0.2    c-0.1,0.1-0.2,0.1-0.3,0.1c-0.1,0.1-0.3,0.1-0.4,0.2c-0.1,0.1-0.2,0.1-0.3,0.1c-0.2,0.1-0.3,0.2-0.5,0.3c-0.1,0-0.1,0.1-0.2,0.1    c-0.2,0.1-0.5,0.3-0.7,0.4l-0.1,0.1c-0.2,0.1-0.4,0.2-0.6,0.3c-0.1,0.1-0.2,0.1-0.3,0.2c-0.1,0.1-0.3,0.1-0.4,0.2    c-0.1,0.1-0.2,0.1-0.3,0.2c-0.1,0.1-0.2,0.1-0.4,0.2c3.6-2.7,7.3-6.1,6.8-6.6c-0.6-0.7-7.3,3.1-10.9,5.3c3-2.2,7.3-6.1,7.5-7.1    c0-0.1,0-0.1,0-0.2c0,0-0.1-0.1-0.2-0.1l0,0c-1.8,0-11.8,5.3-11.8,5.3s-3.1,1.8-8.9,4.1c1.2-2,0-3.7,0.3-4.1    c0.8-1,0.3-4.3-0.7-4.6c-1-0.4-3.5,4.5-6.7,6.5c-3.7,2.3-4.7,5.5-5,7.1c-0.9,0.8-1.5,1.7-1.7,2.6l0.8-0.4c0,0.1,0,0.2,0,0.3    l-63.2,16.6c0,0-30.6,9-50.3,16.4c0-0.2,0-0.3,0-0.3s-11.2-2.9-22.2-3.9c8.7-18.9,14.1-45.5,8.8-58.6c-2.1-5-5.5-7.4-9.7-11    c-11.3,3.5-47-4.7-47-4.7c-2.2,28.2-20.6,39.7-26.8,42.7c-2.3,0.2-0.6,6.3,0.2,8.3c3.3,8,20.2,16.6,27.6,25.5    c-19.6-7.2-57-14.5-57-14.5l-63.2-16.6c0-0.9-0.4-1.7-0.9-2.4c-0.3-1.6-1.3-4.9-5-7.2c-3.2-1.9-5.7-6.9-6.6-6.5    c-1,0.4-1.5,3.6-0.7,4.6c0.3,0.4,1.1,2.1,2.3,4.1c-5.8-2.3-10.9-4.1-10.9-4.1s-10-5.3-11.8-5.3l0,0c-0.1,0-0.2,0-0.2,0.1    c0,0,0,0.1,0,0.2c0.1,1,4.5,4.9,7.5,7.1c-3.6-2.2-10.3-6-10.9-5.3c-0.5,0.6,3.2,3.9,6.8,6.6c-0.1-0.1-0.2-0.1-0.4-0.2    c-0.1-0.1-0.2-0.1-0.3-0.2c-0.1-0.1-0.3-0.1-0.4-0.2c-0.1-0.1-0.2-0.1-0.3-0.2c-0.2-0.1-0.4-0.2-0.6-0.3l-0.1-0.1    c-0.2-0.1-0.5-0.3-0.7-0.4c-0.1,0-0.1-0.1-0.2-0.1c-0.2-0.1-0.3-0.2-0.5-0.3c-0.1-0.1-0.2-0.1-0.3-0.1c-0.1-0.1-0.3-0.1-0.4-0.2    c-0.1-0.1-0.2-0.1-0.3-0.1c-0.1-0.1-0.3-0.1-0.4-0.2c-0.1-0.1-0.2-0.1-0.3-0.1c-0.1-0.1-0.2-0.1-0.4-0.2c-0.1-0.1-0.2-0.1-0.3-0.1    c-0.1-0.1-0.2-0.1-0.3-0.2c-0.1-0.1-0.2-0.1-0.3-0.1c-0.1-0.1-0.2-0.1-0.3-0.2c-0.1,0-0.2-0.1-0.2-0.1c-0.1-0.1-0.2-0.1-0.3-0.1    s-0.1-0.1-0.2-0.1c-0.1,0-0.2-0.1-0.3-0.1s-0.1-0.1-0.2-0.1c-0.1,0-0.2-0.1-0.2-0.1c-0.1,0-0.1-0.1-0.2-0.1    c-0.1,0-0.1-0.1-0.2-0.1c-0.1,0-0.1,0-0.2-0.1c-0.1,0-0.1,0-0.2-0.1h-0.1c-0.1,0-0.1,0-0.2,0h-0.1c-0.1,0-0.1,0-0.1,0h-0.1    c-0.1,0-0.1,0-0.1,0.1c-0.6,0.6,4.5,4.9,8.9,8c-2.6-1.5-5.3-2.9-5.7-2.4c-0.1,0.1-0.1,0.2-0.1,0.3l0,0c-0.8,0.8,5.4,6.2,9,8.4    c1.2,1,2.8,2,4.7,3c5.9,3.3,14.5,6,17.5,4.3l61.2,27c31.3,16.5,49.5,20.8,60,19.9c3.4,32.2,9.8,89.9,10.4,101.7l24,0.2    c1.1,34.8,2.3,73.4,1.8,74.4c-2.5,5.1-3.5,11.8-4.3,17.9c-0.9-3.2-1.9-6.1-3.1-8.5c-0.9-1.8,3.7-24.2,3.7-24.2s-13.3-9.9-22.4-4.5    c0,0-3.7,16.1-1.9,19.7c5.5,11-2.6,24.7,1.9,36.3c3.5,9,9.8,34,11.5,39.9c1.8,5.8,2.7,38.9,2.2,42.1s-0.9,9.5,3.1,10.3    s3.8,3.3,8.6,3c4.8-0.3,2.3,1.6,4.8-0.3c1-0.8,0.7-6.7-0.1-13.6c1.5-2.3,1.1-6.4,0.8-8.7c-0.5-3.2,0.5-36.2,2.2-42.1    c1.8-5.8,8.1-30.9,11.5-39.9c4.5-11.6-3.6-25.2,1.9-36.3c0.9-1.9,1-34.6,0.9-65.2l17.9,0.2c-0.4-8.6-1.1-66.9-1.5-101    c10.9,0.9,28.7-3.8,57.8-21.2l61.2-27c3,1.7,11.6-1,17.5-4.3c1.9-1,3.5-2,4.7-3c3.6-2.2,9.8-7.6,9-8.4l0,0c0-0.1,0-0.2,0-0.3    c-0.4-0.5-3.1,0.9-5.7,2.4C582.6,169.9,587.7,165.7,587.1,165.1z M220.9,169.9c-0.3-0.1-0.5-0.1-0.6-0.2v-0.2    C220.5,169.6,220.7,169.8,220.9,169.9L220.9,169.9z M570.4,169.9L570.4,169.9c0.2-0.1,0.4-0.2,0.6-0.3v0.2    C570.9,169.7,570.7,169.8,570.4,169.9z"/>
	</g>
	<path class="st0 file-9-element-24" d="M367.6,307.6c-12-7,2.5,27.8,2.5,27.8l-20.2,61.9c0,0,14.4,15.3,31.6,10.1c17.2-5.3,17.2-5.3,17.2-5.3   s12.1,11.1,18.7,11.1s8.4,8.7,12.5,5c0,0,16.2-54.6,13.9-74.3c-1.4-11.6-9.3-44.2-9.3-44.2S379.6,314.5,367.6,307.6z"/>
	<path class="st0 file-9-element-25" d="M356.5,313.8c0,0-14.6,44.9-8.9,69.1c0,0,22.6,13.9,29.1,7.6s4.1-82.4,4.1-82.4S360.4,297.8,356.5,313.8z"/>
	<path class="st0 file-9-element-26" d="M430.8,153.8c-2.6-8.7-6.7-17.4-13.7-23.2c-6.2-5.2-14.3-7.7-21-12.3c-3.6-2.6-6.9-5.8-11.1-7.2   c-3.9-1.3-8.1-0.8-12-0.1c-8.6,1.6-16.9,4.3-24.8,8.1c-5,2.4-10.1,5.5-12.7,10.4c-2.9,5.6-2.2,12.3-3.1,18.5   c-1.4,9.5-6.9,18.2-7.3,27.8c-0.4,9.8,2.3,17.7,10.1,24.8c6.8,2.2,20.4,4.9,26.6,7.2c2.9-18.5-18-19.2-25.5-23.3   c-1.9-1.1-2-9.5,0.3-9.7c0.7-0.3,1.7,0.8,2.7,0.2c3.1,10.2,7.7,19.8,16.3,26.6c6,4.7,13,8.2,20,11.6c4.9,2.4,22.6,8,24.4,6.5   c2.4-0.2,12.9-15.1,14.7-20.2c2.5-7.3,5.2-17.1,6.1-24.6c1.3-10.7-2-20.6-6.9-29.9c0.2-0.6,0.1-1.2-0.1-1.8c-1-2.2-2.3-4.3-3.7-6.3   c0.1,0,0.2-0.1,0.3-0.1c1.2,1.9,2.1,5.3,3.4,6.3c0.3,0.2,0.5,1,1.8-0.4c3.1-3.4,6.1,2.4,3.8,8.6c-4.7,12.4-1.3,34.2-7.6,51.7   c-0.5,13.8,19.8-8.5,27.7-19.1C446.8,174.2,433.4,162.5,430.8,153.8z M409.1,160.7c-1.9,5.1-4.3,10.1-7.1,14.9   c-0.6,1-1.2,2-1.8,2.9c-4.6-1.1-16.5-3.8-17.6-2.6c-1.1,1.1,5.1,10.8,12.4,8.9c-0.2,0.2-0.4,0.4-0.6,0.6c-1.8,1.6-3.9,2.8-6,3.6   c-2.1,0.9-4.4,1.5-6.8,1.6c-0.3,0-0.6,0-1,0c4-4.7,2.8-13.6,1.4-13.6s-6.6,8-9.6,12.8c-1-0.2-2.1-0.5-3.1-0.7   c-5.3-1.4-10.5-3.3-15.5-5.6c-4.9-2.3-6.8-4.7-7.6-9.9c-0.2-1.2-0.7-2.1-1.4-2.8c7.6-6.7,16.9-19,18.4-38.6c0,0,22.8,5.2,37.7,5.6   C405.2,144.9,412.4,151.9,409.1,160.7z"/>
	<g>
		<path class="st0 file-9-element-27" d="M657.5,149.3c6,1,11-5.3,11.7-11.3c0.7-5.1-0.6-10.2-1-15.4s0.2-10.8,3.8-14.5c4.5-4.6,11.9-4.5,18.2-3    c44.9,10.4,60.6,60,67.7,99.9c0.4,2.4,4.9,23.1,0.1,23.6c-8.1,0.8-16.1-20-17.5-25.8c-0.7,4.3-2.4,8.5-5,12    c-0.7,1-1.6,1.9-2.7,2.3c-1.4,0.4-2.9-0.1-4.1-0.9c-3.5-2-6.1-5.3-8-8.9s-3.1-7.4-4.2-11.3c0.6,1.9,0,4.7-0.7,6.4    c-0.3,0.8-0.8,1.6-1.5,2.1c-1.4,1-3.4,0.6-4.7-0.4c-5-3.6-4.9-11-6.5-16.4c-2.3-7.8-7.8-14.6-15.5-17.5c-6.5-2.4-8.6,5.1-19.3,3.5    L657.5,149.3z"/>
	</g>
	<path class="st0 file-9-element-28" d="M623.3,175.6c-5.6-0.4-17.5,9.4-21.2-0.9s19.2-43,19.8-43.9c1-1.8,4.2-4.4,6.5-4.6c4.6,14.7,4.1,22.8,4.1,22.8   l-7,27.6C625,176,624.3,175.6,623.3,175.6z"/>
	<path class="st0 file-9-element-29" d="M668.6,315.2c-2.7-2.5-5.4-5-8.1-7.5c-1.9-1.8-4-3.7-4.7-6.3c-0.5-1.7-0.3-3.4-0.1-5.1c0.7-6.1,3-12,4.5-18   l-7.7-0.9l-7.4-116l17-7.6l-1.7-8.1c-1.7-2.1-4.2-4.4-4.3-5.9c-0.2-1.7-0.2-3.2-0.8-4.8c-0.2-0.5-1.2-3.7-2.3-4.1s-1.1,2.6-1.6,3.9   c-0.4-1.5-1-2.8-1.7-4.2c1.1-1,2.3-2.2,3.6-3.8c0.2-0.1,0.2-0.1,0.1-0.2l-1.5-10.3c9-3.8,14.2-13.7,14.2-25.4c0-3.6-0.5-7-1.5-10.2   c-7.2,0.7-12.2-13.5-12.4-15h-0.1c-3,6.3-21.3,10.8-29.2,12.6c-1.5,3.8-2.3,8.1-2.3,12.7c0,12.7,6.2,23.3,16.7,26.2l0,0l0,0   l-0.8,10.5c-0.5,0.5-0.8,1.3-0.6,2c-4.8,4,1.5,15.4,4.4,18.5c0,0-3,3.6-4.5,4.8l5.7,5.2l-4.1,113.2l-8.7,1.3   c1.7,5.9,4.1,11.8,4.9,17.9c0.2,1.7,0.4,3.5,0,5.1c-0.7,2.6-2.6,4.5-4.5,6.4c-2.6,2.6-5.3,5.1-7.9,7.7c-0.9,0.9-1.9,2.3-1,3.3   c0.6,0.6,1.6,0.6,2.4,0.3c4.1-1.1,7.2-4.4,10.7-6.7c2.2-1.5,4.8-2.6,7.4-3.2c1.1-0.3,2.4-0.6,2.8-1.7c0.2-0.5,0.2-1.1,0-1.6   c-4.3-10.1-3.5-19.4-3.7-29.1l-1.2,0.2l4.1-112.2l1.8,1.7l7.5,116.6l-2.3-0.3c0,9.7,1,19-3.1,29.2c-0.2,0.5-0.1,1.1,0.1,1.6   c0.4,1,1.7,1.4,2.8,1.6c2.6,0.6,5.1,1.7,7.4,3.1c3.6,2.2,6.7,5.5,10.8,6.5c0.8,0.2,1.8,0.3,2.4-0.4   C670.5,317.5,669.5,316.1,668.6,315.2z"/>
	<path class="st0 file-9-element-30" d="M665.1,174.3c5.1-0.4,18.5,9.4,21.8-0.9c3.3-10.2-20.1-43-20.5-43.9c-0.9-1.8-3.8-4.4-5.8-4.6   c-4.1,14.7-3.7,22.8-3.7,22.8l6.4,27.6C663.6,174.7,664.2,174.4,665.1,174.3z"/>
	<g>
		<path class="st0 file-9-element-31" d="M668.9,183.8l-8.1-58.1c0,0-2.3-2.8-8.1-3.7l0.7,4.5c0.1,0.1,0,0.1-0.1,0.2c-1.3,1.6-2.5,2.8-3.6,3.8    c0.7,1.4,1.3,2.7,1.7,4.2c0.5-1.3,0.5-4.3,1.6-3.9s2.2,3.6,2.3,4.1c0.6,1.6,0.7,3.2,0.8,4.8c0.2,1.5,2.7,3.8,4.3,5.9l1.7,8.1    l-17.2,7.6l-9.3-8.6c1.5-1.2,4.5-4.8,4.5-4.8c-2.8-3.2-9.2-14.6-4.4-18.5c-0.2-0.7,0.1-1.5,0.6-2l0.3-3.8    c-5.5,1.4-10.3,3.3-10.5,4.4c-0.3,1.9-2.5,71.8-2.5,71.8l-4.5,94.7l12.5-3l13.4,2.9c0,0,7.4-4,11.3-4s21.8,3.9,24.3,1.7    L668.9,183.8z"/>
	</g>
	<path class="st0 file-9-element-32" d="M601.8,179.4c1.9,7.7,20.7-1.6,24.1-3.2s22-11.6,22-11.6s-5.6-13.5-13.1-13.5   C634.4,151.1,597.9,163.5,601.8,179.4z"/>
	<g>
		<path class="st0 file-9-element-33" d="M687.2,176.9c-4.8,6.2-18.6-2.4-21.5-4.8c-2.8-2.4-21.8-11.3-21.8-11.3s8-18.2,19.6-15.2    C663.9,145.7,694,168.1,687.2,176.9z"/>
		<path class="st0 file-9-element-34" d="M645.2,170.8"/>
		<path class="st0 file-9-element-35" d="M659,152.8"/>
	</g>
	<path class="st0 file-9-element-36" d="M181.3,173.8c-4.8,6.2-18.6-2.4-21.5-4.8S138,157.6,138,157.6s8-18.2,19.6-15.2   C158,142.6,188.1,165,181.3,173.8z"/>
	<path class="st0 file-9-element-37" d="M201.9,371.8c0,0-22.1-6.9-35.4,15.1l32.9,4.2L201.9,371.8z"/>
	<path class="st0 file-9-element-38" d="M124.8,571.4c-0.9-0.9-0.6-2.5-0.2-3.7c2.3-6,7.7-10.2,11.7-15.3c0.5-0.7,1.1-1.4,1.6-2.1   c0.5-1.2,1-2.1,1.3-2.5c0.3-0.5,0.8-1.2,1.4-1.9c0.7-1.3,1.3-2.7,1.8-4.2c0.6-1.6,1.3-3.5,3-4c0.8-0.2,1.7-0.2,2.4,0.2   c0,0-5.8-5.3-7.2-1.7s-3.4,9.6-4,10.7s-13.2,12.8-15.4,19.5s1.6,9.4,5.3,6.3c0.3-0.2,0.6-0.5,0.9-0.9   C126.4,572.2,125.5,572.2,124.8,571.4z"/>
	<g>
		<g>
			<path class="st0 file-9-element-39" d="M191,546.5c-14.7-1.4-29-1.1-43.9-8.6c-0.7-0.4-1.6-0.3-2.4-0.1c-1.7,0.5-2.3,2.4-2.9,4
					c-1.3,3.9-3.2,7.6-5.7,10.8c-3.9,5.2-9.2,9.5-11.3,15.6c-0.4,1.2-0.7,2.8,0.2,3.7c1.4,1.4,3.7,0.1,5.1-1.2
					c4.2-3.8,8.4-7.5,12.6-11.3c3-2.7,6.2-5.5,10.2-6.2c2.6-0.5,5.2,0,7.8,0.5c9.2,1.8,17.9,6.1,26.7,9.3L191,546.5z"/>
		</g>
	</g>
	<g>
		<path class="st0 file-9-element-40" d="M173,560.3c-14.7-1.8-28.9-1.9-43.6-9.8c-0.7-0.4-1.6-0.4-2.4-0.2c-1.7,0.4-2.4,2.3-3,4    c-1.4,3.9-3.4,7.5-6,10.7c-4,5-9.4,9.2-11.8,15.3c-0.5,1.2-0.7,2.7,0.2,3.7c1.3,1.4,3.7,0.2,5.2-1.1c4.3-3.6,8.6-7.3,12.9-10.9    c3.1-2.6,6.4-5.3,10.3-5.9c2.6-0.4,5.2,0.1,7.8,0.7c9.1,2.1,17.7,6.6,26.4,10L173,560.3z"/>
	</g>
	<path class="st0 file-9-element-41" d="M271.3,528.7c-4.5-8.4-10.3-16-15.4-24c-1.1-1.6-2.7-4.9-4.6-8.7c0,0-8.9-76.1-15.3-92.8l-11.5-15.8   c0,0-17,6.4-26.5-8c0,0-8.3,8.5-10.7,14.3c-7.5,18.4,1.2,81.7,1.2,81.7v8.3c0,0,0.7,1.3-4,9.7c-2.8,5.1-5.6,22-8.2,38.6l-18.9-0.3   c0,0-4.9,4.9-6.6,7.8c-1.2,2.1-2.1,4.4-3.3,6.4c-2.3,3.7-5.9,6.4-9.2,9.3c-7.7,6.5-14.8,15.2-14.5,25.3c42.1,5.5,84.8,5.9,127,1.2   c4.3-0.5,8.6-1,12.5-2.8c8.7-3.9,14-13.4,14.8-22.9C279,546.5,275.8,537.1,271.3,528.7z"/>
	<path class="st0 file-9-element-42" d="M166.5,387.3c-0.2-1.6,24.2-14,40.4-6.7c10.6,4.8,28.2,22.9,28.2,22.9s-12-13.4-29-14.2s-23.2,27.3-23.2,27.3   S169.3,415.8,166.5,387.3z"/>
	<g>
		<path class="st0 file-9-element-43" d="M260.4,347.3c0,0,12-26.2-5.1-42.6c-5.8-5.6-12.2-10.6-20.2-12.8c-16.3-4.5-34.3,7.3-37.9,23.6    c-3,13.6-4.6,38.1,4,49.9c9.8,13.5,37,30.4,46.3,16.5l8-13.1c0,0,10.3,7.6,8.7-2.3L260.4,347.3z"/>
	</g>
	<g>
		<path class="st0 file-9-element-44" d="M201.2,322.4c-0.3-0.9-3-10.8-7.2-7.4c-4.6,3.7-0.3,15.1,3.8,17L201.2,322.4z"/>
	</g>
	<path class="st0 file-9-element-45" d="M267.1,294.4c-4.6-4.7-11-0.7-11.3-1.1c0,0-8.7-11.2-23.8-8c0,0-10.4-6.5-21.3,6.6c0,0-12.9,5.2-15.7,22.6   c3.6-1.4,5.9,6.8,6.3,7.9c2.1,1.3,4.4,2.6,6.5,3.8c-0.6,3-1.1,7.3-2,9.4c-0.6,1.4-1.9,2.7-1.9,2.7c-2.6,3.1-5.1,6.4-2.4,10.6   c-3,1.5-5.1,4.6-5.4,7.9c-0.2,3.3,1.4,6.8,4.1,8.9c-2.8,0.8-5,3.5-5.2,6.4s1.6,5.9,4.4,7.2c-1.4,1.4-1.8,3.7-1.1,5.5   c0.8,1.9,2.7,3.2,4.8,3.4c-1.5,3-1.1,6.9,0.9,9.7c1.6,2.3,4.3,3.8,7.1,4.1c2.3,6.3,12.9,10.9,19,8.3c2.1,1.8,5.1,2.8,7.9,2.4   c3.5-0.4,6.6-2.8,7.8-5.9c-0.5,1.2,5.9,1,7.3-2.1c2.4-5.5-5.2-24.1-5.2-24.1s-5.2,8-11.9-6.8c3.8,0.6,9.8-0.5,19.1-5.5   c0,0-10.3-9.7-23.6-2.1c-6.7-6.4-19.9-12.9-16.7-36.5c0,0-0.4-6.5-0.6-9.1c1.4-5.5,3.3-11.6,3.9-12.7c6.8-12.1,18.7-12.6,29.8-6.4   c0.5,0.3,0.9,0.5,1.4,0.8c4.5,2.8,18.2,21.1,21.7,7C272,305.1,270.2,297.6,267.1,294.4z"/>
	<path class="st0 file-9-element-46" d="M241.2,442.3c7.5-11.4,15.9-24.3,20.3-31c8.4,3.9,17.4,8.3,23.8,14.9s5.6,12.6,5.6,12.6l-40.4,31.6"/>
	<g>
		<path class="st0 file-9-element-47" d="M289.7,402.5c2.7-3.3,8.5-10.6,7.9-11.3c-0.3-0.3-1.8,0.7-3.7,2.2c-0.3-0.3-2,1.4-3.9,3.3    c3-3.8,6.5-8.3,6-8.8c-0.2-0.3-1.5,0.6-3.1,2c-1.1,0.7-2.9,2.1-4.6,3.7c1.1-1.6,2.2-3.2,2.8-4.4c1.1-1.6,1.9-2.8,1.7-3.1    c-0.5-0.6-5.8,4.3-9.7,8.3c2.4-3.2,5.5-7.7,5.2-8.4c-0.5-1.1-10.1,9.1-10.1,9.1c-1.3,1-2.7,2.6-4.2,4.5c-0.4-0.3-0.7-0.4-1-0.4    c-0.3,0.1-0.5,0.7-0.6,1.7c0-0.1,0-0.2,0-0.3c0.2-1.2-1.9-3.4-2.8-3.2s-0.5,5.2-2,8.2c-2.4,4.9,0,8.8,0,8.8L255,435.9l3.9,1.3    l-0.4,0.6l14.1,4.6l6.5-19.8c1.5-0.1,2.9-1.3,3.9-2.9c4.2-6.5,8.9-14.9,8.9-14.9s5.7-8.8,5.2-9.6    C296.9,394.4,291.9,400,289.7,402.5z M288.8,403.2L288.8,403.2L288.8,403.2L288.8,403.2z"/>
	</g>
	<path class="st0 file-9-element-48" d="M286.4,433.6c0,0,0-6-7.2-11.8s-16.7-8.9-25.5-11.8c-3.1,6.2-8.5,17.3-13.8,28.2   c-14.2-19.9-34.4-45.2-42.8-37.6c-18.5,16.8,38,68.3,38,68.3s10.4,5,15.1,1.1c0.7-0.5,1.2-1.1,1.7-1.7L286.4,433.6z"/>
	<path class="st0 file-9-element-49" d="M123.2,548.8c-1.4,3.6-3.4,9.6-4,10.7S106,572.3,103.8,579s1.6,9.4,5.3,6.3c0.3-0.2,0.6-0.5,0.9-0.9   c-0.9,0.3-1.9,0.3-2.6-0.5c-0.9-0.9-0.6-2.5-0.2-3.7c1.3-3.5,3.7-6.3,6.2-9.1l-0.3,0.3c5.7-1.4,6.2,5.6,6.2,5.6l4.3-3.6   c0,0,1.3-1.3,2-2c0.2-4-6.7-6.5-6.7-6.5c0.5-0.7,1.1-1.4,1.6-2.1c0.5-1.2,1-2.1,1.3-2.5c0.3-0.5,0.8-1.2,1.4-1.9   c0.7-1.3,1.3-2.7,1.8-4.2c0.6-1.6,1.3-3.5,3-4c0.8-0.2,1.7-0.2,2.4,0.2C130.4,550.5,124.6,545.2,123.2,548.8z"/>
	<path class="st0 file-9-element-50" d="M551.6,435c-7.5-11.4-15.9-24.3-20.3-31c-8.3,3.9-17.4,8.3-23.8,14.9c-6.4,6.6-5.6,12.6-5.6,12.6l40.4,31.6   L551.6,435z"/>
	<path class="st0 file-9-element-51" d="M671.4,559.8c-2-6.8-14.3-18.8-14.8-19.9s-2.3-7.2-3.7-10.8s-7.2,1.5-7.2,1.5c0.7-0.4,1.6-0.3,2.4-0.1   c1.7,0.5,2.3,2.4,2.9,4c0.5,1.4,1,2.8,1.7,4.2c0.5,0.7,1,1.4,1.3,1.9s0.7,1.4,1.2,2.6c0.5,0.7,1,1.5,1.5,2.2   c3.9,5.2,9.2,9.5,11.3,15.6c0.4,1.2,0.7,2.8-0.2,3.7c-0.7,0.7-1.6,0.7-2.6,0.4c0.3,0.4,0.6,0.7,0.8,1   C669.5,569.2,673.4,566.6,671.4,559.8z"/>
	<path class="st0 file-9-element-52" d="M686.5,572.9c-2.3-6-7.7-10.2-11.8-15.3c-2.5-3.2-4.6-6.8-6-10.7c-0.6-1.6-1.3-3.5-3-4   c-0.8-0.2-1.7-0.2-2.4,0.2c-2.1,1.1-4.1,2.1-6.2,2.9c-0.2-0.2-0.4-0.5-0.6-0.8c-2.5-3.3-4.4-7-5.7-10.8c-0.5-1.6-1.2-3.6-2.9-4   c-0.8-0.2-1.7-0.2-2.4,0.1c-14.9,7.5-29.2,7.3-43.9,8.6l3.5,16.5c8.8-3.2,17.5-7.5,26.7-9.3c2.6-0.5,5.2-1,7.8-0.5s4.8,1.8,7,3.5   c-9,2.1-17.9,2.5-27,3.6l4,16.4c8.7-3.4,17.3-8,26.4-10c2.3-0.5,4.7-1,7-0.8c1.8,1.6,3.6,3.2,5.4,4.8c1.5,1.3,3.8,2.6,5.1,1.2   c0.1-0.1,0.2-0.2,0.3-0.3c0.1,0.1,0.2,0.2,0.4,0.3c4.3,3.6,8.6,7.3,12.9,10.9c1.5,1.3,3.8,2.5,5.2,1.1   C687.2,575.7,687,574.1,686.5,572.9z"/>
	<path class="st0 file-9-element-53" d="M654.4,547.9c-3.3-2.8-6.9-5.5-9.2-9.3c-1.3-2.1-2.1-4.4-3.3-6.4c-1.8-3-4.3-5.3-6.7-7.8   c-5.5-6-9.6-13-13.6-20c-4.3-20.6-9.7-37.8-16.2-45c-1.2-1.4,4.7-12-1.5-74.8c-0.6-5.8-9.9-16.1-9.9-16.1   c-8.8,13.3-25.4,13.1-25.4,13.1l-14.6,28c-2.5,4.8-4.3,10.4-2.7,15.6c3.5,11.5,3.3,34.9,3.3,34.9s-13.6,30.8-17.8,37.2   c-5.1,8-10.9,15.6-15.4,24s-7.6,17.8-6.9,27.3c0.8,9.5,6.1,19,14.8,22.9c3.9,1.8,8.3,2.3,12.5,2.8c42.2,4.7,84.9,4.3,127-1.2   C669.2,563.1,662,554.4,654.4,547.9z"/>
	<path class="st0 file-9-element-54" d="M565.9,372.3L554.6,399c0,0,38,0,39.5-30.6L565.9,372.3z"/>
	<path class="st0 file-9-element-55" d="M530,343.1c0,0-15.4-22.2-2.5-40c4.4-6.1,9.4-11.7,16.4-15c14.2-6.7,32.7,1.4,38.8,15.8   c5.1,12.1,10.7,34.4,4.8,46.6c-6.7,14-28.8,33.9-39.7,22.5l-9.6-10.8c0,0-12.7,4.6-8.9-6.4L530,343.1z"/>
	<path class="st0 file-9-element-56" d="M546.2,285.4c-0.2,0-0.5,0.1-0.7,0.1c-8.4,1.9-15.6,7.5-19.9,15.1c-3.7,6.6-7.7,22.8-7.7,22.8   s13.7-2.7,19.2-1.9c5.1,0.7,20.8,1,24.5,4.3c1.2,1,2.2,2.1,3.1,3.4c3.2,4.3,4.8,9.4,5.2,14.6c-3.5,16.2-15.4,33.7-15.4,33.7   c2.5,2.2,13.6-4,15.6-5.1c4.2-2.4,8.2-5.4,11.2-9.3c12-15.6,8.3-41.5,1.4-58.2C576.9,290.6,561.3,282.3,546.2,285.4z"/>
	<path class="st0 file-9-element-57" d="M537.8,428.6L525.1,407c0,0,2.4-3.9,0-8.8c-1.5-3-1-8-2-8.2s-2.9,2.1-2.8,3.2c0,0.1,0,0.2,0,0.3   c-0.1-1-0.3-1.6-0.6-1.7c-0.3,0-0.6,0.1-1,0.4c-1.4-1.9-2.9-3.5-4.2-4.5c0,0-9.6-10.2-10.1-9.1c-0.3,0.7,2.8,5.2,5.2,8.4   c-3.9-4-9.2-8.9-9.7-8.3c-0.2,0.3,0.5,1.5,1.7,3.1c0.6,1.1,1.6,2.7,2.8,4.4c-1.8-1.5-3.5-3-4.6-3.7c-1.6-1.4-2.9-2.3-3.1-2   c-0.4,0.5,3,5,6.1,8.8c-1.8-1.9-3.5-3.6-3.9-3.3c-1.9-1.5-3.4-2.6-3.7-2.2c-0.6,0.7,5.2,8,7.9,11.3c-2.2-2.5-7.2-8.1-7.6-7.3   c-0.5,0.9,5.2,9.6,5.2,9.6s4.7,8.4,8.9,14.9c1,1.6,2.4,2.8,3.9,2.9L520,435l14.1-4.6l-0.4-0.6L537.8,428.6z M504,396   C504,396,504,395.9,504,396L504,396L504,396z"/>
	<path class="st0 file-9-element-58" d="M595.7,393.3c-8.5-7.7-28.6,17.7-42.8,37.6c-5.3-10.8-10.7-22-13.8-28.2c-8.8,2.9-18.3,6-25.5,11.8   s-7.2,11.8-7.2,11.8l34.5,34.8c0.5,0.6,1,1.1,1.7,1.7c4.8,3.9,14.1-3.1,14.1-3.1S614.2,410.1,595.7,393.3z"/>
	<g>
		<path class="st0 file-9-element-59" d="M564.3,328.6c6.5,29.2,2.2,51.6-4.5,83.7c9.6-7.1,12,2.6,27.9-4.7c10.4-4.7,13.5,24.8,22.2,23.3    c-0.2,0-0.5-33.5-0.5-35.9c-0.1-19.4-0.1-38.4-4.9-57.4c-4-15.9-7.7-36-21.7-46.7c-11.5-8.8-32.3-13-44.9-4.3    c-6.9,4.8-22.3,28-22.3,28s11.7,0.3,19.5,2.2C539,317.9,563.7,326,564.3,328.6z"/>
	</g>
	<path class="st0 file-9-element-60" d="M689.9,571.7c-2.2-6.7-14.8-18.4-15.4-19.5s-2.5-7.1-4-10.7s-7.2,1.7-7.2,1.7c0.7-0.4,1.6-0.4,2.4-0.2   c1.7,0.4,2.4,2.3,3,4c0.5,1.4,1.1,2.8,1.8,4.2c0.6,0.7,1,1.4,1.4,1.9c0.3,0.5,0.7,1.4,1.3,2.5c0.4,0.6,0.9,1.2,1.3,1.8   c-2.5,1.3-6.6,4-6.5,6.8c0.7,0.7,2,2,2,2l4.3,3.6c0,0,1.4-5.6,5-6.9c2.9,3.1,5.7,6.2,7.2,10.1c0.5,1.2,0.7,2.7-0.2,3.7   c-0.7,0.7-1.6,0.8-2.6,0.5c0.3,0.4,0.6,0.7,0.9,0.9C688.3,581.1,692.1,578.4,689.9,571.7z"/>
</g>
<g id="Blacklines">
	<path class="st1 file-9-element-61" d="M416.4,506.9c37.5,4.4,75.1,6.5,112.6,3.5"/>
	<path class="st1 file-9-element-62" d="M619.1,494.4c61.9-14.9,123.5-32.4,185.1-20.2l2.3,144h-825l-0.3-104c61.6-36.2,134.1-43.8,206.3-39.5"/>
	<path class="st1 file-9-element-63" d="M249.3,480.8c4.1,0.6,8.3,1.2,12.4,1.8c37.7,5.6,75.5,12.8,113.3,18.6"/>
	<path class="st2 file-9-element-64" d="M546,55.8C545.9,55.8,545.9,55.8,546,55.8c-4.2-3.5-8.9-6.5-14.2-7.8c-5.4-1.3-10.3-0.5-15.2,1.9   c-1.2,0.6-11,5.6-8.9,7.7c-8-7.9-30.7-8.8-29.8,7.2c-0.1-1.8-17.2,2.9-18.4,3.3c-3,1.1-8,2.5-9.9,5.3c-6.4,9.6,23.4,10.8,27.7,11   c25.2,1.3,50.5,2.5,75.6-1.5c9.7-1.5,42.6-8,34.8-24.5C580.7,44,556.5,51.7,546,55.8z"/>
	<path class="st2 file-9-element-65" d="M347.8,42.8c-4.1-2.7-14.4-4.1-21.5-2c1.7-3.1,1-6.6-4.9-8.6c-4.9-1.7-14,1.4-19.2,6.2   c0.2-1.2,0.2-2.4-0.1-3.6c-1.9-6.7-9.8-5.2-15.4-4.4c-13.5,2-28.2,11.8-28.1,26.3c-7.7-0.5-15.5-1.1-23.2-0.5   c-5.1,0.4-17.7,3.1-14.1,10.9c2.8,6,17.4,9,23.1,9.6c10,1.1,20.3,2,30.4,2.1c21.5,0.2,48.3-0.4,66.4-13.8c5.5-4.1,3.4-7.1-0.3-8   C348.4,54.3,356.2,48.3,347.8,42.8z"/>
	<path class="st1 file-9-element-66" d="M98.1,75.7c-0.7-2.9-1-6-1-9.2c0-22.9,18.6-41.5,41.5-41.5s41.5,18.6,41.5,41.5c0,3.6-0.4,7-1.3,10.3"/>
	<path class="st1 file-9-element-67" d="M83.9,106.1c0.9-2,2.5-3.6,4.1-4.8c1.9-1.4,4.4-2.6,5-5.1c0.9-3.4-2.1-6.6-2.4-10.1c-0.4-4.1,2.7-7.5,5.8-9.4   s6.7-3.4,8.8-6.7c1.9-3,2.2-7.1,3.8-10.3c1.8-3.5,5.1-5.7,8.4-6.8c3.7-1.2,8.9-2,12.7-1.2c2.1,0.4,5,4,6.7,3.7   c1.5-0.3,3.4-5.4,5.8-6.3c3.1-1.3,6.9-0.6,9.4,1.7c2.3,2.2,3.3,5.3,5.2,7.8c4.8,6,12.5,1.8,17.1,6.8c3.2,3.4,2.4,9.5,4.1,14.1   c1.5,3.9,4.6,6.5,7.9,8.5s6.7,3.6,9.5,6.3c2.8,2.7,4.9,6.9,4.1,11.1c-0.1,0.8-0.4,1.5-0.7,2.3"/>
	<g>
		<g>
			<g>
				<path class="st1 file-9-element-68" d="M163.5,130.9c-0.1-3.8-0.9-7.6-1.2-11.4c-0.4-5.1,0.2-10.8,3.8-14.5c4.5-4.6,11.9-4.5,18.2-3
					 c26.8,6.2,43.2,26.4,53.6,50.1"/>
				<path class="st1 file-9-element-69" d="M250.2,192.8c0.6,3.1,1.2,6.1,1.7,9c0.4,2.4,4.9,23.1,0.1,23.6c-8.1,0.8-16.1-20-17.5-25.8
					 c-0.7,4.3-2.4,8.5-5,12c-0.7,1-1.6,1.9-2.7,2.3c-1.4,0.4-2.9-0.2-4.1-0.9c-3.5-2-6.1-5.3-8-8.9c-1.7-3.2-2.8-6.6-3.9-10"/>
				<path class="st1 file-9-element-70" d="M210.8,194.2c0.1,1.7-0.3,3.8-0.9,5.1c-0.3,0.8-0.8,1.6-1.5,2.1c-1.4,1-3.4,0.6-4.7-0.4
					 c-5-3.6-4.9-11-6.5-16.4c-2.3-7.8-7.8-14.6-15.6-17.5"/>
				<path class="st3 file-9-element-71" d="M171.6,115.3c0,0,5.2,10.4,7.1-0.7"/>
				<path class="st3 file-9-element-72" d="M186.8,116.3c0,0,5.2,10.4,7.1-0.7"/>
				<path class="st3 file-9-element-73" d="M179.9,127.3c0,0,5.2,10.4,7.1-0.7"/>
			</g>
			<g>
				<path class="st1 file-9-element-74" d="M114,130.6c0.3-2.8,0.8-5.6,1-8.4c0.4-5.1-0.2-10.8-3.8-14.5c-4.5-4.6-11.9-4.5-18.2-3
					 c-44.9,10.4-60.6,60-67.7,99.9c-0.4,2.4-4.9,23.1-0.1,23.6c8.1,0.8,16.1-20,17.5-25.8c0.7,4.3,2.4,8.5,5,12
					 c0.7,1,1.6,1.9,2.7,2.3c1.4,0.4,2.9-0.2,4.1-0.9c3.5-2,6.1-5.3,8-8.9c1.9-3.6,3.1-7.4,4.3-11.3c-0.6,1.9-0.1,4.7,0.7,6.4
					 c0.3,0.8,0.8,1.6,1.5,2.1c1.4,1,3.4,0.6,4.7-0.4c5-3.6,4.9-11,6.5-16.4c2.3-7.8,7.8-14.6,15.5-17.5h0.1"/>
				<path class="st3 file-9-element-75" d="M105.7,118.2c0,0-5.2,10.4-7.1-0.7"/>
				<path class="st3 file-9-element-76" d="M90.5,119.1c0,0-5.2,10.4-7.1-0.7"/>
				<path class="st3 file-9-element-77" d="M97.4,130.1c0,0-5.2,10.4-7.1-0.7"/>
				<path class="st3 file-9-element-78" d="M94.5,158.9c0,0-19.9,16.4-7.4-4.9"/>
				<path class="st3 file-9-element-79" d="M78.2,175.8c0,0-19.9,16.4-7.4-4.9"/>
				<path class="st3 file-9-element-80" d="M79.1,156c0,0-15,21.1-8.5-2.8"/>
				<path class="st3 file-9-element-81" d="M66.2,166.6c0,0-15,21.1-8.5-2.8"/>
				<path class="st3 file-9-element-82" d="M60.4,153.3c0,0-15,21.1-8.5-2.8"/>
			</g>
		</g>
		<g>
			<g>
				<path class="st2 file-9-element-83" d="M163.5,130.9c-0.1-3.8-0.9-7.6-1.2-11.4c-0.4-5.1,0.2-10.8,3.8-14.5c4.5-4.6,11.9-4.5,18.2-3
					 c26.8,6.2,43.2,26.4,53.6,50.1"/>
				<path class="st2 file-9-element-84" d="M250.2,192.8c0.6,3.1,1.2,6.1,1.7,9c0.4,2.4,4.9,23.1,0.1,23.6c-8.1,0.8-16.1-20-17.5-25.8
					 c-0.7,4.3-2.4,8.5-5,12c-0.7,1-1.6,1.9-2.7,2.3c-1.4,0.4-2.9-0.2-4.1-0.9c-3.5-2-6.1-5.3-8-8.9c-1.7-3.2-2.8-6.6-3.9-10"/>
				<path class="st2 file-9-element-85" d="M210.8,194.2c0.1,1.7-0.3,3.8-0.9,5.1c-0.3,0.8-0.8,1.6-1.5,2.1c-1.4,1-3.4,0.6-4.7-0.4
					 c-5-3.6-4.9-11-6.5-16.4c-2.3-7.8-7.8-14.6-15.6-17.5"/>
				<path class="st2 file-9-element-86" d="M171.6,115.3c0,0,5.2,10.4,7.1-0.7"/>
				<path class="st2 file-9-element-87" d="M186.8,116.3c0,0,5.2,10.4,7.1-0.7"/>
				<path class="st2 file-9-element-88" d="M179.9,127.3c0,0,5.2,10.4,7.1-0.7"/>
			</g>
			<g>
				<path class="st2 file-9-element-89" d="M114,130.6c0.3-2.8,0.8-5.6,1-8.4c0.4-5.1-0.2-10.8-3.8-14.5c-4.5-4.6-11.9-4.5-18.2-3
					 c-44.9,10.4-60.6,60-67.7,99.9c-0.4,2.4-4.9,23.1-0.1,23.6c8.1,0.8,16.1-20,17.5-25.8c0.7,4.3,2.4,8.5,5,12
					 c0.7,1,1.6,1.9,2.7,2.3c1.4,0.4,2.9-0.2,4.1-0.9c3.5-2,6.1-5.3,8-8.9c1.9-3.6,3.1-7.4,4.3-11.3c-0.6,1.9-0.1,4.7,0.7,6.4
					 c0.3,0.8,0.8,1.6,1.5,2.1c1.4,1,3.4,0.6,4.7-0.4c5-3.6,4.9-11,6.5-16.4c2.3-7.8,7.8-14.6,15.5-17.5h0.1"/>
				<path class="st2 file-9-element-90" d="M105.7,118.2c0,0-5.2,10.4-7.1-0.7"/>
				<path class="st2 file-9-element-91" d="M90.5,119.1c0,0-5.2,10.4-7.1-0.7"/>
				<path class="st2 file-9-element-92" d="M97.4,130.1c0,0-5.2,10.4-7.1-0.7"/>
				<path class="st2 file-9-element-93" d="M94.5,158.9c0,0-19.9,16.4-7.4-4.9"/>
				<path class="st2 file-9-element-94" d="M78.2,175.8c0,0-19.9,16.4-7.4-4.9"/>
				<path class="st2 file-9-element-95" d="M79.1,156c0,0-15,21.1-8.5-2.8"/>
				<path class="st2 file-9-element-96" d="M66.2,166.6c0,0-15,21.1-8.5-2.8"/>
				<path class="st2 file-9-element-97" d="M60.4,153.3c0,0-15,21.1-8.5-2.8"/>
			</g>
		</g>
	</g>
	<path class="st1 file-9-element-98" d="M96.2,171.2c-3-10.6,19.4-42.7,19.9-43.6c0.9-1.6,3.7-3.9,5.9-4.5"/>
	<path class="st1 file-9-element-99" d="M162.2,171.6c6.1,1.8,16,7.2,18.8-1.4c3.3-10.2-20.1-43-20.5-43.9c-0.9-1.8-3.8-4.4-5.9-4.6   c-0.1,0.2-0.1,0.5-0.2,0.8"/>
	<path class="st1 file-9-element-100" d="M134.7,290c0.2,2.7,0.7,5.5,1.6,8.3c0.1,0.5,0,1.1-0.2,1.6c-0.5,1-1.8,1.2-2.9,1.4c-2.7,0.4-5.3,1.2-7.7,2.4   c-3.8,1.9-7.2,4.8-11.4,5.5c-0.8,0.1-1.8,0.1-2.3-0.6c-0.7-1,0.4-2.4,1.4-3.2c2.9-2.3,5.8-4.5,8.8-6.8c2.1-1.6,4.3-3.4,5.2-5.8   c0.6-1.5,0.6-3.2,0.6-4.8"/>
	<path class="st1 file-9-element-101" d="M155.7,287.8c-0.1,1.6-0.2,3.2,0.3,4.7c0.8,2.5,2.8,4.4,4.8,6.2c2.8,2.5,5.5,4.9,8.2,7.4   c0.9,0.9,2,2.3,1.2,3.3c-0.5,0.7-1.6,0.6-2.4,0.4c-4.1-1-7.3-4.1-11-6.3c-2.3-1.4-4.9-2.4-7.5-2.9c-1.1-0.2-2.4-0.5-2.8-1.6   c-0.2-0.5-0.3-1.1-0.1-1.6c1.2-3.2,1.9-6.4,2.3-9.5"/>
	<path class="st1 file-9-element-102" d="M130.1,120.7c-5.2,1.4-9.6,3.2-9.7,4.2c-0.1,0.8-0.6,12.3-1,25.9"/>
	<path class="st1 file-9-element-103" d="M118.5,174.6c-0.4,12.3-0.7,22.1-0.7,22.1l-4.5,94.8l12.5-3l13.4,2.9c0,0,7.4-4,11.3-4s21.8,3.9,24.3,1.7   L163,180.8c0,0-0.5-3.9-1.3-9.6"/>
	<path class="st1 file-9-element-104" d="M157.7,142.5c-1.5-11-2.8-20-2.8-20s-2-2.4-7-3.5"/>
	<path class="st1 file-9-element-105" d="M130.5,114.5c0,2.2,0,9.9,0,9.9s0.3,0.7,0.8,1.5"/>
	<path class="st1 file-9-element-106" d="M144.3,126.9c1-0.9,2-2,3.1-3.4c0.1-0.1,0.2-0.1,0.1-0.2c0,0-0.9-6.2-1.4-9.1"/>
	<path class="st1 file-9-element-107" d="M141.8,70.7c-1.3,1.3-3.3,2-5.1,1.7c-1.9-0.3-3.6-1.5-4.4-3.1c-3.4,3.2-10.8,5.3-17,6.1   c-1.7,3.7-2.6,7.9-2.6,12.3c0,14.9,10.6,28,24.8,28s24.8-12.1,24.8-27c0-4.6-1-9-2.8-12.9C153.6,75.2,144.9,72.9,141.8,70.7z"/>
	<path class="st1 file-9-element-108" d="M131.4,103c0,0,5.8,3.2,10.9,0"/>
	<path class="st1 file-9-element-109" d="M136.3,82.7c0.6,2.7,0.3,5.6-0.8,8.2c-0.5,1.1-1.1,2.1-0.9,3.3c0.1,1,0.9,1.9,1.9,2.2c1,0.3,2.1-0.1,2.7-0.9"/>
	<path class="st1 file-9-element-110" d="M121.8,89.2c0,0,2.8,6,8.8,0"/>
	<path class="st1 file-9-element-111" d="M143.3,89.2c0,0,2.8,6,8.8,0"/>
	<path class="st1 file-9-element-112" d="M139,155.7c-2.4-3.7-5.9-7.7-10-7.7c-0.4,0-37,12.3-33.1,28.2c1.9,7.7,20.7-1.6,24.1-3.2   c3.4-1.6,22-11.6,22-11.6s-0.3-0.7-0.8-1.8"/>
	<path class="st1 file-9-element-113" d="M119.8,81.6c1.2-1.7,3.1-2.9,5.1-3.3s4.2,0.1,6,1.3"/>
	<path class="st1 file-9-element-114" d="M141.5,80c3.2-2.3,7.9-2.4,11.2-0.3"/>
	<path class="st1 file-9-element-115" d="M133.6,124.3c-0.5-0.5-1.2-0.8-1.9-0.7c-1.2,0.2-2.1,1.5-1.9,2.7c-2.2,2.5-3.3,2.1-2.3,6   c0.7,3,3.9,9.3,6.7,12.5c0,0-1.2,0.9-2.7,2.1"/>
	<path class="st1 file-9-element-116" d="M154.6,142.5c-1.7-2.1-4.2-4.4-4.3-5.9c-0.2-1.7-0.2-3.2-0.8-4.8c-0.2-0.5-1.2-3.7-2.3-4.1s-1.1,2.6-1.6,3.9   c-0.6-2.4-1.9-4.7-3.1-6.9c-0.4-0.7-0.8-1.4-1.3-1.9c-0.6-0.5-1.4-0.8-2.1-0.4c-0.4,0.2-0.7,0.6-0.8,1.1c-0.4-0.8-1.3-1.4-2.2-1.3   c-1.2,0.1-2.2,1.4-2,2.6c-2.1,0.8-3.6,0.9-2.6,5.9c0.7,3.7,4.6,12.1,7.6,14.3c0.7,0.5,2.7,2.2,4.8,3.9"/>
	<g>
		<path class="st1 file-9-element-117" d="M181.3,173.8c-4.8,6.2-18.6-2.4-21.5-4.8S138,157.6,138,157.6s8-18.2,19.6-15.2    C158,142.6,188.1,165,181.3,173.8z"/>
		<path class="st1 file-9-element-118" d="M139.3,167.7"/>
		<path class="st1 file-9-element-119" d="M153.1,149.6"/>
	</g>
	<path class="st1 file-9-element-120" d="M134.4,124.4c0.3,4.6,1.3,10.1,4.5,13.5"/>
	<path class="st1 file-9-element-121" d="M138.1,123.3c0.6,4.5,1.3,8.1,4.3,11.5"/>
	<path class="st1 file-9-element-122" d="M612,95.5c-5.6-7.1-9-16.1-9-25.8c0-22.9,18.6-41.5,41.5-41.5S686,46.8,686,69.7c0,10.1-3.6,19.4-9.6,26.6"/>
	<path class="st1 file-9-element-123" d="M614.3,108.6c-3.3-13.9-2.2-29,3.6-42.1c2.2-5,5.2-9.9,10-12.4s11.7-1.7,14.4,3c3.8-6.2,13.8-5.5,19.2-0.5   s7.3,12.6,8.9,19.7c1.7,7.2,3.4,14.5,5.1,21.7c0.5,2.1,1,4.2,1.4,6.4"/>
	<g>
		<g>
			<g>
				<path class="st1 file-9-element-124" d="M669.3,133.5c-0.2-3.6-0.9-7.3-1.2-11c-0.4-5.1,0.2-10.8,3.8-14.5c4.5-4.6,11.9-4.5,18.2-3
					 c44.9,10.4,60.6,60,67.7,99.9c0.4,2.4,4.9,23.1,0.1,23.6c-8.1,0.8-16.1-20-17.5-25.8c-0.7,4.3-2.4,8.5-5,12
					 c-0.7,1-1.6,1.9-2.7,2.3c-1.4,0.4-2.9-0.1-4.1-0.9c-3.5-2-6.1-5.3-8-8.9s-3.1-7.4-4.2-11.3c0.6,1.9,0,4.7-0.7,6.4
					 c-0.3,0.8-0.8,1.6-1.5,2.1c-1.4,1-3.4,0.6-4.7-0.4c-5-3.6-4.9-11-6.5-16.4c-2.3-7.8-7.8-14.6-15.5-17.5l0,0"/>
				<path class="st3 file-9-element-125" d="M688.7,159.3c0,0,19.9,16.4,7.4-4.9"/>
				<path class="st3 file-9-element-126" d="M704.9,176.1c0,0,19.9,16.4,7.4-4.9"/>
				<path class="st3 file-9-element-127" d="M704,156.4c0,0,15,21.1,8.5-2.8"/>
				<path class="st3 file-9-element-128" d="M716.9,166.9c0,0,15,21.1,8.5-2.8"/>
				<path class="st3 file-9-element-129" d="M722.8,153.6c0,0,15,21.1,8.5-2.8"/>
			</g>
			<g>
				<path class="st1 file-9-element-130" d="M620.3,130.6c0.2-1.8,0.5-3.5,0.6-5.2c0.4-5.1-0.2-10.8-3.8-14.5c-4.5-4.6-11.9-4.5-18.2-3
					 c-24.5,5.7-40.3,23-50.8,44.1"/>
				<path class="st1 file-9-element-131" d="M533.7,195c-1,4.3-1.8,8.6-2.5,12.8c-0.4,2.4-4.9,23.1-0.1,23.6c8.1,0.8,16.1-20,17.5-25.8
					 c0.7,4.3,2.4,8.5,5,12c0.7,1,1.6,1.9,2.7,2.3c1.4,0.4,2.9-0.1,4.1-0.9c3.5-2,6.1-5.3,8-8.9s3.1-7.4,4.2-11.3
					 c-0.6,1.9,0,4.7,0.7,6.4c0.3,0.8,0.8,1.6,1.5,2.1c1.4,1,3.4,0.6,4.7-0.4c4.2-3.1,4.8-8.8,5.8-13.7"/>
				<path class="st1 file-9-element-132" d="M590.5,181.1c2.6-2.7,7.7-6.8,11-8c0.2-0.1,0.4-0.1,0.6-0.2"/>
				<path class="st3 file-9-element-133" d="M611.6,121.3c0,0-5.2,10.4-7.1-0.7"/>
				<path class="st3 file-9-element-134" d="M596.4,122.2c0,0-5.2,10.4-7.1-0.7"/>
				<path class="st3 file-9-element-135" d="M603.3,133.2c0,0-5.2,10.4-7.1-0.7"/>
			</g>
		</g>
		<g>
			<g>
				<path class="st2 file-9-element-136" d="M669.3,133.5c-0.2-3.6-0.9-7.3-1.2-11c-0.4-5.1,0.2-10.8,3.8-14.5c4.5-4.6,11.9-4.5,18.2-3
					 c44.9,10.4,60.6,60,67.7,99.9c0.4,2.4,4.9,23.1,0.1,23.6c-8.1,0.8-16.1-20-17.5-25.8c-0.7,4.3-2.4,8.5-5,12
					 c-0.7,1-1.6,1.9-2.7,2.3c-1.4,0.4-2.9-0.1-4.1-0.9c-3.5-2-6.1-5.3-8-8.9s-3.1-7.4-4.2-11.3c0.6,1.9,0,4.7-0.7,6.4
					 c-0.3,0.8-0.8,1.6-1.5,2.1c-1.4,1-3.4,0.6-4.7-0.4c-5-3.6-4.9-11-6.5-16.4c-2.3-7.8-7.8-14.6-15.5-17.5l0,0"/>
				<path class="st2 file-9-element-137" d="M688.7,159.3c0,0,19.9,16.4,7.4-4.9"/>
				<path class="st2 file-9-element-138" d="M704.9,176.1c0,0,19.9,16.4,7.4-4.9"/>
				<path class="st2 file-9-element-139" d="M704,156.4c0,0,15,21.1,8.5-2.8"/>
				<path class="st2 file-9-element-140" d="M716.9,166.9c0,0,15,21.1,8.5-2.8"/>
				<path class="st2 file-9-element-141" d="M722.8,153.6c0,0,15,21.1,8.5-2.8"/>
			</g>
			<g>
				<path class="st2 file-9-element-142" d="M620.3,130.6c0.2-1.8,0.5-3.5,0.6-5.2c0.4-5.1-0.2-10.8-3.8-14.5c-4.5-4.6-11.9-4.5-18.2-3
					 c-24.5,5.7-40.3,23-50.8,44.1"/>
				<path class="st2 file-9-element-143" d="M533.7,195c-1,4.3-1.8,8.6-2.5,12.8c-0.4,2.4-4.9,23.1-0.1,23.6c8.1,0.8,16.1-20,17.5-25.8
					 c0.7,4.3,2.4,8.5,5,12c0.7,1,1.6,1.9,2.7,2.3c1.4,0.4,2.9-0.1,4.1-0.9c3.5-2,6.1-5.3,8-8.9s3.1-7.4,4.2-11.3
					 c-0.6,1.9,0,4.7,0.7,6.4c0.3,0.8,0.8,1.6,1.5,2.1c1.4,1,3.4,0.6,4.7-0.4c4.2-3.1,4.8-8.8,5.8-13.7"/>
				<path class="st2 file-9-element-144" d="M590.5,181.1c2.6-2.7,7.7-6.8,11-8c0.2-0.1,0.4-0.1,0.6-0.2"/>
				<path class="st2 file-9-element-145" d="M611.6,121.3c0,0-5.2,10.4-7.1-0.7"/>
				<path class="st2 file-9-element-146" d="M596.4,122.2c0,0-5.2,10.4-7.1-0.7"/>
				<path class="st2 file-9-element-147" d="M603.3,133.2c0,0-5.2,10.4-7.1-0.7"/>
			</g>
		</g>
	</g>
	<path class="st1 file-9-element-148" d="M601.9,173.6c-1.9-11.3,19.5-41.9,20-42.9c1-1.8,4.2-4.3,6.5-4.6"/>
	<path class="st1 file-9-element-149" d="M687.1,170.2c-0.9-12.6-20.4-39.9-20.8-40.8c-0.9-1.8-3.8-4.4-5.8-4.6"/>
	<path class="st1 file-9-element-150" d="M641.2,294c0.5,2,1.1,3.9,2,5.9c0.2,0.5,0.2,1.1,0,1.6c-0.4,1.1-1.7,1.4-2.8,1.7c-2.6,0.7-5.1,1.8-7.4,3.2   c-3.5,2.3-6.6,5.6-10.7,6.7c-0.8,0.2-1.8,0.3-2.4-0.3c-0.8-1,0.1-2.4,1-3.3c2.6-2.6,5.3-5.1,7.9-7.7c1.9-1.8,3.9-3.8,4.5-6.4   c0.3-1.1,0.3-2.4,0.2-3.5"/>
	<path class="st1 file-9-element-151" d="M656.5,291.4c-0.4,1.6-0.7,3.2-0.8,4.8c-0.2,1.7-0.3,3.5,0.1,5.1c0.7,2.5,2.7,4.5,4.7,6.3   c2.7,2.5,5.4,5,8.1,7.5c0.9,0.9,1.9,2.3,1.1,3.3c-0.5,0.6-1.6,0.6-2.4,0.4c-4.1-1-7.2-4.3-10.8-6.5c-2.3-1.4-4.8-2.5-7.4-3.1   c-1.1-0.3-2.4-0.6-2.8-1.6c-0.2-0.5-0.3-1.1-0.1-1.6c1.9-4.7,2.7-9.1,3-13.6"/>
	<path class="st1 file-9-element-152" d="M635.8,123.9c-5.2,1.4-9.4,3.2-9.6,4.1c-0.1,0.8-0.6,12.5-1,26.3"/>
	<path class="st1 file-9-element-153" d="M624.5,177.1c-0.4,12.6-0.7,22.7-0.7,22.7l-4.5,94.8l12.5-3l13.4,2.9c0,0,7.4-4,11.3-4s21.8,3.9,24.3,1.7   L669,183.9c0,0-0.5-3.8-1.3-9.4"/>
	<path class="st1 file-9-element-154" d="M663.6,145.8c-1.5-11-2.8-20.1-2.8-20.1s-2.2-2.6-7.6-3.6"/>
	<path class="st1 file-9-element-155" d="M650.8,129.4c0.8-0.8,1.6-1.7,2.5-2.8c0.2-0.1,0.2-0.1,0.1-0.2l-1.6-10.4c-2.9,1.1-6.1,1.7-9.4,1.7   c-2.1,0-4.1-0.2-6-0.7v10.5"/>
	<path class="st1 file-9-element-156" d="M652.2,65.6L652.2,65.6c-3.1,6.2-21.4,10.8-29.3,12.5c-1.5,3.8-2.3,8.1-2.3,12.7c0,14.9,8.5,27,22.8,27   s22.8-12.1,22.8-27c0-3.6-0.5-7-1.5-10.2C657.5,81.3,652.5,67.1,652.2,65.6z"/>
	<path class="st1 file-9-element-157" d="M637.3,108.1c0,0,5.8,3.2,10.9,0"/>
	<path class="st1 file-9-element-158" d="M627.7,92.4c0,0,2.8,6,8.8,0"/>
	<path class="st1 file-9-element-159" d="M649.2,92.4c0,0,2.8,6,8.8,0"/>
	<path class="st1 file-9-element-160" d="M644.8,158.8c-2.3-3.6-5.9-7.7-10-7.7c-0.4,0-37,12.3-33.1,28.2c1.9,7.7,20.7-1.6,24.1-3.2s22-11.6,22-11.6   s-0.3-0.6-0.8-1.6"/>
	<path class="st1 file-9-element-161" d="M625.7,84.7c1.2-1.7,3.1-2.9,5.1-3.3s4.2,0.1,6,1.3"/>
	<path class="st1 file-9-element-162" d="M647.4,83.1c3.2-2.3,7.8-2.4,11.2-0.3"/>
	<path class="st1 file-9-element-163" d="M639.9,127.9c-0.5-0.8-1.4-1.3-2.3-1.2c-1.2,0.2-2.1,1.5-1.8,2.7c-2.2,2.5-3.3,2.1-2.3,6.1   c0.7,3,3.9,9.3,6.7,12.5c0,0-1.2,0.9-2.7,2.1"/>
	<path class="st1 file-9-element-164" d="M659.8,144.8c-1.6-1.9-3.6-3.8-3.7-5.1c-0.2-1.7-0.2-3.2-0.8-4.8c-0.2-0.5-1.2-3.7-2.3-4.1s-1.1,2.6-1.6,3.9   c-0.6-2.4-1.9-4.7-3.1-6.9c-0.4-0.7-0.8-1.4-1.3-1.9c-0.6-0.5-1.5-0.8-2.2-0.4c-0.4,0.2-0.7,0.6-0.8,1.1c-0.4-0.8-1.3-1.4-2.2-1.3   c-1.2,0.1-2.2,1.4-2,2.6c-2.2,0.8-3.6,0.9-2.7,5.9c0.7,3.7,4.6,12.1,7.6,14.3c0.6,0.5,2.2,1.8,4,3.2"/>
	<g>
		<path class="st1 file-9-element-165" d="M687.2,176.9c-4.8,6.2-18.6-2.4-21.5-4.8c-2.8-2.4-21.8-11.3-21.8-11.3s8-18.2,19.6-15.2    C663.9,145.7,694,168.1,687.2,176.9z"/>
		<path class="st1 file-9-element-166" d="M645.2,170.8"/>
		<path class="st1 file-9-element-167" d="M659,152.8"/>
	</g>
	<path class="st1 file-9-element-168" d="M643.2,87.7c-1.3,3.6-2.7,7.1-4,10.7c2.2,1,4.7,1.4,7.1,1.4"/>
	<path class="st1 file-9-element-169" d="M639.8,127.9c0.1,4.1,1.8,8.2,4.8,11.1"/>
	<path class="st1 file-9-element-170" d="M644,125.9c-0.1,3.5,1.1,7.1,3.3,9.8"/>
	<path class="st1 file-9-element-171" d="M303.7,193.1c8.4,0,16.6,0,24.3,0"/>
	<path class="st1 file-9-element-172" d="M375.9,466.5c0,48.4,0,83.7,0,83.7h40.2c0,0,0-63.6,0-137.1"/>
	<path class="st1 file-9-element-173" d="M431.5,193.1c12,0,54.8,0,54.8,0"/>
	<path class="st1 file-9-element-174" d="M539.2,193.1c28.7,0,51,0,51,0v-40.2c0,0-115.5,0-158.3,0"/>
	<path class="st1 file-9-element-175" d="M416.1,106.2c0-35,0-76.9,0-76.9h-40.2c0,0,0,25.1,0,52.7"/>
	<path class="st1 file-9-element-176" d="M307.4,152.9c-48.7,0-105.6,0-105.6,0v40.2c0,0,22,0,50.4,0"/>
	<rect x="348.2" y="550.4" class="st1 file-9-element-177" width="95.5" height="12.6"/>
	<rect x="322.1" y="563.7" class="st1 file-9-element-178" width="147.8" height="34.7"/>
	<path class="st1 file-9-element-179" d="M324.4,184.6c-10.5-10.9-17-25.7-17-42c0-33.4,27-60.4,60.4-60.4s60.4,27.1,60.4,60.4c0,0.3,0,1.6,0,1.9"/>
	<path class="st1 file-9-element-180" d="M391.8,426.3c0.8-5.7,1.8-11.7,4.1-16.4c0.3-0.6,0-3.5-0.6-7.1"/>
	<path class="st1 file-9-element-181" d="M414.6,412.4c0.4,8.3,3.1,17,0.1,24.8c-3.5,9-9.8,34-11.5,39.9c-1.8,5.8-2.7,38.9-2.2,42.1   c0.4,2.4,0.7,6.8-1,9"/>
	<path class="st1 file-9-element-182" d="M367.4,407.7c0,1.1,0.2,2,0.5,2.6c5.5,11-2.6,24.7,1.9,36.3c3.5,9,9.8,34,11.5,39.9c1.8,5.8,2.7,38.9,2.2,42.1   c-0.5,3.2-0.9,9.5,3.1,10.3s3.8,3.3,8.6,3c4.8-0.3,2.3,1.6,4.8-0.3c2.5-1.9-3.2-34.9-3.6-39s0.5-9.7-2-11.6s-0.2-31.9,0-34.6   c0.9-10.4-1.3-27.7-6-37.2c-0.5-1,0.6-8.1,1.8-14.3"/>
	<g>
		<g>
			<g>
				<path class="st1 file-9-element-183" d="M299.7,213.7c0,0-57.3-25.3-61.8-27.2"/>
				<path class="st1 file-9-element-184" d="M243.9,177.5c16.6,4.4,63.5,16.6,63.5,16.6"/>
				<g>
					<path class="st4 file-9-element-185" d="M217.9,180.2c-2.8-1-11.5-8.6-10.6-9.6s11.2,5.9,11.2,5.9L217.9,180.2z"/>
					<path class="st4 file-9-element-186" d="M219.3,177c-2.8-1-16-11-15.2-12c0.9-1,15.8,8.3,15.8,8.3L219.3,177z"/>
					<path class="st4 file-9-element-187" d="M219.5,173.3c-2.8-1-13.5-9.4-12.6-10.4s13.2,6.7,13.2,6.7L219.5,173.3z"/>
					<path class="st4 file-9-element-188" d="M220.2,169.7c-2.2-0.8-10.5-8-9.8-8.8s10,5,10,5L220.2,169.7z"/>
					<path class="st1 file-9-element-189" d="M217.9,180.2c-2.9-1.1-11.5-8.3-10.6-9.3c0.9-0.9,10.5,5.1,11.3,5.6"/>
					<path class="st1 file-9-element-190" d="M218,176.3c-3.6-1.7-14.7-10.3-13.9-11.3c0.8-0.9,13.9,7.2,15.6,8.2"/>
					<path class="st1 file-9-element-191" d="M219.5,173.3c-2.8-1-13.5-9.4-12.6-10.4s13.2,6.7,13.2,6.7l1.8,0.5"/>
					<path class="st1 file-9-element-192" d="M221.1,169.9c-2.2-0.8-11.4-8.2-10.7-9s12,5.2,12,5.2"/>
				</g>
				<g>
					<g>
						<path class="st5 file-9-element-193" d="M242.8,176.4c0.2-0.1,0.4-0.1,0.6-0.2c0,0-0.1-5-5.1-8.1c-3.2-1.9-5.7-6.9-6.6-6.5s-1.5,3.6-0.7,4.6
					   c0.3,0.4,1.2,2.2,2.5,4.2"/>
					</g>
					<g>
						<path class="st1 file-9-element-194" d="M242.8,176.4c0.2-0.1,0.4-0.1,0.6-0.2c0,0-0.1-5-5.1-8.1c-3.2-1.9-5.7-6.9-6.6-6.5s-1.5,3.6-0.7,4.6
					   c0.3,0.4,1.2,2.2,2.5,4.2"/>
					</g>
				</g>
				<g>
					<path class="st4 file-9-element-195" d="M216.8,179.5c4.8,4.4,18.1,9.5,21.8,7.2c1-0.6,4.4-5.2,5.1-6.7c1.6-3.4-0.4-5.6-3.4-6.9
					  c-7.8-3.4-17.8-6.9-17.8-6.9L216.8,179.5z"/>
					<path class="st1 file-9-element-196" d="M215.8,179c4.4,4.1,17.3,9.3,21.9,8.1"/>
					<path class="st1 file-9-element-197" d="M232.9,170.1c-5.6-2.2-10.5-3.9-10.5-3.9"/>
				</g>
			</g>
			<path class="st1 file-9-element-198" d="M307.4,194.1c0,0,43.5,9.4,63.1,16.6"/>
			<path class="st1 file-9-element-199" d="M359.4,233.6c-10.6,0.8-28.8-3.6-59.7-19.9"/>
			<g>
				<g>
					<path class="st1 file-9-element-200" d="M491.5,213.7c0,0,52-22.9,60.8-26.8"/>
					<path class="st1 file-9-element-201" d="M547.9,177.2c-17.9,4.7-64.1,17-64.1,17"/>
					<g>
						<path class="st4 file-9-element-202" d="M573.3,180.2c2.8-1,11.5-8.6,10.6-9.6s-11.2,5.9-11.2,5.9L573.3,180.2z"/>
						<path class="st4 file-9-element-203" d="M571.9,177c2.8-1,16-11,15.2-12s-15.8,8.3-15.8,8.3L571.9,177z"/>
						<path class="st4 file-9-element-204" d="M571.7,173.3c2.8-1,13.5-9.4,12.6-10.4s-13.2,6.7-13.2,6.7L571.7,173.3z"/>
						<path class="st4 file-9-element-205" d="M571,169.7c2.2-0.8,10.5-8,9.8-8.8s-10,5-10,5L571,169.7z"/>
						<path class="st1 file-9-element-206" d="M573.3,180.2c2.9-1.1,11.5-8.3,10.6-9.3c-0.8-0.9-10.5,5.1-11.3,5.6"/>
						<path class="st1 file-9-element-207" d="M573.2,176.3c3.6-1.7,14.7-10.3,13.9-11.3c-0.8-0.9-13.9,7.2-15.6,8.2"/>
						<path class="st1 file-9-element-208" d="M571.7,173.3c2.8-1,13.5-9.4,12.6-10.4s-13.2,6.7-13.2,6.7l-1.8,0.5"/>
						<path class="st1 file-9-element-209" d="M570.1,169.9c2.2-0.8,11.4-8.2,10.7-9s-12,5.2-12,5.2"/>
					</g>
					<g>
						<g>
							<path class="st5 file-9-element-210" d="M547.8,175.9c0.1-1.1,0.8-5.2,5.1-7.9c3.2-1.9,5.7-6.9,6.7-6.5s1.5,3.6,0.7,4.6
					    c-0.2,0.2-0.6,1.1-1.3,2.2"/>
						</g>
						<g>
							<path class="st1 file-9-element-211" d="M547.8,175.9c0.1-1.1,0.8-5.2,5.1-7.9c3.2-1.9,5.7-6.9,6.7-6.5s1.5,3.6,0.7,4.6
					    c-0.2,0.2-0.6,1.1-1.3,2.2"/>
						</g>
					</g>
					<g>
						<path class="st4 file-9-element-212" d="M574.5,179.5c-4.8,4.4-18.2,9.5-21.8,7.2c-1-0.6-4.4-5.2-5.1-6.7c-1.6-3.4,0.4-5.6,3.4-6.9
					   c8.2-3.5,8.1-3.5,17.8-6.9L574.5,179.5z"/>
						<path class="st1 file-9-element-213" d="M575.4,179c-4.8,4.4-19.1,10-22.8,7.7"/>
						<path class="st1 file-9-element-214" d="M560.9,169.1c4.4-1.7,7.9-2.9,7.9-2.9"/>
					</g>
				</g>
				<path class="st1 file-9-element-215" d="M483.8,194.1c0,0-32.5,9.5-52,17.1"/>
				<path class="st1 file-9-element-216" d="M434.6,235c11,0.6,28.6-4.3,57-21.3"/>
			</g>
			<path class="st4 file-9-element-217" d="M370.1,335.3l65.2,0.6c-0.6-12.3-1.7-125.7-1.7-125.7s-13.8-3.4-27.1-3.8c-13.3-0.4-48.2,2.2-48.7,5.4
					C357.3,214.8,369.4,319,370.1,335.3"/>
			<path class="st1 file-9-element-218" d="M353.6,385.9c-2.2,6.7-3.7,11.3-3.7,11.3s14.4,15.3,31.6,10.1c17.2-5.3,17.2-5.3,17.2-5.3
					s12.1,11.1,18.7,11.1s8.4,8.7,12.5,5c0,0,16.2-54.6,13.9-74.3c-1.4-11.6-9.3-44.2-9.3-44.2s-33.9,9.1-54.2,9.7"/>
		</g>
	</g>
	<path class="st1 file-9-element-219" d="M356.5,313.8c0,0-14.6,44.9-8.9,69.1c0,0,22.6,13.9,29.1,7.6s4.1-82.4,4.1-82.4S360.4,297.8,356.5,313.8z"/>
	<path class="st1 file-9-element-220" d="M387.5,323c7.9,0.4,15.8,0.8,23.6-0.3s15.6-3.9,21.5-9.1"/>
	<path class="st1 file-9-element-221" d="M436.8,323.1c-2.6,7.4-9.8,12.4-17.4,14.5s-15.6,1.6-23.4,1.2"/>
	<path class="st1 file-9-element-222" d="M387.2,350.3c16.5,7,36.6,4.8,51.1-5.7"/>
	<path class="st1 file-9-element-223" d="M357.8,396.1c27.5,3.6,56.3-8.3,75.8-31.3"/>
	<path class="st1 file-9-element-224" d="M385.5,379.8c15.7,0,39.8-18,51.3-25.5"/>
	<path class="st1 file-9-element-225" d="M436,375.8c-7.6,10.4-18.4,18.5-30.5,22.8"/>
	<path class="st1 file-9-element-226" d="M367.9,309.9c-2.3,0-4.4,1.4-5.6,3.3s-1.8,4.1-2.3,6.4c-1.2,5.9-1.9,12-2,18"/>
	<path class="st1 file-9-element-227" d="M375.8,310.7c-5.3,4.8-6.9,12.4-7.9,19.4c-2.2,14.4-3.7,28.9-4.4,43.4"/>
	<path class="st1 file-9-element-228" d="M413,216.7c-0.4-2.8-1-8.3-1.5-12.6"/>
	<path class="st1 file-9-element-229" d="M384.8,216.5c0.2,2.1,0.3,4.1,0.4,5.4"/>
	<g>
		<g>
			<g>
				<path class="st1 file-9-element-230" d="M416.1,206.3c4.7-2.6,15.8-13.5,23.3-22.3c7.9-9.3-6.1-21.4-8.7-30.2c-2.6-8.7-6.7-17.4-13.7-23.2
					 c-6.2-5.2-14.3-7.7-21-12.3c-3.6-2.6-6.9-5.8-11.1-7.2c-3.9-1.3-8.1-0.8-12-0.1c-8.6,1.6-16.9,4.3-24.8,8.1
					 c-5,2.4-10.1,5.5-12.7,10.4c-2.9,5.6-2.2,12.3-3.1,18.5c-1.4,9.5-5.9,18.3-7.3,27.8c-1.5,9.9,2.7,17.2,7.7,24"/>
				<g>
					<path class="st4 file-9-element-231" d="M414.7,153.9c8.4,20.5-0.4,43.9-20.9,52.3s-40.4-4.1-48.8-24.5c-8.4-20.5-3.9-44.2,16.5-52.6
					  C382,120.7,406.3,133.5,414.7,153.9z"/>
				</g>
				<path class="st1 file-9-element-232" d="M382.8,186.6c1.7-0.3,4.1-0.9,5.9-2.1"/>
				<path class="st1 file-9-element-233" d="M372.5,155.2c2.4,3.4,3.6,7.6,3.5,11.7c0,1.7-0.3,3.5,0.6,5c0.7,1.3,2.3,2.1,3.8,1.9s2.8-1.3,3.2-2.8"/>
				<path class="st1 file-9-element-234" d="M414.2,143.8c0.8-1.1,2-1.8,3.8-0.7c2.9,1.8,2.4,7.3,0.7,10.8"/>
				<path class="st1 file-9-element-235" d="M338.9,173.9c-1.7-0.3-3.8,0-4.4,2.8c0.8-3.3-2.9,10.5,9,9.4"/>
				<path class="st1 file-9-element-236" d="M371.9,189.6c-0.8-0.2-1.7-0.4-2.5-0.6c-5.3-1.4-10.5-3.3-15.5-5.6c-4.9-2.3-6.8-4.7-7.6-9.9
					 c-0.2-1-0.5-1.8-1-2.4"/>
				<path class="st1 file-9-element-237" d="M339.1,174.3c3.1,10.4,7.7,20.4,16.5,27.4c6,4.7,13,8.2,20,11.6c4.9,2.4,22.6,8,24.4,6.5
					 c2.4-0.2,13-17.4,14.8-22.6c2.5-7.3,5.1-14.7,6-22.3c1.3-10.7-6.7-31.1-7-31.7c-0.9-1.9-1.9-3.7-3.1-5.4"/>
				<path class="st1 file-9-element-238" d="M400.7,136.9c0,0.1,0.1,0.2,0.1,0.3c4.1,7.4,11.6,14.5,8.3,23.5c-1.9,5.1-5.4,12-8.2,16.8"/>
				<path class="st1 file-9-element-239" d="M394.8,185c-0.1,0.1-0.2,0.2-0.4,0.3c-1.8,1.6-3.9,2.8-6,3.6c-2.1,0.9-4.4,1.5-6.8,1.6c-0.3,0-0.6,0-0.9,0"/>
				<g>
					<g>
						<path class="st1 file-9-element-240" d="M402.1,179c0,0-18-4.5-19.4-3.1S392.3,193.5,402.1,179z"/>
					</g>
					<g>
						<path class="st1 file-9-element-241" d="M370.5,193.1c0,0,9.7-16.2,11.7-16.1C384.2,177,386,196.5,370.5,193.1z"/>
					</g>
				</g>
			</g>
		</g>
		<path class="st2 file-9-element-242" d="M352.1,169.5c4.6,1.7,10.2,0.3,13.6-3.3"/>
		<path class="st2 file-9-element-243" d="M385.2,155.4c4.5,1.1,9.6-0.2,13.1-3.2"/>
		<path class="st2 file-9-element-244" d="M380.1,146.9c1.5-2.7,4.2-4.6,7.1-5.4c3-0.8,6.2-0.2,8.8,1.4"/>
		<path class="st2 file-9-element-245" d="M357.1,154.7c2.1,0,4.2,0.6,6,1.7"/>
		<g>
			<path class="st4 file-9-element-246" d="M334.5,174.8c0.2,1.1,26.2-8.8,28.9-42.6c0,0,40.6,10.1,48.1,4.4c0,0-14.9-20.5-28.9-17.9s-31.8,5.8-38.1,13
					C338.2,138.9,333.5,170.2,334.5,174.8z"/>
		</g>
		<path class="st2 file-9-element-247" d="M345.8,170c7.4-6.9,16.1-19,17.6-37.9c0,0,22,5.1,37,5.6"/>
	</g>
	<path class="st1 file-9-element-248" d="M434.5,299c-0.3-20.8-0.6-46-0.8-64.2"/>
	<path class="st1 file-9-element-249" d="M433.5,210.3C433.5,210.2,433.5,210.2,433.5,210.3c0-0.1-13.3-2.9-20.7-4"/>
	<path class="st1 file-9-element-250" d="M359.1,233.4c2.1,19.6,6,50.6,8.2,71.7"/>
	<path d="M233.4,176.3c-0.1-0.2-0.2-0.4-0.4-0.5c-0.1-0.2-0.3-0.3-0.5-0.4c-0.1-0.1-0.2-0.1-0.2-0.1c-0.4-0.2-0.8-0.3-1.3-0.3   c-0.1,0-0.1,0-0.1,0c-0.2,0-0.4,0-0.5,0.1c-0.1,0-0.2,0.1-0.3,0.1s-0.2,0.1-0.3,0.1c-0.3,0.2-0.5,0.4-0.7,0.7   c-0.1,0.1-0.1,0.2-0.1,0.3c-0.1,0.1-0.1,0.2-0.1,0.3c0,0.2-0.1,0.4,0,0.6c0,0,0,0-0.1,0.1c-0.2,0.2-0.3,0.4-0.4,0.7   c-0.1,0.2-0.1,0.4,0,0.6c0,0.2,0.1,0.4,0.2,0.6c0.1,0.2,0.3,0.4,0.5,0.5s0.4,0.2,0.6,0.3c0.1,0,0.2,0.1,0.3,0.1   c0.2,0,0.5,0.1,0.7,0.1s0.5,0,0.7-0.1c0.1,0,0.2-0.1,0.3-0.1c0.2-0.1,0.4-0.2,0.6-0.3c0.2-0.1,0.4-0.3,0.5-0.4   c0.1-0.1,0.2-0.3,0.3-0.4c0-0.1,0.1-0.1,0.1-0.1c0.1-0.2,0.2-0.4,0.2-0.6c0-0.2,0.1-0.4,0.1-0.7   C233.7,176.9,233.6,176.7,233.4,176.3z" class="undefined file-9-element-251"/>
	<path d="M394.7,525.2c-0.1-0.2-0.2-0.4-0.4-0.5c-0.1-0.2-0.3-0.3-0.5-0.4c-0.1,0-0.2-0.1-0.2-0.1c-0.4-0.2-0.8-0.3-1.3-0.3h-0.1   c-0.2,0-0.4,0-0.5,0.1c-0.1,0-0.2,0.1-0.3,0.1c-0.1,0-0.2,0.1-0.3,0.1c-0.3,0.2-0.5,0.4-0.7,0.7c-0.1,0.1-0.1,0.2-0.1,0.3   s-0.1,0.2-0.1,0.3c0,0.2,0,0.4,0,0.6l0,0c-0.2,0.2-0.3,0.4-0.4,0.7c-0.1,0.2-0.1,0.4,0,0.6c0,0.2,0.1,0.4,0.2,0.6   c0.1,0.2,0.3,0.4,0.5,0.5s0.4,0.2,0.6,0.3c0.1,0,0.2,0.1,0.3,0.1c0.2,0,0.5,0.1,0.7,0.1s0.5,0,0.7-0.1c0.1,0,0.2-0.1,0.3-0.1   c0.2-0.1,0.4-0.2,0.6-0.3s0.4-0.3,0.5-0.4c0.1-0.1,0.2-0.3,0.3-0.4c0,0,0.1-0.1,0.1-0.2c0.1-0.2,0.2-0.4,0.2-0.7   c0-0.2,0.1-0.5,0.1-0.7C394.9,525.8,394.9,525.6,394.7,525.2z" class="undefined file-9-element-252"/>
	<path d="M563.1,176.3c-0.1-0.2-0.2-0.4-0.4-0.5c-0.1-0.2-0.3-0.3-0.5-0.4c-0.1-0.1-0.2-0.1-0.2-0.1c-0.4-0.2-0.8-0.3-1.3-0.3   c0,0-0.1,0-0.2,0c-0.2,0-0.4,0-0.5,0.1c-0.1,0-0.2,0.1-0.3,0.1s-0.2,0.1-0.3,0.1c-0.3,0.2-0.5,0.4-0.7,0.7   c-0.1,0.1-0.1,0.2-0.1,0.3s-0.1,0.2-0.1,0.3c0,0.2,0,0.4,0,0.6c0,0,0,0,0,0.1c-0.2,0.2-0.3,0.4-0.4,0.7c-0.1,0.2-0.1,0.4,0,0.6   c0,0.2,0.1,0.4,0.2,0.6c0.1,0.2,0.3,0.4,0.5,0.5s0.4,0.2,0.6,0.3c0.1,0,0.2,0.1,0.3,0.1c0.2,0,0.5,0.1,0.7,0.1s0.5,0,0.7-0.1   c0.1,0,0.2-0.1,0.3-0.1c0.2-0.1,0.4-0.2,0.6-0.3c0.2-0.1,0.4-0.3,0.5-0.4c0.1-0.1,0.2-0.3,0.3-0.4c0-0.1,0.1-0.1,0.1-0.1   c0.1-0.2,0.2-0.4,0.2-0.6c0-0.2,0.1-0.4,0.1-0.7C563.3,176.9,563.3,176.7,563.1,176.3z" class="undefined file-9-element-253"/>
	<g>
		<g>
			<path class="st1 file-9-element-254" d="M569.8,410c-5.9,5.9-11.8,12.8-17.2,19.2"/>
			<path class="st1 file-9-element-255" d="M544,463.4c4.8,0.3,10.2-1.9,10.2-1.9s33.3-26.3,43.2-47.2"/>
			<g>
				<path class="st1 file-9-element-256" d="M510.6,415.9c-0.8,0.7-2.5,2.4-3.2,3.1c-6.4,6.6-5.6,12.6-5.6,12.6l40.4,31.6"/>
			</g>
		</g>
		<g>
			<path class="st1 file-9-element-257" d="M645.6,530.6c0,0,5.9-5.1,7.2-1.5s3.1,9.7,3.7,10.8c0.2,0.4,1.9,2.2,4.1,4.6"/>
			<path class="st1 file-9-element-258" d="M657.2,546.2c-0.2-0.3-0.4-0.5-0.6-0.8c-2.5-3.3-4.4-7-5.7-10.8c-0.5-1.6-1.2-3.6-2.9-4
					c-0.8-0.2-1.7-0.2-2.4,0.1c-1.3,0.7-2.6,1.2-3.8,1.8"/>
		</g>
		<g>
			<path class="st1 file-9-element-259" d="M663.4,543.2L663.4,543.2c0,0,5.7-5.3,7.2-1.7c1.4,3.6,3.4,9.6,4,10.7s13.2,12.8,15.4,19.5
					c2.1,6.6-1.5,9.3-5.1,6.5"/>
			<path class="st1 file-9-element-260" d="M668.1,564.4c0.1,0.1,0.2,0.1,0.2,0.2c4.3,3.6,8.6,7.3,12.9,10.9c1.5,1.3,3.8,2.5,5.2,1.1
					c0.9-0.9,0.6-2.5,0.2-3.7c-2.3-6-7.7-10.2-11.8-15.3c-2.5-3.2-4.6-6.8-6-10.7c-0.6-1.6-1.3-3.5-3-4c-0.8-0.2-1.7-0.2-2.4,0.2
					c-2.3,1.2-5.6,2.3-7.9,3.2"/>
			<path class="st1 file-9-element-261" d="M668,564.1c0.7,0.7,2,2,2,2l4.3,3.6c0,0,0.5-7,6.2-5.6l-5.8-6.5C674.7,557.7,667.9,560.2,668,564.1z"/>
		</g>
		<path class="st1 file-9-element-262" d="M559.6,399c-3,5.7-5.6,10.7-5.6,10.7c-2.4,4.6-4.1,9.9-2.9,14.9"/>
		<path class="st1 file-9-element-263" d="M553.8,462c-3,6.8-13.4,29.8-16.9,35.4c-5.1,8-10.9,15.6-15.4,24s-7.6,17.8-6.9,27.3s6.1,19,14.8,22.9    c3.9,1.8,8.3,2.3,12.5,2.8c42.2,4.7,84.9,4.3,127-1.2c0.3-10-6.8-18.8-14.5-25.3c-3.3-2.8-6.9-5.5-9.2-9.3    c-1.3-2.1-2.1-4.4-3.3-6.4c-1.8-3-4.3-5.3-6.7-7.8c-5.5-6-9.6-13-13.6-20c-4.3-20.6-9.7-37.8-16.2-45c-0.8-1,1.7-6.2,1.4-29.4"/>
		<path class="st1 file-9-element-264" d="M566.7,373.2c-3,7-12.1,25.8-12.1,25.8s3.1,0,7.6-0.7"/>
		<path class="st1 file-9-element-265" d="M554.2,376.4c-2.4-0.3-4.6-1.3-6.4-3.3l-9.6-10.8c0,0-12.7,4.6-8.9-6.4l0.7-12.8c0,0-6.2-8.9-7.5-20"/>
		<g>
			<g>
				<path class="st6 file-9-element-266" d="M542.5,336.5l-6.7,3.1c0,0-2.1-1.8-2.3-5.3"/>
			</g>
			<g>
				<path class="st1 file-9-element-267" d="M542.5,336.5l-6.7,3.1c0,0-2.1-1.8-2.3-5.3"/>
			</g>
		</g>
		<path class="st1 file-9-element-268" d="M520.3,314.9c-1.4,4.7-2.3,8.5-2.3,8.5s13.7-2.7,19.2-1.9c3.3,0.5,11.2,0.8,17.3,1.8"/>
		<path class="st1 file-9-element-269" d="M567.5,352.4c-4.8,13.2-12.9,25.1-12.9,25.1c1.7,1.5,7.1-0.8,11.2-2.8"/>
		<line class="st1 file-9-element-270" x1="543.7" y1="366.8" x2="551.5" y2="360"/>
		<g>
			<path class="st1 file-9-element-271" d="M552.5,430.1c-5.2-10.6-10.4-21.4-13.4-27.4c-8.8,2.9-18.3,6-25.5,11.8s-7.2,11.8-7.2,11.8l36.1,36.5"/>
		</g>
		<g>
			<path class="st1 file-9-element-272" d="M564.3,328.6c6.5,29.2,2.2,51.6-4.5,83.7c9.6-7.1,12,2.6,27.9-4.7c10.4-4.7,13.5,24.8,22.2,23.3
					c-0.2,0-0.5-33.5-0.5-35.9c-0.1-19.4-0.1-38.4-4.9-57.4c-4-15.9-7.7-36-21.7-46.7c-11.5-8.8-32.3-13-44.9-4.3
					c-6.9,4.8-22.3,28-22.3,28s11.7,0.3,19.5,2.2C539,317.9,563.7,326,564.3,328.6z"/>
			<path class="st1 file-9-element-273" d="M587.8,399.5c-0.7-30.8-6.4-61.5-16.8-90.5"/>
			<path class="st1 file-9-element-274" d="M582.6,319.5c6.9,10,12.2,21.1,15.5,32.8"/>
		</g>
	</g>
	<path class="st1 file-9-element-275" d="M528.8,329.6c2.9-2.7,7.2-3.8,11-2.9"/>
	<g>
		<path class="st1 file-9-element-276" d="M513.5,391.4c-2.1-3-12.8-13.5-13.5-12.6s9.2,12.6,10.4,14"/>
		<path class="st1 file-9-element-277" d="M510.5,392.5c-1.3-2.4-11.2-11.3-12-10.4s9.3,12.9,9.3,12.9s-0.5-0.8-0.5-0.9"/>
		<g>
			<path class="st1 file-9-element-278" d="M525.1,407c0,0,2.4-3.9,0-8.8c-1.5-3-1-8-2-8.2s-2.9,2.1-2.8,3.2c0,0,0,0.1,0,0.2"/>
		</g>
		<g>
			<path class="st1 file-9-element-279" d="M512.4,390.4c-0.7-0.5-8.3-10.6-7.8-11.7s10.1,9.1,10.1,9.1c4.3,3.3,11,13.9,10.7,18.3"/>
			<path class="st1 file-9-element-280" d="M515.4,412.9c-0.8-0.5-1.6-1.3-2.2-2.3c-4.2-6.5-9-14.9-9-14.9s-5.8-8.7-5.3-9.6s6.9,6.6,8.4,8.1"/>
		</g>
	</g>
	<path class="st1 file-9-element-281" d="M510.2,393.2c-2-3-12.7-13.6-13.4-12.7c-0.7,0.9,9.2,12.7,10.3,14"/>
	<path class="st1 file-9-element-282" d="M507.1,394.3c-1.3-2.4-11.1-11.4-11.9-10.5s9.2,12.9,9.2,12.9s-0.5-0.8-0.5-0.9"/>
	<path class="st1 file-9-element-283" d="M513,415.2c-1.3-0.4-2.4-1.4-3.3-2.8c-4.2-6.5-8.9-14.9-8.9-14.9s-5.7-8.8-5.2-9.6s6.9,6.6,8.4,8.2"/>
	<path class="st1 file-9-element-284" d="M195.9,370.9c-7.5-0.5-20.5,1.3-29.4,16.1c0,0,0.1,0,0.4,0.1"/>
	<g>
		<path class="st1 file-9-element-285" d="M282.6,400.5c2-3,12.7-13.5,13.5-12.7c0.7,0.9-9.2,12.6-10.4,14"/>
		<path class="st1 file-9-element-286" d="M294.2,392.1c1.5-1.2,3.1-1.2,3.4-0.9c0.7,0.9-7.9,11.3-9.1,12.7"/>
		<g>
			<path class="st1 file-9-element-287" d="M289.6,392.9c1-1.7,2.4-4.4,2-5.1c-0.5-1.1-10.1,9.1-10.1,9.1c-4.6,3.6-12,15.6-10.4,19.2
					c0.1,0.1,0.2,0.4,0.4,0.6"/>
			<path class="st1 file-9-element-288" d="M280.6,422.1c0.9-0.5,1.7-1.4,2.4-2.5c4.2-6.5,9-14.9,9-14.9s5.7-8.8,5.3-9.6c-0.2-0.3-1.1,0.5-2.4,1.7"/>
		</g>
		<g>
			<path class="st1 file-9-element-289" d="M270.7,415.3c-0.6-1.4-1.4-4.4,0.4-7.9c1.5-3,1-8,1.9-8.2s2.9,2.1,2.8,3.2c0,0.1,0,0.1,0,0.2"/>
		</g>
	</g>
	<g>
		<path class="st1 file-9-element-290" d="M287,390.5c2.9-2.8,5.6-5,6-4.6c0.2,0.3-0.8,2-2.4,4"/>
		<g>
			<path class="st1 file-9-element-291" d="M286.4,391.4c0.9-1.6,2.3-4.9,2-5.5c-0.5-1.1-10.1,9.1-10.1,9.1c-1.2,1-2.7,2.5-4.1,4.4"/>
		</g>
		<g>
			<path class="st1 file-9-element-292" d="M267.5,413.4c-0.6-1.4-1.4-4.4,0.4-7.9c1.5-3,1-8,1.9-8.2c0.7-0.1,2.1,1.2,2.6,2.4"/>
		</g>
	</g>
	<g>
		<path class="st1 file-9-element-293" d="M280.2,421.8c1.8,1.4,3.6,2.9,5.1,4.5c6.4,6.6,5.6,12.6,5.6,12.6l-40.4,31.6"/>
	</g>
	<g>
		<path class="st1 file-9-element-294" d="M146.7,537.5c-1.4-1.1-5.7-4.1-6.8-1.1c-1.3,3.6-3.1,9.7-3.7,10.8c-0.2,0.4-2,2.3-4.3,4.8"/>
		<path class="st1 file-9-element-295" d="M136.4,552.3c2.3-3.2,4.2-6.8,5.4-10.5c0.5-1.6,1.2-3.6,2.9-4c0.8-0.2,1.7-0.2,2.4,0.1    c0.9,0.5,1.8,0.9,2.7,1.3"/>
	</g>
	<g>
		<path class="st1 file-9-element-296" d="M129.4,550.5c0,0-5.8-5.3-7.2-1.7s-3.4,9.6-4,10.7S105,572.3,102.8,579c-2.1,6.5,1.3,9.2,4.9,6.6"/>
		<path class="st1 file-9-element-297" d="M125.6,571c-0.4,0.3-0.8,0.6-1.1,1c-4.3,3.6-8.6,7.3-12.9,10.9c-1.5,1.3-3.8,2.5-5.2,1.1    c-0.9-0.9-0.6-2.5-0.2-3.7c2.3-6,7.7-10.2,11.8-15.3c2.6-3.2,4.6-6.8,6-10.7c0.6-1.6,1.3-3.5,3-4c0.8-0.2,1.7-0.2,2.4,0.2    c3,1.6,6,2.9,8.9,4"/>
		<path class="st1 file-9-element-298" d="M124.8,571.4c-0.7,0.7-2,2-2,2l-4.3,3.6c0,0-0.5-7-6.2-5.6l5.8-6.5C118,565,124.9,567.5,124.8,571.4z"/>
	</g>
	<path class="st1 file-9-element-299" d="M184.6,409.7c-1.5,25.6,4,65.6,4,65.6v8.3c0,0,0.7,1.3-4,9.7c-2.8,5.1-5.6,22-8.2,38.6l-18.9-0.3   c0,0-4.9,4.9-6.6,7.8c-1.2,2.1-2.1,4.4-3.3,6.4c-2.3,3.7-5.9,6.4-9.2,9.3c-7.7,6.5-14.8,15.2-14.5,25.3c42.1,5.5,84.8,5.9,127,1.2   c4.3-0.5,8.6-1,12.5-2.8c8.7-3.9,14-13.4,14.8-22.9s-2.4-18.9-6.9-27.3s-10.3-16-15.4-24c-1.1-1.6-2.7-4.9-4.6-8.7   c0,0-1.2-10.2-3-23.9"/>
	<path class="st1 file-9-element-300" d="M242.5,433c-1.3-8-2.7-15.4-4.1-21.2"/>
	<path class="st1 file-9-element-301" d="M252.2,468c-0.5,0.7-1.1,1.4-1.9,2c-4.8,3.9-15.1-1.1-15.1-1.1s-56.5-51.5-38-68.3c8.5-7.8,29,18.2,43.3,38.2"/>
	<g>
		<path class="st1 file-9-element-302" d="M240.3,437.5c5.2-10.6,10.5-21.4,13.5-27.5c8.8,2.9,18.3,6,25.5,11.8c7.2,5.8,7.2,11.8,7.2,11.8L250.3,470"/>
	</g>
	<path class="st1 file-9-element-303" d="M203.6,389.3c-15.1,1.9-20.7,27.2-20.7,27.2s-13.6-0.8-16.4-29.2c-0.1-1.4,18.1-10.9,33.5-8.7"/>
	<g>
		<path class="st4 file-9-element-304" d="M260.4,347.3c0,0,12-26.2-5.1-42.6c-5.8-5.6-12.2-10.6-20.2-12.8c-16.3-4.5-34.3,7.3-37.9,23.6    c-3,13.6-4.6,38.1,4,49.9c9.8,13.5,37,30.4,46.3,16.5l8-13.1c0,0,9.8,1.6,8.1-8.3L260.4,347.3z"/>
	</g>
	<g>
		<path class="st4 file-9-element-305" d="M260.4,347.3c0,0,12-26.2-5.1-42.6c-5.8-5.6-12.2-10.6-20.2-12.8c-16.3-4.5-34.3,7.3-37.9,23.6    c-3,13.6-4.6,38.1,4,49.9c9.8,13.5,37,30.4,46.3,16.5l8-13.1c0,0,10.3,7.6,8.7-2.3L260.4,347.3z"/>
	</g>
	<path class="st1 file-9-element-306" d="M247,382.6c0.1-0.2,0.3-0.4,0.4-0.6l8-13.1c0,0,10.3,7.6,8.7-2.3l-3.8-19.4c0,0,9.1-19.9,0.1-35.9"/>
	<path class="st1 file-9-element-307" d="M195.1,329.3c-0.6,7.8-0.5,16.5,1.1,24"/>
	<path class="st1 file-9-element-308" d="M195.1,313.2c3.1-16.4,15.5-21.4,15.5-21.4c10.9-13.1,21.3-6.6,21.3-6.6c15.1-3.2,23.8,8,23.8,8   c0.3,0.4,6.8-3.6,11.3,1.1c3.1,3.2,5,10.6,3.9,14.9c-3.5,14-17.1-4.3-21.7-7c-0.4-0.3-0.9-0.5-1.4-0.8c-11.1-6.2-23-5.7-29.8,6.4   c-0.6,1-2.3,6.3-3.6,11.5"/>
	<path class="st1 file-9-element-309" d="M208,326.4c-2.5-1.5-5.4-3.2-6.7-4"/>
	<path class="st1 file-9-element-310" d="M201.2,322.4c-0.3-0.9-3-10.8-7.2-7.4c-4.6,3.7-0.3,15.1,3.8,17"/>
	<path class="st1 file-9-element-311" d="M214.2,319.6c0,0,0.6,10.1,0.6,10.2c-3.2,23.4,9.9,30,16.6,36.4"/>
	<path class="st1 file-9-element-312" d="M236,373.8c6.7,14.9,11.9,6.8,11.9,6.8s7.6,18.7,5.2,24.1c-1.4,3.1-7.8,3.3-7.3,2.1c-1.2,3.2-4.3,5.5-7.8,5.9   c-2.8,0.3-5.7-0.6-7.9-2.4c-6.2,2.5-16.7-2.1-19-8.3c-2.8-0.3-5.5-1.9-7.1-4.1c-2.1-2.8-2.4-6.7-0.9-9.7c-2.1-0.1-4-1.5-4.8-3.4   s-0.4-4.1,1.1-5.5c-2.7-1.3-4.5-4.3-4.4-7.2s2.3-5.5,5.2-6.4c-2.8-2.1-4.4-5.5-4.1-8.9c0.2-3.3,2.3-6.4,5.4-7.9   c-2.7-4.2-0.2-7.5,2.4-10.6c0,0,1.3-1.3,1.9-2.7c0.9-2,1.4-6.1,1.9-9.1"/>
	<path class="st1 file-9-element-313" d="M248.4,378.1c0,0-4.6-1.4-7.3-5.1"/>
	<path class="st1 file-9-element-314" d="M255.1,368.3c0,0-11.5-10.8-25.9-0.6C229.3,367.7,230.9,381.4,255.1,368.3z"/>
	<g>
		<g>
			<path class="st6 file-9-element-315" d="M244.3,339.7l6.7,3.1c0,0,2.1-1.8,2.3-5.3"/>
		</g>
		<g>
			<path class="st1 file-9-element-316" d="M244.3,339.7l6.7,3.1c0,0,2.1-1.8,2.3-5.3"/>
		</g>
	</g>
	<path class="st1 file-9-element-317" d="M258,332.9c-2.9-2.7-7.2-3.8-11-2.9"/>
</g>
</svg>
