<?xml version="1.0" encoding="UTF-8"?>
<!-- Generator: Adobe Illustrator 25.2.3, SVG Export Plug-In . SVG Version: 6.00 Build 0)  -->
<svg xmlns="http://www.w3.org/2000/svg" xmlns:xlink="http://www.w3.org/1999/xlink" version="1.1" id="Layer_1" x="0px" y="0px" viewBox="0 0 792 612" style="enable-background:new 0 0 792 612;" xml:space="preserve">
<style type="text/css">
	.st0{fill:#FFFFFF;}
	.st1{fill:none;stroke:#000000;stroke-width:2.5;stroke-miterlimit:10;}
	.st2{fill:none;stroke:#000000;stroke-width:2.5;stroke-linecap:round;stroke-linejoin:round;stroke-miterlimit:10;}
	.st3{fill:#FFFFFF;stroke:#000000;stroke-width:2.5;stroke-linecap:round;stroke-linejoin:round;stroke-miterlimit:10;}
	.st4{fill:#231F20;}
	.st5{fill:#4F3D26;}
	.st6{fill:none;stroke:#231F20;stroke-width:1.0609;stroke-miterlimit:10;}
</style>
<g id="White">
	<rect x="-55.4" class="st0 file-4-element-1" width="885.3" height="250.6"/>
	<rect x="-6.3" y="349" class="st0 file-4-element-2" width="836.1" height="268.5"/>
	<path class="st0 file-4-element-3" d="M477.7,464.1H252.1V193.8c0-62.3,50.5-112.8,112.8-112.8l0,0c62.3,0,112.8,50.5,112.8,112.8V464.1z"/>
	<path class="st0 file-4-element-4" d="M776.3,464.7H550.7V194.4c0-62.3,50.5-112.8,112.8-112.8l0,0c62.3,0,112.8,50.5,112.8,112.8V464.7z"/>
	<path class="st0 file-4-element-5" d="M181.8,464.1H-43.8V193.8C-43.8,131.5,6.7,81,69,81l0,0c62.3,0,112.8,50.5,112.8,112.8V464.1L181.8,464.1z"/>
	<path class="st0 file-4-element-6" d="M80.7,133.7c-3.6-1.8-5.3-5.2-8.8-4.4c-1.1,0.3-2.2,0.2-3.2-0.4c-0.8-0.5-1.6-0.9-2.5-1.2   c-0.6-0.2-1.3-0.4-2-0.5c-0.6,0-1.3,0.2-1.9,0.3c-1.3,0.3-2.5,0.9-3.8,1.4c-4.2,1.8-3.5-1.5-6.7-1.5s-3.5,7.7-7,6.8   s-7.9-3.5-11.4-1.7c-3,1.5-3.2,22.2-2.8,29.8c2.9,0.7,6.2,0.6,9,0.6c6.9,0,13.9,0.2,20.8,0.3c6,0.1,12,0.1,18-0.2   c3.6-0.2,8,0,11.8-0.6C89.8,154.6,83.8,135.2,80.7,133.7z"/>
	<rect x="179.4" y="206" class="st0 file-4-element-7" width="76.3" height="260.2"/>
	<polygon class="st0 file-4-element-8" points="256.5,206 178.6,206 163.1,176.4 272,176.4  "/>
	<rect x="477.4" y="206" class="st0 file-4-element-9" width="76.3" height="260.2"/>
	<polygon class="st0 file-4-element-10" points="554.5,206 476.7,206 461.1,176.4 570.1,176.4  "/>
	<polygon class="st0 file-4-element-11" points="527.9,269.4 520.2,269.4 520.2,256.3 510.9,256.3 510.9,269.4 503.3,269.4 503.3,278.8 510.9,278.8    510.9,305.4 520.2,305.4 520.2,278.8 527.9,278.8  "/>
	<rect x="775.5" y="206" class="st0 file-4-element-12" width="76.3" height="260.2"/>
	<polygon class="st0 file-4-element-13" points="852.5,206 774.7,206 759.1,176.4 868.1,176.4  "/>
	<path class="st0 file-4-element-14" d="M202.4,202.7c-1.1-2.2-4.7-5.4-7.2-5.7c0,0.2-0.1,0.3-0.1,0.5c-1.4-1.2-5.4-4.1-13-4.3   c-7.5-0.2-20.4,3.1-26.1,5.7c0-0.1-0.1-0.2-0.1-0.3c-2.8,0.3-6.8,3.5-8,5.7c-0.5,0.8-15.3,22.1-21.8,38.6c6,0,12.1-0.1,18.1-0.1   c26.9-0.3,53.8-1,80.7-1.2C218.1,225,202.8,203.5,202.4,202.7z M179.6,238c-0.4-0.3-0.7-0.6-1.1-0.8l-1.2,0.8l0,0   c0.1-0.6,0.2-1.1,0.1-1.7c0-0.3-0.1-0.7-0.2-1c-0.1-0.3-0.2-0.6-0.4-0.9c-0.1-0.2-0.3-0.4-0.4-0.6c-0.2-0.2-0.3-0.4-0.5-0.6   c-0.6-0.5-1.1-0.8-1.8-1c-0.1,0-0.1,0-0.2,0c-0.4-0.8-0.9-1.6-1.4-2.3c0.3-1.5,0.2-3.1-0.6-4.4c-0.7-1.3-2-2.1-3.4-2.6   c-0.8-0.2-1.7-0.3-2.5-0.4c-0.4,0-0.7,0.1-1,0.3c-1.1-0.7-2.1-1.3-3.2-1.9c-0.1-0.1-0.2-0.1-0.4-0.1c-0.1-0.3-0.2-0.7-0.3-0.9   c-0.9-3.9,0.2-3.5,2.3-6.1c-0.3-1.2,0.6-2.5,1.9-2.7c0.8-0.1,1.7,0.3,2.1,1l0,0c-0.2-1.2,0.8-2.5,2-2.6c0.9-0.1,1.8,0.5,2.2,1.3   c0.1-0.4,0.4-0.9,0.8-1.1c0.7-0.3,1.6-0.1,2.1,0.4s1,1.2,1.3,1.9c1.2,2.2,2.4,4.5,3.1,6.9c0.5-1.3,0.5-4.3,1.6-3.9   c1.1,0.4,2.1,3.6,2.3,4.1c0.6,1.6,0.6,3.2,0.8,4.8c0.1,1.5,2.7,3.8,4.3,5.9L179.6,238z"/>
	<path class="st0 file-4-element-15" d="M167.5,189.7c0.8,1-8,7.4-5.1,15.5c3.1,8.9,11.1,19.2,11.1,19.2s-18.9-3.7-26.2-13.9   C140.1,200.4,164.3,185.6,167.5,189.7z"/>
	<path class="st0 file-4-element-16" d="M182.1,189.7c-0.8,1,8,7.4,5.1,15.5c-3.1,8.9-11.1,19.2-11.1,19.2s18.9-3.7,26.2-13.9   C209.6,200.4,185.3,185.6,182.1,189.7z"/>
	<g>
		<path class="st0 file-4-element-17" d="M67.7,79.7L67.7,79.7V44.6C35.5,44.6,4.8,55-20.4,74.1c6.8,7.1,14.8,18.7,22.3,26.7    C20,88.1,44,79.7,67.7,79.7z"/>
		<path class="st0 file-4-element-18" d="M178.5,176.4c11.7,0.5,24.4-0.9,36-0.7c-1.1-11.1-4.5-22-8.1-32.4c-11.1,2.5-25.5,7-33.5,8.9    c2.8,7.4,3.9,14.2,5.1,22.3C178.2,174.4,178.4,176.4,178.5,176.4z"/>
		<path class="st0 file-4-element-19" d="M131.9,99.8l23.4-26.4c5.7,4.2,11.1,8.9,16.2,14c16.3,16.3,28.3,35.8,35.3,57.1c-9.1,1.6-22.4,6.4-33,8.4    C165.9,132.1,149.9,112.3,131.9,99.8z"/>
		<path class="st0 file-4-element-20" d="M68.2,79.7L68.2,79.7V44.6c32.2,0,62.9,10.4,88.1,29.5c-6.8,7.1-14.8,18.7-22.3,26.7    C116,88.1,92,79.7,68.2,79.7z"/>
	</g>
	<g>
		<rect x="-6.3" y="263.1" class="st0 file-4-element-21" width="379" height="167.1"/>
		<rect x="10.6" y="263.1" class="st0 file-4-element-22" width="19.9" height="166.7"/>
		<rect x="98.8" y="263.1" class="st0 file-4-element-23" width="19.9" height="166.7"/>
		<rect x="186.9" y="263.1" class="st0 file-4-element-24" width="19.9" height="166.7"/>
		<rect x="275.1" y="263.1" class="st0 file-4-element-25" width="19.9" height="166.7"/>
		<rect x="363.3" y="263.1" class="st0 file-4-element-26" width="19.9" height="166.7"/>
		<path class="st0 file-4-element-27" d="M392.8,263.1h-480c-3.6,0-6.6-2.9-6.6-6.6v-7.9c0-3.6,2.9-6.6,6.6-6.6h480c3.6,0,6.6,2.9,6.6,6.6v7.9    C399.3,260.2,396.4,263.1,392.8,263.1z"/>
	</g>
	<path class="st0 file-4-element-28" d="M172.4,265.1c0-17.2-13.3-31.2-29.8-31.2s-29.8,14-29.8,31.2c0,14.5,9.5,26.7,22.3,30.2   c-0.2,0.1-0.3,0.2-0.5,0.1v12.1c0,0,3.1,7.6,9.5,6.4l-0.6,9.8c-0.1,0.2-0.2,0.4-0.3,0.6c-0.4-0.8-1.3-1.4-2.2-1.3   c-1.2,0.1-2.2,1.4-2,2.6l0,0c-0.5-0.7-1.3-1.1-2.1-1c-1.2,0.2-2.1,1.5-1.9,2.7c-2.2,2.5-3.3,2.1-2.3,6c0.5,2.1,4.8,9.3,6.7,12.5   l-2.7,2.1l7.1,6.9l5.8-4.4c0.5,0.4,0.9,0.8,1.4,1.1l8.8-8c-1.7-2.1-4.2-4.4-4.3-5.9c-0.2-1.7-0.2-3.2-0.8-4.8   c-0.2-0.5-1.2-3.7-2.3-4.1s-1.1,2.6-1.6,3.9c-0.6-2.5-1.9-4.7-3.1-6.9c-0.2-0.4-0.4-0.8-0.7-1.1l0.8-11.9c1.9-1.2,4.1-3.1,6.5-6.1   c0.2-0.1,0.2-0.1,0.2-0.2l-1.8-11.8C164.1,290.3,172.4,278.7,172.4,265.1z"/>
	<path class="st0 file-4-element-29" d="M193.4,360.4c-0.1-0.2-0.2-0.4-0.4-0.6c2.7-12.5-23.3-49-23.8-50c-1-2-4.4-5-6.8-5.3c0,0.1-0.1,0.3-0.1,0.4   c-1.1-0.9-3.8-2.9-8.8-3.7l0.8,5.2c0.1,0.1,0,0.1-0.2,0.2c-13.2,16.5-19.5,1-19.5,1v-4.4c-3.6,1-6.9,2.1-9.1,3   c0-0.1-0.1-0.2-0.1-0.3c-2.6,0.3-6.3,3.3-7.5,5.3c-0.6,1.1-27,38.9-22.8,50.7c0.9,2.5,2.2,3.9,3.7,4.7c-0.9,1.4-1.4,2.8-1.3,4.2   c0,0.3,0.1,0.6,0.1,0.9c1.1,5.8,8.4,7.5,13.3,6.9c5.7-0.7,11.3-3.2,16.1-6.1c6.8-4.1,13.2-9.1,18.8-14.6l-3.5-3.4   c0.3,0,0.6,0,1,0.1l-6.7-6.4l2.7-2.1c-2-3.1-6.2-10.3-6.7-12.5c-0.9-3.9,0.2-3.5,2.3-6c-0.3-1.2,0.6-2.5,1.9-2.7   c0.8-0.1,1.7,0.3,2.1,1l0,0c-0.2-1.2,0.8-2.5,2-2.6c0.9-0.1,1.8,0.5,2.2,1.3c0.1-0.4,0.4-0.9,0.8-1c0.7-0.3,1.6-0.1,2.1,0.4   c0.6,0.5,1,1.2,1.3,1.9c1.2,2.2,2.4,4.5,3.1,6.9c0.5-1.3,0.5-4.3,1.6-3.9s2.1,3.6,2.3,4.1c0.6,1.6,0.6,3.2,0.8,4.8   c0.1,1.5,2.7,3.8,4.3,5.9l-8.8,8c-0.5-0.4-0.9-0.7-1.4-1.1l-5.3,4c2.6,0.1,5.2,0.3,7.8,0.6c6.8,6.2,29.1,24.6,40.2,15.1   C192.3,370.3,196.2,365.8,193.4,360.4z"/>
	<g>
		<path class="st0 file-4-element-30" d="M255.6,175.1c1.2-8.3,3.2-16.4,6.1-24c-8.1-1.9-24.4-5.4-35.5-7.9c-3.4,10-6.2,22.5-7.7,33.1    C230.6,176.6,243.6,175.6,255.6,175.1z"/>
		<path class="st0 file-4-element-31" d="M301.8,99.8l-23.4-26.4c-5.7,4.2-11.1,8.9-16.2,14c-16.3,16.3-28.3,36.8-35.4,58.1c9.1,1.6,23.4,5.4,34,7.4    C268.9,132.1,283.9,112.3,301.8,99.8z"/>
		<path class="st0 file-4-element-32" d="M367.9,79.7L367.9,79.7V44.6c-32.2,0-64.9,10.4-90.1,29.5c6.8,7.1,14.8,18.7,22.3,26.7    C318.1,88.1,344.1,79.7,367.9,79.7z"/>
		<path class="st0 file-4-element-33" d="M476.3,176.4c11.7,0.5,24.4-0.9,36-0.7c-1.1-11.1-4.5-22-8.1-32.4c-11.1,2.5-25.5,7-33.5,8.9    c2.8,7.4,3.9,14.2,5,22.3C476,174.4,476.2,176.4,476.3,176.4z"/>
		<path class="st0 file-4-element-34" d="M429.7,99.8l23.4-26.4c5.7,4.2,11.1,8.9,16.2,14c16.3,16.3,28.3,35.8,35.4,57.1c-9.1,1.6-22.5,6.4-33,8.4    C463.7,132.1,447.7,112.3,429.7,99.8z"/>
		<path class="st0 file-4-element-35" d="M366.1,79.7L366.1,79.7V44.6c32.2,0,62.9,10.4,88.1,29.5c-6.8,7.1-14.8,18.7-22.3,26.7    C413.8,88.1,389.8,79.7,366.1,79.7z"/>
	</g>
	<g>
		<path class="st0 file-4-element-36" d="M551.5,175.7c0.6,0,2-0.8,2.3-0.5c1.2-8.4,3.3-16.4,6.2-24.1c-8.1-1.9-23.4-5.4-34.5-7.9    c-3.3,9.8-8.1,22-9.6,32.5C527.4,176.1,540,176.2,551.5,175.7z"/>
		<path class="st0 file-4-element-37" d="M602.8,98.8l-23.4-26.4c-5.7,4.2-13.1,8.9-18.2,14c-16.3,16.3-31.3,36.8-38.3,58.1c9.1,1.6,24.5,5.4,35,7.4    C565.9,131.1,584.9,111.3,602.8,98.8z"/>
		<path class="st0 file-4-element-38" d="M663.7,79.7L663.7,79.7V44.6c-32.2,0-62.9,10.4-88.1,29.5c6.8,7.1,14.8,18.7,22.3,26.7    C616,88.1,640,79.7,663.7,79.7z"/>
		<path class="st0 file-4-element-39" d="M774.5,176.4c11.7,0.5,24.3-0.9,36-0.7c-1.1-11.1-4.5-22-8.1-32.4c-11.1,2.5-25.5,7-33.5,8.9    c2.8,7.4,3.9,14.2,5,22.3C774.2,174.4,774.4,176.4,774.5,176.4z"/>
		<path class="st0 file-4-element-40" d="M728,99.8l23.4-26.4c5.7,4.2,11.1,8.9,16.2,14c16.3,16.3,28.3,35.8,35.3,57.1c-9.1,1.6-22.5,6.4-33,8.4    C761.9,132.1,745.9,112.3,728,99.8z"/>
		<path class="st0 file-4-element-41" d="M664.3,79.7L664.3,79.7V44.6c32.2,0,62.9,10.4,88.1,29.5c-6.8,7.1-14.8,18.7-22.3,26.7    C712,88.1,688,79.7,664.3,79.7z"/>
	</g>
	<rect x="-42.4" y="357" class="st0 file-4-element-42" width="460.9" height="191.8"/>
	<rect x="48.4" y="369.3" class="st0 file-4-element-43" width="19.7" height="178.8"/>
	<rect x="148" y="369.3" class="st0 file-4-element-44" width="19.7" height="178.8"/>
	<rect x="246.5" y="369.3" class="st0 file-4-element-45" width="19.7" height="178.8"/>
	<rect x="347.1" y="369.3" class="st0 file-4-element-46" width="19.7" height="178.8"/>
	<rect x="324.8" y="420.5" class="st0 file-4-element-47" width="484.5" height="203.7"/>
	<rect x="313.3" y="440.2" class="st0 file-4-element-48" width="21.9" height="183.6"/>
	<rect x="507.6" y="440.2" class="st0 file-4-element-49" width="21.9" height="183.6"/>
	<rect x="701.8" y="440.2" class="st0 file-4-element-50" width="21.9" height="183.6"/>
	<path class="st0 file-4-element-51" d="M150.1,297.5c-0.8,1,7.5,6.9,4.8,14.6c-1.7,4.9-5,10.3-7.4,13.8c0.1,0.1,0.2,0.2,0.3,0.4   c0.3,0.5,0.5,1,0.7,1.5c0.1,0.4,0.2,0.8,0.3,1.1c5.7-1.7,15.5-5.4,20.2-11.9C175.8,307.6,153.1,293.7,150.1,297.5z"/>
	<path class="st0 file-4-element-52" d="M135.1,327.4c-0.3-1.2,0.6-2.5,1.9-2.7c0.6-0.1,1.1,0.1,1.6,0.4c-2.4-3.5-5.3-8.5-6.9-13c-1.7-4.9,1-9,3-11.7   v-3.5c-6.1,0-23.2,11.8-17.2,20.2c3.9,5.4,11.4,8.9,17.1,10.9C134.7,327.8,134.9,327.6,135.1,327.4z"/>
	<g>
		<path class="st0 file-4-element-53" d="M274.3,267.1c-3.9-24.2-15.1-26.6-31.5-26.6s-42.1,2.9-37.1,34.1c2.3,14.3,8.1,23.1,20.9,26.5    c-0.2,0.1,4.6-0.3,4.4-0.3l1.9,8.5c0,0-0.4,18.7,6,17.5l5.9-1.7c-0.1,0.2,0.4,1.1,0.4,1.4c-0.4-0.8-1.3-1.4-2.2-1.3    c-1.2,0.1-2.2,1.4-2,2.6l0,0c-0.5-0.7-1.3-1.1-2.1-1c-1.2,0.2-2.1,1.5-1.9,2.7c-2.2,2.5-3.3,2.1-2.3,6c0.5,2.1,4.8,9.3,6.7,12.5    l-2.7,2.1l7.1,6.9l5.8-4.4c0.5,0.4,0.9,0.8,1.4,1.1l8.8-8c-1.7-2.1-4.2-4.4-4.3-5.9c-0.2-1.7-0.2-3.2-0.8-4.8    c-0.2-0.5-1.2-3.7-2.3-4.1s-1.1,2.6-1.6,3.9c-0.6-2.5-1.9-4.7-3.1-6.9c-0.2-0.4-0.4-0.8-0.7-1.1l5.6-5.4c1.9-1.2-0.8-9.7,1.6-12.6    c0.2-0.1,0.2-0.1,0.2-0.2l-1.8-11.8C266,292.3,276.5,280.5,274.3,267.1z"/>
		<path class="st0 file-4-element-54" d="M243,325.1c-0.7,0.1-1.3,0.5-1.7,1.1c1.1,0,2.3-0.1,3.6-0.3C244.4,325.4,243.7,325.1,243,325.1z"/>
		<g>
			<path class="st0 file-4-element-55" d="M245.4,356.5l-6.7-6.4l2.7-2.1c-2-3.1-6.2-10.3-6.7-12.5c-0.9-3.9,0.2-3.5,2.3-6c-0.3-1.2,0.6-2.5,1.9-2.7
					c0.8-0.1,1.7,0.3,2.1,1l0,0c-0.1-0.5,0.1-1,0.3-1.5c-3.8-0.1-6.3-1.4-6.3-1.4l-2.7-8.7c-3.6,1-2.1-2.5-4.2-1.5
					c-2.7-1.7-3.1,0.1-3.1,0c-2.6,0.3-6.2,7.3-7.4,9.4c-0.6,1.1-24.6,28.1-20.4,39.9c0.9,2.5,2.2,3.9,3.7,4.7
					c-0.9,1.4-1.4,2.8-1.3,4.2c0,0.3,0.1,0.6,0.1,0.9c1.1,5.8,8.2,1.3,13.1,0.7c5.7-0.7,11.5,3,16.3,0.1c6.8-4.1,13.2-9.1,18.8-14.6
					l-3.5-3.4C244.7,356.5,245.1,356.5,245.4,356.5z"/>
			<path class="st0 file-4-element-56" d="M295.3,362.4c-0.1-0.2-0.2-0.4-0.4-0.6c2.7-12.5-23.7-36-24.2-37c-1-2-5.7-8.9-8-9.2c0,0.1-2-3.5-6.8-4.4
					c-0.5,3.8-1.3,10-1.4,10.1c-1.1,0.9-2.2,1.7-3.2,2.3c0.1,0.2,0.1,0.3,0.1,0.5v0.1c0,0.3-0.1,0.6-0.2,0.9
					c-0.1,0.1-0.2,0.2-0.3,0.4c-0.2,0.2-0.5,0.4-0.8,0.5c-0.2,0-0.3,0-0.5,0.1c-0.2,0-0.5,0-0.7-0.2c-0.2-0.1-0.4-0.2-0.6-0.4
					c-0.1-0.1-0.2-0.2-0.2-0.3c-0.2,0.1-0.5,0.2-0.8,0.3c0.3,0.1,0.6,0.3,0.9,0.5c0.6,0.5,1,1.2,1.3,1.9c1.2,2.2,2.4,4.5,3.1,6.9
					c0.5-1.3,0.5-4.3,1.6-3.9s2.2,3.6,2.3,4.1c0.6,1.6,0.6,3.2,0.8,4.8c0.1,1.5,2.7,3.8,4.3,5.9l-8.8,8c-0.5-0.4-0.9-0.7-1.4-1.1
					l-5.3,4c2.6,0.1,5.2,0.3,7.8,0.6c6.8,6.2,29,24.6,40.2,15.1C294.2,372.3,298.2,367.8,295.3,362.4z"/>
		</g>
		<path class="st0 file-4-element-57" d="M251.2,313.3c-0.8,1,7.5,6.9,4.8,14.6c-0.3,0.8-0.6,1.5-0.9,2.3c0.2,0.1-1.6,0.2-1.5,0.3    c3,2.6,4.7,7.6,3.9,11.5c4-2,10.1-5.7,12.6-9.2C277,323.3,254.2,309.5,251.2,313.3z"/>
		<path class="st0 file-4-element-58" d="M234.4,343.9c-0.3-1.2,2.7,0.8,3.9,0.6c0.6-0.1-1.4-4.1-1-3.8c-2.4-3.5-5.3-8.5-6.9-13c-1.7-4.9,1-9,3-11.7    v-3.5c-6.1,0-23.2,11.8-17.1,20.2c3.9,5.4,11.4,8.9,17.1,10.9C233.6,343.4,234.2,344.1,234.4,343.9z"/>
	</g>
	<path class="st0 file-4-element-59" d="M182.4,271.8c-0.6-1.7-2.1-2.8-4-3.6c0-0.1,0.1-0.3,0.1-0.4c1.1-0.7,2-1.6,2.6-2.5c0.8-1.5,0.8-3,0.3-4.5   c-0.3-1-0.7-2.1-1.1-3.1c0.3-0.6,0.6-1.2,0.7-1.8c0.1-0.4,0.3-0.8,0.4-1.1c0.5-2.3,0.4-4.9-1-6.9c0.1-0.3,0.1-0.6,0.1-0.9   c0.2-2.4-1.1-5-3.1-6.5c-0.4-0.3-0.8-0.5-1.2-0.8c0.1-0.4,0.2-0.8,0.3-1.2c0.3-3-1.6-5.8-4.3-7.4c0.6-2.3-0.4-4.8-2.4-6.4   c-1.7-1.3-4.3-2.1-6.7-2c-0.1,0-0.2,0-0.2,0c-0.6-0.7-1.5-1.4-2.5-1.8c-1.2-0.6-2.5-0.9-3.9-0.9c-1.6-2-4.2-3.5-7.5-3.7   c-2.4-0.1-4.8,0.6-6.5,1.9c-0.2,0.1-0.3,0.2-0.4,0.4c-1.4-0.7-3-1-4.6-1.1c-0.1,0-0.3,0-0.4,0c-1.2-0.1-2.4-0.1-3.6,0.1   c-1.6,0.3-2.9,1-3.7,1.9c-0.1,0.1-0.3,0.2-0.4,0.3c-1.1-0.1-2.3,0.1-3.4,0.3c-2.5,0.6-4.3,2-5.1,3.8c-0.3,0-0.6,0.1-0.9,0.2   c-3.8,0.9-6.7,3.8-6.6,6.9c-1.2,0.9-2.1,1.9-2.7,3.2c-0.9,1.3-1.4,2.8-1.4,4.4c0,0.6,0.1,1.2,0.4,1.7c-0.1,0.1-0.2,0.2-0.4,0.2   c-2,1.5-3.3,4.1-3.2,6.5c0,0.2,0.1,0.5,0.1,0.8c-1.4,2.1-1.6,4.7-1.1,7.1c0.1,0.4,0.2,0.8,0.3,1.1c0.1,0.6,0.4,1.2,0.7,1.8   c-0.4,1-0.8,2.1-1.1,3.1c-0.4,1.4-0.5,3,0.3,4.5c0.6,1,1.5,1.8,2.6,2.5c0,0.1,0.1,0.3,0.1,0.4c-1.9,0.8-3.4,1.9-4,3.6   c-1.4,3.6,3.4,7.1,8.7,7.7c0.6,0.1,1.2,0.1,1.8,0.1l0.1-0.6c0.3,0.7,0.7,1.4,1,2c2.9,5.2,6.9,9.8,10.9,14.3   c2.8,3.2,13.9,12.5,15.7,11.9c1.8,0.5,14.5-8.7,17.3-11.9c4-4.5,8-9.1,10.9-14.3c0.2-0.4,0.4-0.9,0.6-1.4c1,0,2-0.1,3-0.2   C179,279,183.8,275.4,182.4,271.8z M156.4,276.2c-0.7,0.5-1.4,1-2.1,1.5c-2.2-1.6-10.9-7.7-12-7.2c-1,0.4,0.4,9.6,5.5,10.5   c-1.7,0.5-3.4,0.8-5.1,0.8c-1.8,0.1-3.6-0.2-5.4-0.8c-0.1,0-0.3-0.1-0.4-0.1c4.5-1.7,5.7-9.9,4.7-10.3c-1.1-0.5-8.4,4.6-11.4,6.7   c-0.5-0.3-0.9-0.6-1.4-1c-3.4-2.6-6.6-5.5-9.5-8.6s-3.5-5.4-2.5-9.3c0.3-1.1,0.1-2.1-0.3-2.8c0.7-5.4,1.8-10,3.1-10.6   c3.3-1.7,5.9-0.8,9.2,0s3.5-1.7,6.4-1.7c3,0,2.3,3.1,6.2,1.4c1.2-0.5,2.3-1,3.6-1.4c0.6-0.1,1.2-0.3,1.8-0.3s1.3,0.2,1.9,0.4   c0.8,0.3,1.6,0.7,2.4,1.2c0.9,0.5,2,0.6,3,0.3c3.3-0.8,7.6-0.6,10.9,1.1c1.8,0.9,2.8,8.4,3.3,15.5c-0.1,2.1-0.8,4.2-2.6,6.1   C163,270.7,159.8,273.6,156.4,276.2z"/>
	<path class="st0 file-4-element-60" d="M831.4,440.2H302.7c-4,0-7.2-3.2-7.2-7.2v-8.7c0-4,3.2-7.2,7.2-7.2h528.7c4,0,7.2,3.2,7.2,7.2v8.7   C838.7,437,835.4,440.2,831.4,440.2z"/>
	<path class="st0 file-4-element-61" d="M371.9,265.7c-1.8-2.5-4.2,0.3-4.8,1.2c-1.6-15.7-14.2-27.9-29.6-27.9c-15.2,0-27.8,12-29.5,27.5   c-1.8-1.3-4.3-2.4-5.5-0.8c-1.5,2.1,2.4,6.9,5.6,9.5c1.9,12.2,10.6,22.1,21.9,25.2c-0.2,0.1-0.3,0.2-0.5,0.1l-0.4,15.2   c0,0-0.2,9.3,6.2,8.1l0,0c-0.1,0.2-0.2,0.4-0.3,0.6c-0.4-0.8-1-1.4-1.9-1.3c-1.2,0.1-2.2,1.4-2,2.6c0,0,1.7,6.4,0.7,6.1   c-0.5-0.7-2-7.2-2.8-7.1c-1.2,0.2-2.1,1.5-1.9,2.7c-2.2,2.5-3.3,2.1-2.3,6c0.5,2.1,4.3,10.2,6.3,13.4l-4.8,2.1l12.4,11l5.8-4.4   c0.5,0.4-2.9-3-2.5-2.7l9.4-8c-1.7-2.1-1-0.6-1.1-2.1c-0.2-1.7-2.6-3.1-3.2-4.7c-0.2-0.5-1.3-8.3-2.5-8.6s-1.5,1.4-2.1,2.7   c-0.6-2.5,1.1,0.9-0.1-1.4c-0.2-0.4-0.4-0.8-0.7-1.1l1.8-10.1c5.2-1.6,3.1-5,5.5-8c0.2-0.1,0.2-0.1,0.2-0.2l-1.8-11.8   c10.3-3.8,17.9-13.3,19.5-24.9v0.3C369.6,274.5,374,268.6,371.9,265.7z"/>
	<path class="st0 file-4-element-62" d="M484.1,393.8c-1.8-3.2-7.8-8.1-11.9-8.5c-0.1,0.3-0.2,0.6-0.3,0.9c-11.9-3-59.9-5.3-78.6,2.5   c0-0.2-0.1-0.3-0.1-0.5c-4.1,0.5-10.2,5.3-11.9,8.5c-1,1.8-56.5,78.5-31,95.8c5.3,3.6,10.5,3,15.6-0.2c10.8-1.2,25.4-8.1,30.8-10.7   c1,7.5,1.7,15.3,2.2,23.5c0.1,2.3-21.2,189.2-21.2,189.2l17.1-0.6c0,0,20.8,7.4,23.5,6.7l19.2-8c0,0,33,7,36,6.4   c5-1,22.1-5.9,22.1-5.9s-9.3-131.4-25.5-188.4c0,0,1.1-9.2,2.4-22.5c6.3,2.5,19.9,6.2,29.2,4.1c3.9,1.2,7.9,0.8,12-1.9   C539.2,467,485,395.5,484.1,393.8z"/>
	<path class="st0 file-4-element-63" d="M477.9,386c5.7,16.5-40.5,66.5-51.5,66.5s-42.8-58.2-42.8-58.2s5.4-24.5,34.7-13.8c0,0,25.4-0.6,29.8-1.8   S472.2,369.5,477.9,386z"/>
	<path class="st0 file-4-element-64" d="M459,376.3c0.3,12.2,1.8,47-23.9,48.2c-38.9,1.9-25.7-37.8-27.3-46.4c0,0,8-3.4,24.6-3.6S459,376.3,459,376.3z   "/>
	<path class="st0 file-4-element-65" d="M652,407.3c-1.8-3.3-7.9-8.1-12-8.6c-0.1,0.3-0.2,0.6-0.3,1c-12-3.1-60.2-5.3-79.1,2.5c0-0.2-0.1-0.3-0.2-0.5   c-4.2,0.5-10.2,5.3-12,8.6c-1,1.8-56.8,79.1-31.2,96.4c5.3,3.6,10.6,3,15.7-0.2c10.9-1.2,25.6-8.1,31-10.7c1,7.5,1.8,15.4,2.2,23.6   c0.1,2.3-21.3,190.5-21.3,190.5l17.2-0.6c0,0,21,7.5,23.7,6.8l19.3-8c0,0,33.2,7,36.3,6.5c5-1,22.2-6,22.2-6s-9.3-132.3-25.6-189.7   c0,0,1.1-9.3,2.4-22.7c6.4,2.5,20,6.2,29.5,4.1c3.9,1.2,8,0.8,12-1.9C707.5,481,653,409,652,407.3z"/>
	<path class="st0 file-4-element-66" d="M649.4,330.1c-2.7-4.7-7.4,1.4-8,2.2l-3.6,10.1L604,374.8c-2.8,0.5-5.7,0.8-8.6,0.8c-2.2,0-4.4-0.2-6.5-0.5   l-36.4-35.4v-7.3c-0.5-0.8-4.9-6.9-8-2.3c-3.3,4.9,3.7,14.9,8,15.7v-4.7l34.7,33.7c-1-0.2-2-0.4-3-0.6v31.6c0,0,8.7,1.1,31.3-1.7   c0.3-0.1,0.4-0.2,0.2-0.3l-2.9-31.5c-2.3,0.9-4.7,1.5-7.1,2l31.2-30l-0.5,1.4C640.9,345.1,653.5,337.2,649.4,330.1z"/>
	<path class="st0 file-4-element-67" d="M640.5,320.6c1.1-2.8,1.4-5.9,0.9-9.1c-1.2-7.4-6.7-12-12.3-15.8c0,0-1.2-0.5-1.8-0.8s-1.2-0.5-1.8-0.5   c-2.6-1.8-5.4-3.2-8.2-4.4c-1.3-0.5-2.5-0.9-3.8-1.3c-6.8-2.9-14-3.7-20.3-0.7c-6.5-4.5-14.3-8.4-21.1-1.9c-1.9,1.9-3,4.1-3.4,6.4   c-2.4,0.5-4.7,1.4-6.8,2.6c-7.9,4.8-11.8,14.3-9.7,23.7c0.1,0.3,0.1,0.5,0.2,0.8c-2.8,6.7-3.6,14.2-1.4,21.9   c8.9,30.9,20.2,41.5,45.2,41.5s37.5-16.2,45.2-41.5C643.6,334.2,643,327,640.5,320.6z"/>
	<path class="st0 file-4-element-68" d="M645.8,399.5c5.7,16.6-40.8,67-51.8,67s-43.1-58.6-43.1-58.6s5.4-24.6,34.9-13.9c0,0,25.5-0.6,30-1.8   C620.3,391,640.1,382.9,645.8,399.5z"/>
	<path class="st0 file-4-element-69" d="M626.8,389.6c0.3,12.3,1.8,47.3-24.1,48.5c-39.2,1.9-25.9-38-27.5-46.7c0,0,8-3.5,24.8-3.7   S626.8,389.6,626.8,389.6z"/>
	<path class="st0 file-4-element-70" d="M804.7,482.2c0.2,0.1,0.5,0.2,0.7,0.3l0,0c2-6.2,2.2-12.8,2-19.3c-0.2-5.8-0.5-11.6-0.1-17.4   c0.4-6.2,0.6-12.4,0.8-18.6c0.5-12.6,0.7-25.2,0.7-37.8c0-0.9,0.5-1.4,1.1-1.6c-1.9-1.2-3.9-2.1-5.6-2.3c-0.1,0.3-0.2,0.6-0.3,0.9   c-11.9-3-59.8-5.3-78.6,2.5c0-0.2-0.1-0.3-0.2-0.5c-4.1,0.5-10.2,5.3-11.9,8.5c-1,1.8-56.5,78.5-31,95.8c5.3,3.6,10.5,3,15.6-0.2   c10.8-1.2,25.4-8.1,30.8-10.7c1,7.5,1.7,15.3,2.2,23.5c0.1,2.3-21.2,189.2-21.2,189.2l17.1-0.6c0,0,20.8,7.4,23.5,6.7l19.2-8   c0,0,33,7,36,6.4c5-1,22.1-5.9,22.1-5.9s-9.3-131.4-25.5-188.4C802.3,504.8,803.4,495.6,804.7,482.2z"/>
	<path class="st0 file-4-element-71" d="M811.7,317.3c-1.6-2.2-3.5-1.8-5.1-0.7c-2-21-25.1-37.8-46-37.8c-21,0-44,16.9-45.8,38.1   c-1.6-1.3-3.7-2-5.4,0.5c-3.3,4.8,3.5,14.7,7.9,15.6c7,22.3,15.9,32.8,31.6,35.9v23.8c0,0,8.6,1.1,31.1-1.7   c0.3-0.1,0.4-0.2,0.2-0.3l-2.2-24.1c12.8-5.6,20.7-17.8,26.2-34.4C808.6,330.7,814.8,321.8,811.7,317.3z"/>
	<path class="st0 file-4-element-72" d="M810.1,386.2c5.7,16.5-40.5,66.5-51.5,66.5s-42.8-58.2-42.8-58.2s5.4-24.5,34.7-13.8c0,0,25.4-0.6,29.8-1.8   C784.7,377.8,804.4,369.8,810.1,386.2z"/>
	<path class="st0 file-4-element-73" d="M791.1,376.5c0.3,12.2,1.8,47-23.9,48.2c-38.9,1.9-25.7-37.8-27.3-46.4c0,0,8-3.4,24.6-3.6   C781.2,374.4,791.1,376.5,791.1,376.5z"/>
	<g>
		<path class="st0 file-4-element-74" d="M745.2,283.4"/>
	</g>
	<path class="st0 file-4-element-75" d="M802.3,303.3c-2.4,4.4-5.8,8.1-10.2,10.9c-6.7,4.2-14.8,5.6-22.5,6.2c-7.6,0.6-15.5,0.6-23.1-0.4   c-7-0.9-14.3-2.8-19.4-8c-3.2-3.4-5.1-7.5-6-12c-5.7,8.3-8.2,18.3-5.2,28.7c8.8,30.7,20,41.2,44.7,41.2s37.1-16.1,44.7-41.2   C808.1,319.6,806.5,310.8,802.3,303.3z"/>
	<path class="st0 file-4-element-76" d="M363.6,317.9c-1-2-4-8.2-6.3-8.5c0,0.1-0.1,0.3-0.1,0.4c-1-0.9-3.8-2.9-8.8-3.7l0.8,5.2c0.1,0.1,0,0.1-0.2,0.2   c-14.8,21.3-19.5,1-19.5,1v-4.4c-3.6,1-6.9,2.1-9.1,3c0-0.1-0.1-0.2-0.1-0.3c-2.6,0.3-6.4,3.3-7.5,5.3c-0.5,0.9-17.5,25.2-22.1,41   c7.5,0,15.1,0.1,22.6,0.3c7.9,0.2,15.8,0.6,23.7,0.8l-8.8-9.2l2.8-2.3c-2-3.1-2.9-6.2-3.4-8.4c-1-3.9-6.3-7.8,0.4-10.5   c-0.3-1.2,1.9-2,3.1-2.2c0.8-0.1,0.3,0.2,0.8,0.8l-0.1-1.5c-0.2-1.2,1.1-1.4,2.3-1.5c0.9-0.1,1.9-0.3,2.2,0.5   c0.1-0.4,2.3,2.5,2.7,2.3c0.7-0.3,1.4,2,2,2.5s1,1.2,1.3,1.9c0.1,0.2,0.2,0.4,0.3,0.6l0.1-0.1c0.3-0.4,0.8-0.5,1.3-0.5   s1,0.2,1.3,0.5c0.2,0.2,0.3,0.4,0.4,0.6s0.2,0.5,0.2,0.7c0,0.1,0,0.1,0,0.2c0.1,0.6,0.2,1.2,0.4,1.8c0.2-0.5,0.4-0.8,0.8-0.6   c1.1,0.4-0.5,4.8-0.4,5.3c0.6,1.6,3.4,2,3.5,3.7c0.1,1.5-1.2-0.2,0.4,1.9l-8.3,7.4c-0.5-0.4,2.5,3.9,2,3.6l-3.9,3   c4.4,0.1,8.9,0.3,13.3,0.4c6.7,0.1,13.5,0.2,20.2,0c4.4-0.1,8.8-0.7,13.2-1.1C383.3,342.1,364.1,318.8,363.6,317.9z"/>
	<path class="st0 file-4-element-77" d="M344.9,305.5c-0.8,1,7.5,6.9,4.8,14.6c-1.3,3.8-2,5.6-4.1,8.9c0.1,0.1-1,1.6-0.9,1.7c0.7,1.5,1.6,3.2,1.8,4.8   c5.8-1.9,13.1-4.6,17.3-10.4C370.7,315.6,348,301.7,344.9,305.5z"/>
	<path class="st0 file-4-element-78" d="M417,373.8c11.3-2.6,22.7-1.7,34.1-1.6c0.2-0.6,0.3-1.2,0.3-1.9v-8c0-3.8-3-6.8-6.8-6.8H-42.9   c-3.8,0-6.8,3-6.8,6.8v8c0,3.8,3,6.8,6.8,6.8h458.4c0.1-0.2,0.3-0.5,0.6-0.6C415.5,375.6,415.7,374.1,417,373.8z"/>
	<path class="st0 file-4-element-79" d="M426.2,375.3c6.3-0.8,12.7-0.1,19.1,0.1c2.4,0.1,4.8,0.3,7.2,0.5l-0.4-16.9c-5.4,2-18.3,3.1-24.4,3.1   c-3.8,0-7.5-0.4-11.1-1.3v15.8C419.8,376.1,423,375.7,426.2,375.3z"/>
	<path class="st0 file-4-element-80" d="M325.4,329.4c0.5-0.9,1.2-1.6,2-2.2c0.5-0.4,1.1-0.8,1.7-1.1c-1-2-2-4-2.6-5.9c-1.7-4.9,1-9,3-11.7V305   c-6.1,0-23.2,11.8-17.1,20.2c2.8,3.9,7.5,6.8,12.1,8.9C324.5,332.4,324.7,330.9,325.4,329.4z"/>
	<path class="st0 file-4-element-81" d="M366.9,275v-8c0.2-0.2,1-1.3,2-2c0-0.4-0.1-0.6-0.1-0.7c0-0.9-0.1-1.8-0.2-2.7c-3.2-2.5-5.6,2-5.9,2.1l0,0   c0.7,4.2,0.8,8.4-2.4,11.8c-2.9,3.1-6.1,6-9.5,8.6c-1.1,0.9-2.3,1.7-3.5,2.4c-3.3-2.3-9.6-6.6-10.6-6.2c-0.8,0.4-0.1,6.3,2.9,9.1   c-0.8,0.1-1.7,0.2-2.5,0.1c-1.2,0-2.5-0.1-3.7-0.4c2.8-2.9,3.5-8.6,2.7-8.9c-0.9-0.4-6.5,3.3-9.9,5.7c-1-0.6-1.9-1.3-2.8-2   c-3.4-2.6-6.6-5.5-9.5-8.6s-3.5-5.4-2.5-9.3c1.1-4.4-4.9-6.3-5.4-2.1c0,0.4-0.1,0.7-0.1,1.1c0.8,0.6,1.5,1.5,1.6,1.7v8   c-0.6-0.1-1.3-0.5-2-1c0.2,5.3,1.4,10.5,4.1,15.3c2.9,5.2,6.9,9.8,10.9,14.3c2.8,3.2,13.9,12.5,15.7,11.9   c1.8,0.5,14.5-8.7,17.3-11.9c4-4.5,7.4-9.5,10.9-14.3c3.4-4.6,4.5-10.7,4.7-15.6C368.5,274.4,367.6,274.9,366.9,275z"/>
	<path class="st0 file-4-element-82" d="M493.8,341.9c0,0-2.5-11-2-17.1s2.2-14.5-1.5-19.2s-11.8-21.6-11.6-25.2s0.2-5.2-3.7-8.1s-9.2-5.7-9.2-5.7   c-1.3-8.4-7.2-12.8-14-14.2c-3.1-0.7-7-1.2-10.1-0.5c-0.6,0.1-10.6,7.3-10.6,7.3S419,245,414.2,248.8c-9.1,7.3-12.2,4.5-16.8,14.3   c-3.4,7.3-4.4,16.6-9.6,22.7c-5.3,6.2-16.8,8.4-16.8,19.8c0,6.8,0,6.8,0,6.8s-6.1,11.1-3.1,16s5.1,7.6,5.1,7.6s-4.3,10.5-2,13.9   s9.1,6.1,9.1,6.1s6.7,12,16.1,6.1c1.1,3.1,3.4,5.7,6.4,6.8c3.2,1.2,7,0.7,10.3-0.1c1.8-0.5,3.5-1.3,5-2.5c1.6,1.2,3.4,2.1,5.4,2.4   c3.3,0.5,6.1-0.6,8.3-2.6c2.5,1.5,5.3,2.3,8.2,2c2.9-0.3,5.5-1.3,7.7-3c2.8,2,6.1,3,9.5,3.2c3.7,0.2,7.8-0.7,11-3   c2.4-1.8,4.3-4.2,5.2-7c0.9,0,1.9-0.2,3-0.4C484.6,355.9,496.1,349.1,493.8,341.9z"/>
	<path class="st0 file-4-element-83" d="M287.9,293.8c0,0-2-7.3-1.6-11.4s1.7-9.6-1.2-12.8s-9.1-14.4-8.9-16.8s0.1-3.5-2.8-5.4c-3-2-7.1-3.8-7.1-3.8   c-1-5.6-5.6-8.5-10.8-9.5c-2.4-0.4-5.4-0.8-7.8-0.3c-0.5,0.1-8.2,4.9-8.2,4.9s-9.4-9.4-13.1-6.9c-7.1,4.9-9.4,3-12.9,9.5   c-2.6,4.9-3.4,11.1-7.4,15.1c-4.1,4.1-13,5.6-13,13.2c0,4.5,0,4.5,0,4.5s-4.7,7.4-2.4,10.7s3.9,5,3.9,5s-3.3,7-1.5,9.3   c1.8,2.2,7,4.1,7,4.1c-0.6,2.3,6.5,9,15,2c2.6,3,6.4,5.3,10.8,3.2c0,0,1.8,9.5,11.1,7.2c0.8,2.6,3.1,5,8.8,0.1   c8.9,1.9,10.6-7.3,10.6-7.3c5.4,2.6,9.7-1.3,12.3-5c2.2,0.6,4.6,1.2,5.4,1.1C280.8,303.2,289.6,298.7,287.9,293.8z M233.5,295.9   c3.6-2,5.8-4.8,7.7-8.2c1.1,2,7.4,6.5,8.9,7.5C245.4,297.5,238.4,300.6,233.5,295.9z M273.9,270.3c-0.6,1-1.4,1.7-2,2.6   c-0.1,0.1-0.1,0.2-0.2,0.3c-0.6,0.8-1.6,1.1-2.5,0.6c0,0-0.1,0-0.1-0.1c0.1,0.9,0.1,1.8,0.1,2.7l-11,21.6   c0.3-11.7-17.2-13.7-17.2-13.7s-14.1,2.7-16.6,13.7l-10.9-24.1c0-0.7,0.1-1.4,0.1-2.2c-0.2,0.4-0.6,0.7-1.1,0.9   c-0.9,0.3-2-0.3-2.2-1.3c-0.1-0.4-0.1-0.7-0.2-1.1c-2-1.4-2.5-4-2.5-6.2c0-1,0.8-1.8,1.8-1.8c0.9,0,1.6,0.7,1.8,1.5   c0.3-0.1,0.6-0.1,0.9-0.1c0.9,0.1,1.6,0.9,1.6,1.8s-0.1,1.8-0.1,2.7c0,0.5,0,0.9,0,1.3c0,0.1,0,0.2,0,0.3c0,0.1,0,0.2,0.1,0.3   c0.6-6.1,2.1-13.4,4.4-14.6c3.6-1.8,6.2-0.9,9.8,0c3.5,0.9,3.7-1.8,6.9-1.8s2.4,3.3,6.7,1.5c1.2-0.5,2.5-1.1,3.8-1.4   c0.6-0.2,1.3-0.3,1.9-0.3c0.7,0,1.4,0.2,2,0.5c0.9,0.3,1.7,0.8,2.5,1.2c1,0.6,2.1,0.6,3.2,0.4c3.5-0.9,6-0.6,9.5,1.2   c2,1,3.4,6.5,4.2,12.3c0.2-0.6,0.5-1.2,0.9-1.8l0.5-0.9c0.2-0.5,0.7-0.8,1.2-0.8c0.2-0.1,0.4-0.3,0.7-0.4c1.1-0.5,2.3-0.1,2.7,1.1   C274.8,267.5,274.6,269,273.9,270.3z"/>
	<g>
		<path class="st0 file-4-element-84" d="M72.7,321.4c-1.1-2.2-4.7-5.4-7.2-5.7c0,0.2-0.1,0.3-0.1,0.5c-1.2-1-4.3-3.3-10.1-4l1,6.4    c0.1,0.1,0,0.1-0.2,0.2c-2.2,2.8-4.3,4.8-6.2,6c0.2,0.3,0.3,0.6,0.5,0.9c1.2,2.2,2.4,4.5,3.1,6.9c0.5-1.3,0.5-4.3,1.6-3.9    s2.2,3.6,2.3,4.1c0.6,1.6,0.7,3.2,0.8,4.8c0.2,1.5,2.7,3.8,4.3,5.9l-8.8,8c-0.5-0.4-0.9-0.7-1.4-1.1l-0.1,0.2    c-1.2,0.9-2.4,1.9-2.7,2c0,0-0.9,0.6-2.2,1.6c15,0.1,30,0.1,45,0.1C85.1,339.1,73.1,322.2,72.7,321.4z"/>
		<path class="st0 file-4-element-85" d="M43,346.8c-2-3.2-6.9-10.1-7.4-12.3c-1-3.9,0.2-3.5,2.3-6c-0.2-0.9,0.3-2,1.2-2.4c-2.5-2.1-3.7-5.1-3.7-5.1    v-5.4c-3.6,1-7,2.1-9.1,3.1c0-0.1-0.1-0.2-0.1-0.3c-2.8,0.3-6.8,3.5-8,5.7c-0.4,0.7-11.2,16.2-18.4,31c6.9,0.1,13.9,0.2,20.8,0.2    c8.5,0.1,17,0.1,25.5,0.2l-6.5-6.3L43,346.8z"/>
	</g>
	<path class="st0 file-4-element-86" d="M37.2,337.4c-0.7-1.5-1.4-2.9-2.2-4.4c-0.5-0.9-0.2-1.9,0.6-2.4c-1.2-2.2-2.2-4.5-3-6.6   c-2.9-8.2,6-14.5,5.1-15.5c-3.2-4.1-27.5,10.7-20.2,20.9c5.1,7,15.7,11,21.7,12.7C38.3,340.8,37.5,339.1,37.2,337.4z"/>
	<path class="st0 file-4-element-87" d="M75,264.4c-1.2-15.4-7-30.4-32.3-29.3c-25.4,1.1-29.8,14.6-30.5,29.2c-1.4-1.1-3.3-1.8-4.8,0.5   c-2.4,3.5,1.2,10.1,4.8,12.8c0.7,14.6,10.3,26.5,23.3,30.3V320c0,0,1.2,3,3.7,5.1c-0.8,0.5-1.4,1.5-1.2,2.4c-2.2,2.5-3.3,2.1-2.3,6   c0.5,2.2,4.3,8.1,6.4,11.3l-2.4,3.3l7.1,6.9c1.7-1.2,3-2.1,3-2.1c0.2-0.2,1.5-1.1,2.7-2l0.1-0.2c0.5,0.4,0.9,0.7,1.4,1.1l8.8-8   c-1.7-2.1-4.2-4.4-4.3-5.9c-0.2-1.7-0.2-3.2-0.8-4.8c-0.2-0.5-1.2-3.7-2.3-4.1s-1.1,2.6-1.6,3.9c-0.6-2.5-1.9-4.7-3.1-6.9   c-0.2-0.3-0.3-0.6-0.5-0.9c1.9-1.3,3.9-3.2,6.2-6c0.2-0.1,0.3-0.1,0.2-0.2l-1.7-11.5c11.5-4.4,20-15.9,20.7-29.5   c3.6-2.7,7.2-9.3,4.8-12.8C78.4,262.4,76.5,263.2,75,264.4z"/>
	<path class="st0 file-4-element-88" d="M52.3,308.4c-0.8,1,8,7.4,5.1,15.5c-0.5,1.5-1.2,3.1-2,4.6c1,0.1,1.9,1,1.6,2.2c-0.3,1.2-0.4,3.6-0.2,4.2   c0.6,1.4,1.3,2.8,1.5,4.4c5.2-2.2,10.8-5.5,14.1-10C79.8,319.2,55.6,304.4,52.3,308.4z"/>
	<path class="st0 file-4-element-89" d="M70.5,268.9c-3.7,7.3-9.5,17.3-16.7,22.8C51,281.3,43.4,282,43.4,282c2.5,8,4.9,11,6.9,11.9   c-2.2,1.1-4.5,1.7-6.9,1.7c-2.6,0-5.1-0.6-7.4-1.7c1.9-0.9,4.3-3.9,6.8-11.9c0,0-7.7-0.7-10.4,9.8c-7.4-5.2-12.9-14.7-16.5-23   c-1.4-3.2-3.9-3.9-3.9-3.9s-0.1,7.5-0.1,11.1c0,18.3,13.8,35.5,31.3,35.7c17.2,0.2,31.7-17.2,31.9-35.7c0-3,1.2-10.4,1.2-10.4   S72.2,265.4,70.5,268.9z"/>
	<path class="st0 file-4-element-90" d="M212.1,144.6c-2.8-4.1-6.7,1.3-7.1,2.1v1.8c-3.3-16.1-16.9-31.5-32.1-31.5c-14.9,0-26.6,14.9-29.8,30.7   l-0.1-0.9c-0.5-0.7-5.4-6.2-8.1-2.1c-2.6,3.8,3.3,11.1,7.5,13.4c0.9,14.3,10.5,26.1,23.2,29.8v12.6c0,0,2.4,5.8,7.2,6.9   c-0.1,0.7-0.1,1.5-0.2,2.5c0,0.4-0.7,0.6-0.8,1.1c-0.4-0.8-1.3-1.4-2.2-1.3c-1.2,0.1-2.2,1.4-2,2.6l0,0c-0.5-0.7-1.3-1.1-2.1-1   c-1.2,0.2-2.1,1.5-1.9,2.7c-2.2,2.5-3.3,2.1-2.3,6.1c0.1,0.3,0.2,0.6,0.3,0.9c0.1,0,0.2,0.1,0.4,0.1c1.1,0.6,2.2,1.2,3.2,1.9   c0.3-0.2,0.6-0.3,1-0.3c0.8,0,1.7,0.1,2.5,0.4c1.4,0.4,2.6,1.3,3.4,2.6c0.8,1.4,0.9,2.9,0.6,4.4c0.5,0.8,0.9,1.5,1.4,2.3   c0.1,0,0.1,0,0.2,0c0.7,0.2,1.3,0.5,1.8,1c0.2,0.2,0.4,0.4,0.5,0.6c0.1,0.2,0.3,0.4,0.4,0.6c0.1,0.3,0.3,0.6,0.4,0.9   c0.1,0.3,0.1,0.7,0.2,1c0.1,0.6,0,1.1-0.1,1.7l0,0l1.2-0.8c0.4,0.3,0.7,0.6,1.1,0.8l8.8-8.1c-1.7-2.1-4.2-4.4-4.3-5.9   c-0.2-1.7-0.2-3.2-0.8-4.8c-0.2-0.5-1.2-3.7-2.3-4.1s-1.1,2.6-1.6,3.9c-0.6-2.4-1.9-4.7-3.1-6.9c-0.4-0.7-0.8-1.4-1.3-1.9   c-0.2-0.1-0.4-1.4-0.6-2.8c3.1,0.1,7.2-1.9,12.2-8.1c0.2-0.1,0.3-0.1,0.2-0.2l-1.8-12c11.5-4.3,19.9-15.4,20.9-28.6   C209.5,156.9,215,148.7,212.1,144.6z"/>
	<path class="st0 file-4-element-91" d="M208.6,133.3c0.9-2.2,1.1-4.8,0.7-7.3c-1-5.9-5.4-9.6-9.9-12.6v0.1c-0.4-0.3-0.9-0.5-1.4-0.8   c-0.5-0.2-1-0.4-1.4-0.4c-2.1-1.4-4.3-2.6-6.6-3.5c-1-0.4-2-0.8-3-1.1c-5.4-2.3-11.2-3-16.2-0.6c-5.2-3.6-11.4-6.7-16.9-1.5   c-1.5,1.5-2.4,3.3-2.7,5.1c-1.9,0.4-3.7,1.1-5.4,2.1c-6.3,3.9-9.4,11.4-7.8,18.9c0.1,0.2,0.1,0.4,0.2,0.6   c-2.3,5.4,1.6,14.2,2.9,12.2c0.1,1.1,0.1,0.7,0.1,0.7c-0.4,6.8-0.4,14.9-0.4,14.9l5.3,3.1c-0.2-6,0.4-27.9,3.6-29.5   c3.6-1.8,6.2-0.9,9.8,0s3.7-1.8,6.9-1.8s2.4,3.3,6.7,1.5c1.2-0.5,2.5-1.1,3.8-1.4c0.6-0.2,1.3-0.3,1.9-0.3c0.7,0,1.4,0.2,2,0.5   c0.9,0.3,1.7,0.8,2.5,1.2c1,0.6,2.1,0.6,3.2,0.4c3.5-0.9,6-0.6,9.6,1.2c3.4,1.7,10,21.8,7.7,25.1l4-2.8   C207.4,155.5,210.6,138.5,208.6,133.3z"/>
	<path class="st0 file-4-element-92" d="M95.4,148.5c-1.1-1.5-3.2-0.8-5.1,0.2c-3.2-14.8-15.8-25.9-30.9-25.9c-15,0-32,4.5-30.9,25.6   c-2.3-0.9-5-1.5-6.2,0.1c-2.2,3.2,2.4,9.9,5.3,10.4l0.1-0.2c1.1,14.1,10.6,25.7,23.2,29.3v12.6c0,0,3.1,7.7,9.6,7l-0.2,2   c-0.2,0-0.4,0.1-0.5,0.1c-0.4,0.2-0.7,0.6-0.8,1.1c-0.4-0.8-1.3-1.4-2.2-1.3c-1.2,0.1-2.2,1.4-2,2.6l0,0c-0.5-0.7-1.3-1.1-2.1-1   c-1.2,0.2-2.1,1.5-1.8,2.7c-2.2,2.5-3.3,2.1-2.3,6.1c0.7,3,3.9,9.3,6.7,12.5c0,0-1.2,0.9-2.7,2.1l10.1,4.7l1.9-3   c0.7,0.6,1.5,1.2,2.2,1.8l8.8-8.1c-1.7-2.1-4.2-4.4-4.3-5.9c-0.2-1.7-0.2-3.2-0.8-4.8c-0.2-0.5-1.2-3.7-2.3-4.1s-1.1,2.6-1.6,3.9   c-0.6-2.4-1.9-4.7-3.1-6.9c-0.1-0.1-0.1-0.2-0.2-0.4V207c2.5-1,5.4-3.3,8.6-7.4c0.2-0.1,0.3-0.1,0.2-0.2l-1.8-12   c11.7-4.4,20.2-15.8,20.9-29.3C93.9,155.4,97,150.7,95.4,148.5z"/>
	<path class="st0 file-4-element-93" d="M87.8,203c-1.1-2.2-4.7-5.4-7.2-5.7c0,0.1,0,0.1-0.1,0.2c-1.1-1.8-4.2-5.8-10-7.1l1.3,8.9   c0.1,0.1,0,0.1-0.2,0.2c-14.1,17.6-20.8,1.1-20.8,1.1V194c-4,1.6-7.6,3.4-9.9,4.9c-2.7,0.4-6.7,3.5-7.8,5.6   c-0.4,0.8-13.6,19.7-20.6,35.7c3.6,0,7.2,0,10.9-0.1c2.4-1.8,5.5-2.7,8.3-3.3c-0.2,0.1-0.3,0.3-0.5,0.4c2.9-0.9,5.8-1.2,8.9-1.4   c1.3,0.1,2.5,0.2,3.7,0.6l0.2-0.6c0.8,0,1.5,0,2.3,0c2.6,0,5.1,0.2,7.7,0.8l-1.3-1.2c1.6,0.3,3.2,0.7,4.8,1.3l-5-2.3   c1.5-1.2,2.7-2.1,2.7-2.1c-2.8-3.2-6-9.4-6.7-12.5c-1-3.9,0.2-3.5,2.3-6.1c-0.3-1.2,0.6-2.5,1.8-2.7c0.8-0.1,1.7,0.3,2.1,1l0,0   c-0.2-1.2,0.8-2.5,2-2.6c0.9-0.1,1.8,0.5,2.2,1.3c0.1-0.4,0.3-0.9,0.8-1.1c0.7-0.3,1.6-0.1,2.2,0.4c0.6,0.5,1,1.2,1.3,1.9   c1.2,2.2,2.4,4.5,3.1,6.9c0.5-1.3,0.5-4.3,1.6-3.9s2.2,3.6,2.3,4.1c0.6,1.6,0.7,3.2,0.8,4.8c0.2,1.5,2.7,3.8,4.3,5.9l-8.8,8.1   c-0.7-0.6-1.5-1.2-2.2-1.8l-1.9,3l-1.8-0.8c1.4,0.8,2.8,1.8,4,2.9c0.9-0.1,1.7-0.1,2.6-0.1c0.4,0.3,0.8,0.7,1.3,1.1   c0.1-0.5,0.3-0.9,0.7-1.2c1.5-0.1,3-0.1,4.5-0.1c1.9,0,3.8,0,5.7,0l0.4,1.6c0.3-0.2,0.6-0.3,1-0.3c9.2,0,18.5-0.5,27.7-0.8   c0.2-0.5,0.4-1,0.6-1.5c0-0.1,0.1-0.2,0.1-0.3C102.2,223.5,88.2,203.8,87.8,203z"/>
	<path class="st0 file-4-element-94" d="M48.5,220c-0.2-0.7-0.2-1.6,0.1-2.3c0.2-0.6,0.4-0.9,0.8-1.4c0.2-0.3,0.5-0.5,0.9-0.8c0.1-0.6,0.3-1.2,0.5-1.8   c0.1-0.3,0.3-0.6,0.5-0.8c-1.3-2.4-2.6-5-3.5-7.5c-2.9-8.2,6-14.5,5.1-15.5c-3.2-4.1-27.5,10.7-20.2,20.9   c3.9,5.5,11.2,9.1,17.1,11.2C49.2,221.5,48.7,220.8,48.5,220z"/>
	<path class="st0 file-4-element-95" d="M67.4,190c-0.8,1,8,7.4,5.1,15.5c-1.2,3.4-2.9,7-4.7,10.1c0,0,0,0,0.1,0c0.4,0,1,0.2,1.3,0.5   c0.8,1,1.5,2.1,1.7,3.4c0.2,0.8,0.2,1.6,0.2,2.4c5.6-2.2,12.5-5.7,16.4-11.2C94.9,200.7,70.7,185.9,67.4,190z"/>
	<path class="st0 file-4-element-96" d="M73.6,187.3c2.1-5.3,2.8-12.5-0.5-17c-3.3-4.6-9.8-6.6-15.2-7.2c-2.5-0.3-6.5,2.1-8.4,3.3   c-5.7,3.4-8.6,8.2-7.8,15c0.4,3.5,1.4,8.2,3.8,10.8c0.9,1,2,1.8,3.3,2.2c0.5,0.2,5.4,0.4,5.3,0c0.8,2.6,3,5,8.8,0.1   c0.6-0.5,4.5,0,5.7-0.6c1.7-0.9,2.9-2.4,3.8-4C72.8,189.1,73.2,188.3,73.6,187.3z M50.5,174.7c3.6-2,5.8-4.8,7.7-8.2   c1.1,2,7.5,6.5,8.9,7.5C62.4,176.4,55.3,179.4,50.5,174.7z"/>
	<path class="st0 file-4-element-97" d="M97.3,158.2c2.6-4.7,1.3-12.2,0.4-16.8c-0.5-2.8-1.5-5.5-2.1-8.3c-0.5-2.1-0.2-4.6-1.2-6.5   c-0.4-0.7-3-2.6-2.9-3c0.3-2.4-1.1-4.8-3-6.1s-4.2-1.6-6.4-1.4c-0.1,0-0.1,0-0.2,0c-1.7-2.3-4.4-3.6-7.1-4   c-0.9-0.1-1.8-0.2-2.7-0.2c-0.6-0.4-1.1-0.7-1.8-1c-3.2-1.3-6.7,0.1-10.1,0.9c-3.4-0.8-6.9-2.2-10.1-0.9c-3.5,1.5-7.4,1.2-10.5,4   c-0.5,0.4-0.9,0.9-1.5,1.1c-0.4,0.1-0.9,0.1-1.3,0.1c-3.4,0-7,2.1-7.7,5.4c-0.1,0.6-0.1,1.3-0.4,1.9c-0.3,0.5-0.7,0.9-1.1,1.3   c-1.8,1.9-2,4.3-2.2,6.8c-0.3,2.6-2,4.7-3,7.1c-0.9,2.2-1.1,4.6-1.1,6.9c-0.1,4.6,0.1,9.9,3.2,13.6c0.3,0.3,0.6,0.6,0.9,0.9   c0.1,1.9,0.1,3.1,0.1,3.1l5.2,1.9c-0.7-2.1,1-29.6,4.5-31.4s5.9-0.2,9.4,0.7s4.8-1.8,8-1.8s4.4,3.3,8.7,1.5   c1.2-0.5,3.5-2.1,4.8-2.4c0.6-0.2,3.3,2.7,3.9,2.7c0.7,0,1-0.2,1.6,0.1c0.9,0.3,2.6-0.9,3.3-0.5c1,0.6,2.1,0.7,3.2,0.4   c3.5-0.9,0.5-2.3,3.4,0.4c5.2,4.7,9.8,25.5,8.2,30.4l6.1-0.9c0,0-0.3-1.5-0.7-3.9c0,0.1,0,0.1,0,0.2   C96.2,159.9,96.8,159.1,97.3,158.2z"/>
	<path class="st0 file-4-element-98" d="M316.5,138.1c-1.6-2.4-3.6-1.6-5-0.3c-1.2-15.5-7-30.5-32.4-29.4c-25.5,1.1-29.9,14.6-30.6,29.3   c-1.4-1.2-3.3-1.8-4.9,0.5c-2.4,3.6,1.2,10.1,4.8,12.8c0.7,14.6,10.3,26.6,23.3,30.4v12.1c0,0,3.2,7.8,9.7,6.9v9.1   c-1.1,0.2-2,1.4-1.8,2.5l0,0c-0.5-0.7-1.3-1.1-2.1-1c-1.2,0.2-2.1,1.5-1.9,2.7c-2.2,2.5-3.3,2.1-2.3,6.1c0.5,2.3,2.5,6.4,4.6,9.6   l0.1-0.8l2.1,3.7l-0.8,1.7l-1.9,0.5l7.1,6.9c1.7-1.2,3-2.1,3-2.1c0.2-0.2,1.5-1.1,2.7-2l-1.5-1.6c0.5,0.4,1.1,0.9,1.6,1.3l-0.1,0.2   l0.1-0.2c0.4,0.4,0.9,0.7,1.3,1l8.8-8.1c-1.7-2.1-4.2-4.4-4.3-5.9c-0.2-1.7-0.2-3.2-0.8-4.8c-0.2-0.5-1.2-3.7-2.3-4.1   s-1.1,2.6-1.6,3.9c-0.6-2.4-1.9-4.7-3.1-6.9c-0.4-0.7-0.8-1.4-1.3-1.9s-1.5-0.8-2.1-0.4c-0.4,0.2-0.7,0.6-0.8,1.1   c0-0.1-0.1-0.1-0.1-0.2v-10.8c2.5-1,5.4-3.3,8.8-7.4c0.2-0.1,0.3-0.1,0.2-0.2l-1.7-11.5c11.6-4.4,16.6-16.4,20.8-29.7   C315.3,148.2,319,141.6,316.5,138.1z"/>
	<path class="st0 file-4-element-99" d="M315.1,128c-0.5-1.9-2.8-4.4-3-6.2c-1.4-11.9-8.5-11.9-8.5-11.9c-6.5-7.6-14.2-4-14.2-4   c-6.7-5.5-15.1-1.3-15.1-1.3c-8.5-5.2-14.2,3.2-14.5,3.1c-5.9-0.2-9.5,4.6-9.5,4.6c-3.6,3.1-5.7,13.3-5.7,13.3   c-8.4,9.6,1.6,15,1.6,15l0.9,0.8c0.3,2.3,0.8,5.6,0.8,7.4c0,1.2-0.5,2.4-0.5,2.4c-0.9,2.9-1.6,5.9,1.5,8c-1.6,1.9-2.1,4.7-1.3,7.1   s3,4.2,5.5,4.9c-1.7,1.4-2.4,3.9-1.6,5.9s2.9,3.5,5.1,3.6c-0.5,1.4-0.2,3.1,0.9,4.1s2.8,1.4,4.3,0.9c-0.1,2.5,1.3,5.1,3.6,6.4   c1.8,1.1,4.1,1.3,6.1,0.7c3.5,3.6,12.1,3.6,15.5,0c2,0.6,4.3,0.4,6.1-0.7c2.2-1.3,3.7-3.9,3.6-6.4c1.4,0.5,3.2,0.2,4.3-0.9   s1.5-2.7,0.9-4.1c2.2-0.1,4.4-1.6,5.1-3.6s0.1-4.5-1.6-5.9c2.5-0.6,4.6-2.5,5.5-4.9s0.3-5.1-1.3-7.1c3.1-2.1,2.4-5.1,1.5-8   c0,0-0.5-1.3-0.5-2.4c0-1.8,0.4-5.1,0.8-7.4c0.9-0.7,1.8-1.4,2.4-2.2C316.1,136.2,316,131.5,315.1,128z M289.8,163.5   c-3.1-8.8-10-8.2-10-8.2c1.9,6.1,3.7,9.3,5.4,10.9c-0.5,0.2-1,0.4-1.6,0.6c-1.4,0.4-2.9,0.6-4.4,0.6s-3-0.2-4.4-0.6   c-0.4-0.1-0.8-0.2-1.1-0.4c1.7-1.5,3.6-4.7,5.5-11c0,0-7.1-0.6-10.1,8.6c-7.2-5.1-13-14.7-16.7-21.8c2.6-15.6,8.8-28.5,11.5-29.3   c1.8-0.5,3.8-0.1,5.5,0.6c2.4,0.9,4.6,2.2,7,3.2c3.1,1.2,6.1-0.2,8.7-1.9c2.3-1.4,4.8-3.1,7.5-3.1c2.2,0,4.2,2.2,5.7,3.7   c6.4,6.2,7,22,7,28C301.8,150,296.4,158.6,289.8,163.5z"/>
	<g>
		<path class="st0 file-4-element-100" d="M288.5,235.5l1.5,1.6l0.1-0.2C289.6,236.4,289.1,236,288.5,235.5z"/>
		<path class="st0 file-4-element-101" d="M325.2,239c2.5-0.1,4.9-0.1,7.4-0.1c-4.5-13.8-17.5-33.4-22.3-40.5c-0.4,2-1.5,3.8-2.8,5.4    c-0.7,0.9-1.5,1.7-2.2,2.5c-0.7,0.9-1.3,1.8-2,2.7c-0.3,0.4-0.6,0.7-0.9,1.1c-2-3.2-4.3-6.1-7.4-7.8c1.2-3.7,1.2-13.9-6-6.5    c-0.1,0.1-0.2,0-0.2,0.1c0,0.3,0,0.6-0.1,0.9c-0.2,0.4-0.4,0.6-0.7,0.9c-1.5,1-3.2,1.3-4.9,1.7c-0.4,0.1-0.8,0.1-1.1-0.1    c-0.9,0.9-1.5,1.5-2.9,0.6c-1-0.7-2.1-0.9-3.2-0.7c-0.2-1.4-1.2-2.7-2.4-3.4c-0.1-0.1-0.3-0.2-0.4-0.2s-0.1-0.1-0.2-0.1    c-0.2-0.2-0.5-0.4-0.8-0.6c-3.5-2.3-7.2,0.7-7.4,4.2c-2.3,3.4-3,7.9-3.2,12.1c-4-2.6-7.3-6.1-9.5-10.5    c-4.2,6.3-13.4,20.7-18.7,33.1h0.1c1.4,0.6,2.5,1.3,3.8,2.2c1,0.8,1.7,0.9,2.9,0.5c3.5-1,6.8-2.2,10.5-2.4    c2.3-0.1,4.9-0.1,7.3,0.4c0,0.1,0,0.2,0,0.3c0.7,0,1.4,0.1,2,0.3c1.1,0.4,2.1,0.9,3,1.7l0.1-0.6l0,0c0.1,0.1,0.3,0.2,0.4,0.3    c1.5,1.1,2.7,2.5,3.2,4.3c0.4,0,0.7,0,1.1-0.1c0.1,0.2,0.1,0.4,0.2,0.6c13.8,0.2,27.5,1.5,41.2,1.2l-0.2-1.4    c6.1-0.1,12.3-0.3,18.4-0.3C326.5,240.1,325.9,239.6,325.2,239z M291.5,238c-0.4-0.3-0.9-0.7-1.3-1l-0.1,0.2    c-1.2,0.9-2.4,1.9-2.7,2c0,0-1.3,0.9-3,2.1l-7.1-6.9l1.9-0.5l0.8-1.7l-2.1-3.7l-0.1,0.8c-2.1-3.2-4-7.3-4.6-9.6    c-0.6-2.5-0.4-3.2,0.5-4.1c-0.8-0.1-1.6-0.3-2.4-0.5c0-1.2-0.1-3,0-4.9c0.1,0.2,0.3,0.4,0.4,0.5c1.6,1.9,5.5,2,7.1,0    c0,0,0-0.1,0.1-0.1c0.4,0.1,0.8,0.2,1.2,0.2c0-0.1,0-0.1,0-0.2c0-0.2,0-0.3,0.1-0.5c0.1-0.3,0.2-0.6,0.5-0.8    c0.1-0.1,0.2-0.2,0.4-0.3c0.2-0.1,0.4-0.2,0.7-0.2c0.2-0.1,0.5,0,0.7,0c0.2,0.1,0.4,0.2,0.6,0.3s0.4,0.3,0.5,0.5s0.2,0.4,0.3,0.6    c0.6-0.2,1.2-0.6,1.7-0.9c0.8,0.7,1.9,1.2,3.2,1.1c2.1,0,4,1.9,5.6,4.4c-0.3,0.1-0.6,0.2-1,0.2c1,0.8,1.8,3.4,2,3.9    c0.6,1.6,0.6,3.2,0.8,4.8c0.1,1.5,2.7,3.8,4.3,5.9L291.5,238z"/>
	</g>
	<path class="st0 file-4-element-102" d="M297.5,184.7c-0.2,2.6-1.8,5-3.7,6.7c-0.1,0.1-0.3,0.2-0.5,0.3c0.6,2,0.8,4.2,0,6.7c-1.4,4.1-3.9,8.5-6.1,12   c0.4,0.1,0.7,0.2,1.1,0.5c0.9,0.7,1.4,1.8,1.8,2.8c0.2,0.5,0.4,1,0.6,1.5c6-2.1,13.6-5.8,17.6-11.4   C313,197.2,304.9,188.8,297.5,184.7z"/>
	<path class="st0 file-4-element-103" d="M268.5,198.3c-0.7-2-0.7-4-0.3-5.7c-0.3,0-0.5,0-0.9-0.1c-0.5-0.1-1-0.3-1.4-0.5c-0.8-0.4-1.5-1-2.1-1.7   c-1-1.2-1.7-2.6-2-4.1c-6.6,4.5-12.6,11.7-8.5,17.4c4.9,6.9,15.2,10.8,21.3,12.6c0-0.1,0.1-0.2,0.2-0.4s0.3-0.4,0.5-0.5   c0.2-0.2,0.4-0.3,0.6-0.3c0.1-0.1,0.3-0.1,0.5-0.1c0.3,0,0.6-0.1,0.9-0.1c0.1,0,0.3,0,0.4,0.1C275.2,211.3,270.7,204.5,268.5,198.3   z"/>
</g>
<g id="Monk_Backs">
	<path class="st1 file-4-element-104" d="M218.4,175.8c4.2-32.2,18.8-64,42.2-87.4c28-28,65.3-43.5,105-43.5s76.9,15.4,105,43.5   c24.3,24.3,39.2,55.6,42.7,89.4"/>
	<path class="st1 file-4-element-105" d="M295.1,105.3c19.3-15.4,43.8-24.7,70.4-24.7c55.9,0,102.3,41.7,111.2,95"/>
	<line class="st1 file-4-element-106" x1="365.6" y1="44.9" x2="365.6" y2="80.6"/>
	<line class="st1 file-4-element-107" x1="276.5" y1="74.2" x2="300.1" y2="101.2"/>
	<path class="st1 file-4-element-108" d="M224.4,145.6c0,0,11.6,2.5,21.6,4.6"/>
	<line class="st1 file-4-element-109" x1="454.6" y1="74.2" x2="431.1" y2="101.2"/>
	<line class="st1 file-4-element-110" x1="506.7" y1="145.6" x2="471.4" y2="153"/>
	<path class="st1 file-4-element-111" d="M516.3,175.8c4.2-32.2,18.8-64,42.2-87.4c28-28,65.3-43.5,105-43.5s76.9,15.4,105,43.5   c23.9,23.9,38.6,54.4,42.5,87.4"/>
	<path class="st1 file-4-element-112" d="M552.2,175.4c8.6-53.7,55.2-94.8,111.3-94.8c56.5,0,103.3,41.5,111.5,95.8"/>
	<line class="st1 file-4-element-113" x1="663.5" y1="44.9" x2="663.5" y2="80.6"/>
	<line class="st1 file-4-element-114" x1="574.5" y1="74.2" x2="598" y2="101.2"/>
	<line class="st1 file-4-element-115" x1="522.4" y1="145.6" x2="557.6" y2="153"/>
	<line class="st1 file-4-element-116" x1="752.5" y1="74.2" x2="729" y2="101.2"/>
	<line class="st1 file-4-element-117" x1="804.6" y1="145.6" x2="769.4" y2="153"/>
	<path class="st1 file-4-element-118" d="M-57.7,114.4c5.9-9.3,12.8-18,20.8-26c28-28,65.3-43.5,105-43.5S145,60.4,173,88.4   c6.5,6.5,12.3,13.4,17.4,20.8"/>
	<path class="st1 file-4-element-119" d="M211.4,154.5c1.9,6.9,3.2,14,4.1,21.2"/>
	<path class="st1 file-4-element-120" d="M-44.7,355.3c0-75.2,0-161.9,0-161.9c0-62.3,50.5-112.8,112.8-112.8c30.6,0,58.3,12.5,78.6,32.5"/>
	<line class="st1 file-4-element-121" x1="68.1" y1="44.9" x2="68.1" y2="80.6"/>
	<line class="st1 file-4-element-122" x1="-21" y1="74.2" x2="2.5" y2="101.2"/>
	<line class="st1 file-4-element-123" x1="157.1" y1="74.2" x2="133.6" y2="101.2"/>
	<path class="st1 file-4-element-124" d="M206.1,206c14.7,0,31.9,0,41.6,0"/>
	<path class="st1 file-4-element-125" d="M198.4,176.4c17.6,0,38.4,0,53.4,0"/>
	<path class="st1 file-4-element-126" d="M249.1,206c-10.2,0-29.3,0-45,0"/>
	<path class="st1 file-4-element-127" d="M477.4,384c0-8.6,0-17.4,0-26.5"/>
	<path class="st1 file-4-element-128" d="M477.4,275.5c0-39.6,0-69.5,0-69.5h76.3c0,0,0,44.8,0,97.2"/>
	<path class="st1 file-4-element-129" d="M553.7,349.8c0,17.6,0,34.9,0,50.5"/>
	<polygon class="st1 file-4-element-130" points="554.5,206 476.7,206 461.1,176.4 570.1,176.4  "/>
	<polygon class="st1 file-4-element-131" points="527.9,269.4 520.2,269.4 520.2,256.3 510.9,256.3 510.9,269.4 503.3,269.4 503.3,278.8 510.9,278.8    510.9,305.4 520.2,305.4 520.2,278.8 527.9,278.8  "/>
	<path class="st1 file-4-element-132" d="M775.5,282.5c0-42.9,0-76.4,0-76.4s57.7,0,72.8,0"/>
	<polygon class="st1 file-4-element-133" points="852.5,206 774.7,206 759.1,176.4 868.1,176.4  "/>
	<path class="st1 file-4-element-134" d="M233.7,232.4c5.7-12.8,15.2-27.3,18.8-32.8"/>
	<path class="st1 file-4-element-135" d="M332.5,238.7c-5-15-19.8-36.6-23.3-41.8"/>
	<path class="st1 file-4-element-136" d="M306.5,224.5c-0.8-6-1.7-11.8-2.4-17"/>
	<path class="st1 file-4-element-137" d="M258.6,209.2c-0.2,6.9-0.5,16.3-0.8,25"/>
	<path class="st1 file-4-element-138" d="M293.4,191.6c0.6,2,0.8,4.3,0,6.7c-1.3,3.8-3.6,8.9-5.7,12.3"/>
	<path class="st1 file-4-element-139" d="M293.6,215c5.4-2.2,11.4-6.6,14.8-11.3c4.4-6.1-2.7-13.9-9.7-18.3"/>
	<path class="st1 file-4-element-140" d="M272.8,215.6c-6.1-2-14.9-5.8-19.3-12c-4.2-5.8,2-13.1,8.6-17.6"/>
	<path class="st1 file-4-element-141" d="M268.5,191.7c-0.6,2-0.8,4.2,0,6.6c1.5,4.3,5.2,10,7.5,13.6"/>
	<path class="st1 file-4-element-142" d="M271.8,193.3c0,0.1,0,0.2,0,0.2s6.6,16.2,20.4-0.7"/>
	<path class="st2 file-4-element-143" d="M277.3,162.2c1.5,0.4,3.2,0.6,5.1-0.1"/>
	<g>
		<path class="st1 file-4-element-144" d="M243.3,138.6c-1.6,3.2,1,8.5,4,11.4"/>
		<path class="st1 file-4-element-145" d="M315.3,136.9c0.4,0.2,0.8,0.6,1.2,1.2c2.7,4-2.2,11.7-6.1,13.7"/>
	</g>
	<path class="st1 file-4-element-146" d="M246.8,140.6c-2.4-2-9.3-7.9-2.2-15c0,0,2.2-10.2,5.7-13.3c0,0,3.6-4.7,9.5-4.6c0.3,0.1,6-8.3,14.5-3.1   c0,0,8.4-4.1,15.1,1.3c0,0,7.7-3.6,14.2,4c0,0,7.1,0,8.5,11.9c0,0,7.6,12.4-0.3,18"/>
	<path class="st1 file-4-element-147" d="M305.4,143.1c-0.1-6.6-1-22-7-27.8c-1.6-1.5-3.5-3.8-5.7-3.7c-2.8,0-5.2,1.7-7.5,3.1c-2.6,1.6-5.6,3.1-8.7,1.9   c-2.4-0.9-4.6-2.2-7-3.2c-1.8-0.7-3.7-1.1-5.5-0.6c-2.6,0.8-8.8,13.4-11.4,28.8"/>
	<path class="st1 file-4-element-148" d="M269.3,164c-7.3-5.1-13.2-14.9-16.9-22c-0.3-0.6-0.7-1.1-1.1-1.4c-0.7-1-2.2-1.3-2.2-1.3   c-1.3-0.4-2.4-0.4-2.4-0.4s1.1,7,1.1,9.9c0,1.2-0.5,2.4-0.5,2.4c-0.9,2.9-1.6,5.9,1.5,8c-1.6,1.9-2.1,4.7-1.3,7.1s3,4.2,5.5,4.9   c-1.7,1.4-2.4,3.9-1.6,5.9s2.9,3.5,5.1,3.6c-0.5,1.4-0.2,3.1,0.9,4.1s2.8,1.4,4.3,0.9c-0.1,2.5,1.3,5.1,3.6,6.4   c1.8,1.1,4.1,1.3,6.1,0.7c3.5,3.6,12.1,3.6,15.5,0c2,0.6,4.3,0.4,6.1-0.7c2.2-1.3,3.7-3.9,3.6-6.4c1.4,0.5,3.2,0.2,4.3-0.9   s1.5-2.7,0.9-4.1c2.2-0.1,4.4-1.6,5.1-3.6s0.1-4.5-1.6-5.9c2.5-0.6,4.6-2.5,5.5-4.9s0.3-5.1-1.3-7.1c3.1-2.1,2.4-5.1,1.5-8   c0,0-0.5-1.3-0.5-2.4c0-2.9,1.1-9.9,1.1-9.9l-2.4-0.2c-0.6,0.3-1.4,0.9-2.2,1.9c-0.4,0.4-0.8,0.9-1.1,1.4   c-3.6,6.8-9.1,16.1-16,21.3"/>
	<path class="st1 file-4-element-149" d="M285.3,166.2c-0.5,0.2-1.1,0.4-1.6,0.6c-1.4,0.4-2.9,0.6-4.4,0.6s-3-0.2-4.4-0.6c-0.4-0.1-0.7-0.2-1.1-0.4"/>
	<path class="st2 file-4-element-150" d="M278.4,137.2c-2.1,6.1-3.7,13.9-3.7,13.9s3.6,1,7.7,0.4"/>
	<g>
		<path d="M266.9,141.8v-0.1c0.5-1.1-0.5-2.4-1.5-2.7c-1.3-0.4-2.3,0.4-2.7,1.6c-0.9,2.1-1,4.3-0.7,6.6c0.1,0.8,1.1,1.5,1.9,1.6    c0.9,0.1,1.7-0.3,2.2-1.1C267.1,145.9,267.4,143.8,266.9,141.8z" class="undefined file-4-element-151"/>
		<path class="st2 file-4-element-152" d="M259.8,132.7c0,0,6.5-3.3,11.4,0"/>
	</g>
	<g>
		<path d="M295.4,141.8v-0.1c0.5-1.1-0.5-2.4-1.5-2.7c-1.3-0.4-2.3,0.4-2.7,1.6c-0.9,2.1-1,4.3-0.7,6.6c0.1,0.8,1.1,1.5,1.9,1.6    c0.9,0.1,1.7-0.3,2.2-1.1C295.6,145.9,295.9,143.8,295.4,141.8z" class="undefined file-4-element-153"/>
		<path class="st2 file-4-element-154" d="M288.3,132.7c0,0,6.5-3.3,11.4,0"/>
	</g>
	<path class="st2 file-4-element-155" d="M279.2,155.3c0,0-8.3-0.7-10.7,11.1C268.5,166.4,273.8,173,279.2,155.3z"/>
	<path class="st2 file-4-element-156" d="M279.9,155.3c0,0,8.3-0.7,10.7,11.1C290.6,166.4,285.3,173,279.9,155.3z"/>
	<g>
		<path class="st3 file-4-element-157" d="M284.4,241.3c1.7-1.2,3-2.1,3-2.1c0.2-0.2,1.5-1.1,2.7-2"/>
		<g>
			<path class="st2 file-4-element-158" d="M279.8,212.2c-0.5-0.8-1.4-1.3-2.3-1.2c-1.2,0.2-2.1,1.5-1.9,2.7c-2.2,2.5-3.3,2.1-2.3,6.1
					c0.7,3,3.9,9.3,6.7,12.5c0,0-1.2,0.9-2.7,2.1"/>
			<path class="st2 file-4-element-159" d="M300.3,229.9c-1.7-2.1-4.2-4.4-4.3-5.9c-0.2-1.7-0.2-3.2-0.8-4.8c-0.2-0.5-1.2-3.7-2.3-4.1s-1.1,2.6-1.6,3.9
					c-0.6-2.4-1.9-4.7-3.1-6.9c-0.4-0.7-0.8-1.4-1.3-1.9c-0.6-0.5-1.5-0.8-2.1-0.4c-0.4,0.2-0.7,0.6-0.8,1.1
					c-0.4-0.8-1.3-1.4-2.2-1.3c-1.2,0.1-2.2,1.4-2,2.6c-2.1,0.8-3.6,0.9-2.6,5.9c0.7,3.7,4.6,12.1,7.6,14.3c1,0.7,4.1,3.4,7,5.6"/>
			<path class="st3 file-4-element-160" d="M283.7,210.4c0.2,3.2,2.1,8.5,3.1,10.6"/>
			<path class="st3 file-4-element-161" d="M279.8,211.4c0.4,3.1,1.2,8.3,3.4,11.2"/>
			<path class="st2 file-4-element-162" d="M327.7,240.2c-8.1-7.1-20.9-16.3-20.9-16.3l-16.2,15.7c0,0,1.1,1.1,3,2.7"/>
			<path class="st2 file-4-element-163" d="M260.2,234.1c0.1-0.1,0.2-0.1,0.3-0.2c2.9-2.2,5.8-4.4,8.8-6.4c0,0,10.6,10.3,15.1,14.7"/>
		</g>
	</g>
	<g>
		<g>
			<path class="st1 file-4-element-164" d="M11.9,242.1c5.3-12.9,15.3-28.4,19.5-34.8"/>
			<path class="st1 file-4-element-165" d="M109.3,239.7c-6.4-14.4-18.2-31.7-21-35.8"/>
			<path class="st1 file-4-element-166" d="M84.8,226.1c-0.4-3.2-0.9-7.2-1.3-10.1"/>
			<path class="st1 file-4-element-167" d="M37.8,215.7c-0.2,4.4-0.3,11.5-0.5,17"/>
			<path class="st1 file-4-element-168" d="M48.7,221.3c-5.4-2.2-12.5-5.6-16-10.4c-4.8-6.7,4.2-15.5,11.8-19.4"/>
			<path class="st1 file-4-element-169" d="M49.7,194.9c-1.8,2.8-3.4,6.4-1.9,10.6c0.8,2.3,2,4.8,3.2,7.1"/>
			<path class="st1 file-4-element-170" d="M71.7,221.6c5.7-2.2,12.3-5.7,16-10.8c5.3-7.4-6.2-17.3-14.1-20.5"/>
			<path class="st1 file-4-element-171" d="M71.8,199.4c0.5,1.9,1.6,3.9,0.8,6.1c-1,2.9-2.5,6.8-4.1,9.6"/>
			<path class="st1 file-4-element-172" d="M51,195.2c0,2.9,0,5.5,0,5.5s6.7,16.5,20.7-1.1c0.2-0.1,0.3-0.1,0.2-0.2c0,0-0.4-4-0.9-7.1"/>
			<path class="st1 file-4-element-173" d="M89.5,167.5c1.1-0.2,3.1-1.5,4-1.9c1.7-0.7,1.9-2.9,2.8-4.3c2.6-4.7,2.3-15.2,1.4-19.8
					c-0.5-2.8-1.5-5.5-2.1-8.3c-0.5-2.1-0.2-4.6-1.2-6.5c-0.4-0.7-3-2.6-2.9-3c0.3-2.4-1.1-4.8-3-6.1c-1.9-1.3-4.2-1.6-6.4-1.4
					c-0.1,0-0.1,0-0.2,0c-1.7-2.3-4.4-3.6-7.1-4c-0.9-0.1-1.8-0.2-2.7-0.2c-0.6-0.4-1.1-0.7-1.8-1c-3.2-1.3-6.7,0.1-10.1,0.9
					c-3.4-0.8-6.9-2.2-10.1-0.9c-3.5,1.5-7.4,1.2-10.5,4c-0.5,0.4-0.9,0.9-1.5,1.1c-0.4,0.1-0.9,0.1-1.3,0.1c-3.4,0-7,2.1-7.7,5.4
					c-0.1,0.6-0.1,1.3-0.4,1.9c-0.3,0.5-0.7,0.9-1.1,1.3c-1.8,1.9-2,4.3-2.2,6.8c-0.3,2.6-2,4.7-3,7.1c-0.9,2.2-1.1,4.6-1.1,6.9
					c-0.1,4.6,0.1,9.9,3.2,13.6c1.3,1.5,2.9,5.4,4.7,6"/>
			<path class="st1 file-4-element-174" d="M91.1,158c-0.6,11.2-7.6,21-16.2,26.5"/>
			<path class="st1 file-4-element-175" d="M42,183.1c-6.4-4.8-12-12-13.6-20.3"/>
			<path class="st1 file-4-element-176" d="M54.6,171.2c2.3,0.7,5.6,1.2,8.9-0.2"/>
			<path class="st2 file-4-element-177" d="M73.6,187.3c2.1-5.3,2.8-12.5-0.5-17c-3.3-4.6-9.8-6.6-15.2-7.2c-2.5-0.3-6.5,2.1-8.4,3.3
					c-5.7,3.4-8.6,8.2-7.8,15c0.4,3.5,1.4,8.2,3.8,10.8c0.9,1,2,1.8,3.3,2.2c0.5,0.2,5.4,0.4,5.3,0c0.8,2.6,3,5,8.8,0.1
					c0.6-0.5,4.5,0,5.7-0.6c1.7-0.9,2.9-2.4,3.8-4C72.8,189.1,73.2,188.3,73.6,187.3z M50.5,174.7c3.6-2,5.8-4.8,7.7-8.2
					c1.1,2,7.5,6.5,8.9,7.5C62.4,176.4,55.3,179.4,50.5,174.7z"/>
			<path class="st1 file-4-element-178" d="M29.3,165.8c-0.2-6,2.4-29.9,5.6-31.5c3.5-1.8,6.2-0.9,9.8,0s3.7-1.8,6.9-1.8s2.4,3.3,6.7,1.5
					c1.2-0.5,2.5-1.1,3.8-1.4c0.6-0.2,1.3-0.3,1.9-0.3c0.7,0,1.4,0.2,2,0.5c0.9,0.3,1.7,0.8,2.5,1.2c1,0.6,2.1,0.6,3.2,0.4
					c3.5-0.9,6-0.6,9.6,1.2c2.8,1.4,9.7,17,10.1,24.1"/>
			<path class="st2 file-4-element-179" d="M57.6,143.4c0.8,3.4,0.4,6.9-1,10.1c-0.6,1.3-1.3,2.6-1.2,4c0.2,1.2,1.1,2.3,2.3,2.7s2.6-0.1,3.3-1.1"/>
		</g>
	</g>
	<g>
		<path d="M46,148.6v-0.1c0.5-1.1-0.5-2.4-1.5-2.7c-1.3-0.4-2.3,0.4-2.7,1.6c-0.9,2.1-1,4.3-0.7,6.6c0.1,0.8,1.1,1.5,1.8,1.6    c0.9,0.1,1.7-0.3,2.2-1.1C46.2,152.6,46.5,150.5,46,148.6z" class="undefined file-4-element-180"/>
		<path class="st2 file-4-element-181" d="M38.9,139.4c0,0,6.5-3.3,11.4,0"/>
	</g>
	<g>
		<path d="M74.5,148.6c0,0,0-0.1,0.1-0.1c0.5-1.1-0.5-2.4-1.6-2.7c-1.3-0.4-2.3,0.4-2.7,1.6c-0.9,2.1-1,4.3-0.7,6.6    c0.1,0.8,1.1,1.5,1.8,1.6c0.9,0.1,1.7-0.3,2.2-1.1C74.7,152.6,75,150.5,74.5,148.6z" class="undefined file-4-element-182"/>
		<path class="st2 file-4-element-183" d="M67.4,139.4c0,0,6.5-3.3,11.3,0"/>
	</g>
	<g>
		<path class="st3 file-4-element-184" d="M63,238.9c0.5-0.4,1.4-1.1,2.3-1.8"/>
		<g>
			<path class="st2 file-4-element-185" d="M55,212.2c-0.5-0.8-1.4-1.3-2.3-1.2c-1.2,0.2-2.1,1.5-1.8,2.7c-2.2,2.5-3.3,2.1-2.3,6.1
					c0.7,3,3.9,9.3,6.7,12.5c0,0-1.2,0.9-2.7,2.1"/>
			<path class="st2 file-4-element-186" d="M75.5,229.9c-1.7-2.1-4.2-4.4-4.3-5.9c-0.2-1.7-0.2-3.2-0.8-4.8c-0.2-0.5-1.2-3.7-2.3-4.1s-1.1,2.6-1.6,3.9
					c-0.6-2.4-1.9-4.7-3.1-6.9c-0.4-0.7-0.8-1.4-1.3-1.9c-0.6-0.5-1.5-0.8-2.2-0.4c-0.4,0.2-0.7,0.6-0.8,1.1
					c-0.4-0.8-1.3-1.4-2.2-1.3c-1.2,0.1-2.2,1.4-2,2.6c-2.2,0.8-3.6,0.9-2.7,5.9c0.7,3.7,4.6,12.1,7.6,14.3c1,0.7,4.1,3.4,7,5.6"/>
			<path class="st3 file-4-element-187" d="M58.9,210.4c0.2,3.2,2.1,8.5,3.2,10.6"/>
			<path class="st3 file-4-element-188" d="M55,211.4c0.4,3.1,1.2,8.3,3.3,11.2"/>
			<path class="st2 file-4-element-189" d="M104.8,241.8c-7.8-7.2-22.7-17.9-22.7-17.9l-16.2,15.7c0,0,0.7,0.6,1.8,1.7"/>
			<path class="st2 file-4-element-190" d="M33.5,235.5c0.7-0.6,1.4-1.1,2.2-1.7c2.9-2.2,5.8-4.4,8.8-6.4c0,0,3.2,3.1,6.8,6.6"/>
		</g>
	</g>
	<path class="st1 file-4-element-191" d="M139.4,217.5c2.9-4.7,5.5-8.7,7.1-11"/>
	<path class="st1 file-4-element-192" d="M221.1,233.4c-7.5-14.7-18.3-30-18.7-30.7v-0.1"/>
	<path class="st1 file-4-element-193" d="M199.8,227.4c-0.6-4.5-1.2-8.8-1.8-12.7"/>
	<path class="st1 file-4-element-194" d="M160.5,220.2c-4.9-2.2-10.1-5.3-13.2-9.6c-6-8.3,10.2-20.7,17.7-22.4"/>
	<path class="st1 file-4-element-195" d="M165.7,192.7c-2.1,2.8-5.2,7.3-3.3,12.6c0.6,1.9,1.5,3.8,2.5,5.6"/>
	<path class="st1 file-4-element-196" d="M184.4,222.1c6-2.1,13.8-5.8,17.9-11.5c6-8.4-9.4-19.9-16.9-21.4"/>
	<path class="st1 file-4-element-197" d="M186.1,198.2c0.8,2.1,2,4.5,1.1,7.1c-1.1,3.1-3.7,7.3-5.4,10.2"/>
	<path class="st1 file-4-element-198" d="M165.6,187.5c0,1,0,12.9,0,12.9s6.7,16.5,20.8-1.1c0.2-0.1,0.3-0.1,0.2-0.2c0,0-1-8.6-1.5-12.3"/>
	<path class="st1 file-4-element-199" d="M205.5,158.6c-1.8,16.5-15.2,30.4-31.5,30.4c-14.1,0-28-11.1-31.2-27.1"/>
	<path class="st1 file-4-element-200" d="M140.8,144.1c-1.4-1.1-4.3-1.8-5.9,0.5c-2.5,3.7,1.6,10.7,5.3,13.2"/>
	<path class="st1 file-4-element-201" d="M208.1,142.1c1-0.2,4,0.1,4.9,1.5c2.4,3.6-2.3,10.2-5.9,12.9"/>
	<g>
		<path d="M160.6,148.3c0,0,0-0.1,0.1-0.1c0.5-1.1-0.5-2.4-1.6-2.7c-1.3-0.4-2.3,0.4-2.7,1.6c-0.9,2.1-1,4.3-0.7,6.6    c0.1,0.8,1.1,1.5,1.9,1.6c0.9,0.1,1.7-0.3,2.2-1.1C160.8,152.3,161.1,150.2,160.6,148.3z" class="undefined file-4-element-202"/>
		<path class="st2 file-4-element-203" d="M153.5,139.1c0,0,6.5-3.3,11.4,0"/>
	</g>
	<path class="st2 file-4-element-204" d="M166.4,173.9c0,0,7.2,3.9,13.4,0"/>
	<g>
		<path d="M189.1,148.3c0,0,0-0.1,0.1-0.1c0.5-1.1-0.5-2.4-1.6-2.7c-1.3-0.4-2.3,0.4-2.7,1.6c-0.9,2.1-1,4.3-0.7,6.6    c0.1,0.8,1.1,1.5,1.9,1.6c0.9,0.1,1.7-0.3,2.2-1.1C189.4,152.3,189.7,150.2,189.1,148.3z" class="undefined file-4-element-205"/>
		<path class="st2 file-4-element-206" d="M182.1,139.1c0,0,6.5-3.3,11.4,0"/>
	</g>
	<polyline class="st2 file-4-element-207" points="173.9,147.1 169.9,164.2 176.1,163  "/>
	<g>
		<g>
			<path class="st2 file-4-element-208" d="M167.8,212.2c-0.4-0.8-1.4-1.3-2.3-1.2c-1.2,0.2-2.1,1.5-1.9,2.7c-2.2,2.5-3.3,2.1-2.3,6.1
					c0,0.1,0,0.1,0,0.2"/>
			<path class="st2 file-4-element-209" d="M188,229.5c-1.7-2-3.9-4.1-4-5.5c-0.2-1.7-0.2-3.2-0.8-4.8c-0.2-0.5-1.2-3.7-2.3-4.1s-1.1,2.6-1.6,3.9
					c-0.6-2.4-1.9-4.7-3.1-6.9c-0.4-0.7-0.8-1.4-1.3-1.9c-0.6-0.5-1.4-0.8-2.1-0.4c-0.4,0.2-0.7,0.6-0.8,1.1
					c-0.4-0.8-1.3-1.4-2.2-1.3c-1.2,0.1-2.2,1.4-2,2.6c-2.1,0.8-3.6,0.9-2.6,5.9c0.2,1.1,0.7,2.7,1.4,4.4"/>
			<path class="st2 file-4-element-210" d="M175.1,234.3c1.1,0.9,2.3,1.9,3.6,2.9"/>
			<path class="st2 file-4-element-211" d="M171.8,210.4c0.2,3.2,2.1,8.5,3.1,10.6"/>
			<path class="st2 file-4-element-212" d="M167.9,211.4c0.4,3.1,1.2,8.3,3.4,11.2"/>
			<path class="st2 file-4-element-213" d="M214.2,238.8c-8.1-6.9-19.3-14.9-19.3-14.9l-17.2,14.7c0,0,1.6,1.6,4.3,3.9"/>
		</g>
	</g>
	<g>
		<path class="st2 file-4-element-214" d="M208.6,133.3c0.9-2.2,1.1-4.8,0.7-7.3c-1-5.9-5.4-9.6-9.9-12.6v0.1c-0.4-0.3-0.9-0.5-1.4-0.8    c-0.5-0.2-1-0.4-1.4-0.4c-2.1-1.4-4.3-2.6-6.6-3.5c-1-0.4-2-0.8-3-1.1c-5.4-2.3-11.2-3-16.2-0.6c-5.2-3.6-11.4-6.7-16.9-1.5    c-1.5,1.5-2.4,3.3-2.7,5.1c-1.9,0.4-3.7,1.1-5.4,2.1c-6.3,3.9-9.4,11.4-7.8,18.9c0.1,0.2,0.1,0.4,0.2,0.6    c-2.3,5.4,1.6,13.2,2.9,11.2c0.1,1.1,0.1,1.7,0.1,1.7c-0.4,6.8-0.4,14.9-0.4,14.9l4.3,3.1c-0.2-6,1.4-27.9,4.6-29.5    c3.6-1.8,6.2-0.9,9.8,0s3.7-1.8,6.9-1.8c3.3,0,2.4,3.6,7.3,1.2c1.1-0.5,2.2-0.9,3.4-1.2c0.6-0.1,1.1-0.3,1.7-0.2    c0.7,0,1.4,0.2,2,0.5c0.9,0.3,1.7,0.8,2.5,1.2c1,0.6,2.1,0.7,3.2,0.4c3.6-0.9,6-0.6,9.6,1.2c3.4,1.7,7.9,19.9,6.7,25.1l5-2.8    C207.4,155.5,210.6,138.5,208.6,133.3z"/>
	</g>
	<path class="st1 file-4-element-215" d="M10.6,334.7c0-18.4,0-44.1,0-58.9"/>
	<path class="st1 file-4-element-216" d="M118.6,286.4c0,6.1,0,12.9,0,19.8"/>
	<path class="st1 file-4-element-217" d="M98.8,343.9c0-22.5,0-24.5,0-80.8c0,0,2.3,0,5.4,0"/>
	<path class="st1 file-4-element-218" d="M186.9,338.6c0-26.5,0-75.5,0-75.5s3.8,0,8.1,0"/>
	<path class="st1 file-4-element-219" d="M206.8,308.4c0,10.8,0,21.7,0,30.2"/>
	<path class="st1 file-4-element-220" d="M275.1,330.5c0-8.2,0-17.6,0-26.7"/>
	<path class="st1 file-4-element-221" d="M294.4,263.1c0.4,0,0.6,0,0.6,0s0,63.8,0,85.2"/>
	<path class="st1 file-4-element-222" d="M363.3,316.1c0-8,0-16.2,0-23.8"/>
	<path class="st1 file-4-element-223" d="M372.5,263.1c5.2,0,10.7,0,10.7,0s0,11.7,0,26.8"/>
	<path class="st1 file-4-element-224" d="M177.4,242c11.9,0,23.8,0,35.4,0"/>
	<path class="st1 file-4-element-225" d="M266.4,242c21.2,0,41.9,0,59,0"/>
	<path class="st1 file-4-element-226" d="M349.2,242c27,0,43.5,0,43.5,0c3.6,0,6.6,2.9,6.6,6.6v7.9c0,3.6-2.9,6.6-6.6,6.6c0,0-7,0-19.3,0"/>
	<path class="st1 file-4-element-227" d="M305.6,263.1c-7.7,0-15.8,0-24.2,0"/>
	<path class="st1 file-4-element-228" d="M195.6,263.1c-5,0-10.1,0-15.2,0"/>
	<path class="st1 file-4-element-229" d="M102.7,263.1c-9,0-17.9,0-26.7,0"/>
	<path class="st1 file-4-element-230" d="M11.9,263.1c-58.1,0-99.1,0-99.1,0c-3.6,0-6.6-2.9-6.6-6.6v-7.9c0-3.6,2.9-6.6,6.6-6.6c0,0,45.3,0,108.2,0"/>
	<path class="st1 file-4-element-231" d="M67.4,242c13.2,0,26.9,0,40.7,0"/>
	<path class="st2 file-4-element-232" d="M-0.3,354.2c5.6-11.5,13.4-23.5,16.8-28.6"/>
	<path class="st2 file-4-element-233" d="M93.1,355.6c-6.3-13.2-16.3-28-19.4-32.7"/>
	<path class="st2 file-4-element-234" d="M68.8,337.1c-0.2-1.1-0.3-2.2-0.5-3.3"/>
	<path class="st2 file-4-element-235" d="M22.8,334.7c-0.1,3.9-0.3,8.3-0.5,12.9"/>
	<path class="st2 file-4-element-236" d="M36.5,310.7c-2.1,2.7-5.9,7.6-3.9,13.3c0.6,1.8,1.4,3.6,2.3,5.3"/>
	<path class="st2 file-4-element-237" d="M38.9,341.9c-6.1-1.8-16.3-5.7-21.3-12.6c-5.1-7.1,5.2-16.4,12.9-20"/>
	<path class="st2 file-4-element-238" d="M55.8,313.8c1.7,2.7,3.1,6.2,1.7,10.2c-0.6,1.6-1.3,3.2-2.1,4.9"/>
	<path class="st2 file-4-element-239" d="M60.2,338.6c4.7-2.2,9.4-5.2,12.4-9.2c5.4-7.5-6.4-17.5-14.3-20.6"/>
	<path class="st2 file-4-element-240" d="M35.4,311.2c0,3.8,0,8.7,0,8.7s1.2,3,3.7,5.1"/>
	<path class="st2 file-4-element-241" d="M50.7,324.2c1.7-1.3,3.4-3,5.4-5.4c0.2-0.1,0.3-0.1,0.2-0.2c0,0-0.6-3.9-1.1-7.4"/>
	<path class="st2 file-4-element-242" d="M12.2,265.1c0.6-15,4.6-28.9,30.6-30.1c25.7-1.1,31.2,14.4,32.3,30.1"/>
	<path class="st2 file-4-element-243" d="M39.1,290.9c2.1,0.6,5.2,1.2,8.4,0.2"/>
	<path class="st2 file-4-element-244" d="M14.5,266.8c-0.5-0.7-4.3-6.1-7.1-2.1c-2.2,3.3,0.7,9.1,4,12.1"/>
	<path class="st2 file-4-element-245" d="M75.7,263.9c1.4-0.9,3-1.2,4.4,0.8c2.3,3.3-0.8,9.3-4.1,12.2"/>
	<g>
		<g>
			<g>
				<path class="st4 file-4-element-246" d="M45.6,278.9h-0.2l0,0l0,0l0,0c-0.1-0.1-0.3-0.2-0.6-0.2c-0.7,0.1-1.3,0.1-2,0.1c-0.7-0.1-1.3-0.2-2-0.3
					 c-0.8-0.2-1.9-0.4-2.5-0.8l0.3-0.9c0.5-1.4,1.1-2.8,1.7-4.1c1.4-2.7,2.6-5,2.6-8.1c0-0.5-0.6-0.5-0.8-0.1
					 c-1.6,2.9-2.8,5.9-3.9,9c-0.2,0.6-0.5,1.3-0.7,1.9l-0.2,0.5l-0.2,0.9l-0.5,1.9c0.8,0.3,1.7,0.5,2.7,0.7l1,0.2l0.8,0.1
					 c1.1,0.1,2.2,0.2,3.3,0.1h0.2c0.1,0,0.2,0,0.3,0c0.2,0,0.3,0,0.5,0C46.3,279.6,46.3,278.8,45.6,278.9z"/>
			</g>
		</g>
	</g>
	<g>
		<g>
			<path d="M30.5,268.5v-0.1c0.5-1.1-0.5-2.4-1.5-2.7c-1.3-0.4-2.3,0.4-2.7,1.5c-0.9,2.1-1,4.3-0.7,6.5c0.1,0.8,1.1,1.5,1.8,1.6
					c0.9,0.1,1.7-0.3,2.2-1.1C30.7,272.5,31,270.5,30.5,268.5z" class="undefined file-4-element-247"/>
		</g>
	</g>
	<g>
		<g>
			<path d="M59,268.5v-0.1c0.5-1.1-0.5-2.4-1.5-2.7c-1.3-0.4-2.3,0.4-2.7,1.5c-0.9,2.1-1,4.3-0.7,6.5c0.1,0.8,1.1,1.5,1.8,1.6
					c0.9,0.1,1.7-0.3,2.2-1.1C59.2,272.5,59.5,270.5,59,268.5z" class="undefined file-4-element-248"/>
		</g>
	</g>
	<path class="st2 file-4-element-249" d="M42,263.9c-2.1,6.1-3.7,13.8-3.7,13.8s3.6,1,7.6,0.4"/>
	<path class="st1 file-4-element-250" d="M31.6,291.1c-7-5.3-12.2-14.4-15.7-22.4c-1.4-3.2-3.9-3.9-3.9-3.9s-0.1,7.5-0.1,11.1   c0,18.3,13.8,35.5,31.3,35.7c17.2,0.2,31.7-17.2,31.9-35.7c0-3,1.2-10.4,1.2-10.4s-4-0.1-5.7,3.3c-3.6,7.1-9.1,16.7-16,22.2"/>
	<path class="st1 file-4-element-251" d="M50.2,294.4c-1.8,0.8-4.8,1.2-6.7,1.2c-2.5,0-4.9-0.6-7.1-1.5"/>
	<path class="st2 file-4-element-252" d="M43.5,281.9c0,0,8.3-0.7,10.7,11C54.2,292.9,48.9,299.6,43.5,281.9z"/>
	<path class="st2 file-4-element-253" d="M21.5,259.7c0.9-2,2.8-3.6,5-4s4.6,0.3,6.1,1.9"/>
	<path class="st2 file-4-element-254" d="M52.1,257.1c1.2-1.7,3.3-2.6,5.4-2.6s4.1,1.2,5.2,2.9"/>
	<path class="st1 file-4-element-255" d="M42.8,281.9c0,0-8.3-0.7-10.7,11C32.2,292.9,37.4,299.6,42.8,281.9z"/>
	<g>
		<path class="st2 file-4-element-256" d="M46.7,354.9c1.7-1.2,3-2.1,3-2.1c0.2-0.2,1.5-1.1,2.7-2"/>
		<g>
			<path class="st2 file-4-element-257" d="M42.1,325.9c-0.5-0.8-1.4-1.3-2.3-1.2c-1.2,0.2-2.1,1.5-1.8,2.7c-2.2,2.5-3.3,2.1-2.3,6
					c0.7,3,3.9,9.3,6.7,12.5c0,0-1.2,0.9-2.7,2.1"/>
			<path class="st2 file-4-element-258" d="M62.6,343.6c-1.7-2.1-4.2-4.4-4.3-5.9c-0.2-1.7-0.2-3.2-0.8-4.8c-0.2-0.5-1.2-3.7-2.3-4.1
					c-1.2-0.4-1.1,2.6-1.6,3.9c-0.6-2.5-1.9-4.7-3.1-6.9c-0.4-0.7-0.8-1.4-1.3-1.9c-0.6-0.5-1.5-0.8-2.2-0.4c-0.4,0.2-0.7,0.6-0.8,1
					c-0.4-0.8-1.3-1.4-2.2-1.3c-1.2,0.1-2.2,1.4-2,2.6c-2.2,0.8-3.6,0.9-2.7,5.9c0.7,3.7,4.6,12.1,7.6,14.3c1,0.7,4.1,3.4,7,5.6"/>
			<path class="st2 file-4-element-259" d="M46,324c0.2,3.2,2.1,8.5,3.2,10.6"/>
			<path class="st2 file-4-element-260" d="M42.1,325c0.4,3,1.2,8.3,3.3,11.2"/>
			<path class="st2 file-4-element-261" d="M91.5,355.1c-7.9-7.2-22.3-17.6-22.3-17.6L53,353.2c0,0,0.9,0.9,2.4,2.2"/>
			<path class="st2 file-4-element-262" d="M12.6,355.7c3.3-2.9,6.7-5.6,10.2-8.2c2.9-2.2,5.8-4.4,8.8-6.4c0,0,10,9.7,14.7,14.3"/>
		</g>
	</g>
	<path class="st2 file-4-element-263" d="M198.3,355.2c4.3-15.6,12.9-21.3,16-25.9"/>
	<path class="st2 file-4-element-264" d="M293,352.6c-5.6-11.2-15.5-19.5-21.2-24.9"/>
	<path class="st2 file-4-element-265" d="M270.4,304.7c1,0.1,2.3,0,3.9-0.3c6.5-1.3,15.4-5.8,13.6-10.6c0,0-2-7.3-1.6-11.4s1.7-9.6-1.2-12.8   s-9.1-14.4-8.9-16.8s0.1-3.5-2.8-5.4c-3-2-7.1-3.8-7.1-3.8c-1-5.6-5.6-8.5-10.8-9.5c-2.4-0.4-5.4-0.8-7.8-0.3   c-0.5,0.1-8.2,4.9-8.2,4.9s-9.4-9.4-13.1-6.9c-7.1,4.9-9.4,3-12.9,9.5c-2.6,4.9-3.4,11.1-7.4,15.1c-4.1,4.1-13,5.6-13,13.2   c0,4.5,0,4.5,0,4.5s-4.7,7.4-2.4,10.7c2.4,3.2,3.9,5,3.9,5s-3.3,7-1.5,9.3s7,4.1,7,4.1s5.6,8.7,13.4,3.5"/>
	<path class="st2 file-4-element-266" d="M266.8,340.6c-0.2-1.2-0.4-2.5-0.5-3.7"/>
	<path class="st2 file-4-element-267" d="M220.8,337.9c-0.1,3.6-0.3,7.7-0.4,12.1"/>
	<path class="st2 file-4-element-268" d="M232.9,316.2c-2.1,2.8-3.9,6.3-2.2,11.1c0.5,1.3,1.9,3.2,2.9,4.8"/>
	<path class="st2 file-4-element-269" d="M239.1,345.8c-4.9-1.2-17.5-5-23.4-13.2c-4.9-6.9,4.6-15.9,12.3-19.7"/>
	<path class="st2 file-4-element-270" d="M255.6,320.6c0.6,2,0.8,4.2,0,6.7c-0.3,0.9-0.7,1.9-1.1,2.8"/>
	<path class="st2 file-4-element-271" d="M258.5,341.7c4.6-2.2,9.2-5.1,12-9.1c5.6-7.8-7.5-18.4-15.3-21"/>
	<g>
		<g>
			<path d="M229,269.7c0,0,0-0.1,0.1-0.1c0.5-1.1-0.5-2.4-1.6-2.7c-1.3-0.4-2.3,0.4-2.7,1.5c-0.9,2.1-1,4.3-0.7,6.6
					c0.1,0.8,1.1,1.5,1.9,1.6c0.9,0.1,1.7-0.3,2.2-1.1C229.2,273.8,229.5,271.7,229,269.7z" class="undefined file-4-element-272"/>
		</g>
	</g>
	<path class="st2 file-4-element-273" d="M238.7,292.6c2.1,0.5,4.7,0.7,7.4-0.3"/>
	<path class="st2 file-4-element-274" d="M233.5,317.6c0,1.8,0,4.8,0,4.8s1,2.4,3,4.4"/>
	<path class="st2 file-4-element-275" d="M250.3,325.6c1.2-1.1,2.6-2.5,3.9-4.3c0.2-0.1,0.3-0.1,0.2-0.2c0,0-0.5-3.3-1-6.5"/>
	<g>
		<g>
			<path d="M257.6,269.7v-0.1c0.5-1.1-0.5-2.4-1.5-2.7c-1.3-0.4-2.3,0.4-2.7,1.5c-0.9,2.1-1,4.3-0.7,6.6c0.1,0.8,1.1,1.5,1.9,1.6
					c0.9,0.1,1.7-0.3,2.2-1.1C257.8,273.8,258.1,271.7,257.6,269.7z" class="undefined file-4-element-276"/>
		</g>
	</g>
	<path class="st2 file-4-element-277" d="M269.2,266.1c0.4-0.5,3.2-4.4,5.3-1.5c2.2,3.1-2.4,9.5-5.3,10"/>
	<path class="st2 file-4-element-278" d="M212.7,264.2c-0.4-0.5-3.2-4.6-5.3-1.5c-2.2,3.2,2.4,9.9,5.3,10.4"/>
	<path class="st2 file-4-element-279" d="M274.4,289.1c4.7-6.2-4.1-15-4.1-15l-12.2,24c0.3-11.7-17.2-13.7-17.2-13.7s-14.1,2.7-16.6,13.7l-11.5-25.3   c0,0-7.3,12.9-4.8,16.4c0,0-3.8,7.2,2.7,9.2c0,0,6,14.6,15.2,10.2c0,0,1.8,9.5,11.1,7.2c0.8,2.6,3.1,5,8.8,0.1   c8.9,1.9,10.6-7.3,10.6-7.3c9.2,4.5,15.2-10.2,15.2-10.2C278.2,296.2,274.4,289.1,274.4,289.1z M233.5,295.9c3.6-2,5.8-4.8,7.7-8.2   c1.1,2,7.4,6.5,8.9,7.5C245.4,297.5,238.4,300.6,233.5,295.9z"/>
	<polyline class="st2 file-4-element-280" points="240.9,264.6 237.4,279.6 242.4,280.5  "/>
	<path class="st2 file-4-element-281" d="M269.1,275.7c-0.3-7.5-2.1-17.7-4.8-19c-3.5-1.8-6-2.1-9.6-1.2c-1.1,0.3-2.2,0.2-3.2-0.4   c-0.8-0.5-1.6-0.9-2.5-1.2c-0.6-0.2-1.3-0.4-2-0.5c-0.6,0-1.3,0.1-1.9,0.3c-1.3,0.4-2.6,0.9-3.8,1.4c-4.2,1.8-3.5-1.5-6.7-1.5   s-3.3,2.7-6.9,1.8c-3.5-0.9-6.2-1.8-9.8,0c-2.9,1.4-4.5,12.3-4.6,18.6"/>
	<path class="st2 file-4-element-282" d="M221.5,264.9c2.9-2.8,7.7-3.6,11.4-1.9"/>
	<path class="st2 file-4-element-283" d="M251,262.7c3.8-1.4,8.4-0.1,11,3"/>
	<g>
		<path class="st2 file-4-element-284" d="M247.5,355.5c0.6-0.4,1-0.7,1-0.7c0.2-0.2,1.5-1.1,2.7-2"/>
		<g>
			<path class="st2 file-4-element-285" d="M240.9,327.9c-0.4-0.8-1.4-1.3-2.3-1.2c-1.2,0.2-2.1,1.5-1.9,2.7c-2.2,2.5-3.3,2.1-2.3,6
					c0.7,3,3.9,9.3,6.7,12.5c0,0-1.2,0.9-2.7,2.1"/>
			<path class="st2 file-4-element-286" d="M261.4,345.5c-1.7-2.1-4.2-4.4-4.3-5.9c-0.2-1.7-0.2-3.2-0.8-4.8c-0.2-0.5-1.2-3.7-2.3-4.1s-1.1,2.6-1.6,3.9
					c-0.6-2.5-1.9-4.7-3.1-6.9c-0.4-0.7-0.8-1.4-1.3-1.9c-0.6-0.5-1.4-0.8-2.1-0.4c-0.4,0.2-0.7,0.6-0.8,1c-0.4-0.8-1.3-1.4-2.2-1.3
					c-1.2,0.1-2.2,1.4-2,2.6c-2.1,0.8-3.6,0.9-2.6,5.9c0.7,3.7,4.6,12.1,7.6,14.3c1,0.7,4.1,3.4,7,5.6"/>
			<path class="st2 file-4-element-287" d="M244.8,326c0.2,3.2,2.1,8.5,3.1,10.6"/>
			<path class="st2 file-4-element-288" d="M240.9,327c0.4,3,1.2,8.3,3.4,11.2"/>
			<path class="st2 file-4-element-289" d="M288,355.3c-8-6.6-20.1-15.8-20.1-15.8s-10.5,10.1-14.6,14.1"/>
			<path class="st2 file-4-element-290" d="M214.6,354.8c2.6-2.2,4.3-3.3,7-5.3c2.9-2.2,5.8-4.4,8.8-6.4c0,0,7.3,7.1,12.4,12"/>
		</g>
	</g>
	<path class="st2 file-4-element-291" d="M292.2,355c5-12.4,14.8-27.4,18.6-33.2"/>
	<path class="st2 file-4-element-292" d="M366.7,322.5c-1.8-2.7-3-4.5-3.1-4.7l0,0"/>
	<path class="st2 file-4-element-293" d="M316.8,331c-0.1,3.8-0.3,8.1-0.5,12.7"/>
	<path class="st2 file-4-element-294" d="M360.8,339c-0.5-3.3-0.9-6.5-1.3-9.5"/>
	<path class="st2 file-4-element-295" d="M327.8,310.4c-1.6,2.6-3.1,6-1.7,9.8c0.5,1.5,1.2,3.1,2,4.6"/>
	<path class="st2 file-4-element-296" d="M323.8,334.1c-4.5-2-9.1-4.9-11.9-8.8c-4.5-6.3,3.9-14.5,11-18.2"/>
	<path class="st2 file-4-element-297" d="M346.9,309.4c1.9,2.6,4,6.5,2.4,10.9c-1,2.9-2.6,6-4.2,8.8"/>
	<path class="st2 file-4-element-298" d="M348,335.5c5.4-2,11.9-5.4,15.4-10.3c4.5-6.3-4-14.6-11.1-18.3"/>
	<g>
		<path d="M324.5,266.2v-0.1c0.4-1-0.5-2.3-1.5-2.6c-1.2-0.3-2.1,0.4-2.6,1.5c-0.8,2-1,4-0.7,6.2c0.1,0.8,1,1.4,1.7,1.5    c0.9,0.1,1.6-0.3,2.1-1C324.7,270,325,268.1,324.5,266.2z" class="undefined file-4-element-299"/>
	</g>
	<g>
		<g>
			<path d="M351.3,266.2v-0.1c0.4-1-0.5-2.3-1.5-2.6c-1.2-0.3-2.1,0.4-2.6,1.5c-0.8,2-1,4-0.7,6.2c0.1,0.8,1,1.4,1.7,1.5
					c0.9,0.1,1.6-0.3,2.1-1C351.5,270,351.8,268.1,351.3,266.2z" class="undefined file-4-element-300"/>
		</g>
		<g>
			<path d="M351.3,266.2v-0.1c0.4-1-0.5-2.3-1.5-2.6c-1.2-0.3-2.1,0.4-2.6,1.5c-0.8,2-1,4-0.7,6.2c0.1,0.8,1,1.4,1.7,1.5
					c0.9,0.1,1.6-0.3,2.1-1C351.5,270,351.8,268.1,351.3,266.2z" class="undefined file-4-element-301"/>
		</g>
	</g>
	<g>
		<path class="st3 file-4-element-302" d="M335.4,354.9c1.7-1.2,3-2.1,3-2.1c0.2-0.2,1.5-1.1,2.7-2"/>
		<g>
			<path class="st2 file-4-element-303" d="M330.8,325.9c-0.5-0.8-1.4-1.3-2.3-1.2c-1.2,0.2-2.1,1.5-1.9,2.7c-2.2,2.5-3.3,2.1-2.3,6
					c0.7,3,3.9,9.3,6.7,12.5c0,0-1.2,0.9-2.7,2.1"/>
			<path class="st2 file-4-element-304" d="M351.3,343.6c-1.7-2.1-4.2-4.4-4.3-5.9c-0.2-1.7-0.2-3.2-0.8-4.8c-0.2-0.5-1.2-3.7-2.3-4.1
					c-1.1-0.4-1.1,2.6-1.6,3.9c-0.6-2.5-1.9-4.7-3.1-6.9c-0.4-0.7-0.8-1.4-1.3-1.9c-0.6-0.5-1.5-0.8-2.1-0.4c-0.4,0.2-0.7,0.6-0.8,1
					c-0.4-0.8-1.3-1.4-2.2-1.3c-1.2,0.1-2.2,1.4-2,2.6c-2.1,0.8-3.6,0.9-2.6,5.9c0.7,3.7,4.6,12.1,7.6,14.3c1,0.7,4.1,3.4,7,5.6"/>
			<path class="st3 file-4-element-305" d="M334.8,324c0.2,3.2,2.1,8.5,3.1,10.6"/>
			<path class="st3 file-4-element-306" d="M330.8,325c0.4,3,1.2,8.3,3.4,11.2"/>
			<path class="st2 file-4-element-307" d="M369.9,346.6c-6.3-4.9-12.1-9.1-12.1-9.1l-16.2,15.7c0,0,0.9,0.9,2.4,2.2"/>
			<path class="st2 file-4-element-308" d="M301.6,355.5c3.2-2.8,6.5-5.4,9.9-7.9c2.9-2.2,5.8-4.4,8.8-6.4c0,0,8.8,8.5,13.8,13.4"/>
		</g>
	</g>
	<path class="st2 file-4-element-309" d="M329.1,310.8c0,2.6,0,4.9,0,4.9s6.3,15.5,19.5-1c0.2-0.1,0.2-0.1,0.2-0.2c0,0-0.4-2.8-0.9-5.7"/>
	<path class="st2 file-4-element-310" d="M305.6,274.1c0.3,5.3,1.4,10.4,4.1,15.2c2.9,5.2,6.9,9.8,10.9,14.3c2.8,3.2,13.9,12.5,15.7,11.9   c1.8,0.5,14.5-8.7,17.3-11.9c4-4.5,7.4-9.5,10.9-14.3c3.2-4.4,4.3-10,4.7-14.9"/>
	<path class="st2 file-4-element-311" d="M368.9,264.5C368.9,264.4,368.9,264.4,368.9,264.5c0-0.9-0.1-1.8-0.2-2.7c-3.2-2.5-5.6,2-5.9,2.1l0,0   c0.7,4.2,0.8,8.4-2.4,11.8c-2.9,3.1-6.1,6-9.5,8.6c-0.5,0.4-1,0.8-1.5,1.1"/>
	<path class="st2 file-4-element-312" d="M339,289.8c-0.6,0.1-1.3,0.1-1.9,0.1c-1.1,0-2.1-0.1-3.2-0.3"/>
	<path class="st2 file-4-element-313" d="M325.7,286c-0.8-0.5-1.6-1.1-2.3-1.7c-3.4-2.6-6.6-5.5-9.5-8.6s-3.5-5.4-2.5-9.3c1.1-4.4-4.9-6.3-5.4-2.1   c0,0.2,0,0.4-0.1,0.5"/>
	<g>
		<g>
			<path class="st2 file-4-element-314" d="M323.5,288.2c0,0,11.2-8.2,12.6-7.6S334.4,297.9,323.5,288.2z"/>
			<path class="st2 file-4-element-315" d="M349.3,288.2c0,0-11.2-8.2-12.6-7.6C335.3,281.1,338.4,297.9,349.3,288.2z"/>
		</g>
	</g>
	<path class="st2 file-4-element-316" d="M308.9,262.1c3.5-12.7,13.1-23,27.4-23c15.4,0,25.2,9.9,28.9,22.3"/>
	<path class="st2 file-4-element-317" d="M367,267c0.3-0.5,3-4.1,5-1.4c2.1,2.9-2.3,8.9-5,9.3V267z"/>
	<path class="st2 file-4-element-318" d="M335.6,260.8c0.7,3.1,0.4,6.5-0.9,9.5c-0.5,1.2-1.2,2.5-1.1,3.8c0.1,1.2,1,2.2,2.1,2.5s2.4-0.1,3.1-1"/>
	<path class="st2 file-4-element-319" d="M315.7,259.2c2.3-3.1,7.1-3.9,10.3-1.7"/>
	<path class="st2 file-4-element-320" d="M345.5,256.1c1.5-1.5,3.8-2.1,5.9-1.6s3.9,2,4.7,3.9"/>
	<path class="st2 file-4-element-321" d="M307.5,268.5v6.5c-2.7-0.5-7.1-6.4-5-9.3c2-2.7,4.6,0.9,5,1.4"/>
	<g>
		<path d="M130,258.1c0,0,0-0.1,0.1-0.1c0.4-1-0.5-2.3-1.4-2.6c-1.2-0.3-2.1,0.4-2.6,1.5c-0.8,2-0.9,4-0.7,6.2    c0.1,0.8,1,1.4,1.7,1.5c0.8,0.1,1.6-0.3,2.1-1C130.2,261.9,130.5,260,130,258.1z" class="undefined file-4-element-322"/>
	</g>
	<g>
		<path d="M156.8,258.1c0,0,0-0.1,0.1-0.1c0.4-1-0.5-2.3-1.4-2.6c-1.2-0.3-2.1,0.4-2.6,1.5c-0.8,2-0.9,4-0.7,6.2    c0.1,0.8,1,1.4,1.7,1.5c0.9,0.1,1.6-0.3,2.1-1C157,261.9,157.3,260,156.8,258.1z" class="undefined file-4-element-323"/>
	</g>
	<path class="st2 file-4-element-324" d="M141.1,252.7c0.7,3.1,0.4,6.5-0.9,9.5c-0.5,1.2-1.2,2.5-1.1,3.8c0.1,1.2,1,2.2,2.1,2.5s2.4-0.1,3.1-1"/>
	<path class="st2 file-4-element-325" d="M95.3,354.2c2.9-12.4,15.3-31.8,20.4-39.6"/>
	<path class="st2 file-4-element-326" d="M192.9,354.6c-2.5-13.7-19.4-38.4-23.1-43.9"/>
	<path class="st2 file-4-element-327" d="M167.3,337.3c-0.7-5.2-1.5-10.5-2.1-15.1"/>
	<path class="st2 file-4-element-328" d="M122.3,322.3c-0.2,6.6-0.5,14.8-0.8,23.2"/>
	<path class="st2 file-4-element-329" d="M133.4,302.1c-1.7,2.6-3.2,6.1-1.8,10c1.4,4,3.8,8.2,6,11.6"/>
	<path class="st2 file-4-element-330" d="M133.5,327.6c-5.5-2-12.4-5.4-16.1-10.5c-4.5-6.2,3.8-14.3,10.8-18.1"/>
	<path class="st2 file-4-element-331" d="M152.3,301.1c1.9,2.6,4.1,6.5,2.6,11c-1.6,4.4-4.4,9.2-6.7,12.7"/>
	<path class="st2 file-4-element-332" d="M152.1,327.9c5.6-2,13-5.4,16.9-10.8c4.7-6.6-4.7-15.2-12-18.7"/>
	<path class="st2 file-4-element-333" d="M134.6,302.9c0,2.5,0,4.6,0,4.6s6.3,15.5,19.5-1c0.2-0.1,0.2-0.1,0.2-0.2c0,0-0.4-2.6-0.8-5.4"/>
	<path class="st2 file-4-element-334" d="M116.8,255.6c0.7-4.5,1.7-10.2,2.9-10.8c3.3-1.7,5.9-0.8,9.2,0s3.5-1.7,6.4-1.7c3,0,2.3,3.1,6.2,1.4   c1.2-0.5,2.3-1,3.6-1.4c0.6-0.1,1.2-0.3,1.8-0.3s1.3,0.2,1.9,0.4c0.8,0.3,1.6,0.7,2.4,1.2c0.9,0.5,2,0.6,3,0.3   c3.3-0.8,7.6-0.6,10.9,1.1c0.8,0.4,1.5,2.3,2,5 M170.8,279.8c1,0,2-0.1,2.9-0.2c5.3-0.6,10.1-4.1,8.7-7.7c-0.6-1.7-2.1-2.8-4-3.6   c0-0.1,0.1-0.3,0.1-0.4c1.1-0.7,2-1.6,2.6-2.5c0.8-1.5,0.8-3,0.3-4.5c-0.3-1-0.7-2.1-1.1-3.1c0.3-0.6,0.6-1.2,0.7-1.8   c0.1-0.4,0.3-0.8,0.4-1.1c0.5-2.3,0.4-4.9-1-6.9c0.1-0.3,0.1-0.6,0.1-0.9c0.2-2.4-1.1-5-3.1-6.5c-0.4-0.3-0.8-0.5-1.2-0.8   c0.1-0.4,0.2-0.8,0.3-1.2c0.3-3-1.6-5.8-4.3-7.4c0.6-2.3-0.4-4.8-2.4-6.4c-1.7-1.3-4.3-2.1-6.7-2c-0.1,0-0.2,0-0.2,0   c-0.6-0.7-1.5-1.4-2.5-1.8c-1.2-0.6-2.5-0.9-3.9-0.9c-1.6-2-4.2-3.5-7.5-3.7c-2.4-0.1-4.8,0.6-6.5,1.9c-0.2,0.1-0.3,0.2-0.4,0.4   c-1.4-0.7-3-1-4.6-1.1c-0.1,0-0.3,0-0.4,0c-1.2-0.1-2.4-0.1-3.6,0.1c-1.6,0.3-2.9,1-3.7,1.9c-0.1,0.1-0.3,0.2-0.4,0.3   c-1.1-0.1-2.3,0.1-3.4,0.3c-2.5,0.6-4.3,2-5.1,3.8c-0.3,0-0.6,0.1-0.9,0.2c-3.8,0.9-6.7,3.8-6.6,6.9c-1.2,0.9-2.1,1.9-2.7,3.2   c-0.9,1.3-1.4,2.8-1.4,4.4c0,0.6,0.1,1.2,0.4,1.7c-0.1,0.1-0.2,0.2-0.4,0.2c-2,1.5-3.3,4.1-3.2,6.5c0,0.2,0.1,0.5,0.1,0.8   c-1.4,2.1-1.6,4.7-1.1,7.1c0.1,0.4,0.2,0.8,0.3,1.1c0.1,0.6,0.4,1.2,0.7,1.8c-0.4,1-0.8,2.1-1.1,3.1c-0.4,1.4-0.5,3,0.3,4.5   c0.6,1,1.5,1.8,2.6,2.5c0,0.1,0.1,0.3,0.1,0.4c-1.9,0.8-3.4,1.9-4,3.6c-1.4,3.6,3.4,7.1,8.7,7.7c0.6,0.1,1.2,0.1,1.8,0.1   c0,0,0-0.5,0.1-1.1"/>
	<path class="st2 file-4-element-335" d="M114.1,278.9c0.3,0.8,0.7,1.5,1.2,2.2c2.9,5.2,6.9,9.8,10.9,14.3c2.8,3.2,13.9,12.5,15.7,11.9   c1.8,0.5,14.5-8.7,17.3-11.9c4-4.5,8-9.1,10.9-14.3c0.1-0.1,0.1-0.2,0.2-0.4"/>
	<path class="st2 file-4-element-336" d="M167.4,251.6c0.5,5.6,2.8,11.2-1.6,16c-2.9,3.1-6.1,6-9.5,8.6c-0.2,0.1-0.4,0.3-0.6,0.4"/>
	<path class="st2 file-4-element-337" d="M147.1,281.2c-1.5,0.4-3,0.6-4.5,0.6c-1.8,0.1-3.6-0.2-5.4-0.8c-0.1,0-0.2-0.1-0.4-0.1"/>
	<path class="st2 file-4-element-338" d="M129.2,276.4c-0.1-0.1-0.2-0.1-0.3-0.2c-3.4-2.6-6.6-5.5-9.5-8.6s-3.5-5.4-2.5-9.3c0.1-0.5,0.1-0.9,0.1-1.3"/>
	<path class="st2 file-4-element-339" d="M129,278.1c0,0,11.2-8.2,12.6-7.6C143,271,140,287.7,129,278.1z"/>
	<path class="st2 file-4-element-340" d="M154.8,278.1c0,0-11.2-8.2-12.6-7.6C140.9,271,143.9,287.7,154.8,278.1z"/>
	<path class="st2 file-4-element-341" d="M119.8,254.1c2.6-4,8.9-5,12.6-2.1"/>
	<path class="st2 file-4-element-342" d="M150.2,252c3-2.9,8.6-2.2,10.7,1.3"/>
	<g>
		<path class="st2 file-4-element-343" d="M143.8,354.9c1.7-1.2,3-2.1,3-2.1c0.2-0.2,1.5-1.1,2.7-2"/>
		<g>
			<path class="st2 file-4-element-344" d="M139.2,325.9c-0.4-0.8-1.4-1.3-2.3-1.2c-1.2,0.2-2.1,1.5-1.9,2.7c-2.2,2.5-3.3,2.1-2.3,6
					c0.7,3,3.9,9.3,6.7,12.5c0,0-1.2,0.9-2.7,2.1"/>
			<path class="st2 file-4-element-345" d="M159.8,343.6c-1.7-2.1-4.2-4.4-4.3-5.9c-0.2-1.7-0.2-3.2-0.8-4.8c-0.2-0.5-1.2-3.7-2.3-4.1s-1.1,2.6-1.6,3.9
					c-0.6-2.5-1.9-4.7-3.1-6.9c-0.4-0.7-0.8-1.4-1.3-1.9c-0.6-0.5-1.4-0.8-2.1-0.4c-0.4,0.2-0.7,0.6-0.8,1c-0.4-0.8-1.3-1.4-2.2-1.3
					c-1.2,0.1-2.2,1.4-2,2.6c-2.1,0.8-3.6,0.9-2.6,5.9c0.7,3.7,4.6,12.1,7.6,14.3c1,0.7,4.1,3.4,7,5.6"/>
			<path class="st2 file-4-element-346" d="M143.2,324c0.2,3.2,2.1,8.5,3.1,10.6"/>
			<path class="st2 file-4-element-347" d="M139.2,325c0.4,3,1.2,8.3,3.4,11.2"/>
			<path class="st2 file-4-element-348" d="M187.7,354.3c-8-7.2-21.5-16.8-21.5-16.8L150,353.2c0,0,0.8,0.8,2.1,2"/>
			<path class="st2 file-4-element-349" d="M110.2,355.3c3.2-2.7,6.4-5.3,9.7-7.8c2.9-2.2,5.8-4.4,8.8-6.4c0,0,10.1,9.8,14.8,14.4"/>
		</g>
	</g>
	<path class="st1 file-4-element-350" d="M312.1,548.8c-136.1,0-354.5,0-354.5,0V377.1c0,0,345.2,0,438.1,0"/>
	<rect x="48.4" y="377.1" class="st1 file-4-element-351" width="19.7" height="171"/>
	<rect x="148" y="377.1" class="st1 file-4-element-352" width="19.7" height="171"/>
	<rect x="245.9" y="377.1" class="st1 file-4-element-353" width="19.7" height="171"/>
	<path class="st1 file-4-element-354" d="M347.1,416.1c0-22.6,0-39,0-39h19.7c0,0,0,16.9,0,40"/>
	<path class="st1 file-4-element-355" d="M408.6,377.1c-112.8,0-451.5,0-451.5,0c-3.8,0-6.8-3-6.8-6.8v-8c0-3.8,3-6.8,6.8-6.8c0,0,288,0,421.4,0"/>
	<rect x="313.3" y="440.2" class="st1 file-4-element-356" width="21.9" height="183.6"/>
	<path class="st1 file-4-element-357" d="M512,440.2c6,0,16.2,0,17.3,0"/>
	<path class="st1 file-4-element-358" d="M529.5,508.2c0,52.3,0,115.6,0,115.6h-21.9c0,0,0-82.9,0-137.3"/>
	<path class="st1 file-4-element-359" d="M723.7,483.5c0,54.3,0,140.3,0,140.3h-21.9c0,0,0-77.6,0-131.9"/>
	<path class="st1 file-4-element-360" d="M499.4,417c14.9,0,30.1,0,45.3,0"/>
	<path class="st1 file-4-element-361" d="M657.6,417c15,0,29.6,0,43.6,0"/>
	<path class="st1 file-4-element-362" d="M686.8,440.2c-4.2,0-8.5,0-12.9,0"/>
	<path class="st1 file-4-element-363" d="M355.7,440.2c-32.6,0-52.9,0-52.9,0c-4,0-7.2-3.2-7.2-7.2v-8.7c0-4,3.2-7.2,7.2-7.2c0,0,25.3,0,64.8,0"/>
	<g>
		<g>
			<g>
				<path class="st5 file-4-element-364" d="M745.2,283.4"/>
				<g>
					<path class="st6 file-4-element-365" d="M745.2,283.4"/>
				</g>
			</g>
		</g>
	</g>
	<g>
		<g>
			<path class="st1 file-4-element-366" d="M366.3,492.1c11.1-1.7,26.3-8.6,30.9-10.8"/>
		</g>
		<g>
			<path class="st1 file-4-element-367" d="M501.8,486.1c-9.6,2.1-23.4-1.8-29.6-4.2"/>
		</g>
		<path class="st1 file-4-element-368" d="M392,453.4c-9.5,22-25.6,50.1-41.8,39.1c-25.5-17.2,30-94,31-95.8c0.5-0.9,1.4-2,2.5-3.1"/>
		<path class="st1 file-4-element-369" d="M475,453.4c8.8,18.4,22.2,38.7,36.4,32.2"/>
		<path class="st1 file-4-element-370" d="M519.4,460c-6.1-27.3-34.6-65-35.3-66.3c-1.1-2-3.7-4.5-6.5-6.3"/>
		<path class="st1 file-4-element-371" d="M416.7,366.9c0,2.4,0,5.2,0,8.1"/>
		<path class="st1 file-4-element-372" d="M452.6,375.1c-0.1-2.8-0.2-5.7-0.2-8.1"/>
		<path class="st1 file-4-element-373" d="M385.1,396.9c-4.9,16.4,10.5,55.2,13.7,108.2c0.1,2.3-21.2,189.2-21.2,189.2l17.1-0.6c0,0,20.8,7.4,23.5,6.7    l19.2-8c0,0,33,7,36,6.4c5-1,22.1-5.9,22.1-5.9s-9.3-131.4-25.5-188.4c0,0,9-77,6.6-106.6"/>
		<path class="st1 file-4-element-374" d="M457.6,376.3c7.4-1.3,16.7-0.7,20.3,9.7c5.7,16.5-40.5,66.5-51.5,66.5s-42.8-58.2-42.8-58.2    s4.1-18.8,24.8-16.3"/>
		<path class="st1 file-4-element-375" d="M459,376.3c0.3,12.2,1.8,47-23.9,48.2c-38.9,1.9-25.7-37.8-27.3-46.4c0,0,8-3.4,24.6-3.6S459,376.3,459,376.3    z"/>
		<path class="st1 file-4-element-376" d="M493.8,341.9c0,0-2.5-11-2-17.1s2.2-14.5-1.5-19.2s-11.8-21.6-11.6-25.2s0.2-5.2-3.7-8.1s-9.2-5.7-9.2-5.7    c-1.3-8.4-7.2-12.8-14-14.2c-3.1-0.7-7-1.2-10.1-0.5c-0.6,0.1-10.6,7.3-10.6,7.3S419,245,414.2,248.8c-9.1,7.3-12.2,4.5-16.8,14.3    c-3.4,7.3-4.4,16.6-9.6,22.7c-5.3,6.2-16.8,8.4-16.8,19.8c0,6.8,0,6.8,0,6.8s-6.1,11.1-3.1,16s5.1,7.6,5.1,7.6s-4.3,10.5-2,13.9    s9.1,6.1,9.1,6.1s6.7,12,16.1,6.1c1.1,3.1,3.4,5.7,6.4,6.8c3.2,1.2,7,0.7,10.3-0.1c1.8-0.5,3.5-1.3,5-2.5c1.6,1.2,3.4,2.1,5.4,2.4    c3.3,0.5,6.1-0.6,8.3-2.6c2.5,1.5,5.3,2.3,8.2,2c2.9-0.3,5.5-1.3,7.7-3c2.8,2,6.1,3,9.5,3.2c3.7,0.2,7.8-0.7,11-3    c2.4-1.8,4.3-4.2,5.2-7c0.9,0,1.9-0.2,3-0.4C484.6,355.9,496.1,349.1,493.8,341.9z"/>
	</g>
	<g>
		<g>
			<path class="st1 file-4-element-377" d="M532.8,506.5c11.2-1.2,26.4-8.5,31.5-11"/>
		</g>
		<g>
			<path class="st1 file-4-element-378" d="M670.5,500.1c-8.9,2.3-23-1-29.9-3.5"/>
		</g>
		<path class="st1 file-4-element-379" d="M559.3,467.2c-9.6,22.1-25.8,50.5-42.1,39.5c-25.6-17.3,30.2-94.6,31.2-96.4c0.5-0.8,1.2-1.8,2.1-2.7"/>
		<path class="st1 file-4-element-380" d="M643.1,467.7c9.4,19.5,23.8,40.7,38.7,30.6c1.3-0.9,2.4-1.9,3.3-3"/>
		<path class="st1 file-4-element-381" d="M681.1,455.6c-10.6-23.5-28.5-47.3-29.1-48.3c-0.9-1.7-3-3.8-5.3-5.5"/>
		<path class="st1 file-4-element-382" d="M584.2,381c0,2.2,0,4.9,0,7.6"/>
		<path class="st1 file-4-element-383" d="M614.2,387.7c-0.2-2.6-0.5-6.2-0.7-8.4"/>
		<path class="st1 file-4-element-384" d="M552.4,410.6c-4.7,16.6,10.7,55.6,13.8,108.7c0.1,2.3-21.3,190.5-21.3,190.5l17.2-0.6c0,0,21,7.5,23.7,6.8    l19.3-8c0,0,33.2,7,36.3,6.5c5-1,22.2-6,22.2-6s-9.3-132.3-25.6-189.7c0,0,9.5-81.1,6.4-109.3"/>
		<path class="st1 file-4-element-385" d="M643.1,330.3c1.7-1.6,4.2-3.1,6.3-0.2c3.1,4.3-7.1,14.7-9,15"/>
		<path class="st1 file-4-element-386" d="M549.7,329.5c-1.6-1.2-3.6-1.8-5.2,0.7c-3.3,4.9,3.7,14.9,8,15.7"/>
		<path class="st1 file-4-element-387" d="M640.5,320.6c1.1-2.8,1.4-5.9,0.9-9.1c-1.2-7.4-6.7-12-12.3-15.8c0,0-1.2-0.5-1.8-0.8s-1.2-0.5-1.8-0.5    c-2.6-1.8-5.4-3.2-8.2-4.4c-1.3-0.5-2.5-0.9-3.8-1.3c-6.8-2.9-14-3.7-20.3-0.7c-6.5-4.5-14.3-8.4-21.1-1.9c-1.9,1.9-3,4.1-3.4,6.4    c-2.4,0.5-4.7,1.4-6.8,2.6c-7.9,4.8-11.8,14.3-9.7,23.7c0.1,0.3,0.1,0.5,0.2,0.8c-2.8,6.7-3.6,14.2-1.4,21.9    c8.9,30.9,20.2,41.5,45.2,41.5s37.5-16.2,45.2-41.5C643.6,334.2,643,327,640.5,320.6z"/>
		<path class="st1 file-4-element-388" d="M627.1,389.4c7.1-0.9,15.3,0.3,18.7,10.1c5.7,16.6-40.8,67-51.8,67s-43.1-58.6-43.1-58.6s4.2-18.9,25.1-16.4"/>
		<path class="st1 file-4-element-389" d="M626.8,389.6c0.3,12.3,1.8,47.3-24.1,48.5c-39.2,1.9-25.9-38-27.5-46.7c0,0,8-3.5,24.8-3.7    S626.8,389.6,626.8,389.6z"/>
	</g>
	<g>
		<path class="st1 file-4-element-390" d="M697.9,492.5c11.3-1.3,26.9-8.7,31.6-11"/>
	</g>
	<path class="st1 file-4-element-391" d="M724.3,453.3c-9.5,22-25.6,50.4-41.9,39.5c-25.5-17.2,30-94,31-95.8c0.4-0.7,0.9-1.4,1.6-2.1"/>
	<path class="st1 file-4-element-392" d="M748.8,368.6c0,2.2,0,4.8,0,7.4"/>
	<path class="st1 file-4-element-393" d="M778.9,376.6c-0.3-3.7-0.7-7.4-1-10.5"/>
	<path class="st1 file-4-element-394" d="M717,398.4c-3.8,17,10.9,55.3,14,106.9c0.1,2.3-21.2,189.2-21.2,189.2l17.1-0.6c0,0,20.8,7.4,23.5,6.7l19.2-8   c0,0,33,7,36,6.4c5-1,22.1-5.9,22.1-5.9s-9.3-131.4-25.5-188.4c0,0,8.7-74.4,6.7-105.1"/>
	<path class="st1 file-4-element-395" d="M805.7,319.5c0.5-0.8,4.8-6.5,7.9-2.2c3.3,4.7-3.7,14.2-8,14.9"/>
	<path class="st1 file-4-element-396" d="M715.3,317.4c-1.7-1.6-4-2.8-6,0c-3.3,4.9,3.7,14.8,8,15.6"/>
	<path class="st1 file-4-element-397" d="M789.3,376.6c7.5-1.4,17.1-1,20.8,9.6c5.7,16.5-40.5,66.5-51.5,66.5s-42.8-58.2-42.8-58.2s4.3-19.4,25.9-16.1"/>
	<path class="st1 file-4-element-398" d="M791.1,376.5c0.3,12.2,1.8,47-23.9,48.2c-38.9,1.9-25.7-37.8-27.3-46.4c0,0,8-3.4,24.6-3.6   C781.2,374.4,791.1,376.5,791.1,376.5z"/>
	<path class="st1 file-4-element-399" d="M805.3,328.6c-7.6,25.1-20,41.2-44.7,41.2s-35.9-10.5-44.7-41.2c-7.6-26.3,20-49.9,44.7-49.9   S813.3,302.4,805.3,328.6z"/>
	<path class="st1 file-4-element-400" d="M802.3,303.3c-2.4,4.4-5.8,8.1-10.2,10.9c-6.7,4.2-14.8,5.6-22.5,6.2c-7.6,0.6-15.5,0.6-23.1-0.4   c-7-0.9-14.3-2.8-19.4-8c-3.2-3.4-5.1-7.5-6-12c-5.7,8.3-8.2,18.3-5.2,28.7c8.8,30.7,20,41.2,44.7,41.2s37.1-16.1,44.7-41.2   C808.1,319.6,806.5,310.8,802.3,303.3z"/>
</g>
</svg>
