<?xml version="1.0" encoding="UTF-8"?>
<!-- Generator: Adobe Illustrator 25.2.3, SVG Export Plug-In . SVG Version: 6.00 Build 0)  -->
<svg xmlns="http://www.w3.org/2000/svg" xmlns:xlink="http://www.w3.org/1999/xlink" version="1.1" id="Layer_1" x="0px" y="0px" viewBox="0 0 792 612" style="enable-background:new 0 0 792 612;" xml:space="preserve">
<style type="text/css">
	.st0{fill:#FFFFFF;}
	.st1{fill:#FFFFFF;stroke:#000000;stroke-width:2.5;stroke-linecap:round;stroke-linejoin:round;stroke-miterlimit:10;}
	.st2{fill:none;stroke:#000000;stroke-width:2.5;stroke-linecap:round;stroke-linejoin:round;stroke-miterlimit:10;}
	.st3{fill:none;}
	.st4{fill:none;stroke:#221F1F;stroke-width:2.1779;stroke-linecap:round;stroke-linejoin:round;stroke-miterlimit:10;}
</style>
<g id="White">
	<path class="st0 file-2-element-1" d="M-8-6v519.4h803.6V-6H-8z"/>
	<path class="st0 file-2-element-2" d="M327.2,504.5H127.2V232.1c0-53.5,43.3-96.8,96.8-96.8h6.4c53.5,0,96.8,43.4,96.8,96.8V504.5z"/>
	<path class="st0 file-2-element-3" d="M607.7,504.5h-212V235c0-55,44.6-99.7,99.7-99.7h12.7c55,0,99.7,44.6,99.7,99.7L607.7,504.5L607.7,504.5z"/>
	<path class="st0 file-2-element-4" d="M885.2,504.5h-212V235c0-55,44.6-99.7,99.7-99.7h12.7c55,0,99.7,44.6,99.7,99.7L885.2,504.5L885.2,504.5z"/>
	<path class="st0 file-2-element-5" d="M51.1,504.5h-212V235c0-55,44.6-99.7,99.7-99.7h12.7c55,0,99.7,44.6,99.7,99.7L51.1,504.5L51.1,504.5z"/>
	<rect x="-13.4" y="472.5" class="st0 file-2-element-6" width="821.5" height="157.5"/>
	<rect x="241.6" y="444.2" class="st0 file-2-element-7" width="34.1" height="200.3"/>
	<rect x="507.4" y="444.2" class="st0 file-2-element-8" width="34.1" height="200.3"/>
	<rect x="275.7" y="549.3" class="st0 file-2-element-9" width="231.6" height="42.2"/>
	<path class="st0 file-2-element-10" d="M572,487.1L572,487.1l13.2-42.9h-43.6v58.2c0,0,0,2.4,0,3.6c0,12,9.8,21.8,21.8,21.8c12,0,21.8-9.8,21.8-21.8   C585.1,496.5,579.3,489.5,572,487.1z"/>
	<rect x="327.2" y="253.5" class="st0 file-2-element-11" width="71.8" height="219"/>
	<polygon class="st0 file-2-element-12" points="399.8,253.5 326.5,253.5 311.9,225.6 414.4,225.6  "/>
	<polygon class="st0 file-2-element-13" points="374.7,313.1 367.5,313.1 367.5,300.8 358.7,300.8 358.7,313.1 351.6,313.1 351.6,322 358.7,322    358.7,347 367.5,347 367.5,322 374.7,322  "/>
	<g>
		<path class="st0 file-2-element-14" d="M43.8,203.6"/>
		<path class="st0 file-2-element-15" d="M-55,135.5c22.5,0.2,43.2,7.3,60.3,19.4l22.8-24.9c-23.9-18-52.7-27.8-83.1-28V135.5z"/>
		<path class="st0 file-2-element-16" d="M43,142.8c-4.7-4.7-9.7-9.1-15-13L5.7,155.1c17,12.1,30.3,29.2,37.8,49.1l33.2-6.8    C70,177,58.6,158.4,43,142.8z"/>
		<path class="st0 file-2-element-17" d="M49.1,225.6H83c-1.1-9.5-3.1-18.8-6.1-27.8c-7.7,1.6-21.3,4.3-33.3,6.7C46.2,211.2,48,218.3,49.1,225.6z"/>
	</g>
	<g>
		<path class="st0 file-2-element-18" d="M321.6,203.6"/>
		<path class="st0 file-2-element-19" d="M221.9,101.9c-30.7,0-59.9,9.9-84,28.1l15.4,30.7c18.5-15.7,42.5-25.2,68.6-25.2l0,0c0.1,0,0.2,0,0.3,0v-33.6    C222.1,101.9,222,101.9,221.9,101.9z"/>
		<path class="st0 file-2-element-20" d="M222.8,135.5c22.5,0.2,43.2,7.3,60.3,19.4l22.8-24.9c-23.9-18-52.7-27.8-83.1-28L222.8,135.5L222.8,135.5z"/>
		<path class="st0 file-2-element-21" d="M320.7,142.8c-4.7-4.7-9.7-9.1-15-13l-22.3,25.3c17,12.1,30.3,29.2,37.8,49.1l33.2-6.8    C347.8,177,336.3,158.4,320.7,142.8z"/>
		<path class="st0 file-2-element-22" d="M326.9,225.6h33.9c-1.1-9.5-3.1-18.8-6.1-27.8c-7.7,1.6-21.3,4.3-33.3,6.7    C323.9,211.2,325.8,218.3,326.9,225.6z"/>
	</g>
	<g>
		<path class="st0 file-2-element-23" d="M402.4,203.6"/>
		<path class="st0 file-2-element-24" d="M501.7,101.9c0.1,0,0.2,0,0.3,0c30.7,0,61.9,9.9,86,28.1l-13.4,30.7c-18.5-15.7-46.5-25.2-72.6-25.2l0,0    c-0.1,0-0.2,0-0.3,0V101.9z"/>
		<path class="st0 file-2-element-25" d="M501.1,135.5c-22.5,0.2-43.2,7.3-60.3,19.4l-22.8-25c23.9-18,52.7-27.8,83.1-28V135.5z"/>
		<path class="st0 file-2-element-26" d="M403.2,142.8c4.7-4.7,9.7-9.1,15-13l22.3,25.3c-17,12.1-30.3,29.2-37.8,49.1l-33.2-6.8    C376.2,177,387.6,158.4,403.2,142.8z"/>
		<path class="st0 file-2-element-27" d="M397,225.6h-33.9c1.1-9.5,3.1-18.8,6.1-27.8c7.7,1.6,21.3,4.3,33.3,6.7C400,211.2,398.1,218.3,397,225.6z"/>
	</g>
	<g>
		<path class="st0 file-2-element-28" d="M685.3,203.6"/>
		<path class="st0 file-2-element-29" d="M784.7,101.9c0.1,0,0.2,0,0.3,0c30.7,0,61.9,9.9,86,28.1l-13.4,30.7c-18.5-15.7-46.5-25.2-72.6-25.2l0,0    c-0.1,0-0.2,0-0.3,0V101.9z"/>
		<path class="st0 file-2-element-30" d="M784.1,135.5c-22.5,0.2-43.2,7.3-60.3,19.4L701,129.9c23.9-18,52.7-27.8,83.1-28V135.5z"/>
		<path class="st0 file-2-element-31" d="M686.2,142.8c4.7-4.7,9.7-9.1,15-13l22.3,25.3c-17,12.1-30.3,29.2-37.8,49.1l-33.2-6.8    C659.1,177,670.6,158.4,686.2,142.8z"/>
		<path class="st0 file-2-element-32" d="M680,225.6h-33.9c1.1-9.5,3.1-18.8,6.1-27.8c7.7,1.6,21.3,4.3,33.3,6.7C683,211.2,681.1,218.3,680,225.6z"/>
	</g>
	<polygon class="st0 file-2-element-33" points="680.3,253.5 607,253.5 592.4,225.6 694.9,225.6  "/>
	<rect x="47.1" y="253.5" class="st0 file-2-element-34" width="71.8" height="219"/>
	<rect x="607.7" y="253.5" class="st0 file-2-element-35" width="71.8" height="219"/>
	<polygon class="st0 file-2-element-36" points="119.6,253.5 46.4,253.5 31.7,225.6 134.3,225.6  "/>
	<rect x="275.7" y="440.4" class="st0 file-2-element-37" width="231.6" height="42.2"/>
	<path class="st0 file-2-element-38" d="M198,444.4l13.1,42.9h0c-7.4,2.4-13.1,9.4-13.1,19c0,12.1,9.8,21.8,21.8,21.8c12.1,0,21.8-9.8,21.8-21.8   c0-1.2,0-3.6,0-3.6v-58.2L198,444.4L198,444.4z"/>
	<g>
		<g>
			<path class="st0 file-2-element-39" d="M245.9,444.2c0,10.8-2.8,34.5-16.2,34.5c-13.4,0-16.2-23.7-16.2-34.5H245.9z"/>
		</g>
		<g>
			<path class="st0 file-2-element-40" d="M278.2,444.2c0,10.8-2.8,34.5-16.2,34.5s-16.2-23.7-16.2-34.5H278.2z"/>
		</g>
		<g>
			<path class="st0 file-2-element-41" d="M310.6,444.2c0,10.8-2.8,34.5-16.2,34.5s-16.2-23.7-16.2-34.5H310.6z"/>
		</g>
		<g>
			<path class="st0 file-2-element-42" d="M343,444.2c0,10.8-2.8,34.5-16.2,34.5s-16.2-23.7-16.2-34.5H343z"/>
		</g>
		<g>
			<path class="st0 file-2-element-43" d="M375.4,444.2c0,10.8-2.8,34.5-16.2,34.5S343,455,343,444.2H375.4z"/>
		</g>
		<g>
			<path class="st0 file-2-element-44" d="M407.7,444.2c0,10.8-2.8,34.5-16.2,34.5c-13.4,0-16.2-23.7-16.2-34.5H407.7z"/>
		</g>
		<g>
			<path class="st0 file-2-element-45" d="M440.1,444.2c0,10.8-2.8,34.5-16.2,34.5c-13.4,0-16.2-23.7-16.2-34.5H440.1z"/>
		</g>
		<g>
			<path class="st0 file-2-element-46" d="M472.5,444.2c0,10.8-2.8,34.5-16.2,34.5c-13.4,0-16.2-23.7-16.2-34.5H472.5z"/>
		</g>
		<g>
			<path class="st0 file-2-element-47" d="M504.9,444.2c0,10.8-2.8,34.5-16.2,34.5s-16.2-23.7-16.2-34.5H504.9z"/>
		</g>
		<g>
			<path class="st0 file-2-element-48" d="M537.2,444.2c0,10.8-2.8,34.5-16.2,34.5s-16.2-23.7-16.2-34.5H537.2z"/>
		</g>
		<g>
			<path class="st0 file-2-element-49" d="M569.6,444.2c0,10.8-2.8,34.5-16.2,34.5s-16.2-23.7-16.2-34.5H569.6z"/>
		</g>
	</g>
	<path class="st0 file-2-element-50" d="M584,445.1h-385c-3.6,0-6.6-3-6.6-6.6l0,0c0-3.6,3-6.6,6.6-6.6h385c3.7,0,6.6,3,6.6,6.6l0,0   C590.7,442.2,587.7,445.1,584,445.1z"/>
	<g>
		<g>
			<polygon class="st0 file-2-element-51" points="511.3,422.7 509.2,419.4 497.1,427.6 496.9,427.3 493.1,430.5 498.9,431.5 498.3,430.2 499,431.5
					    "/>
			<path class="st0 file-2-element-52" d="M508.1,419.4l3,3.3l48.5-44.1c1.3-1.2,0.7-3.3-1-3.6l-29.6-5.8l-32.3,33.7L508.1,419.4z"/>
			<path class="st0 file-2-element-53" d="M556.1,378.4l-5.3-9.2c0,0-36.4-4.2-47.6,22.8c0,0-5,23.3-0.4,32.3l5.7-3.8c0,0,2-5.3,2.6-7.1
					c1.1-3.1,2.6-6.1,4.3-9C524.9,389.4,540.8,385.1,556.1,378.4z"/>
			<path class="st0 file-2-element-54" d="M382.2,369.6c0,0,7-18.9,22.7-23.6c0,0,20.2-5.6,27.7-5.5l118.3,28.7c0,0-23.8,8.5-32,15.1
					c-9.5,7.7-15.9,21.4-17,36.2L382.2,369.6z"/>
			<path class="st0 file-2-element-55" d="M288.8,412.4l91.9-42l117.1,57l-80.4,72.8c-2,1.8-5,2-7.3,0.5l-121.7-84.4
					C287.1,415.2,287.3,413,288.8,412.4z"/>
			<polygon class="st0 file-2-element-56" points="298.5,408.5 310,392.3 431.7,468.2 419.3,492.2    "/>
			<path class="st0 file-2-element-57" d="M308.4,391.7c0,0,38.9-22.4,44.2-23.6c0,0,8.7-4.5,15.7-3.1l18.7,6.1l109.7,42.6c0,0-5.2-4.4-23.3,15
					c0,0-33.5,36.7-41.7,40.2L308.4,391.7z"/>
			<path class="st0 file-2-element-58" d="M419.3,492.2c15-14.4,30-28.9,45-43.4c4.6-4.5,9.2-9,13.8-13.5c6-6,10.6-12.4,19.8-8l5-3c0,0,1-8.9-7-10.8
					c0,0-5.8-3.5-23.6,16.6c0,0-33.5,35.2-40.5,38.9L419.3,492.2z"/>
		</g>
	</g>
	<path class="st0 file-2-element-59" d="M529.6,360.3c-8.3,4.1-17.2,10.2-26.5,10.9c-3.4,0.2-6.9,0.2-10.4,0.1"/>
	<g>
		<path class="st0 file-2-element-60" d="M469.9,358.2L448.1,414c0,0-2.9,0.2-6.2,5.4l22.7-60.7L469.9,358.2z"/>
		<path class="st0 file-2-element-61" d="M500,323.7c-1.2,8.6-4.1,17.4-10.5,23.2c-8.1,7.5-17.8,12.8-25.7,20.6c-7.5-8.2,3.2-32,8-39.9    c7.5-12.3,18.4-21.8,30.2-29.8C502,297.9,501.2,315.2,500,323.7z"/>
	</g>
	<path class="st0 file-2-element-62" d="M680.2,195.6c3.2-16.6,1.5-34.9-0.3-47.9c-3.5-25.2-29.4-45.4-54.9-40.6c-12.4,2.3-22.8,9.2-32.4,17   c-28.1,22.9-13,64.2-13,64.2l-8.2,29c-3.7,14.9,13,4.6,13,4.6l10.6,20.9c9.3,16.8,36,8,55.9-5.4l5.2,12.9l1.5,0.7l-48.3,97.8   L530.7,369l-39.9,1.2c-4.6-2.5-15.9-7.9-22.5-5.9c-5.4,1.6-13.4-0.4-13.9,1s2.6,5.3,4.5,5.4c0.2,0,0.4,0,0.8,0.1l-1,0.8   c-0.4-0.1-0.8-0.3-1.2-0.4c0,0,0,0,0,0c-1.1-0.3-2.2-0.6-3.4-0.8c-0.1,0-0.2,0-0.3,0c-0.3,0-0.5-0.1-0.8-0.1c-0.2,0-0.4,0-0.6-0.1   c-0.2,0-0.5,0-0.7-0.1c-0.3,0-0.6,0-0.9,0c-0.2,0-0.4,0-0.5,0c-0.5,0-0.9,0-1.4,0c-1.5,0-3.8,0-5.2,0.5c-2,0.7-2,3-0.4,4.2   c1.8,1.3,7.2,2.8,7.4,2.9c0.4,0,0.8,0,1.3,0c0.3,0,0.7,0,1,0l0,0v1.8c-0.5,0-1,0-1.5,0c-1.5,0-3.8,0-5.2,0.5c-2,0.7-2,3-0.4,4.2   c1.8,1.3,7.2,2.8,7.4,2.9c0.8,0,1.8-0.4,1.8-0.6c0.2-1.8,1.1-3.3,1.9-4.9c0-0.4,0-0.9,0.2-1.2c0-0.1,0.1-0.2,0.1-0.3   c-1.2-0.2-2.4-0.4-3.5-0.4v-1.7c0,0,0,0,0,0c1,0.1,1.9,0.2,2.9,0.2c0.3,0,0.5,0,0.8,0l0.9,0.7c0,0,0.9,0.4,1.7,0.2   c1.7-0.4,0,2.1-0.1,2.5c-0.2,2.1-0.7,4.1-1.4,6c0.2,0,0.4,0,0.7,0.1c0.9,0,1.7-0.1,2.5-0.1c0.3,0,0.6,0,0.9,0l0.6,0.9   c-1.8,0.1-3.6,0.2-5.1,0.3c-0.6,1.5-1.2,3-1.8,4.4c0,0-0.1,0.1-0.1,0.1c3.7,2.3,8.3,3,12.7,2l0.2,0.2c-2,0.1-3.9,0.4-5.5,0.8   c-2.1,0.5-2.5,2.5-0.5,3.6c2.2,1.2,5.9,1.5,8.3,1.6c1.4,0,2.9-0.1,4.2-0.4l0.7,0.6c2.1,0.5,4.4,0.6,6.5,0   c7.1-1.8,11.2-9.9,18.2-12.2c2-0.7,4.2-0.9,6.4-1c9-0.6,18-1.3,27-1.9l-2.3-16.6l77.8-20.1l0.2-0.1l48.5-98.2l13.1,5.9l-1.8,31.6   l-21.4,51.4l-56.5,65.1c-10.9,1.8-22.4,3.7-33.3,5.5l-1.2-14.2L518,408.6c0,0-5.3-5.3-14-3.4c-5.5,1.2-13.3-1.4-13.9,0   s2.2,5.5,4.1,5.7c0.3,0,0.8,0.2,1.6,0.4c-1.6,0.6-3.1,1.3-4.5,2c-3.3,1.5-6.2,3.1-8.1,4.7l0.3-0.1c-1.1,1-2.5,2.2-3.9,3.7   c-5.3,5.3-12.1,13.4-11,14.2c0,0,0.1,0.1,0.2,0.1c0,0,0.1,0,0.1,0c0,0,0.1,0,0.2,0c0,0,0.1,0,0.1,0c0.1,0,0.1,0,0.2-0.1   c0,0,0.1,0,0.2-0.1c0.1,0,0.1-0.1,0.2-0.1c0.1,0,0.1-0.1,0.2-0.1c0.1,0,0.2-0.1,0.3-0.1c0.1,0,0.2-0.1,0.2-0.1   c0.1,0,0.2-0.1,0.3-0.2c0.1,0,0.2-0.1,0.3-0.2c0.1-0.1,0.2-0.1,0.3-0.2c0.1-0.1,0.2-0.1,0.3-0.2c0.1-0.1,0.2-0.1,0.3-0.2   c0.1-0.1,0.2-0.1,0.3-0.2c0.1-0.1,0.2-0.2,0.4-0.2c0.1-0.1,0.2-0.1,0.3-0.2c0.1-0.1,0.2-0.2,0.4-0.3c0.1-0.1,0.2-0.2,0.3-0.2   c0.1-0.1,0.2-0.2,0.4-0.3c0.1-0.1,0.2-0.2,0.4-0.3c0.1-0.1,0.3-0.2,0.4-0.3c0.1-0.1,0.2-0.2,0.4-0.3c0.1-0.1,0.3-0.2,0.4-0.3   c0.1-0.1,0.2-0.2,0.4-0.3c0.1-0.1,0.3-0.2,0.4-0.3c0.1-0.1,0.2-0.2,0.4-0.3c0.1-0.1,0.3-0.2,0.4-0.3c0.1-0.1,0.2-0.2,0.4-0.3   c0.1-0.1,0.3-0.2,0.4-0.3c0.1-0.1,0.3-0.2,0.4-0.3c0.1-0.1,0.3-0.2,0.4-0.3c0.1-0.1,0.3-0.2,0.4-0.3c0.1-0.1,0.3-0.2,0.4-0.3   s0.3-0.2,0.4-0.3c0.1-0.1,0.2-0.2,0.4-0.3c0.1-0.1,0.3-0.2,0.4-0.3c0.1-0.1,0.2-0.2,0.4-0.3c0.1-0.1,0.2-0.2,0.3-0.3   c0,0-0.1,0.1-0.1,0.1c-0.1,0.1-0.2,0.2-0.4,0.4c-0.2,0.2-0.3,0.3-0.5,0.5c-0.1,0.1-0.2,0.2-0.3,0.3c-0.2,0.2-0.4,0.4-0.7,0.7   c-0.1,0.1-0.1,0.1-0.2,0.2c-0.3,0.3-0.6,0.6-0.9,0.9c-0.1,0.1-0.2,0.2-0.3,0.3c-0.2,0.2-0.4,0.4-0.5,0.6c-0.1,0.1-0.2,0.2-0.3,0.4   c-0.2,0.2-0.4,0.4-0.5,0.6c-0.1,0.1-0.2,0.2-0.3,0.4c-0.2,0.2-0.3,0.4-0.5,0.5c-0.1,0.1-0.2,0.3-0.4,0.4c-0.2,0.2-0.3,0.3-0.5,0.5   c-0.1,0.1-0.2,0.3-0.4,0.4c-0.1,0.2-0.3,0.3-0.4,0.5c-0.1,0.1-0.2,0.3-0.4,0.4c-0.1,0.2-0.3,0.3-0.4,0.5c-0.1,0.1-0.2,0.3-0.3,0.4   c-0.1,0.2-0.3,0.3-0.4,0.5c-0.1,0.1-0.2,0.3-0.3,0.4c-0.1,0.1-0.3,0.3-0.4,0.5c-0.1,0.1-0.2,0.3-0.3,0.4c-0.1,0.1-0.2,0.3-0.4,0.4   c-0.1,0.1-0.2,0.2-0.3,0.4c-0.1,0.1-0.2,0.3-0.3,0.4c-0.1,0.1-0.2,0.2-0.3,0.3c-0.1,0.1-0.2,0.3-0.3,0.4c-0.1,0.1-0.2,0.2-0.2,0.3   c-0.1,0.1-0.2,0.2-0.3,0.4c-0.1,0.1-0.1,0.2-0.2,0.3c-0.1,0.1-0.2,0.2-0.2,0.3c-0.1,0.1-0.1,0.2-0.2,0.3c-0.1,0.1-0.1,0.2-0.2,0.3   c0,0.1-0.1,0.2-0.1,0.2c-0.1,0.1-0.1,0.2-0.2,0.3c0,0.1-0.1,0.1-0.1,0.2c0,0.1-0.1,0.2-0.1,0.2c0,0.1-0.1,0.1-0.1,0.2   c0,0.1,0,0.1-0.1,0.2c0,0,0,0.1,0,0.1c0,0.1,0,0.1,0,0.2c0,0,0,0.1,0,0.1c0,0.1,0,0.1,0.1,0.2s0.1,0.1,0.2,0.1c0,0,0.1,0,0.1,0   c0.1,0,0.1,0,0.2,0c0,0,0.1,0,0.1,0c0.1,0,0.1,0,0.2-0.1c0.1,0,0.1-0.1,0.2-0.1c0.1,0,0.2-0.1,0.3-0.1c0.1,0,0.1-0.1,0.2-0.1   c0.1,0,0.2-0.1,0.3-0.2c0.1,0,0.2-0.1,0.3-0.2c0.1-0.1,0.2-0.1,0.3-0.2c0.1-0.1,0.2-0.1,0.3-0.2c0.1-0.1,0.2-0.2,0.4-0.2   c0.1-0.1,0.2-0.1,0.3-0.2c0.1-0.1,0.3-0.2,0.4-0.3c0.1-0.1,0.2-0.2,0.3-0.2c0.1-0.1,0.3-0.2,0.4-0.3c0.1-0.1,0.2-0.2,0.4-0.3   c0.1-0.1,0.3-0.2,0.5-0.3c0.1-0.1,0.2-0.2,0.4-0.3c0.2-0.1,0.3-0.2,0.5-0.4c0.1-0.1,0.2-0.2,0.4-0.3c0.2-0.1,0.4-0.3,0.5-0.4   c0.1-0.1,0.2-0.2,0.4-0.3c0.2-0.1,0.4-0.3,0.6-0.5c0.1-0.1,0.2-0.2,0.3-0.2c0.3-0.2,0.5-0.4,0.8-0.6c0,0,0.1-0.1,0.1-0.1   c0.3-0.2,0.6-0.5,0.9-0.8c0,0,0.1-0.1,0.1-0.1c0.3-0.2,0.5-0.4,0.8-0.7c0.1-0.1,0.2-0.1,0.3-0.2c0.2-0.2,0.4-0.4,0.6-0.5   c0.1-0.1,0.2-0.2,0.4-0.3c0.2-0.1,0.3-0.3,0.5-0.4c-4.7,5-9.3,10.8-8.4,11.5c1.1,0.9,10-6.5,14.8-10.6c-4.2,4.3-10.1,11.9-9.2,12.7   c1.2,1.1,13.5-10,13.5-10s15.3-4.4,27.3-8.8c0.3-0.1,0.7-0.3,1-0.4c0.1,0,0.2-0.1,0.3-0.1c0.2-0.1,0.5-0.2,0.7-0.3   c0.1,0,0.2-0.1,0.3-0.1c0.2-0.1,0.5-0.3,0.7-0.4c0.1,0,0.1-0.1,0.2-0.1c0.3-0.2,0.5-0.4,0.8-0.6c0.1,0,0.1-0.1,0.2-0.1   c0.2-0.1,0.3-0.3,0.5-0.5c0.1-0.1,0.1-0.1,0.2-0.2c0.2-0.2,0.3-0.3,0.4-0.5c0-0.1,0.1-0.1,0.2-0.2c0.2-0.2,0.3-0.5,0.5-0.7   c0,0,0,0,0-0.1c0.1-0.2,0.2-0.5,0.3-0.7c0,0,0,0,0,0l34.2-3.1l-0.8-9c13-2.2,25.6-4.3,33.6-5.6l0.2,0l56.8-65.4l0-0.1l21.5-51.6   l0-0.1l1.8-31.4l2.4,1.1l10-23.8L680.2,195.6z"/>
	<path class="st0 file-2-element-63" d="M655.3,260.9c-17.6-12.2-51,49-69.5,84.9c-23.8,3.6-70.2,10.4-89.8,13.4c0.1,15.2,5.8,45.9,5.8,45.9l8.5,0.1   l9.4,4.4c0,0,0.6,1.4-0.2,1.4c0,0-2.9,2-2.8,2.6c0.5,3.4,1.4,6.7,2.5,10c0.1,0.2,0,0.4-0.1,0.6c7.8,5.8,15.2,9.8,15.2,9.8   l71.2-54.8l2.1,1.5C607.7,380.6,689.2,284.4,655.3,260.9z"/>
	<path class="st0 file-2-element-64" d="M682.9,223.5c0,0,29.2-10.5,49.6,23.1l-50.3,6.4L682.9,223.5z"/>
	<path class="st0 file-2-element-65" d="M626.2,271.4l17.6-24.2c0,0,26.9,9.7,41.4-12.3c0,0,11.8,13,15.4,22c11.4,28.1-1.8,124.9-1.8,124.9v12.7   c0,0-1.1,2,6,14.9c17.1,30.9,33.9,233.2,25.4,234.4s-53.2-2.1-70.2-2.1s-27.7-5-32.5,0c-4.8,5-42.2-8.3-42.2-8.3   S599.9,341.1,626.2,271.4z"/>
	<path class="st0 file-2-element-66" d="M732.5,247.2c0.2-2.5-37-21.5-61.8-10.3c-16.2,7.3-43.2,34.9-43.2,34.9s18.3-20.5,44.4-21.8   c26-1.3,35.5,41.8,35.5,41.8S728.2,290.7,732.5,247.2z"/>
	<path class="st0 file-2-element-67" d="M681.1,272.9c-20.5-12.4-57.5,67.8-72,100.7c-23.9,1.9-71.2,5.3-91,6.9c-1,15.2-1.9,31.6,2.5,46.2   s30.4,31.1,30.4,31.1l79.9-52.8l0.3,0.4C631.2,405.5,716.4,294.2,681.1,272.9z"/>
	<g>
		<path class="st0 file-2-element-68" d="M71.9,180l5.1-15c-0.4-1.2-3.8-12.1-9.7-7.8C60.9,161.8,66.7,177.1,71.9,180z"/>
	</g>
	<path class="st0 file-2-element-69" d="M676.5,210.7c0-5.1-2.8-10.1-7.2-12.8c4.7-6.1,1.2-11.4-2.3-16.5c0,0-1.9-2.1-2.6-4.3c-0.6-1.9-0.5-7.2-1-10.8   c8-3.8,17.4-12.7,20.2-14.7c0.4-30.9-21.3-41.8-21.3-41.8c-15-21.3-31.6-12.7-31.6-12.7c-22.7-6.7-37.3,9.3-37.3,9.3   c-0.5,0.6-9.9-6.3-17.4,0.3c-5.2,4.5-8.9,15.6-7.8,22.3c3.5,21.8,26.6-4.4,33.9-8.1c0.7-0.4,1.4-0.7,2.2-1   c17.7-8.1,35.7-5.9,44.6,13.4c1.1,2.3,4.7,18.9,5.5,27.8c-0.8,0.8-1.7,1.7-1.9,2.4c-0.5,1-1.2,2.2-1.2,3.5   c2,36.3-19,44.5-29.9,53.5c-19.4-13.3-36.3,0.2-36.3,0.2c13.6,8.8,22.6,11.2,28.5,10.8c-12,21.8-18.9,8.9-18.9,8.9   s-13.9,27.5-10.8,36.1c1.7,4.9,11.5,6,10.9,4.1c1.5,5,5.9,9,11.1,10c4.2,0.9,8.8-0.2,12.3-2.7c9.1,4.6,25.7-1.1,30-10.3   c4.3-0.2,8.6-2.1,11.4-5.4c3.5-4,4.5-9.9,2.6-14.7c3.1,0,6.3-1.8,7.7-4.6c1.4-2.8,1-6.2-0.9-8.6c4.3-1.6,7.4-5.9,7.5-10.4   c0.1-4.4-2.8-8.7-7.1-10.3C673.7,220.9,676.5,215.8,676.5,210.7z"/>
	<path class="st0 file-2-element-70" d="M83.5,241.2c0,0-29.2-10.5-49.6,23.1l50.3,6.4L83.5,241.2z"/>
	<path class="st0 file-2-element-71" d="M673.1,153c0.6-1.4,5.5-11.5,11.6-5.8c6.5,6.2-1.4,23-7.9,25.4L673.1,153z"/>
	<path class="st0 file-2-element-72" d="M335.1,367.9c-1.6-0.9-3.5-1.8-5.5-2.6c1.5-1.3,3-3.7,2.5-4.7c-0.6-1.4-8.5,1.1-13.9-0.3   c-4.4-1.1-8-0.2-10.5,0.8c-2.1,0.2-3.8,0.6-4.8,1.5l-40.3-9.2l-0.2,19.6l-28.1,3.9c-4.3-1.8-109.9-45.3-113.3-46.7   c-2-1.2-10.8-28.9-18.6-55.1c-0.2-1.4-0.4-2.7-0.6-4l9-3.7l0.2-0.6l13.7,1.4l-5.4-21.3c18.6,6.4,38.1,6.7,43.7-7.8l8.8-25.6   l15.1,0.9l-17.3-33.6c0,0,5.4-21.6-3.6-40.5c0.3-1.3-0.1-2.6-1.7-3.3c-4-1.8-8.6-3.6-13-2.9c-0.6-0.7-1.5-1.1-2.5-1.1   c-1.9,0.1-3.5,1.5-3.5,3.5v0.4c-4.1,3.4-7,8.6-11.5,11.7c-1,0.6-1.9,1.2-2.9,1.6c0.1-0.1,0.3-0.2,0.5-0.2c-1.6,0.6-3.2,1-4.8,1.4   c-0.6,0.1,2.1-0.4,1.5-0.4c-3.1,0.1-8,0.9-10,3.4c-1.4,1.7-2.4,3.7-3.5,5.8c-0.1,0.1-0.1,0.2-0.2,0.2c-1.2,1.9-2.2,3.8-3.1,5.8   c-0.1,0.2-0.2,0.4-0.3,0.6l-4.6,8.2c0,0,0,0.1-0.1,0.1c-0.7,1.1-1.5,2.1-2.3,3.1c-1.2,1.5-2.7,3-4.5,3.9c-1.7,0.8-3.6,1.4-5.5,1.9   c-8.3,2.1-16.8,2.3-25.3,3.3c2.5,12.6,6.6,25.3,12.7,34.6l-3.8,26.8l10,28.3l12.4-5.1c0.4,1.3,0.8,2.7,1.2,4.1   c1.1,7.8,2.3,16,3.4,24c3,20.5,10.1,68.4,11.5,69.9c1.5,1.7,29.3,24.9,43.8,37l-3.6,12.1l32.9,9.9c0,0,0,0,0,0   c0,0.3,0.1,0.5,0.1,0.8c0,0,0,0,0,0.1c0.1,0.3,0.2,0.5,0.3,0.8c0,0.1,0.1,0.2,0.1,0.2c0.1,0.2,0.2,0.4,0.3,0.6   c0.1,0.1,0.1,0.2,0.2,0.2c0.1,0.2,0.3,0.4,0.4,0.6c0.1,0.1,0.1,0.1,0.1,0.2c0.2,0.2,0.4,0.5,0.6,0.7c0.1,0,0.1,0.1,0.2,0.1   c0.2,0.2,0.4,0.4,0.6,0.5c0.1,0.1,0.2,0.1,0.3,0.2c0.2,0.1,0.4,0.3,0.6,0.5c0.1,0.1,0.2,0.1,0.3,0.2c0.3,0.2,0.6,0.4,0.9,0.6   c10.9,6.6,25,14.1,25,14.1s9.8,13.3,11.3,12.5c1.1-0.6-3.2-9.2-6.4-14.3c3.9,5,11.1,14,12.4,13.3c1.1-0.5-2.3-7.2-5.9-13   c0.1,0.2,0.3,0.3,0.4,0.5c0.1,0.1,0.2,0.2,0.3,0.4c0.2,0.2,0.3,0.4,0.5,0.6c0.1,0.1,0.2,0.2,0.2,0.3c0.2,0.3,0.4,0.5,0.6,0.8   c0.1,0.1,0.1,0.1,0.1,0.2c0.3,0.3,0.5,0.6,0.8,0.9c0.1,0.1,0.1,0.1,0.1,0.2c0.2,0.2,0.4,0.5,0.6,0.7c0.1,0.1,0.2,0.2,0.3,0.3   c0.2,0.2,0.3,0.4,0.5,0.6c0.1,0.1,0.2,0.2,0.3,0.3c0.1,0.2,0.3,0.3,0.4,0.5c0.1,0.1,0.2,0.2,0.3,0.4c0.1,0.2,0.3,0.3,0.4,0.5   c0.1,0.1,0.2,0.2,0.3,0.3c0.1,0.1,0.3,0.3,0.4,0.4c0.1,0.1,0.2,0.2,0.3,0.3c0.1,0.1,0.2,0.3,0.4,0.4c0.1,0.1,0.2,0.2,0.3,0.3   c0.1,0.1,0.2,0.2,0.3,0.4c0.1,0.1,0.2,0.2,0.3,0.3c0.1,0.1,0.2,0.2,0.3,0.3c0.1,0.1,0.2,0.2,0.2,0.2c0.1,0.1,0.2,0.2,0.3,0.3   c0.1,0.1,0.1,0.1,0.2,0.2c0.1,0.1,0.2,0.1,0.3,0.2c0.1,0.1,0.1,0.1,0.2,0.2c0.1,0.1,0.2,0.1,0.2,0.2c0.1,0,0.1,0.1,0.2,0.1   c0.1,0,0.1,0.1,0.2,0.1c0,0,0.1,0.1,0.1,0.1c0.1,0,0.1,0,0.2,0.1c0,0,0.1,0,0.1,0c0.1,0,0.1,0,0.2,0s0.1-0.1,0.1-0.1   c0,0,0-0.1,0-0.1c0,0,0-0.1,0-0.2c0,0,0-0.1,0-0.1c0-0.1,0-0.1,0-0.2c0-0.1,0-0.1,0-0.2c0-0.1,0-0.2-0.1-0.2c0-0.1-0.1-0.1-0.1-0.2   c0-0.1-0.1-0.2-0.1-0.3c0-0.1-0.1-0.2-0.1-0.3c0-0.1-0.1-0.2-0.1-0.3c0-0.1-0.1-0.2-0.1-0.3c-0.1-0.1-0.1-0.2-0.2-0.4   c-0.1-0.1-0.1-0.2-0.1-0.3c-0.1-0.1-0.1-0.3-0.2-0.4c-0.1-0.1-0.1-0.2-0.2-0.4c-0.1-0.1-0.1-0.3-0.2-0.4c-0.1-0.1-0.1-0.3-0.2-0.4   c-0.1-0.1-0.2-0.3-0.2-0.5c-0.1-0.1-0.1-0.3-0.2-0.4c-0.1-0.2-0.2-0.3-0.3-0.5c-0.1-0.1-0.1-0.3-0.2-0.4c-0.1-0.2-0.2-0.3-0.3-0.5   c-0.1-0.1-0.2-0.3-0.2-0.5c-0.1-0.2-0.2-0.4-0.3-0.5c-0.1-0.2-0.2-0.3-0.3-0.5c-0.1-0.2-0.2-0.4-0.3-0.6c-0.1-0.2-0.2-0.3-0.3-0.5   c-0.1-0.2-0.2-0.4-0.3-0.6c-0.1-0.1-0.2-0.3-0.3-0.5c-0.1-0.2-0.2-0.4-0.4-0.6c-0.1-0.1-0.2-0.3-0.3-0.5c-0.1-0.2-0.2-0.4-0.4-0.6   c-0.1-0.1-0.2-0.3-0.3-0.4c-0.1-0.2-0.3-0.4-0.4-0.6c-0.1-0.1-0.2-0.3-0.2-0.4c-0.2-0.3-0.3-0.5-0.5-0.8c-0.1-0.1-0.1-0.2-0.2-0.3   c-0.2-0.4-0.4-0.7-0.7-1c-0.1-0.1-0.1-0.2-0.1-0.2c-0.2-0.3-0.3-0.5-0.5-0.8c-0.1-0.1-0.2-0.2-0.2-0.4c-0.1-0.2-0.3-0.4-0.4-0.6   c-0.1-0.1-0.2-0.3-0.3-0.4c0,0-0.1-0.1-0.1-0.1c0.1,0.1,0.2,0.2,0.3,0.4c0.1,0.1,0.2,0.2,0.3,0.4c0.1,0.1,0.2,0.2,0.3,0.4   c0.1,0.1,0.2,0.3,0.3,0.4c0.1,0.1,0.2,0.2,0.3,0.4c0.1,0.1,0.2,0.3,0.3,0.4c0.1,0.1,0.2,0.3,0.3,0.4c0.1,0.1,0.2,0.3,0.3,0.4   c0.1,0.1,0.2,0.3,0.3,0.4s0.2,0.3,0.3,0.4s0.2,0.3,0.3,0.4c0.1,0.1,0.2,0.2,0.3,0.4s0.2,0.3,0.3,0.4c0.1,0.1,0.2,0.3,0.3,0.4   s0.2,0.2,0.3,0.4c0.1,0.1,0.2,0.2,0.3,0.4c0.1,0.1,0.2,0.2,0.3,0.4c0.1,0.1,0.2,0.2,0.3,0.4c0.1,0.1,0.2,0.2,0.3,0.3   s0.2,0.2,0.3,0.3s0.2,0.2,0.3,0.3s0.2,0.2,0.3,0.3c0.1,0.1,0.2,0.2,0.3,0.3c0.1,0.1,0.2,0.2,0.3,0.3c0.1,0.1,0.2,0.2,0.3,0.3   c0.1,0.1,0.2,0.2,0.3,0.3c0.1,0.1,0.2,0.2,0.2,0.2c0.1,0.1,0.2,0.2,0.3,0.2c0.1,0.1,0.1,0.1,0.2,0.2c0.1,0.1,0.2,0.1,0.2,0.2   c0.1,0.1,0.1,0.1,0.2,0.2c0.1,0.1,0.1,0.1,0.2,0.2c0.1,0,0.1,0.1,0.2,0.1c0.1,0,0.1,0.1,0.2,0.1c0.1,0,0.1,0.1,0.2,0.1   c0.1,0,0.1,0.1,0.2,0.1c0,0,0.1,0,0.1,0.1c0.1,0,0.1,0,0.2,0c0,0,0.1,0,0.1,0c0.1,0,0.1,0,0.2,0s0.1-0.1,0.1-0.1c0,0,0-0.1,0-0.1   c0,0,0-0.1,0-0.1c0,0,0-0.1,0-0.1c0-0.1,0-0.1,0-0.2c0,0,0-0.1,0-0.2c0-0.1,0-0.1,0-0.2c0-0.1,0-0.1-0.1-0.2c0-0.1,0-0.2-0.1-0.2   c0-0.1-0.1-0.2-0.1-0.2c0-0.1-0.1-0.2-0.1-0.3c0-0.1-0.1-0.2-0.1-0.3c0-0.1-0.1-0.2-0.1-0.3c0-0.1-0.1-0.2-0.1-0.3   c-0.1-0.1-0.1-0.2-0.1-0.3c-0.1-0.1-0.1-0.2-0.1-0.3c-0.1-0.1-0.1-0.2-0.2-0.4c-0.1-0.1-0.1-0.2-0.2-0.4c-0.1-0.1-0.1-0.2-0.2-0.4   c-0.1-0.1-0.1-0.3-0.2-0.4s-0.1-0.3-0.2-0.4c-0.1-0.1-0.1-0.3-0.2-0.4c-0.1-0.1-0.1-0.3-0.2-0.4s-0.1-0.3-0.2-0.4   c-0.1-0.1-0.1-0.3-0.2-0.4c-0.1-0.1-0.1-0.3-0.2-0.4c-0.1-0.2-0.2-0.3-0.2-0.5c-0.1-0.1-0.2-0.3-0.2-0.4c-0.1-0.1-0.2-0.3-0.3-0.5   s-0.2-0.3-0.3-0.5c-0.1-0.1-0.2-0.3-0.2-0.4s-0.2-0.3-0.3-0.5c-0.1-0.1-0.2-0.3-0.3-0.5c-0.1-0.1-0.2-0.3-0.3-0.5   c-0.1-0.1-0.2-0.3-0.3-0.5c-0.1-0.1-0.2-0.3-0.3-0.5c-0.1-0.1-0.2-0.3-0.3-0.5c-0.1-0.1-0.2-0.3-0.3-0.5c-0.1-0.1-0.2-0.3-0.3-0.4   c-0.1-0.1-0.2-0.3-0.3-0.4c-0.1-0.1-0.2-0.3-0.3-0.5c-0.1-0.1-0.2-0.3-0.3-0.4c-0.1-0.1-0.2-0.3-0.3-0.4c-0.1-0.1-0.2-0.3-0.3-0.4   c-0.1-0.1-0.2-0.3-0.3-0.4c-0.1-0.1-0.2-0.3-0.3-0.4c-0.1-0.1-0.2-0.3-0.3-0.4c-0.1-0.1-0.2-0.2-0.3-0.4c-0.1-0.1-0.2-0.3-0.3-0.4   c-0.1-0.1-0.2-0.2-0.2-0.3c-0.1-0.1-0.2-0.2-0.3-0.4c-0.1-0.1-0.2-0.2-0.2-0.3c-0.1-0.1-0.2-0.2-0.2-0.3c-0.1-0.1-0.1-0.2-0.2-0.3   c-0.1-0.1-0.2-0.2-0.2-0.3c-0.1-0.1-0.1-0.2-0.2-0.3s-0.1-0.2-0.2-0.3s-0.1-0.2-0.2-0.2c-0.1-0.1-0.1-0.2-0.2-0.2c0,0,0,0-0.1,0   l0.6,0.3c-1.6-1.9-4.1-4.1-7-6.2c-1.3-1-2.6-1.9-4.1-2.9c0.8-0.1,1.4-0.1,1.6-0.1c1.9,0.2,5.5-3.2,5.2-4.8   c-0.3-1.5-8.6-0.5-13.6-2.8c-8.1-3.7-14.4,0.5-14.4,0.5l-36.3-19.8l-3,10.2c-14.5-12.1-41.9-35-43.3-36.6   c-1.1-1.8-8.2-48-13.9-87.1c6.6,21.9,14.9,48.3,17.2,49.2c3.5,1.5,112.4,46.3,113.5,46.8l0.1,0l28.2-3.9l0,3.8l34.4,0.6   c1,2.4,3.5,3.8,6.5,4.7c12.3,3.4,27.9,6.8,27.9,6.8s3.8-1,1.6-4.9c0,0,5-3,2.2-4.8c0,0,3.9-4.9,0.5-6.2v0   c3.1,1.1,19.2,6.5,21.1,5.5h0c0.1,0,0.1-0.1,0.1-0.1C357.5,377.6,339.9,368.7,335.1,367.9z"/>
	<path class="st0 file-2-element-73" d="M131.2,366.7c-6.7-38-20.8-115.4-42.6-108.5c-35.2,11.2,6.8,126.4,6.8,126.4l50.9,81.3c0,0,30.5-4.3,40.6-15.7   s16-26.8,21.4-41C191.8,400,152.9,378.7,131.2,366.7z"/>
	<path class="st0 file-2-element-74" d="M140.2,289.1l-17.6-24.2c0,0-26.9,8.2-41.4-13.7c0,0-11.8,14.4-15.4,23.4c-11.4,28.1,1.8,124.9,1.8,124.9v12.7   c0,0,1.1,2-6,14.9c-17.1,30.9-33.9,233.2-25.4,234.4s53.3-2.1,70.2-2.1s27.7-5,32.5,0c4.8,5,42.2-8.3,42.2-8.3   S166.5,358.8,140.2,289.1z"/>
	<path class="st0 file-2-element-75" d="M33.9,264.9c-0.2-2.5,37-21.5,61.8-10.3c16.2,7.3,43.2,34.9,43.2,34.9s-18.3-20.5-44.4-21.8S59,309.5,59,309.5   S38.2,308.4,33.9,264.9z"/>
	<path class="st0 file-2-element-76" d="M87.8,229.3"/>
	<path class="st0 file-2-element-77" d="M193.5,136.2c-0.5-0.8-1.1-1.5-1.8-2c0.4,0,0.7,0,1.1,0c-0.2-0.2-0.4-0.5-0.6-0.8c0,0,1.8-6.5-12.1-8   c0,0-6.9-19.8-14.5-16.6c0,0-21.1-36-41.4-32.7C104,79.3,94,92,90.3,96.1s-8.8,11.4-22.9,22.5S31,143.8,31.2,157.3   c0.2,8.2,0.4,16.7,2.6,24.6c1.4,5.1,3,10.7,6.2,15.1c1.4,1.9,2.9,3.5,4.9,4.9c0.9,0.7,7.7,2.8,7.6,2.6c0.2,0.3,0.3,0.4,0.3,0.4   c1.8,4.6,0.7,9.8,3.3,14.6c2.6,4.7,6.7,9.2,11.2,12c4.8,3.1,11,4.4,16.3,2.2c0.6,4.5,5.2,6.4,9.2,5.9c0.2,0,0.3-0.1,0.4-0.1   c0.3-0.1,0.6-0.1,0.9-0.1c0.2,0,0.3-0.1,0.5-0.1c0.2-0.1,0.5-0.1,0.7-0.2c0.2-0.1,0.3-0.1,0.4-0.2c0.1-0.1,0.3-0.1,0.4-0.2   c1.9-0.8,3.1-2.1,4-3.7c3.3,4.9,8.7,8.6,17.8,8.2c0,0-2.8,18.8,15.7,21.2c7.5,12.6,13.3,9.7,16.8,5.6l0.5-0.7   c-0.2,0.3,8.9,3.3,9.9,3.4c4.4,0.4,4.2-5.5,7.3-9.2c5.6-6.6,5-8,1.6-14c-2.4-4.2-2.9-10-6.9-13c-0.3-0.2-13.2-9.1-13.2-9.1   s16.4-4.5,21.1-10.7c3-4-30.6-17.6-49.1,5.3c0,0-12.8-34.9-16.4-44.4c0.1-0.5,0.3-1,0.5-1.4c2.2-5.9,5.1-10.4,9.3-15   c1.4-2.6,3.7-8.3,5.8-10.3c0.8-0.8,2.5,0.3,3.8,0.6c0.5,0,1.1-0.1,1.6-0.1c2.1-1.6,4.5-2.7,6.9-3.9c1.1-0.5,2.1-1.1,3.2-1.6   c1.1-1.1,2.1-2.2,3.1-3.4c2.1-2.3,4.1-4.6,6.5-6.5c0.6-2.1,1.1-4.1,1.9-5.5c0.1-0.2,1.4,1.8,2.2,3c0.4,0,0.6,0.4,0.6,0.7   c0.5,0.1,1,0.2,1.5,0.4c4.4,0.8,8.9,3,13.3,3.4c0,3.6,2.4,7.6,3.2,10.7c1.6,6.9,1.7,14,1.8,21c0,2.5,3,4.6,5.3,3   c3.2-2.3,6.4-4.8,9.2-7.6c2.3-1.9,4.3-4.1,5.6-7c1.4-2.4,2.5-4.9,3.1-7.6C195.6,146,196.2,140.7,193.5,136.2z M77,165.1   c-0.2,1.2-4.7,12.8-5.9,15.4c-0.1,0.3-0.7,0.4-0.9,0.2c-1.3-0.8-2.2-2.1-2.9-3.4c-0.8-1.3-1.5-2.7-2.1-4.1c-1-2.7-1.5-5.7-1.3-8.5   c0.1-2.7,0.8-5.8,2.9-7.6c0.2-0.1,0.3-0.2,0.5-0.4c0-0.2,0.1-0.4,0.3-0.6c1.6-1.1,3.5-1.1,5.2-0.1C75.5,157.9,77.7,161.8,77,165.1z   "/>
	<path class="st0 file-2-element-78" d="M191.9,342.4c-25.7-22.3-94.2-83.4-107.7-62.8C61.5,314,173,372.9,173,372.9l76.1,58.5   c0,0,27.1-14.7,32.5-28.9s5.7-30.7,5.8-45.9C266.2,353.3,213.1,345.7,191.9,342.4z"/>
</g>
<g id="InteriorMonasteryRoom1">
	<g>
		<path class="st1 file-2-element-79" d="M43.8,203.6"/>
		<path class="st2 file-2-element-80" d="M-55.5,101.9c-0.1,0-0.2,0-0.3,0c-30.7,0-61.9,9.9-86,28.1l13.4,30.7c18.5-15.7,46.5-25.2,72.6-25.2l0,0    c0.1,0,0.2,0,0.3,0V101.9z"/>
		<path class="st2 file-2-element-81" d="M-55,135.5c22.5,0.2,43.2,7.3,60.3,19.4l22.8-24.9c-23.9-18-52.7-27.8-83.1-28V135.5z"/>
		<path class="st2 file-2-element-82" d="M39.9,139.9c-3.8-3.6-7.8-6.9-11.9-10L5.7,155.1c13.3,9.5,24.4,22,32.2,36.5"/>
		<path class="st2 file-2-element-83" d="M44,204.4c-0.1,0-0.2,0.1-0.3,0.1c2.5,6.8,4.4,13.8,5.5,21.1c0,0,4.8,0,10.7,0"/>
	</g>
	<path class="st1 file-2-element-84" d="M354.8,196.6"/>
	<path class="st2 file-2-element-85" d="M327.2,359.4c0-49.4,0-105.9,0-105.9H399c0,0,0,48.8,0,95.3"/>
	<polygon class="st2 file-2-element-86" points="399.8,253.5 326.5,253.5 311.9,225.6 414.4,225.6  "/>
	<polygon class="st2 file-2-element-87" points="374.7,313.1 367.5,313.1 367.5,300.8 358.7,300.8 358.7,313.1 351.6,313.1 351.6,322 358.7,322    358.7,347 367.5,347 367.5,322 374.7,322  "/>
	<path class="st2 file-2-element-88" d="M575.5,472.5c7.3,0,14.6,0,21.8,0"/>
	<path class="st2 file-2-element-89" d="M719.1,472.5c54.6,0,89,0,89,0V640H-13.4V472.5c0,0,24,0,63.7,0"/>
	<path class="st2 file-2-element-90" d="M168.4,472.5c12.5,0,25.5,0,38.8,0"/>
	<g>
		<path class="st1 file-2-element-91" d="M321.6,203.6"/>
		<path class="st2 file-2-element-92" d="M196.9,138.4c8-1.9,16.4-3,25-3c0.1,0,0.2,0,0.3,0v-33.6c-0.1,0-0.2,0-0.3,0c-16.8,0-33,2.9-48.3,8.5"/>
		<path class="st2 file-2-element-93" d="M222.8,135.5c22.5,0.2,43.2,7.3,60.3,19.4l22.8-24.9c-23.9-18-52.7-27.8-83.1-28L222.8,135.5L222.8,135.5z"/>
		<path class="st2 file-2-element-94" d="M320.7,142.8c-4.7-4.7-9.7-9.1-15-13l-22.3,25.3c17,12.1,30.3,29.2,37.8,49.1l33.2-6.8    C347.8,177,336.3,158.4,320.7,142.8z"/>
		<path class="st2 file-2-element-95" d="M326.9,225.6h33.9c-1.1-9.5-3.1-18.8-6.1-27.8c-7.7,1.6-21.3,4.3-33.3,6.7    C323.9,211.2,325.8,218.3,326.9,225.6z"/>
	</g>
	<g>
		<path class="st1 file-2-element-96" d="M402.4,203.6"/>
		<path class="st2 file-2-element-97" d="M573.8,159.9c-18.5-15.3-46-24.5-71.8-24.5c-0.1,0-0.2,0-0.3,0v-33.6c0.1,0,0.2,0,0.3,0    c23,0,46.4,5.6,66.8,16"/>
		<path class="st2 file-2-element-98" d="M501.1,135.5c-22.5,0.2-43.2,7.3-60.3,19.4l-22.8-25c23.9-18,52.7-27.8,83.1-28V135.5z"/>
		<path class="st2 file-2-element-99" d="M403.2,142.8c4.7-4.7,9.7-9.1,15-13l22.3,25.3c-17,12.1-30.3,29.2-37.8,49.1l-33.2-6.8    C376.2,177,387.6,158.4,403.2,142.8z"/>
		<path class="st2 file-2-element-100" d="M397,225.6h-33.9c1.1-9.5,3.1-18.8,6.1-27.8c7.7,1.6,21.3,4.3,33.3,6.7C400,211.2,398.1,218.3,397,225.6z"/>
	</g>
	<g>
		<path class="st1 file-2-element-101" d="M685.3,203.6"/>
		<path class="st2 file-2-element-102" d="M784.7,101.9c0.1,0,0.2,0,0.3,0c30.7,0,61.9,9.9,86,28.1l-13.4,30.7c-18.5-15.7-46.5-25.2-72.6-25.2l0,0    c-0.1,0-0.2,0-0.3,0V101.9z"/>
		<path class="st2 file-2-element-103" d="M784.1,135.5c-22.5,0.2-43.2,7.3-60.3,19.4L701,129.9c23.9-18,52.7-27.8,83.1-28V135.5z"/>
		<path class="st2 file-2-element-104" d="M684.6,144.4c0.5-0.5,1-1,1.5-1.6c4.7-4.7,9.7-9.1,15-13l22.3,25.3c-17,12.1-30.3,29.2-37.8,49.1    c0,0-1.8-0.4-4.6-0.9"/>
		<path class="st2 file-2-element-105" d="M680.3,203.5c1.8,0.4,3.5,0.7,5.2,1c-1.1,3-2.1,6-3,9.1"/>
	</g>
	<path class="st2 file-2-element-106" d="M50,472.5c-1.9,0-2.9,0-2.9,0s0-105.1,0-169.7"/>
	<path class="st2 file-2-element-107" d="M607.7,305.8c0-5.2,0-10.2,0-14.9"/>
	<path class="st2 file-2-element-108" d="M44.9,250.8c-3.7-7.1-13.2-25.1-13.2-25.1s12.3,0,28.4,0"/>
	<path class="st2 file-2-element-109" d="M507.4,466.7c0,8.3,0,15.9,0,15.9s-31.1,0-70.4,0"/>
	<path class="st2 file-2-element-110" d="M384.4,482.6c-55.4,0-108.6,0-108.6,0s0-7.1,0-15.1"/>
	<path class="st2 file-2-element-111" d="M275.7,445.1c0,0,22.4,0,53.2,0"/>
	<path class="st2 file-2-element-112" d="M478.4,445.1c17.6,0,28.9,0,28.9,0"/>
	<path class="st2 file-2-element-113" d="M275.7,466.7c0,66.2,0,168.8,0,168.8h-34.1c0,0,0-96.5,0-165.5"/>
	<path class="st2 file-2-element-114" d="M541.5,469.6c0,68.7,0,164.9,0,164.9h-34.1c0,0,0-101.1,0-168"/>
	<g>
		<path class="st2 file-2-element-115" d="M231,492.5c-12.8-13-33-4.2-33,13.7c0,12.1,9.8,21.8,21.8,21.8c12.1,0,21.8-9.8,21.8-21.8c0-1.2,0-3.6,0-3.6    s0-16,0-31.1"/>
		<path class="st2 file-2-element-116" d="M198.6,446.4c2.6,8.5,12.5,40.8,12.5,40.8"/>
		<path class="st2 file-2-element-117" d="M213,496c0.9-0.3,1.9-0.6,2.9-0.7c6.9-1,13.3,3.7,14.3,10.6c0.8,5.5-3,10.6-8.5,11.4    c-4.4,0.7-8.5-2.4-9.1-6.8c-0.5-3.5,1.9-6.8,5.4-7.3c0.5-0.1,1.1-0.1,1.6,0"/>
	</g>
	<g>
		<path class="st2 file-2-element-118" d="M552.1,492.5c12.8-13,33-4.2,33,13.7c0,12.1-9.8,21.8-21.8,21.8c-12,0-21.8-9.8-21.8-21.8c0-1.2,0-3.6,0-3.6    s0-15.7,0-30.7"/>
		<line class="st2 file-2-element-119" x1="585.1" y1="444.4" x2="572" y2="487.2"/>
		<path class="st2 file-2-element-120" d="M570.1,496c-0.9-0.3-1.9-0.6-3-0.7c-6.9-1-13.3,3.7-14.3,10.6c-0.8,5.5,3,10.6,8.5,11.4    c4.4,0.7,8.5-2.4,9.2-6.8c0.5-3.5-1.9-6.8-5.4-7.3c-0.5-0.1-1.1-0.1-1.6,0"/>
	</g>
	<g>
		<g>
			<path class="st2 file-2-element-121" d="M242,445.2c2.4,0,3.9,0,3.9,0c0,10.8-2.8,34.5-16.2,34.5c-13.1,0-16.1-22.8-16.2-33.9"/>
			<path class="st2 file-2-element-122" d="M229.7,461c0,7.3,0,14.6,0,14.6"/>
		</g>
		<g>
			<path class="st2 file-2-element-123" d="M278.2,445.2c0,10.8-2.8,34.5-16.2,34.5s-16.2-23.7-16.2-34.5H278.2z"/>
			<line class="st2 file-2-element-124" x1="262.1" y1="446.1" x2="262.1" y2="475.6"/>
		</g>
		<g>
			<path class="st2 file-2-element-125" d="M310.6,445.2c0,10.8-2.8,34.5-16.2,34.5s-16.2-23.7-16.2-34.5H310.6z"/>
			<line class="st2 file-2-element-126" x1="294.4" y1="446.1" x2="294.4" y2="475.6"/>
		</g>
		<g>
			<path class="st2 file-2-element-127" d="M342.4,454.8c-1.4,11.3-5.4,24.9-15.6,24.9c-13.4,0-16.2-23.7-16.2-34.5c0,0,9.9,0,18.8,0"/>
			<line class="st2 file-2-element-128" x1="326.8" y1="446.1" x2="326.8" y2="475.6"/>
		</g>
		<g>
			<path class="st2 file-2-element-129" d="M369.8,472.5c-2.4,4.3-5.8,7.3-10.6,7.3c-10.2,0-14.2-13.7-15.6-25.1"/>
			<path class="st2 file-2-element-130" d="M359.2,465.2c0,6.1,0,10.4,0,10.4"/>
		</g>
		<g>
			<path class="st2 file-2-element-131" d="M472.2,451.8c-1,11.7-4.8,28-15.9,28c-3.9,0-6.9-2-9.2-5.1"/>
			<path class="st2 file-2-element-132" d="M456.3,465.2c0,5.7,0,10.4,0,10.4"/>
		</g>
		<g>
			<path class="st2 file-2-element-133" d="M478.2,445.2c9.3,0,26.6,0,26.6,0c0,10.8-2.8,34.5-16.2,34.5c-11,0-14.9-16.1-15.9-27.9"/>
			<line class="st2 file-2-element-134" x1="488.7" y1="446.1" x2="488.7" y2="475.6"/>
		</g>
		<g>
			<path class="st2 file-2-element-135" d="M537.1,450c-0.7,11.8-4.3,29.8-16,29.8c-13.4,0-16.2-23.7-16.2-34.5c0,0,20.2,0,28.7,0"/>
			<line class="st2 file-2-element-136" x1="521" y1="446.1" x2="521" y2="475.6"/>
		</g>
		<g>
			<path class="st2 file-2-element-137" d="M569.4,445.2c0.1,0,0.2,0,0.2,0c0,10.8-2.8,34.5-16.2,34.5c-12,0-15.5-19-16.1-30.8"/>
			<path class="st2 file-2-element-138" d="M553.4,456.5c0,8.5,0,19.1,0,19.1"/>
		</g>
	</g>
	<path class="st2 file-2-element-139" d="M510.2,431.9c4.3,0,8.4,0,12.4,0"/>
	<path class="st2 file-2-element-140" d="M588.1,433.3c1.6,1.2,2.6,3.1,2.6,5.2c0,3.6-3,6.6-6.6,6.6c0,0-4.5,0-12.7,0"/>
	<path class="st2 file-2-element-141" d="M533.6,445.1c-14.3,0-31.1,0-49.2,0"/>
	<path class="st2 file-2-element-142" d="M328.4,445.1c-33.1,0-63.5,0-86.4,0"/>
	<path class="st2 file-2-element-143" d="M210.7,445.1c-7.4,0-11.6,0-11.6,0c-2.4,0-4.5-1.3-5.7-3.2"/>
	<path class="st2 file-2-element-144" d="M233.6,431.9c19.9,0,47.1,0,77.5,0"/>
	<rect x="275.7" y="549.3" class="st2 file-2-element-145" width="231.6" height="42.2"/>
	<g>
		<g>
			<g>
				<path class="st2 file-2-element-146" d="M382.3,369.2c1-2.6,8.1-18.9,22.5-23.3c0,0,20.2-5.6,27.7-5.5c0,0,13.2,3.2,30.9,7.5"/>
				<path class="st2 file-2-element-147" d="M482.1,352.5c7.2,1.7,14.5,3.5,21.6,5.2"/>
				<path class="st2 file-2-element-148" d="M477.8,445.4c-23.8,21.6-60.4,54.7-60.4,54.7c-2,1.8-5,2-7.3,0.5l-121.7-84.4c-1.4-1-1.2-3.1,0.3-3.8
					 c0,0,4-1.8,10.4-4.7"/>
				<polygon class="st2 file-2-element-149" points="298.5,408.5 308,392.3 431.7,468.2 419.3,492.2
					"/>
				<path class="st2 file-2-element-150" d="M455.4,397.7C471,403.8,485,409.3,492,412"/>
				<path class="st2 file-2-element-151" d="M469.4,433.2c-9.2,9.8-31.2,33-37.7,35.8l-123.3-77.3c0,0,3.4-2,8.3-4.8"/>
				<path class="st2 file-2-element-152" d="M345.6,371.2c3.3-1.7,5.9-2.8,7-3.1c0,0,8.7-4.5,15.7-3.1l18.7,6.1c0,0,32.9,12.8,62.6,24.4"/>
				<path class="st2 file-2-element-153" d="M467.8,434.7c-9.3,9.7-30.6,31.5-36.1,34.3l-12.4,23.2c15-14.4,30-28.9,45-43.4c1.8-1.8,3.7-3.6,5.5-5.4"/>
				<path class="st2 file-2-element-154" d="M367.7,416.9c-0.9-2.6-0.1-5.8,1.9-7.7s5.2-2.5,7.8-1.4c-1-1.6-0.7-3.9,0.8-5.2c1.4-1.3,3.7-1.4,5.3-0.3
					 c-0.5-3.6,4-6.8,7.2-5.2"/>
				<path class="st2 file-2-element-155" d="M398.8,396.6c-0.6-1-1.3-2.1-1.5-3.3s0.2-2.6,1.3-3.2c1-0.6,2.7,0,2.8,1.2c-1.1-1.4-0.6-3.8,0.9-4.7
					 c1.5-0.9,3.8-0.2,4.6,1.4"/>
				<path class="st2 file-2-element-156" d="M379.9,427.1c0.7-1.3,0.4-2.8,0.1-4.2s-0.5-3,0.2-4.2c0.8-1.2,3-1.4,3.5,0c0.3-1.1,0.6-2.3,0.8-3.5
					 c0.6,0.6,1.1,1.3,1.7,2c1.4-1.3,2.1-3.3,1.9-5.2c0.7,1.3,2.4,1.9,3.8,1.4c1.4-0.6,2.1-2.2,1.7-3.6c0.2,0.7,0.5,1.3,0.7,2
					 c0.5,0,1,0.1,1.4,0.1"/>
				<path class="st2 file-2-element-157" d="M400.7,404.9c0.2,1.2,1.4,2.2,2.6,2.1c-0.9-3.2,0.3-7,2.9-9.1c1.2,1.6,2.8,3.4,4.7,2.9
					 c0.8-0.2,1.4-0.8,2.1-1.3c2.3-2,4.5-4,6.8-6.1"/>
				<path class="st2 file-2-element-158" d="M395.9,431.4c-0.8-3.9,1.5-8.1,5.2-9.5c0.4,1.2,0.8,2.4,1.2,3.5c-0.9-3.7,2.4-7.9,6.3-7.7
					 c0.2,0.6,0.4,1.2,0.6,1.9c-0.2-2.6,0.5-5.2,1.9-7.4c5.3,0.9,10.9-3,11.8-8.3c0.4,0.3,0.9,0.6,1.3,0.9"/>
				<path class="st2 file-2-element-159" d="M405.9,435.6c1-1,2-2,3.1-3c0,0.6,0.5,1.2,1.1,1.3c4.9-4.5,9.1-9.6,12.5-15.2c0.5,1.5,2.4,2.3,3.8,1.7
					 s2.2-2.4,1.7-3.8"/>
				<path class="st2 file-2-element-160" d="M423.3,440.9c1.6-3.9,4-7.4,6.9-10.4c0.6,1.2,1.6,2.1,2.8,2.7c1.9-3,3.8-6.1,5.7-9.2"/>
				<path class="st2 file-2-element-161" d="M355.9,406.8c-1.1-1.5-0.3-4,1.4-4.7c1.8-0.7,4,0.6,4.2,2.5c-0.2-1.7-0.4-3.4,0.2-5
					 c0.6-1.6,2.3-2.9,3.9-2.4c0.9,0.2,1.6,1,2.5,1c1.2,0,2.1-1.2,2.2-2.3s-0.4-2.3-0.9-3.4"/>
				<path class="st2 file-2-element-162" d="M377.9,388c0.6,1.5,2.6,2.3,4.1,1.6c0.1-1.9,0.2-3.8,0.2-5.6c0.4,2,2.5,3.4,4.5,3.1
					 c0.5-1.4,0.9-2.8,1.3-4.2c1.9,1.6,5.3,0.3,5.8-2.1"/>
			</g>
		</g>
		<g>
			<g>
				<path class="st2 file-2-element-163" d="M382.3,369.2c1-2.6,8.1-18.9,22.5-23.3c0,0,20.2-5.6,27.7-5.5c0,0,13.2,3.2,30.9,7.5"/>
				<path class="st2 file-2-element-164" d="M482.1,352.5c7.2,1.7,14.5,3.5,21.6,5.2"/>
				<path class="st2 file-2-element-165" d="M477.8,445.4c-23.8,21.6-60.4,54.7-60.4,54.7c-2,1.8-5,2-7.3,0.5l-121.7-84.4c-1.4-1-1.2-3.1,0.3-3.8
					 c0,0,4-1.8,10.4-4.7"/>
				<polygon class="st2 file-2-element-166" points="298.5,408.5 308,392.3 431.7,468.2 419.3,492.2
					"/>
				<path class="st2 file-2-element-167" d="M455.4,397.7C471,403.8,485,409.3,492,412"/>
				<path class="st2 file-2-element-168" d="M469.4,433.2c-9.2,9.8-31.2,33-37.7,35.8l-123.3-77.3c0,0,3.4-2,8.3-4.8"/>
				<path class="st2 file-2-element-169" d="M345.6,371.2c3.3-1.7,5.9-2.8,7-3.1c0,0,8.7-4.5,15.7-3.1l18.7,6.1c0,0,32.9,12.8,62.6,24.4"/>
				<path class="st2 file-2-element-170" d="M467.8,434.7c-9.3,9.7-30.6,31.5-36.1,34.3l-12.4,23.2c15-14.4,30-28.9,45-43.4c1.8-1.8,3.7-3.6,5.5-5.4"/>
				<path class="st2 file-2-element-171" d="M367.7,416.9c-0.9-2.6-0.1-5.8,1.9-7.7s5.2-2.5,7.8-1.4c-1-1.6-0.7-3.9,0.8-5.2c1.4-1.3,3.7-1.4,5.3-0.3
					 c-0.5-3.6,4-6.8,7.2-5.2"/>
				<path class="st2 file-2-element-172" d="M398.8,396.6c-0.6-1-1.3-2.1-1.5-3.3s0.2-2.6,1.3-3.2c1-0.6,2.7,0,2.8,1.2c-1.1-1.4-0.6-3.8,0.9-4.7
					 c1.5-0.9,3.8-0.2,4.6,1.4"/>
				<path class="st2 file-2-element-173" d="M379.9,427.1c0.7-1.3,0.4-2.8,0.1-4.2s-0.5-3,0.2-4.2c0.8-1.2,3-1.4,3.5,0c0.3-1.1,0.6-2.3,0.8-3.5
					 c0.6,0.6,1.1,1.3,1.7,2c1.4-1.3,2.1-3.3,1.9-5.2c0.7,1.3,2.4,1.9,3.8,1.4c1.4-0.6,2.1-2.2,1.7-3.6c0.2,0.7,0.5,1.3,0.7,2
					 c0.5,0,1,0.1,1.4,0.1"/>
				<path class="st2 file-2-element-174" d="M400.7,404.9c0.2,1.2,1.4,2.2,2.6,2.1c-0.9-3.2,0.3-7,2.9-9.1c1.2,1.6,2.8,3.4,4.7,2.9
					 c0.8-0.2,1.4-0.8,2.1-1.3c2.3-2,4.5-4,6.8-6.1"/>
				<path class="st2 file-2-element-175" d="M395.9,431.4c-0.8-3.9,1.5-8.1,5.2-9.5c0.4,1.2,0.8,2.4,1.2,3.5c-0.9-3.7,2.4-7.9,6.3-7.7
					 c0.2,0.6,0.4,1.2,0.6,1.9c-0.2-2.6,0.5-5.2,1.9-7.4c5.3,0.9,10.9-3,11.8-8.3c0.4,0.3,0.9,0.6,1.3,0.9"/>
				<path class="st2 file-2-element-176" d="M405.9,435.6c1-1,2-2,3.1-3c0,0.6,0.5,1.2,1.1,1.3c4.9-4.5,9.1-9.6,12.5-15.2c0.5,1.5,2.4,2.3,3.8,1.7
					 s2.2-2.4,1.7-3.8"/>
				<path class="st2 file-2-element-177" d="M423.3,440.9c1.6-3.9,4-7.4,6.9-10.4c0.6,1.2,1.6,2.1,2.8,2.7c1.9-3,3.8-6.1,5.7-9.2"/>
				<path class="st2 file-2-element-178" d="M355.9,406.8c-1.1-1.5-0.3-4,1.4-4.7c1.8-0.7,4,0.6,4.2,2.5c-0.2-1.7-0.4-3.4,0.2-5
					 c0.6-1.6,2.3-2.9,3.9-2.4c0.9,0.2,1.6,1,2.5,1c1.2,0,2.1-1.2,2.2-2.3s-0.4-2.3-0.9-3.4"/>
				<path class="st2 file-2-element-179" d="M377.9,388c0.6,1.5,2.6,2.3,4.1,1.6c0.1-1.9,0.2-3.8,0.2-5.6c0.4,2,2.5,3.4,4.5,3.1
					 c0.5-1.4,0.9-2.8,1.3-4.2c1.9,1.6,5.3,0.3,5.8-2.1"/>
			</g>
		</g>
	</g>
	<g>
		<path class="st2 file-2-element-180" d="M495.8,371.4c-1,0-2,0-3-0.1"/>
		<g>
			<path class="st3 file-2-element-181" d="M460.7,392.8c1.8,0.5,4,0.5,6,0.4C464.6,393,462.7,392.7,460.7,392.8z"/>
			<path class="st3 file-2-element-182" d="M466.7,393.1c1.3,0.1,2.6,0.1,4,0c0.1,0,0.2,0,0.3,0c-0.6-0.1-1.2-0.1-1.8-0.1
					C468.4,393,467.5,393.1,466.7,393.1z"/>
			<path class="st2 file-2-element-183" d="M476.3,401.4c2.1,0.5,4.4,0.6,6.5,0c6.1-1.6,10-7.7,15.3-10.9"/>
			<g>
				<path class="st3 file-2-element-184" d="M471.4,401.2c2.6,0.1,5.2-0.4,7.4-1.8c0.8-0.5,1.6-1.5,1.2-2.4c-0.3-0.5-0.9-0.8-1.5-1
					 c-4.4-1.2-10.4-1.1-14.8,0c-2.1,0.5-2.5,2.5-0.5,3.6C465.3,400.8,469,401.1,471.4,401.2z"/>
				<path class="st2 file-2-element-185" d="M471.4,401.2c2.6,0.1,5.2-0.4,7.4-1.8c0.8-0.5,1.6-1.5,1.2-2.4c-0.3-0.5-0.9-0.8-1.5-1
					 c-4.4-1.2-10.4-1.1-14.8,0c-2.1,0.5-2.5,2.5-0.5,3.6C465.3,400.8,469,401.1,471.4,401.2z"/>
			</g>
			<g>
				<path class="st3 file-2-element-186" d="M474,390.9c0-1.2-0.9-2.2-2-2.6c-0.5-0.2-1-0.3-1.6-0.3c-0.1,0-0.2,0-0.3,0c-1.4,0.2-13.2,0.4-14.8,1
					 c-0.4,0.2-0.9,0.4-1.1,0.8c-0.6,1,0.3,2.1,1.1,2.7c4.1,3,9.6,3.8,14.7,2.3c0.9-0.3,1.9-0.6,2.7-1.3
					 C473.4,392.9,474,391.9,474,390.9z"/>
				<path class="st2 file-2-element-187" d="M456.2,393.2c4,2.4,9,3.1,13.7,1.7c0.9-0.3,1.9-0.6,2.7-1.3s1.4-1.7,1.3-2.7c0-1.2-0.9-2.2-2-2.6
					 c-0.5-0.2-1-0.3-1.6-0.3c-0.1,0-0.2,0-0.3,0c-1,0.1-8.1,0.3-12.2,0.6"/>
			</g>
			<g>
				<path class="st3 file-2-element-188" d="M461.7,387.4c0.6,0,1.2,0,1.8,0.1c1-0.1,2.2-0.4,2.7-1.4c0.4-0.8,0.2-1.9-0.4-2.6c-0.6-0.7-1.4-1.2-2.3-1.6
					 c-3.7-1.7-7.9-2.5-12-2.4c-1.5,0-3.8,0-5.2,0.5c-2,0.7-2,3-0.4,4.2c1.8,1.3,7.2,2.8,7.4,2.9c2,0,4,0.2,6,0.4
					 C460.1,387.5,460.9,387.4,461.7,387.4z"/>
				<path class="st2 file-2-element-189" d="M456.3,379.9c-1.6-0.2-3.2-0.3-4.8-0.3c-1.5,0-3.8,0-5.2,0.5c-2,0.7-2,3-0.4,4.2c1.8,1.3,7.2,2.8,7.4,2.9
					 c0.2,0,0.4,0,0.6,0"/>
				<path class="st2 file-2-element-190" d="M458.9,387.5c0.1,0,0.2,0,0.3,0c0.9,0,1.7-0.1,2.5-0.1c0.6,0,1.2,0,1.8,0.1c1-0.1,2.2-0.4,2.7-1.4
					 c0.4-0.8,0.2-1.9-0.4-2.6c-0.6-0.7-1.4-1.2-2.3-1.6c-0.6-0.3-1.2-0.5-1.9-0.8"/>
			</g>
			<g>
				<path class="st2 file-2-element-191" d="M464.7,371.4c-0.4,1-0.8,2.1-1.2,3.2"/>
				<path class="st2 file-2-element-192" d="M462.1,378c-6.3,16-14.1,36-14.1,36s-2.9,0.2-6.2,5.4c0,0,8.8-23.5,15.5-41.2"/>
				<path class="st2 file-2-element-193" d="M461.9,363.8c-3-10.2,5.8-29.3,10-36.2c7.5-12.3,18.4-21.8,30.2-29.8c0,0-0.8,17.4-2,25.9
					 c-1.2,8.6-4.1,17.4-10.5,23.2c-6.6,6-14.1,10.6-20.9,16.2"/>
				<path class="st2 file-2-element-194" d="M498.1,306.9c0,0-15.8,12.3-31.8,54.1"/>
				<path class="st2 file-2-element-195" d="M496.6,317c-3,0.9-6.9,2.1-8.6,2.7"/>
				<path class="st2 file-2-element-196" d="M495.2,327.8c-5.3,0.8-14.5,2.2-14.5,2.2"/>
				<path class="st2 file-2-element-197" d="M490.2,339.1c-6.2,0.9-15.4,2.3-15.4,2.3"/>
				<path class="st2 file-2-element-198" d="M479.9,350.3c-4.6,0.7-9.7,1.4-9.7,1.4"/>
			</g>
			<path class="st2 file-2-element-199" d="M492.8,371.3c0,0-16-9.6-24.5-7c-5.4,1.6-13.4-0.4-13.9,1s2.6,5.3,4.5,5.4c1.1,0,7.2,2,13,1.9
					c0,0,7.8,8.4,16,7"/>
			<g>
				<path class="st3 file-2-element-200" d="M459.1,378.1c0.6,0,1.2,0,1.8,0.1c1-0.1,2.2-0.4,2.7-1.4c0.4-0.8,0.2-1.9-0.4-2.6c-0.6-0.7-1.4-1.2-2.3-1.6
					 c-3.7-1.7-7.9-2.5-12-2.4c-1.5,0-3.8,0-5.2,0.5c-2,0.7-2,3-0.4,4.2c1.8,1.3,7.2,2.8,7.4,2.9c2,0,4,0.2,6,0.4
					 C457.5,378.1,458.4,378.1,459.1,378.1z"/>
				<path class="st2 file-2-element-201" d="M459.1,378.1c0.6,0,1.2,0,1.8,0.1c1-0.1,2.2-0.4,2.7-1.4c0.4-0.8,0.2-1.9-0.4-2.6c-0.6-0.7-1.4-1.2-2.3-1.6
					 c-3.7-1.7-7.9-2.5-12-2.4c-1.5,0-3.8,0-5.2,0.5c-2,0.7-2,3-0.4,4.2c1.8,1.3,7.2,2.8,7.4,2.9c2,0,4,0.2,6,0.4
					 C457.5,378.1,458.4,378.1,459.1,378.1z"/>
			</g>
		</g>
	</g>
	<path class="st2 file-2-element-202" d="M619.3,287.6c-12.3,18-24.6,41-33.5,58.1c-23.8,3.6-70.2,10.4-89.8,13.4c0.1,15.2,0.4,31.7,5.8,45.9   c0.1,0.1,0.1,0.3,0.2,0.5"/>
	<path class="st2 file-2-element-203" d="M684,223.2c5.4-1.5,30.5-6.4,48.5,23.4c0,0-0.5,0.1-1.5,0.2"/>
	<polygon class="st3 file-2-element-204" points="641.9,247.2 649.1,234.9 666.7,244.7  "/>
	<polygon class="st3 file-2-element-205" points="654.3,249.3 640.1,212.7 678.8,191.8 684.3,230.4 674.3,258.7  "/>
	<path class="st2 file-2-element-206" d="M679.7,191.8C679.7,191.8,679.8,191.8,679.7,191.8l5.5,38.6c0,0-0.2,0.5-0.5,1.4"/>
	<path class="st2 file-2-element-207" d="M606.5,374c4.2-34,9.1-64.3,14.5-85.6"/>
	<path class="st2 file-2-element-208" d="M704.9,282.8c2,39.2-6.1,98.9-6.1,98.9v12.7c0,0-1.1,2,6,14.9c17.1,30.9,33.9,233.2,25.4,234.4   c-8.5,1.2-53.2-2.1-70.2-2.1s-27.7-5-32.5,0c-4.8,5-42.2-8.3-42.2-8.3s5.4-107.7,15.5-208"/>
	<path class="st2 file-2-element-209" d="M640.1,634.7c0,0,6.7-155.8,11-257.4"/>
	<path class="st2 file-2-element-210" d="M671.8,250.1c0,0,0.1,0,0.1,0c26-1.3,35.5,41.8,35.5,41.8s20.9-1.2,25.1-44.7c0.2-2.3-32.6-19.2-57.1-12"/>
	<g>
		<g>
			<path class="st3 file-2-element-211" d="M484.7,417.4c-3.9,2.2-17.6,17.3-16,18.5s17.9-13.2,17.9-13.2L484.7,417.4z"/>
			<path class="st3 file-2-element-212" d="M487.5,421.8c-3.9,2.2-21,20.3-19.4,21.5s21.3-16.3,21.3-16.3L487.5,421.8z"/>
			<path class="st3 file-2-element-213" d="M488.8,427.2c-3.9,2.2-17.6,17.3-16,18.5s17.9-13.2,17.9-13.2L488.8,427.2z"/>
			<path class="st3 file-2-element-214" d="M490.7,432.4c-3,1.8-13.6,14.4-12.4,15.5s13.5-10,13.5-10L490.7,432.4z"/>
			<path class="st2 file-2-element-215" d="M485.6,416.4c-4,2.3-18.5,18.3-17,19.5c1.5,1.2,16.8-12.3,17.8-13.2"/>
			<path class="st2 file-2-element-216" d="M486.9,422.2c-4.9,3.5-20.2,19.9-18.8,21.1c1.5,1.1,18.8-14.1,21-16.1"/>
			<path class="st2 file-2-element-217" d="M488.8,427.2c-3.9,2.2-17.6,17.3-16,18.5s17.9-13.2,17.9-13.2s0,0,0-0.1"/>
			<path class="st2 file-2-element-218" d="M490.7,432.4c-3,1.8-13.6,14.4-12.4,15.5s13.5-10,13.5-10"/>
		</g>
		<path class="st2 file-2-element-219" d="M495.6,411.4c-0.7-0.2-1.2-0.4-1.4-0.4c-2-0.2-4.8-4.3-4.1-5.7c0.6-1.3,6.9,0.7,12.1,0.3c0,0,6.2-3.1,15,2.5"/>
		<g>
			<path class="st2 file-2-element-220" d="M483.2,418.1c6.7-5.4,25.9-11.7,33.6-10.3"/>
			<path class="st2 file-2-element-221" d="M521.1,428.3c-0.6,0.3-1.2,0.6-1.9,0.8c-12,4.3-27.3,8.8-27.3,8.8"/>
		</g>
	</g>
	<path class="st2 file-2-element-222" d="M681.1,272.9c-20.5-12.4-57.5,67.8-72,100.7c-23.9,1.9-71.2,5.3-91,6.9c-1,15.2-1.9,31.6,2.5,46.2   s30.4,31.1,30.4,31.1l79.9-52.8l0.3,0.4C631.2,405.5,716.4,294.2,681.1,272.9z"/>
	<path class="st3 file-2-element-223" d="M579.7,188.3c0,0-15-41.3,13-64.2c9.6-7.8,20-14.7,32.4-17c25.4-4.8,51.4,15.4,54.9,40.6   c2.9,21.1,2.3,58.6-12.3,75.6c-16.6,19.4-60.2,41.8-72.6,19.5l-10.6-20.9c0,0-16.7,10.3-13-4.6L579.7,188.3z"/>
	<path class="st2 file-2-element-224" d="M681.3,170.9c-0.2,6.9-0.7,14.4-1.9,21.6"/>
	<path class="st2 file-2-element-225" d="M594.4,241.3c-2.4-4.7-9.9-19.4-9.9-19.4s-16.7,10.3-13-4.6l8.2-29c0,0-11.2-30.9,3.9-54"/>
	<g>
		<path d="M600.3,174.2c0-0.1,0-0.2,0-0.3c-0.2-2.4-3.2-4-5.4-3.5c-2.7,0.6-3.7,2.9-3.5,5.4c0.3,4.7,2.2,8.8,4.8,12.6    c1,1.4,3.4,1.7,4.8,1.2c1.7-0.6,2.9-2.1,3-4C604.4,181.4,603,177.3,600.3,174.2z" class="undefined file-2-element-226"/>
	</g>
	<path class="st2 file-2-element-227" d="M683.3,145.6c-2.3-26.2-21-35.7-21-35.7c-15-21.3-31.6-12.7-31.6-12.7c-22.7-6.7-37.3,9.3-37.3,9.3   c-0.5,0.6-9.9-6.3-17.4,0.3c-5.2,4.5-8.9,15.6-7.8,22.3c3.5,21.8,26.6-4.4,33.9-8.1c0.7-0.4,1.4-0.7,2.2-1   c17.7-8.1,35.7-5.9,44.6,13.4c1.1,2.3,4.7,19,5.5,28"/>
	<path class="st2 file-2-element-228" d="M663.4,166.4c4-1.9,8.3-5.1,12-8"/>
	<path class="st2 file-2-element-229" d="M673.1,153c0.6-1.4,5.5-11.5,11.6-5.8c6.5,6.2-1.4,23-7.9,25.4"/>
	<path class="st2 file-2-element-230" d="M655.5,159.8c-0.5,0.8-2.9,2.7-3.2,3.8c-0.5,1-1.2,2.2-1.2,3.5c2,36.3-19.1,44.6-30,53.5"/>
	<path class="st2 file-2-element-231" d="M613.5,231.6c-12,21.9-19,9-19,9s-13.9,27.5-10.8,36.1c1.7,4.9,11.5,6,10.9,4.1c1.5,5,5.9,9,11.1,10   c4.2,0.9,8.8-0.2,12.3-2.7c9.1,4.6,25.7-1.1,30-10.3c4.3-0.2,8.6-2.1,11.4-5.4c3.5-4,4.5-9.9,2.6-14.7c3.1,0,6.3-1.8,7.7-4.6   c1.4-2.8,1-6.2-0.9-8.6c4.3-1.6,7.4-5.9,7.5-10.4c0.1-4.4-2.8-8.7-7.1-10.3c4.5-2.8,7.3-7.9,7.3-13s-2.8-10.1-7.2-12.8   c4.7-6.1,1.2-11.4-2.3-16.5c0,0-1.9-2.1-2.6-4.3c-0.7-2.1-0.5-8.5-1.2-11.9"/>
	<path class="st2 file-2-element-232" d="M594.2,236.7c0,0,6.5-1.4,11.1-6.1"/>
	<path class="st2 file-2-element-233" d="M585,220.9c0,0,18.8-15.1,39.5,2.2C624.5,223.1,620.4,243.9,585,220.9z"/>
	<path class="st2 file-2-element-234" d="M582.2,156.8c2.7-3.2,6.6-5.2,10.8-5.6s8.4,0.9,11.6,3.6"/>
	<g>
		<g>
			<g>
				<path class="st2 file-2-element-235" d="M286.5,378.2c3.8,0.1,7.3,0.1,10.1,0.2"/>
				<path class="st2 file-2-element-236" d="M305.1,363.1c-2.1-0.5-9.5-2.2-17.5-4"/>
				<path class="st2 file-2-element-237" d="M334.9,367.9c4.6,0.6,22.6,9.8,21.6,11.5c-0.9,1.6-19.1-4.6-21.5-5.5"/>
				<g>
					<path class="st2 file-2-element-238" d="M306.3,361.7c2.4-1.3,6.5-2.8,11.8-1.5c5.4,1.3,13.3-1.1,13.9,0.3c0.4,0.9-0.7,3-2.1,4.4"/>
				</g>
				<g>
					<path class="st2 file-2-element-239" d="M338.4,369.1c-7-2.5-22.2-7.8-30.6-7.7"/>
					<path class="st2 file-2-element-240" d="M296.8,378.2c1.2,2.1,3.6,4.2,6.3,5c12.3,3.4,27.9,6.8,27.9,6.8s3.8-1,1.6-4.9c0,0,5-3,2.2-4.8
					  c0,0,4.2-5.2,0.2-6.3"/>
				</g>
			</g>
		</g>
		<g>
			<g>
				<g>
					<g>
						<path class="st2 file-2-element-241" d="M230.7,430.3c3.5,3.1,13.7,20.4,11.9,21.3c-1.7,0.9-14-15.5-14.8-16.5"/>
						<path class="st2 file-2-element-242" d="M227.5,434.5c4.1,4.4,15.8,23.6,14.1,24.5c-1.6,0.8-15.6-17.6-17.4-20"/>
						<path class="st2 file-2-element-243" d="M224.6,439c3.4,2.9,13.7,20.5,12,21.4c-1.8,0.9-14.9-16.6-14.9-16.6s0,0,0.1-0.1"/>
						<path class="st2 file-2-element-244" d="M221.7,443.7c2.6,2.4,10.4,16.9,9,17.7c-1.4,0.8-11.3-12.5-11.3-12.5"/>
					</g>
					<g>
						<path class="st2 file-2-element-245" d="M232,431.2c-2.2-2.6-6.1-5.8-10.5-8.6"/>
						<path class="st2 file-2-element-246" d="M196.4,436c10.6,6.3,23.1,12.9,23.1,12.9"/>
					</g>
					<path class="st2 file-2-element-247" d="M207.7,413c1.9,0,4.1,0.5,6.5,1.5c5.1,2.3,13.3,1.3,13.6,2.8c0.3,1.5-3.3,5-5.2,4.8
					  c-1.4-0.1-11.9,1.9-18.2-1.2"/>
				</g>
				<g>
					<path class="st2 file-2-element-248" d="M159.4,382.2c18.6,10.2,38.4,21.1,49.1,27c-5.4,14.2-11.4,29.6-21.4,41c-4.3,4.9-12.4,8.5-20.2,11"/>
				</g>
			</g>
			<path class="st2 file-2-element-249" d="M78.8,240.1c-9.1-1.4-29.5-1.1-44.9,24.2"/>
			<path class="st2 file-2-element-250" d="M113.8,266.7l8.8-1.8l17.6,24.2c1.6,4.1,3.1,9,4.5,14.5"/>
			<path class="st2 file-2-element-251" d="M155.9,362.6C172.3,473.9,181.1,651,181.1,651s-37.3,13.3-42.2,8.3c-4.8-5-15.6,0-32.5,0s-61.7,3.3-70.2,2.1
					c-8.5-1.2,8.3-203.5,25.4-234.4c7.1-12.9,6.1-14.9,6.1-14.9v-12.7c0,0-8.2-60-6.1-99.2"/>
			<path class="st2 file-2-element-252" d="M126.3,652.4c0,0-10.5-243.7-13.7-320.2"/>
			<path class="st2 file-2-element-253" d="M33.9,264.9c-0.2-2.5,37-21.5,61.8-10.3c16.2,7.3,43.2,34.9,43.2,34.9s-18.3-20.5-44.4-21.8
					S59,309.5,59,309.5S38.2,308.4,33.9,264.9z"/>
			<path class="st2 file-2-element-254" d="M172,173.6c8.4-6.4,13.9-10.6,13.9-10.6s18.7-15.7,6.2-29.6c0,0,1.8-6.5-12.1-8c0,0-6.9-19.8-14.5-16.6
					c0,0-21.1-36-41.4-32.7C104,79.3,94,92,90.3,96.1c-3.7,4.1-8.8,11.4-22.9,22.5S31,143.8,31.2,157.3c0.2,11.1,0.8,26.4,7.3,34.8"/>
			<g>
				<g>
					<path d="M150.9,169.7c0-0.1,0-0.2,0-0.3c-0.2-2.4,2.6-4.4,4.8-4.2c2.7,0.2,4.1,2.4,4.2,4.8c0.3,4.7-0.9,9-3,13.2
					  c-0.8,1.6-3.1,2.2-4.6,1.8c-1.8-0.4-3.1-1.7-3.6-3.5C147.8,177.4,148.6,173.2,150.9,169.7z" class="undefined file-2-element-255"/>
				</g>
			</g>
			<path class="st4 file-2-element-256" d="M165.6,230.8c0,0-7.2-0.5-12.4-5"/>
			<path class="st2 file-2-element-257" d="M163.2,237.9c1.6-4.7,8.5-24.6,8.5-24.6l15.1,0.9l-17.3-33.6c0,0,6-23.7-4.9-43.2"/>
			<path class="st2 file-2-element-258" d="M87.8,229.3"/>
			<path class="st2 file-2-element-259" d="M174.4,137.1c-5.3,0.5-20.3,1.3-26.4-5.5c0,0-14.1,24.6-27,18.6c0,0-12.8,21.7-16.6,28.2"/>
			<path class="st2 file-2-element-260" d="M100.3,234.5c-1.3,3-4,5-9,5.2c-3.9,0.2-8.3-2.9-7.8-6.8c-1,2.2-4,2.4-6.3,2.1
					c-14.2-2.1-25.5-16.3-24.4-30.6c-6.1,2.3-13-3-14.6-9.4c-0.1-0.2-0.1-0.5-0.2-0.7"/>
			<path class="st2 file-2-element-261" d="M86.9,173.7c0.3,1.6,8.6,18.8,9.1,20.3c0,0-12.2,11.3-0.9,19.5c0,0-2.6,30.9,22.6,29.8
					c0,0-2.8,18.8,15.7,21.1c7.5,12.6,13.3,9.7,16.8,5.6l0.5-0.7c-0.2,0.3,8.9,3.3,9.9,3.4c4.4,0.4,4.2-5.5,7.3-9.2
					c5.6-6.6,5-8,1.6-14c-2.4-4.2-2.9-10-6.9-13c-0.3-0.2-13.2-9.1-13.2-9.1s16.4-4.5,21.1-10.7c3-4-30.6-17.6-49.1,5.3
					c0,0-12.4-33.8-16.2-43.9"/>
			<path class="st2 file-2-element-262" d="M96,238.8c-1.3,0.6-2.9,0.9-4.8,1c-3.9,0.2-8.3-2.9-7.8-6.8c-1,2.2-4,2.4-6.3,2.1
					c-14.2-2.1-25.5-16.3-24.4-30.6c-6.1,2.3-13-3-14.6-9.4c-0.2-0.6-0.3-1.2-0.3-1.8"/>
			<g>
				<g>
					<path class="st2 file-2-element-263" d="M191.9,342.4c21.2,3.3,74.3,10.9,95.5,14.2c-0.1,15.2-0.3,31.7-5.8,45.9c-5.5,14.2-32.5,28.9-32.5,28.9
					  L173,372.9"/>
				</g>
				<path class="st2 file-2-element-264" d="M173,372.9c0,0-111.5-58.9-88.8-93.3c13.5-20.5,82,40.5,107.7,62.8"/>
			</g>
		</g>
		<g>
			<path class="st2 file-2-element-265" d="M76.5,163.6c-0.4-1.2-3.3-10.6-9.2-6.4c-6.4,4.5-1.6,19.9,3.7,22.8L76.5,163.6z"/>
		</g>
	</g>
	<path class="st2 file-2-element-266" d="M140.4,159.2c6.8-6.2,17.1-8.3,25.8-5.3"/>
	<line class="st2 file-2-element-267" x1="76.5" y1="251.2" x2="80.1" y2="235"/>
	<line class="st2 file-2-element-268" x1="122.3" y1="259.3" x2="122.7" y2="264.9"/>
</g>
</svg>
