<?xml version="1.0" encoding="UTF-8" standalone="yes"?>
<svg version="1.1" xmlns:x="special-ns_extend;" xmlns:i="special-ns_ai;" xmlns:graph="special-ns_graphs;" xmlns="http://www.w3.org/2000/svg" xmlns:xlink="http://www.w3.org/1999/xlink" x="0px" y="0px" viewBox="0 0 792 612" style="enable-background:new 0 0 792 612;" xml:space="preserve">
  <style type="text/css">
	.st0{fill:#FFFFFF;}
	.st1{fill:none;stroke:#231F20;stroke-width:2.5;stroke-linecap:round;stroke-linejoin:round;stroke-miterlimit:10;}
</style>
  <g i:extraneous="self">
      <g id="coloringShapes">
        <rect id="element-1" x="-12.9" y="334" class="st0" width="852" height="307.3"/>
        <rect id="element-2" x="-25" y="-36.1" class="st0" width="864.1" height="370.1"/>
        <polygon id="element-3" class="st0" points="208.5,421.5 248.6,410.5 245.2,397 201.3,407.5 189.7,368.1 176.5,372.6 186.8,412 145.6,421.9
				149.1,436.7 186.7,427 190.3,429.1 221.9,547.3 234.2,542.8 203.6,423.5 			"/>
        <polygon id="element-4" class="st0" points="225.2,417.5 222.8,418 224,416.8 			"/>
        <path id="element-5" class="st0" d="M477.3,28.7l-24.6,52.5l-28.2,43.1l-10.9-7.2c0,0-4-10.9-8-14.1s-5.8-5.8-5.8-5.8l-10.1-46.7l4.7-1.1
				l10.5,48.5l11.2,8.3l-4.3-79.6h3.6l7.2,77.1l6.5-68.4c0,0,4-6.5,6.5,0.7l-10.9,82.2l19.9-30.4l27.1-59
				C471.8,28.7,474.7,26.6,477.3,28.7z"/>
        <path id="element-6" class="st0" d="M455.9,462c0,0-71.7,12.7-117.6-6.5l-3.6-8.3l-0.7-6.9c0,0-2.3-6.7-5.8-8.7s-2.9-5.4-10.9-6.2
				c-8-0.8-12.7-1.1-12.7-1.1l-6.5,4c0,0-3.3-6.5-2.9-23.9l3.3-2.2c0,0-1.1-11.9-9.4-23.9L360.4,213l38.7-89.8l-7.2-30
				c0,0,11.9,6.5,18.5,16.7c6.5,10.1,14.1,14.5,14.1,14.5l30.8-47.1l-4,25.7l23.9,63.7l42.7,80.7L455.9,462z"/>
        <path id="element-7" class="st0" d="M593.5,127.2l-28.6-59c0,0,0-5.8,3.6-2.5l26.1,56.5L592,30.6l0.4-4.3l5.1,6.9l1.1,95.2l6.2-18.1l4-87.6
				l4.3,4.3l-3.6,74.9l15.6-30l14.8-61.2l2.9,4l-13.8,58.6c0,0,14.5,5.8,23.2-2.2l20.6-34.7l3.6,5.1l-20.3,31.1
				c0,0-4.3,3.6-14.8,6.2c-10.5,2.5-36.2,44.2-36.2,44.2l-8.7,9L593.5,127.2z"/>
        <path id="element-8" class="st0" d="M212.4,438.1c0.8-0.3,5.8-2.1,5.8-4.4c0-2.4-7.2-2.1-7.7-2.1c-0.3,0.2-0.6,0.4-0.9,0.6c0,0-0.1,0-0.1,0.1
				l0.6,0.4c0,0,0,1,0.1,2.2l-40.4,4.3l0.4-5.5l17.4-8l16.6-0.2l-0.6,2.3l0.5,0.4c0.6-0.1,1.2-0.1,1.8-0.1l-0.2-0.2c0,0,5.6-0.3,5-3
				c-0.7-2.7-5.7-2.1-5.7-2.1l-0.6,1.9c-3.6-0.1-12-0.3-16.3,0.1c-5.5,0.5-19.4,7.8-19.4,8.1c0.1,0.2-3.3,28.8-3.3,28.8l32.5-3.1
				c0.4,0.6,0.7,1.5,0.6,2.6c-0.1,0.8,6.2-2.1,6.1-4.1c-0.1-1.9-0.7-2.6-3.6-2c-0.9,0.3-1.8,0.7-2.8,1l-1.8,1.2c0,0,0.3,0.2,0.6,0.4
				l-29.6,2.3c0,0,2.8-7.7,3.1-7.8c0.2-0.1,28.9-4.7,37.7-6.1c0.1,0.6,0.3,1,0.6,1c0.1,0,0,0.2-0.4,0.6c0.6,0.2,1.2,0.5,1.7,0.5
				c0,0,0.2,0,0.3,0c0.3,0,0.5-0.1,0.8-0.1c0.1,0,0.2,0,0.3,0c1.6-0.7,4.2-2.1,3.9-4.2c-0.4-2.9-5.6-1.3-5.6-1.3l0.2-0.4
				c-0.2,0-0.4,0-0.6,0c-0.2,0-0.4,0-0.6-0.1c-0.3,0.5-0.5,0.9-0.6,0.9c-0.1,0.2-0.1,1.2,0,2.2l-37.7,5.7l-0.3-10.3l40.2-4.5
				c0.1,0.7,0.2,1.3,0.3,1.6c0.1,0.1,0.1,0.4,0,0.6C211.3,438.2,211.9,438.1,212.4,438.1z"/>
        <path id="element-9" class="st0" d="M688.7,445.7c0,0,22.4,2.5,39.1-17c0,0-50-145.1-59-188.2l-29-98.8c0,0-6.2-23.9-10.1-28.6l26.4-40.5
				c0,0-3.3-1.8-9.8,0.4c-6.5,2.2-15.9,2.9-21.4-1.1l-2.9,3.6l-18.5,40.9l-4.3-1.8l-0.7,13.8l-2.2,3.6l-9.4-15.9l-28.2,60.1
				l-4.7,90.9l67,147.3L688.7,445.7z"/>
        <path id="element-10" class="st0" d="M445.1,632.1c0,0,5.2-20.5,5.8-24.6s2.5-18.1,3.6-22.8s1.8-11.6,1.8-16.3c0-4.7,3.3-31.1,3.3-31.1l1.1-13.8
				l63.3,7.6l-4,93.7L445.1,632.1z"/>
        <path id="element-11" class="st0" d="M480.8,183.1c0,0-2.7,6.9,1.3,11.1c4,4.2,5.8,9.8,5.3,14.4c-0.4,4.7,3.8,17.3,12.4,22.6
				c8.6,5.3,10.2,8.6,10.2,8.6l2.4,11.3l6.7,6l-72.7,97.1c0,0-13.5,8.2-16.4,8.9c-2.9,0.7-8.9,6.9-4.7,6.2c0,0-6.4,6.7-1.3,6.2
				c0,0,0.9,2.9,6,1.8c0,0-0.2,2,6,1.3c6.2-0.7,10,0,14.9,0.7c4.9,0.7,37.7,0.7,37.7,0.7l-1.6-7.5c0,0-15.3-6.2-18-8.2
				c-2.7-2-6.9-4.7-12.9-6.9c-6-2.2-7.8-3.3-7.8-3.3l34.4-45l47.2,65c0,0,8.4,12.9,8.9,16.8l-0.4,2l9.8-3.8l1.8-3.3l-0.7-8.3
				c0,0-3.3,1-2.9-14.8c0,0-9.1-2.2-13.5,6l-38.2-50.7l-8.6-11.4l35.2-48.1c0,0,11.5,2,21.3-7.5c9.8-9.5,8-15.3,8-15.3l-0.2-4.2
				l-0.4-4.9l-0.9-6.2l2.2-4.4l1.3-2.2c0,0-0.7-12-4.7-20c-4-8-9.3-8.4-9.3-8.4l-9.5-14.6c0,0-2.4-1-14.4,1.8
				c-1.7,0.4-13.8-13.7-15.5-13.3c-1.6,0.4-11.5,21.1-13.1,21.5C480.3,182.2,485.4,181,480.8,183.1z"/>
        <path id="element-12" class="st0" d="M576.1,362.4l-30.4-7.1c0,0-20,2-34.8,0c-14.9-2-52.3-13.7-53.2-14.2c-0.9-0.4-20-8.2-30.8-5.1
				c-10.9,3.1-14.9,7.3-14.9,7.3l-0.4,17.5c0,0,0.9,4.2-0.9,6.9c-1.8,2.7-5.3,3.8-3.8,13.5c1.6,9.8,2.9,14.2,2.9,14.9
				s-0.9,14-0.7,14.9s-2,19.1,2.4,21.3c4.4,2.2,31.9,0.7,43-2.4c0,0,2.9,45.7,0.9,62.5s-4.4,29.7-4.4,29.7l24.6,8l102-143.4
				L576.1,362.4z M486.6,379.1c-0.9,0.2-1.6,0.1-2.3-0.2c-1.7-0.1-3.4,0.3-5,0.5c-2.3,0.4-4.6,0.7-6.9,0.7c-5.3,0-10.6-0.8-16-0.7
				c-2.4,0-4.8-0.1-7.2-0.4c-2.2-0.3-4.4-1.1-6.6-1.2c-2.3,0-4.6,0.7-7,0.7c-2.1,0.1-3.8-0.6-5.7-1.4c-0.7-0.3-1.3-0.5-2-0.5
				c-0.5,0-1,0.1-1.5,0c-1.7-0.2-3.1-1.9-3.2-3.5c-0.1-1,0.1-1.1,0.5-1.6c0.5-0.7,0.4-1,0.9-1.6c0.2-0.2,0.3-0.4,0.5-0.5
				c0,0,0,0,0,0c-0.8-0.7-0.8-2.2,0-2.7c7.3-4.2,10.9-6,13.9-8.9c0.3-0.3,0.8-0.3,1.2-0.5c1.9-1.3,4.2-2.3,6.6-2.1
				c0.1,0,0.2,0,0.3,0.1c2.4-0.3,4.9,0.1,7.3,0.8c5,1.5,9.6,4.1,14,6.8c2.5,1.5,5.2,2.6,7.8,3.8c3.1,1.4,6.4,2.9,9.1,5
				c0.9,0.7,1.8,1.7,1.8,3c0,0.3-0.1,0.6-0.2,0.9C488.3,376.3,488.3,378.7,486.6,379.1z M546.9,389c-2.2,1.1-4.6,1.8-6.9,2.5
				c-1,0.3-2-0.4-2.3-1.3c-0.1-0.4-0.1-0.9,0.1-1.2c-1.3-1.2-2-3.2-2.6-4.8c-0.7-1.8-1.4-3.7-1.9-5.6c0,0-0.1-0.1-0.1-0.1
				c-1.1-1.3-2.2-2.6-2.8-4.2c-0.4-1,0.4-2,1.3-2.3c0.4-2.4,2.4-4.3,4.3-5.7c1.8-1.3,4-2.6,6.1-3.2c0.4-0.1,0.8-0.2,1.2-0.2
				c0.3-0.3,0.5-0.6,0.9-0.8c1.8-1.5,4.4,1,2.7,2.6c0.9,1.4,1,3.3,1.1,5c0.1,0.9,0.1,1.8,0.1,2.7c0,0.7-0.1,1.5,0.1,2.2
				c0.3,1.1,1.1,2,1.1,3.2c0,0.9-0.3,1.4-0.8,2c0.3,0.2,0.6,0.4,0.7,0.7c0.5,1.2,1.1,2.5,1.1,3.8C550.6,386.3,548.8,388.1,546.9,389
				z"/>
        <path id="element-13" class="st0" d="M487.4,446.1c0,0-7.8,8.5-9.3,16.3c-1.5,7.8-2.3,15.5-5,16.3c-2.8,0.8-6.1-0.8-5.8,5s1.3,7.8-2,10.8
				c-3.3,3-8.3,5.5-8.3,15c0,9.5-1,13,5,17.3c6,4.3,14.8,9.5,25.8,9.8c11,0.3,16.5,0.3,22.1-1c5.5-1.3,5.5-1,11.5,1
				c0,0-4.5-1-4.3,2.5s1,19.1,1,19.1s0.5,9.3-2,14.8s-8.8,13.8-5.8,29.1c3,15.3,2.5,19.3,2.5,19.3l142.1,8.8l-3-9
				c0,0,0.3-3.8,1.3-5.8c1-2,5.3-7.8,3.5-13.5c-1.8-5.8-3.3-11-3.3-11s10.3-21.6,10.3-33.6c0,0,28.6-0.5,36.1-8.3
				c7.5-7.8,2.3-22.3,2.3-22.3l0.3-9.8c0,0-1-5.8-3.3-10s-5-27.6-5-27.6v-11.8l-18.6-13.8L487.4,446.1z"/>
        <path id="element-14" class="st0" d="M569.3,544.6c0,0,6.5-4.3,8.5-15.3l-17.3-12.8l-13.5-3.8L530.7,525c0,0,1.3,12.5,3,15c0,0,5.8-4,4-14
				l9.3-10.5l12.8,4.3l9,9.5C568.8,529.3,570.8,538.6,569.3,544.6z"/>
        <path id="element-15" class="st0" d="M510.3,244.2c0,0-20.8,8-31.3,13.5c-10.4,5.5-7.3,4.9-16.8,8.2s-12.9,7.5-14.4,11.3
				c-1.6,3.8-5.8,12.4-9.5,19.3c-3.8,6.9-6.4,13.3-10.9,17.7c-4.4,4.4-5.1,8.2-5.1,8.2l-6.9,6c0,0-9.3,8.6-3.3,14.9
				c0,0,12-11.7,29-7.8c17.1,4,40.8,15.1,55,17.7s33.5,4.7,49.7,2l68.3-77.4c0,0-4.2-6.2-17.5-15.3c-13.3-9.1-25.3-13.7-25.3-13.7
				l-12-8.9l-8.4-2.9c0,0-4,17.5-25.9,21.5C524.9,258.7,513.4,257.3,510.3,244.2z"/>
        <path id="element-16" class="st0" d="M596.7,480.2c0,0,1.8-7.3-1.8-11c-3.5-3.8-6.5-19.1-2.3-28.6c4.3-9.5,11.8-23.6,11.8-23.6l8.8-38.6
				c0,0,1.8-13-0.3-22.1c-2-9-7.5-21.6-7.5-21.6s-7.5-12.3-13.5-17.3c-6-5-13-14-10.5-28.8c0,0-5,3.8-10.3,6c-5.3,2.3-7.5,2.8-8,3.5
				c-0.5,0.8-2,2.5-3,5.5s-6,6-6,6l7,70.7l-5.3,22.1c0,0-3.5,20.3-4,23.3c-0.5,3-1.3,5.8,0,12.5c1.3,6.8,3,9.2,0.3,14.5
				c-2.8,5.4-6,10.3-6,10.3s-0.3-5.5,0.3-9.3c0.5-3.8-3.8,6.8-3.8,6.8s-6.8-12.3-8.5-21.1c-1.8-8.8-1.3-13,3.8-20.6
				s10-9.3,10.5-15.5c0.5-6.3,5.3-13,5.3-14c0-1-1.3-75.5-1.3-75.5s-0.3-6.3,3-10c3.3-3.8,3.3-8.8,3.3-8.8s11.5-14.5,21.3-17.8
				c9.8-3.3,22.8,0,22.8,0s18.8-1,27.8,4.8c9,5.8,20.8,18.6,16.8,38.9c-4,20.3-7.8,29.1-7.5,30.1c0.3,1-2.3,11.8-8,17
				c-5.8,5.3-9,8.8-9.5,11.3c-0.5,2.5-9.8,34.8-9.8,34.8s5.8,39.4-11.5,65.4C600.9,479.7,599.4,476.4,596.7,480.2z"/>
        <path id="element-17" class="st0" d="M581.4,288.7c0,0-7,5.5-12.3,6.8c-5.3,1.3-6.5,0.5-8,4.8s-3.5,7.8-7,9.5s-3.7,6-2.5,8.5c1.2,2.5-1,4.5-1,7.3
				c0,2.8,1,7.8-2.8,11c-3.8,3.3-3.5,6.3-3.3,11.8s3,6.8,2.3,15.8c-0.8,9,0.3,11.3,2.5,13.3s8,2.3,16.5,2.3s6,1,6,1l3.3,16l-16,66.7
				c0,0-4.8,0.5-11.5,3.5c-6.8,3-11.3,3.9-12,7.3s-0.5,4,0.8,11.3s5,14.3,2.5,18.6s-5.8,9-5.8,9l-2.3,12c0,0,19.1,3.5,20.8-7.5
				c0,0,3.3,11.8,26.3,11.8c0,0,2.8-7-1-15.3l-7.3-1.3l3.3-15l7-20.1c0,0,0.5-4-1.8-5.3s-7-3.3-7-3.3s-3.3-3.3-4-3.3
				s-5.8-1.3-5.8-1.3l15.5-67.4c0,0,13,8.3,29.6-5.8l2.5-0.3l2.3-4.5l-1.3-4l1-3.3l2.3-1l0.8-11.3c0,0-1.5-12.8-2.3-16.3
				c-0.8-3.5-4-12-6.3-16c-2.3-4-6.5-10.8-11.3-15S579.6,308.5,581.4,288.7z"/>
        <path id="element-18" class="st0" d="M611.4,411.7c0,0,6.3,1.5,6.3-2.3s0-3.8,0-3.8s4-5.8,1.8-7.5c0,0,5.5-8.5,1.5-10.5c0,0,6.5-6.3,1.3-8.3
				c0,0-4.5,1-6.8,0c-2.3-1-8.5,1.3-4.3,7.3c0,0-4.3,3.3-1.5,7.8c0,0-5.3,6-2.3,9.3c0,0-6,5.5-1.8,7.3
				C609.9,412.7,611.4,411.7,611.4,411.7z"/>
        <path id="element-19" class="st0" d="M547.3,399l8.5,3.5c0,0,7.5-2.5,2.8-8.5c0,0,4.3-2.8,1.3-6.5c0,0,4-3.8,1.3-7l-8.8-1.5l-3-1.5
				c0,0-1.1,6.4,0.3,6.8c1.3,0.3-2.3,4.5,0,7.3C549.5,391.4,545.8,395.7,547.3,399z"/>
        <path id="element-20" class="st0" d="M549,363.4c0,0,6.5,6,13.5-0.3c0,0-3-6.4-4-6c-1,0.4-3.8,1.3-3.8,1.3l-5-2.5c0,0-2.5-0.3-1.3,2.5
				S549,363.4,549,363.4z"/>
        <path id="element-21" class="st0" d="M572.8,389.2l-14.3,4.8c0,0,2.3,3.8,0.5,5.5c-1.8,1.8-2.3,1.5-3,6c-0.8,4.5-2.3,10.8-2.3,10.8
				s-3.4,11.6-2.8,15c0.6,3.4,2.8,16.8,0.3,23.1c-2.5,6.3-5.3,8.8-5.3,8.8l-3-4.5c0,0-4.8-0.5-8.3-15.3s3-24.3,3-24.3l7.3-9.3
				c0,0,4-5.8,2.3-10.8c0,0,0-2-2.8-0.5c-2.8,1.5-12,4.3-12,4.3s-3.5-1.5-6.8,1.8c-3.3,3.3-7.3,8.3-9.5,8.3c-2.2-0.1-6.8-1.3-13,7.8
				c-6.3,9-16.3,20.1-16.3,20.1l-8.8,7.3l-4.8,7l3,2.8l11-11.5l-4.3,13.5l3.5,2.3l6-8.3l-2.3,8.3l3.5,2.3l4.8-5.8l-1.3,7.3l7.5,2.5
				c0,0,4-7,4-6.3c0,0.8-1.5,8.8-1.5,8.8l13,3.3l6.3-7.3l-0.5,8.5l8.5,2c0,0,0.8-6,5.8-7.3c5-1.3,15.8-6.5,15.8-6.5l5,1.3
				c0,0,3.8,0.5,5.8,1.3s8,4,8,4s6.1,1.7,5,6s-3,9.3-3,9.3l9.8,2l3.8-10.5l0.3,10.3l11.5,0.5l2.5-9l1,8.3l6.5,1.8l2.8-6.3l0.5,6.5
				l6-1l2.3-3.5l0.8,3.3l12.3-1h7.3l1-17l4,13.5l5,0.3l1.5-10.3l3.3,9.8l8.5-4l-0.8-11.3l2.5,10.3l4.5-0.5l-1-12.3l4.5,10.5l8-3.3
				l-2.3-11.3l6.3,10.3l4.8-3.8l-2.3-8.5l4.8,6.8l3.5-2l-15.5-25.1l-8.3-15.5c0,0-2-5.5-5.8-7.5c-3.8-2-19.6-10.3-19.6-10.3
				s-10-4.3-13.8-8c-3.8-3.8-13.3-10.8-13.3-10.8s-2.5,0-2.5,3.8c0,3.8-2,8-2,8s1,3-1.3,4.8s0.3,4.3-0.5,6.5c-0.8,2.3-4.3,3-4.3,3
				l-0.5,8c0,0,1.3,16-0.8,27.6s-5.3,24.1-11.3,31.6l-4.3,0.5c0,0,0.3-6-2.5-12.8c0,0-7.3-12.8-1.5-26.8c5.8-14,11.8-23.6,11.8-23.6
				l1.3-6c0,0-3.8-4.8,1.8-7.3c0,0-3.5-4,2.3-9.3c0,0-2.5-0.5-0.8-3.3c0,0-2.5,1-5.8,3.3c-3.3,2.3-12,6-19.3,5
				S574.8,395.7,572.8,389.2z"/>
        <path id="element-22" class="st0" d="M496.5,307.9v10.4c0,0-12-9.3-14-17.5c-2-8.2-3.8-18.4-0.7-25.5c3.1-7.1,4-15.5,4.2-18.8
				c0.2-3.3,0.2-25.3,0.2-25.3s-3.3-10.9-5.3-16c-2-5.1-6-12.7-5.5-21.5c0.4-8.8,0.4-8.8,0.4-8.8s-4.7-1.2-1.1-7.4
				c0,0-6-27.9,25.3-32.8c0,0,1.6,0.2,3.5-1.8c2-2,18.8-8.6,33.9-0.2c15.1,8.4,13.3,19.7,13.3,19.7s4.9-0.2,6.4,4.7
				c0,0,0,2.2-1.6,2.4c0,0,6.4,13.1,5.8,20.4c-0.7,7.3-2.4,17.7-2.2,22.2c0.2,4.4,0,27.9,0,27.9s11.5,27.9,4.4,49.7l-5.2,5.5
				l-3.3,8.8c0,0-10.9-10-9.3-19.8c1.6-9.8,5.8-27.9,5.8-27.9l1.3-17.1l0.7-26.8c0,0-2.2-13.1-5.8-18.6c-3.5-5.5-9.1-7.5-11.5-12.2
				c-2.4-4.7-11.5-17.3-11.5-17.3l-14.9,2.7c0,0-8.6-6.4-12-7.3c0,0-2.2,8.4-7.1,12.2s-11.5,12.9-11.5,12.9s0.9,5.3,2.7,9.5
				c0,0,5.3,5.5,5.1,12.6c-0.2,7.1,2.7,15.1,8.2,19.1l-1.8,6.7l1.1,22.8c0,0,2,17.1,6.4,24.2C505.6,286.6,503.8,295.7,496.5,307.9z"/>
        <path id="element-23" class="st0" d="M499.6,169.8l-21.1,6.2c0,0-6.4,3.1-6,6.4c0.4,3.3,13.5-1.8,13.5-1.8s25.7-7.8,35.5-8.9
				c9.8-1.1,27.5-2,31.7-2s4.7-1.6,3.5-4.7s-7.1-3.8-16.2-2.7C531.6,163.6,511.4,165.8,499.6,169.8z"/>
        <path id="element-24" class="st0" d="M551.5,239.2l10.2-1.6v-4.2l-0.4-7.1l-0.7-7.5c0,0,1.8-3.5-1.8-3.1c-3.5,0.4-7.5,0.2-7.5,0.2l-2.2,4.4
				l0.9,6.2l0.4,4.9l0.4,5.8L551.5,239.2z"/>
        <path id="element-25" class="st0" d="M489.9,253.8l6.4-2l-0.2-3.8l-0.4-4l-0.2-6c0,0,1.3-4.7-1.8-5.5c-3.1-0.9-7.5-1.1-9.1,1.3
				c-1.6,2.4-0.7,7.3-0.7,7.3l1.6,6l-1.1,6C484.3,253.1,484.1,254.4,489.9,253.8z"/>
        <path id="element-26" class="st0" d="M506.9,228.7c0,0,11.1,3.1,18.6-4.4c0,0-9.1-0.4-10,0.2s-4.9,2-4.9,2L506.9,228.7z"/>
        <path id="element-27" class="st0" d="M708.9,345.5c0,0,29.7,5.8,51.8-8.3c0,0-12.7,1.8-23.5-2.2l9.4-5.8c0,0-21,0-27.1-3.6
				c-6.2-3.6-2.5-4.7-2.5-4.7l-2.5-2.5c0,0,17.7-5.8,25.7-11.6c0,0-21.7-1.4-35.5-10.1c0,0,28.2-5.8,40.9-19.2
				c0,0-28.6,4.7-35.1-5.4l9.8-4.3c0,0-12.3,1.4-18.5-1.4c0,0,27.5-2.9,33.7-10.5c0,0-15.9,1.8-26.8-5.1l2.9-2.2
				c0,0-11.6-0.4-19.2-5.1c0,0,16.3-2.2,23.9-11.6c0,0-17-2.2-23.9-5.1c0,0,13.4-1.4,18.5-5.8c0,0-8.7-1.1-14.1-3.6
				c0,0,10.1-0.7,15.2-4c0,0-20.6-3.3-26.4-10.1l16.3-1.4c0,0-4.7-0.7-6.2-5.8c0,0,8-1.4,10.1-4c0,0-19.9,0.4-29.3-5.8l7.2-1.4
				c0,0-4.3-1.1-9.4-5.8c0,0,8.3,1.8,15.6-2.5c0,0-14.5-2.9-21.7-11.9l13.4,1.4c0,0,0.7-2.5,3.6-3.6c2.9-1.1,2.5-0.7-3.3-3.3
				s-14.1-11.6-15.2-15.2c0,0,15.6-2.2,17-13.8c0,0-10.1,10.1-15.6,2.2l6.2-6.5c0,0-7.2,5.8-7.6-8.3c-0.4-14.1-0.4-14.1-0.4-14.1
				s-5.4,11.6-10.9,14.8l5.8,1.4c0,0-0.7,8-9.8,6.9c0,0,1.4,5.1,6.2,6.2c0,0-11.6,6-12.7,4.3c-1.1-1.6,7.6,5,8.7,4.3
				s-1.4,7.6-10.9,9c0,0,46,167.2,51,178.4l4.3,14.8L708.9,345.5z"/>
        <path id="element-28" class="st0" d="M558.7,176.1l9-18.1l-5.8-5.1c0,0,5.8-0.4,9-4.3c0,0-15.6-2.9-17.7-9.8l6.2,1.1l9-7.2c0,0-17.4,1.4-24.3-9
				c0,0,9.4,2.2,13.4-0.4l-1.1-5.1c0,0-10.5-0.7-15.6-5.1l3.6-2.5l-3.6-2.9c0,0,4,0,5.1-3.3c0,0-6.2-4-8.3-10.1c0,0,5.8-2.9,7.6-8
				c0,0-9.4,6.5-10.9-6.5l-0.7-5.8L533,85.2c0,0,0.4,10.1-1.4,12.7c-1.8,2.5-10.5,1.1-10.5,1.1s2.2,5.4,8,5.8c0,0-2.2,9-16.3,11.6
				l5.8,4.3c0,0-4.7,3.3-11.9,2.5l5.1,3.6l-0.4,2.9c0,0,7.6,2.2,13.8,0.4c0,0-8.7,6.2-28.2,7.2l9,4c0,0,12.7-6.9,28.2-0.4
				c15.6,6.5,16.7,21.5,16.7,21.5s9.8,0.6,4.9,7.1L558.7,176.1z"/>
        <path id="element-29" class="st0" d="M357.1,219.9c0,0,68,22.1,126.3,2.5c0,0-3.6-6.9-5.4-12.3c-1.8-5.4-4.7-16.3-2.1-25.2c0,0-6.5-0.5-1.1-7.4
				l0.3-10.9l-2.9-6.9c0,0-37.6,14.8-89.4,1.1L357.1,219.9z"/>
        <path id="element-30" class="st0" d="M450.8,73.6c0,0-10.4,5.1-18.7-2.9l-7.6,53.6l-7.6-5.8l-1.1-34.7c0,0-5.4,6.5-11.9,4l1.8,15.2
				c0,0-5.8-4.3-5.8-5.8c0-1.4-1.8-6.9-1.8-6.9l-6.2,2.9c0,0,14.1,8.7,18.5,16.7c0,0,11.2,22.4,17.4,9.4L440,99L450.8,73.6z"/>
        <path id="element-31" class="st0" d="M338.3,455.5l-7.2,14.1c0,0-2.9,12.3-8.7,16.7c-5.8,4.3-7.6-0.4-9.4-2.5c-1.8-2.2-4,0-4,0s-3.3-0.7-3.3-5.4
				c0-4.7-4.7-6.9-8-11.9s-2.1-5.8-2.5-10.9c-0.5-5.1-2.2-9.4-2.2-12.7c0-3.3-0.7-4-3.6-3.3c-2.9,0.8-7.6-1.1-7.6-1.1l-30.2-7
				l-1,2.9l-3.6-2l0.7-1.7l-32.5-2.4l-4.9-0.2l-7.8,0.3h-10.8l-12,4.7h10.1l6.9-1.5l13.4,1.1c-2.2,4.3,2.2,5.4,2.2,5.4l-9,1.1
				c-12.7,0-25,4.7-25,4.7l-0.7,2.9l13.8-3.6h17.7c-4.1,0.9-0.4,5.1-0.4,5.1s-6.3,1.5-18.8,4c-12.5,2.5-13,4.3-13,4.3h20.3l1.4,4.7
				c0,0-14.3,2.6-17.7,3.6c-3.5,1-10.5,0.7-14.1,4.4c-3.6,3.6-11.7,5.9-12.3,6.1c-0.6,0.2-15.6,7.6-15.6,7.6
				c-1.8-15.2,1.5-19.9,3.3-25c1.7-5,6.5-10.8,6.5-10.8s10.1-12,15.2-16.7c5.1-4.6,11.9-4.3,11.9-4.3s13.8-4.7,16.3-4
				c2.5,0.7,12.6,0.7,13,0.7c0,0.1-0.1,0.1-0.1,0.2c-0.4,0.8-0.6,1.5-0.7,2.4c-0.1,1.5,1.7,2.2,2.8,1.6c1.1-0.5,2.2-1.2,2.8-2.2
				c0.5-0.8,0.7-1.7,1.3-2.4c0.8-0.9,2.2-1.5,3.3-2c0.7-0.3,1.3-0.6,1.9-1l32.8,7.7l11.2-26.8l-28.5-20.1l-0.3,0.6
				c-0.6-0.7-1.3-1.3-2-1.8c0,0-0.1,0-0.1-0.1l0.2-0.4l-5.7-4l6.7-4.7l2.6,2.4l39.3-71c-0.4-29.3,13.4-68,13.4-68
				c12.3-5.4,28.6,0.4,28.6,0.4s-5.1,19.9-2.9,25.7c2.2,5.8,5.4,9.8-0.4,10.5c-5.8,0.7-6.6,6.7-6.9,9c-0.2,2.3-8.3,1.1-11.6,0.4
				c-3.3-0.7-3.6,3.3-3.6,3.3c11.6,6.5,4.4,8,4.4,8c-6.2,6.1,1.8,7.6-4,11.9c-5.8,4.3-14.1-0.4-14.1-0.4l-40,72.2l27.1,25.2
				l-9.6,28.5l30.9,7.2l21-10.9c0,0,11.2,0.7,15.9,1.8c4.7,1.1,3.3,4,3.3,4l4.3,1.5l3.6,6.2l2.5,4.7l1.5,8L338.3,455.5z"/>
        <path id="element-32" class="st0" d="M315.1,195.1c0,0-52.2,61-77.3,89.9l18.2,19.5l2.9-1.9c0,0,1.8-1.7,8.3,0.8c6.4,2.5,6.6-1.7,6.6-1.7l5.9,2.9
				c-6.9,17.2-6.1,36.7-6.1,36.7s-7.4-14.9-15-15.9c-7.6-1-10-7.3-10-7.3c4-3.9,6.1-11.7,6.1-11.7l-19.8-18.2
				c-3.6,4.1-6.4,7.3-8.2,9.3c-13.8,15.1-26.3,29.8-34.8,34c-8.5,4.2-22.8,10.1-34.4,28.7c-11.6,18.6-27.4,36.1-27.4,36.1
				s-29.8,30-41,46.6c-11.2,16.7-7.2,55.4-7.2,55.4l2,24.7l-2,39.4c-19,4.2-21.9-4.6-23-7.7c-1.1-3.1,1.5-12.7,1.5-12.7
				c-9-1.1-13.6,6.6-13.6,6.6L47,526c-7.4-10.3-14.5-5.2-14.5-5.2s5.2-46.4,6.6-62.2c1.3-15.8-0.2-41.2,0.9-51.5
				c1.1-10.3,5.7-40.7,19.3-61.8c13.6-21,24.3-30,35-35.9c10.7-5.9,19.5-16,19.5-16l9-11.8c0,0,11.4-14.9,30.2-35.9
				c18.8-21,25.2-24.5,25.2-24.5l3.9-3.7l12.3-20.4c0,0,10.3-13.4,16-24.3s21.5-12,23.2-12.5s12.1,1.8,18.4-0.4s15.1-0.2,15.1-0.2
				l35.7,18.8c0,0,7.5,5.9,11.6,10.7C318.6,194,315.1,195.1,315.1,195.1z"/>
        <path id="element-33" class="st0" d="M205.1,422.9c0-0.1,0.1-0.1,0.1-0.2L205.1,422.9C205.1,422.9,205.1,422.9,205.1,422.9z"/>
        <path id="element-34" class="st0" d="M206.3,421.8C206.3,421.8,206.3,421.8,206.3,421.8L206.3,421.8C206.3,421.8,206.3,421.8,206.3,421.8
				c-0.2,0.1-0.5,0.2-0.5,0.3c-0.2,0.2-0.4,0.4-0.6,0.6l0.8-1.4c0.2,0.1,0.3,0.2,0.5,0.3L206.3,421.8z"/>
        <path id="element-35" class="st0" d="M224.4,502.8c0,0,5.4-17.2,3.8-19.9c-1.6-2.7-6.9-9.2-6.9-9.2s-2.2-6.3-3.1-7.8c-0.9-1.4,0.9-7.8,0.5-13.4
				s-2-8.9-2-8.9l-1.1-6c0,0,3.7-3.3,3.1-5.2s2-3.8,2-3.8l8.7-12.6l-8.3,1.1l-9,13.7l5.2,1.1c0,0,2.9,3.8-3.3,6l-6.3,0.5l0.4,4.5
				c0,0,4.3-1.4,6.4-0.3c2.2,1.1-1.8,5.2-3.1,5.4c0,0-1.4-0.7-1.1,1.3C210.9,451.4,224.4,502.8,224.4,502.8z"/>
        <path id="element-36" class="st0" d="M186.8,412l-9.9,2.8l-50.2-14l10.5-12.3c0,0,12.7-16,17.9-25.3c5.2-9.3,15.5-22.5,31.4-29.7
				s16.5-8.3,29.7-23.3s78.7-92.4,78.7-92.4l20.1-22.6c0,0,6.4,4.8,6.2,14.3c-0.2,9.5-5.2,24.7-5.2,24.7s-13.9-6.6-30.3-0.8
				c0,0-15.5,38.5-12.8,70.7c0,0-2.4,1.7-5.9-0.5s-8.9-2.5-11.1,1c-2.2,3.5-2.5,8.6-5.9,11.3s-0.7,4.2,1,6.1
				c1.7,1.9,11,2.4,15.9,9.6c4.9,7.3,8.6,12.3,10.1,20.6c1.5,8.3,12,26.3,12,26.3s9,17,9.4,23.9l-8.2,2c0,0-9.8,1.7-17.9,5.7
				c-8.1,4.1-34.3,10.1-45.1,7.1l-0.2-1.2l21.5-5.4l-3.4-13.5l-43.9,10.5l-11.6-39.4l-13.2,4.5L186.8,412z"/>
        <path id="element-37" class="st0" d="M192.3,427.1h5.6C196.1,427,194.3,426.8,192.3,427.1z"/>
        <path id="element-38" class="st0" d="M397.9,598.5c0,0-4.2-9.9-15.5-16.9c-11.3-7-32.2-19.3-40.7-23.4c-8.5-4-12.7-6.5-12.7-6.5s5.6-12.1,7.7-25
				c2-12.9,4.6-32.4,4.6-33.6c0-1.2-1-14.7-4.8-22c-3.8-7.3-4.4-3.6-4.4-3.6l-4,12.3c0,0-3.6,5.8-8.7,7.5c-5,1.6-6.4-3.6-6.4-3.6
				s-2.5-2-4,0l-4.5-6.7c0,0-1-4.6-3-7.3c-2-2.6-5.6-5.4-6-11.9c-0.4-6.5,0.6-9.5-1-13.3c-1.6-3.8-2.4-5.9-2.4-5.9l-8.3,0.6
				c0,0-4.1-1.2,0-4.1s14.5-6.9,14.5-6.9s-3.6-8.6-2.9-23.9c0,0-10.5,0.2-21,4.7c-10.5,4.4-34.3,11.8-47,8l-2.7-0.3l0.9-0.8l-2,0.6
				l-0.6-0.1l0.3,0.1l-15.9,5c0,0,5,0.7,3.5,3.2c-0.5,0.8-1.3,1.5-2.2,1.9c0,0,0,0,0,0s-0.3,0-0.8,0.1c-0.1,0.2-0.3,0.3-0.5,0.4
				c-1.7,0.8-3.4,0.8-5.2,0.8c-1.8,0.1-3.5-0.1-5.3-0.3c-0.9-0.1-1.9-0.3-2.9-0.2c-0.7,0.1-1.4,0.3-2,0.5c-1.3,0.4-3.2,0.5-4.3,1.6
				c-0.6,0.6-1.2,0.7-1.8,0.5c-0.4,0.5-0.4,0.8-0.4,0.8l0.7,0.1l-1.1,0.5l-1.8,0.8l-0.2,0.9c0.4-0.3,0.9-0.4,1.4-0.3
				c1.6,0.3,3.2-0.1,4.8-0.4c1.5-0.3,2.9-0.3,4.4-0.3c1.4,0,2.8-0.4,4.2-0.6c1.7-0.2,3.3-0.2,5-0.1c3,0.2,5.9,0.2,8.9,0.1
				c0.3,0,0.7,0,1,0c-0.1-0.2-0.2-0.4-0.1-0.7c0-0.5,0.2-1,0.5-1.3c0,0,0,0,0-0.1c0.2-0.3,0.4-0.7,0.7-1c0.2-0.3,0.5-0.6,0.7-0.9
				c0.1-0.1,0.3-0.3,0.4-0.4h-0.3l5.7-6.5l3.8-3.3l2.8,1.3l-5.6,8.5h-0.1c0,0.1,0,0.1,0,0.2c-0.1,0.4-0.5,0.9-0.9,1.1
				c-0.1,0.1-0.3,0.1-0.4,0.2c-0.3,0.4-0.7,0.7-1,1.1c-0.5,0.8-1,1.5-1.7,2.2c1.9,0.8,1.8,3.1,0.3,4.3c-1.2,1-2.7,1.6-4.2,2.1
				c-5.4,1.8-11.3,1.4-16.9,1.9c-2.8,0.3-5.7,0.6-8.5,1c-2.6,0.4-5,0.9-7.1,2.7c-0.2,0.2-0.4,0.3-0.6,0.4l-0.5,2.1
				c5.7-2,11.7-3.7,17.7-3.8c3.2,0,6.5,0,9.7-0.2c2.5-0.2,5-0.9,7.4-0.2c1,0.3,1.9,1.7,1.1,2.8c-1.7,2.2-4.4,2.6-6.9,3.1
				c-3.7,0.8-7.4,1.5-11,2.2c-3.8,0.7-7.5,1.9-11.3,2.8c-1.8,0.4-3.4,1-5.1,1.7c-1.2,0.5-2.3,1-3.6,1.4c0.1,0,0.1,0,0.2,0
				c4.2,0.7,8.5,0.7,12.7,0.4c2.1-0.1,4.2-0.3,6.2-0.6c2.1-0.2,4-0.9,6.1-1.2c2.1-0.3,3.2,2.1,1.4,3.4c-1.6,1.2-3.6,1.8-5.5,2.4
				c-2.1,0.7-4.2,1.2-6.3,1.7c-2.4,0.5-4.8,0.8-7.2,1.2c-2.4,0.4-4.8,1.3-7.2,1.4c-0.2,0-0.5-0.1-0.7-0.1l-0.8,0.1l-6.4,2.8
				l-8.9,5.2l-10.3,3.4l-12,6.6c0,0-1.9-9,0.6-15.5c2.4-6.5,5.8-15.9,5.8-15.9l12.9-16.5l-9.1,1.6l-3.4-14.8l29-7.2l-47.9-14
				c0,0-22.6,22.6-23.4,23.4c-0.8,0.8-19.5,19.2-21.6,43.1c-2,24,2.2,42.3,1.6,53c-0.6,10.7-1.5,42.3-1.5,42.3l-13.8,0.7
				c0,0-10.4,31.2,12.4,56.6c0.3,0.3,0.6,0.7,0.9,1c24,25.6,331.1,11.3,331.1,11.3L397.9,598.5z M204.4,431.2
				c-0.4,0-0.7-0.3-0.8-0.6c-2.9,0.2-5.9-0.1-8.8-0.1c0,0.1,0,0.3-0.1,0.4c0,0.1,0,0.1-0.1,0.2c-0.1,0.2-0.3,0.3-0.5,0.4
				c-0.1,0-0.2,0-0.4,0c-0.1,0-0.2,0-0.3-0.1c-0.1-0.1-0.2-0.1-0.3-0.2c-0.1-0.1-0.1-0.2-0.2-0.3c0,0,0-0.1-0.1-0.1
				c-0.1-0.2-0.2-0.4-0.2-0.5c-0.1-0.2-0.2-0.4-0.2-0.5c0,0,0,0,0,0c0,0,0,0,0,0c0,0,0,0,0-0.1c-0.1-0.2,0-0.5,0.1-0.7
				c0.1-0.1,0.1-0.2,0.2-0.3c0.1-0.1,0.1-0.1,0.2-0.1c0.1-0.1,0.2-0.1,0.3-0.1c0.1,0,0.2,0,0.2,0c0.1,0,0.2,0.1,0.3,0.2
				c0,0,0.1,0.1,0.1,0.1c3.4,0,6.8,0.4,10.2,0.1c0.3,0,0.6,0.2,0.8,0.4c0.2,0.4,0.3,0.7,0.4,1.1
				C205.3,430.8,204.8,431.2,204.4,431.2z M207.8,441.3c-0.1,0.5-0.6,0.7-1.1,0.6c-1.8-0.2-3.6,0-5.4,0c-0.8,0-1.6,0.1-2.5,0.2
				c-0.9,0.2-1.8,0.3-2.7,0.3c-1.2-0.1-1.2-1.9,0-1.8c0.9,0,1.8-0.1,2.7-0.3c0.9-0.2,1.8-0.2,2.8-0.2c1.9,0,3.8-0.2,5.7,0
				C207.7,440.3,208,440.9,207.8,441.3z M221.9,547.3l-21.6-79.6h0.3c-0.3-0.9-0.7-1.8-1-2.8c-0.6-1.8,0.2-3.2,1.8-4
				c0.9-0.5,1.9-0.8,2.8-1.1c0.2-0.3,0.4-0.6,0.7-0.9c0.2-0.8,0.4-1.7,0.7-2.5c-0.3-0.5-0.6-0.9-0.9-1.4c-0.4-0.5-0.4-0.4-1-0.3
				c-1.9,0.5-3.9,0.5-5.8,0.5l-0.9-4c2.3-0.2,5.5-0.7,7.8-1c1.1-0.2,2.2-0.3,3.3-0.7c1.1-0.4,2.1-0.7,3.2-0.6c0.1,0,0.3,0,0.4,0.1
				c0.1-0.1,0.2-0.2,0.3-0.3c0.6-0.5,1.3-0.8,1.9-1.3c0.6-0.4,1.1-0.9,1.6-1.4c1.1-1.2,3.2-0.3,3.2,1.3c0,0.8,0.3,1,0.8,1.7
				c0.5,0.8,0.8,1.7,0.9,2.6c0.2,1.9,0,3.9-0.2,5.7c-0.2,1.1-0.5,2.1-0.8,3.1c-0.3,0.8-0.9,1.8-0.9,2.7c0,0.7,0.4,1.4,0.6,2.1
				c0.3,0.9,0.5,1.8,0.4,2.7c0,0.1,0,0.2-0.1,0.4l2.2,5.5l6.9,9.2l-3.8,19.9l9.8,39.9L221.9,547.3z"/>
        <path id="element-39" class="st0" d="M205.7,427.1c-1.9,0.1-4.5,0.2-6.2,0.1c-0.5,0-1-0.1-1.5-0.1H205.7z"/>
        <path id="element-40" class="st0" d="M320,549c0,0,10-1.9,12.6-23.8s4.5-28.8,4-35.2s-5.7-18.1-5.7-18.1l-5,10.7c0,0-3.1,3.8-8.3,4.8
				c0,0-1.2,1-3.3-1.9c-2.1-2.9-3.4-3.3-5.4-1.8l-2.7-3.7l-4.3,24.5c0,0-4.3,25.7,4.3,38.1L320,549z"/>
        <path id="element-41" class="st0" d="M154.4,475.4l-15.6,7.6c0,0,5.6,34.6,4.4,37.9c-1.2,3.3-1.4,8.6-0.5,14.5c1,5.9,3.6,10,5.7,3.6
				c2.1-6.4,4-15.9,4-26.2c0-10.2,2.1-23.1,2.1-23.1L154.4,475.4z"/>
        <path id="element-42" class="st0" d="M103.1,303.3c0,0-14.6,2.8-21.9-1.8l7.7-4.5l-11.2-1.2l-2.3-1.5l4.3-4.5c0,0-13,1.2-23.1-9.2
				c0,0,17.1,2.3,25.4-3.3l-3.3-2.7c0,0,9.2-1.7,10.7-3.5c1.5-1.8-2.5-1.8-2.5-1.8s21.6-4,26.1-14.7c0,0-8.7,3.2-14.7-1.5l6.9-3.2
				c0,0-20.9,3-32-9.4c0,0,10.2,1.8,19.7-3.2l-4.2-2.3c0,0,17.1-2.5,23.1-8.9c0,0-7.7,1.7-13.9-2.3c0,0,17.2-4.3,23.1-10.4l-8.5-0.2
				c0,0,5.9-2.3,6.5-4.9c0,0-20.7,3.2-34-7.4c0,0,11.9,0.5,18.9-5l-9.2-5.4c0,0,18.4,0.8,24.3-9.2l-2.2-1.2c0,0,10.9-3.3,14.6-8.2
				c0,0-16.1,6.2-27.8-0.7c0,0,6.9-2,8.2-4.9l-3.7-3.3c0,0,15.6,0.8,22.1-3.7l-1-1.5c0,0,14.2-1.8,17.6-7.5c0,0-10.4,3.8-20.1,1.8
				l6-4.3c0,0-11.7,0-18.7-4.5c0,0,34.6-5.4,43.7-22.1c0,0-22.1,5.5-31.5-8.2c0,0,14.2,3.2,25.1-2.2l-5.7-6.2c0,0,6.9,3.3,13.4,0.2
				l-6.7-10.4c0,0,5.7,5.9,8.4,3.7c2.7-2.2,3.8-19.9,3.8-19.9l3.2-26.1l0.7,20.9c0,0,4.5,2.3,8.5-2.3c0,0,1,1.5-0.5,4.2
				c-1.5,2.7-7.5,5.4-7.5,5.4s-0.8,2.5-0.2,3.3c0.6,0.8,0.7,6.5,0.5,9.2c-0.2,2.7-0.2,3.5,2,3.3s5-0.2,5-0.2s-3.8,1.8-1.7,3.3
				c2.2,1.5,3.2,2.2,3.2,2.2s-5.7,5.2-1.3,6c4.3,0.8,19.4-6,19.4-6s-4.3,8.4-13.9,13.4l7.7,2c0,0-3.7,8.2-13.2,9.7
				c0,0,6.9,5.2,17.7,1.5l-2.3,3.8l4,0.5c0,0-8.5,6-21.1,8.9c0,0,10,4.3,18.1,1.7c8-2.7,19.7-12.5,19.7-12.5s-3.8,11-11.7,15.2
				l3.5,2c0,0-7.4,7.7-19.4,9.2l1.8,3.5l-10.5,3c0,0,14.6,6.2,35.6-8.4c0,0-1.2,9.9-16.9,17.2l0.8,3.5l-7,3.5c0,0,9.2,1.7,17.7,0.5
				l-25.8,39.5l-8.7,5.9l-28.3,30.9l-20.4,24.4l-9.5,11.4C113.8,292,112,298.1,103.1,303.3z"/>
      </g>
      <g id="outline">
        <path id="element-43" class="st1" d="M486.6,254.1c0,0-0.2,8-3,16.3s-4.8,15.6-1.7,27.4c3.2,11.8,13,17.6,14.8,23.3c0,0-1.2-7.6-0.8-11.1
				c1.7-17.6-2.5-20.5-0.8-26.6"/>
        <path id="element-44" class="st1" d="M496.2,311.9c0,0,2.8-10,4.3-12.5c1.5-2.5,3.8-12.6-1-24.4s-4.7-18.8-4.8-22.4"/>
        <path id="element-45" class="st1" d="M485.2,253.9c0,0,10.8-1.3,11.5-2.5s0.5-3.5-1-4.3c-1.5-0.8,1.5-1.7,1.2-3.7c-0.3-2-1.7-2.2-1.7-2.2
				s1.5-0.5,1.3-2.5c-0.2-2-2.7-2.2-2.7-2.2s1.8-0.7,1.7-3c-0.2-2.3-6.5-1.8-8.5-1.5c-2,0.3-4,3.7-2.8,5c1.2,1.3-1,2.5-0.2,4.7
				s1.8,2.5,1.8,2.5s-1.7,2.8-0.8,3.5C485.9,248.4,482.6,253.6,485.2,253.9z"/>
        <path id="element-46" class="st1" d="M552.9,239.1c0,0,0.2,15.5-3,26.6c-3.2,11.1-5.2,21.6-2.2,26.9c3,5.3,7,11,7,11s5-6.8,2-12.5
				c-3-5.7-0.8-10.6-0.8-10.6"/>
        <path id="element-47" class="st1" d="M564,287.1c0,0,4.7-13.6,0.8-26.9c-3.8-13.3-5.5-22.1-5.5-22.1"/>
        <path id="element-48" class="st1" d="M555.6,237.9c0,0,6.8,0.7,6.8-2c0-2.7-1.2-3-1.2-3s1.8-3-0.3-6c0,0,1.8-4-0.7-6.5c0,0,2.7-4.5-1.3-5
				s-8,0.2-8,0.2s-3.2,4.5-0.5,5.2c0,0-2.3,5.7,0.7,6.3c0,0-2.7,4.5,0.8,6.3c0,0-2.7,2.7-0.5,5"/>
        <path id="element-49" class="st1" d="M510.2,239.4c0,0,1.7,10.1,2.5,11.6c0.8,1.5,7.3,7,10.5,7.5"/>
        <path id="element-50" class="st1" d="M527.3,258.5c0,0,17.6-3.2,22.9-20.3"/>
        <path id="element-51" class="st1" d="M545.1,225c0,0-9.1,11.3-16.1,15.5c-7,4.2-8.6,3.7-13.1,1.8c-4.5-1.8-13.1-8.3-18.1-14
				c-5-5.7-10.6-9.6-10.6-20.8s-4.8-8.8-5.8-17.3c-0.4-3.1-0.5-5.1-0.4-6.3"/>
        <path id="element-52" class="st1" d="M483.2,191.9c0,0,5.3-3.7,15.5-2.8"/>
        <path id="element-53" class="st1" d="M510.7,187.4c0,0,13.1-10.8,22.6-4.7"/>
        <path id="element-54" class="st1" d="M504.5,194c0,0,3.2,6.8,2.2,17.6"/>
        <path id="element-55" class="st1" d="M506.3,218c0,0,2.5,4.7,6.2,2c3.7-2.7,4.5-3.8,5.5-3.8s1.3-2.7,1.3-2.7"/>
        <path id="element-56" class="st1" d="M508.3,229.3c0,0,7,0.3,8.8-0.2c1.8-0.5,9.8-4.8,9.8-4.8s-10.1-0.8-11,0.5c-0.8,1.3-2.3,1.5-4.2,1.3
				C510,226,508.3,227.8,508.3,229.3z"/>
        <path id="element-57" class="st1" d="M513.3,233.4c0,0,6.7,0.3,9.6-2.7"/>
        <path id="element-58" class="st1" d="M552.9,214.7c0,0-0.3-13.6-7-22.8"/>
        <path id="element-59" class="st1" d="M558.9,215.5c0,0,0-12.3,1.8-20.5s-1.8-20.8-5-25.3"/>
        <path id="element-60" class="st1" d="M551.4,196.5c0,0-6-7.6-9.3-9c-3.3-1.3-12.5-16.5-12.5-16.5"/>
        <path id="element-61" class="st1" d="M487.1,232.1c0,0-2.5-11-5.2-14.6c-2.7-3.7-8.3-14.3-6-32.6"/>
        <path id="element-62" class="st1" d="M560.4,240.6c0,0,6.8,5.2,8.8,7.8s19.8,4.3,44.1,28.3"/>
        <path id="element-63" class="st1" d="M516.8,197.4c0,0-1.5-3.2,2.3-4.8c0,0,10-0.2,10.5-0.2"/>
        <path id="element-64" class="st1" d="M520.1,194.2c0,0,0.2,2.8,3,2.3s1.8-3.5,1.8-3.5"/>
        <path id="element-65" class="st1" d="M502.7,201.2c0,0,0.7-2.7-2.5-2.8c-3.2-0.2-7.1-1.3-11,3.3"/>
        <path id="element-66" class="st1" d="M493,199.7c0,0-1,3.5,1.8,3.2c2.8-0.3,3.3-2.8,2.3-4.5"/>
        <path id="element-67" class="st1" d="M475.1,177.9c0,0-5.3-31.8,25.9-32.9"/>
        <path id="element-68" class="st1" d="M499,149.6c0,0,2.8-12.8,23.3-11.1c20.5,1.7,26.4,13.8,29.4,23.1"/>
        <path id="element-69" class="st1" d="M492,171.4c0,0,6.7-8.3,7.5-13.3"/>
        <path id="element-70" class="st1" d="M499.9,160.3c0,0,6,2.3,8.5,6.7"/>
        <path id="element-71" class="st1" d="M499.5,176.7c0,0,24.3-7,42.2-7.1s15.8-0.3,15.3-3.2c-0.5-2.8-3.3-4.3-9.8-4.2c-6.5,0.2-27.9,1.8-45.1,6.5
				c-17.1,4.7-20.5,6.2-23.9,7.1s-5.2,4.2-5.3,6.3c-0.2,2.2,1.7,3,9.8,0C490.9,179.2,499.5,176.7,499.5,176.7z"/>
        <path id="element-72" class="st1" d="M485.2,253.9c0,0-7.1,5-12.1,8.1c-5,3.2-16.1,4.2-21.6,10.6c-5.5,6.5-11.5,19.3-14.6,26.8
				s-14.5,19.1-14.8,23.4"/>
        <path id="element-73" class="st1" d="M435.8,311.8c0,0-3.2,5.5-8.5,8.3s-13.5,7.1-15.8,13.3s-0.5,8.6,0.7,9.3c1.2,0.7,8.8-8.6,22.3-7.6
				c13.5,1,40.7,12.8,62.5,18.3c21.8,5.5,48.1,2.5,48.1,2.5"/>
        <path id="element-74" class="st1" d="M519.8,325.6c0.5-0.3,6.7-6.3,6.7-6.3"/>
        <path id="element-75" class="st1" d="M520.8,356.6c0.3-0.7,2.2-7.3,2.2-7.3l1.5,6.8"/>
        <path id="element-76" class="st1" d="M523.8,376.9c0,0-5.3-4-13.8-3.5s-14.5-0.5-17.1-2.8s-5.3-1.7-5.7,0.7s0.5,0.5,0.7,4.2
				c0.2,3.7-0.2,4.7-0.2,4.7"/>
        <path id="element-77" class="st1" d="M546.6,362.1c0,0-4-1-8.6,2.3c-4.7,3.3-6,8.1-10.1,10.8c-4.2,2.7-11.6,5.2-21,4.8
				c-9.3-0.3-24.1-0.8-24.1-0.8"/>
        <path id="element-78" class="st1" d="M537.4,401c0,0,5.5-11.6-7-26.1"/>
        <path id="element-79" class="st1" d="M487.2,371.3c0,0-9.5-1.8-16-6s-7.1-5.5-13.1-7.3c-6-1.8-9.5-4.2-12-3.8c-2.5,0.3-3.7,2.2-6.8,4.3
				c-3.2,2.2-11.1,6.5-12.3,6.7"/>
        <path id="element-80" class="st1" d="M425,370.1c0,0,17.8-9.1,19.8-10.1s10.8,0.2,13.3,0.5c2.5,0.3,7.8,1.3,10,3.3"/>
        <path id="element-81" class="st1" d="M425,375.1c0,0,14.5-7.5,16.8-9s8.3-1.2,20.8,1.5"/>
        <path id="element-82" class="st1" d="M430,376.4c0,0,10.1-3,16-6.8c0,0,9.1,1.3,12.5,3.3"/>
        <path id="element-83" class="st1" d="M432,378.3c0,0,4,0.2,8.5-1.3c4.5-1.5,8.1-2,8.1-2"/>
        <path id="element-84" class="st1" d="M435.3,387.9c0,0,5.5-7.3,10.1-9.3c0,0,13,2.5,33.4,0.8"/>
        <path id="element-85" class="st1" d="M412.2,342.7c0,0-1.5,10.1-0.5,22.8c0,0-5.3,5.2-5.3,11s-0.5,12,2.3,17.1s0.5,15.1,0.2,19.3
				s0.7,18.8,2.7,19.6c2,0.8,53.4,6.2,97.6-28.3"/>
        <path id="element-86" class="st1" d="M539.6,392.1c0,0,7.1-3.2,7.8-3"/>
        <path id="element-87" class="st1" d="M570.7,320.9c0,0,14.3-2.8,18.5,8.5"/>
        <path id="element-88" class="st1" d="M553.1,311.9c0,0,7.5,0.8,11.1,7.1c0,0-0.2,5.2-7,11.6s-11.5,12.3-9.3,15.1c2.2,2.8,6.8,3,6.8,6.2"/>
        <path id="element-89" class="st1" d="M555.2,347c0,0,5.5,4.2,5.7-0.3"/>
        <path id="element-90" class="st1" d="M549.9,363.6c0,0,4.3,5.3,10.6,1.2"/>
        <path id="element-91" class="st1" d="M563.4,362.6c0,0-3.8-5-5.8-5.2c-2-0.2-3,1.8-4.3,0.7c-1.3-1.2-4.2-3.3-4.3-1.5c-0.2,1.8,0.5,3.8,3.3,4.2
				c2.8,0.3,6.7,0.5,7.8,1.2"/>
        <path id="element-92" class="st1" d="M576.7,330.4c0,0-0.3,2.5-3,1.8c-2.7-0.7-1.5-5-1.5-5s7.8,0.8,8.8,7.1"/>
        <path id="element-93" class="st1" d="M558.9,325.2c-0.5-3-4.5-4.5-6.2-4.5c-1.7,0-2.8-0.8-2.8-0.8"/>
        <path id="element-94" class="st1" d="M553.9,321.7c0,0-1.5,3.2,0.8,4.5c0,0,2.2,0.2,2.7-3.3"/>
        <path id="element-95" class="st1" d="M550.6,326.1c0,0-0.3,6.2-2.2,8.1c-1.8,2-4.8,6.8-3.3,12.5c1.5,5.7,1.8,15.3,1.3,19.8
				c-0.5,4.5,0.5,13.5,8.5,13.3c8-0.2,24.9,0.3,29.3,0c4.3-0.3,15.3-2,19.5-6.5"/>
        <path id="element-96" class="st1" d="M571.8,380.4c0,0,1.3,12.1,4.3,16s19.1,5.5,30.3-5.3"/>
        <path id="element-97" class="st1" d="M546.6,397.7c0,0-8.8,3-13.6,4.3c-4.8,1.3-5.8-1-9.8,4.2s-4,5.8-9.1,6.5c-5.2,0.7-4.5-0.7-12.5,9.5
				c-8,10.1-11,16-17.1,20.3s-11.3,12.8-11.3,12.8l3.7,2.5l11.8-13.6l-5.7,15.6l3.7,1.7c0,0,7.8-10.1,7.8-13.3c0,0-1.2,9-4.5,14.5
				l4.5,2.2l5.7-8.3l-2.7,9.8l7.8,1.8l5.3-10.5l-3,12.8l8.3,2.3l2.7-9.3"/>
        <path id="element-98" class="st1" d="M577,485.3c0,0,9.6,2,9.8,1.5c0.2-0.5,2.7-11,3.7-12.5l0.3,13.1h12.1l2.3-12.6c0,0,0.7,12.1,0.7,12.6
				s6,1.2,6,1.2s3.7-4.5,3.8-15l-0.3,15.1l6.8-0.5l1.2-17.1c0,0,1.3,6.5,1.3,16.5l10.6-1.2L635,472"/>
        <path id="element-99" class="st1" d="M635.4,486.5l9-0.2l0.8-17.3c0,0,3.5,7.6,4,15.1c0,0,3.8-1.5,6.3-0.7l-0.5-15.1l4.2,13.6
				c0,0,5.8-2.5,7.8-2.2l-1.5-17.1c0,0,3.7,9.6,4.2,15l4.5-1l-2.5-14.3c0,0,4.8,6.2,5.7,13l7.8-2.7c0,0-1.5-6.5-3.5-14.3
				c0,0,5.7,6.7,7.3,13.3l5.7-3.8l-4.2-13.5l6.7,11l2.7-1.8c0,0-8.1-14.5-12.3-20.6s-11.6-19.5-12.5-22.9c-0.8-3.5-6.3-6.5-13.5-9.6
				c-7.1-3.2-20.3-9.3-24.8-13.6c-4.5-4.3-11.5-9.5-11.5-9.5"/>
        <path id="element-100" class="st1" d="M420.9,395.2c0,0,15.3-8,19.6-18.3"/>
        <path id="element-101" class="st1" d="M426.9,406.4c0,0-0.2-8.6,5.3-12"/>
        <path id="element-102" class="st1" d="M575.3,406.5c0,0,4,2.8,5,8.6"/>
        <path id="element-103" class="st1" d="M569.5,433.9c0,0,5.5-3.9,6.8-6.3"/>
        <path id="element-104" class="st1" d="M570.6,428.2c0,0,4.4,4,4.7,7.3"/>
        <path id="element-105" class="st1" d="M564.1,456.7c0,0,7.3-2.8,8.3-7.3"/>
        <path id="element-106" class="st1" d="M566.6,451.2c0,0,2.1,4.9,2.4,7.3"/>
        <path id="element-107" class="st1" d="M550,378.2c0,0-2.1,4.9,0.8,6.3c0,0-5.2,4.2-0.3,6.8c0,0-5.7,3.7-2.6,8.3c0,0,1,7.1-2.9,10.9
				c-3.9,3.7-12.6,12.1-11.5,24.1c1.1,12,4,17.3,8.7,26.4c0,0,1.3-7.3-0.3-11.5c-1.6-4.2-1-12.8-1-12.8"/>
        <path id="element-108" class="st1" d="M542.8,430c0,0,4.9,16,3.2,24.3c-1.6,8.3-0.6,10.7-0.6,10.7s2.7-5.4,3.9-6.8c3.4-4,3.9-12.5,2.4-23.5
				c-1.5-11,4-24.3,4-32.6c0,0,6.3-2.8,2.9-8.7c0,0,5.3-3.2,1-6.8c0,0,3.9-3.7,1.3-6.5"/>
        <path id="element-109" class="st1" d="M547.9,399.6c0,0,2.3-1.1,5.8,0.8"/>
        <path id="element-110" class="st1" d="M550.5,391.3c0,0,3.7,1.5,5.3,1.1"/>
        <path id="element-111" class="st1" d="M550.9,384.5c0,0,2.9-1.1,4.7,0.5"/>
        <path id="element-112" class="st1" d="M606.7,411.1c0,0-5.3,11.8-10.5,21.1c-5.2,9.2-6.3,18.3-5.2,26.4c1.1,8.1,7.8,16,6.2,22.2"/>
        <path id="element-113" class="st1" d="M612.6,412.2c3.9,57.8-12.8,68-12.8,68s2.8-10.9,0.6-18.5c-2.1-7.6,0-21.4,3.9-30.5"/>
        <path id="element-114" class="st1" d="M605,444.4c0,0,1,19-3.4,27.1"/>
        <path id="element-115" class="st1" d="M610.1,411.4c0,0,6.6,2.1,7.6-1.8s-1.8-4.9-1.8-4.9s6.2-2.9,2.6-7.1c0,0,7.3-5.2,2.1-10c0,0,6.6-2.4,1.9-7.8
				c0,0-4.4,1.5-7-0.3s-5.2-0.6-5.7,2.1c-0.5,2.8,0.2,4.7,2.1,4.9c0,0-7.3,4.7-1.6,8.7c0,0-7.1,4.2-2.6,8.9c0,0-5,2.6-2.6,6.3
				L610.1,411.4z"/>
        <path id="element-116" class="st1" d="M607.9,404.1c0,0,5.2,1.8,8.1,0.6"/>
        <path id="element-117" class="st1" d="M610.5,395.2c0,0,2.4-0.5,4.2,0.8"/>
        <path id="element-118" class="st1" d="M620.7,387.6c0,0-0.8,1.1-4.7,0"/>
        <path id="element-119" class="st1" d="M614,378c0,0,1.5-16.4-3.4-32.7"/>
        <path id="element-120" class="st1" d="M615.7,343.8c0,0,0.2,15.6-1.1,21.5"/>
        <path id="element-121" class="st1" d="M608.8,340.8c0,0-7.5-15.6-14.9-21.4s-16.7-17.7-11.3-31.7c0,0-6.5,5.7-14.3,7.9c-7.8,2.3-6.6,2.6-8.1,6.3
				c-1.5,3.7-3.4,6.2-6,7.3"/>
        <path id="element-122" class="st1" d="M558.1,295.7c0,0,9.9-10.2,16.4-15.4c6.5-5.2,9.1-4.5,14.6-5c5.5-0.5,12.3,1.1,13.8,1.8"/>
        <path id="element-123" class="st1" d="M592.3,280.7c0,0,13.1-4.4,25.4-2.6c12.3,1.8,21.4,6.6,27.2,19.9c5.8,13.3,1.1,27.9-1.6,37.6
				s-3.6,19.8-6,25.3c-2.4,5.5-11.3,10.7-15.2,18"/>
        <path id="element-124" class="st1" d="M693.1,469.5c0,0,1.9,22.2,3.7,29.5c1.8,7.3,5.2,12,5.7,16.7c0.5,4.7-0.8,11.3,0.3,13.1s0.8,16-2.3,19.4
				c-3.1,3.4-24.5,10.2-41.5,8.9s-35.6-12.1-46-12.8"/>
        <path id="element-125" class="st1" d="M650.2,484.4c0,0,3.2,5.2,0,10.5c-3.2,5.3-1.9,5.7,0.8,8.1"/>
        <path id="element-126" class="st1" d="M656.3,497.4c0,0-3.7,5.7-6,9.1c-2.3,3.4,2.6,7.3,2.6,7.3"/>
        <path id="element-127" class="st1" d="M656.5,529.8c0,0-4.2-7.8-3.6-11.3c0.6-3.6-2.4-6.5-7.5-5.7c-5,0.8-32.4,4.5-47.8,2.1
				c-15.4-2.4-19.8-8.3-23-6"/>
        <path id="element-128" class="st1" d="M576.5,511.8c0,0,7.6,18.1-3.7,28.8"/>
        <path id="element-129" class="st1" d="M656.5,517.8c0,0,10.5,8.1,14.3,16.2"/>
        <path id="element-130" class="st1" d="M658.7,509.1c0,0,4.2-2.4,9.9,1.6"/>
        <path id="element-131" class="st1" d="M689.7,525.8c0.2-0.5,2.4-3.1,2.6-11.5"/>
        <path id="element-132" class="st1" d="M642.1,554.3c0,0-35.3-6.5-52.3-5.2c-17,1.3-21.1-1.1-21.5-1.6s3.6-9.1,0.2-18.1"/>
        <path id="element-133" class="st1" d="M576,528.8c0,0-12,0.2-19-4.9c-7-5-6.8-11.3-4.7-22.4c2.1-11,2.1-12,2.1-12l-2.9-7.9c0,0-2.8,6-10.9,4.9
				c0,0-1-0.3,0.2-2.6s4.5-3.7,6.2-7.5"/>
        <path id="element-134" class="st1" d="M550.4,475.5c0,0,3.4,0.3,5.3,2.4c1.9,2.1,7.5,5.7,9.9,5s2.6-1-0.5-4c-3.1-3.1-9.1-8.7-11-9.7
				c-1.9-1-12,4.2-12,4.2"/>
        <path id="element-135" class="st1" d="M564,478.1c0,0,5.8,0.2,6.8-1.1c1-1.3-1.8-2.8-3.6-4.4c-1.8-1.6-6.6-8.3-7.8-9.4c-1.1-1.1-5.7,1.1-10.7,2.8
				c-5,1.6-10,4-11.8,6.3c-1.8,2.3-3.1,3.9-1.6,9.2c1.5,5.3,4,18.8,2.6,23.8c-1.5,5-4.9,6.8-4.9,6.8s-4.7,8.6-0.2,24.6"/>
        <path id="element-136" class="st1" d="M574.7,475.2c0,0-3.9-6.6-5.7-8.6c-1.8-1.9-6.8-1.6-6.8-1.6"/>
        <path id="element-137" class="st1" d="M572.4,468.7c0,0,5.5,3.4,6.6,4.5c1.1,1.1,1.3,3.6,0,7s-5.3,14.9-6.5,18.3c-1.1,3.4-3.2,13.8-2.8,14.1
				c0.5,0.3,3.6,0.6,3.6,0.6"/>
        <path id="element-138" class="st1" d="M533.2,525.3c0,0,14.7,2.3,17.5-6.6"/>
        <path id="element-139" class="st1" d="M537.2,525.8c0,0,2.3,9.6-3.6,14.9c0,0-5.8-1.3-10.7-3.4c-4.9-2.1-10-2.6-17.2-1.5s-32.1,2.6-44.4-11"/>
        <path id="element-140" class="st1" d="M457.9,521.9c0,0-4-7.3,0.2-18.1c4.2-10.9,10.5-9.2,9.6-14.3s-1-8.3,0.6-9.9s6.8-1.3,7.1-3.2
				c0.3-1.9,1.3-11.2,4.4-18"/>
        <path id="element-141" class="st1" d="M488.7,477c0,0,3.9,6.6,9.1,7.8"/>
        <path id="element-142" class="st1" d="M470.2,497.9c0,0,7-7.1,17-5.2c10,1.9,13.4,3.9,16.8,7.1c3.4,3.2,12.1,6.2,13.9,6.2s16.2,0.2,16.2,0.2"/>
        <path id="element-143" class="st1" d="M518.6,505c0,0-2.7-23.3-2.8-32.3l5.5,1.5l6.3-12.3l-2.5,13.6l9.6,2"/>
        <path id="element-144" class="st1" d="M509.1,502.1c0,0,0.5-4-4-7.5c-4.5-3.4,1.9-1.8,4,0.2c2.1,1.9,2.6,1.3,3.2-1.6s1-9.6,3.9-13.3"/>
        <path id="element-145" class="st1" d="M655,633.3c0,0-0.6-10-2.9-12.5s5.7-11.7,5-18c-0.6-6.3-3.9-12.3-3.9-12.3"/>
        <path id="element-146" class="st1" d="M641.2,622.3c0,0,2.6-14.6,7.8-24.5c5.2-9.9,14.4-27.9,14.7-39.5"/>
        <path id="element-147" class="st1" d="M512.1,615.7c0,0-4.4-21.7,0.2-33.4c4.5-11.7,6.2-14.1,5.2-24.3s-0.3-17.2-0.3-22"/>
        <path id="element-148" class="st1" d="M454.5,429.7c0,0,3.6,47.9,0,68.6s-3.1,23.2-3.1,23.2"/>
        <path id="element-149" class="st1" d="M460.7,533.3c0,0-4.1,25.8-3.6,33.5c0.5,7.7-5.7,29.4-5.7,36.6s-6.2,24.2-6.2,24.2"/>
        <path id="element-150" class="st1" d="M592.8,139.7l30.1-65.8l14.6-52.2c0,0,2-13,2.8-11.1s2.7,4,2.5,5.8S628.2,73,628.2,73
				c12.9,5.7,24.7-2.6,24.7-2.6l20.1-34l3.6,4.6l-46.9,72.2c0,0,0,0,3.1,6.2s35.1,117,44.8,156.7s50,152.6,50,152.6
				s-9.9,15.6-37.5,16.6"/>
        <path id="element-151" class="st1" d="M609.1,103.4c0,0,4-75.8,4-76.5c0-0.7-3.5-3.7-4-4c-0.5-0.3-1,5.3-1,5.3l-3.3,84.6"/>
        <path id="element-152" class="st1" d="M598.3,126.5c0,0-1.3-93.1-1.3-94.1c0-1-3.8-5.5-4.5-5.7c-0.7-0.2-0.7,7-0.7,7l3.2,98.8"/>
        <path id="element-153" class="st1" d="M593.8,127.9c0,0-25.3-53.5-26.3-55.5s-3.2-3.7-2.5-5.2c0.7-1.5,3.7-1.2,3.7-1.2l25.4,55.7"/>
        <path id="element-154" class="st1" d="M315.5,195.7c0,0,8,6.8,5.3,18.8c-2.7,12-5.2,19.3-5.2,19.3s-12.8-5.8-29.6-1.2c0,0-17,42.9-13,71
				c0,0-1,1.5-3.7,0.5c-2.7-1-8.8-3.3-11.8-0.7c-3,2.7-3,3.3-4.8,8.1c-1.8,4.8-6.7,8-7.1,8.3"/>
        <path id="element-155" class="st1" d="M273.2,340.9c0,0,0.3-21.8,6.5-36.4"/>
        <path id="element-156" class="st1" d="M273.6,301.6c0,0,6.8,4,11.6,2.7s7-3.5,6.2-7.1s0.3-4.2,2-5.5c1.7-1.3,3.7-2.8,0.7-5.7
				c-3-2.8-4.8-3.2-4.8-3.2"/>
        <path id="element-157" class="st1" d="M287.7,284.5c0,0,2.5-4.5,4.2-4.7c1.7-0.2,6.5,1.2,9.1,0.7c2.7-0.5,3.5-1.7,3.5-4s2.2-5.8,5-6.3
				s5.2-0.3,5.2-3.3c0-3-5.5-9-4-17.5c1.5-8.5,3.3-15.6,3.3-15.6"/>
        <path id="element-158" class="st1" d="M307,267.9c0,0-3.7,0.3-5,1.7"/>
        <path id="element-159" class="st1" d="M294.8,243.4c0,0,7.8-0.7,13.3-2.3"/>
        <path id="element-160" class="st1" d="M301.5,242.9c0,0-1.5,5.5,0.3,5.7s2-6.5,2-6.5"/>
        <path id="element-161" class="st1" d="M248.3,318.1c0,0,1.2,4.8,7.5,6.7s15.1,5.5,21.9,27.8s20,36.2,20.8,50.2c0,0,2.2,0.7-9.5,2
				s-18.5,7-32.6,10.5s-22.6,3.7-30.8,2.3"/>
        <path id="element-162" class="st1" d="M241.5,280.8c0,0,1.2,7.8,6.5,11.3"/>
        <path id="element-163" class="st1" d="M208.7,420.7c0.5,0,40.1-10.1,40.1-10.1l-3.7-14L200.7,408l-10.6-39.7l-13.8,4l10.1,39.6l-40.6,10.6
				l3.7,14.5l9.1-1.8"/>
        <path id="element-164" class="st1" d="M175.6,414.7c0,0-4.5-0.8-14.5-3.3s-35.2-11-35.2-11"/>
        <path id="element-165" class="st1" d="M210.4,448.8l23.6,94.4c0,0-6.3,0.7-12.3,3.7l-22.3-85.1"/>
        <path id="element-166" class="st1" d="M295.5,404.2c0,0-0.7,18.3,2,23.1"/>
        <path id="element-167" class="st1" d="M227.8,511.8c0,0,6.7-1.8,10.1-2.3c3.5-0.5,5.2-4.7,9.5-6.5c4.3-1.8,10-3.8,13.3-14.3s7.3-28.1,8.3-38.1
				s4.8-31.9,8.3-38.6"/>
        <path id="element-168" class="st1" d="M269.1,452.6c0,0,7.5-12,12-34.3"/>
        <path id="element-169" class="st1" d="M223.8,503.1c0.5-0.5,4.5-16.1,4.3-19s-7-10.5-7-10.5"/>
        <path id="element-170" class="st1" d="M218.4,478.5c0,0,4-4.2,1.8-8.1s-2.8-5.3-2.8-5.8s2.3-7.6,1.8-12.5s-3-9-3-9"/>
        <path id="element-171" class="st1" d="M218.2,430.6c0,0,3.5-3.2,4.2-4.8c0.7-1.7,4.5-7.1,4.5-7.1"/>
        <path id="element-172" class="st1" d="M161.8,519.3c0,0,23.6-9.6,31.9-36.2"/>
        <path id="element-173" class="st1" d="M167.5,519.6c0,0,13.6,8.8,36.6-24.4"/>
        <path id="element-174" class="st1" d="M178.6,519.9c0,0,3,3.7,5.7,3.3c2.7-0.3,6.8-5.2,9.5-6.2s1,1,4.8,0.5c3.8-0.5,11.3-1.3,11.3-1.3"/>
        <path id="element-175" class="st1" d="M173,433.8c0,0,4-0.3,6.3-1c2.3-0.7,11.6-4.7,12.5-5c0.8-0.3,10.5,0.5,13.6,0c3.2-0.5,6-2,5.7-3.3
				c-0.3-1.3-4-1.7-6.2-1.3c-2.2,0.3-8.1,0-11.1-0.8s-5.7-0.2-8.8,0.5c-3.2,0.7-16.1,5.2-18.5,5.8c-2.3,0.7-12.1,11-12.1,11
				l-10.5,13.1c0,0-1.3,6.3-3.5,10.3c-2.2,4-1.7,9.6-2,13c-0.3,3.3,0,3.7,1.3,18.1c1.3,14.5,3.7,23.6,2.2,31.6
				c-1.5,8,3.8,14.5,3.2,18.8"/>
        <path id="element-176" class="st1" d="M168.3,435.3c0,0-3.3,1.2-4.2,2"/>
        <path id="element-177" class="st1" d="M179.3,432.8c0,0,8.1,0.5,12-0.7c3.8-1.2,8.3-0.7,13.1-0.3c4.8,0.3,9-0.5,10.6-0.2s3.8-0.3,3.5,2
				c-0.3,2.3-5.2,5-8.1,5.2c-3,0.2-10.3,1-13.5,1.3c-3.2,0.3-8.8,0.3-12,1.7c-3.2,1.3-8.5,3-8.5,3"/>
        <path id="element-178" class="st1" d="M174.8,446.9c0,0,9.1-1.7,13.1-2.8c4-1.2,8.8-0.8,15.5-1.2s8.5-0.7,9.8-0.7c1.3,0,4.5,1.5,0.8,4
				c-3.7,2.5-10,3.2-11.6,3.5c-1.7,0.3-8.3,1.3-9,1.5c-0.7,0.2-13.8,3-16,4s-5.5,2-5.5,2"/>
        <path id="element-179" class="st1" d="M176.3,456.4c0.7,0,4.8,0.2,9.1,0.3s8,0.2,11.6-0.7c3.7-0.8,7.1-1.7,7.5,0.5c0.3,2.2-4.8,4.5-8.8,5.3
				s-8.5,0.8-11.5,2c-3,1.2-7,0.3-10,1.7c-3,1.3-6.3,2.3-7.8,3.8c-1.5,1.5-5.8,4.5-11.5,5.8s-8.6,4.2-9.6,5S139,483,139,483"/>
        <path id="element-180" class="st1" d="M165,448.3c0,0,2.3-2,4-1.8"/>
        <path id="element-181" class="st1" d="M208.7,442.9c0,0-3,4.3,1,4.2"/>
        <path id="element-182" class="st1" d="M210.4,432.1c0,0-2.2,5.2,2.3,5"/>
        <path id="element-183" class="st1" d="M204.9,423.2c0,0-2.7,5,0.5,4.7"/>
        <path id="element-184" class="st1" d="M197.1,456.1c0,0-1.3,2.7,1.2,2.8"/>
        <path id="element-185" class="st1" d="M153.5,501.6c0,0,2-17.6,1.5-26.4"/>
        <path id="element-186" class="st1" d="M158.5,473.2c0,0,1.3,19.5,1.5,31.3s2,20.5,0.3,29.3c-1.7,8.8-0.2,7.6-6,14.1c-5.8,6.5-6.7,7.3-13.6,6.5
				c-7-0.8-12-0.5-20.1,0.2c-8.1,0.7-13.3-4.2-16.5-12.1"/>
        <path id="element-187" class="st1" d="M109.5,464.7c0,0,7.1-7.1,8-11.1c0.8-4,1.5-5.5,9-5.5c7.5,0,9.3,0,14.3-2c5-2,6.7-1.5,7.6,0"/>
        <path id="element-188" class="st1" d="M232.8,510.3c0,0,4.8,0.7,28.6,12.3c23.8,11.6,47.6,21,53.5,23.9s25.3,9.3,47.9,23.4s30.4,17.6,35.7,30.8
				s13.8,31.4,13.8,31.4"/>
        <path id="element-189" class="st1" d="M200.4,554c0,0,7,7.5,32.6,14.8s50.9,16.8,66.2,18.3c15.3,1.5,42.2,5.3,44.7,6.8"/>
        <path id="element-190" class="st1" d="M162.7,562.3c0,0,12.6,24.1,24.4,31.9"/>
        <path id="element-191" class="st1" d="M254.9,499.1c0,0.5,3.5,12.3,6.3,17s5.7,3.3,8.5,4"/>
        <path id="element-192" class="st1" d="M269.6,514.1c0.2,1,4.8,10.1,5.8,14"/>
        <path id="element-193" class="st1" d="M288.9,531.2c0,0-2.5-25.3,5-40.6"/>
        <path id="element-194" class="st1" d="M272.6,482.5c0,0-0.5-5.2,4.2-8.8s2.8-3.7,10.1-4.7c7.3-1,11.1-1.3,11.1-1.3"/>
        <path id="element-195" class="st1" d="M285.7,484.2c0,0-2.3,2.5-4.3,3.2c-2,0.7-2.5-2,2.8-5.3c5.3-3.3,7.6-4.8,7.6-4.8"/>
        <path id="element-196" class="st1" d="M279.4,499.8c0,0,9-17.6,22.3-19"/>
        <path id="element-197" class="st1" d="M306.3,481.4c0,0-11.8,40.1-0.7,59.9"/>
        <path id="element-198" class="st1" d="M321.1,548.2c0,0,10.6-9,12.3-28.3c1.7-19.3,3.5-17.5,2.7-29.4c-0.8-12-5.7-19-5.7-19"/>
        <path id="element-199" class="st1" d="M307.8,495.2c0,0,1.7,12.3,10.8,7"/>
        <path id="element-200" class="st1" d="M323.4,500.5c0,0,4.2-5.7,3.8-9.3"/>
        <path id="element-201" class="st1" d="M311.1,482.3c0,0,4,3.2,4.5,5.2s9.5-1.8,11-4.7c1.5-2.8,4.5-15.5,7.3-19.8c2.8-4.3,4.5-9.1,2-12.5
				c-2.5-3.3,0.7-11.1-5-13.3"/>
        <path id="element-202" class="st1" d="M330.3,434c0,0-1.5-5.3-7.6-3.2"/>
        <path id="element-203" class="st1" d="M324.6,429.6c0,0-0.3-4.2-4.7-4.2c-4.3,0-6.3-0.7-10.6-0.8s-5-0.5-8,1.5s-8.6,5.2-11.6,6.5
				c-3,1.3-8.3,3.8-7.8,5.3s4.8,1.7,8,1c3.2-0.7,12.1-5.3,12.6-5.5c0.5-0.2,13.8-0.3,13.8-0.3s-13,5.7-14.3,7.1
				c-1.3,1.5-2.2,6.2-3.2,9.1c-1,3-2.5,5.5-1,7.6"/>
        <path id="element-204" class="st1" d="M324.1,438.8c0,0-3.7,0-5,2.2c-1.3,2.2-12.1,5.8-12.8,6.7c-0.7,0.8-2.5,4.8-3.5,7.3s-4,6.5-2.8,7.8
				c1.2,1.3,7.3-2.7,9.1-5c1.8-2.3,4-4.3,4-4.3l10.3-4.8"/>
        <path id="element-205" class="st1" d="M311.1,458.7c0,0,0.8,3.5,0.7,5.8c-0.2,2.3-0.3,5.2,1.2,5.7s5.7-4.7,4-10"/>
        <path id="element-206" class="st1" d="M318.1,461.2c0,0,2.3-0.2,2.8-2.5c0,0,3.5,2.8,9.3-0.2"/>
        <path id="element-207" class="st1" d="M319,468.2c0,0-1.2,3.3,0,6.3"/>
        <path id="element-208" class="st1" d="M309.5,483.8c0,0-4.7-4.2-5-7c-0.3-2.8-4-7.1-4-7.1s-4.2-5-4.8-9.1s-0.3-9.8-0.7-12.1
				c-0.3-2.3-2.7-9.6-2.7-9.6"/>
        <path id="element-209" class="st1" d="M295.5,437.3c0,0,5.2,0,6.5,3"/>
        <path id="element-210" class="st1" d="M246.8,504.3c0,0,4,5.3,6.5,13.8"/>
        <path id="element-211" class="st1" d="M328.2,551.9c0,0,7.7-11.9,9.3-32c1.5-20.1,8.8-35.6-4.6-53.1"/>
        <path id="element-212" class="st1" d="M379.8,633.8c0,0,8.8-18,5.2-33"/>
        <path id="element-213" class="st1" d="M388,629.2c0,0,6.2-13.4,1.5-26.3"/>
        <path id="element-214" class="st1" d="M338.5,630.2c0,0,23.2-15.5,25.8-32"/>
        <path id="element-215" class="st1" d="M210.2,189.1c0,0-21,24.9-31.6,31.6c-10.6,6.7-55.5,59.1-64.7,72.5c-9.2,13.4-45.4,25.5-55.7,57.7
				S44.4,432.8,48,461.4c3.6,28.6,4.8,38.7,1.4,53.2c-3.4,14.6-2.5,35-2.5,35s4.8-9.2,13.2-7.3"/>
        <path id="element-216" class="st1" d="M54.7,445.7c0,0,10.4,80.9,3.9,106.2c0,0-2,15.4,23,10.6c0,0,4.5-35.9,0.3-66.4S87.5,442,97,431.4
				s41.5-40.9,54.1-61.6c12.6-20.7,23.5-31.4,39.8-38.1c16.2-6.7,48.5-50.1,63.3-66.4s57.1-65.5,57.1-65.5s5.6-5.6,5-7.6
				c-0.6-2-10.4-11.8-12.3-12.9s-31.4-18.5-40.3-20.4c-9-2-10.1,1.7-16.2,1.4c-6.2-0.3-21,0.3-28.6,3.6s-9,12.3-16.5,21.8
				s-16.8,26.9-20.2,31.1"/>
        <path id="element-217" class="st1" d="M107.9,551.3c0,0-17.9-6.2-25.2-33.3"/>
        <path id="element-218" class="st1" d="M117.4,453.6c0,0-0.8-4.8-10.3-4.3"/>
        <path id="element-219" class="st1" d="M68.2,562.2c0,0-12.3,33.1,13.7,58.8"/>
        <path id="element-220" class="st1" d="M109.1,338.7c0,0,13.4-15.1,36.7-20.2c23.2-5,57.7-37.8,77.3-58s44-38.1,44-38.1"/>
        <path id="element-221" class="st1" d="M304,179.3c0,0-27.7,26.6-79,43.7"/>
        <path id="element-222" class="st1" d="M113.8,322.7c0,0,7.3-10.9,28.6-14.8c21.3-3.9,38.4-24.6,38.4-24.6"/>
        <path id="element-223" class="st1" d="M175.2,300.3c0,0,32.5-37.5,58.3-57.7c25.8-20.2,49.3-37.8,50.1-38.9"/>
        <path id="element-224" class="st1" d="M474.9,166.7l-23.8-63.9l4.2-27.2l-30.5,48.2c0,0-8.1-1.7-13.7-12.9s-19-18.5-19-18.5l5.6-1.7"/>
        <path id="element-225" class="st1" d="M403.7,88.3c0,0,7.8,1.1,12-6.2"/>
        <path id="element-226" class="st1" d="M431.4,69.5c0,0,5,8.4,17.4,4.2"/>
        <path id="element-227" class="st1" d="M439,100.1l33.1-70.6c0,0,4.5-1.7,5-0.6c0.6,1.1-21.8,46.8-21.8,46.8"/>
        <path id="element-228" class="st1" d="M423,105.1l6.2-70l2-2c2.8-0.6,4.2,2.5,4.2,2.5l-10.6,88.2L416,26.7c0,0-3.9-0.3-4.5,0.6
				c-0.6,0.8,0.6,6.4,0.6,6.4l5.6,83.7"/>
        <path id="element-229" class="st1" d="M455.8,462.5c0,0-64.1,11.6-119-6.4"/>
        <path id="element-230" class="st1" d="M672.3,164.2c2.5,1.1,12,1.4,11.2,1.4s-3.4-1.7-2.5-2.2c0.8-0.6,8.7-2.5,8.7-2.5
				c-16.5-2-22.7-17.1-22.7-17.1c17.1-3.6,17.6-14.3,17.6-14.3c-14.8,11.2-16.5,2.2-16.5,2.2c5.6-3.6,6.4-7.3,6.4-7.3
				c-4.2,3.1-6.4,3.6-7.8-2.5c-1.4-6.2,1.1-30.2,1.1-30.2s-0.3,20.7-13.7,26.9c0,0,3.6,2,7.3,0.8c0,0,1.1,7.8-11.2,6.7
				c0,0,1.4,3.9,8.1,6.2c0,0-7.8,5.3-14.6,3.1c0,0,5.3,5.9,10.9,5.3c0,0-2.5,7.8-9.8,9"/>
        <path id="element-231" class="st1" d="M667,163.1c0,0,7.3,12,25.5,13.2c0,0-9.2,4.2-18.2,2.8c0,0,4.2,4.5,10.6,5c0,0-3.4,2.8-8.1,2
				s8.4,7.8,29.7,5.3c0,0-5,3.9-11.2,4.5c0,0-0.8,4.8,7.8,5.3c0,0-8.4,2.8-18.2,1.7c0,0,8.7,9.2,28.8,10.1c0,0-7.6,3.9-11.5,3.4"/>
        <path id="element-232" class="st1" d="M693.6,215.4c0,0,3.9,5.9,18.2,5c0,0-9,7-20.7,5.9c0,0,5.3,3.6,25.8,5.3c0,0-9.5,9.5-26.3,11.8
				c0,0,9.8,5,22.4,3.6c0,0-1.1,3.4-5.9,3.6c0,0,7,6.2,29.7,5c0,0-21.8,11.8-37.5,9.5c0,0,7.6,5.3,21.8,1.1c0,0-3.6,5-11.2,5.3
				c0,0,3.6,9.8,36.4,5.3c0,0-16.8,16.5-42.3,19.3c0,0,17.9,11.5,37.3,9.2c0,0-17.1,12.3-32.2,12c0,0,9.2,3.9,18.2,1.4
				c0,0-15.5,1.1-10.9,4.8c1.4,1.1,10.6,5.6,30.2,5c0,0-5.3,4.8-9.5,5.6c0,0,7,5,24.1,2c0,0-8.1,8.1-28.3,9.2
				c-20.2,1.1-33.6-3.1-33.6-3.1"/>
        <path id="element-233" class="st1" d="M504.1,140.9c0,0-3.5,0-8.2-3.9c0,0,22.7-0.5,30.5-7.6c0,0-9.9,3.9-17.6-1.5l4.6-1c0,0-5.2-1.2-7.8-4.4
				c0,0,10.7,0.9,13.9-2.8c0,0-5.7-0.4-8.9-4c0,0,13.4,1.1,19-10.7c0,0-5.4,0-8.5-6c0,0,9.9,2.7,11.5-2.7c1.6-5.4-2.1-20,2.4-29.5
				c0,0-1.5,17.9,2.3,20.4s9.1-1.8,9.1-1.8s-2.8,6.7-8.9,8.7c0,0,1.1,6.2,9.8,10c0,0-1.8,2.7-7.3,3.4l5.1,2.6l-4.5,2.9
				c0,0,9.8,6.6,23.9,4.4c0,0-3.7,2.8-8.7,2.8c0,0,0.4,2.8,3.9,2.9c0,0-9.1,2.7-16.3,0c0,0,5.7,10.4,25.5,9c0,0-5.2,6.1-11.9,5.9"/>
        <path id="element-234" class="st1" d="M562.3,139.3c0,0-5.2,1.5-9.9-0.5c0,0,4.6,8.2,18.9,9.1c0,0-4.3,5.4-10.2,4.6c0,0,1.8,2.2,4.1,2.3"/>
        <path id="element-235" class="st1" d="M205.2,179.5c0,0-9.5,2.3-16.6,0c0,0,6.3-2,8-4.3l-3.6-2.1c0,0,13.8-3.8,20-19.3c0,0-17.5,15.7-38.3,9.8
				c0,0,8.8-1.1,12.5-3.6l-5.9-2.7c0,0,15.2,0.2,23.8-9.8l-7.2-0.5c0,0,10.7-4.6,15.4-18.1c0,0-13.6,15-25.8,14.7
				c-12.2-0.4-15.4-1.8-15.4-1.8s18.6-2.5,23.8-9.8l-6.4,0.2c0,0,5.2-3.4,6.4-5.4c0,0-6.6,4.5-16.8,2.1"/>
        <path id="element-236" class="st1" d="M174.1,126.7c0,0,10.9-1.1,16.1-10l-9.3-1.3"/>
        <path id="element-237" class="st1" d="M177.9,116.5c0,0,14.8-6.3,18.8-16.1c0,0-14.7,8.8-20.4,6.8c-5.7-2,3.6-6.1,3.6-6.1s-5.2-0.2-6.3-1.4
				c-1.1-1.3,10.4-6.3,10.4-6.3s-14.8,4.8-15,2.1c-0.2-2.7,2-7.9,0.4-11.1s-2.7-3,2.9-6.3c5.5-3.2,5.4-5.7,7.3-10.6
				c0,0-5,8.2-11.1,5.9l-0.7-33.3"/>
        <path id="element-238" class="st1" d="M166.8,52.7c0,0-2.1,21.1-2.1,22.5c0,1.4-1.6,22.2-4.1,23.1c-2.5,0.9-5-0.7-7.5-3.6
				c-2.5-2.9,2.9,7.3,6.4,9.8c0,0-6.8,3.4-13.8,0.2c0,0,2.9,5,6.3,6.3c0,0-13.6,5.7-26.5,1.8c0,0,5.4,7.5,13.8,8.9"/>
        <path id="element-239" class="st1" d="M143.9,122.2c0,0,8.6,1.8,15.6-2c0,0-10.4,17.2-46.3,23.2c0,0,11.8,5.4,20.9,4.3l-8.4,4.8
				c0,0,8.6,2,22.7-3.4c0,0-4.1,7.7-21.3,8.4l4.1,1.6c0,0-8.9,5.2-23.6,3.9c0,0,2.9,2.9,5.4,2.9c0,0-4.1,4.8-10.6,5.2
				c0,0,14.3,7.5,30.8-0.2c0,0-9.3,9.1-17.7,9.3l4.1,1.3c0,0-8.2,11.1-25.2,9.1c0,0,7.3,4.8,11.3,4.8c0,0-13.2,8.2-21.3,5
				c0,0,14.1,11.3,35,7.2c0,0-3.4,4.8-8.4,4.8s5.7,2.5,12,0c0,0-15.2,10.4-26.3,11.1c0,0,8.2,3.9,17,2c0,0-14.5,9.8-25.6,9.1
				c0,0,2.9,2.1,5.9,2.3c0,0-10.6,6.1-21.6,3.2c0,0,9.3,12.5,34.2,8.9c0,0-3.8,3-9.1,3.6c0,0,3.8,4.5,15.9,1.6c0,0-8.4,14.3-30,14.7
				c0,0,8.6,0.7,5.7,2.1c-1.1,0.5-4.3,3.6-11.8,3.2c0,0,2.7,2.5,6.4,2.1c0,0-11.4,7.2-28.1,3.6c0,0,9.7,10.4,24.5,8.9
				c0,0-3.2,4.6-5.9,4.6c0,0,4.1,3.6,14.7,3c0,0-5,4.3-8.6,4.3c0,0,4.3,5,21.3,2.1"/>
        <path id="element-240" class="st1" d="M145.3,187.5c0,0-4.1,6.8-11.3,7.5c0,0,4.3,3,11.1,1.1"/>
        <path id="element-241" class="st1" d="M174.8,188.8c0,0,5.7,5.9,13.2,4.8c0,0-4.8,5-13.1,3.4"/>
        <path id="element-242" class="st1" d="M114.6,270.7c0,0-7.2,11.1-20.4,11.1c0,0,2,2.3,8,2c0,0-2.3,2.9-5.4,2.9c0,0,2.7,3.4,8.6,2.5"/>
        <path id="element-243" class="st1" d="M694.7,286.8c0,0,8.8,5,21.6,1.1c0,0-19.1-2.7-30.2-17.7"/>
        <path id="element-244" class="st1" d="M667.3,211.3c0,0,3.4,5.2,8.2,5.7c0,0-1.8,3-5.2,2.5"/>
        <path id="element-245" class="st1" d="M705.1,328.4c0,0,3.4,5.9,11.6,7.7c0,0-6.3,2.3-13.4-0.2"/>
        <path id="element-246" class="st1" d="M656.6,149.4c0,0-1.8,4.1-4.3,4.3c-2.5,0.2,1.8,2.1,3.9,2.3"/>
        <path id="element-247" class="st1" d="M532.1,114.9c0,0-3.9,5.2-7.3,5.7c0,0,3,1.8,7,1.4"/>
        <path id="element-248" class="st1" d="M381.3,160.6c0,0,44.8,13.4,90.2,0"/>
        <path id="element-249" class="st1" d="M357.1,220.6c0,0,72.2,18.9,124.8,2.5"/>
        <path id="element-250" class="st1" d="M-20.9,335l88.2-1.1c-26,29.1-29.7,84.9-28,103.6c1.7,18.8-6.4,83.7-6.4,83.7c7.6-5.3,13.4,4.2,13.4,4.2"/>
        <line id="element-251" class="st1" x1="490.7" y1="253.1" x2="489.9" y2="264.7"/>
        <line id="element-252" class="st1" x1="485.1" y1="247.7" x2="492.2" y2="247.2"/>
        <line id="element-253" class="st1" x1="485.9" y1="244.2" x2="490.5" y2="243.4"/>
        <line id="element-254" class="st1" x1="484.2" y1="237.1" x2="489.9" y2="237.6"/>
        <line id="element-255" class="st1" x1="551.9" y1="233.4" x2="556.6" y2="233.1"/>
        <line id="element-256" class="st1" x1="551.1" y1="227.1" x2="557.2" y2="226.8"/>
        <line id="element-257" class="st1" x1="550.4" y1="220.8" x2="556.9" y2="220.8"/>
        <line id="element-258" class="st1" x1="493.9" y1="231.6" x2="495.2" y2="226.6"/>
        <line id="element-259" class="st1" x1="510.8" y1="243.1" x2="497.7" y2="249.2"/>
        <line id="element-260" class="st1" x1="521.5" y1="271.2" x2="528.1" y2="263.7"/>
        <line id="element-261" class="st1" x1="522.3" y1="265.2" x2="526.8" y2="271.4"/>
        <line id="element-262" class="st1" x1="521" y1="279" x2="526.3" y2="286.1"/>
        <line id="element-263" class="st1" x1="520.6" y1="285.2" x2="525.8" y2="278.7"/>
        <line id="element-264" class="st1" x1="520.1" y1="299.9" x2="526.1" y2="293.3"/>
        <line id="element-265" class="st1" x1="521.1" y1="293.5" x2="526" y2="300.6"/>
        <line id="element-266" class="st1" x1="520.5" y1="305.8" x2="525.3" y2="312.6"/>
        <line id="element-267" class="st1" x1="520.3" y1="312.1" x2="525.5" y2="306.9"/>
        <line id="element-268" class="st1" x1="520.3" y1="319.6" x2="526.3" y2="326.6"/>
        <line id="element-269" class="st1" x1="526.1" y1="332.2" x2="520" y2="340"/>
        <line id="element-270" class="st1" x1="519" y1="333" x2="525.3" y2="340.7"/>
        <line id="element-271" class="st1" x1="456" y1="357.5" x2="454.3" y2="340.7"/>
        <line id="element-272" class="st1" x1="478.1" y1="423.8" x2="504.7" y2="416.8"/>
        <line id="element-273" class="st1" x1="573.2" y1="388.7" x2="561.7" y2="392.2"/>
        <line id="element-274" class="st1" x1="574.5" y1="413.5" x2="581.8" y2="406"/>
        <line id="element-275" class="st1" x1="601.9" y1="116.4" x2="598.8" y2="115.6"/>
        <line id="element-276" class="st1" x1="593.3" y1="114.2" x2="591.3" y2="113.6"/>
        <line id="element-277" class="st1" x1="559.4" y1="175.6" x2="586.8" y2="116.9"/>
        <line id="element-278" class="st1" x1="292.2" y1="242.4" x2="296.2" y2="246.1"/>
        <line id="element-279" class="st1" x1="212.2" y1="430.8" x2="222.5" y2="417.7"/>
        <line id="element-280" class="st1" x1="327.3" y1="463.1" x2="326.1" y2="460.1"/>
        <line id="element-281" class="st1" x1="847" y1="333" x2="737" y2="333"/>
        <line id="element-282" class="st1" x1="307.3" y1="333" x2="273.2" y2="333"/>
        <polyline id="element-283" class="st1" points="405.4,101.7 395,49.1 390.6,50.5 399.8,98.1 			"/>
        <polyline id="element-284" class="st1" points="392,92.5 399,123.3 289.4,378.5 			"/>
      </g>
    </g>
</svg>
