<?xml version="1.0" encoding="UTF-8" standalone="yes"?>
<svg version="1.1" xmlns:x="special-ns_extend;" xmlns:i="special-ns_ai;" xmlns:graph="special-ns_graphs;" xmlns="http://www.w3.org/2000/svg" xmlns:xlink="http://www.w3.org/1999/xlink" x="0px" y="0px" viewBox="0 0 792 612" style="enable-background:new 0 0 792 612;" xml:space="preserve">
  <style type="text/css">
	.st0{fill:#FFFFFF;}
	.st1{fill:none;stroke:#231F20;stroke-width:2.5;stroke-linecap:round;stroke-linejoin:round;stroke-miterlimit:10;}
</style>
  <g i:extraneous="self">
    <g id="coloringShapes">
      <rect x="-2.9" y="-7.8" class="st0 file-3-element-1" width="804.7" height="626.5"/>
      <path class="st0 file-3-element-2" d="M632.5,108.4c0,0,8.8-21.7,28.2-25.4c19.4-3.7,32.2,3.3,40.2,10.3c0,0,38.3-9,60.7,2.9
				c22.5,11.9,34.8,29.1,34.8,29.1l0.8,427.4c0,0-31.9,12.7-58.6,1.1c-26.7-11.6-32.2-15.6-32.2-15.6s-13.5,4.7-25.6,1.6
				c0,0-11.7,15.3-35.3,16.4c-6.5,0.3-3.7,0.5-6.5,0.6c-7.4,0.3-4.4,0.2-4.4,0.2s-18.9,37.1-52.9,47.2c-34,10.1-60.2-12.9-60.2-12.9
				s-34.7,4.2-56.3-11.9c0,0-26.9,31.3-81.4,18.7l-17.7-4.9c0,0-48.7,10.6-61.4-21.8c0,0-15.8-65.5-23.6-91.7
				c-7.8-26.2-23.9-50-23.9-50l3.5-2.4l-6.3-8.5c0,0,12.5-19.1,37.9-11.7c0,0,4.2-18.6,23.1-28.7s31.2-4.4,43.1,6.3
				c0,0,8.2-16.5,23.7-18.8c0,0-6.4-39.1,37.9-64c0,0,28-18.5,64.5-5.7l81.9-10.1l62.9-99.8L632.5,108.4z"/>
      <path class="st0 file-3-element-3" d="M621.7,108.7c0,0,16-18.6,4.7-56.3c-11.2-37.8-47.9-42-76.7-32.4s-44.3,27.8-38.6,59.3s16.3,42.8,19.9,44.6
				C534.6,125.6,621.7,108.7,621.7,108.7z"/>
      <path class="st0 file-3-element-4" d="M544.6,126.6c0,0-20.2-2.9-34.2,4.9s-34.8,26.9-26.7,56c8.1,29.1,15.6,35.8,25.2,37.9s23.4,4.2,23.4,4.2
				s13.7-24.4,13-46.6S544.6,126.6,544.6,126.6z"/>
      <path class="st0 file-3-element-5" d="M545.5,90.1c0,0,12.2-8.3,25-1.5c12.8,6.8,22.3,14.6,33.7,22.3c11.3,7.8,19.2,12.3,28.7,13.3
				c9.5,1,15.6,0.1,21.1,5.9c5.4,5.8,7.8,7.9,10.4,21.4s4.1,17.4,6.7,35.6s3.9,35.3,3.9,35.3s-2.2,13.1-4.6,21.9
				c-2.4,8.8-2.2,16.9-3.6,22.9c-1.4,6-1.5,6.9-3.8,14.2s-3,9.4-6.2,12.5s-1.5,4.2-6.1,5.2c-4.6,1-8.9,2.3-8.9,2.3s3.2,1.3,4.5,6.7
				c1.3,5.4,2.1,11.7,1.6,23.3c0,0,3.2,3,9.6,2.2c6.4-0.8,4.6,5.2,13.3,5.8c8.7,0.6,14-3.9,14-3.9s3.8,9.8,12,8.8s8-0.7,12-3.7
				c4.1-3,5.1-3.4,8.9-2.5c3.8,0.8,3.7-4.3,1.5-10.2s-14.9-25.2-19.6-35.8c-4.6-10.5-8.7-24.3-13.1-54.3s-4.4-44.7-6.8-55
				c-2.4-10.3-9.6-32.3-16-45.3c-6.4-13-13.4-18.9-27.1-27c-13.7-8.1-22.1-14.6-22.1-14.6s-9.6-4.2-14.1-12s-8.3-19.6-25.5-19.8
				C557.9,64,548,78.9,545.5,90.1z"/>
      <path class="st0 file-3-element-6" d="M555,196.5c0,0,3.6-8.1,4.6-17.2c1-9.1,4.3-23.5,8-30.4c3.7-6.9,8-13.3,8-13.3s55.8,65.2,67.5,85.6
				s17.1,43.3,17.4,51.5c0.2,8.2,0.2,12.6,0.2,12.6l-0.8,4.5c0,0-2.1,7.8-6.5,8.7c-4.4,0.9-11.7,3-11.7,3s5.4,5.1,5.8,13.5
				c0.3,8.4-0.1,17.9-0.1,17.9s3.4,2.2,7.5,0.9c4.2-1.3,7.9,2.8,13.2,5s8.1,2.7,12.4,0s4.3-3.4,4.3-3.4s-6.5-26.7-6.7-27.9
				c-0.2-1.2-4.7-15.3-3.9-22.5c0.8-7.2,3.2-40.4,3.2-40.4s-1.2-13.7-2.7-18.6c-1.5-5-0.5,1.7-3,13s-3.8,23.1-4.1,26.7
				c-0.2,3.6-5,18.1-5,18.1s0.1-10.5-2.5-22.8c-2.7-12.3-10.8-33.7-19.1-47.3s-27-33.1-32.8-41.7s-31.8-38.3-31.8-38.3
				s5.3-4.4,10.3-4.5s7.9-1.5,7.9-1.5l-9.6-8c0,0-1.5,3.8-3.2,3.4c-1.7-0.5-3.5-3.4-5-2.9c-1.5,0.5-3.6,1-5-1s-1.9-4.1-3.6-2.5
				c-1.7,1.5-3.5,4.1-4.7-0.3c-1.3-4.4-2.1-7.1-7.6-8.1c-5.6-1-7.3-6-7.3-6s-3.2,0.5-5-2.7c0,0-1.3,2.1-2,8
				c-0.7,5.9-3.8,37.4-0.6,51.3c0,0,3.4,0.7,4.3,5.9s0.8,4.9,3.2,6.7c2.4,1.9,4.9,4.6,4.3,9s0.2,7.5-1.5,8.7
				c-1.7,1.2-4.6,1.6-5.8,3.7c-1.2,2.1-2.1,4.2-2.1,4.2l6.6-0.9C550.1,196.1,550.5,194.3,555,196.5z"/>
      <path class="st0 file-3-element-7" d="M545.5,90.1c0,0-2.7,10.9-0.1,11.6c2.5,0.7,4.7-0.1,6.2-2.5c1.5-2.4,1.4-3.2,4.3-3.9c2.9-0.7,3.6-3.5,5.8-2
				c2.2,1.5,2.1,3.3,4.3,3c2.2-0.3,1.7-3.1,5.2-0.6s5,4.3,6.9,4.1c2-0.2,2.2,28.7,2.2,28.7s1,7.9,0.1,9c-0.9,1.2-1.8,5.7-2.4,9.7
				s-1.2,5.4-2.1,9.1c-0.9,3.7-1.9,4.3-1.5,9.4c0.3,5.1,0.7,10.1,0.8,12.3s1,3.8,1.3,4.9c0.2,1-1.3,5.8-2.4,5.8
				c-1.2,0,2.3,2.1,2.9-1.6s-0.2,5.8,1.9,3.4c2.1-2.4,1.9-7.6,0.5-12.2s-1.2-11.9,0.5-15.2c1.6-3.2,2.9-5.6,3.5-10.8
				c0.6-5.2,1.3-9.7,1.9-13.3c0.6-3.6,1.4-9,1-13.1c-0.3-4.1-2.5-10.5-2.7-13.7c-0.1-3.1-3.4-12.7-3.4-12.7s3.6,4.7,5.6,5.7
				c2,0.9,5.1,0.1,6.1,1.6c1,1.5,3.4,7.3,3.8,8s2.8,1.2,4.6,2.2c1.9,1,4.9,4.6,5.2,8.9c0.3,4.3,1,11.5,1.5,14.2s-0.5,9.1,0.3,11.3
				s1.5,6-1.2,9.8c-2.7,3.8-0.7,9.1-0.3,11.5c0.3,2.3,1,3-0.1,5.2s-0.7,4.9-0.8,10c-0.1,5.1,0.5,8.3,1.5,5.8c1-2.5,1.2-8.6,1.4-5.2
				c0.2,3.4,1.5,5.8,2,2.1c0.5-3.7,1.4,0.3,2.3,1.5c0.9,1.2,0.8-4.7-0.2-7.4s-3.4-4.6-2.1-7.4c1.3-2.8-0.1-4.6-0.7-7.3
				c-0.6-2.7,2.2-5.1,2.8-8.4c0.6-3.4,1.9-6,1.9-9.1c0-3.1,0.1-6.9,0.3-11c0.3-4.1,1.5-7.1,0.9-10.5c-0.6-3.5-3.5-10.9-4.1-13
				s-1.4-3.8-3-4.6c-1.7-0.9-25.3-18.4-25.3-18.4S562,80.1,545.5,90.1z"/>
      <path class="st0 file-3-element-8" d="M456.7,210.1l-0.2-15.9c0,0,12.2-9,22.4-0.5c0,0,5.6,17.4,11.8,27l-0.7,67.2l-5.6,8.6c0,0-0.9-1.8-11.1-3.4
				c-10.2-1.6-16.5-1.3-16.5-1.3l0.5-15.9l18.3-31.3l0.2-33.9c0,0-1.8-7.7-8.1-8.2C461.5,201.9,456.7,210.1,456.7,210.1z"/>
      <path class="st0 file-3-element-9" d="M87.3,610c0,0,5.4-56.9,28-105.5s51.9-108.8,45.6-174.6s-11.7-112.2,10.9-138.2l28.5,99.6l-1.7,20.9
				c0,0,24.3,19.3,44.8,49c0,0-0.9-28.5-30.1-74.5L176,195.5c0,0,0.8-5-16.3-5.9c-17.2-0.8-34.7,6.7-48.6,22.2s-17.6,30.6-19.3,42.3
				c-1.7,11.7-2.9,15.5-2.1,24.7s3.3,31-1.7,63.2c-5,32.2-20.1,79.5-20.1,79.5l-36.4,91.3c0,0-28,82.9-28.9,99.2l84.1,3.3L87.3,610z
				"/>
      <path class="st0 file-3-element-10" d="M193.6,213.1c0,0-19.7,4.2-38.5,28v13.4l23.4,23.9l36.8,144.8c0,0-11.7,11.7-18.8,36
				c-7.1,24.3-10,38.5-10,38.5s6.7,17.2,8.8,32.2c0,0,6.7-2.5,11.3-18c4.6-15.5,5.9-24.3,5.9-24.3s4.2,12.1,9.2,16.3
				c5,4.2,3.3,12.1,6.7,14.2c3.3,2.1,14.7,6.7,14.7,6.7l8.8,10c0,0,0-21.8-2.5-33.5s-5.9-11.3-5.9-11.3s-6.3-2.1-5.9-9.6
				c0.4-7.5-3.8-12.1-5.4-17.6c-1.7-5.4-2.5-13.4-5.4-23.9s-3.8-14.2-6.3-12.6s-36.8-144-36.8-144s9.6,10,20.1,7.5
				c10.5-2.5,13.4-5,16.3-13.8c0,0,0.8-2.6-0.8-8c-1.6-5.4-1.6-5.4-1.6-5.4l-5.9-1.3l5.9-5.4l-6.7-6.7c0,0,5.9-3.3,4.2-8.4
				c0,0-13.4-6.7-15.1-11.3S193.6,213.1,193.6,213.1z"/>
      <path class="st0 file-3-element-11" d="M262.7,386.9c0,0-20.1,16.3-42.7,24.3c-22.6,8-38.5,10.9-69.9,9.6c0,0,8.4-27.6,10-40.6s2.1-48.1-2.1-77
				c-4.2-28.9-3.8-73.3,0.4-85.4c4.2-12.1,13.4-26,13.4-26s22.6,5.4,21.8,21.4c0,0-22.2,6.3-34.7,23c0,0-8.8,13.4,0.4,22.2
				l24.3,24.3c0,0,10.9,5.9,16.7,8.8l-1.7,20.9C198.6,312.3,231.7,340.8,262.7,386.9z"/>
      <path class="st0 file-3-element-12" d="M86.9,615.4c0,0,1.3-26.4,15.5-74.1s41-92.1,47.7-120.6c0,0,22.7,2.3,50.3-3.4c20.5-4.3,43.7-13,62.3-30.5
				c0,0-5,1.7-2.1,6.3c2.9,4.6,24.7,41.9,41.4,110.5s23.9,117.2,25.1,131.5c1.3,14.2-32.7-3.3-32.7-3.3s-1.7-71.2-19.7-136.5
				s-42.6-87.8-42.6-87.8l-8.5,2.2c0,0-21.8,5.2-23,11.1c-1.3,5.9-8,28-16.3,47.3c-8.4,19.3-29.3,73.7-45.2,97.1
				c-15.9,23.4-30.6,53.6-30.6,53.6L86.9,615.4z"/>
      <path class="st0 file-3-element-13" d="M112.4,607.5c0,0,32.7-49.8,56.9-102.1s31-88,31-88l31.9-9.9c0,0,25,30,36.7,71.5
				c11.7,41.4,22.2,85.8,26,135.2l-187.1,1.7L112.4,607.5z M212.4,487.8l5,10.5l5.9,8l0.4,38.5c0,0,0,35.6,3.8,43.1
				c3.8,7.5,8.4,9.2,8.4,9.2s6.7-2.1,11.7-18c5-15.9,5.9-36.8,5.4-55.3s-9.6-33.5-9.6-33.5s-4.2,0-4.6-6.7c-0.4-6.7-5.9-18-6.7-20.5
				c-0.8-2.5-2.1-13.8-5.4-23.9c-3.3-10-0.4-13.4-6.3-12.6c0,0-5.9-4.6-10,0.8l-9.6,18l-4.2,13.8l-5.4,18.8l-4.6,19.7l8.8,32.2
				c0,0,8-3.8,11.3-18C209.9,497.8,212.4,487.8,212.4,487.8z"/>
      <path class="st0 file-3-element-14" d="M251.8,535.1c0,0,5.4,23.4-4.2,44c-9.6,20.5-16.3,27.6-21.8-0.8c-5.4-28.5-1.7-69.9-1.7-69.9
				s1.3,11.7,12.1,15.1S251.8,535.1,251.8,535.1z"/>
      <path class="st0 file-3-element-15" d="M301.6,389.9l34-92.2l-0.7-12.2l4.8,1.3l0.2,11.8l21.9,80.4l-3.4,5.9l-3.4-3.6l-5.4-23.8l-12.7-47.8
				l-25.4,72.5C311.4,382.2,304.8,384.2,301.6,389.9z"/>
      <path class="st0 file-3-element-16" d="M356.7,288.6l-17-1.8l0.2,11.8l21.1,81.9c0,0,7.3-10,13.1-11.5l-17-69.9L356.7,288.6z"/>
      <path class="st0 file-3-element-17" d="M312.7,380.5c0,0,7.5-7.7,22-6.8c14.5,0.9,20.2,7.7,20.2,7.7l-6.1-26.5l-12-45.1L312.7,380.5z"/>
      <path class="st0 file-3-element-18" d="M337.6,353c0,0,3.8-3.8,3-11.1c-0.7-7.3-6.3-7.5-6.3-7.5s-3.9,0.5-3.6,10.2
				C331.1,354.3,332.6,355.4,337.6,353z"/>
      <path class="st0 file-3-element-19" d="M357.6,302l47.1-0.7l7.3,4.7c0,0-15.9,11.3-21.3,24c-5.4,12.7-9.7,24.9-9.1,35.1l-7.5,3.9L357.6,302z"/>
      <path class="st0 file-3-element-20" d="M413.9,305l0.4-53.9l-7.3-9.3l6.6-7.7l0.2-19.7l-9,4.1V235l-5.2,7.7l5.9,8.2l-0.7,50.3
				C404.7,301.3,412.1,308.1,413.9,305z"/>
      <path class="st0 file-3-element-21" d="M438.4,294.7l-0.7-80.4l-24,0.2l-0.2,19.7l-6.6,7.7l7.3,9.3l-0.4,53.9C413.9,305,426.8,297.2,438.4,294.7z"/>
      <path class="st0 file-3-element-22" d="M410.5,206.7c0,0-1.4-46,0.5-52.5s9.9-14.1,9.9-14.1s11.8,6.4,11.5,18.6c-0.4,12.2,0.4,48.2,0.4,48.2
				L410.5,206.7z"/>
      <path class="st0 file-3-element-23" d="M410.3,172.9c0,0,7.7-5.9,21.3,0l0.4-8.6c0,0-7.9-5.6-21.1,0L410.3,172.9z"/>
      <path class="st0 file-3-element-24" d="M419.8,194.4l5-0.2l-0.4-10.7c0,0-0.4-1.4-2.5-1.4s-2.3,1.4-2.3,1.4L419.8,194.4z"/>
      <path class="st0 file-3-element-25" d="M456.5,279.4c0,0,12.9-22.6,32.1-26.7c0,0-9.5-2.7-14.5-12c-5-9.3-12.5-15-16.8-15.4L456.5,279.4z"/>
      <path class="st0 file-3-element-26" d="M457.2,288c0,0,13.4,0.5,25.1-10.7s9.9-19.3,8.6-22.2c-1.3-2.9-1.8-2.9-5.2-1.3c-3.4,1.6-21.3,7.9-29.2,25.6
				L457.2,288z"/>
      <path class="st0 file-3-element-27" d="M472.4,269.8c0,0-4.3,3.9-2.7,7.2c1.6,3.2,5,2.5,7.3-1.1C479.4,272.3,476.9,268.5,472.4,269.8z"/>
      <path class="st0 file-3-element-28" d="M438.4,294.7c0,0,12.7-3.9,18.4-2.9l0.2-117.7c0,0,1.4-14.7,5.4-19.9s24.4-27.8,24.4-27.8l1.6,0.2l8.1,7.3
				c0,0,12.5-10.7,24.9-12.2c0,0-15.6-18.6-15.2-46.6l-6.6-6.6c0,0,7.5-12.5-6.6-14.1c-14.1-1.6-10.4,10-5.4,16.5l-5.4,8.6
				c0,0-7.5-4.1-12,2.1c-4.5,6.3,0.7,14.3,0.7,14.3l-8.4,10.7c0,0-4.8-4.8-11.5,2c-6.6,6.8,0.7,13.6,0.7,13.6l-5.2,7.2l-2.1,0.7
				c0,0-5.7-2.7-8.8,1.6c-3,4.3-0.4,11.5-0.4,11.5l-4.5,6.4c0,0,1.6,5.2,1.4,11.6s0.5,45.5,0.5,45.5l8.6,0.5l0.4,1.8l-3.9,5
				L438.4,294.7z"/>
      <path class="st0 file-3-element-29" d="M539.6,121.6c0,0-14.3-2.1-25.4,2.7c-11.1,4.8-24.5,10.6-33.9,38.5c-9.3,27.9,5.9,50.7,12.5,58.7
				c6.6,8.1,26.2,16.5,41.2,13.8l-4.1-8.4c0,0-24.2,2-36.5-18.8s-6.6-45.1,0-54.3c6.6-9.1,10.9-26.7,45.7-22.6L539.6,121.6z"/>
      <path class="st0 file-3-element-30" d="M486.8,126.5c0,0-21.1,21.3-24.5,28.8c0,0,14.1-4.7,21.1-0.4c0,0,7-16.8,13.1-21L486.8,126.5z"/>
      <path class="st0 file-3-element-31" d="M457,176.1c0,0,9.9-8.2,21.1-1.8c0,0,1.8-14.5,5.2-19.3c0,0-12.5-6.3-22.2,1.6
				C461.2,156.6,457.8,162.8,457,176.1z"/>
      <path class="st0 file-3-element-32" d="M456.1,196c0,0,9.9-9.9,22.7-2.3c0,0-1.8-10.2-0.7-19.3c0,0-10.6-7.3-21.1,1.8L456.1,196z"/>
      <path class="st0 file-3-element-33" d="M509.7,272.8v-40.1c0,0-14.1-5.9-19-12l0.5,67C491.3,287.7,497.7,278.7,509.7,272.8z"/>
      <path class="st0 file-3-element-34" d="M475.7,242.5l0.2-31.9c0,0-0.4-7.5-8.1-8.2c-7.7-0.7-11.1,7.7-11.1,7.7l0.5,15.2c0,0,6.8,0.7,10.4,7.2
				S475.7,242.5,475.7,242.5z"/>
      <path class="st0 file-3-element-35" d="M509.7,272.8v-40.1c0,0,15.4,4.7,24.4,2.7c0,0,6.1,8.8,6.6,8.8c0.5,0,3.9,5,4.3,7.7c0.4,2.7-2.2,4-3.4,4.8
				C540.4,257.6,509.7,272.8,509.7,272.8z"/>
      <path class="st0 file-3-element-36" d="M531.6,120.7c0,0-16.3-14.7-16.8-40.7s12.7-51.2,38.9-58.7s47.8,0.4,59.6,14.3s20.4,45,7.7,64.7l7.2,6.8
				c0,0,11.3-12.9,5.7-43.5C628.3,33,607,14.5,584.8,12.2c-22.2-2.3-59.1,1.6-72.4,36.7c-13.3,35.1-2,57,9,72.9L531.6,120.7z"/>
      <path class="st0 file-3-element-37" d="M529.8,198c0,0-5.6-3.4-9.6-6.5c-4.1-3.1-11.9-9.4-9.4-21.3c2.5-11.9,17-14.6,22.1-13.8
				c5.1,0.8,11.5,3.2,12.6,9.1c1.2,5.9,5.2,6,6.2,9.8c1,3.8,1.9,12-1.4,14.7c-3.2,2.7-6.6,3.1-6.9,5.4c-0.3,2.3,9.4,7.6,13,8.4
				c3.6,0.8,10.6-0.8,9.7-3.2s-0.5-6.8,2-8c2.4-1.2,9.8,3.2,9.8,3.2s-0.1,6.7-3.1,8c-3,1.3-8.9,1-10.4,0.9c-1.5-0.1-9,3.9-15.5-2.8
				s-8.7-6.1-8.7-6.1L529.8,198z"/>
      <path class="st0 file-3-element-38" d="M549,101c0,0,4.1-4.6,4.5-4.9c0.5-0.2,4.2-1.2,5.3-1.7c1.2-0.6,3-3,5-0.2c2,2.8,4.1,2.8,5.7,2.2
				c1.6-0.6,1.9-0.3,5.2,1.7c3.4,2.1,3.1,0.2,5.4,1.3s1.3,2.5,4.9,5s5,2.4,6.8,2.3c1.9-0.1,2.5,5.7,3.9,7.1c1.4,1.4,4.9,2.5,6.4,4.2
				c1.5,1.6,3.2,2.7,0.2,5c-3,2.3-4.9,4.4-4.9,4.4l3.5,94.3l8.6,4.3c0,0-3.1-3.5-0.8-3.6s11,3.7,18.7,2l7.2,14.1
				c0,0-13.3,7.9-22.7,10.2c-9.4,2.3-10.3,4.5-11.2,2c-0.9-2.5,6.6-4.1,8.2-5.6c1.6-1.5,3.9-2.5-3.6-1.9s-10.6,1-11.3-1
				c-0.7-2.1-2.9-3.5,3.9-3.6c6.8-0.1,12-1.7,12-1.7l-16.8-5c0,0-1-3,5-2.2s12.4,2.2,12.4,2.2s1.5-1.6-1.3-3
				c-2.8-1.4-9.8-4.6-9.8-4.6l-68.1-5.7l-6,0.9l-2.9-5.7l-1-5.1l2.2-3.8l0.7-3l11.3,1.9c0,0-0.9,2.1-1,2.4c-0.1,0.3-0.2,3.4-0.2,3.4
				l-1.5,3l0.9,1.7l-1.7,2.3l65.7,5.6l-2.1-94.3c0,0-0.3,0.9-2.9-1.7c-2.5-2.7-7.9-5.4-7.9-5.4s-2.1,4.9-4.1,3.5
				c-2-1.4-4.5-4.2-5.2-3.9s-3,1-3.9-0.9s-2.7-3.4-3.6-2.5s-2.9,5.1-3.8,2.2c-0.9-2.9-0.7-6.9-3.6-8.3c-2.9-1.4-7.2-1.6-9.4-4.3
				C549.2,103.6,549,101,549,101z"/>
      <path class="st0 file-3-element-39" d="M528.3,197.3l-1.2,3.6l7.6,1.9c0,0,0.6,1.6-0.1,3.4c-0.7,1.7,0.6,1.2-0.2,3.4s0.3,1.9-0.3,3.9
				c-0.7,2.1-1.3,0-2,3.1c-0.7,3.1-3.8,1.7-3.8,1.7s2.9,10.5,5,14.7c2.1,4.2,7.3,10.2,9.3,13.9c2,3.7,3.6,9.3,5.3,11.6
				c1.7,2.3,9.4,5.7,12.7,6.6c3.4,0.9,6.6,1,10.5,5s6.5,6.5,11,6.7c4.5,0.2,10-0.6,12.5,1.4s1.9,0.7,5.6,6.8
				c3.7,6.1,7.2,11.6,10.1,9c2.9-2.5,2.4-11.9,4.6-13.2s4.4-2.7,5.3-6.1s2.2-9.3,6.4-12.4c0,0,1.7-0.8,1.7-8.2s-1.7-10.2-1.7-10.2
				l-20.1,6.2c0,0-4.7,2.1-5.7,0.5c-0.9-1.6,2.4-2.8,6-4.6c3.6-1.9,3.9-3.5,1.3-3.1s-14.1,0.2-14.9-1.9c-0.8-2.1,1.6-2.8,5.7-2.9
				s9.3,0.3,10-0.8c0.7-1.2-11.3-3.6-11.3-3.6s-4.7-1.2-4.7-3c0-1.9,5.7-1.2,9.3-0.3c3.6,0.8,8.1,2.4,9,0.7s-6.1-4.1-6.1-4.1
				s-5-0.3-5.3-2.8s2.3-2.4-1.2-4.4s-14.2-3.5-17.1-3.4c-2.9,0.1-7.9-3.9-7.9-3.9s2.7-8.2-1.2-10.4c-3.8-2.2-7.3-0.9-7.3-0.9
				s-1.3-3.7-5.4-3.6c-4.2,0.1-5.3-0.9-7.4-1.9c-2.1-0.9-5.4,1.2-5.4,1.2s-0.3-1.2-7.8-0.8S528.3,197.3,528.3,197.3z"/>
      <path class="st0 file-3-element-40" d="M655.2,296.8c-4.3,6.2-15.6,3.8-15.6,3.8c5.4-9.8,4.9-28.6,2.5-41.2c-2.3-12.6-14.5-36-14.5-36l-12.7-22.8
				c0,0-4.9,1.4-11.3,1.7c-6.5,0.3-6.5-4.1-6.5-4.1l-0.7-66.1c-2.5,0.6-5.7,1-9.7,1.1l0.1-3.9c0,0,14.9,0.3,16.5-8.7
				c0,0,2,1.4,2.2,5.2c0,0-0.5,3.6-7.1,5.8c0.4,10.2,1.6,47.1,0.8,60.2c-0.9,15.3,9.5,7.8,14.4,6.5c4.9-1.3,16.4,24.5,16.4,24.5
				s7.5,6,13.9,14.2c6.4,8.2,10.8,30.3,10.8,30.3S659.4,290.5,655.2,296.8z"/>
      <path class="st0 file-3-element-41" d="M579.8,132c0,0-0.6-0.8-5.3,5.2c-4.7,6-8.8,17.8-11.1,23.5c-2.3,5.7-4.2,23.8-4.9,26.9c-0.7,3-3.5,9-3.5,9
				s2,0.5,4.4,1c2.4,0.6,5.1,4.6,5.4,5s1.3-1.7,1.3-1.7s-2.2-5-0.1-6.5c2.1-1.5,2.7-1.7,4.1-1.6c1.4,0.1,4.7,1.2,4.7,1.2l3.1,2.2
				c0,0-0.5,4.7-1,5.7c-0.6,0.9-3.4,3.5-3.4,3.5l-0.2,7.3l4.1,3.9l4.6,0.1c0,0,10.9-0.1,16.3,3.2c5.4,3.4,9.5,5,9.5,5
				s-1.6-2.3,0.9-2.4s10.4,3.5,15.9,2.1c5.4-1.4,2.9-0.1,2.9-0.1s0.2-3.6,4.4,0.1c4.2,3.7,18.4,16.9,21.8,38.4
				c3.4,21.5,1.6,33,0.9,34.7s-15,3-15,3s-5.7-2.2-8.6-12.7c-2.9-10.5-2.3-27.4-2.3-27.4s-5.8,4.7-6.9,7.4c-1.2,2.7-1.9,8.1-3,9.6
				c-1.2,1.5-2.3-0.3-3.8,3.4c-1.5,3.7-2.9,12.4-4.6,13.2s-5.8,0.1-7.8-5.3c-2-5.4-4.6-10.5-8.1-11.6s-10.5,2-16.4-2.2
				s-7.8-7.8-12.3-8.9c-4.5-1.2-9.1-0.3-14.2-5.4c-5.1-5.1-5.6-7.5-5.6-7.5l-14.2,8.4l-32.1,17c0,0-10.6,8.6-16.8,20.1
				c-6.1,11.6-16.4,35.5-21.9,54.3s-13,50-11.8,60.6c1.2,10.6,1.3,8.7,16.1,18.2l2.3,2.2c0,0,11.8,16.9,32.3,17.4s27.5,0.8,33.6,2.8
				c6,2,11.7,2.3,19.4,0.8c7.8-1.5,14-0.5,21.2,3.2s17,7.1,30.2,1.9l1.2-0.5c0,0,14.4,3.8,23-10.4l3.4,2.9c0,0,19.9,0.6,24.4-33.9
				c0,0,5.6,5.1,13.8-5.2s3-16.9,1.5-21.8c-1.5-4.9-8.3-21.4-15.5-33.3s-8.4-18.7-7.6-27.3s-1-23.7-4.1-26.5
				c-3.1-2.8-2.8-2.5-0.3-2.9c2.4-0.3,11.3-0.8,12.4-9l1,0.8c0,0,6.8-11.5,8.6-18.6s2.9-23.6,4.6-30.7c1.7-7.1,3.8-22,3.8-22
				l-3.4-32.2c0,0-3-28.4-6.6-37.8c-3.6-9.5-3.1-16-12.3-23.1c0,0-3.5-2.4-12.7-3.1c-9.3-0.7-16.7-1.9-25.9-8.1l-2.8-0.7
				c0,0,1.3,4.1,1.4,4.4c0.1,0.3,2.9,10,2.9,10s-0.7,4.2-0.6,7.6c0.1,3.5-0.1,2.3-0.1,6s0.2,5.6-0.6,7.9c-0.8,2.3-1.7,6.7-2.1,7.8
				c-0.3,1,0.6,3.5-0.8,5.7c-1.4,2.2-2.1,3.1-1.5,5c0.6,1.9,1.5,2.9,0.7,5.6s1.2,6.2,1.9,8.3s1.3,7.4,1.3,7.4s-2.7-5-3.7-5.7
				c-1-0.7-1.9,7.8-1.9,7.8s-3-5.3-2.7-6.2c0.3-0.9-1.2-5.4,0.2-8.9c1.4-3.5,1-6.6,0.1-9.4s-0.2-6,0.9-8.3s2.1-3.7,1.4-7.2
				c-0.7-3.5,0.1-7.3,0.1-9.8s-2.3-13.9-2.3-17c0,0-0.8-0.1-2,1.4c-1.2,1.5-7.6,5.1-16.8,4.6l-2.1,9.3c0,0-1.6,10.3-1.7,10.6
				s-2.7,8.4-2.7,8.4l-1.4,7.4c0,0,0.6,6.7,0.8,7.5s1.2,8.3,1.2,8.3l-0.2,5.4l-2.8-7.9c0,0-1.2,6.7-1.3,6.2c-0.1-0.5-0.2-9-0.2-9
				l-1.9-8.1l0.5-9.3c0,0,0.2-2.8,2-9s1.9-14,1.9-14s1.3,0.2,1.9-1.9C581.1,135.3,579.8,132,579.8,132z"/>
      <path class="st0 file-3-element-42" d="M627.7,257.3c0,0,0.9,9.3,0.6,12.7c-0.3,3.5,0.5,15.5,2.4,21.2c2,5.7,7.6,11.8,9.7,7.9s4.6-24.7,1.6-38
				c-3-13.3-7.4-22.7-7.4-22.7l-8.1,5.4C626.6,243.9,628.9,248.6,627.7,257.3z"/>
      <polygon class="st0 file-3-element-43" points="205.3,519.6 201.1,528.4 223.7,528.4 224.2,518.7 			"/>
      <polygon class="st0 file-3-element-44" points="437.7,214.2 443.6,207.2 412.8,206.9 413.7,214.4 			"/>
      <polygon class="st0 file-3-element-45" points="399.7,213.2 404.7,218.5 413.7,214.4 412.8,206.9 			"/>
    </g>
    <g id="outline">
      <path class="st1 file-3-element-46" d="M259.5,391.3c15.8,23.9,27.6,55.9,43,114.7c15.4,58.8,21,100,21,100v12.9"/>
      <path class="st1 file-3-element-47" d="M294.8,615.9c0,0-1.8-50.4-19.9-117.6c-18-67.3-42.6-90.8-42.6-90.8"/>
      <path class="st1 file-3-element-48" d="M113.1,607.8c0,0,54-76.8,89.3-191.9"/>
      <path class="st1 file-3-element-49" d="M214.1,287.6c0,0,21.8,35.6,29.9,72"/>
      <path class="st1 file-3-element-50" d="M150.3,420.3c0,0,57,9.6,112.5-33.5c0,0-32.4-46.7-61.8-73.5"/>
      <path class="st1 file-3-element-51" d="M195.5,325.5c0,0,4.4-19.1,5.1-34.9"/>
      <path class="st1 file-3-element-52" d="M156.9,255.6c0,0,13.2,16.5,24.6,25s14.3,11,24.6,9.6c10.3-1.5,14.3-12.1,14.3-16.9s-4.4-5.9-2.9-10.3
				l-6.6-0.7c0,0,7.8-4.4,5.4-6.9c-1.9-2-4-5.3-4-5.3"/>
      <path class="st1 file-3-element-53" d="M209.1,251.6c0,0,6.3-4,6.3-8.1s-2.9-2.9-8.8-7.7c-5.9-4.8-11.8-14-11.8-21.3c0,0-4.7-19.6-22.7-22.2"/>
      <path class="st1 file-3-element-54" d="M156.2,239.9c0,0,14.5-21.5,38.4-27"/>
      <path class="st1 file-3-element-55" d="M177.8,233.7c0,0,2.4-5.4,8.5-6.5"/>
      <path class="st1 file-3-element-56" d="M189.4,230.8c0,0-4.3,4.5-5.4,10"/>
      <path class="st1 file-3-element-57" d="M86.7,610.1c0,0,8.1-52.2,27.6-101.1s52.6-109.2,47.1-173.5s-13.6-121.7,11.8-144.1c0,0-25.6-4-43.5,5.6
				c-17.9,9.6-33.8,28.7-27.9,64.1c6,35.4,27.1,74.5,6,125S24.1,546.9,11.3,611"/>
      <path class="st1 file-3-element-58" d="M2.2,615c0,0,13.5-70.5,42.6-136.2s51-140.2,45.8-196.7c-5.2-56.5,29.5-80,39-85.2"/>
      <path class="st1 file-3-element-59" d="M132,580.7c0,0,47.8,12.7,52.2,13.1c4.4,0.4,7.2-3.2,7.2-3.2c12.7-45.8-2.4-91.6-4.8-92
				c-2.4-0.4-14.7,1.2-14.7,1.2s6,21.1-1.6,37"/>
      <path class="st1 file-3-element-60" d="M223.9,508.2c0,0-2,62.9,5.2,82c7.2,19.1,20.7-7.2,22.3-33c1.6-25.9,0-61.7-9.6-70.5c0,0,13.1-1.6,16.3-0.4
				c3.2,1.2,8,23.9,6,34.2"/>
      <path class="st1 file-3-element-61" d="M270.9,516.6c0,0-0.4-29.1-9.6-29.5"/>
      <path class="st1 file-3-element-62" d="M175.4,499.9c0,0,3.6,7.2,2.4,18.7"/>
      <path class="st1 file-3-element-63" d="M231.5,579.1c0,0,2,20.3,8.8,6c4.7-10,6.4-21.9,6-33.4"/>
      <path class="st1 file-3-element-64" d="M249.8,532.5c0,0-4-7.6-11.1-8.8s-12.3-4.8-16.3-23.9c-4-19.1,1.2-28.7-1.2-42.6
				c-2.4-13.9,0.4-15.9-3.6-22.3s0.4-8.4,3.2-8.8c2.8-0.4,6,10.8,8.4,18.3c2.4,7.6,2,16.3,3.6,20.3s6,10.4,6,21.1c0,0,2,5.6,4.8,6.4
				"/>
      <path class="st1 file-3-element-65" d="M195.3,530.9c0,0,7.6-4.8,9.2-11.1s8.4-22.3,6.8-36.6s5.2-23.5,7.2-34.6"/>
      <path class="st1 file-3-element-66" d="M186.5,498.7c0,0,2.8-19.9,6.4-26.7c0,0,0.8-8,4-12.3c0,0,4-13.1,6-17.5c2-4.4,8.8-15.9,11.1-17.1
				c2.4-1.2,3.6,1.6,3.6,1.6"/>
      <path class="st1 file-3-element-67" d="M201.2,461.7c0,0,5.6-22.7,13.9-30.7"/>
      <path class="st1 file-3-element-68" d="M207.6,461.7c0,0,3.2-19.1,10-26.7"/>
      <path class="st1 file-3-element-69" d="M252.6,410.7c0,0,11.9,15.9,26.3,56.5"/>
      <path class="st1 file-3-element-70" d="M135.9,495.9c0,0,19.9-30.3,29.9-66.9"/>
      <path class="st1 file-3-element-71" d="M134,518.2c0,0,23.1-31.9,40.2-77.2"/>
      <path class="st1 file-3-element-72" d="M206.4,539.3c0,0,1.2,26.7-2.8,50.6"/>
      <path class="st1 file-3-element-73" d="M212.4,569.6c0,0,0.4,14.7-0.4,22.7"/>
      <path class="st1 file-3-element-74" d="M354.2,381.3c0,0-18-15.6-38.2-3s-24.9,27.6-24.6,38.6"/>
      <path class="st1 file-3-element-75" d="M291.4,406.9c0,0-10.2-3.9-22.2,1"/>
      <path class="st1 file-3-element-76" d="M367.8,466.1c0,0-33.9-37.2-10-80.1s74.8-6,74.8-6"/>
      <path class="st1 file-3-element-77" d="M381.5,366.3c0,0-3-39.9,34.9-62.2c37.9-22.3,64.8-8,64.8-8"/>
      <path class="st1 file-3-element-78" d="M398.4,442.8c0,0-16,35.9,21.9,61.2"/>
      <path class="st1 file-3-element-79" d="M499.5,562.2c0,0,18,39.9,59.5,43.9c30.2,2.9,49.5-13,64.2-33.6"/>
      <path class="st1 file-3-element-80" d="M485.6,447.1c0,0-59.5,5.7-59.9,59.5c-0.3,53.9,47.6,76.8,47.6,76.8s11.7,7.6,38,8.6"/>
      <path class="st1 file-3-element-81" d="M539.1,470c0,0-2.7,50.2,33.6,72.2c36.2,21.9,82.5,12.6,82.5,12.6"/>
      <path class="st1 file-3-element-82" d="M643.2,511.3c0,0,15,32.9,53.9,28.3"/>
      <path class="st1 file-3-element-83" d="M577,290.8c0,0-34.3,15-43.9,46.2c-9.6,31.3-11,49.5-11,49.5"/>
      <path class="st1 file-3-element-84" d="M517.5,290.8c0,0,17.6,31.6,11.6,58.9"/>
      <path class="st1 file-3-element-85" d="M497.5,304.1c0,0,1.7,5.7-4.3,13.3c-6,7.6-7.6,20.3-7.3,35.2c0.3,15-13.3,25.9-15.6,46.6s-6.3,27.6-3.3,33.6
				c3,6,18.6,19.3,35.9,19c17.3-0.3,25.6,1.3,36.2,3.7s21.9-4.7,33.9,2.3s27.3,5.3,30.9,2s2.3-37.2,5-51.9s10.6-20.3,9.3-43.6
				c-1.3-23.3-4.3-33.6-2-42.2"/>
      <path class="st1 file-3-element-86" d="M592,439.1c0,0,4-32.6,9.3-44.2c5.3-11.6,6-36.2,6-36.2"/>
      <path class="st1 file-3-element-87" d="M569,448.1c0,0-3.7-10-0.3-14.6"/>
      <path class="st1 file-3-element-88" d="M466.9,432.8c0,0-8.3-3.3-15.3-9.6c-7-6.3,1-36.6,5.7-56.2c4.7-19.6,19-60.9,31.9-77.8
				c13-17,48.6-26.6,55.5-35.9"/>
      <path class="st1 file-3-element-89" d="M540.4,257.6c0,0,1.7,22.6,26.9,23.3"/>
      <path class="st1 file-3-element-90" d="M603.9,459.7c1.7-1.7,12,5,24.6-10.3"/>
      <path class="st1 file-3-element-91" d="M621.6,305.8c0,0,13.6,18.3,7.6,57.2c-6,38.9-7.6,80.8,2.3,89.1c0,0,21.3-1,24.9-33.9"/>
      <path class="st1 file-3-element-92" d="M622.9,271.8c0,0,11.6,25.3,13,67.5c1.3,42.2,8.6,65.5,14.6,72.2s9,11.3,17,3.7c8-7.6,9.3-11.3,0.7-33.9
				c-8.6-22.6-21.3-32.6-20.3-48.6s0.7-26.3-6.7-31.6c0,0,11.6-0.8,13.4-4.3c1.8-3.5,5.1-16-3.8-43.5c-8.9-27.5-27.7-34.4-27.7-34.4
				"/>
      <path class="st1 file-3-element-93" d="M333.1,353.4c1.1,0.7,2.5,0.7,3.6,0.1c1.7-0.8,3.9-3.2,3.9-9.9c0-3.4-0.5-5.7-1.3-7.2
				c-1.4-2.8-5.5-2.9-7.1-0.2c-0.9,1.4-1.6,3.5-1.6,6.5C330.6,348.8,331,352.2,333.1,353.4z"/>
      <path class="st1 file-3-element-94" d="M432,207v-49.5c0,0,1.3-7.6-11-17.3c0,0-9,5.3-10.3,17.3v46.9"/>
      <path class="st1 file-3-element-95" d="M410.1,164.4c0,0,11.3-5.3,21.3,0"/>
      <path class="st1 file-3-element-96" d="M410.1,172.4c0,0,11.3-5.3,21.3,0"/>
      <path class="st1 file-3-element-97" d="M419.7,183.9V194h4.7v-10.1c0-1.4-1.1-2.4-2.5-2.3l0,0C420.7,181.7,419.7,182.7,419.7,183.9z"/>
      <path class="st1 file-3-element-98" d="M430,149.5l6-6.7c0,0-4-6.7-0.3-11.3c3.7-4.7,10.3-1,10.3-1l6.3-8c0,0-7-5.7-2-13.3c5-7.6,11.6-2,11.6-2
				l9.3-11.6c0,0-6.3-6-2-13c4.3-7,12.6-3.3,12.6-3.3l6.3-8c0,0-5-4.3-5-10s5.7-8,11-7c5.3,1,10.3,6.3,5.3,14.6l6,6"/>
      <path class="st1 file-3-element-99" d="M457,290.5V185.1c0,0-0.7-24.3,7.6-33.6c13.6-15.3,22.9-25.6,22.9-25.6l9.3,8"/>
      <path class="st1 file-3-element-100" d="M457.6,287.1c0,0,14,0.7,26.3-12c12.3-12.6,7-23.3,5-22.9c-2,0.3-22.5,8.2-31.4,25.5"/>
      <path class="st1 file-3-element-101" d="M457,225.3c5.3-0.7,16,12.6,19.3,18.6c3.3,6,12.6,8.3,12.6,8.3"/>
      <path class="st1 file-3-element-102" d="M468.3,264.5l4,5.3c0,0-4.7,4.3-1.7,7.3c3,3,6,0.7,7.3-2.7s-0.3-5.3-3-5"/>
      <path class="st1 file-3-element-103" d="M476.2,243.9v-21.6c0,0,2-20-9-20.3c0,0-8-0.7-10,8.3"/>
      <path class="st1 file-3-element-104" d="M457,195c0,0,11.3-9.6,22.3-1"/>
      <path class="st1 file-3-element-105" d="M457.3,176.4c0,0,8-9,21.3-1.7"/>
      <path class="st1 file-3-element-106" d="M460.6,156.8c0,0,11.3-7.6,21.9-2"/>
      <path class="st1 file-3-element-107" d="M534.4,235.3c0,0-36.6,5-50.5-26.9c-14-31.9-0.4-57.4,7.6-67.8c9-11.6,23.9-21.3,47.9-19"/>
      <path class="st1 file-3-element-108" d="M530.1,227c0,0-26.9,0.7-37.6-20.6c-10.6-21.3-5-44.9,3-56.5c8-11.6,18.3-21,41.6-19"/>
      <path class="st1 file-3-element-109" d="M522.1,122.2c0,0-23.3-24.6-13.3-63.8c10-39.2,48.6-49.2,69.5-46.9c21,2.3,41.2,11.3,51.2,37.9
				c8.9,23.8,6,44.2-0.7,56.5"/>
      <path class="st1 file-3-element-110" d="M531.1,120.2c0,0-17-13.6-16.6-45.2s23.9-54.2,53.5-56.5c29.6-2.3,50.5,17.3,55.9,38.6
				c5.3,21.3,4,30.3-2.3,43.2"/>
      <path class="st1 file-3-element-111" d="M540.8,275.2c0,0-0.3,4,12,6.3"/>
      <path class="st1 file-3-element-112" d="M543.1,195.7c0,0,3.3-4.2,5.1-4.4c1.8-0.2,5.3-6.7,4.7-11.3c-0.7-4.7-3.5-8-5.5-9.1c-2-1.1-1.3-5.5-2.9-8.4
				c-1.6-2.9-8.6-8.6-20-5.3s-17.7,14.4-12.4,25.7c5.3,11.3,15.7,10.9,16.8,14.9c0,0,13.7-2.4,17.7-0.9"/>
      <path class="st1 file-3-element-113" d="M542.9,186.8c0,0-10.6-3.1-5.3-7.5"/>
      <path class="st1 file-3-element-114" d="M525.6,201.9c0,0,7.8-0.2,10,2.2c2.2,2.4-1.3,2.9-6.4,2.4c0,0,6,0.2,6,2.7s-8.2,1.1-10,1.1"/>
      <path class="st1 file-3-element-115" d="M532,211.4c0,0,2.7,0.4,2,2.4c-0.7,2-7.5,0.4-7.5,0.4"/>
      <path class="st1 file-3-element-116" d="M524,201.7c0,0-1.6,2-0.7,3.3c0.9,1.3-2.9,2.2-1.6,4.4c1.3,2.2-0.2,3.3,0.9,4.7c1.1,1.3,1.6,4.7,2.9,5.1
				c1.3,0.4,4-0.9,4-0.9c4.7,0.9,2-3.5,2-3.5"/>
      <path class="st1 file-3-element-117" d="M528.5,219.9c0,0,2.9,14.4,11.3,23.1s3.3,13.1,12.6,18.8c9.3,5.8,13.7,2.9,18.2,8c4.4,5.1,9.8,8,15.5,7.3
				c5.8-0.7,10-1.8,14.9,9.1c4.9,10.9,10.2,10,11.1,4.2c0.9-5.8,2.7-11.3,5.8-12c3.1-0.7,2-9.5,6.7-13.5c4.7-4,4.4-13.3,2.7-19.7"/>
      <path class="st1 file-3-element-118" d="M597.6,270.2c0,0,3.3,2.2,5.8,8.2s3.1,8,4.9,3.3"/>
      <path class="st1 file-3-element-119" d="M566.1,203.7c0,0-3.1-6.7-7.3-6c-4.2,0.7-6.4,1.1-6.4,1.1"/>
      <path class="st1 file-3-element-120" d="M555.3,197.7c0,0-3.1-2.4-6-1.8s-10.6,5.5-14.4,6.2"/>
      <path class="st1 file-3-element-121" d="M573.9,212.8c0,0,9.5,6.2,2.2,14.4"/>
      <path class="st1 file-3-element-122" d="M583.7,230.5c2.7-10.6-6.4-14.2-6.4-14.2s17.7,0.2,23.5,4.9s10.9,3.8,10.9,3.8"/>
      <path class="st1 file-3-element-123" d="M633.5,239.2c0,0-4.2,4-13.3,6.7s-17.7,6.2-20,4.7c-2.2-1.6,5.5-3.3,7.5-4.4s2.7-1.8,2.2-2.9
				c-0.4-1.1-10.6,0.4-14.6-0.7c-4-1.1-3.3-4,2.9-4c6.2,0,11.5,0,12-1.1c0.4-1.1-13.1-3.5-16.4-5.1c-3.3-1.6,1.3-3.5,6.9-2
				c5.5,1.6,9.8,2,11.1,1.6s-3.3-3.5-9.1-5.5c-5.8-2-2-5.1-2-5.1s12,6,15.1,6.7s7.5,0.4,7.5,0.4"/>
      <path class="st1 file-3-element-124" d="M626.4,224.5c0,0-4,0.7-8.6,0s-8.6-2.7-10-2.4"/>
      <path class="st1 file-3-element-125" d="M573.7,204.8c0,0,3.3-0.7,3.5-3.8c0.2-3.1,1.8-6-0.4-5.5s-1.6-2.4-3.5-2c-2,0.4-2.7-1.8-3.5-1.3
				s0.9,0.4-0.9,0.4c-1.8,0-3.8,2.4-3.1,4.4c0.7,2,0.7,4,0.7,4c4.2-0.2,6.9-0.9,7.5,6s-2,9.8-3.3,10.4c-1.3,0.7,0.7,4.9-2.7,8.9
				c-3.3,4-12.9,6.2-19.7,1.8c-6.9-4.4-9.8-10.6-9.8-10.6"/>
      <path class="st1 file-3-element-126" d="M628.4,259.3c0,0-2,23.5,4,33.9c6,10.4,9.8,12.9,10.9-11.1c1.1-23.9-6.2-40.8-10.9-50.1
				c-4.7-9.3-6.9-10.4-6.9-10.4"/>
      <path class="st1 file-3-element-127" d="M623.6,223c0,0,0.7-18.4,8.2-33.7c0,0-10-10.9-9.5-40.3"/>
      <path class="st1 file-3-element-128" d="M580,131.8c0,0-3.9,1.1-9.4,11.3s-9.1,25.1-10,30.6c-0.9,5.5-2.9,18.2-4.9,20.4"/>
      <path class="st1 file-3-element-129" d="M541.4,159.1c0,0-4.1-18.1-1-44.1c3.1-25.9,8.9-40.8,23.1-47.9s28.4,0,32.8,10.2c4.4,10.2,13.3,16.2,16,17.7
				"/>
      <path class="st1 file-3-element-130" d="M586.8,81.5c0,0,25.1,10.9,35.2,20.2s26.8,12.9,36.1,26.6s21.1,47.2,22.8,60.1c1.8,12.9,6.4,82,18.2,103.3
				c11.7,21.3,21.9,35.5,21.3,43s-3.3-0.4-9.5,4.7c-6.2,5.1-10,5.8-18.4,4.4c-8.4-1.3-10.2-25.5-15.7-40.8
				c-5.5-15.3,2.4-51.2-0.4-70.1s-6.4-65-11.3-80.3c-4.9-15.3-4.9-18-13.5-24.4s-20,2.7-45.2-16s-41.7-33-60.7-22.2"/>
      <path class="st1 file-3-element-131" d="M685.2,334.5c0,0-2.9,7.1-12.4,5.5c-9.5-1.6-10.9-8-16.6-6.7c-5.8,1.3-8.3-0.7-8.3-0.7"/>
      <path class="st1 file-3-element-132" d="M654.4,298.1c0,0,12.2-17.7,13.1-33.3s7.5-34.6,6.7-42.8"/>
      <path class="st1 file-3-element-133" d="M582.7,185c0,0,0.3,9.6,8.9,18.5c8.6,8.9,17.1,3.5,24.8,2"/>
      <path class="st1 file-3-element-134" d="M604.7,211.9c0,0,15.7-1.8,20.2-5.5"/>
      <path class="st1 file-3-element-135" d="M582.1,215.9c0,0,9.8-9.5,9.5-12.4"/>
      <path class="st1 file-3-element-136" d="M586.8,129.6c0,0,12.4,0.9,16.6-8"/>
      <path class="st1 file-3-element-137" d="M587,133.2c0,0,14,1.3,18-6.9"/>
      <path class="st1 file-3-element-138" d="M593.6,127.4c0,0-4.2-5.5-8-6.4"/>
      <path class="st1 file-3-element-139" d="M589.2,114.1c0,0-4.7,7.1-6.7,8.9s-3.3,0-4.9-2c-1.6-2-1.8,0.2-3.1-0.7c-1.3-0.9-2.4,0.2-2.9-1.6
				c-0.4-1.8-2-3.1-3.1-2.4s-3.1,4.4-4.7,1.6c-1.6-2.9-1.3-7.5-5.1-8.6c-3.8-1.1-8.1-1.6-10.1-7.6"/>
      <path class="st1 file-3-element-140" d="M563.7,107.2c0,0,3.7-3.3,5.7-3.5"/>
      <path class="st1 file-3-element-141" d="M561.9,104.4c0,0,1.8-3.3,5.5-4.2"/>
      <path class="st1 file-3-element-142" d="M573.8,120.1c0,0,0.7-1.1,1.2-1.7"/>
      <path class="st1 file-3-element-143" d="M546.5,116.4c0,0-0.5,26.9,5.2,40.4"/>
      <path class="st1 file-3-element-144" d="M556.9,121.5c0,0-2.1,9.3,2.6,20.7"/>
      <path class="st1 file-3-element-145" d="M653.8,448.5c0,0,15.5,28.5,58.5,16.6c0,0,70.5,23.3,72.5-63.7"/>
      <path class="st1 file-3-element-146" d="M635.1,103.9c0,0,20.7-36.8,58-16.6"/>
      <path class="st1 file-3-element-147" d="M676.1,103.9c0,0,71-40.4,115,16.1"/>
      <path class="st1 file-3-element-148" d="M705.1,200.8c0,0,31.6,4.1,19.7,41.5"/>
      <path class="st1 file-3-element-149" d="M710.2,384.2c0,0,40.4-11.4,34.7-65.8"/>
      <path class="st1 file-3-element-150" d="M689.5,519.5c0,0,44,65.8,126.4,25.4"/>
      <path class="st1 file-3-element-151" d="M343.4,505.5c0,0-32.6,80.3,47.2,95.3c0,0,26.8,6.7,57.2-9.3"/>
      <path class="st1 file-3-element-152" d="M307.1,457.3c0,0,5.7,45.6,76.2,53.9"/>
      <path class="st1 file-3-element-153" d="M703.5,137.6c0,0,51.8,21.2,22.8,79.8"/>
      <path class="st1 file-3-element-154" d="M544.8,92.6c0,0-0.4,8.3,0.4,8.9c0.7,0.5,4.3,2,6.9-3.1c2.5-5.1,3.1-2,6.1-3.6c3.1-1.6,4.3-3.1,5.8-0.7
				c1.4,2.3,1.3,2.9,4.3,1.8c3.1-1.1,3.3-1.4,5.4,0.9c2.2,2.3,2,3.3,5.1,2.5c3.1-0.7,2.7-0.2,5.2,3.4c2.5,3.6,2.9,3.8,6.1,3.3
				c3.3-0.5,2.2,2.3,5.2,6.9c3.1,4.5,2.5,3.6,4.9,3.6c2.3,0,6,7.9,5.8,11c-0.2,3.1-0.7,1.1,0.4,9c1.1,7.9,2.2,6.3,1.3,9.2
				c-0.9,2.9-0.4,7.2,0.2,8.9s0.7,2.7-1.8,6.3c-2.5,3.6-1.6,6.9-0.5,9.9c1.1,3.1,1.8,3.6,0.4,6.1s-0.7,3.1-0.5,6.9
				s-0.4,9.9-0.9,10.7"/>
      <path class="st1 file-3-element-155" d="M608,194c0,0,0.5-2.5-0.2-9.2"/>
      <path class="st1 file-3-element-156" d="M613.2,191.6c0,0-1.1-7.4-3.3-10.7c-2.2-3.3,0.9-3.6,0.5-7c-0.4-3.4-2.7-2.7-1.1-6.5c1.6-3.8,2-0.7,2-5.6
				s1.6-3.4,1.4-7.2s2.2-5.4,1.3-9.8c-0.9-4.3,0.7-2.3,0.2-7.6s1.8-4,0.2-8.1c-1.6-4.2-1.6-6.9-2.9-9c-1.3-2.2-1.1-4.9-1.1-4.9"/>
      <path class="st1 file-3-element-157" d="M580.5,124.6c0,0-1.4,9,0.2,11.4s-1.6,0.7-2,4.3c-0.4,3.6-0.9,7-1.3,10.8s-2.2,3.3-2,7.2s-1.2,4.1-0.9,7
				c0.4,2.9-0.4,4.2,0.3,7.5c0.7,3.3,1.8,7,1,7.8c-1.8,1.8-2.6,6.5-2.8,7"/>
      <path class="st1 file-3-element-158" d="M576.8,189.3c0,0,1-4.7,0.8-7.8"/>
      <path class="st1 file-3-element-159" d="M580.7,190.9c0,0,0.2-10.5-0.9-13.5c-1.1-3.1-1.4-9-0.5-11.7c0.9-2.7,1.1-2.7,2.2-6.9
				c1.1-4.2,1.6-1.4,1.8-6.3s1.1-4,0.9-7c-0.2-3.1,1.8-6.1,1.8-8.7c0-2.5,1.6-6.9,0.9-9.8c-0.7-2.9-0.5-4.3-0.5-4.3"/>
      <path class="st1 file-3-element-160" d="M235.1,596.9c0,0,29.6,0,54.9-21.6"/>
      <path class="st1 file-3-element-161" d="M127.7,433.3c0,0,30.9-54.9,20.4-107.4"/>
      <path class="st1 file-3-element-162" d="M479.8,433.3c0,0,3.1,12.9,20.1,11.9c17-1,20.1,0.5,28.4,2.6c8.2,2.1,23.7,3.6,27.8-3.6"/>
      <path class="st1 file-3-element-163" d="M707.1,328.2c0,0-19.6-29.4-22.7-59.3"/>
      <path class="st1 file-3-element-164" d="M631.8,189.3c0,0,3.7,5.4,10.4-0.3"/>
      <path class="st1 file-3-element-165" d="M221.7,504.1c0,0-8-9.6-7.5-20.5s2.5-22.6,2.1-26.4"/>
      <path class="st1 file-3-element-166" d="M366.9,592.1c-21.2,4.9-36,1.7-45.8-3"/>
      <line class="st1 file-3-element-167" x1="188.8" y1="237.3" x2="186.8" y2="236"/>
      <line class="st1 file-3-element-168" x1="204.4" y1="519.8" x2="222.7" y2="519"/>
      <line class="st1 file-3-element-169" x1="199.6" y1="528.2" x2="221.9" y2="527.4"/>
      <line class="st1 file-3-element-170" x1="312" y1="379.6" x2="336.6" y2="309.8"/>
      <line class="st1 file-3-element-171" x1="341.9" y1="328.4" x2="353.5" y2="372.3"/>
      <line class="st1 file-3-element-172" x1="398.1" y1="242.9" x2="405.9" y2="241.8"/>
      <line class="st1 file-3-element-173" x1="405.4" y1="250.2" x2="414.1" y2="249.9"/>
      <line class="st1 file-3-element-174" x1="405.1" y1="235.9" x2="413.2" y2="234.4"/>
      <line class="st1 file-3-element-175" x1="421" y1="140.2" x2="421" y2="116.2"/>
      <line class="st1 file-3-element-176" x1="412.7" y1="124.5" x2="428" y2="124.5"/>
      <line class="st1 file-3-element-177" x1="365.2" y1="308.8" x2="396.1" y2="308.8"/>
      <line class="st1 file-3-element-178" x1="368.5" y1="316.7" x2="390.1" y2="316.7"/>
      <line class="st1 file-3-element-179" x1="370.2" y1="327.1" x2="387.1" y2="327.1"/>
      <line class="st1 file-3-element-180" x1="370.2" y1="303.8" x2="378.5" y2="336.7"/>
      <line class="st1 file-3-element-181" x1="379.1" y1="312.1" x2="384.1" y2="332"/>
      <line class="st1 file-3-element-182" x1="490.5" y1="286.8" x2="490.5" y2="267.5"/>
      <line class="st1 file-3-element-183" x1="490.5" y1="220.6" x2="490.6" y2="252.5"/>
      <line class="st1 file-3-element-184" x1="509.5" y1="272.2" x2="509.5" y2="233.3"/>
      <line class="st1 file-3-element-185" x1="566.6" y1="107.1" x2="566.4" y2="106.7"/>
      <polyline class="st1 file-3-element-186" points="302.3,387.2 335.2,298.5 335.2,286.5 339.9,286.5 339.9,298.1 360.9,377.9 			"/>
      <polyline class="st1 file-3-element-187" points="339.9,286.5 356.9,288.8 356.9,298.1 373.8,367.3 			"/>
      <polyline class="st1 file-3-element-188" points="357.9,301.4 405.4,301.4 411.4,305.4 			"/>
      <polyline class="st1 file-3-element-189" points="405.4,301.4 405.4,250.2 398.1,242.9 405.1,235.9 405.1,218.3 414.1,214 438,214 438,294.5 			"/>
      <polyline class="st1 file-3-element-190" points="405.1,218.3 400.3,213.5 412.7,207 443.3,207 438.2,213.2 			"/>
      <polyline class="st1 file-3-element-191" points="412.7,207 414.1,214 413.2,234.4 405.9,241.8 414.1,249.9 414.1,304.8 			"/>
    </g>
  </g>
</svg>