<?xml version="1.0" encoding="UTF-8" standalone="yes"?>
<svg version="1.1" xmlns:x="special-ns_extend;" xmlns:i="special-ns_ai;" xmlns:graph="special-ns_graphs;" xmlns="http://www.w3.org/2000/svg" xmlns:xlink="http://www.w3.org/1999/xlink" x="0px" y="0px" viewBox="0 0 792 612" style="enable-background:new 0 0 792 612;" xml:space="preserve">
  <style type="text/css">
	.st0{fill:#FFFFFF;}
	.st1{fill:none;stroke:#231F20;stroke-width:2.5;stroke-linecap:round;stroke-linejoin:round;stroke-miterlimit:10;}
</style>
  <g i:extraneous="self">
    <g id="coloringShapes">
      <rect x="-37.9" y="-62" class="st0 file-4-element-1" width="859" height="257.4"/>
      <rect x="-124.7" y="195.4" class="st0 file-4-element-2" width="1153.3" height="555.7"/>
      <path class="st0 file-4-element-3" d="M11,615c0,0,14.6-57.5,23.6-126.4c0,0,4.3-43.6,4.7-87.1s3.3-94.4,3.3-94.4s3.3-38.2,5.7-48.9
				c2.3-10.6-1.7-22.3-2.7-23.9s-8-43.9-8-43.9s1.7-24.3,18.3-25.9s32.9-2,39.2,2.3c6.3,4.3,22.3,18,22.3,18s4,10,7.3,10
				c3.3,0,24.3-4,24.3-4s33.3-7.3,55.2,1l-1.3,6.3c0,0-12-7.6-43.9-2.7c-31.9,5-39.6,14.3-40.9,18c-1.3,3.7,0,21,0,21l2.7,58.9
				l-2.3,23.6l-2.3,23.3l1,19.6l1.7,29.6l2,112.4L143,617.4L11,615z"/>
      <path class="st0 file-4-element-4" d="M98.8,173.4c0,0,13.3,14,26.3,9.6c0,0,28.6,12.6,39.6-8.3c0,0,10.6,5.3,13.6-3c0,0,21.6,12,26.6-2.7
				c0,0,20.3,6,22.6-16.3c0,0,18-5.3,14.3-21.6c0,0,18.3-4.3,14.3-24.6c0,0,8.6-6.7,3.7-17.3c0,0,9.3-10.6,3-22.6
				c0,0,6.3-14-4.7-21.9c0,0,3-8-8-11c0,0-2.7-11.3-12-11c0,0,4.7-15.3-5.7-18c0,0,4.3-9.3-5.7-12c0,0,3.3-13.3-10.3-13.3
				c0,0,4-12.3-11-15l-138.3,2l19.6,198.2L98.8,173.4z"/>
      <path class="st0 file-4-element-5" d="M213.3,471.5l-10.2-7.6c0,0-16.6-9.4-24.4-9.2c-7.8,0.2-36.5,14.1-39.3,16s-14.6,12.9-16.6,28.9
				c-2,16-6.4,19.9-3.7,45.5c2.7,25.6,8.6,27.9,8.6,31.3c0,3.3,1.8,9.8,2.7,12.9c1,3.1,3.7,19.5,7.2,23.8s9.6,10.5,11.7,11.9
				c2.1,1.4,98.4-3.5,98.4-3.5s19.9-19.5,22.3-29.1c2.3-9.6-1.6-19.3-5.3-24.8c-3.7-5.5-13.7-8.4-23.2-7.6
				c-9.6,0.8-16.4,1.8-16.4,1.8s5.9-19.5,5.7-37.1c-0.2-17.6-2.5-28.3-5.9-36.7S213.3,471.5,213.3,471.5z"/>
      <path class="st0 file-4-element-6" d="M282.4,439.5c0,0,2.8-3.6,3.3-1.4c0.5,2.1-0.8,4.7,1.6,4.1s2.9-2.9,5.9-2.3c3,0.6,1.7,1.2,3.8,0.6
				c2.1-0.7,1.9-1.2,4.9-0.2s3.7-1,4.3,0.3c0.7,1.3,1.4,3.8,3.1,2.5c1.7-1.2,1.4-1.7,4-1.1c2.5,0.6,3.2-1.2,4.5-2.4
				c1.3-1.2,2.3-1.1,3.2,1c0.9,2.1,1.9,4.3,2.9,2.7c1-1.7,2.2-5.1,4.4-2.3s2.7,4.5,3.2,0.8s1.2-4.5,2.9-4.3c1.7,0.2,2.1,4.1,3.1,5.2
				c1,1.1,1.6,2.8,2.4,0.3c0.9-2.4,1.7-6.3,3.2-4.7c1.5,1.7,3.2,4.1,3.2,4.1s0.6,0.2,1.1-8.9c0.6-9.1-1.5-26.1-1.5-26.1l-8-12.9
				c0,0-3.4-1.4-3.9-0.6s-0.7,0.8-2.4-0.3s-3.1-1.1-3.3,1.1c-0.2,2.2-1.3,6.4-2.5,3.9c-1.2-2.5-1.8-3.9-3.4-3.8
				c-1.7,0.1-2.7,6.8-3.5,6.7c-0.9-0.1-2-2.5-3-4.9c-1-2.3-1.8-2.7-2.9-1.6c-1.1,1.1-2.8,4.1-2.7,7.6c0.1,3.5-2.1,1.7-3.7-1.1
				s-1.6-5.8-4.2-4.8c-2.7,1-1.8,3.7-2.5,3.1c-0.8-0.6-3.7-8.8-4.5-9c-0.9-0.2,1.2,10.3-0.4,11.3c-1.7,1-3.4-5-4.4-6.4
				s-1.1-3-2.8-2.8c-1.7,0.2-2,8.5-3.7,8.9c-1.7,0.3-3.1-6.2-3.1-6.2s0.8,5.5-0.7,6s-3-2.3-3-2.3l-1.1,2.8l8.3,21.7
				c0,0,1.2,2.7-0.2,7.9S279.7,439.8,282.4,439.5z"/>
      <path class="st0 file-4-element-7" d="M469.4,72.9l23.9,38.1l5.3,0.5l-1.3,91.9c0,0-3.4-1.3-6-1.3c-2.6,0-5,1.1-5,1.1s-3.4,1.3-4.5,0.8
				c-1.1-0.5-12.1-3.2-12.1-3.2l-32.8-7.1l1.6-38.9l0.3-43.1l4.2-0.8L469.4,72.9z"/>
      <path class="st0 file-4-element-8" d="M693.5,197.7c0,0-6.5-0.7-10-1.1s-6.9-1.4-8.7,0c-1.8,1.4-2.4,1.3-6,1.6c-3.7,0.3-3.4-0.3-7.6,0.8
				c0,0-4.5-1.8-7.1-1.3c-2.6,0.5-5.5,0.8-5.5,0.8l-60.1,3.7l-8.5,0.2h-8.7h-6.8l-3.7,2.4l-7.1-0.5l-2.6,1.1l-5-0.5h-5.8l-4.2-1.3
				l-5.3,1.1h-5l-6.3-1.6l-5.5,0.8l-5,1.1l-11.8-1.3l1.3-91.9h155l32,6.3C685.6,117.8,704.8,180.8,693.5,197.7z"/>
      <path class="st0 file-4-element-9" d="M649.6,112.5l-151-1.1l-5.3-0.5l-23.9-38.1L442.9,111l-4.2,0.8l28.1-40.2L466.3,50h12.9l2.4,17.1
				c0,0,186-2.6,186.8-2.6c0.8,0,7.1,32.6,7.1,32.6L649.6,112.5z"/>
      <path class="st0 file-4-element-10" d="M697.8,461.3c0,0,1.1-30.6,1.1-45.7s-3.3-52.8-3.3-68.9s-1.8-76.9-1.8-76.9l0.4-55.6c0,0-1.8-31.3-4.7-45
				s-5.8-22.2-6.7-33.9s-23.1-90.7-23.1-91.3s-5.8-28.8-8.6-31s-4.3-3.6-8-0.9c-3.7,2.7-14,8-22.2,10.6s-18.8,6.9-18.8,6.9
				l-4.9-15.7c0,0,17.7-7.1,20-8s20-6.9,22.4-11.3c2.4-4.4,4.2-14.4,2-20.4c-2.2-6,58.3-10.6,58.3-10.6l29.3,82.7
				c0,0,17.7,66.5,18.2,75.6c0.4,9.1,2.4,30.2,3.5,37.5c1.1,7.3,9.5,44.8,10.6,54.8s2.2,72.5,2.2,72.5l3.1,82.7
				c0,0,1.6,26.4,1.8,37.9c0.2,11.5,0.4,58.3,0.4,58.3L697.8,461.3z"/>
      <path class="st0 file-4-element-11" d="M671.2,528.6c0,0-1.8,14.9,0.9,20.1c2.7,5.2,9.7,8.8,12.5,9.3c2.8,0.5,5,0.1,5.2,0.8s2.5,3.8,2.4,10
				c-0.1,6.2,0.9,19.7,0.9,19.7s12.2,10.7,42,11.4c29.8,0.6,31.7-3.9,39.8-8.6c0,0,3.7-18.4,4.2-35.3c0.5-16.9,0.4-38.7,0.4-38.7
				l-107.7-0.6L671.2,528.6z"/>
      <path class="st0 file-4-element-12" d="M460.9,294.1c0,0,3.3,28,2.7,29.7c-0.5,1.7-1.9,3.8-3.3,7.4c-1.4,3.6-1.2,4.5-3.1,7.7
				c-1.9,3.3-2.2,4.6-3.8,3.8s-3.1-1.6-3.9-0.7c-0.9,0.9-2.4,5.8-3.9,4.5s-2.9-1.5-4.3,2.2c-1.4,3.8-3.3,2.4-3.9,2.7
				c-0.7,0.3-3.4,1.9-5.1,3.6c-1.7,1.7-1.7,1.7-1.7,1.7l-15.1,0l-4.8,0.3l-2.7-2.6l-1.4-1.5l-5.1,2.9c0,0-2.4-0.5-0.3-6.9
				s3.9-17.2,3.9-17.2l15.1,1C420.1,332.9,442.9,324,460.9,294.1z"/>
      <path class="st0 file-4-element-13" d="M519,318.3c0,0,2.1,23.8,5,25.4c2.9,1.5,2.9-5.8,2.9-5.8l74.3-19.9l1.9,47.2l-8.4,5.7c0,0,7.4,22.8,8.9,21.3
				c1.5-1.5-0.3-23.5-0.3-23.5l2.2-3.8l-2.7-49.4l-76,20.6c0,0,1.2-9.8,1-20.1C527.8,315.9,521.4,317.4,519,318.3z"/>
      <path class="st0 file-4-element-14" d="M591.4,182.8c0,0,2.4,5.1,1.5,8.7c-0.9,3.6-4.5,10.6-4.5,10.6l6.2,2.2l-0.9,6.7l1.9,3.3c0,0,0.5,8.2,1.4,8.7
				c0.9,0.5,7.2-0.2,11.2-0.9c3.9-0.7,4.8-3.8,9.1-1s-3.8,39.5-10.1,46.8s-30.2,38.1-41.7,38.4c-11.5,0.3-40-3.4-40-3.4l-8.6-3.3
				c0,0-5.3-0.3-9.1,0.9c-3.8,1.2-11.3,2.1-11.2,3.9c0.2,1.9,9.3,1.5,9.3,1.5s-2.7,2.2-5.8,2.4c-3.1,0.2-12.9,1.4-12.9,1.4
				s-0.2,2.1-0.2,3.3s-1,2.7,0.5,4.1c1.5,1.4,1.2,1.9,2.9,3.6c1.7,1.7,4.1,0.9,5.3,2.7c1.2,1.9,2.4,1,7.2-0.3
				c4.8-1.4,8.9-3.6,13.6-4.1s11.2-3.3,11.2-3.3l0.9-6l38.6,0.3l34.7-28.8l0.5,61.4l-5,5.3c0,0-4.3,0-6.2-0.2
				c-1.9-0.2-7.5,2.4-11.5,4.5s-7.5,2.4-7.4,3.8c0.2,1.4,3.6,0.5,6.5,0.2c3-0.3,3.6,1.5,3.1,2.1c-0.5,0.5-7.7,2.2-12.2,3.9
				c-4.5,1.7-8.4,3.4-7.4,5s0.2-0.2,0.3,3.4c0.2,3.6,0.9,1.3,2.6,3.6s2.4,2.4,4.1,2.7s1.5,1.9,3.1,2.1c1.5,0.2,10.3-2.7,14.8-4.8
				c4.5-2.1,14.4-8.4,14.4-8.4l-2.9-16.1l5.7-5.8l0.2-69.3c0,0,5.3-2.2,9.4-15.6c4.1-13.4,8.6-22.6,7-33.8
				c-1.5-11.2-5.3-7.5-5.3-7.5s3.8-18.7-3.9-30.4C611.8,187.4,608.1,177.8,591.4,182.8z"/>
      <path class="st0 file-4-element-15" d="M597.9,243l3.1-18.4l13.2-4.1c0,0,8.4-7.2,8.4-10.5S611,182.4,611,182.4l-10.1-18.4c0,0-2.2-2.7,3.4-3.3
				c5.7-0.5,27.4-8.6,35.3,4.5s8.1,14.2,8.6,29.3c0.5,15.1,12.9,31.9,14.1,32.8c1.2,0.9,25.6,35.2,30.5,49.2l2.4,23l-5.7-7
				c0,0-11.7-21.3-22.1-32.4c-10.5-11.1-16-14.4-22-19.9s-12.2-12.7-14.8-17c-2.6-4.3-6.5-10.1-6.5-10.1l-9.9,9.9
				C614.2,223.1,608.9,232.4,597.9,243z"/>
      <path class="st0 file-4-element-16" d="M600.9,164.1c0,0-7.7,3.9-9.4,18.7c0,0,11.7-3.6,19.2,2.2c0,0,7.5,16.8,6.2,24.4c-1.4,7.5,0.2,10.8-5.1,18.2
				s-16.8,16.6-19.7,23.7s-7.4,17.7-7.4,17.7s18,22.8,47,14.6s35.9-23.3,35.9-23.3s-13.7-15.6-24.2-22.1
				c-10.5-6.5-20.9-29.7-20.9-29.7L604.8,172L600.9,164.1z"/>
      <path class="st0 file-4-element-17" d="M526.1,301c0,0,10.8-1,18.2-0.5c7.4,0.5,15.4-1.9,19.4-2.4c3.9-0.5,4.8-0.7,4.8-0.7l4.6-2.6
				c0,0,0.2-6.3,3.8-12.5s7.7-13.4,7.7-13.4s19,18.9,35.9,16c16.8-2.9,19.6-3.8,19.6-3.8s18.9-9.1,28.5-19.7
				c0,0,19.6,23.7,25.4,38.6l-0.5,57.1c0,0,0.3,9.3-6.3,19.7c-6.7,10.5-7.9,19.7-8.4,20.6c-0.5,0.9-9.6,23.7-10.1,33.1
				c-0.5,9.4-3.6,25,7,65.5l-2.1,11.7c0,0-12.2,15.4-26.9,6.5c0,0-0.7,6.2-17.5,6.5s-20.6,1.5-25.2-5.8c0,0-11.8-4.8-24.7,1.7
				c-12.9,6.5-13.9,5.8-30.9,2.4c-17-3.4-28.6-6.9-28.6-6.9s-7.7,9.9-41.7-3.6c0,0,5.1-27.8,8.1-37.7c2.9-9.9,7.4-30.4,10.1-44.4
				c2.7-14.1,8.1-40.7,14.6-48.4c6.5-7.7,14.6-18.9,28.3-22.5c0,0,2.6,1,3.3,3.1c0.7,2.1,1.5,3.3,1.9,4.6c0.3,1.4,0,2.4,2.7,4.6
				c2.7,2.2,5,2.1,5.3,5.8c0.3,3.8,2.2,9.8,2.2,9.8l18.2-4.3c0,0,6.5-0.7,10.6-2.7c4.1-2.1,10.3-5.7,10.3-5.7l6,13.9l4.1,7.4
				c0,0,1.1-4.3,0.3-12.9c-0.7-8.5-3.1-23.5-5-28.1c-1.9-4.6-3.1-5.1-1.5-5.8c1.5-0.7,3.6-2.4,3.6-2.4l-5.1-21.6
				c0,0-2.4,11.3-15.6,11.8c-13.2,0.5-20.4,0-32.6,3.4c-12.2,3.4-22.5,6.7-22.5,6.7S530,326.7,526.1,301z"/>
      <path class="st0 file-4-element-18" d="M512,294.3c0,0,12.9,2.1,15.8-9.4c2.9-11.5,2.4-24.5-0.5-28.8c-2.9-4.3-5.8-4.1-8.6-6s-8.2-1.5-11-2.4
				c-2.8-0.9-2.9-1-3.9-0.5s-3.9,2.7-5,4.5c-1,1.7-6.5,6.5-4.6,17.8c1.9,11.3,4.1,18.5,8.6,21.4C507.2,293.8,512,294.3,512,294.3z"/>
      <path class="st0 file-4-element-19" d="M469.6,208.7l1.7,9.6l-4.5,0.5l-1.2,3.3l-1.5,2.7l-4,10c-3.8,1-12.5-2.6-12.5-2.6l-1,2.6l1.4,3.3
				c0,1-0.2,2.3-0.4,3.8l11,0.8c0,0,8.1,5.5,7.4,23.5c-0.7,18-0.9,25.7-0.9,26.4s1,32.1,1,32.1s-4.1-2.8-4.5-11.5
				c-0.3-8.7-2.4-23.7-1-34c1.4-10.3-0.9-18.5-2.1-23.5c-0.8-3.4-7.8-6.5-12.1-8.1c-1.5,6.1-4.3,13.5-9,19.6
				c-7.7,10-22,12.2-22,12.2l-1,16.5l-0.5,16.8l1.7,6c0,0,5.1,21.4,6.9,27.4c1.7,6,4.8,6.4,8.9,10.8c4.1,4.5,5.3,12.5,5.3,12.5
				s2.2-1.2,6.5,3.8c4.3,5,1.5,11.7,2.6,26.9c1,15.3-4.1,22.7-4.1,22.7s7.7,5.3,8.6,5.3c0.9,0,5.2,3.1,6,7.9c0.9,4.8,0.2,6.5-1,10.8
				c-1.2,4.3-1.7,13.7-1.7,13.7s-0.5,20.9-1.2,26.9c-0.7,6,1.6,8.9,1.6,8.9l0.5,4.8l-3.6-1.5l-2.1,4.1l-2.1-3.8c0,0-0.3,4.8-2.4,4.3
				c-2.1-0.5-2.1-2.4-4.3-1.9c-2.2,0.5-2.7-0.5-3.3-2.7c-0.5-2.2,1-4,2.8-7.7c1.7-3.8,0.5-4.3,0.5-9.3c0-5-0.2-10.1-1.4-14.8
				s-1.4-10.1-1-14.9c0.3-4.8,1.5-12,1.5-12.5c0-0.5,0.2-8.4,0.2-8.4l-4.8,2.6c0,0,0.7,4.6,0.7,9.6c0,5-1.7,11.2-2.1,12.5
				c-0.3,1.4-1.2,20.9-1.2,20.9l-1.2,14.9c0,0-2.4-5.8-6.3-15.6c-3.9-9.8-2.7-15.8-1-21.1c1.7-5.3-2.9-13.4-3.6-17.7
				c-0.7-4.3,1.4-16.6,1.4-16.6s1.4,5.8,1.2,2.9c-0.2-2.9,4-4.1,4.8-3.6c0.8,0.5,5.1,4.1,12,1.7c6.9-2.4,5.7-32.2,4.1-41.7
				c-1.5-9.4-7.9-9.8-7.9-9.8s-2.4-3.2-5-4.5c-2.6-1.2-1.2,3.6-1.2,3.6l-1.2,1.2l-3.9-5l-8.9-4.3c0,0,0-2.7,0.2-5.5
				c0.2-2.8-1.2-5.8-1.2-5.8c0.2-5.1-4.8-11.3-4.8-11.3s-8.6-16.6-10.6-19.9s-2.2-12.5-0.7-20.8c1.5-8.2-0.5-22.8-0.5-22.8
				s0.5-11.5,3.3-20.1c2.7-8.6,8.1-10.3,16.3-16.5c8.2-6.2,8.9-14.1,8.9-14.1s9.1,1.7,11-2.2c1.9-4,8.8-8.9,14.6-12.7
				c5.8-3.8,5.3-12.2,9.6-17.3c4.3-5.2,12-1.7,12-1.7C474.9,202.3,469.6,208.7,469.6,208.7z"/>
      <path class="st0 file-4-element-20" d="M474.6,191c0,0-1.1-6.5-10.8-11.1c-9.7-4.7-14.9-8.4-23-5.8c-8.1,2.6-14.9,5.7-17.3,13.4
				c-2.4,7.7-3.8,9.4-2.9,16.3s1,6.2,3.9,11.8c2.9,5.7,3.9,5.7,3.8,10.5c-0.2,4.8-0.2,6.7,1.7,10.1c1.9,3.4,0.7,5-0.3,6.7
				c-1,1.7-0.5,6,2.2,8.1c2.7,2.1-2.6,1.5-2.6,5.5c0,3.9,2.2,6.2,1.2,6.5c-1,0.3-3.6,4.1-3.1,5.8s4.8,1.4,4.8-1.7
				c0-3.1-1.9-3.8,0.5-6c2.4-2.2,3.8-5.3,1.4-8.7s2.1-0.7,1.2-5.7c-0.9-5-3.3-6.5-3.3-6.5s3.6-2.2,3.6-5.5s-1-6-1-6s2.1-6.3,6.2-9.8
				s13-8.4,14.2-11S457.4,185.5,474.6,191z"/>
      <path class="st0 file-4-element-21" d="M448,238c0,0,7.7,0.7,9.1,3.4l1.5,14.2c0,0,1,1.5,2.1,9.6c1,8.1,0.2,28.8,0.2,28.8s-3.6,18.5-40.8,38.8
				c0,0-3.4-11.5-3.8-12s-3.4-8.2-3.4-8.2l1.5-12.9l1.2-20.4C415.6,279.4,446.8,275.1,448,238z"/>
      <path class="st0 file-4-element-22" d="M463.3,320.5c0,0,3.4,1.5,3.3,10.1c-0.2,8.6,1,29,3.6,33.3c2.6,4.3,6.2,5.3,6.7,5.5s-2.9,12.9-3.9,14.6
				c-1,1.7-7.4,32.9-7.5,45.3c0,0-3,0.5-3.6,0c-0.6-0.5-3.3,4.6-3.3,4.6l-4.6-1.4l-3.9-0.5l-3.1,2.9l-5.5-3.4l-5.7,2.7l-6.3-5.1
				l-4.8,3.4l-4.8-14.4c0,0,10.5,3.9,12.2,1.9c1.7-2.1,1.5-5.1,2.4-6.7s-1.9-1.5,0.3-3.4c2.2-1.9,1.5-1,1.5-3.9
				c0-2.9,3.3-1.5,3.9-3.4c0.7-1.9,0-4.8-1.2-7.2c-1.2-2.4-1.2-5.8-1-9.8s-1.5-7.7-3.1-9.3c-1.5-1.5-6.7-4.8-6.7-4.8l1.2-1.2
				l-1.5-4.8c0,0,4.5,2.7,5,3.1s4.1,0.9,4.1,0.9l-2.7-7.5l-3.6-5.1l5.7-5.7l2.6,0.7l3.9-6l2.9,0.7l4.3-5.5l5,1.9l5.1-8.9
				L463.3,320.5z"/>
      <path class="st0 file-4-element-23" d="M499.1,285.9c-3.8-8.1-7.2-17.3-3.9-26.2c3.3-8.9,8.6-12.5,8.6-12.5s7-0.2,8.2,0.2c1.2,0.3,8.4,3.9,10.3,5.5
				c1.9,1.5,5.1,2.1,5.1,2.1s-3.3-8.1-9.9-11c-6.7-2.9-14.9-5.3-23.8,0.9c-8.9,6.2-10.3,18.7-10.1,30.7s3.3,20.1,3.3,20.1
				s14.2-0.7,21.1,5.1c0,0,6-2.2,10.5-0.2c4.5,2.1,8.4,1.9,8.4,1.9s5.8-13.6,3.9-26.8c0,0-2.4,15.1-9.1,17.7
				c-6.7,2.6-12.7,0.5-12.7,0.5S502.9,293.9,499.1,285.9z"/>
      <path class="st0 file-4-element-24" d="M506.2,300.3c0,0-12.2-7-24.2-3.6c-12,3.4-13.2,17.7-13.4,18.4s-3.1,13.2-1.4,26.8s3.3,23.2,4.3,24.2
				s7.2,4.3,7.2,4.3s-8.1,20.2-10.6,35.3c-2.6,15.1-2.4,32.6-2.4,32.6s-0.2,28.5-3.1,36.7c-2.9,8.2-10.1,21.1-8.1,26.2
				c2.1,5.1,8.6,2.9,14.1,3.4c5.5,0.5,9.9,2.4,9.9,2.4l2.9-18.7c0,0,3.1-13.9,5.7-21.8c2.6-7.9,3.9-16.1,5.7-24.4
				c1.7-8.2,6.7-37.2,12.4-51.6c5.7-14.4,12-25.9,33.8-35c0,0-3.3-3.8-6.9-4.5c0,0,6.5-6.2,17.2-9.1l-1.5-5.5l-22.5,6.7
				c0,0-3.9-2.1-4.3-12.2c-0.3-10.1-1.9-12.7-1.9-12.7s-6.9-0.2-9.8,2.1s-7.9,4.1-9.6,4.5s-5.3-2.4-5.3-2.4s-3.3,1.4-4.6-4.1l-2.1-1
				c0,0-1.7-1.5,0.5-2.9c0,0-3.6-3.6,0.2-5c0,0,10.3,0.3,16.1-2.2c0,0-8.4-0.2-8.1-1.4C496.7,304.6,496.7,302.9,506.2,300.3z"/>
      <path class="st0 file-4-element-25" d="M572.6,379.2l-17.2,4.3c0,0-1.4-8.7-5-12.2c-3.6-3.4-6.2-4.8-6.3-8.1c-0.2-3.3-2.1-3.8-3.3-6.5
				c-1.2-2.7-8.7-5.7-8.7-5.7s9.4-8.1,17.2-9.1c7.7-1,19.9-2.7,19.9-2.7s9.9,2.2,12.7,7.4l0.2,3.1c0,0-3.4,2.1-5.1,2.7
				s-4.8,1.5-4.5,3.8c0.3,2.2,6.5,0.2,6.5,0.2l4.5,0.5c0,0-2.6,2.7-7.5,4.3s-13,4.5-13.4,5c-0.4,0.4,1.2,2.7,1.2,2.7
				s-0.3,2.9-0.2,3.4c0.2,0.5,1.9,2.1,1.9,2.1l1.5,2.6l4.5,0.2C571.3,377.1,569.6,378.8,572.6,379.2z"/>
      <path class="st0 file-4-element-26" d="M713.1,453.1c0,0,2,0.3,3.3,0.6s7.3-6.9,6.8-13c-0.5-6.1-2.1-15-1.8-18.8c0.4-3.8,2.8-8.8,4.8-11.4
				c2-2.5,3.2-7.1,1-11.5c-2.1-4.4-3.5-5.2-3.5-5.2s-9.6,2.4-12.2,9.6s-5.9,6.3-6.6,8.3c-0.6,2-2.5,4.9-0.9,6.1
				c1.6,1.1,2.7,2.1,2.1,4.8c-0.5,2.7-0.8,10.1-0.3,12.5c0.5,2.4,1.4,4.3,4.4,4.2s3.9,1.6,4,2.8
				C714.4,443.3,716.1,447.2,713.1,453.1z"/>
      <path class="st0 file-4-element-27" d="M773.6,485.8c0,0,2.7-9.5-2-15.9c-4.7-6.4-7.6-11.6-7.7-20.2s-1.4-18.2,0-25.4c1.4-7.2,1.8-14-0.5-19.4
				c-2.3-5.4-10.6-14.1-22.5-14.1s-17.3,3.2-17.3,3.2s4,4.3,4.3,8.3c0.3,4,2.3,2.7-1.8,8.3c-4,5.7-6.7,11.2-5.2,17.3
				c1.5,6.1,3.5,12.9,1.6,17.5c-1.9,4.7-5.7,6.3-6.1,10.9c-0.4,4.5-1.5,9.1-1.5,9.1l8.2-5.7l2.5,5.8l8-5.2c0,0,2.4,7.2,0.8,10.1
				c0,0,4.7-2.5,6.3-6.9c0,0,0.9,6.2,3.2,9c0,0,1.6-10.9,4.2-11.5c0,0,2.8,6.7,1.5,7.8l4.5-2.8c0,0,6.8,7.7,3.5,15.8
				c0,0,3.8-0.5,4.8-4.2c1-3.7-0.4-8.7-0.4-8.7s1.6-1.1,3.7,1.4C767.8,472.8,773.6,485.8,773.6,485.8z"/>
      <path class="st0 file-4-element-28" d="M712.9,452c0,0-3.5,6.2-8.5,7.4s-10.7,3.8-13.4,6.3c-2.7,2.5-7.3,7.3-9.6,13.9c-2.3,6.6-6.9,21-6.9,21
				l-6.6,25.7l3.9,0.3l2.1-6.1l5.3,2l-1.3,5.8l5.8,2l1.4-6.1l3.5-0.1l-0.4,6.6l6.8,0.9l0.4-8.3l5.8,1.6l-0.8,6.7l7.3,0.5l0.8-7.6
				l5.7,0.8l0.4,6.4l6.2,0.9l1.4-6.3l5.6,0.3l0.9,6.1h5.9l0.1-6.8l5.2-0.3l1.4,5.9h6.4l1-6.7l5.3-0.8l0.6,6.9l6.7-0.9l-0.8-7.7
				l5.3-0.9l1.5,7.2l6.3-1.6l-0.1-7.6l6.6-2.1c0,0-0.5-15.4-3.9-24.5s-5.9-15.1-8.6-18.9c-2.7-3.8-4.4-5.3-5.7-5
				c-1.3,0.3,1.3,2.7,0.3,6.6s-2.4,5.9-4.7,6.3c0,0,2.7-8.8-3.5-15.8l-4.5,2.8c0,0,0.8-5.7-1.5-7.8c0,0-4.2,2.9-2.8,12.1
				c0,0-3.8-1.3-4.5-9.6c0,0-2.1,5.3-6.3,6.9c0,0,1.6-7.7-0.8-10.1c0,0-5.4,1-8,5.2c0,0-2.5-3.3-2.5-5.8c0,0-6.6,5.3-8.2,5.7
				c-1.6,0.3,0.3-1.8,0.3-1.8l1.3-5.4l0.6-4.9L712.9,452z"/>
      <path class="st0 file-4-element-29" d="M688.1,627.9c0,0-28.4-16.4-41.1-27.6c-12.7-11.2-21.8-23.9-21.1-33.3s14.1-16.2,16.9-16.7
				c2.8-0.5,16.3-1.6,27.4,2.3c11.1,3.9,16,5.6,16.5,5.6c0.5,0,3,0.6,3,0.6s3.7,4.9,3.2,30.5c0,0,50.6,22.6,81.9,1.9l-5.8,30.5
				L688.1,627.9z"/>
      <path class="st0 file-4-element-30" d="M686.4,471.8l-6.6-52.9l10.6-0.6l-0.2-23l-11.8,0.4l-7.2,22.9l2,0.7l4.7,68.1
				C677.9,487.3,681.8,476.8,686.4,471.8z"/>
      <path class="st0 file-4-element-31" d="M691.8,74.1c0,0-7.2-7.4-9.9-7.2c-2.7,0.2-6.3,5-6.3,5s-9.8-9.2-13.1,2.2c0,0-2.9-1.6-7.2,1.7
				c-4.3,3.2-2.7,9.8-2.7,9.8s-5.4-2.1-8.8,4.4c-3.3,6.5,0.4,10.4,0.4,10.4s-5.3,4.4-3.1,10.2c2.2,5.8,7.3,4.3,7.3,4.3
				s0.1,6.7,2.8,9.1c2.7,2.4,6.8,0.9,6.8,0.9s0.7,7,5.3,8.9s8.2-2.5,8.2-2.5s3.3,6.1,7,6c3.7-0.1,5.5-5.9,5.5-5.9s3.1,6,9.1,4.4
				c0,0,6.4,1.3,6.1-5.9c0,0,13.6,5.5,14.1-4.3c0,0,8.4,3.1,11.3-5.3c0,0,8.8-1.1,9.6-6.9l0.8-3.5c0,0,2.4-2.8,3.3,2.2
				c0.9,5,5.7,8.3,8.3,5.1c0,0-1,8.8,5.1,10.2c6.1,1.4,7.3-5.4,7.3-5.4s1.4,4.8,6.5,4.9c5.1,0.1,5.5-2.3,5.2-4.8
				c0,0,4.1,2.9,7.9-2.7s0.2-8.8-1.1-9.3c0,0,3.4-3.1,0.6-7.6c-2.9-4.5-7-1.6-7-1.6s6-10.9-2.7-11.4c0,0,1.1-6.7-5.8-6.8
				c0,0,3.9-8-6.9-8.6l1.2-2.3c0,0,4.7,1,7.6-3.2s-0.3-9.9-0.3-9.9s6.1-2,5.4-8.9c-0.7-6.9-4.9-8.1-8.9-7.3c0,0-4.1-10.4-11.4-3.7
				c0,0-1.4-3.4-4.7-2.7c0,0-5.7-2.9-7.4,1.2c0,0-11,4-7.9,12.5c0,0-3.5,7.4-0.8,12.5l1.3,0.9c0,0-9,0.8-9.8,8.4c0,0-4-3.9-9.2,0.2
				c0,0-3-4.3-11.7,1.8C699.6,73.7,695.9,70.3,691.8,74.1z"/>
      <path class="st0 file-4-element-32" d="M706.4,18.5c0,0,2,6.3,3.7,6.2s10,0,12.4-2c0,0,3.4,7.5,7.5,5c4.1-2.5,3.7-5.3,3.7-5.3s3.4,6,7.5,4.8
				c4.1-1.2,4.8-5.5,4.8-5.5s5.7,4.9,11.3,1.1s2.4-11.4,2.4-11.4s5.3,0.7,5.4-6.7c0.1-7.3-6.5-6.4-6.5-6.4s-1.4-9.4-11.5-7.5
				c0,0,0.1-8.1-9.2-8.4c-9.3-0.3-10.3,8.4-10.3,8.4s-3.5-3-8.8-0.7c-5.2,2.3-3.3,6.4-3.3,6.4s-4.3-3.3-7.9,1.1
				c-3.5,4.4-5.8,12.5-5.9,13c-0.1,0.4-0.8,5.3,1.3,6.3C705.1,17.8,706.4,18.5,706.4,18.5z"/>
      <path class="st0 file-4-element-33" d="M567.6,68.9c0,0,6.1,8.8,12,1.8c0,0,9.3,3.4,12-5.7c0,0,9,0.2,8.1-11.5c0,0,6.9,1.7,7.8-4.5
				c0,0,4.9-3.3,1.3-8.5c0,0,3.7-7.9-3.5-10.9c0,0,2.2-1.8-0.4-4.1c0,0,5.3-6.7,0.2-10.4c0,0-0.7-5.5-4.7-5.2c0,0,3-4.8-0.6-9.2
				s-8.5-2.9-10.1-1.1c0,0-4.4-6.2-10-0.3c0,0-6-7.6-11.7-0.9c0,0-4.1-5.4-8.3-5.1c-4.2,0.3-3.9,5.4-3.9,5.4s-13-5.2-14.7,6
				c0,0-9.8-0.9-8.3,9.3c0,0-15.3,0.2-13.1,13.6c0,0-7.5,0.2-6.9,6.7c0,0-9.1,6.7-3.7,14c0,0-3.8,4.8,0.2,6.5c0,0-3.4,13.2,8,8
				c0,0,2.8,7,7.6,3.9c0,0,7.5,8.6,12.7,1.1c0,0,3.4,3.7,7,0.8c0,0,5.9,6.7,10.3,0.8C554.9,69.2,560.9,79.2,567.6,68.9z"/>
      <path class="st0 file-4-element-34" d="M322.8,343.4c0,0,8.1-0.3,9.2-4.2c1.1-3.9,2.9-16.8,3.7-19.2c0.8-2.4-0.5-5.3-1.3-9.7
				c-0.8-4.5-1.6-5.5-1.3-8.4c0.3-2.9-2.9-10-5.8-10.8c0,0-2.4,0.3-3.9,3.4c-1.6,3.2-2.1,5.8-5.3,4.7c-3.2-1.1-9.5,1.6-10.5,6.3
				c-1.1,4.7-1.8,7.9-1.1,13.1c0.8,5.3,2.6,9.5,2.4,14.2c-0.3,4.7,0.5,6.3,0.3,11s-3.9,1.3,1.1,7.6c5,6.4,7.9,8.1,9.5,10.8
				s3.4,3.4,3.2,4.5c-0.2,0.7-20.2,9.8-33.9,16c-7.3,3.3-12.8,5.8-12.8,5.8s0,12.1,0,13.4s6.6,17.3,7.1,18.7
				c0.5,1.3,5.5,11,8.9,13.4c3.4,2.4,10,1.8,13.1,0c3.2-1.8,12.6-5,20.2-10.2c7.6-5.3,20.5-16.5,20.5-16.5s5.5,0.5,9.2-2.9
				c3.7-3.4,10.8-9.7,11.6-10.5c0.8-0.8,0-3.9,0-3.9l0.5-4.5l-1.8-1.6l-2.4,0.3l1.6-4.2l-3.2-0.8l-3.7,2.4v-3.7l-2.1-1.1l-5.5,6.3
				l-4.2-2.1l-5.5,7.9c0,0-2.1,1.6-2.9,4.7s0.5,5.8-3.7,7.4c-4.2,1.6-16.8,7.4-19.7,9.2c-2.9,1.8-11,3.5-12.9,6l-6-13.4l-7.1-16.5
				l36.8-17.9l-1.3-10C323.6,358.4,325.2,351.1,322.8,343.4z"/>
      <path class="st0 file-4-element-35" d="M281.6,363.7c0,0,4.7-15.5,3.7-26.3c-1.1-10.8-5-33.4,6.8-44.9c11.8-11.6,27.1-10.2,35.2-1.3
				c0,0-2.9,0-3.9,3.4c-1.1,3.4-1.3,4.7-5.3,4.7s-9.2,1.3-10.5,8.7s0.5,17.3,0.5,17.3s3.4,17.1-0.5,22.6l-2.9-5l-4.5,9.5l-1.8-7.6
				l-2.1,0.5c0,0-2.1,4.7-1.8,8.9s1.1,7.1,1.1,7.1s-5.8-5.8-6-12.3C289.2,342.4,292.1,358.2,281.6,363.7z"/>
      <path class="st0 file-4-element-36" d="M320.8,341.6c0,0,6.1,1.5,8,1.7c1.9,0.1,5.3-1.4,8.1,2.8c2.8,4.2,3.8,7.6,4.1,11.6c0.3,4,3.9,13,3,17.2
				c-0.9,4.2,1.9,7-0.9,10.2c-2.8,3.2-4.7,5.8-6.4,8.4s-1.7,0.1-3.1,1.2c-1.4,1.1-3.3-2.2-3.8-2.3c-0.4-0.1-3.5,8.3-3.7,8.6
				c-0.1,0.3-2-7.9-3.9-6.3c-1.8,1.6-2.3,8.1-3.5,6.7c-1.2-1.4-2.4-7.6-5-6.9c-2.5,0.8-3.1,1-3.8,6.2c-0.7,5.2-0.9,5.7-3.2,1.6
				c-2.3-4.1-2.3-8.6-4.4-5.5c-2.1,3.1-2.3,8.8-3.3,3.8c-1-5-3.3-9.8-3.8-9.6c-0.4,0.1-0.1,10.5-0.4,11.3c-0.3,0.8-1.1-3.1-4.4-6.4
				s-3.9-1-4.9,1.9c-1,2.9-1.7,8-2.4,4c-0.8-4-1.6-4.7-1.8-2.2c-0.2,2.4-1.7,3.3-3.2,0.8c-1.6-2.5-3-4.9-3.3-3.2
				c-0.3,1.7-1.9,9.1-3.1,7.8c-1.2-1.3-0.9-15-1.4-18.2s2-11.1,4.5-14.6c2.5-3.5,4.3-6.9,6.9-8.2c2.6-1.3,5.9-3,7.2-11.6l6.7,9.2
				c0,0-3.1-8.3,0.2-13.3c3.2-5,1.3-5.2,2.9-2.3s0.4,7.8,0.4,7.8s5-11.4,5.7-10.5c0.7,0.9,1.7,4.3,1.7,5.3s1.8-1.6,1.8-1.6
				s3,8.4,6.2,10.6c3.2,2.2,5.7,4.4,6.5,5.8c0.9,1.3,1.9,3.7,1.9,3.7s0.8-11.2,0.8-11.8c0-0.6-0.6-8.8-0.8-9.3
				C322.6,345.1,320.8,341.6,320.8,341.6z"/>
      <path class="st0 file-4-element-37" d="M284.8,443.8c0,0-4.8,16.6-4.7,23.7s-0.8,5.4-0.2,10.1s0.9,5.3,0.3,10.3c-0.6,5-0.6,9-0.6,9
				s-10.1-1.7-10.8-1.7c-0.7,0-4.5-0.1-6.5,1.3c-2,1.4-3.8,2-5.4,7.5c-1.7,5.5-3.4,18.3-3.4,18.3s10.6,7.8,18.2,9.9
				s24.2,9.5,29.5,9.4s6.7-1.9,6.7-1.9s4.7-20.4,10.2-38.1c5.5-17.7,10.2-31.8,17-39.6c6.8-7.8,12.5-15.7,12.5-15.7l-1.2-4.1
				c0,0-2.7-4.2-3.2-4.1c-0.6,0.1-4.5,5.8-4.5,5.8l-4.2-6.7c0,0-1.6-0.1-1.9,0.7c-0.3,0.8-0.6,5.7-1.8,5.7c-1.2,0-2.8-3.9-3.9-3.8
				s-0.3,3.5-3,3.3c-2.7-0.2-3.2-5-4.3-5c-1.1,0-2.2,3.5-3.9,3.4c-1.7-0.1-4.4-1.4-5.4,0s-4,1.3-4.3-0.1c-0.3-1.4-0.3,0.1-2.8-1.1
				c-2.5-1.2-1.3-1-3.1-0.9c-1.8,0.1-1.1,0.3-4,0.3s-2.1-1.6-4.9-0.1c-2.8,1.4-3.5,4.4-6.4,2L284.8,443.8z"/>
      <path class="st0 file-4-element-38" d="M263.1,529.7c0,0,0.4,2.9-3.3,3.1c-3.8,0.2-5.3,0-9.2-2c-3.9-2-5.1-3.4-4-7.3s2-10,2.4-14.5
				c0.4-4.5,1.2-11.9,4.4-15.4c3.2-3.5,7.9-2.8,10.1-1.7c2.2,1.1,2.3,1.4,3.8,0.6s5.7-2.2,8.2-0.9c2.5,1.3,3.9,3.1,3.9,3.8
				c0,0.7-0.9,1.9-4.4,1.1c-3.5-0.8-7.8-2.2-11.2-1.1c-3.4,1.1-4.4,2.2-5.7,5.8c-1.2,3.5-2,4.7-3,9.8s-2.9,6.5-1.2,9.6
				c1.7,3.1,1.6,3.2,3.7,4.7C259.6,526.6,262.8,527.4,263.1,529.7z"/>
      <path class="st0 file-4-element-39" d="M420.4,418.6c2.4,1,5.9,2.2,8.4,2c4.1-0.3,4.1-2.3,3.6-4.5c-0.5-2.3,2.1-3.6,2.1-3.6s-0.6-2.5,0.2-2.5
				c0.7,0.1,1.7-2.8,1.5-3.9c-0.2-1.1,3.1-4.1,3.9-3.4s-1.1-4.2-2.2-7.2c-1.1-3-0.2-6.5-0.2-10.9c0-4.4-4.4-8.2-4.4-8.2
				s-2.9-0.3-3.9,2.6c-1.1,2.9-1.7,5.5-1.4,9.5c0.3,4.1,0.3,10.3-2.6,14.4c-2.9,4.1-4.8,4.8-6.8,8.3c-2,3.5-5,17.9-4.7,19.7
				c0.3,1.8-8,98.4-8,98.4s1.8,13.2,4.5,20.7l2,8.2l20.3,9.8l-3.2-25.1c0,0,1.8-4.8-2-9.1c-3.8-4.2-4.4-19.5-4.4-19.5L408,525.2
				l11.4-89.3l0.2-16C419.5,419.8,418.8,417.9,420.4,418.6z"/>
      <path class="st0 file-4-element-40" d="M359.4,435.8c0,0,4.2-14.4,8.5-19.7c4.2-5.3,13.8-12.7,14.7-14.4c0.9-1.7,3.2-3.9,2.6-11.5s2.6-28.5,20.4-30
				c0,0,14.1,3.6,17.4,6.5s5.1,4.7,5.1,4.7s3.6,0.3,5.9,3.8c0,0-4.1,0.2-4.5,3.5c-0.5,3.3-1.1,9.5-1.1,12.7s-0.8,11.1-5,14.7
				c-4.2,3.6-3.9,3.3-4.7,4.8c-2.4,4.8-4.4,14.2-4.7,16c-0.3,1.8,0,5.6-5,7.3s-4.5,3.5-5.1,2.7s0.8-6.5-0.8-4.1
				c-1.5,2.4-4.2,6.5-6.2,6.4c-2-0.2-1.8-4.2-1.8-4.2s-5,3.3-8.9,6.4c-3.9,3-3.8-0.2-4.4-2.1c-0.6-2-2-1.4-3.3,0.8
				c-1.4,2.1-4.4,5.9-4.4,3.3s3.2-8.6-0.3-6.5s-5.6,4.8-4.7,2.1c0.9-2.7-1.8-0.2-2.9,0.8c-1.1,0.9-1.2-2,0.2-6.4
				C367.7,429,362.9,432.7,359.4,435.8z"/>
      <path class="st0 file-4-element-41" d="M383,394.2l-1.2,6.4c0,0,12.1,2.7,22.1-4.1c10-6.8,18.2-12.3,24.2-25l-3.9-5c0,0-3.6,11.5-18.3,20
				C391.2,395,383,394.2,383,394.2z"/>
      <path class="st0 file-4-element-42" d="M434.2,500.3c0.2-0.4-0.3-3.6-3.3-7.8c-3.1-4.2-7.4-19.5-7.7-22.5s-2.3-2.9-0.5-10.1
				c1.8-7.3,0.5-11.1-1.8-17.4s-6.8-11.8-6.8-11.8s-7.6,5.1-8.2,5s-1.7-4.5-2.7-2.7c-1.1,1.8-2.6,4.4-4.1,5.5
				c-1.5,1.1-3,2.1-3.5-0.6s-0.9-3.3-2.4-2c-1.5,1.4-7.9,6.7-9.4,7.4c-1.5,0.8-2.3-1.5-2-3.9s-0.9-2.1-2.1-0.2
				c-1.2,2-5.6,6.8-5.6,4.2s2.7-6.7-0.3-6.5s-4.7,2.1-4.7,2.1s-1.8,1.7-2.9,0.8c-1.1-0.9,3.2-8.9,2.4-10.7s-1.4,1.4-4.7,4.2
				c-3.3,2.9-7.1,5.8-7.1,5.8s-12.7,8.3-22.9,24.8c-10.1,16.5-17.4,42.8-20.7,54c-3.3,11.2-6.7,29.7-6.5,43.6
				c0.2,13.9-1.1,37.8,23.8,52.4c24.8,14.5,121.6,15.7,121.6,15.7s10.7-0.2,13.3-2.7c2.6-2.6,12.4-10.1,12.6-19.1s-5.5-16.7-13.5-21
				s-31.6-18.9-31.6-18.9l-18.5-8.6c0,0-5.6-4.7-7.7-6.8s-6.7-5.1-8.5-5.5s-5.5,0.6-5.5,0.6s-1.2-6.8-5.8-8.2
				C386.9,539.4,420.2,522.1,434.2,500.3z"/>
      <path class="st0 file-4-element-43" d="M189.2,446.1c0,0,11.7,0.4,14.6-2c2.9-2.3,1-3.9,0.4-7c-0.6-3.1-2-7.6-2.1-8.8s-2-5.3-0.8-6.3
				s5.3-1.4,2.9-4.9c-2.3-3.5-6.3-1.4-7.2-3.7c-1-2.3-0.2-5.3-4.5-8.6c-4.3-3.3-4.5-3.7-6.1-0.8c-1.6,2.9-2.3,12.3-2.3,16.8
				C184.1,425.4,180.6,434.6,189.2,446.1z"/>
      <path class="st0 file-4-element-44" d="M183.4,399.2c0,0-10.2-4.7-19.3,1c-9.2,5.7-12.7,7.6-15.4,15.6c-2.7,8-2.5,23-2.7,25
				c-0.2,2-1.6,20.7-2.9,24.6c-1.3,3.9-2.1,7.2-2.1,7.2s3.9,0.2,5.5-0.2c1.6-0.4,1.6,1.6,4.5,1.4c2.9-0.2,6.3-4.3,6.3-4.3l4.1,7.6
				l2.1-4.1l0.8-4.5c0,0,3.9,4.7,4.5,4.3c0.6-0.4,0.6-4.9,0.6-4.9l-1.6-7.2c0,0,0.8-0.8,2.7,1.2s8,5.9,12.7,6.6c0,0,3.7,1.2,7.4,1
				c0,0-1.8-3.9,2-3.9c3.7,0,6.4-1,6.4-1s3.5,0.4,2.3-3.5c-1.2-3.9-7.8-8-9-9.4c-1.2-1.4-7.8-12.3-9-20.5
				c-1.2-8.2,2.1-22.9,6.1-28.1L183.4,399.2z"/>
      <path class="st0 file-4-element-45" d="M224.8,497.3l1.4-2.3c0,0,4.4,9,4.5,22.9c0,0-2-0.2-3.3-1.4s-2.3-0.4-2.7,0.4c-0.4,0.8-3.5,7-3.5,7l-4.3-9.4
				c0,0-0.8,0.8-1.4,2c-0.6,1.2-2.7,8.8-2.7,8.8l-2.3-1l-2.9-4.7l-1.6,2.3l-2.1,7.2l-6.4-8.6l-1.8,11.5l-2.3-0.8l-2.5-6.8
				c0,0-1.4,5.1-3.3,5.9c-2,0.8-3.1-1.6-4.5-3.5c-1.4-2-3.3-0.8-3.9,1.4c-0.6,2.1-3,6.8-3.7,3.5c-0.7-3.3-1.4-7-3.3-5.3
				c-2,1.8-1.4,6.4-3.1,6.1s-3.7-5.7-6.3-5.9c-2.5-0.2-2.5,5.5-3.9,5.7c-1.4,0.2-1.8-5.1-2.7-5.1s-3.9,8.2-5.1,8
				c-1.2-0.2-2.9-6.6-3.7-7.2c-0.8-0.6-1.8,0.8-2.9,2.9c-1.2,2.1-1.9,5.4-3.7,1.2c-1.8-4.2-2.3-7.2-4.1-7s-1.6,7.4-2.7,7.4
				c-1.2,0-2.5-4.1-3.3-6.6c-0.8-2.5-1.8,2-2.3,2.1c-0.6,0.2-8.6-3.5-8.6-3.5l3.5-24.8c0,0,1.4,5.1,2.5,6.4c1.2,1.4,2.3,2.3,3.1,2.1
				c0.8-0.2,4.3-7.2,5.1-7.2s3.5,7.2,5.1,7.6s1.6-8.2,2.7-8.4c1.2-0.2,2.5,7.2,3.7,7.2c1.2,0,2-6.6,3.7-6.6s4.5,5.5,4.5,5.5
				s2.7-5.5,4.5-4.9s1,7.2,3.1,7.6c2.1,0.4,2.9-7.6,4.1-7.4c1.2,0.2,1,6.4,2.3,7c1.4,0.6,4.1-6.4,5.5-6.4c1.4,0,2.5,8,3.3,8
				s2.3-8.2,3.3-8.4c1-0.2,1.4,7.8,2.9,8c1.6,0.2,2.3-9.8,3.5-9.4s3.9,8.6,5.5,8.4c1.6-0.2,0.4-9,1.8-9c1.4,0,4.1,8.6,5.3,8.2
				c1.2-0.4,1-9,2.7-9.4c1.8-0.4,4.3,5.5,5.5,5.9c1.2,0.4,1.4-6.6,3.1-6.8c1.8-0.2,4.7,5.7,5.7,5.5c1-0.2,0.4-6.8,1.8-6.8
				c1.4,0,4.3,5.3,5.7,4.9C224.2,500.8,224.8,497.3,224.8,497.3z"/>
      <path class="st0 file-4-element-46" d="M208.9,212c0,0,7.6,5.3,12.6-0.7c0,0,13.4,6.6,17.6-3.7c0,0,10.6-1.3,11-11c0,0,2.7-6.3-3.7-9.6
				c0,0-2.7-10.3-13.3-8.6c0,0-8.6-2.3-14.3,2.3c0,0-5-2.7-11,0.3s-3.7,10.6-3.7,10.6s-2.2,11.4-0.7,12.6
				C205.1,205.6,208.9,212,208.9,212z"/>
      <path class="st0 file-4-element-47" d="M-22.9,176.4c0,0,22.6,25.6,34.3,18.6c0,0,8.6,4.7,13-3.3c0,0,19.6,1.7,24.6-13.3c0,0,15.6,12,21.3,3
				c0,0,25.6,2,30.9-21.6c0,0,9-4.7,6.7-17.3c0,0,28.3,9,33.9-8.6c0,0,15.6,4,19.3-9.3c0,0,13.6-9,10-24.3c0,0,1.7-21.9-9.3-27.3
				c0,0,2.3-26.6-11.3-22.9c0,0-6-22.9-15.6-20.6c0,0,2-16.6-13-17.6c0,0-10.3-12.3-20.3-2.3c0,0-4.7-14.6-15.3-11.3
				c0,0-4-18.3-28.3-16.6c0,0-5.7-13.3-24.6-10.6c0,0-9.3-19.6-35.2-8L-33.5,1.2L-22.9,176.4z"/>
      <polygon class="st0 file-4-element-48" points="473.6,123.1 474.1,141.2 481.8,141.4 482.3,122 			"/>
      <polygon class="st0 file-4-element-49" points="451.8,142 460.5,141.4 460,123.3 451.5,124.1 			"/>
      <polygon class="st0 file-4-element-50" points="458.9,176.4 458.9,161.4 452.1,162.7 451.3,174.5 			"/>
      <polygon class="st0 file-4-element-51" points="472.8,180.1 481.2,179.8 480.7,161.7 472.3,161.4 			"/>
      <polygon class="st0 file-4-element-52" points="517.5,143 527.7,142.5 526.7,124.9 517,125.2 			"/>
      <polygon class="st0 file-4-element-53" points="554.5,142.5 564.8,142.8 565,124.6 555.3,124.9 			"/>
      <polygon class="st0 file-4-element-54" points="588.4,142.8 598.7,143 598.9,124.4 588.7,124.9 			"/>
      <polygon class="st0 file-4-element-55" points="622.6,142.8 632.5,142.8 632.5,124.4 622.8,125.2 			"/>
      <polygon class="st0 file-4-element-56" points="658.5,130.7 658.3,142.8 668.8,143 668.3,133.8 			"/>
      <polygon class="st0 file-4-element-57" points="517.2,179.3 527.2,179.5 527.2,161.9 517,161.9 			"/>
      <polygon class="st0 file-4-element-58" points="554.5,179.8 565.6,179.5 565.3,162.2 555,161.7 			"/>
      <polygon class="st0 file-4-element-59" points="658.8,179.8 668.8,179.3 669.3,161.7 659.1,161.1 			"/>
    </g>
    <g id="outline">
      <path class="st1 file-4-element-60" d="M611.2,221.2c0,0-6.2,2.3-9.9,3c-3.8,0.8-5-2.3-4.8-4.7c0.2-2.4,0-4.5-0.8-5.4c-0.8-0.9,1.7-2.1,1.7-2.1"/>
      <path class="st1 file-4-element-61" d="M595.4,212.8c0,0-1.8-0.6-1.2-2.6s0.6-4.2,0-5.4"/>
      <path class="st1 file-4-element-62" d="M596.7,203.9c0,0-4.4,0.8-7.1-1.4c-2.7-2.1,3.2-6,3.5-11.3c0.3-5.3-2.3-6.3-0.8-12.9s3-11.3,8.3-13.7"/>
      <path class="st1 file-4-element-63" d="M594.6,187.6c0,0,4.7-0.6,8.4,1.5"/>
      <path class="st1 file-4-element-64" d="M591.8,182.5c0,0,9.2-3.9,19.1,3.2c0,0,9.8,17.5,4.3,34.7c-3.4,10.7-19.7,22.8-24.5,33.3
				c-4.8,10.5-6.2,14.6-6.2,14.6s16.5,18.3,35.2,16.7c18.6-1.7,34-7.4,48.1-24.1"/>
      <path class="st1 file-4-element-65" d="M693,298.3c0,0-12-22-18.8-30.7s-15.6-18.6-29.8-28.9c-14.1-10.2-22.6-31.4-27.8-43.3s-11.9-23.6-13.7-26.6
				s-3.2-5.6-1.2-7.2c2-1.7,23.3-3.3,27.2-2.9c3.9,0.5,14.4,5.6,17.6,18.9c3.2,13.4-0.9,26.3,12.6,45.6s23.9,31.4,32.2,51"/>
      <path class="st1 file-4-element-66" d="M611.2,221.2c0,0,5.9-1.7,7.8-3.3"/>
      <path class="st1 file-4-element-67" d="M640.4,196.1c0,0-4.7,27.8,21.4,47.2c13.5,10.1,21.4,28.4,21.4,28.4"/>
      <path class="st1 file-4-element-68" d="M609.5,246.1c0,0,10.8-8.1,12.6-16.1"/>
      <path class="st1 file-4-element-69" d="M593.9,284.6c0,0-3.8,13.8-0.8,25c3,11.1,6.3,25,7.5,31.6"/>
      <path class="st1 file-4-element-70" d="M663.4,284.3c0,0-9.9,26.9-13.5,31.3c-3.6,4.4-4.2,4.5-2.3,8.4"/>
      <path class="st1 file-4-element-71" d="M645.9,321.2c0,0-5.9,0.2-5.4,4.1s0.9,3.5-0.3,6"/>
      <path class="st1 file-4-element-72" d="M640.5,325.2c0,0-3.2,1.8-9,6c-5.9,4.2-30.8,11.3-35,13.8c0,0,5.4,9,6.8,25.6c1.4,16.5,4.2,36.5-8.6,1.7"/>
      <path class="st1 file-4-element-73" d="M603.7,391.1c0,0,27.8-10.8,43.5-16.5c15.6-5.7,17.1-8.7,19.4-10.4c2.3-1.7,16.2-24.4,19.5-40.3
				s4.5-17.9,4.5-17.9"/>
      <path class="st1 file-4-element-74" d="M658.1,298.8c0,0-1.1-4.1-0.9-8"/>
      <path class="st1 file-4-element-75" d="M593.7,348.8c0,0-3.6-2-7.5,0s-10.4,4.8-12.5,5.4c-2.1,0.6-2.3,2.9-0.5,3.5c1.8,0.6,5.9-2.9,8.6-1.7"/>
      <path class="st1 file-4-element-76" d="M585.8,354.6c0,0-3.6,4.1-7.4,5.7s-16.7,4.2-16.4,6.3c0.5,2.9,3.2,2.4,7.1,1.5c3.9-0.9,9.9-3.8,9.9-3.8"/>
      <path class="st1 file-4-element-77" d="M583.4,372c0,0-13.5,5.6-16.4,4.7c-2.9-0.9-2.6-3.5,12.9-7.8"/>
      <path class="st1 file-4-element-78" d="M567.6,373.4c0,0-3.9,1.7-4.7-1.1c-0.6-2.1,1.8-3.6,4.5-3.9"/>
      <path class="st1 file-4-element-79" d="M615.1,379.4c0,0,15.2-11.6,26.2-15.9"/>
      <path class="st1 file-4-element-80" d="M584.9,269.3c0,0-9.5,15.2-11,21.4c-1.5,6.2,2.3,5.7,3.8,9.9c1.5,4.2,3.8,5.6,3.8,5.6"/>
      <path class="st1 file-4-element-81" d="M573.6,294.6c0,0-2.1,0.3-3.9,1.8s1.8,3.3,1.5,5.9"/>
      <path class="st1 file-4-element-82" d="M568.8,297.6c0,0-2-0.5-4.1,0.5c-2.1,0.9-12.3,2.4-15.8,2.7s-18-1.1-22.6,0.6c0,0,1.9,10.7,1.2,26.3
				c-0.6,13.8-3.6,32.8-8-9.3"/>
      <path class="st1 file-4-element-83" d="M524.6,343.9c0,0,27.1-9.6,39.1-9.9c12-0.3,24.2-0.5,28-5.9c3.8-5.4,4.4-8.1,4.4-8.1"/>
      <path class="st1 file-4-element-84" d="M539.5,330.9c0,0,10.1-4.5,22.1-5.7"/>
      <path class="st1 file-4-element-85" d="M526.7,302.2c0,0-3.5,0.8-5.1-0.2c-1.7-0.9-4.8-3.3-9.6-2.7c-4.8,0.6-14.6,2.7-15.3,5
				c-0.8,2.3,4.7,2.1,7.1,1.7c2.4-0.5,3.6-0.3,4.5,0.2c0.9,0.5,2.3,2.9,6.5,2.7"/>
      <path class="st1 file-4-element-86" d="M527.1,315.6c0,0-4.2,2.4-10.8,3c-4.4,0.4-14.8,5.8-17.1,6c-6,0.5-2.9-2.7-2.9-2.7"/>
      <path class="st1 file-4-element-87" d="M508.6,317.7c0,0-2.7,1.4-7.7,2.9c-5,1.5-8.9,2.4-9.9,1.1c-1.5-2,0.6-2.6,0.6-2.6"/>
      <path class="st1 file-4-element-88" d="M504.4,315.3c0,0-6.9,1.8-8.6,2.3c-1.7,0.5-8.1,1.7-8.9-1.7"/>
      <path class="st1 file-4-element-89" d="M507.7,307.2c0,0-6.3,1.5-8,1.7c-2.1,0.2-5.9,1.1-8.3,0.9c-7.1-0.6-5.4,3.9-2,4.2c0.5,0,3.9,0.5,8.6-0.5
				c4.7-0.9,7.2-2,7.2-2"/>
      <path class="st1 file-4-element-90" d="M691.9,317.2c0,0,5.3,36.8-0.9,50.1c-6.2,13.3-20.8,41.7-55.9,63.4"/>
      <path class="st1 file-4-element-91" d="M680.8,391.7c0,0-15.5,34.1-13.3,59.9c2.2,25.7,8,45.2,8,45.2"/>
      <path class="st1 file-4-element-92" d="M663.9,420.9c0,0-19.1,29.7-18.2,72.7"/>
      <path class="st1 file-4-element-93" d="M538,356.2c0,0-22.6,7.5-31.5,29.7s-12.4,57.6-19.1,79.4c-6.7,21.7-9.3,43.5-9.3,43.5s30.6,14.2,41.2,3.1
				c0,0,59,19.1,60.7,1.3"/>
      <path class="st1 file-4-element-94" d="M547.3,375.7c0,0-16.4,6.7-16.4,31.5"/>
      <path class="st1 file-4-element-95" d="M531.8,421.4c0,0-2.2,47-11.1,73.2"/>
      <path class="st1 file-4-element-96" d="M552.7,431.1c0,0,8.4,38.6,22.6,69.6"/>
      <path class="st1 file-4-element-97" d="M559.7,409.4c0,0,12.9,20.8,25.7,28.4"/>
      <path class="st1 file-4-element-98" d="M648.9,392.6c0,0-3.5,9.3-17.3,18.2"/>
      <path class="st1 file-4-element-99" d="M578.8,516.7c0,0,13.7-6.7,23.5-2.2"/>
      <path class="st1 file-4-element-100" d="M599.2,498.1c0,0,1.3,21.3,12.9,22.2c11.5,0.9,25.3,0.9,30.2-1.8c4.9-2.7,6.7-11.1,6.7-11.1"/>
      <path class="st1 file-4-element-101" d="M717.1,439.1c0,0-11.5,2.7-11.5-4.9s0-7.5,0-7.5l3.1-0.4"/>
      <path class="st1 file-4-element-102" d="M705.5,426.7c0,0,1.8-4.9,0.9-6.7c-0.9-1.8-4-1.8-2.2-6.2c1.8-4.4,6.7-4,6.7-8.9c0-4.9,5.3-8.9,8.9-9.8
				c0,0,1.8-0.8,4.6-1.8c5.7-1.9,15.8-4.3,24.7-1.3c13.3,4.4,17.7,16.4,15.5,29.7c-2.2,13.3-1.3,38.6,4.9,44.8
				c6.2,6.2,4.9,20.8,4.9,20.8s-5.8-16-10.6-18.6c-4.9-2.7,3.1,8.4-4.4,12.9s5.3-1.8-5.3-16.8c0,0,0.4,3.1-4.9,4.4
				c0,0,2.2-4-1.3-8.9c0,0-5.8,10.6-0.4,15.1c0,0-6.2-2.2-6.2-13.7c0,0-2.2,7.1-7.5,10.2c0,0,3.5-6.2,0-12c0,0-5.8,2.2-8,6.2
				c0,0-3.1-5.8,0-8.9c0,0-5.8,6.7-12,8.4c0,0,3.5-3.5,3.1-9.3c-0.4-5.8,8.9-8.4,6.2-20c-2.7-11.5-2.7-18.2,2.7-24.4
				c5.3-6.2,3-10.6,0.9-14.6"/>
      <path class="st1 file-4-element-103" d="M712.6,409c0,0,1.8-0.4,3.1,0.4"/>
      <path class="st1 file-4-element-104" d="M698.1,460c0,0,2.2-53.2-0.4-74s-2.7-86.5-3.5-99.3c-0.9-12.9,1.8-55.4-0.4-83.4c-2.2-27.9-4.9-39-7.5-51
				c-2.7-12-3.1-17.3-3.1-17.3"/>
      <path class="st1 file-4-element-105" d="M769.4,466.6c0,0-0.4-63.4-1.7-86.5c-1.3-23.1-2.7-67-3.5-85.1c-0.9-18.2,0-68.3-4-88.7s-9.3-45.2-10.6-59.4
				s-1.3-20.8-1.3-20.8"/>
      <path class="st1 file-4-element-106" d="M671.6,527.3c-0.9,9-1.2,17.8,0.3,21.7c3.1,8.4,18.2,9.8,18.2,9.8c4,8,2.2,37.7,2.2,39.5"/>
      <path class="st1 file-4-element-107" d="M774.3,487.4c0,0,5.8,11.1,5.4,38.1c-0.4,27-0.9,44.8-2.7,55.4c-1.8,10.6-6.2,28.4-6.2,29.7"/>
      <path class="st1 file-4-element-108" d="M676.8,555.3c0,0-25.3-10.6-39-2.2c-13.7,8.4-17.2,15.8-3.5,34.1c12.9,17.3,54.1,40.8,54.1,40.8"/>
      <path class="st1 file-4-element-109" d="M688.4,530.9c0,0-1.9,0.9,1.7,27.9"/>
      <path class="st1 file-4-element-110" d="M646.7,514.5c0,0,10.6,8.2,24.8-4.2"/>
      <path class="st1 file-4-element-111" d="M690.5,588.1c0,0,13.7,8,32.4,10.2c18.6,2.2,34.6,4.9,51.9-7.1"/>
      <path class="st1 file-4-element-112" d="M713.2,359.8c0,0,1.3-5.8,0.4-8c-0.9-2.2-0.9-1.8-0.4-7.1c0.4-5.3,0-7.1-1.3-10.6c-1.3-3.5,0.4-2.7-0.4-8
				c-0.9-5.3-2.2-6.7-2.7-10.6c-0.4-4-0.9-4.4,1.8-7.1c2.7-2.7,4,0.9,1.8-4.9c-2.2-5.8-3.1-6.7-2.2-8"/>
      <path class="st1 file-4-element-113" d="M746.9,257.3c0,0,4-5.8,1.8-9.3s-0.9-1.8-0.9-8c0-6.2,1.8-1.3,0-6.2c-1.8-4.9,0.9-4.9-0.4-9.8
				c-1.3-4.9-0.4-3.5-1.8-6.7c-1.3-3.1-0.9-8.4-0.9-8.4"/>
      <path class="st1 file-4-element-114" d="M716.3,319c0,0-1.3-3.5,0-8.9c1.3-5.3,2.2-5.8-1.3-12.9c-3.5-7.1-2.7-6.7-2.7-13.7s0-2.2-0.9-12.9
				c-0.9-10.6-1.3-8.9-0.4-16s-0.4-11.1-0.4-12.9"/>
      <path class="st1 file-4-element-115" d="M732.2,163.8c0,0,2.2,8,1.3,9.3s-0.9,0.4,0.9,4.4s2.7,4,1.3,8c-1.3,4,0,3.5,1.3,8c1.3,4.4,1.8,4.9,0.4,9.8
				c-1.3,4.9-1.8,4,0,8s1.8,7.5,1.8,9.8"/>
      <path class="st1 file-4-element-116" d="M734.9,329.2c0,0-3.1,15.1-2.2,18.2c0.9,3.1-0.9,4-0.9,7.5c0,3.5,0.4,1.3,1.3,6.7c0.9,5.3,2.7,3.5,0.9,8
				c-1.8,4.4-1.8,3.1-0.4,7.5c1.3,4.4,2.2,4.4,0.9,6.7c-1.3,2.2,0.9,4.4,0.9,4.4"/>
      <path class="st1 file-4-element-117" d="M697.6,141.2c0,0-0.4,8,1.3,8.4c1.8,0.4,2.2,4.4,1.8,8c-0.4,3.5-0.4,3.5,1.8,7.5s3.1,2.2,1.8,7.5
				c-1.3,5.3-2.2,1.8-1.3,5.3s1.3,3.1,0.9,5.3c-0.4,2.2-1.3-1.3-0.4,2.2"/>
      <path class="st1 file-4-element-118" d="M709.6,176.6c0,0,0.9,4,1.8,6.2c0.9,2.2,0-6.2,0.9,2.2c0.9,8.4,0.9,8.4,0.9,8.4s-3.5,6.7-0.9,8.9"/>
      <path class="st1 file-4-element-119" d="M752.2,337.6c0,0-0.4-4.9,0-9.8c0.4-4.9,0.4-6.7-1.3-10.6c-1.8-4-1.8-4-1.3-12c0.4-8,0-10.2-0.4-12"/>
      <path class="st1 file-4-element-120" d="M760.6,399.7c0,0-2.2-8-1.8-12.9c0.4-4.9,1.3,5.3,0.4-7.1s-1.8-8.9-0.9-12.4c0.9-3.5-0.4-6.7-0.4-6.7"/>
      <path class="st1 file-4-element-121" d="M730.5,261.3c0,0-1.8,4-0.4,6.7c1.3,2.7,2.7,3.1,0.9,5.8c-1.8,2.7-1.3,1.8-0.4,5.8c0.9,4,0.9-0.4,0.9,4"/>
      <path class="st1 file-4-element-122" d="M692,74.2c0,0-11.2-13.9-16.5-2.4c0,0-2.6-4.8-8.4-3.3c-5.7,1.4-4.5,6.9-4.5,6.9s-4.8-2.9-7.9,1
				c-3.1,3.8-1.9,9.3-1.9,9.3s-7.4-2.2-9.3,5.5s1.2,9.6,1.2,9.6s-6.2,4.1-2.9,10.5c3.3,6.5,7.9,3.3,7.9,3.3s-3.1,2.6,1,8.4
				c4.1,5.7,8.1,1,8.1,1s-1,6.5,4.5,9.6c5.5,3.1,9.1-3.3,9.1-3.3s1.2,7.2,6,7.2s5.5-8.1,5.5-8.1s2.4,8.9,9.8,6c0,0,6.2,3.1,5.5-6
				c0,0,13.2,7.4,14.1-4.3c0,0,9.3,4.5,11-4.8c0,0,13.2-1.2,9.6-11.5"/>
      <path class="st1 file-4-element-123" d="M659.5,102.9c0,0-4.8,5.7,2.4,9.1"/>
      <path class="st1 file-4-element-124" d="M680.1,119.9c1.4,0.2,1,6.2,10.8,1.7"/>
      <path class="st1 file-4-element-125" d="M740.6,106.2c0,0-3.6,5.3-0.2,9.8c3.3,4.5,7.2,0.5,7.2,0.5s-2.4,9.1,4.5,11.2c6.9,2.2,7.2-7.4,7.2-7.4
				s-1,6,6.7,6.7c7.7,0.7,4.1-6.9,4.1-6.9s4.5,6.2,8.9-0.7c4.3-6.9-1.7-9.3-1.7-9.3s4.8-4.1,1.2-7.9c-3.6-3.8-6.9-1.2-6.9-1.2
				s5.5-11.7-3.1-11.5c0,0,1-6.9-5.7-6.7c0,0,3.6-7.7-5.5-8.6"/>
      <path class="st1 file-4-element-126" d="M753.3,113.4c0,0,3.8,6,9.3,1.4"/>
      <path class="st1 file-4-element-127" d="M663.5,60.3c0,0-5.5-27.5-8.6-36.8s-2.9-10.3-5.5-11.7c-2.6-1.4-6,0-9.8,2.9s-25.1,11-31.1,12.7"/>
      <path class="st1 file-4-element-128" d="M603,11.3c0,0,2.2-0.5,9.8-3.1s14.8-6.7,20.8-10s7.7-8.6,7.7-8.6s2.4-9.6-1.7-20.3"/>
      <path class="st1 file-4-element-129" d="M703,7c0,0-3.6,9.1,1.9,10.3c5.5,1.2,0.2,7.9,8.6,7.7c8.4-0.2,9.3-3.3,9.3-3.3s0.5,6.5,5.7,6.2
				c5.3-0.2,4.8-6.2,4.8-6.2s2.2,5.5,7.2,5.5c5,0,5.3-6.2,5.3-6.2s6.9,7.2,12.2,1.2s1.4-10.3,1.4-10.3s6.9-1.2,6-7.7
				c-1-6.5-7.7-6-7.7-6s-0.7-9.8-10.8-7.2c0,0-0.7-9.3-9.8-8.9c-9.1,0.5-10,9.1-10,9.1s-2.6-3.6-8.4-1c-5.7,2.6-2.9,6.7-2.9,6.7
				s-5.3-3.3-7.9,0.2S703,7,703,7z"/>
      <path class="st1 file-4-element-130" d="M699.2,73.9c0,0,6.5-6,12.2-2.2c0,0,4.3-3.3,9.6,0.5c0,0-0.2-6.7,5-7.7"/>
      <path class="st1 file-4-element-131" d="M729.8,50.3c0,0-5.3,12,1.7,13.2c0,0,5.5,11,12.2,5.5c0,0,6.5,11.5,13.4,2.6c0,0,5,1.4,8.4-3.6
				c3.3-5-1-9.8-1-9.8s7.4-2.6,5.3-10.3s-8.9-5.3-8.9-5.3s0.2-4.3-4.8-6s-6.9,2.9-6.9,2.9s-1.2-4.1-4.3-3.6c0,0-5.3-2.6-7.4,1.4
				C737.5,37.3,726.9,41.4,729.8,50.3z"/>
      <path class="st1 file-4-element-132" d="M741.5,62.9c0,0,1.2,5,6.5,2.4"/>
      <path class="st1 file-4-element-133" d="M739.4,88.1c0,0,4.1,8.6,10.8-0.5"/>
      <path class="st1 file-4-element-134" d="M700.2,103.4c0,0,1.7,9.1,11.5,4.1"/>
      <path class="st1 file-4-element-135" d="M736.3,15.6c0,0,7.7,4.5,11.5-2.4"/>
      <path class="st1 file-4-element-136" d="M604.9,24.7c0,0,4.8-6.9-0.2-9.6c0,0-0.5-4.8-4.5-5c0,0,4.1-4.8-1.2-10s-9.6-0.2-9.6-0.2s-3.8-6.7-9.8-0.5
				c0,0-2.6-4.1-6.5-3.8c-3.8,0.2-5.5,3.1-5.5,3.1s-5.3-6.2-8.1-5.3c-2.9,1-4.1,5.7-4.1,5.7s-12.7-6-14.4,5.7c0,0-10-1-8.1,9.6
				c0,0-4.1-3.1-10,3.1S520.2,28,520.2,28s-6.9-1.7-7.7,6.5c0,0-9.6,7.2-2.9,13.6c0,0-4.5,4.5-0.2,6.5c0,0-2.9,4.3,0.7,8.1
				s7.7-0.7,7.7-0.7s0.5,7.9,7.4,4.1c0,0,6.2,9.6,12.7,1.2c0,0,2.9,4.5,6.7,0.7c0,0,5.3,7.9,10.5,0.7c0,0,1.7,4.8,6.2,4.5
				c4.5-0.2,6.2-5,6.2-5s6,9.8,12,2.2c0,0,10,4.1,11.7-5.5c0,0,4.3,1,7.2-3.8s0.7-7.7,0.7-7.7s6.7,0,8.1-4.5c0,0,5.3-2.4,1.4-8.1
				c0,0,2.9-10-3.6-10.8"/>
      <path class="st1 file-4-element-137" d="M520.5,51.7c0,0-2.2,5.5,4.8,6.2"/>
      <path class="st1 file-4-element-138" d="M559.9,62.5c0,0,6.7,5.3,10.5,0"/>
      <path class="st1 file-4-element-139" d="M591.8,54.1c0,0,6.5-1,5-8.4"/>
      <path class="st1 file-4-element-140" d="M576,17.2c0,0,3.1-6.9,11-2.2"/>
      <path class="st1 file-4-element-141" d="M547.7,26.6c0,0,1.4-7.7,9.3-6"/>
      <path class="st1 file-4-element-142" d="M567.4,40.2c0,0,4.8,4.1,10.3-4.3"/>
      <path class="st1 file-4-element-143" d="M685.8,47.1c0,0-0.2-5.3-1.9-6.7s-1.4-1.9-1-4.1c0.5-2.2,1.2-1-0.7-3.3c-1.9-2.4-1.2-4.1-1.4-6.5
				s1-1.4-1.2-3.6s-0.7-4.5-1-6.5"/>
      <path class="st1 file-4-element-144" d="M705.4,57c0,0-2.9-7.9-5-9.1s-0.2,1.4-0.7-3.1s1-1.4-1.7-5.7c-2.6-4.3,0.2-3.1-1.2-6.5
				c-1.4-3.3,0.7,0-1.4-3.3"/>
      <path class="st1 file-4-element-145" d="M679.6-9.6c0,0-0.5,3.6,1.9,6.7s2.9,1.4,2.2,5.5s-4.5,0.7-0.7,4.1s3.8,1.7,3.8,5.7s-1.9,1.7,0,5.5
				s1.4,3.8,1.7,6.5"/>
      <path class="st1 file-4-element-146" d="M672.6,52.2c0,0-1.4,0,1,2.9c2.4,2.9,2.6,1.9,1.9,4.3c-0.7,2.4-0.2,2.9,0.2,4.1c0.5,1.2,1,4.8,1,4.8"/>
      <path class="st1 file-4-element-147" d="M601.3,224.2c0,0-0.4,8.9-3.8,18.4"/>
      <path class="st1 file-4-element-148" d="M599.6,366.6c0,0-5,3.9-11.1,6.9c-6.2,3-14.9,6.6-17,5.1l-16.8,4.9c0.2-5.5-4.3-14.4-8.1-16.5
				s-2.2-5.7-2.2-5.7s-2.4-0.2-2.2-3.3c0,0-4.5-5.7-10.5-6.5c0,0,6.7-6.7,16.3-9.1s21.5-3.1,21.5-3.1s7.4,0.7,12,7.2"/>
      <path class="st1 file-4-element-149" d="M581.5,349.1c-20.6,3.6-34.9,10.5-34.9,10.5"/>
      <path class="st1 file-4-element-150" d="M547,362.3c0,0,0.5,2.2,3.8,3.6s4.8,7.4,5.3,12.2"/>
      <path class="st1 file-4-element-151" d="M545.4,356.5c0,0,1.4-3.6-8.1-6.5"/>
      <path class="st1 file-4-element-152" d="M501.3,248.6c-1.4,4.3-11.2,8.1-6,29.2c0,0,6.2,14.6,13.4,15.8s13.4,1,16.7-4.1c3.3-5,5.7-15.1,4.1-24.6
				c-1.7-9.6-7.2-12.1-9.3-14.1c-5.5-5-9.6-2.4-15.3-4.1"/>
      <path class="st1 file-4-element-153" d="M517.4,275.9c0,0,3.8,0.2,2.4-3.1s-1.4-3.3-1.4-3.3"/>
      <path class="st1 file-4-element-154" d="M517.8,284c0,0,3.6-1.2,5.3-3.3"/>
      <path class="st1 file-4-element-155" d="M501.8,272.1c0,0,2.6-2.6,5.7-3.1"/>
      <path class="st1 file-4-element-156" d="M522.4,263.2c0,0,1.7-2.2,4.8-2.6"/>
      <path class="st1 file-4-element-157" d="M498.5,267.5c0,0,3.3-4.3,7.9-4.5"/>
      <path class="st1 file-4-element-158" d="M517.6,260.1c0,0,4.1-3.3,7.4-3.6"/>
      <path class="st1 file-4-element-159" d="M527.6,299.8c0,0,4.5-10.8,3.1-31.8c-1.4-21.1-14.6-25.8-23-27c-8.4-1.2-20.3,2.4-23.7,21.5
				c-3.3,19.1,1.9,31.1,1.9,31.1"/>
      <path class="st1 file-4-element-160" d="M498.2,246.2c0,0-4.8-0.5-8.9,10.3c-4.1,10.9,0.5,29,5.3,35.6"/>
      <path class="st1 file-4-element-161" d="M503,290.5c0,0,7.7,6.5,11,7.7"/>
      <path class="st1 file-4-element-162" d="M507.5,299.8c0,0-14.4-6.9-25.8-4.1s-15.1,23.4-15.1,38c0,14.6,2.6,29.2,4.8,31.8
				c2.2,2.6,23.2,12.4,32.3,13.2"/>
      <path class="st1 file-4-element-163" d="M486.7,328.8c0,0-1.4,20.1,0.2,22.5"/>
      <path class="st1 file-4-element-164" d="M480.8,357.7c0,0,5.7-5,8.4-3.3c5.3,3.4,12.2,4.8,25.4,9.1"/>
      <path class="st1 file-4-element-165" d="M478.1,370.4c0,0-10.5,26.3-12,47.6s0.5,45.2-3.8,56.9c-4.3,11.7-11.2,24.9-5.7,28.2
				c5.5,3.3,10-0.2,14.8,1.7c4.8,1.9,6.9,1.2,6.9,1.2"/>
      <path class="st1 file-4-element-166" d="M466.6,326.4c0,0-1.7-27-1.7-35.9c0-8.9,3.1-27.3,0-36.4c-3.1-9.1-8.1-13.9-11.5-15.3
				c-3.3-1.4-5.5-1-7.2-3.8"/>
      <path class="st1 file-4-element-167" d="M458.7,253.6c0,0,3.3,12,2.2,29c-1.2,17,1.4,36.4,2.2,38.3"/>
      <path class="st1 file-4-element-168" d="M421.9,331.4c0,0,29-12.7,38.8-39.5"/>
      <path class="st1 file-4-element-169" d="M417,279.2c0,0,28.6-3.3,31.2-41.8"/>
      <path class="st1 file-4-element-170" d="M426,224.4c0,0,0.3,7.4-9.8,15.8c-6,5-12.9,7.2-16.3,19.6s-1.4,29.7-1.9,37.8c-0.5,8.1-1.2,16.7,0,20.3
				s15.3,25.6,17.5,36.8c0,0-0.5,5.7,0,7.2"/>
      <path class="st1 file-4-element-171" d="M421.2,268.9c0,0-5,6.2-5.5,11c-0.5,4.8-1.4,20.1-1.4,25.8c0,5.7,0,5.7,0,5.7"/>
      <path class="st1 file-4-element-172" d="M411.1,310.3c0,0,3.3,0.5,5.5,9.8c2.2,9.3,4.5,22.5,6.9,28c2.4,5.5,6.2,6.7,8.1,9.8
				c1.9,3.1,5.7,10.5,4.8,12.4c-1,1.9-5.3-4.5-6-4.8"/>
      <path class="st1 file-4-element-173" d="M423.8,296.5c0,0,23.4-20.6,25.4-35.2"/>
      <path class="st1 file-4-element-174" d="M457.1,242.4c0,0,4.1,17.9-5.5,33.3"/>
      <path class="st1 file-4-element-175" d="M404.7,333.3c0,0-1.2,10.8-3.6,15.3c-2.4,4.5-0.2,8.9-0.2,8.9s6.7-7.4,6.5-4.5s0.5,0.7,1.7,2.4s-1,1,1.2,1.7
				s5.3-2.2,5.3-2.2"/>
      <path class="st1 file-4-element-176" d="M433.1,354.4c0,0,4.1-5,5-3.1c1,1.9,0,3.1,2.4-2.4c2.4-5.5,3.6-3.8,4.8-2.9c1.2,1,1.4,0.7,3.3-3.1
				c1.9-3.8,2.9-1.7,4.3-0.5s1.9,0.2,3.8-3.6c1.9-3.8,1.9-2.6,2.9-5.3c1-2.6,1.9-9.8,3.1-8.9"/>
      <path class="st1 file-4-element-177" d="M421.2,421.3c0,0,2.4,5.7,2.6,9.1s1,4.1,2.6,0.7c1.7-3.3,3.1-2.6,5.7,1.2s3.8,2.6,6.2,0.2
				c2.4-2.4,3.3-1.7,6.2,0.2s1,3.3,4.1,0.5c3.1-2.9,1.7-0.2,5.5-0.5s3.6,3.6,5.3-0.2s1.7-3.8,1.7-3.8l3.6,1.7"/>
      <path class="st1 file-4-element-178" d="M434.6,435.2c0,0,1.2,7.4,0.2,12.7c-1,5.3-1.2,8.4-2.2,16.5s-0.5,26.8-0.5,26.8"/>
      <path class="st1 file-4-element-179" d="M455.6,432.8c0,0,1.9,6,0.5,11.5c-1.4,5.5-2.6,17.2-2.9,24.2c-0.2,6.9-1,20.6-0.7,22.5s0.2,4.5,1.2,4.8"/>
      <path class="st1 file-4-element-180" d="M455.2,505.6c0,0-2.9-4.5-3.6-5.7s-1.2-0.2-1.9,3.1c-0.7,3.3-0.5,0.5-1.7-1.7s-1-2.9-2.2,0s1,3.1-1.2,2.9
				s-2.7-3.4-3.3-2.9c-2.4,2.2-5.7,1-5.7,1"/>
      <path class="st1 file-4-element-181" d="M439.8,502.9c-3.3-1.7-2.6-6.3-1.4-8.7c1.2-2.4,1.7-6.7,1.7-6.7s0-11.2-2.4-25.8
				c-1.8-10.7,1.8-19.3,1.6-22.9c-0.2-4.1,0.2-7.4,0.2-7.4"/>
      <path class="st1 file-4-element-182" d="M443.9,495c0,0-2.6-2.4,0.5-3.8"/>
      <path class="st1 file-4-element-183" d="M418.8,326.8c0,0,14.1-5.7,22.7-17.5"/>
      <path class="st1 file-4-element-184" d="M417.1,417.3c0,0,5.3,2.2,9.3,3.1c4.1,1,6.7-0.5,6.5-2.9c-0.2-2.4,1.2-4.3,1.9-4.8s-1.2-2.6-1.2-2.6"/>
      <path class="st1 file-4-element-185" d="M435.5,409.1c0,0,1.7-0.2,1.2-2.2s-0.7-3.1,1.4-3.6c2.2-0.5,2.9-1.9,1.9-4.1s-3.3-7.2-3.1-9.6
				s2.4-9.8-2.9-13.6c0,0-6.2,0.5-5.7,8.1c0.5,7.7-0.5,19.1-6.7,23.7c-6.2,4.5-6.7,18.2-7.7,22.3c-1,4.1-8.4,3.6-9.6,6.5"/>
      <path class="st1 file-4-element-186" d="M434.6,388.8c0,0-2.6,2.6-3.3,2.9s2.4,1,2.4,1"/>
      <path class="st1 file-4-element-187" d="M404.9,432.6c0,0-2.9,1.2-5.5,4.8c-2.6,3.6-4.8,1.9-4.1-0.2c0.7-2.2,1.7-5.3-6.5,1.9c-8.1,7.2-7.9,5-6.5,0.5
				"/>
      <path class="st1 file-4-element-188" d="M387.2,431.9c0,0-8.1,6.5-11.2,11s-2.4-1-1.2-4.5c1.2-3.6-2.9-1.2-6,1.7c-3.1,2.9,5.7-13.2,10.5-17.5"/>
      <path class="st1 file-4-element-189" d="M364.5,439.3c0,0,2.4-6.5,5.5-10.5"/>
      <path class="st1 file-4-element-190" d="M372.6,422.5c0,0-8.4,9.6-11,13.4c-2.6,3.8-3.6,2.6-1.7-1.9c1.9-4.5,2.2-9.8,7.4-16.5
				c5.3-6.7,15.6-16,15.6-16"/>
      <path class="st1 file-4-element-191" d="M383.6,394.1l-1.9,5.7c0,0,9.3,5.7,25.8-5.5c16.5-11.2,20.3-23,20.3-23l-3.6-5.3c0,0-7.2,14.1-19.4,21.1
				C392.7,394.1,383.6,394.1,383.6,394.1z"/>
      <path class="st1 file-4-element-192" d="M385.5,391.2c0,0-4.1-15.1,11.7-27c12.7-9.6,25.4,2.4,25.4,2.4"/>
      <path class="st1 file-4-element-193" d="M422.9,390c0,0,0,9.8-5,15.3c-5,5.5-5.3,18.4-5.3,18.4"/>
      <path class="st1 file-4-element-194" d="M403.7,410.1c0,0,0,7.7-6.7,13.6"/>
      <path class="st1 file-4-element-195" d="M414,430.2c0,0,11.7,14.4,8.9,28.2s9.3,35.6,11,39.7c1.7,4.1-21.8,33.7-65.3,48.8l-1.4-3.3"/>
      <path class="st1 file-4-element-196" d="M414.7,467.5c0,0-4.1,15.8-0.2,25.6"/>
      <path class="st1 file-4-element-197" d="M360.4,456.8c0,0-10,4.5-22.3,27.3C326,506.8,325,525.7,325,525.7"/>
      <path class="st1 file-4-element-198" d="M366.4,539.3c0,0,10.3-29.2,24.2-46.2"/>
      <path class="st1 file-4-element-199" d="M367.3,524.5c0,0,7.4-46.4,24.9-62.2"/>
      <path class="st1 file-4-element-200" d="M423.1,513.7c0,0,2.2,11.2,2.6,15.1s4.1,4.8,4.1,11.5c0,6.7,0.7,10.3,1.2,12.4s2.9,15.8,2.9,15.8"/>
      <path class="st1 file-4-element-201" d="M405.9,528.5c0,0,1.2,4.8,1.4,6.2s-1,5.3,1.2,9.3c2.2,4.1,4.1,12.2,4.1,12.2"/>
      <path class="st1 file-4-element-202" d="M359,437.1c0,0-21.3,11.7-34,45.5c-12.7,33.7-17.9,53.6-18.4,79.7s8.9,46.4,24.6,51.4"/>
      <path class="st1 file-4-element-203" d="M384.6,539.3c0,0,5-1,7.2,4.8c2.2,5.7,1,3.8-1.7,8.6"/>
      <path class="st1 file-4-element-204" d="M392.5,547.4c0,0,6-2.2,11.2,2.4c5.3,4.5,7.7,8.1,12.9,10.3c5.3,2.2,19.9,9.1,27.3,14.1
				c7.4,5,30.6,14.8,33.5,29.2S463,628.1,463,628.1"/>
      <path class="st1 file-4-element-205" d="M396.1,527.1c0,0,20.6-10.3,31.6-28.2"/>
      <path class="st1 file-4-element-206" d="M387.7,539.8c0,0,6,3.1-4.5,15.8"/>
      <path class="st1 file-4-element-207" d="M313.3,340c0,0,14.6,6,17.2,1.4s2.6-9.6,3.8-13.4s2.4-11.7,0.2-17c-2.2-5.3-1.7-5.7-1.2-7.4s-1.9-9.8-5-11.5
				"/>
      <path class="st1 file-4-element-208" d="M328.8,290c0,0-4.5,1.2-5.7,4.8c-1.2,3.6-1.4,5.3-5.5,4.1s-12.2,5.5-11.2,16.5s5.7,22.5,1.7,31.6
				c-4.1,9.1-0.7,1.4-2.6-3.1c-1.9-4.5-3.6,7.9-6.7,10.8c-3.1,2.9,2.4-4.3,0-9.8c-2.4-5.5-6.5,11.7-2.6,16.5c3.8,4.8-5.5-1.2-6-11.2
				c-0.5-10,0,8.9-6.5,13.4s2.4-5.5,2.4-20.6s-8.4-37.3,7.9-51.9C310.2,276.4,328.8,290,328.8,290z"/>
      <path class="st1 file-4-element-209" d="M320.4,342.4c0,0,3.6,3.1,3.1,12s-0.2,12.4-0.2,12.4s-5-7.4-8.1-8.9c-3.1-1.4-7.2-11-7.2-11"/>
      <path class="st1 file-4-element-210" d="M330.7,343.4c0,0,6-0.2,8.6,5.5c2.6,5.7,4.1,20.6,4.3,26.8"/>
      <path class="st1 file-4-element-211" d="M281.4,364.2c0,0-11,8.9-11.2,19.6s-0.7,16.7,1,20.3c1.7,3.6,2.6-2.2,2.6-7.2c0-5,2.2,0.7,4.3,4.3
				c2.2,3.6,3.1-2.6,2.6-6.9c-0.5-4.3,1.4,4.8,2.4,7.9c1,3.1,1.9-3.1,3.6-8.4c1.7-5.3,4.5,6.2,6.7,8.6c2.2,2.4,1-8.4,1-12.4
				c0-4.1,5,9.6,4.8,12.7c-0.2,3.1,0.7-4.8,3.1-6.5c2.4-1.7,4.8,8.1,6.7,8.9s-0.5-6.5,3.3-9.8c3.8-3.3,3.1,2.2,4.8,5.3
				s1.9,0.7,3.3-4.3c1.4-5,4.1-0.7,5,3.6c1,4.3,2.4-4.8,3.3-7.7c1-2.9,3.3,3.6,3.3,3.6l1.7-1.9"/>
      <path class="st1 file-4-element-212" d="M275.9,400.3c0,0,3.6,15.1,8.1,23.7c4.5,8.6,11,13.2,13.6,12.4s8.6-2.9,9.3-2.9s13.4-5.7,24.6-14.8
				s14.8-11.7,14.8-11.7s6.5,1,10.5-4.3c4.1-5.3,11.7-9.5,10.8-11.7c-1-2.4-5.2,0.7-8,3.6"/>
      <path class="st1 file-4-element-213" d="M295.8,402.7c0,0,3.1,7.9,4.8,11.5"/>
      <path class="st1 file-4-element-214" d="M299.4,418.7c0,0,5-6.5,12-8.1c6.9-1.7,18.4-6,22.5-10c4.1-4.1,2.4-6.7,6.5-11c2.3-2.5,4.8-6.5,5.4-7.2
				c0.4-0.6,1.1-0.9,1.8-0.9c0.8,0,1.6,0.3,1.7,1"/>
      <path class="st1 file-4-element-215" d="M342.9,391.9c0,0,10.8-14.7,12.8-15.2c2.4-0.6,3.4,1.8,0.6,5.4c-2.9,3.6-5.3,6.7-5.3,6.7"/>
      <path class="st1 file-4-element-216" d="M351.1,388.8c0,0,10.8-12.4,13.2-8.8c1.9,2.8-9.4,12.2-9.4,12.2"/>
      <path class="st1 file-4-element-217" d="M360.8,393.6c0,0,7.7-6.4,6.5-8.3c-1.4-2.3-4.4-0.6-11.3,6"/>
      <path class="st1 file-4-element-218" d="M304.7,298.6c0,0-5.6,5.6-3.6,15.6c2,10,1,21.5,1,21.5"/>
      <path class="st1 file-4-element-219" d="M310.6,319.3c0,0,4.1-5.3,8.8-6.1"/>
      <path class="st1 file-4-element-220" d="M327,309.8c0,0,2.4-2.4,5.4-2.7"/>
      <path class="st1 file-4-element-221" d="M325.7,323.2c0,0,2.7-0.5,2.9-2c0.2-1.5-1.9-4.2-1.9-4.2"/>
      <path class="st1 file-4-element-222" d="M326.5,331c0,0,3.9-1.4,4.9-2.9"/>
      <path class="st1 file-4-element-223" d="M346.7,410.5c0,0,1.5,17.6,1,25.9c-0.5,8.3-1.5,7.8-3.1,3.4c-1.5-4.4-3.4-0.8-4.6,2.7
				c-1.2,3.6-2.5,1.9-3.9-2.9c-1.4-4.7-4.4-3.1-4.6,1c-0.2,4.1-1,5.3-3.1,1.2c-2-4.1-3.4-1.5-4.6,0.8c-1.2,2.4-2.7-0.3-3.6-3.2
				c-0.8-2.9-3.7,0.7-4.6,2s-4.2-2-6.3,0.8s-3.4,0.2-3.6-1.7c-0.2-1.9-1.7-0.5-2.4,0c-0.7,0.5-3.1-1.5-3.1-1.5"/>
      <path class="st1 file-4-element-224" d="M284.7,430.8c0,0-1.4,2.4-2.7,6.6c-1.4,4.2-0.2,3.4,1.7,1.2s2.9-1.5,2.5,1.5s2,2.7,3.9,0.5s4.7-0.7,5.4-0.3
				c0.7,0.3,2.2-0.5,2.2-0.5"/>
      <path class="st1 file-4-element-225" d="M285.2,441.6c0,0-6.8,26.9-5.3,34.7c1.5,7.8-2.2,19.7,0.2,25.6c2.4,5.9,8.1,5.8,7.1,9.8"/>
      <path class="st1 file-4-element-226" d="M281.1,504.2c0,0-1.2-6.9-2-7.1c-11.1-2.2-16.1-3.9-19.7,0.8c-2.5,3.3-5.9,17.3-5.3,22.5
				s15.8,11.5,31.5,16.8c20.6,6.9,22.3,3.5,23,2.8"/>
      <path class="st1 file-4-element-227" d="M292.6,450.8c0,0-1.7,4.9-1.9,19.5c-0.2,14.6-2.9,18.8-3.6,19.8"/>
      <path class="st1 file-4-element-228" d="M279.9,504.7c0,0,4.6,5.8,1.7,9.8"/>
      <path class="st1 file-4-element-229" d="M267,494.2c0,0-2.9-3.1-7.8-3.2c-4.9-0.2-6.5,3.1-8.1,7.3c-2,5.3-2,14.6-3.1,20.5c-1,5.8-5.7,9.5,8.9,14.4
				c1,0.3,2.2,0.3,3.2-0.2c1.4-0.7,4.8-1.5,1.5-5.5"/>
      <path class="st1 file-4-element-230" d="M250.8,523.8c0,0,2.5-1.5,4.4-1.2"/>
      <path class="st1 file-4-element-231" d="M266.2,493.8c0,0,8.1-6.6,13.4,1.4"/>
      <path class="st1 file-4-element-232" d="M441.7,227c0,0,4.4,5,10.1,6.8c5.7,1.8,8.5,1.7,8.6-0.2s2-5.9,2.9-6.5c0.9-0.6,0.1-2.9-1.5-3.4"/>
      <path class="st1 file-4-element-233" d="M463.1,224.5c0,0,2.4-0.1,2.3-1.3s0.3-3.6,1.5-4.3c1.2-0.7,3.4,0.1,4.3-0.6c0.9-0.7-2.4-6.5-1-10.3
				c1.4-3.8,4.5-7.5,2.7-15.2"/>
      <path class="st1 file-4-element-234" d="M466.2,204.7c0,0-2.9-4.1-5.4-4.1"/>
      <path class="st1 file-4-element-235" d="M462.5,207.1c0,0-1.5-1.1-1.9-0.5c-0.4,0.6,0.6,1.2,0.6,1.2"/>
      <path class="st1 file-4-element-236" d="M427.6,268.9c-0.8-6.4,3.8-5.5,6.6-10.5c2.8-5-1.4-6.1-4.6-9.8c-3.2-3.7,0-6.9,4-10.6c4-3.7,0.3-8.4,0.3-8.4
				c1.4-5.6,7.7-14.1,14.8-16.7c7.1-2.6,7-10.8,10.9-18.1s14.9-3.7,14.9-3.7s-1.7-9.5-20.5-15.9s-29.5,8.6-31.8,15.4
				c-2.3,6.8-3.3,15.9,0.6,22.5c3.9,6.7,6.4,11.9,5.3,16.4c-1.1,4.4,3.9,10.8,6,13s1.5,6.5-2.6,10.3c-4.6,4.2,0.3,7.5,0.3,14.9"/>
      <path class="st1 file-4-element-237" d="M446.5,177.9c0,0-17.1,4.5-20.5,23.8"/>
      <path class="st1 file-4-element-238" d="M438.4,211.4c0,0-6.2,6.3-6.8,16.4"/>
      <path class="st1 file-4-element-239" d="M457.9,370.8c0,0,1.6,10.4-1,19.2"/>
      <path class="st1 file-4-element-240" d="M449.6,393c0,0,0,17.6-2.6,25.4"/>
      <path class="st1 file-4-element-241" d="M477,393c0,0-3.6,19.7-2.6,29.5"/>
      <path class="st1 file-4-element-242" d="M461,495.6c0,0,5.2-3.6,11.4,1.6s6.2,5.2,6.2,5.2"/>
      <path class="st1 file-4-element-243" d="M470.3,469.2c0,0,1,9.3-4.1,15.5s3.6,2.6,7.8,4.1"/>
      <path class="st1 file-4-element-244" d="M588.9,200.6c0,0,0,0-2.8,1c-2.8,1-3.4-0.3-6.5,0.8c-3.1,1-3.9-0.8-10.6-0.3c-6.7,0.5-2.6,0-7.7,1.8
				c-5.2,1.8-2.8-0.5-8,1c-5.2,1.5-5.4-1.8-9.3-0.3s-4.4-2.1-8.8-1s-2.1-0.5-6.2,0.8c-4.1,1.3-2.6-0.3-6.7-0.5
				c-4.1-0.3-3.6-2.1-7.7,0s-16.8-0.8-16.8-0.8V112l-23.2-40.5V50.1l-7.7,0.3l-0.5,21.2l-27.1,40.3l-1,60.4"/>
      <path class="st1 file-4-element-245" d="M649.6,198.3c0,0,1.3-0.3,5.7-0.5c4.4-0.3,4.4,1.8,8,0.5c3.6-1.3,5.9,1.3,9.8-0.3s0.3-1.8,7-1.8
				c6.7,0,8,1.5,10.1,1.3"/>
      <path class="st1 file-4-element-246" d="M474.5,122.7v18.6c0,0,5.9,1.1,7.2,0.3c1.3-0.9,0.5-19.8,0.5-19.8L474.5,122.7z"/>
      <path class="st1 file-4-element-247" d="M452.3,123.7l8-0.5c0,0,0.3,15.2,0,17.6c-0.3,2.3-8.8,1-8.8,1L452.3,123.7z"/>
      <path class="st1 file-4-element-248" d="M472.5,161l0.8,19.4c0,0,6.2-0.3,7.5-0.3c1.3,0,0.3-18.6,0.3-18.6L472.5,161z"/>
      <path class="st1 file-4-element-249" d="M728.8,419.4c0,0-2.6,11.3,1,17c3.6,5.7-3.1,11.9-3.1,11.9"/>
      <path class="st1 file-4-element-250" d="M756.1,424.6c0,0-2.1,20.1,2.1,30.9"/>
      <path class="st1 file-4-element-251" d="M194.1,445.9c0,0,8.7,0.3,11.2-2.5s-1.6-4.9-1.6-8.2c0-3.3-3.6-3.4-2.2-3.3c2.7,0.3,1.1-4.4,0-6
				c-1.1-1.6-0.3-3.8,2.5-5.5c2.7-1.6-0.8-4.4-4.1-5.7c-3.3-1.4-3.6-1.1-4.6-5.7c-1.1-4.6-6.3-6.6-6.3-6.6s-4.1,6.8-5.2,15.9
				s0.3,27.3,11.2,35.5s5.2,12.6,5.2,12.6s-0.5-6.6-5.5-6.6"/>
      <path class="st1 file-4-element-252" d="M193.8,412.8c0,0-1.9,1.1-2.7,2.7l2.5,0.3"/>
      <path class="st1 file-4-element-253" d="M188.9,402.4c0,0-7.4-5.7-17.5-4.4c-10.1,1.4-21.9,9.8-24.3,23.5c-2.5,13.7-1.1,41.3-5.5,47.8
				c-4.4,6.6,2.2,1.9,4.6-2.7"/>
      <path class="st1 file-4-element-254" d="M150.9,464.7c0,0,1.4,6.3-6.6,7.9"/>
      <path class="st1 file-4-element-255" d="M148.2,473.5c0,0,7.1,1.9,9.6-6.6"/>
      <path class="st1 file-4-element-256" d="M157.5,469.4c0,0,3.8,4.6,3.6,9.3s4.4-6.3,2.7-14.2"/>
      <path class="st1 file-4-element-257" d="M164.9,468.8c0,0,4.1,6.6,4.4,1.6c0.3-4.9-2.2-10.9-2.2-10.9"/>
      <path class="st1 file-4-element-258" d="M170.1,460.6c0,0,4.9,5.7,10.7,7.4"/>
      <path class="st1 file-4-element-259" d="M179.9,459.5c0,0,0.8,7.9,5.7,10.1"/>
      <path class="st1 file-4-element-260" d="M184.8,462.3c0,0,2.7,7.1,6.8,6.8"/>
      <path class="st1 file-4-element-261" d="M188.1,461.4c0,0,1.9,6.3,9.3,3.3"/>
      <path class="st1 file-4-element-262" d="M155,418.5c0,0-2.7,11.8,0,21.6s-2.2,17.2-2.2,17.2"/>
      <path class="st1 file-4-element-263" d="M177.2,427.3c0,0,3.6,17.5,9.8,24.9"/>
      <path class="st1 file-4-element-264" d="M202.6,463.6c0,0,16.7,8.7,21.9,23.2c5.2,14.5,7.1,31.7,6.3,44.8c-0.8,13.1-4.6,28.7-10.7,40.2
				c-6,11.5-7.4,11.2-7.4,15"/>
      <path class="st1 file-4-element-265" d="M141.6,469.4c0,0-8.5,1.4-16.1,20.8c-7.7,19.4-7.9,54.1-4.6,66.7c3.3,12.6,9.8,23.8,10.1,33.1
				s5.7,23.8,9.3,27.3"/>
      <path class="st1 file-4-element-266" d="M222.3,562.9c0,0,19.7-4.9,32-1.6c12.3,3.3,17.8,18.6,16.7,29c-1.1,10.4-17.2,23.2-26.8,35.3"/>
      <path class="st1 file-4-element-267" d="M225.8,495.9c0,0-1.6,1.9-1.6,4.9s-1.9,0.3-4.4-3.3c-2.5-3.6-3.8-1.1-3.6,4.1s-0.8,2.2-3.6-2.2
				c-2.7-4.4-4.9-0.3-4.9,5.5c0,5.7,1.9,5.7-2.5-2.2c-4.4-7.9-4.9-4.6-5.5,1.9c-0.5,6.6-0.8,6.3-3.8-1.1c-3-7.4-4.1-3-3.8,1.9
				s-0.8,5.7-3.3-0.3c-2.5-6-4.1-7.1-4.6,0.3c-0.5,7.4-2.2,7.7-3.6-0.5c-1.4-8.2-2.5-2.5-3.3,1.6c-0.8,4.1-1.4,7.9-2.5,0.3
				s-2.7-6.3-5.2,0.3c-2.5,6.6-0.8,4.6-3-2.5c-2.2-7.1-2.5-3.8-3.8,1.9c-1.4,5.7-3.3,3.3-4.1-2.7c-0.8-6-5.7,1.4-6,6.3
				c-0.3,4.9,3,2.2,0.3-4.9s-5.2-5.2-6.3-0.3s-2.5,3.3-3.6-2.5c-1.1-5.7-2.5-1.4-3.6,2.7c-1.1,4.1-1.4,5.5-4.1-1.1
				c-2.7-6.6-2.5-3.8-4.9,0.5c-2.5,4.4-3.6,5.5-5.5-0.5"/>
      <path class="st1 file-4-element-268" d="M121.7,524.9c0,0,6.6,5.5,6.8,1.6c0.3-3.8,0.5-6,2.2,0.3c1.6,6.3,2.7,9.8,3.8,3.3c1.1-6.6,2.5-8.5,4.1-2.2
				c1.6,6.3,4.4,7.9,5.7,3c1.4-4.9,3-4.9,4.4-0.3c1.4,4.6,3.3,5.7,4.6,0.3c1.4-5.5,2.7-4.6,3.6-1.4c0.8,3.3,1.6,5.2,3.3-0.5
				c1.6-5.7,6.3,0,7.7,2.7c1.4,2.7,1.6,2.5,2.5-1.6c0.8-4.1,3-6.3,4.1-1.6s1.9,7.1,3.8,1.1c1.9-6,4.4-4.9,5.5-0.8s4.6,2.5,5.5-1.4
				c0.8-3.8,1.1-5.5,3,0c1.9,5.5,3.3,8.2,4.4,1.6c1.1-6.6,0.3-11.2,3-5.5s3.8,8.5,5.2,1.6c1.4-6.8,2.5-7.4,4.6-2.5s3.3,3.6,4.6-2.7
				c1.4-6.3,2.5-7.9,4.6-1.6s0,11.8,3.6,2.5c3.6-9.3,5.5-3.3,6-1.4c0.5,1.9,0.5,0,0.8-2.7"/>
      <path class="st1 file-4-element-269" d="M218.4,535c0,0,1.1,6.6-2.7,26.5"/>
      <path class="st1 file-4-element-270" d="M158,542.1c0,0,0.3,17.5,4.6,29.5"/>
      <path class="st1 file-4-element-271" d="M127.7,576.5c0,0,7.4,1.6,12,18"/>
      <path class="st1 file-4-element-272" d="M220.1,571.9c0,0-1.1,10.7,1.4,15.3"/>
      <path class="st1 file-4-element-273" d="M256.2,594.6c0,0-12.6,11.2-16.4,21.6"/>
      <path class="st1 file-4-element-274" d="M497.8,203.2c0,0-7.2-2.2-11.2-0.8c-4,1.3,2,2.7-4,1.3c-6-1.3-6-1.3-6-1.3"/>
      <path class="st1 file-4-element-275" d="M120.8,496.3c0,0-2-91.1-2-107.7c0-16.6-2-27.9-2-46.6s4.7-38.6,3.3-55.9c-1.3-17.3-2.7-45.3-2-57.2
				c0.7-12-2-12.6,2-18.6c4-6,28.6-16,51.2-16s24.6,0.7,31.3,3.3"/>
      <path class="st1 file-4-element-276" d="M13.1,612.7c0,0,23.9-110.4,24.6-159.6c0.7-49.2,5.3-137.7,6-157s8.6-41.2,3.3-56.5s-4.7-37.9-10-49.2"/>
      <path class="st1 file-4-element-277" d="M205.1,183.4c0,0-2.9,5.8,0,8.7c0,0-4.9,10.7,0,13.6c0,0,5.8,14.4,16.5,5.4c0,0,14.4,5.4,18.1-3.7
				c0,0,11.5-1.6,10.3-12.4c0,0,0.4-7-3.3-8.2c0,0-4.1-11.5-14.8-7.8c0,0-9.5-1.2-12.8,2.1C219.1,180.9,208.3,176.8,205.1,183.4z"/>
      <path class="st1 file-4-element-278" d="M233.9,203.6c0,0,6.6,2.5,9.5-6.2"/>
      <path class="st1 file-4-element-279" d="M209.6,190.4c0,0-2.9,6.2,0,9.1"/>
      <path class="st1 file-4-element-280" d="M-21.5,176.9c0,0,19.6,25.8,33.7,17.6c0,0,7.6,5.7,12.5-3.1c0,0,20.7,3.8,24.5-14.5c0,0,14.1,15.1,21.2,3.8
				c0,0,25.6,3.1,31-21.4c0,0,7.1-1.9,6.5-16.4c0,0,28.8,8.8,33.7-9.4c0,0,14.1,5,19.6-9.4c0,0,10.3-4.4,9.8-17c0,0,3.3-27.1-9.2-34
				c0,0,3.3-25.2-10.9-22.7c0,0-8.2-23.9-15.8-20.8c0,0,1.1-17.6-13.1-17.6c0,0-12.5-13.9-20.7-1.3c0,0-4.9-17.6-15.2-11.3
				c0,0-6-21.4-28.8-17c0,0-3.3-13.2-24.5-10.7c0,0-9.8-20.8-34.8-8.2"/>
      <path class="st1 file-4-element-281" d="M96.2,169.9c0,0,17.2,19.5,29,13.2c0,0,31.8,12.2,40.4-10c0,0,8.2,8.6,13.2-2.3c0,0,20.4,12.2,27.2-1.8
				c0,0,21.3,5,21.3-16.3c0,0,17.2-5,14.5-20.9c0,0,19.1-5.9,14.1-25.4c0,0,8.2-3.6,4.1-16.8c0,0,9.1-9.5,2.3-22.7
				c0,0,8.2-14.1-4.5-22.2c0,0,2.3-10.4-7.7-10.9c0,0-2.7-11.3-11.8-10.9c0,0,5.9-13.2-5.4-17.7c0,0,4.1-8.6-6.4-13.2
				c0,0,5-11.3-10.4-12.2c0,0,2.7-14.5-9.1-15"/>
      <path class="st1 file-4-element-282" d="M205.1,192c0,0-12-5.1-32.2-4.3c-20.2,0.8-42,7.8-47,7.4c-4.9-0.4-7.8-9.9-7.8-9.9"/>
      <path class="st1 file-4-element-283" d="M87.6,144.8c0,0,14.4,3.7,19.4-12"/>
      <path class="st1 file-4-element-284" d="M116,170c0,0,4.5,8.2,12,4.5c0,0,13.2,5.8,17.7-2.1c0,0,19.8,5.4,29.7-13.2"/>
      <path class="st1 file-4-element-285" d="M242.6,112.7c0,0,9.5-3.3,6.6-18.1"/>
      <path class="st1 file-4-element-286" d="M145.3,100.3c0,0,11.5-3.7,6.2-18.1c0,0,4.9-10.7-6.2-14.8c0,0,0.8-6.6-4.9-6.2"/>
      <path class="st1 file-4-element-287" d="M235.6,63.2c0,0,3.7-2.1-1.2-10.7c0,0,1.6-7-4.9-10.7c0,0,2.5-15.7-13.2-17.7"/>
      <path class="st1 file-4-element-288" d="M22,134.5c0,0,3.3,12.4,14,8.7"/>
      <path class="st1 file-4-element-289" d="M169.2,141.5c0,0,7,8.2,18.1,1.2"/>
      <path class="st1 file-4-element-290" d="M92.5,36.4c0,0,4.5-9.1-10.7-9.9"/>
      <path class="st1 file-4-element-291" d="M34,577.3c0,0-1.6-6.2,0.8-6.6c2.5-0.4-0.8-3.3,0.4-7.8c1.2-4.5,0.4-2.5,2.5-7.8c2.1-5.4-0.8-7.8,1.6-10.7
				c2.5-2.9,0.4-2.9,2.1-7.8c1.6-4.9,1.2-5.8,2.5-8.2"/>
      <path class="st1 file-4-element-292" d="M49.6,538.5c0,0,2.9-12.4,2.1-16.5c-0.8-4.1,1.2-3.7,1.2-10.3c0-6.6-4.5-7.8-0.8-10.7
				c3.7-2.9,2.9-2.1,2.5-6.6s-0.4-3.3-0.8-7c-0.4-3.7-0.4,0,0.4-5.8c0.8-5.8,1.6-2.9,0.8-5.8c-0.8-2.9-1.2,2.5-0.8-2.9"/>
      <path class="st1 file-4-element-293" d="M108.2,231.8c0,0,4.5,15.7,2.9,19c-1.6,3.3-2.5,2.1-0.8,6.6c1.6,4.5-0.8,2.9-0.4,8.2
				c0.4,5.4-1.2,2.5,0.4,5.4c1.6,2.9-0.4,7-0.8,9.1c-0.4,2.1,0.4,4.9,0.4,4.9"/>
      <path class="st1 file-4-element-294" d="M103.2,278c0,0-1.6,7.8,0,11.1c1.6,3.3,2.9-0.4,0.4,5.8c-2.5,6.2-1.6,6.6-1.2,9.9s-1.2,7.4-2.1,11.5
				c-0.8,4.1-2.9,0-0.8,4.1c2.1,4.1,2.5,6.2,2.1,9.1s0,17.3,0,17.3"/>
      <path class="st1 file-4-element-295" d="M108.6,342.7c0,0,1.6,5.8,0.4,7c-1.2,1.2,1.2,5.8,1.6,9.5c0.4,3.7-2.9,4.5-2.1,9.5c0.8,4.9,0.8,7,1.6,9.9
				s1.2,2.5,0,5.4s-1.2,3.3-0.8,6.6s-1.6,11.1-1.6,11.1s0.4,2.1,0.8,3.3"/>
      <path class="st1 file-4-element-296" d="M83.4,605.7c0,0-0.4-6.6,0.4-10.3c0.8-3.7,0.4-3.7,0.4-5.8c0-2.1-2.9-1.6,0-4.5c2.9-2.9,0.4-4.9-0.4-8.2
				c-0.8-3.3-1.6-2.1,0-5.4c1.6-3.3,0-3.3,0-7.8s1.2-8.2,1.2-9.5"/>
      <path class="st1 file-4-element-297" d="M52.9,198c0,0,0.8,10.3,1.6,13.2c0.8,2.9,1.2,4.9,1.2,10.3s-0.8,4.5,1.6,7s1.6,1.6,1.6,5.8
				c0,4.1-2.1,0,0,4.1c2.1,4.1,2.1,2.1,1.2,6.2c-0.8,4.1-2.1,4.1-0.8,7"/>
      <path class="st1 file-4-element-298" d="M64.9,231.8c0,0-1.2,12,0,14.4c1.2,2.5,3.3-1.2,1.2,2.5c-2.1,3.7-4.1,5.4-2.5,8.7c1.6,3.3,1.6,4.1,0.4,7.4
				c-1.2,3.3-1.6,2.9-0.8,6.2c0.8,3.3,0,2.9-0.4,7s0.4,3.7,1.2,5.4c0.8,1.6-1.2,10.3-1.2,10.3"/>
      <path class="st1 file-4-element-299" d="M46.7,344.4c0,0-2.1,8.2-0.4,9.5c1.6,1.2,1.6,1.6,0.8,5.4c-0.8,3.7-1.6,5.8,0,8.2c1.6,2.5,1.6,4.1,0.4,8.2
				c-1.2,4.1-2.5,5.4-0.8,8.2c1.6,2.9,2.5-0.4,0.4,5.8s-1.6,6.6-1.2,11.5c0.4,4.9-0.4,11.5-0.8,15.3"/>
      <path class="st1 file-4-element-300" d="M93.3,342.7c0,0-0.4,9.1,1.2,11.1c1.6,2.1,2.1,4.5,0.4,7.8c-1.6,3.3-1.6,3.7-0.4,7.4
				c1.2,3.7-0.4,11.5-0.4,11.5"/>
      <path class="st1 file-4-element-301" d="M90,441.2c0,0-2.1,7-0.8,10.3c1.2,3.3,0.4,2.9-0.8,4.1c-1.2,1.2-0.8,2.5,0,4.9c0.8,2.5-0.4,0,0,5.8"/>
      <path class="st1 file-4-element-302" d="M419.2,436.8c0,0-0.2-12.9,0.5-18.7"/>
      <path class="st1 file-4-element-303" d="M688.3,531.1l0.9-7.3c0,0-2.7,0.3-3.5,0.1c-0.9-0.1-1.6,6.2-1.6,6.2s-5.8-1.8-6.2-1.9
				c-0.4-0.1,1.3-6.3,1.3-6.3l-5-1.8l-1.6,6.3c0,0-2.9-0.1-3.9-0.8c-1-0.6,2.1-11.2,2.1-11.2l3.7-13c2.1-7.7,3.8-17.1,11.4-29.1
				c7.5-12,19.1-13.3,19.1-13.3s4-0.4,8-6.7S714,440,714,440"/>
      <line class="st1 file-4-element-304" x1="598.1" y1="191.9" x2="598" y2="190.5"/>
      <line class="st1 file-4-element-305" x1="685.7" y1="472.4" x2="679.9" y2="420.1"/>
      <line class="st1 file-4-element-306" x1="723.6" y1="29.2" x2="728.9" y2="46"/>
      <line class="st1 file-4-element-307" x1="505.6" y1="269.2" x2="507.1" y2="271.8"/>
      <line class="st1 file-4-element-308" x1="525.3" y1="261.3" x2="526" y2="263"/>
      <line class="st1 file-4-element-309" x1="426.9" y1="362.7" x2="429.8" y2="369.9"/>
      <line class="st1 file-4-element-310" x1="315.2" y1="315.2" x2="316" y2="317.4"/>
      <line class="st1 file-4-element-311" x1="330.8" y1="308.6" x2="331.3" y2="310.3"/>
      <line class="st1 file-4-element-312" x1="591.3" y1="64.9" x2="662.7" y2="64.9"/>
      <line class="st1 file-4-element-313" x1="498.3" y1="111.8" x2="641.8" y2="111.8"/>
      <line class="st1 file-4-element-314" x1="505.5" y1="103" x2="632.3" y2="103"/>
      <line class="st1 file-4-element-315" x1="498.3" y1="94.2" x2="637.7" y2="94.2"/>
      <line class="st1 file-4-element-316" x1="492.1" y1="85.3" x2="639" y2="85.3"/>
      <line class="st1 file-4-element-317" x1="486.7" y1="77.3" x2="646" y2="77.3"/>
      <line class="st1 file-4-element-318" x1="419.4" y1="195.7" x2="252.7" y2="195.7"/>
      <line class="st1 file-4-element-319" x1="758.1" y1="194.7" x2="807.1" y2="194.7"/>
      <polyline class="st1 file-4-element-320" points="678.1,486.5 673.3,418.7 691,418.3 690.5,395.7 677.2,395.7 			"/>
      <polyline class="st1 file-4-element-321" points="689.2,531.4 695.3,531.8 695.5,523.3 701.6,524.2 700.9,531.8 707.9,532.4 708.8,524.5 
				714.6,524.9 714.6,532 721.2,532.9 722.1,525.8 727.9,526.2 728.3,532.4 734.5,532.9 735,525.8 740.3,525.2 741.6,531.9 
				748.3,531.4 748.7,524.8 754,523.9 754.9,531.4 761.7,530.4 760.8,521.9 766.7,521.2 768.1,529.2 773.8,527.4 773.8,519.4 
				778.3,517.6 			"/>
      <polyline class="st1 file-4-element-322" points="442.5,111.3 469.9,73.3 493.1,110.2 			"/>
      <polyline class="st1 file-4-element-323" points="459.6,175.9 459.6,161.2 452.1,162.3 451.6,174.2 			"/>
      <polyline class="st1 file-4-element-324" points="474.5,50.1 479.7,50.9 481,68.2 526.7,68.2 			"/>
      <polyline class="st1 file-4-element-325" points="668.9,142.6 658.9,142.9 658.9,134.1 			"/>
      <polygon class="st1 file-4-element-326" points="517.4,124.6 527.2,124.3 527.5,142.6 517.4,142.9 			"/>
      <polygon class="st1 file-4-element-327" points="555.1,124.6 564.9,124.3 565.1,142.6 555.1,142.9 			"/>
      <polygon class="st1 file-4-element-328" points="588.9,124.6 598.7,124.3 599,142.6 588.9,142.9 			"/>
      <polygon class="st1 file-4-element-329" points="517.4,161.5 527.2,161.2 527.5,179.6 517.4,179.8 			"/>
      <polygon class="st1 file-4-element-330" points="555.1,161.5 564.9,161.2 565.1,179.6 555.1,179.8 			"/>
      <polygon class="st1 file-4-element-331" points="659.1,161.5 668.9,161.2 669.2,179.6 659.1,179.8 			"/>
      <polygon class="st1 file-4-element-332" points="622.7,124.6 632.5,124.3 632.8,142.6 622.7,142.9 			"/>
    </g>
  </g>
</svg>