<?xml version="1.0" encoding="UTF-8"?>
<!-- Generator: Adobe Illustrator 25.2.3, SVG Export Plug-In . SVG Version: 6.00 Build 0)  -->
<svg xmlns="http://www.w3.org/2000/svg" xmlns:xlink="http://www.w3.org/1999/xlink" version="1.1" x="0px" y="0px" viewBox="0 0 792 612" style="enable-background:new 0 0 792 612;" xml:space="preserve">
<style type="text/css">
	.st0{fill:#FFFFFF;}
	.st1{fill:none;stroke:#231F20;stroke-width:2.5;stroke-miterlimit:10;}
	.st2{fill:none;stroke:#231F20;stroke-width:2.5;stroke-linecap:round;stroke-miterlimit:10;}
	.st3{fill:none;stroke:#231F20;stroke-width:2.5;stroke-linecap:round;stroke-linejoin:round;stroke-miterlimit:10;}
	.st4{fill:none;stroke:#231F20;stroke-width:1.75;stroke-linecap:round;stroke-linejoin:round;stroke-miterlimit:10;}
	.st5{fill:none;stroke:#231F20;stroke-width:2;stroke-linecap:round;stroke-linejoin:round;stroke-miterlimit:10;}
	.st6{fill:none;stroke:#231F20;stroke-width:1.5;stroke-linecap:round;stroke-linejoin:round;stroke-miterlimit:10;}
</style>
<g id="coloringShapes">
	<path class="st0 file-1-element-1" d="M280.8,618.4c7,5.2,521.5,5.2,521.1,1l-2.1-108.8L382.3,379.7l-105.7,47.9l-42.8,71.6L280.8,618.4z"/>
	<path class="st0 file-1-element-2" d="M791.1,425.7c0,0-169.4-30.1-185-34.2c-15.5-4.1-57.5-13-74.6-17.1c-17.1-4.1-29.2-3.5-38.3-7.8   s-9.3-5.2-22.3-8.8S390,340.2,390,340.2l-70.5-36.3L317-5.4l478.8,1l5.2,434.2L791.1,425.7z"/>
	<polygon class="st0 file-1-element-3" points="783,250 728.9,320.7 624.2,324.5 623.6,308 699.7,236 701.2,252  "/>
	<polygon class="st0 file-1-element-4" points="792.6,513.7 348.3,389 362.8,330.7 813.8,430.7  "/>
	<path class="st0 file-1-element-5" d="M791.8,252l-0.7,173.7c0,0-100-19.3-145.6-28l-1.7-73.7l3.5-0.4l81.6-2.9L783,250L791.8,252z"/>
	<path class="st0 file-1-element-6" d="M145.4,467.6l147.4-49.7l50,3.5l37.9,6.1c0,0,23.1-6.6,19.9-29.5c0,0,17-20.8-7.2-37.3l-1.2-3.2   c0,0,9-15.6-17-28.6c0,0,14.2-16.2-6.1-37.9c0,0,2.9-16.8-7.5-18.5c0,0,10.1-15.6-4.3-33.8c0,0,50.9,0,24-43.9   c0,0,21.1-14.2-7.8-32.7c0,0,0-2.3,2.6-3.5s17.9-5.2,20.8-20.5c2.9-15.3-6.4-25.7-15-30.3C373.1,103.2,233,11.9,233,11.9   l-98.2,74.6L118.5,272L98.3,375.7L145.4,467.6z"/>
	<path class="st0 file-1-element-7" d="M-7.5,158.7l160.7,87.8c0,0,11.8-9.5-0.6-22c0,0,15,1.2,17.9-9.8c0,0,23.1,9,34.4-16.5   c11.3-25.4-14.4-37.3-14.4-37.3s16.8-17.3-15.9-32.4c0,0,17.1-18.3-6.3-39.2c0,0,19.5,1,23.3-23.8c0,0,16.9-6.1,19.2-18.7l2.5,3.1   c0,0,7.3,24.7,35.4,20.1c0,0,4.4,26.1,33.3,27.5c0,0,7.2,30.3,34.7,26c0,0,33.8,33.2,55.8-3.8c0,0,17-7.8,10.1-29.5   c0,0,27.5-16.8,5.5-42.5c0,0,24.3,2,28.9-13.3c0,0,22.8,11,29.2-2c0,0,42.8,11,48.3-37.9H-20.7v163.8H-7.5z"/>
	<path class="st0 file-1-element-8" d="M497.9,477.1c0,0,11.6,12,14.6,12.5c3,0.5,3.7-1.4,3.7-1.4s2.6-2.6,3-3.7s-1.2-4.4-2.8-6.5   c-1.6-2.1,0.2-3.2,0.2-3.2s0.2-0.5-4.4-3.7c-4.6-3.2-9.3-4.4-9.3-5.1s-52.9-52.2-52.9-52.2s-3.5-1.9-2.8-3.9s-0.5-4.4-0.5-4.4   l3-3.2c0,0,0.9-3.5,1.2-4.2s2.1-2.3,2.8-2.8s2.8-0.7,2.1-3.9c-0.7-3.2-1.2-4.6-1.2-4.6s-2.1-2.6-2.3-4.4c-0.2-1.9-1.2-1.6-3.5-3.7   c-2.3-2.1-1.6-5.3-1.6-5.3s-6.5,3.2-8.6,6.7c-2.1,3.5-3.8,0.5-5.1,4.2c-1.3,3.7-3.2,7.9-3.2,7.9l-0.9,10l7,4.2l1.2,3   c0,0,2.1,4.6,8.3,6c6.3,1.4,41,40.6,41,40.6L497.9,477.1z"/>
	<polygon class="st0 file-1-element-9" points="499.6,234.7 493,270.6 616,260 629.1,227.4 576.1,222.7  "/>
	<path class="st0 file-1-element-10" d="M594.8,322.9c-14.8-0.1-29.7-0.3-44.5-0.8c-0.4,14.3-0.7,28.6,1.5,42.7l38.6,4.2   C591.6,353.6,594,338.2,594.8,322.9z"/>
	<path class="st0 file-1-element-11" d="M550.3,322.1c-9.2-0.3-18.4-0.7-27.5-1.2c0.3,13.5,0.1,27.1-1.1,40.6l30.1,3.3   C549.6,350.7,549.9,336.4,550.3,322.1z"/>
	<path class="st0 file-1-element-12" d="M522.8,321c-10.3-0.5-20.5-1.2-30.7-2l-1.1,39.2l30.7,3.3C522.9,348,523.1,334.5,522.8,321z"/>
	<path class="st0 file-1-element-13" d="M618.4,322.9c-7.8,0.1-15.7,0.1-23.6,0.1c-0.8,15.2-3.2,30.7-4.5,46l29.4,3.2L618.4,322.9z"/>
	<path class="st0 file-1-element-14" d="M549.6,285.8l-28.4,1.1c0.7,11.4,1.4,22.7,1.6,34.1c9.2,0.5,18.3,0.9,27.5,1.2   C550.6,310,550.9,297.8,549.6,285.8z"/>
	<path class="st0 file-1-element-15" d="M493,287.9l-0.9,31c10.2,0.8,20.4,1.4,30.7,2c-0.3-11.4-0.9-22.7-1.6-34.1L493,287.9z"/>
	<path class="st0 file-1-element-16" d="M591.5,284.2l-41.9,1.6c1.3,12,1,24.2,0.7,36.3c14.9,0.5,29.7,0.8,44.5,0.8C595.5,309.8,595,296.9,591.5,284.2   z"/>
	<path class="st0 file-1-element-17" d="M618.4,322.9l-1.1-39.6l-25.8,1c3.5,12.6,4,25.6,3.3,38.7C602.7,323,610.6,323,618.4,322.9z"/>
	<path class="st0 file-1-element-18" d="M695.2,187.9l-7.3-1.3l-46.8,7.5l-25,6l-115.7,23.3l-33.5,57.9l155.4-10l1.4,36.7l76.1-72L695.2,187.9z    M501.2,262.4l-1.8-10l10.4-10.2l6.6,9.1l0.7,9.8L501.2,262.4z M541.5,259.3l-1.8-11.5l11.1-10l5.3,9.5l1.3,11.3L541.5,259.3z    M585,254.5v-9.3l12.2-12.4l6.9,8.9l1.1,12.4L585,254.5z"/>
	<path class="st0 file-1-element-19" d="M695.2,187.9l-72.9,83.3l-146.5,9.5l5.1,80c0,0,13.1,8.4,19.7,9.5c6.6,1.1,13.5-1.1,21.7,1.8   c8.2,2.9,23.3,8.6,24.2,8.9c0.9,0.2,37.9,6.7,45.7,8c7.8,1.3,30.2,4.3,31.3,4.4c0.2,0,8.9,1.7,22.2,4.2l-1.7-73.7l-0.5,0.1   l-4.1,1.1l1.7-4.4l0.7-1.8l60.2-68.5l54.1-0.4v-11.1L695.2,187.9z M502.5,293.2l12.9,1.1l-0.6,15.3l-12.7,0.6L502.5,293.2z    M517.4,356.1l-4.9,0.3l-11.2-0.6l1.5-21.2l15-0.3L517.4,356.1z M529,292.7l13.9,0.2l-1.1,17.1l-12.2,1.1l-1.6-6.1L529,292.7z    M543.9,353.3l-2.6,4.6l-12.5-1.8l0.5-22.2h14c0,0,1.1,1.7,1.1,2.2S543.9,353.3,543.9,353.3z M576.8,311l-14.1-0.8l-2.5-2.8l1-16.8   l17.1-0.6c0,0,0.3,13.1,0.3,13.4C578.7,303.8,576.8,311,576.8,311z M612.8,289.9l0.2,9.2l-0.2,11.2h-14.1l-0.7-21.4L612.8,289.9z    M613.3,363.7l-15.2-0.8l-1.3-24.5l16.3-1.6l1.3,17.9L613.3,363.7z"/>
	<path class="st0 file-1-element-20" d="M294.2,200.5c0,0,18.5-5.1,19.6-31.9s-26.1-34.4-44.6-31.2c-18.5,3.3-40.1,35.8-20.5,52.4   C248.6,189.8,267,211,294.2,200.5z"/>
	<path class="st0 file-1-element-21" d="M280.2,206.5c0,0,0.6,5.2,2.7,6.3c2.2,1.1,3.7-3.6,5.2,0.9c1.9,5.8,3.5-2.1,3.5-5.1c0.1-3,1.1-7.7,3.7-11.7   c2.5-4,5.8-10.9,6.5-15.2c0.7-4.4,1.5-8.3-3.3-16.3s-12-14.1-19.6-14.5c-7.6-0.4-17.8,1.8-19.9,6.2c-2.2,4.4-6.6,11.2-6.3,14.5   c0.4,5-2.4,12.7-4.6,15.3c-2.2,2.5-7.5,7.5-9.4,11c-1.9,3.5-4.1,3.6,0.5,4.1c4.7,0.5,1.6,2.6,9.3,3.1c7.8,0.5,8.7,0.7,10.4-1.9   c1.7-2.6,2.9-7.3,2.9-7.3L280.2,206.5z"/>
	<path class="st0 file-1-element-22" d="M174.5,301.3c0,0-4.7,7.6-8.7,10.5c-4,2.9-12.3,6.9-13.1,15.2s0.9,10.3,3.6,11.2c2.7,1,4.4,0.4,5.8-3.6   c1.5-4,1.8-2.5,4.4-7.6s1.7-7,1.7-7s6.5-2.4,8.4-6.4c2-4,2-4,2-4l172-17.1c0,0,8.4,17.1,13.5,20c5.1,2.9,7.9,1.5,10.2,1.8   c2.3,0.3,3.1-1.6,4.7-2.5c1.7-0.9,2.9-2.5-1.8-5.4c-4.7-2.9-8.7-6.2-7.6-7.3c0,0,6.5,3.3,6.5-1.1s-5.1-3.8-10.9-7.3   c-5.8-3.4-8.3-3.6-8.3-3.6l-53.6-32.7l-26.9-45.6c0,0,1.8,0,10.2-8.3c8.3-8.3,10.5-12,12.3-18.5c1.8-6.5,0.2-10.6,0.2-10.6l-5-1.8   c0,0-6.1,1.9-11.9-0.3c0,0-4.7,6.9-10.5,6.9c0,0-0.7,5.8-4,7.3c0,0-1.1,5.6-1.8,6.5c0,0-1.1,5.4-4,5.8c0,0,0,6.5-2.9,7.3l-2.6,2.5   L174.5,301.3z"/>
	<path class="st0 file-1-element-23" d="M321.8,262.5l-48.8-50.8c0,0-5.2,5.2-16.6-6.2c0,0-6.8,2.2-12.4-3.1l-37.1,60.9   C245.3,263.3,283.8,267.6,321.8,262.5z"/>
	<path class="st0 file-1-element-24" d="M350.7,292.5l-28.9-30.1c-38,5.1-76.4,0.8-114.9,0.8l-28.2,46.3c0,0,1,3.1-4.7,6.7s-5.7,3.6-5.7,3.6   s1.6,13.5,1.6,17.1c0,3.6,0,13.5,2.6,17.1c2.6,3.6,6.2,3.6,6.2,3.6s4.1-1.6,3.1-12.4c-1-10.9,22.8-33.7,22.8-33.7l121.2,9.3   l10.2,29.5c0,0,8.4,0,16.7-29l3.6-16.6L350.7,292.5z"/>
	<path class="st0 file-1-element-25" d="M168.3,89.4c0,0,21.2,0,23.3-23.8c0,0,15.8-6.7,20.1-20c0,0,4.7,26.7,36.3,24.3l8.2,18l-19.5-7.6l22.5,35.5   l-37.8-30l20.6,56.5l-38.2-44.5l4.6,52.5l-22-49.9l-4.6,30.7l-2.5-27.2C179.4,103.7,177.1,95.7,168.3,89.4z"/>
	<path class="st0 file-1-element-26" d="M289,350l11.4,105.2c0,0-7.8,0-10.9,10.9c0,0-31.6-11.9-29.5,44c0,0-14.5-11.9-29.5-9.3c0,0-4.1-29-28-35.8   c0,0,11.9-23.3,1-38.9c0,0,8.8-32.6,6.2-62.7c-2.6-30.1-1.6-47.7-1.6-47.7s-5.2,26.9-5.7,33.7c-0.5,6.7-5.2,9.8-9.3,13.5   c-4.1,3.6-4.1,7.3-8.3,5.7s-8.8-6.2-6.2-10.9s4.7-13,2.1-23.3s5.7-10.4,1-20.2c-4.7-9.8-10.9-12.4-10.9-12.4s11.9-41.7,24.9-63.7   c13-22.1,18.4-31.5,32.1-37.3c13.7-5.8,10.9-3.1,10.9-3.1s-6,1.3,0.5,4.1s9.3,3.1,9.3,3.1s-5.7,2.1,3.6,10.9   c9.3,8.8,14,11.4,20.7,7.8l70.5,53.9l16.1,9.8c0,0-13.5,7.3-16.1,19.2c-2.6,11.9-11.3,33.7-9.3,38.9c1.9,5.2,1.9,5.2,1.9,5.2   s-20.1-15.5-26.3-22.8C309.7,327.8,303,342.3,289,350z"/>
	<path class="st0 file-1-element-27" d="M336,414.9c0,0,3.5,10,9.3,13.2c5.8,3.2,9.3,5.3,12.1,5.8c2.8,0.5,8.8-0.9,10.9-5.1s2.6-9.5,2.6-9.5l-0.5-41.7   c0,0,4.6-7.2,5.1-16.2s-3.1-8.3-3-8.6c0-0.3-2-1.5-3.9-3s-3-1.9-3-1.9s-0.6,4.3-0.5,6.3s0.7,4.9,0.7,4.9s-3.2-2.1-3.9-1.2   c-0.7,0.9,1.2,2.6,1.4,4.9c0.2,2.3-0.5,9.7-0.9,10.4s-8.3,0.5-9.3,0.9c-0.9,0.5-4.6-0.2-7.4,4.4c-2.8,4.6-1.9,6.7-1.9,6.7   s-3.9,1.9-4.6,3.5c-0.7,1.6-1.6,5.3-1.6,5.3s-2.1,2.6-1.6,3.9c0.5,1.3,1.5,5,4.9,6.7c3.4,1.7,3.4,1.7,3.4,1.7l0.1,4.3l-1.9,2.6   c0,0-1.4,2.6-7.7-0.7c-6.3-3.2-37.8-18.8-37.8-18.8s-1.6-2.1-6.3-6.5c-4.6-4.4-7.9-7.7-7.9-7.7s-1.7-0.6-1.4,1.9s0.3,2.4,0.3,2.4   s-5.4-5.4-6.6-4.5c-1.2,0.9,0.7,5.1,0.7,5.1s-1.3,1.5-0.2,3.7c1.1,2.2,0.7,4.9,1.4,6s2.8,2.8,4.6,3.5c1.9,0.7,4.6,0.7,5.6,1.6   s13,9,13,9L336,414.9z"/>
	<path class="st0 file-1-element-28" d="M208.2,315.8c0,0,23.3,43.5,46.1,44s39.9-12.4,47.7-22.3c7.8-9.8,13-14,16.1-29c3.1-15,25.4-31.1,25.4-31.1   s-23.3-14.5-28-27.5c-4.7-13-8.3-30.1-16.1-35.8c-7.8-5.7-7.8-5.7-7.8-5.7s-1.2,10.5-2.9,6.4c-3-7-3.3-1.1-4.2-2   c0,0-1.4-0.4-3.4-6.8l-8.2,5.5c0,0,3.1,22.3-1.6,33.7s-9.3,19.2-19.2,22.8c-9.8,3.6-20.2-0.5-30.6-11.9   C221.6,256.3,210.2,286.3,208.2,315.8z"/>
	<path class="st0 file-1-element-29" d="M315.1,557.1c0,0-7.4,18.3,3.7,26.4s15.2,13.1,22.5,10.7c7.3-2.5,12.8-7.2,18.8-4.6c6,2.6,12.3,5.3,19.2,3.5   c7-1.9,12.3-2.8,19.9-1.4c7.7,1.4,14.4,1.4,19.7-7.2c5.3-8.6,3.2-14.6,3-16.2s-3.7-19-7.7-36.2c-3.9-17.2-16.7-47.8-18.8-50.8   c0,0-10.2-1.6-16.9-0.9c-6.7,0.7-13.4,3.7-21.1,8.1c0,0-1.6-0.9-7.9-4.9c-6.3-3.9-13.9-3.2-13.9-3.2S317,523.9,315.1,557.1z"/>
	<path class="st0 file-1-element-30" d="M398.2,478.7c0,0-11.4-11.1-13.7-17.2c-2.3-6-3.9-12.3-1.9-20.6s4.6-20.4,1.9-31.3s-4.9-14.1-4.9-14.1   s-1.4,3.9-1.6,7.7c-0.2,3.7-0.9,6-0.9,8.1s-0.5,4-1.4,4.6c-0.9,0.6-1.2,2.1-3,2.8s-1.9,0.7-1.9,0.7s-0.5,4.6-1.6,7.9   c-1.2,3.2-4.6,5.6-7,5.8c-2.3,0.2-7,0.8-11.1-1.6c-4.1-2.4-7.4-2.6-9.5-6c-2.1-3.5-4.9-8.8-5.6-10.4c-0.7-1.6-8.8-6.7-11.4-7.9   c-2.6-1.2-11.8-4.9-16.5-7.4c-4.6-2.6-11.4-10.7-14.6-7.2s-2.8,9.3-2.3,15.3c0.5,6,0.5,12.3,1.9,16c1.4,3.7,11.1,8.3,16,11.6   c4.9,3.2,26.4,13.4,28.1,15.5c1.6,2.1,5.8,7.9,6.3,12.3c0.5,4.4,0,4.6-0.9,5.1c-0.9,0.5-8.3,6.5-8.8,10.9c0,0,12.3,0,16,4.4   c3.7,4.4,7.9,4.9,7.9,4.9s10-6.7,19.5-7.4S394,482.6,398.2,478.7z"/>
	<path class="st0 file-1-element-31" d="M350.4,398.7c0,0-4.3-2.2-5.3,2.8s-1.6,7.9,1.2,11.6c2.8,3.7,4.2,4.9,4.2,4.9h1.9c0,0,5.3,6.7,10.2,3.2   c0,0,8.1-0.4,10.2-2.6c0,0,3.9-1.4,4.4-7.4c0,0,1.4-5.6,0.7-10.4c0,0,2.8-7.2,1.4-12.3c0,0,0-5.1-4.9-8.1c-4.9-3-5.8-5.6-10.2-6.5   c-4.4-0.9-5.3-2.1-8.6-1.4c-3.2,0.7-3.5,3-3,4.6c0.5,1.6,2.1,4.6,2.1,4.6s-1.9,3.2-0.5,5.3c1.4,2.1-0.4,4.1-0.5,4.2   C353.6,391.4,349.9,393.1,350.4,398.7z"/>
	<path class="st0 file-1-element-32" d="M420.2,586.3c0,0,7.2-4.9,16.7-2.3s10.9,4.6,18.8,1.9s4.6-5.8,15.5-4.4c10.9,1.4,16.9,4.4,22.7,2.1   s12.8-6.5,13-14.1c0.2-7.7-4.6-37.6-9.5-52.6c-4.9-15.1-19.2-37.3-19.7-38c-0.5-0.7-10.7-14.1-12.5-18.8c-1.9-4.6-2.1-5.8-2.1-5.8   s-10,6.3-13.9,7.9c-3.9,1.6-11.8,10.4-11.8,10.4s-7.7-9.7-8.1-11.8c-0.5-2.1-0.5-2.1-0.5-2.1s-5.8,2.8-9.3,11.6   c-3.5,8.8-11.8,32.9-12.1,33.6s6,23.9,6,23.9l9.7,44.3c0,0,0.2,10.9-5.3,15.5L420.2,586.3z"/>
	<path class="st0 file-1-element-33" d="M398.2,478.3c0.3-0.4,13.4-13.4,14.6-14.4c1.2-0.9,5.1-1.9,7.4-4.9s5.8-6,5.8-6l11.4,19c0,0,5.6-8.1,11.8-10.4   c6.3-2.3,13.9-7.9,13.9-7.9l3.5-7.4c0,0,0.3-3.6,2.6-1.4c2.3,2.2,7.7,10,7.7,10s3.3,3.4,4.9,3.9c1.5,0.5,3.9,1.2,5.1,2.8   c1.2,1.6,3.5,9,7.2,12.1c3.7,3,5.3,4.6,5.3,4.6l8.3-10.9l-13-16.7l-10-15.5c0,0-3.2-9.5-6.7-12.8c-3.5-3.2-8.3-6-8.3-6   s-14.8,7.4-18.5,11.6c-3.7,4.2-4.4,5.1-4.4,5.1l-3.7-16.9c0,0-5.1,6.3-8.3,7.7c-3.2,1.4-5.6,3.7-5.6,3.7l-8.3-9.5   c0,0-1.6,6.3-2.8,9.3c-1.2,3-4.4,13.9-10.2,20.4c-5.8,6.5-13.2,14.4-13.2,14.4l-5.6,6.5L398.2,478.3z"/>
	<path class="st0 file-1-element-34" d="M336,414.9c0,0,0.2,6.8,5.6,10.4c5.4,3.6,11.6,7.7,13.7,8.1c2.1,0.5,9.7,0.2,13-4.6c3.2-4.9,0.9-8.3,0.9-8.3   s-4.2-0.5-6.7,0.7c-2.6,1.2-3.2,2.6-5.8,0.2s-4.4-3.5-4.4-3.5s-5.6-0.5-8.1-7.2C344.1,410.7,342,416.3,336,414.9z"/>
	<path class="st0 file-1-element-35" d="M435.7,408l-15.1,10.4l8.3,9.5l13.9-11.4l3.7,16.9c0,0,14.1-12.5,23-16.7l-11.6-4.6   C458,412.1,444.3,418.9,435.7,408z"/>
	<path class="st0 file-1-element-36" d="M465.6,382.2c0,0-1.4-6.7-7.9-9s-9.5-4.2-10.4,0c-0.9,4.2,3.5,7.2,3.5,7.2s2.3,5.8,3.9,6.3l1.2,4.6   c0,0,0.7,2.8-2.1,3.9c-2.8,1.2-2.6,4.4-2.6,4.4l-1.4,2.6c0,0-3.1,1-3,3.2c0.1,2.2,0.5,4.4,0.5,4.4s-0.9,4.2,2.8,3.9   c3.7-0.2,7.9-1.6,7.9-1.6l6,1.6c0,0,4.9-1.4,5.1-8.3c0,0,1.9-4.6,0.5-9.7c0,0,1.6-4.2,0-7.9C469.6,387.8,470,383.2,465.6,382.2z"/>
	<path class="st0 file-1-element-37" d="M428.9,347.8c0,0-7.5-3.5-4.9-15.5c0,0-4.7-8,1.6-13.5c0,0,2-12.9,12-8.2c0,0,1.8-9.1,11.7-5.3   c0,0,2.9-9.3,10.2-3.3c0,0,5.8-7.3,8.4-3.1c0,0,6.7-4.7,8.6,3.1l4.2,59L428.9,347.8z"/>
	<path class="st0 file-1-element-38" d="M478.1,257.8c0,0-5.3-7.8-0.9-12.2c0,0-9.1-4-3.8-12.4c0,0-3.3-7.5,3.1-13.3c0,0-2.7-9.1,5.3-12.4   s7.1-2.7,6.7-7.5c-0.4-4.9-1.8-7.3-1.8-7.3s-8.9,0-10.4-6.9c-1.6-6.9,2.2-6.9,4-6.7c1.8,0.2,1.8,0.2,1.8,0.2s-2.9-8.4,4.2-14.2   c7.1-5.8,9.1-3.5,9.1-3.5s0.2-7.1,6.2-9.3c6-2.2,10.9-0.2,12.4,6c0,0,4,0.4,7.5-0.2c3.5-0.7,7.3,0,7.3,0s-1.8-6.2,0.9-10.2   s5.1-5.8,5.1-5.8s-6.7-3.5-0.9-10.9c5.8-7.3,9.8-1.1,9.8-1.1l1.3-1.8c0,0,1.1-4,4-6.7c2.9-2.7,4-7,5.1-6.9s5.3-1.1,6.4-0.7   s2.7,0.9,2.7,0.9s0.2-4.2,2.9-6.7c2.7-2.4,8.6,0.7,8.6,0.7l2.2,1.3c0,0,1.3-2,4-2.4c2.7-0.4,3.1-7.8,6-9.3c2.9-1.6,8.6,0.9,8.6,0.9   s1.1-2.7,4.9-1.8c3.8,0.9,4.4,2.9,4.4,2.9s6.7-4,8.2,0.4c1.6,4.4,1.3,6.4,0.7,7.1c-0.7,0.7,0.2,4.2,0.2,5.8s-1.3,5.5-1.3,5.5   s8,0.4,10.9,2.9c0,0,3.8-6,13.3-0.4c0,0,4.4-3.1,6.4,2.2s1.5,5.8,2.9,7.8c1.4,2,3.1,5.1,3.1,5.1s-6.2,0.9-5.5,3.8s0,7.8,2,8.4   c2,0.7,5.5,0.2,5.5,0.2s-2.4-6.7-0.4-9.1s8-1.6,9.3-0.7s4-5.1,7.8-4c3.8,1.1,4.2,9.5,4.2,9.5s8.2,3.1,4.9,10.4   c0,0,7.3-0.2,6.9,11.7c0,0,9.1,6.9,4,15.7l-2,4.2l-43.2,7.3c0,0-2.7-9-2.7-9.6s-9.5-2.9-9.5-2.9l-14.9,1.9l0.2,5.1l0.2,11.1   l-115.7,23.3l-20.6,36.4L478.1,257.8z"/>
	<polygon class="st0 file-1-element-39" points="550,381 549.1,374.6 557.7,373.7 558.2,367.1 589,371.3 591.4,384.6 578.3,387.5  "/>
	<polygon class="st0 file-1-element-40" points="559.3,329.4 586.8,329.2 589,371.3 558.2,367.1  "/>
	<polygon class="st0 file-1-element-41" points="574.1,357.1 578.3,358.4 579.4,337.8 573.5,338  "/>
	<polygon class="st0 file-1-element-42" points="656.8,397.7 656.4,337.4 712.7,335.6 716.3,412.4 657.5,400.5  "/>
	<path class="st0 file-1-element-43" d="M615.6,183.9c0,0,1.3,7.1,1.3,8.2s-1.3,21.7-1.3,21.7l12.6-5.5l14.2-6.7l-2.4-17.7l-11.1-2.9L615.6,183.9z"/>
	<path class="st0 file-1-element-44" d="M318.5,620.4l-0.6-12.4c0,0-1.6-27.3-20.2-28.2c0,0,8.6-23.9-14.9-27.3c0,0,8-24.2-15.1-26.4   c0,0-2.7-26.5-37.3-25.4c0,0-4.8-30.2-28-35.8c0,0,22-39.3-19.2-54.1c0,0,12.2-42.8-53.6-51.7c0,0,34.8-18.8,14.4-61.9   c0,0,26.2-15.3,11.1-37.9c0,0,10.6-29.7-25.9-30.6c0,0-5.8-45.2-50.5-28.2c0,0-5.1-15.1-27-7.1c0,0-3.8-45.2-45-33   c0,0-28.4-8.6-40.3,7.3s0,474.9,0,474.9h352.3L318.5,620.4z"/>
</g>
<g id="outline">
	<path class="st1 file-1-element-45" d="M317.9,612.8c0,0,4.8-27.6-20.7-33.1c0,0,9.7-21.4-14.5-27.6c0,0,9.7-23.4-15.2-25.5c0,0,0-25.5-37.2-25.5   c0,0-2.8-29.7-29-35.9c0,0,23.4-40-17.9-53.8c0,0,13.1-42.8-54.5-52.4c0,0,36.6-18.6,14.5-61.4c0,0,26.9-14.5,11.7-37.9   c0,0,10.3-29-25.5-31c0,0-9-45.5-51-27.6c0,0-6.2-16.6-26.9-6.9c0,0-4.8-46.9-45.5-33.1c0,0-31.7-9.7-42.8,10.3v466.9h355.2   L317.9,612.8z"/>
	<path class="st2 file-1-element-46" d="M-36.6,171.4c11-20,42.8-10.3,42.8-10.3c40.7-13.8,45.5,33.1,45.5,33.1c20.7-9.7,26.9,6.9,26.9,6.9   c42.1-17.9,51,27.6,51,27.6c16.7,1,23.4,7.7,25.7,14.7c0,0,7.8-10.2-3.5-19c0,0,23.6,3.5,19.4-21.4c0,0,22.3-2.1,15.2-34.1"/>
	<path class="st2 file-1-element-47" d="M144.8,421.1c0,0,19.3-6.2,36.6,13.8"/>
	<path class="st2 file-1-element-48" d="M172.3,485.2c0,0,17.9,9,14.5,46.2"/>
	<path class="st1 file-1-element-49" d="M-123.9,136.8"/>
	<path class="st2 file-1-element-50" d="M170.3,214.4c0,0,21.9,10.1,34.6-16c12.6-26.1-13.5-37.1-13.5-37.1s13.9-21.5-17.7-32.9"/>
	<path class="st2 file-1-element-51" d="M151.8,139.7c0,0,24.5-5.9,28.2-20.2s-3.4-24-13.5-29.9c0,0,20.7,2.1,25.3-24c0,0,27.4-8.9,23.6-47.2"/>
	<path class="st2 file-1-element-52" d="M212.1,46.1c0,0,4.6,27,36.7,24c0,0,4.2,26.1,33.3,27.4c0,0,11,39.6,42.6,21.9"/>
	<path class="st2 file-1-element-53" d="M316.6,123.7c0,0,31.2,32.5,56.1-4.2c0,0,19.5-5.4,9.9-29"/>
	<path class="st2 file-1-element-54" d="M360.5,87.5c0,0,15.6,12.6,30.4-5.1c14.8-17.7-4.6-35-4.6-35s24.9,5.1,31.2-13.1c0,0,18.6,11.8,29.1-2.1   c0,0,34.1,10.5,46.4-27.4"/>
	<line class="st2 file-1-element-55" x1="194.9" y1="90.3" x2="208.5" y2="150.1"/>
	<line class="st2 file-1-element-56" x1="204.4" y1="76.8" x2="242.1" y2="142.2"/>
	<line class="st2 file-1-element-57" x1="225.6" y1="78.5" x2="262.5" y2="119.7"/>
	<path class="st2 file-1-element-58" d="M366.4,157.4c0,0,13.1,7.2,26.1-10.1c13.1-17.3-3.4-33.7-3.4-33.7"/>
	<path class="st2 file-1-element-59" d="M379.4,167.1c0,0,19.8,12.6,1.3,27.4c0,0,16,17.7,5.5,32.5c-10.5,14.8-29.9,11.8-29.9,11.8s4.6,18.6-21.1,21.5   "/>
	<path class="st2 file-1-element-60" d="M364.3,256.1c0,0,3.8,11-5.9,20.2"/>
	<path class="st2 file-1-element-61" d="M361.3,273.4c0,0,8.4-1.3,7.6,13.5"/>
	<path class="st2 file-1-element-62" d="M238.6,197.5c0,0-20.2,3.4-29.9,18.6s-32.5,61.6-37.1,86.4c0,0,12.2,9.7,10.5,18.6s-2.1,13.9-0.4,19.8   c1.7,5.9-0.4,15.6-3,18.6s-7.6-6.7-6.7-13.5c0.8-6.7-2.1-6.7-2.5-13.1s-0.4-11-0.4-11"/>
	<path class="st2 file-1-element-63" d="M178.8,359.4c0,0,2.1,10.5,7.2,10.1s5.1-5.1,9.3-8.4c4.2-3.4,8-10.1,8-17.3c0-7.2,3.8-13.9,5.1-27.4   s3.4-29.1,8.9-46.8s5.9-26.6,5.9-32.9"/>
	<path class="st2 file-1-element-64" d="M203.2,270.9c0,0,4.6,8,4.6,11.8"/>
	<path class="st2 file-1-element-65" d="M189.7,282.2c0,0,11.8,7.2,8.4,23.6"/>
	<path class="st2 file-1-element-66" d="M212.9,289c0,0-0.8,13.5,9.3,22.8"/>
	<path class="st2 file-1-element-67" d="M223.9,291.1c0,0,9.7,29.9,31.2,40.5"/>
	<path class="st2 file-1-element-68" d="M220.9,270c0,0,4.6,20.2,13.9,25.7"/>
	<path class="st2 file-1-element-69" d="M243.7,284.4c0,0,21.9,7.2,36.7-16"/>
	<path class="st2 file-1-element-70" d="M221.3,256.1c0,0,19.8,25.7,38.8,6.7s13.5-51,13.5-51s-8.4,4.6-17.7-6.3"/>
	<path class="st2 file-1-element-71" d="M245.8,204.7c0,0,10.1,27,28.2,18.1"/>
	<path class="st2 file-1-element-72" d="M207,311.8c0,0,10.5,19,21.1,32c10.5,13.1,32.5,24.9,57.3,8.4c24.9-16.4,32.5-36.7,36.7-50.6   c4.2-13.9,22.3-24,22.3-24s-8.4-7.2-20.7-17.3c-12.2-10.1-15.2-29.9-19.8-40.1c-4.6-10.1-12.2-9.3-12.2-9.3"/>
	<path class="st2 file-1-element-73" d="M290.9,221.1c0,0,0.8,6.7,0.4,10.5"/>
	<path class="st2 file-1-element-74" d="M299.8,242.6c0,0,2.5,4.2,1.3,9.3"/>
	<path class="st2 file-1-element-75" d="M336,350.5c-14.3-5.5-21.5-18.1-21.5-18.1"/>
	<path class="st2 file-1-element-76" d="M344.5,277.6l16.4,9.3c0,0-15.2,5.1-19.4,23.6c-4.2,18.6-11.4,43.8-2.5,38.4c8.9-5.5,17.7-37.1,18.1-44.7"/>
	<path class="st2 file-1-element-77" d="M293,200.9c0,0,20.7-7.2,20.2-33.7s-30.4-36.3-51-27.4s-24.9,35.8-17.7,46"/>
	<path class="st2 file-1-element-78" d="M208.3,316.4c0,0,4.6,75-2.1,102.9"/>
	<line class="st2 file-1-element-79" x1="290.1" y1="349.7" x2="293" y2="383.8"/>
	<line class="st2 file-1-element-80" x1="250" y1="358.6" x2="248.8" y2="410.8"/>
	<line class="st2 file-1-element-81" x1="230.6" y1="354.8" x2="229.4" y2="390.6"/>
	<line class="st2 file-1-element-82" x1="220.9" y1="339.6" x2="215.9" y2="365.7"/>
	<line class="st2 file-1-element-83" x1="191.8" y1="332.8" x2="191.8" y2="341.3"/>
	<line class="st2 file-1-element-84" x1="297.7" y1="428.5" x2="299.3" y2="446.2"/>
	<path class="st2 file-1-element-85" d="M260.1,502.3c0,0-2.1-43,29.1-36.3c0,0,11.8-26.6,32-8.4"/>
	<path class="st2 file-1-element-86" d="M313.7,567.7c0,0,4.6-55.7,22.8-87.3"/>
	<path class="st2 file-1-element-87" d="M398.4,555.9c0.4-1.7-0.8-43.4-17.7-73.4"/>
	<path class="st2 file-1-element-88" d="M377.3,514.5c0,0-1.7-17.3-8.9-31.6"/>
	<path class="st2 file-1-element-89" d="M347.8,529.7c0,0-3.4-18.6,3.8-44.3"/>
	<path class="st2 file-1-element-90" d="M336,505.7c0,0-0.8-8,6.7-21.1"/>
	<path class="st2 file-1-element-91" d="M343.2,411.7c0,0-2.1,4.6-6.7,2.1c-4.6-2.5-5.1-3.4-17.7-8s-20.7-16.4-25.3-11.8c-4.6,4.6-3,10.5-2.5,12.6   s-0.4,3.4,1.3,12.6s13.5,14.3,32.5,23.6c19,9.3,19,23.6,19,23.6s-5.1,2.5-8.9,10.1s1.7,0.4,10.5,5.1c8.9,4.6,11.4,7.6,11.4,7.6   s14.3-10.5,27.8-8.9c13.5,1.7,13.9-2.1,13.9-2.1s-15.6-14.3-17.3-24.9c-1.7-10.5,5.1-25.3,3.8-40.9c-1.3-15.6-5.9-17.3-5.9-17.3"/>
	<path class="st2 file-1-element-92" d="M336.4,413.8c0,0,1.3,11,10.5,15.2c9.3,4.2,12.6,7.2,18.6,2.5s4.2-11,4.2-11"/>
	<path class="st2 file-1-element-93" d="M393.4,419.7c0,0,13.5-10.5,2.1-32.5"/>
	<path class="st2 file-1-element-94" d="M400.5,398.2c0,0,16-21.1-5.9-35.4"/>
	<path class="st2 file-1-element-95" d="M392.1,357.3c0,0,8.9-14.8-17.3-28.7"/>
	<path class="st3 file-1-element-96" d="M470.1,416.3c0,0-19.4,11.4-23.6,17.7l-3.8-17.7c0,0-6.7,7.2-13.9,12.2c0,0-4.2-7.2-8.4-9.3   c0,0,7.2-5.5,15.6-11.4c0,0,8,12.2,21.5,3.8C457.4,411.7,468.8,415.9,470.1,416.3s8,3.4,13.9,17.3s24.9,34.1,23.6,34.6   s-9.3,10.5-9.3,10.5s0,0-5.9-6.3c-5.9-6.3-3.8-11.8-9.3-12.6s-7.6-7.6-11.8-12.2c-4.2-4.6-4.6-3-7.2,5.1c-2.5,8,4.2,8.4,23.6,43.4   c19.4,35,19,74.2,19,74.2s-3.8,16.4-21.5,13.1c-17.7-3.4-16-1.3-26.6,1.7c-10.5,3-14.8,1.3-20.2-0.8c-5.5-2.1-12.2,1.3-16,2.1"/>
	<path class="st3 file-1-element-97" d="M422.5,432.8c0,0,0.4,16,5.1,24.5c4.6,8.4,9.3,15.6,9.3,15.6s7.6-8.9,16.4-12.6c8.9-3.8,11-7.6,11-7.6"/>
	<path class="st3 file-1-element-98" d="M457.4,450c0,0,10.5-8,11.8-22.8"/>
	<path class="st3 file-1-element-99" d="M420.3,419.3c0,0-5.5,20.2-12.2,28.7c-6.7,8.4-18.6,19.8-18.6,19.8"/>
	<path class="st3 file-1-element-100" d="M398.4,478.3c0,0,11-10.1,13.5-13.5s9.7-3,12.2-11"/>
	<path class="st3 file-1-element-101" d="M427.5,457.2c0,0-13.5,18.1-18.1,41.3"/>
	<path class="st3 file-1-element-102" d="M453.2,460.2c0,0,6.3,7.6,3.8,19.4"/>
	<path class="st3 file-1-element-103" d="M431.3,469.4c0,0-4.2,4.2-2.1,13.5"/>
	<path class="st3 file-1-element-104" d="M475.6,539.8c0,0,5.9,8.4,6.3,23.2"/>
	<path class="st2 file-1-element-105" d="M317.5,582c0,0,14.8,16.9,31.2,9.7c16.4-7.2,12.2,2.5,27,0.8s16.4-3.4,27.4-1.3c11,2.1,17.7-6.3,19.4-13.1   c1.7-6.7,0-8.9,0-8.9s-8.9-55.2-26.6-87.3"/>
	<path class="st3 file-1-element-106" d="M413.2,380.9c0,0,10.5-3.4,17.3-1.3"/>
	<path class="st3 file-1-element-107" d="M414.4,388.1c0,0,6.7,0,8,0"/>
	<path class="st3 file-1-element-108" d="M406.4,412.5c0,0,6.7-2.1,9.7-2.5"/>
	<path class="st3 file-1-element-109" d="M663.3,402.1c0,0-33.3-7.4-53.5-9.9s-41.1-6.3-55.8-9.7c-14.8-3.4-31.7-9.8-44.3-11.8   c-13.7-2.2-22.8-7.6-25.7-8.4s-16-3.8-21.1-5.1s-21.9-5.1-30.4-7.2s-24.5-5.9-32.9-8"/>
	<line class="st3 file-1-element-110" x1="480.6" y1="356.4" x2="475.6" y2="280.6"/>
	<line class="st3 file-1-element-111" x1="648" y1="192.9" x2="688.9" y2="187"/>
	<polyline class="st3 file-1-element-112" points="616.4,200.5 500,223.2 466.7,281.4 622.3,270.4 691.4,191.2  "/>
	<polygon class="st3 file-1-element-113" points="616.4,190.3 616,213.1 627.4,208 625.7,188.6 629.5,181.9 615.1,184.4  "/>
	<line class="st3 file-1-element-114" x1="616.4" y1="190.3" x2="625.7" y2="188.6"/>
	<path class="st3 file-1-element-115" d="M627.4,208c0,0,14.8-5.5,14.8-6.7c0-1.3-2.1-16-2.1-16l-10.5-3.4"/>
	<polyline class="st3 file-1-element-116" points="549.8,380.9 549.4,374.2 555.3,373.7 586,378.4 576.8,379.6 577.2,386.8 591.1,384.7 589.8,371.2    558.6,367 558.6,372  "/>
	<polyline class="st3 file-1-element-117" points="589.8,371.2 587.3,328.6 559.1,329 558.6,367  "/>
	<line class="st3 file-1-element-118" x1="624.4" y1="393.5" x2="622.3" y2="270.4"/>
	<polyline class="st3 file-1-element-119" points="645.7,394.9 643.4,324.8 722.6,320.5  "/>
	<polyline class="st3 file-1-element-120" points="501.7,262.4 499.6,252.3 509.7,242.6 533.8,241.3 521.1,258.6  "/>
	<polyline class="st3 file-1-element-121" points="517.7,259.9 516,250.6 509.7,242.6  "/>
	<polyline class="st3 file-1-element-122" points="542.2,259.1 540.5,248.1 550.6,238 574.7,235.9 560.7,254.4  "/>
	<polyline class="st3 file-1-element-123" points="557.4,258.6 556.1,246.4 550.6,238  "/>
	<polyline class="st3 file-1-element-124" points="586,253.6 584.3,245.1 597.4,232.5 622.3,231.2 607.5,254  "/>
	<polyline class="st3 file-1-element-125" points="605.2,254 605,242.2 597.4,232.5  "/>
	<line class="st3 file-1-element-126" x1="595" y1="244.4" x2="595.3" y2="250.2"/>
	<line class="st3 file-1-element-127" x1="549.4" y1="249.8" x2="549.4" y2="254"/>
	<path class="st3 file-1-element-128" d="M508.9,253.6"/>
	<line class="st3 file-1-element-129" x1="508.9" y1="253.6" x2="508.5" y2="259.9"/>
	<path class="st3 file-1-element-130" d="M425.8,340.8c0,0-4.6-3.4-2.1-8.9c0,0-3.8-11,2.1-13.1c0,0,2.1-11.4,11.8-8.4c0,0,3-10.5,12.6-5.1   c0,0,2.5-8,9.3-3.4c0,0,7.6-8,8.9-3c0,0,5.5-5.1,7.2,1.7"/>
	<path class="st3 file-1-element-131" d="M452.4,344.6c0,0-11.8-3-9.7-11"/>
	<path class="st3 file-1-element-132" d="M449.9,317.2c0,0-3.4,5.9,0,7.2c0,0-1.7,4.6,3,4.2"/>
	<path class="st3 file-1-element-133" d="M461.7,324c0,0-5.1,5.5-2.1,9.3c0,0-3.4,10.1,4.2,9.7"/>
	<path class="st3 file-1-element-134" d="M431.3,332.4c0,0-4.2-11,4.2-14.8"/>
	<path class="st3 file-1-element-135" d="M478.9,235.9c0,0,0.4-4.6,5.5-3.8"/>
	<path class="st3 file-1-element-136" d="M488.2,221.1c0,0-6.3,8.9,0.4,13.5"/>
	<path class="st3 file-1-element-137" d="M688.1,181.5c0,0,4.2-8.4-4.6-14.3c0,0,3.4-10.1-6.7-11.8c0,0,4.6-7.6-4.6-9.7c0,0,0.4-11.8-6.7-9.7   c0,0-4.6,1.3-3.8,4.6c0,0-5.9-5.1-9.3-1.7s-0.4,8-0.4,8"/>
	<path class="st3 file-1-element-138" d="M657.3,152.4c0,0-8-6.3-14.8-2.5"/>
	<path class="st3 file-1-element-139" d="M644.6,146.5l-2.1-5.9c0,0,10.1-2.1,5.1-6.7s-1.7-13.1-8.4-12.6"/>
	<path class="st3 file-1-element-140" d="M638.3,124.6c0,0-6.3-9.3-14.8-2.5"/>
	<path class="st3 file-1-element-141" d="M626.1,126.7c0,0-3.4-7.2-11-6.3"/>
	<path class="st3 file-1-element-142" d="M564.5,158.7c0,0,0,13.9,11.8,8c0,0,9.7,6.3,11-3.8c0,0,12.2-3,5.5-13.9"/>
	<path class="st3 file-1-element-143" d="M588.1,149.9c0,0,5.9-3.4,1.3-10.5"/>
	<path class="st3 file-1-element-144" d="M573,154.5c0,0,8.9,5.9,13.9-1.3"/>
	<path class="st3 file-1-element-145" d="M632,151.5c0,0,2.5-5.5-5.9-3.8c-8.4,1.7-8.9,2.5-13.1,0c0,0-8.4-3,0-6.7"/>
	<path class="st3 file-1-element-146" d="M610.1,144c0,0-9.3-3-2.5-7.2c0,0-9.3-1.3-3.8-5.9"/>
	<path class="st3 file-1-element-147" d="M611.8,124.6c0,0-7.2-7.2-7.6-0.4c-0.4,6.7,3.8,6.3,3.8,6.3"/>
	<path class="st3 file-1-element-148" d="M611.3,119.5c0,0,5.5-7.2,0.8-9.7"/>
	<path class="st3 file-1-element-149" d="M596.6,116.1c0,0-6.7,3-2.5-5.5"/>
	<path class="st3 file-1-element-150" d="M593.2,106.4c0,0,4.6,3,10.1,3c5.5,0,11,0.4,11-5.9c0-6.3-7.2-5.1-8.9-2.1c0,0-5.5-8.4-8.9-1.7   c0,0-8.4-7.6-13.9,6.7"/>
	<path class="st3 file-1-element-151" d="M584.8,109.8c0,0-2.1-3.8-7.2-0.8"/>
	<path class="st3 file-1-element-152" d="M580.1,114c0,0-8-11-13.5-6.3c-5.5,4.6-2.5,6.7-2.5,6.7"/>
	<path class="st3 file-1-element-153" d="M565.8,120.3c0,0-5.5-10.5-10.5-5.5c-5.1,5.1-5.1,5.1-5.1,5.1"/>
	<path class="st3 file-1-element-154" d="M560.7,124.6c0,0-10.5-8.4-14.8,1.3"/>
	<path class="st3 file-1-element-155" d="M551.9,133c0,0-4.2-6.7-8.4-3c0,0-5.1-5.5-10.1,1.7c-5.1,7.2,1.7,10.1,1.7,10.1s-8.9,5.9-5.5,14.8"/>
	<path class="st3 file-1-element-156" d="M537.1,152.8c0,0,2.1,8.4-4.2,6.7c-6.3-1.7-12.2-3.8-15.2-0.4"/>
	<path class="st3 file-1-element-157" d="M513.5,157.9c0,0,0-8.4-9.3-6.7c-9.3,1.7-8.9,8.4-8.9,8.4"/>
	<path class="st3 file-1-element-158" d="M503.4,161.7c0,0,3.8-3.8,7.2,1.7c3.4,5.5,7.2,4.2,11.8,0"/>
	<path class="st3 file-1-element-159" d="M501.3,166.3c0,0-5.1-8.4-12.6-3.4s-5.5,12.2-5.5,12.2"/>
	<path class="st3 file-1-element-160" d="M483.6,179c0,0-10.8-1.9-8,5.9s10.1,7.2,10.1,7.2"/>
	<path class="st3 file-1-element-161" d="M504.7,197.9c0,0,7.6-7.6-1.7-5.1c0,0-2.1-7.6-8.4-1.3c0,0-10.1-3.8-6.3,6.3c2.8,7.6-3.8,8.9-3.8,8.9   c-10.5,2.5-8,13.5-8,13.5c-7.2,3.4-2.5,12.2-2.5,12.2c-5.9,5.9,3.8,12.2,3.8,12.2c-4.2,1.7,0,11.4,0,11.4"/>
	<path class="st3 file-1-element-162" d="M496.2,213.9c0,0,11.4-2.5,15.2,1.3c0,0,0-8,8-10.1"/>
	<path class="st3 file-1-element-163" d="M538.4,184c0,0-7.2-11.4,5.5-12.6c0,0,7.2-9.7,12.6-2.1c0,0,10.1,1.3,8.4,9.3"/>
	<path class="st3 file-1-element-164" d="M562.4,187.4c0,0,5.5,5.1,7.6-5.5"/>
	<path class="st3 file-1-element-165" d="M564.5,202.6c0,0,9.7,6.3,11.8-5.1c0,0,7.2,3.8,9.3-3.8"/>
	<path class="st3 file-1-element-166" d="M587.7,184c0,0-3.4-4.6,4.2-6.3"/>
	<path class="st3 file-1-element-167" d="M557.4,204.7c0,0-7.2-5.5-10.1,3"/>
	<path class="st3 file-1-element-168" d="M517.7,197.1c0,0-7.6-5.9-3.8-13.5c0,0,6.3-1.7,6.3-8.4"/>
	<path class="st3 file-1-element-169" d="M604.6,168.4c0,0,15.6,4.6,18.6-8"/>
	<path class="st3 file-1-element-170" d="M652.6,182.3c0,0,6.3,5.1,9.7-3.4c0,0,5.1,11.4,13.1,3"/>
	<path class="st3 file-1-element-171" d="M602.1,180.2c0,0,3,8.9,9.3-0.4"/>
	<path class="st3 file-1-element-172" d="M635.8,167.6c0,0,7.2-7.2-1.3-9.3c0,0,1.3-6.3,9.3-2.1"/>
	<path class="st3 file-1-element-173" d="M560.7,140.6c0,0,7.6,3.8,10.5-3.4"/>
	<path class="st3 file-1-element-174" d="M581,128.4c0,0,7.2,0.8,6.7-4.2"/>
	<path class="st3 file-1-element-175" d="M592.8,194.1c0,0,7.2,4.2,7.2-5.9"/>
	<path class="st3 file-1-element-176" d="M553.1,187.4c0,0-3-7.2,3.8-10.1"/>
	<path class="st3 file-1-element-177" d="M528.3,208.9c0,0,9.3,5.5,12.2-6.7"/>
	<polyline class="st3 file-1-element-178" points="656.3,302.5 643,316.6 640.1,320.7 639.2,325.1 652.3,324.3  "/>
	<line class="st3 file-1-element-179" x1="661.4" y1="297.5" x2="678.1" y2="277.2"/>
	<line class="st3 file-1-element-180" x1="686" y1="269.4" x2="702" y2="251.5"/>
	<line class="st3 file-1-element-181" x1="647.6" y1="286.9" x2="646.7" y2="273.4"/>
	<line class="st3 file-1-element-182" x1="664.9" y1="267.5" x2="664.9" y2="249.8"/>
	<path class="st3 file-1-element-183" d="M682.6,253.2"/>
	<line class="st3 file-1-element-184" x1="682.6" y1="253.2" x2="681.7" y2="242.2"/>
	<line class="st3 file-1-element-185" x1="688.9" y1="235" x2="686.8" y2="218.2"/>
	<polyline class="st3 file-1-element-186" points="657.2,396.3 656,338.7 712.5,334.9 715.7,407.8  "/>
	<polyline class="st3 file-1-element-187" points="731.3,413.5 728.5,320.6 780.7,253.6  "/>
	<line class="st3 file-1-element-188" x1="695.6" y1="187.8" x2="757.6" y2="240.4"/>
	<line class="st3 file-1-element-189" x1="702" y1="251.5" x2="780" y2="249.4"/>
	<line class="st3 file-1-element-190" x1="669.1" y1="302.9" x2="685.5" y2="302.1"/>
	<line class="st3 file-1-element-191" x1="699" y1="288.6" x2="714.6" y2="287.7"/>
	<line class="st3 file-1-element-192" x1="715.5" y1="296.6" x2="732.3" y2="296.6"/>
	<line class="st3 file-1-element-193" x1="696.5" y1="268.3" x2="710.8" y2="267.9"/>
	<line class="st3 file-1-element-194" x1="663.3" y1="402.1" x2="803.7" y2="428.3"/>
	<line class="st3 file-1-element-195" x1="669.5" y1="412.9" x2="712.1" y2="421.8"/>
	<line class="st3 file-1-element-196" x1="668.2" y1="429" x2="704.9" y2="437"/>
	<line class="st3 file-1-element-197" x1="515.2" y1="389.8" x2="580.1" y2="404.5"/>
	<line class="st3 file-1-element-198" x1="571.7" y1="452.1" x2="799.4" y2="515.3"/>
	<path class="st3 file-1-element-199" d="M501.9,310c0,0,9.4,0.1,11.9-0.5c2.5-0.7,1.6-12,1.4-14.5s-6.9-2.4-10.8-2.2c-3.9,0.1-2.9,2.9-3,6.5   C501.2,303,501.9,310,501.9,310z"/>
	<path class="st3 file-1-element-200" d="M532.1,310.8c0,0,7.6-0.1,9.1-0.7c1.6-0.5,1.7-14.2,1.3-16.6c-0.4-2.4-12-1-13.5-0.9c-1.4,0.1-1.2,11.4-1,14.8   C528.2,310.8,530.4,311.1,532.1,310.8z"/>
	<path class="st3 file-1-element-201" d="M567.1,310.3c0,0,9.9,1.6,11-0.9c1-2.5,0.3-18.9,0.3-18.9s-16.1-0.7-16.7,0.7c-0.7,1.3-1.3,18.4-0.4,18.8   C562.1,310.3,567.1,310.3,567.1,310.3z"/>
	<path class="st3 file-1-element-202" d="M599.8,310.1c0,0,11.8,0.7,13.1-0.3c1.3-0.9,0.1-19.2-0.1-19.9c-0.3-0.7-14-1.7-14.8-0.7s-0.3,20.3,0.1,20.6   C598.5,310.4,599.8,310.1,599.8,310.1z"/>
	<path class="st3 file-1-element-203" d="M596.9,338.1l1,25c0,0,14.8,1.2,15.9,0.5c1.2-0.7-0.3-24.6-0.7-26.3C612.8,335.6,596.9,338.1,596.9,338.1z"/>
	<path class="st3 file-1-element-204" d="M528.9,356.5c0,0,8.2,0.5,12,1.4c3.8,0.9,4.2-22.6,3-23.5c-1.2-0.9-15-0.7-15-0.7V356.5z"/>
	<path class="st3 file-1-element-205" d="M501.6,355.5c0,0,14.8,1.8,15.4,0.4s0.9-21.6,0.9-21.6s-13.2,0.5-15,0.1C502.9,334.4,501.2,352.7,501.6,355.5z   "/>
	<path class="st4 file-1-element-206" d="M573.5,338c0,0,0.5,18.4,0.5,19.2c0,0.8,5.5,0.9,5.5,0.9l-0.5-20.9L573.5,338z"/>
	<line class="st4 file-1-element-207" x1="569.4" y1="310.4" x2="569.8" y2="290.9"/>
	<line class="st4 file-1-element-208" x1="562.2" y1="300.4" x2="577.5" y2="300.4"/>
	<line class="st4 file-1-element-209" x1="509.6" y1="355.7" x2="510" y2="335.2"/>
	<line class="st4 file-1-element-210" x1="501.5" y1="348.6" x2="516.9" y2="348.6"/>
	<line class="st4 file-1-element-211" x1="502.3" y1="342.8" x2="517.7" y2="342.8"/>
	<line class="st4 file-1-element-212" x1="536.4" y1="356.3" x2="536.8" y2="335.7"/>
	<line class="st4 file-1-element-213" x1="528.3" y1="349.2" x2="543.7" y2="349.2"/>
	<line class="st4 file-1-element-214" x1="529.1" y1="343.3" x2="544.5" y2="343.3"/>
	<line class="st4 file-1-element-215" x1="605.2" y1="362.7" x2="605.6" y2="337.3"/>
	<line class="st4 file-1-element-216" x1="597.2" y1="353.9" x2="612.6" y2="353.9"/>
	<line class="st4 file-1-element-217" x1="598" y1="346.6" x2="613.3" y2="346.6"/>
	<line class="st4 file-1-element-218" x1="535" y1="309.7" x2="535.3" y2="293.2"/>
	<line class="st4 file-1-element-219" x1="528.4" y1="301.3" x2="542.3" y2="301.3"/>
	<line class="st4 file-1-element-220" x1="507.8" y1="309.9" x2="508.2" y2="293.3"/>
	<line class="st4 file-1-element-221" x1="501.2" y1="301.4" x2="515.1" y2="301.4"/>
	<line class="st4 file-1-element-222" x1="605.4" y1="309.6" x2="605.9" y2="289.6"/>
	<line class="st4 file-1-element-223" x1="597.6" y1="299.4" x2="614.3" y2="299.4"/>
	<line class="st3 file-1-element-224" x1="632.2" y1="352.5" x2="632.2" y2="375.3"/>
	<path class="st3 file-1-element-225" d="M499.3,477.8c0,0,11.4,12.8,16.2,12.3c0,0,2.1-0.8,0-3.4c-2.1-2.6-2.1-2.6-2.1-2.6s3.5,4.6,5,2.9   s-2.2-5.4-2.2-5.4s3.5,4.6,4.7,3c1.2-1.6-6.4-8.8-9.4-9.9c-3-1.2,5.1,2.4,5.5,0.1c0.4-2.2-6.4-4.8-9.3-5.5"/>
	<path class="st5 file-1-element-226" d="M351.9,294.1c0,0,11.2,20.8,14.9,20.7l-2.3-5.5c0,0,3.3,6.7,7.1,4.4l-6.4-6.7c0,0,8.5,9.1,11.2,7.6   c2.7-1.5-6.1-8.8-6.1-8.8"/>
	<path class="st5 file-1-element-227" d="M377,310.9c0,0,3,2.3,3.6,0s-9.4-7.6-9.7-9.3c-0.3-1.7-0.3-3.5-0.3-3.5"/>
	<path class="st5 file-1-element-228" d="M362.3,296.4c0,0,2.6,0.8,4.6-0.3c2-1.1,7.3,4.1,9.4,3.6c2.1-0.5-0.5-4.6-5.8-7s-9-3.2-10.2-3.8"/>
	<path class="st5 file-1-element-229" d="M294.2,392.7c0,0-1.7-4.6-4.7-6.7c-3-2.1-5.2-5.6-6.5-6.5c-1.4-0.9-2.6,2.4-1.4,4.4s2.6,2.9,2.6,2.9   s-3.3-1.2-5.6-4.7c-2.3-3.5-3.8-3-3.6-1.1c0.2,2,1.2,3.6,1.2,3.6s-1.7,0.8-0.9,2.6s1.4,3.2,1.4,3.2s-0.9,4.3,3.5,6.5   s6.4,1.5,6.4,1.5l3,2"/>
	<path class="st5 file-1-element-230" d="M344,406.4c0,0-7.4-4.3-7.7-7.1c-0.3-2.9,0.6-2.1,1.2-3.8c0.6-1.7,0-5.5,2.9-7.7c2.9-2.3,2.9-2.6,3.5-3.5   c0.6-0.9,0.3-7.9,7-9.1"/>
	<path class="st4 file-1-element-231" d="M345.4,385.6c0,0-4.1-2.3-4-3.8"/>
	<path class="st5 file-1-element-232" d="M356,372.2c0,0-4.1,0-3.8,5c0.3,5,3.8,2.1,1.5,5.9c-2.3,3.8,2.7,5-0.2,8.2c-2.9,3.2-3.5,4.6-2.4,6.7   c1.1,2.1-3.3-1.5-5.6,1.4c-2.3,2.9-2.7,7.7-0.6,11.7c2.1,4,3.3,7.6,7.4,6.5c0,0,4.1,7.4,10.6,3c0,0,9.7,0.8,11.7-4.3   c0,0,3.6-2.1,2.3-7.9c0,0,1.4-3.6,0.8-7.6c0,0,3.2-7.1,1.2-12.3c0,0-0.2-6.4-6.1-9c0,0-4.9-5.3-9.4-5.6   C363.5,374.1,361.2,372.2,356,372.2z"/>
	<path class="st5 file-1-element-233" d="M370.9,376.8c0,0,5.8-12.3,4.7-17.8c-1.1-5.5-3.2-6.5-3.2-6.5"/>
	<path class="st5 file-1-element-234" d="M372,355.1c0,0,0.5-3.8-1.4-5s-1.8,0-1.8,0"/>
	<path class="st5 file-1-element-235" d="M369.1,354.3c0,0-0.6-6.1-2.6-6.1c-2,0-1.1,5.8-1.4,7.9c-0.3,2.1,0.2,3.5,0.2,3.5s-1.5-2.6-3-2   c-1.5,0.6-0.5,3.5,0.8,5.6c1.2,2.1-0.2,8.4-0.9,9.3"/>
	<path class="st5 file-1-element-236" d="M393.1,438.6c0,0,7.7-4.4,8.4-6.4"/>
	<path class="st5 file-1-element-237" d="M371.4,471.2c0,0-3.6-6.5-5.2-8.2"/>
	<path class="st5 file-1-element-238" d="M351.3,471.6c0,0,3-4,1.4-7.7"/>
	<path class="st5 file-1-element-239" d="M342.2,447.3c0,0-0.9-2.4,0.3-6.5"/>
	<path class="st5 file-1-element-240" d="M333.6,434.5c-0.2-1.2-0.6-6.2-0.5-8.2"/>
	<path class="st5 file-1-element-241" d="M446.8,373.6c0,0-7.3,3.5-9.1,7.4c0,0-4.4,2.1-5.3,6.7c0,0-2.3,5.3-2.7,9.1c-0.5,3.8-1.1,5,1.7,6.4   c2.7,1.4,5.3,3,8.1,3s6.2,0.2,6.2,0.2"/>
	<path class="st5 file-1-element-242" d="M451.6,413.3c0,0-4,0.3-4.4-3.2"/>
	<path class="st5 file-1-element-243" d="M451.3,408.6c0,0-4.4,2-4.4-0.9c0-2.9,1.1-4.7,3-4.9c0,0-0.2-2.9,1.4-2.9c0,0-0.8-3.8,1.8-4.1   c0,0,4.3-2.6,2.9-5.2c0,0-2.1-2.4-1.4-4.1c0,0-2.9-0.8-1.8-4.9c0,0-8.4-3.5-4.4-8.5c4-5,16.1,2.6,17.2,9c0,0,4.7,2.3,4.1,6.2   c0,0,2,5.3-0.5,7.3c0,0,2.4,6.5-0.9,9c0,0,1.8,4.7-1.4,6.8c0,0-1.1,1.8-3.2,1.1"/>
	<path class="st5 file-1-element-244" d="M466.5,406.6c0,0-2.1,3.2-4.3,0.9c-2.1-2.3-2,4.7-4.8,4.2"/>
	<path class="st4 file-1-element-245" d="M460,382.3c0,0,0.2,3.3,3,3.6"/>
	<path class="st4 file-1-element-246" d="M371.5,409.6c0,0-2.7-2.7-1.1-4.7s1.7-5.3,0.3-6.2"/>
	<path class="st4 file-1-element-247" d="M372.5,390.2c0-0.5,0.3-5.2-2.1-6.4"/>
	<path class="st4 file-1-element-248" d="M357.6,396.4c0,0-1.2-2.3,1.5-4.1c0,0-0.9-3.5,0.9-4.9"/>
	<path class="st4 file-1-element-249" d="M349.1,412.2c0,0,1.5-2.1,0.2-4.9c-1.4-2.7-0.3-4.3-0.3-4.3"/>
	<path class="st4 file-1-element-250" d="M365.9,415.1c0,0,2.6-3.8-0.3-4"/>
	<path class="st6 file-1-element-251" d="M440.2,381.8c0,0,1.8,0.8,2.6,2.3"/>
	<path class="st5 file-1-element-252" d="M449.3,387.3c0,0,2.9,0.8,4.1,2.9"/>
	<path class="st6 file-1-element-253" d="M433.7,395.3c0,0,2.3,2.3,4.4,2.9"/>
	<path class="st6 file-1-element-254" d="M436.1,398.1"/>
	<path class="st6 file-1-element-255" d="M434.5,396.7c-0.1,1.6,1.6,1.3,1.6,1.3"/>
	<line class="st6 file-1-element-256" x1="436.1" y1="392.9" x2="438.7" y2="394.9"/>
	<path class="st6 file-1-element-257" d="M446.3,389.9c0,0,3.8,1.9,4.4,3.6"/>
	<path class="st6 file-1-element-258" d="M436.3,384.7c0,0,3.2,0.4,4.4,2.7"/>
	<line class="st6 file-1-element-259" x1="448" y1="392" x2="447.2" y2="393"/>
	<line class="st6 file-1-element-260" x1="438.6" y1="386.4" x2="437.8" y2="387.3"/>
	<path class="st5 file-1-element-261" d="M172,304.2c0,0-2.3,4.8-6.6,7.7s-13.8,11.5-12.4,18.4c1.4,6.9,1.5,7.2,2.9,6.6c1.4-0.6-0.6-5.7,0.5-8   c1.1-2.3,2.8-5.7,2.8-5.7"/>
	<path class="st5 file-1-element-262" d="M155.9,336.8c0,0,0.8,3.5,3.2,2.5c2.5-1.1,0-3.2,0.3-5.8s1.1-5.7,2.1-6.7"/>
	<path class="st5 file-1-element-263" d="M160.2,336.5c0,0,2-0.8,2.5-3.8c0.5-3.1,1.1-3.8,1.1-3.8"/>
	<line class="st5 file-1-element-264" x1="164.3" y1="332.8" x2="167.7" y2="325.5"/>
	<path class="st5 file-1-element-265" d="M168.3,313c0,0-2.5,4-4.1,7.5c-1.4,3,0.3,3.8,0.3,3.8s2.1,0.5,6.6-5.7c4.4-6.1,5.8-1.8,6.4-8.9"/>
	<path class="st5 file-1-element-266" d="M260.7,200.4c0,0,6.1,7,9.7,8.6c3.5,1.5,8.4,0.5,11.3-3.1c2.9-3.5,4.6-4.4,6.7-6.4c2.1-2,5.5-5.5,7.2-10.9   s6.3-8.7,3.5-17.9c0,0-4.3,1.4-5.1-2c0,0-5.8,4-11.5,0.3c0,0-5.5,7.2-10.9,6.9c0,0-1.4,5.7-5.2,7.8c0,0,1.7,5.5-1.4,7.2   c0,0-1.1,4.4-4.3,4.9c0,0,0.8,5.8-2.8,7.2c0,0-2.3,3.5-5.7,2.8c0,0-2.5,1.2-4.3-1.5c0,0-3.5-0.6-4.9-2.3c0,0-3.8,0.8-4.9-0.9   s-1.4-0.8,3.2-6s11-14.6,11-21.1s4.8-19.2,15.9-22.1c11.2-2.9,20.8-0.2,27.7,10.6c6.9,10.7,2.6,6.6,2.6,6.6"/>
	<path class="st5 file-1-element-267" d="M271.3,171.6c0,0,6.7-2.3,7.2-5.2"/>
	<path class="st5 file-1-element-268" d="M255.8,177.6c0,0,1.4-7,5.4-10.4"/>
	<path class="st5 file-1-element-269" d="M254.7,197.8c0,0,4.3-1.5,3.5-6.1s3.7-8.3,3.7-8.3"/>
	<path class="st5 file-1-element-270" d="M248.1,197.4c0,0,1.8-2.9,4.1-4.3c2.3-1.4,0.5-3.7,0.9-5.5c0.5-1.8,3.8-4,3.8-4"/>
	<path class="st5 file-1-element-271" d="M285.5,165c0,0,6.1,1.2,7.2-1.5"/>
	<path class="st5 file-1-element-272" d="M301,172.1c0,0,2.3,6.6,0.5,11.2c-1.8,4.6-4.9,8-5.2,11c-0.3,3.1-4.8,6.6-4.6,11.3c0.2,4.8-0.9,10.1-2.1,10.1   c-1.2,0-1.7-4-2.6-4c-0.9,0-2.9,2.3-4.3,0.3c-1.4-2-0.6-3.7-0.6-3.7"/>
	<path class="st5 file-1-element-273" d="M279.1,194.7c0,0,2.5,0.3,3.5,1.7c1.1,1.4,2.6-0.9,3.4-4.3c0.8-3.4,3.3-9.5,6.4-8.7c2.6,0.6,3.7,2.8,3.7,2.8"/>
	<path class="st5 file-1-element-274" d="M284.5,180.2c0,0-1.6-1.4-7.7-2.8"/>
	<path class="st5 file-1-element-275" d="M275.4,180.8c0,0,5.7,1.4,7.5,4"/>
	<path class="st5 file-1-element-276" d="M290.4,186.6c0,0,3.1,1.1,4,2.9"/>
	<path class="st5 file-1-element-277" d="M274.9,197c0,0,0.9,1.9,3.4,3.1c1.4,0.6,2.4,0.7,2.4,0.7l1.1,0.5"/>
	<path class="st5 file-1-element-278" d="M278.2,182.6c0,0,0,2.8,2.6,1.2"/>
	<path class="st5 file-1-element-279" d="M291.7,187.8c0,0-0.6,2.4,1.7,1.6"/>
	<line class="st3 file-1-element-280" x1="538.5" y1="440.5" x2="493.2" y2="427.1"/>
	<path class="st3 file-1-element-281" d="M615.7,524c0,0,0.8-10.2-3-19.7c0,0,5.7,7.3,6.2,13.5c0,0,3.5-11.6,0.8-20.2c0,0,7.3,11.1,2.2,24.3"/>
	<path class="st3 file-1-element-282" d="M719.5,570.1c0,0-3.2-12.9,4-20.8c0,0-1.9,7.5,0.3,14.3c0,0,4.3-12.4,3.2-7c-0.3,1.3,0,8.4,1.6,15.6   c0,0,4.6-8.9,4.9-16.7c0,0,4,15.4,1.1,21.6"/>
	<path class="st3 file-1-element-283" d="M561,577.1c0,0-1.6-9.4,4-17.5c0,0-1.1,7.8,0.3,10.8c0,0,4.6-7.8,2.7-20c0,0,5.1,12.7,1.3,22.9"/>
	<line class="st3 file-1-element-284" x1="664.8" y1="352.8" x2="705.8" y2="352.8"/>
	<line class="st3 file-1-element-285" x1="665.3" y1="373" x2="705.8" y2="375.2"/>
	<line class="st3 file-1-element-286" x1="665.1" y1="391.3" x2="705.5" y2="396.2"/>
</g>
</svg>
