<?xml version="1.0" encoding="UTF-8"?>
<!-- Generator: Adobe Illustrator 25.2.3, SVG Export Plug-In . SVG Version: 6.00 Build 0)  -->
<svg xmlns="http://www.w3.org/2000/svg" xmlns:xlink="http://www.w3.org/1999/xlink" version="1.1" id="Layer_1" x="0px" y="0px" viewBox="0 0 792 612" style="enable-background:new 0 0 792 612;" xml:space="preserve">
<style type="text/css">
	.st0{fill:#FFFFFF;}
	.st1{fill:none;stroke:#231F20;stroke-width:2.5;stroke-linecap:round;stroke-linejoin:round;stroke-miterlimit:10;}
</style>
<g id="coloringShapes">
	<polygon class="st0 file-7-element-1" points="826.7,270.4 439,320.4 261.7,154.5 263.3,135.4 376.2,-18.2 815.3,-17.7  "/>
	<path class="st0 file-7-element-2" d="M578.1,83.6c0,0,1.1,2.4,1.1,6.9c0,4.6-1.3,12.6,3.5,15.5s6.9,3.7,8.6-0.4s3.8-6.2,3.8-6.2s-2.4-6.2-2.7-7.3   c-0.4-1.1-0.5-14.4-6.4-17.4s-12.1-4.9-17.6-0.7c-5.5,4.2-5.9,6.9-6.6,8.2s-2.4,7.3-2.6,10.6s-0.7,9.5,1.1,10.6s2.7-0.4,5.9-0.2   C569.3,103.5,578.1,83.6,578.1,83.6z"/>
	<path class="st0 file-7-element-3" d="M572.9,106.8c0,0-6.8,0.9-11.2,4.8c-4.4,3.8-5.7,5.9-3.5,8.6s2,6.9,5.1,5.1s9-9.7,10.4-10.2   s10.2,10.2,10.2,10.2l22.7-11c0,0-4.2-9-11.9-13.2c0,0-1.6-0.4-3.7,4.6c-2,4.9-6.8,15.9-6.8,15.9l-10.4-9L572.9,106.8z"/>
	<path class="st0 file-7-element-4" d="M576.6,104c0,0-4.2,1.5-7.3-0.5s-4-6.2-4.6-11.7c-0.5-5.5-0.5-9.9,3.3-10.1s10.1,1.8,10.1,1.8s0.9,6,0.9,9   s0.9,11.5,3.7,13.5c2.7,2,4.2,2.4,4.8,2.9s0.9,1.6,0.7,2.2s-4.4,12.6-4.4,12.6l20.8,50.5c0,0,8.4,2.2,9,3.8   c0.5,1.6-2.6,12.4-2.6,12.4s0.4,0.5-3.5,0.5c-3.8,0-6.8,1.3-6.6,0.5c0.2-0.7,2.9-15.4,2.9-15.4s-21.4-52.9-21.9-52.1   c-0.5,0.7-26.3,18.8-26.3,18.8l-19.8,32.7l-9.1,7.7l-5.3-1.6l-5.9-3.8l9.3-8.8l4-4.8l5.9,8.8l19.8-32.4l26.9-19l-7.5-6.8l-0.9-8.2   L576.6,104z"/>
	<path class="st0 file-7-element-5" d="M528.9,164.4c0,0,5.7,6.2,6.9,11.3l6.6-3.7l-0.9-5.1l28.3-35.7l1.5-1.8l34.6,37.5c0,0,7.9,0,11.3,5.5l-3.7,5.7   c0,0-3.7-5.3-9-3.8l0.9-5.1l-34.2-35.5l-7.3,7.7l-12.1,8.8l-11.7,15l-6.8-4.4L528.9,164.4z"/>
	<path class="st0 file-7-element-6" d="M-24.3,95.5l340.2,0.4c0,0-5.5,9.5-8.2,17.3s-6.7,12.4-12.8,16.2c-6,3.8-22.4,14-22.4,14s-2.4,2.6-2.6,4.4   c-0.2,1.8,2.4-0.2,3.5,2s-1.1,3.5,2.2,4.6c3.3,1.1,2.9-0.5,5.6,3.5s5.6,6.6,7.8,5.5c2.2-1.1-0.5,3.3,3.8,5.1   c4.4,1.8,5.1-0.2,5.6,0.5s-1.3,2.6,2.4,3.8c3.6,1.3,7.1,3.5,7.1,3.5l-1.8,33.5l-10.9,35.9c0,0-28.6,82.7-45.6,84   c-16.9,1.3-23.5,11.7-37.5-7.5S97.8,256.1,97.8,256.1S70.2,266.3,66.2,267s-23,8.7-29,11.5c-6,2.7-30.1,17.7-35,22.8   c-4.9,5.1-15.1,11.7-15.1,11.7L-24.3,95.5z"/>
	<path class="st0 file-7-element-7" d="M-17.2,95.9h333.1c0,0,3.1-6.2,10-10s24.4-19.7,30.6-30.4c6.2-10.8-24.1-18.8-24.1-18.8L126.7,14.4L-9.9,27.7   L-17.2,95.9z"/>
	<path class="st0 file-7-element-8" d="M318.7,328.7c0,0,6,1.2,11.7-2.8s5.3-2.6,12.4-0.3c7.1,2.3,11.3,4.5,15.8,1.7s5.7-3.9,5.7-3.9s0.6-1.1,0.5-6.5   s1.4-6.8,2.5-11.4s1.2-11,1.9-26.4s-0.9-46.8-0.9-47.3s-17-1.9-17-1.9s-3.4,3.8-17,0.4l-16.4,7.9c0,0-5.6,1.4-9.3-0.9   c0,0-3.9,11-4.8,22.3c-0.9,11.3-0.9,25.7-0.9,25.7s9.1,2.9,12.5,5.7s4.4,3.7,4,5.5s-4,3.4-4,3.4s0.3,5.2,1,6.5s1.2,4.7,2.7,7   c1.4,2.2-0.4,3.5-0.3,5C318.7,319.8,318.7,328.7,318.7,328.7z"/>
	<path class="st0 file-7-element-9" d="M-7.4,307.6c0,0,24.9-20.7,50.8-31.1s62.2-21.8,62.2-21.8s127.5,70.5,138.9,71s6.2,6.2,32.1,3.6   s39.4,3.4,47.7-0.5c8.2-3.9,9.8-6.7,14.5-5.7s16.9,9.4,21.8,4.7s10.9-10.4,30.1-8.8s28.5,7.8,46.1-11.9c0,0,4.7-7.3,20.2-11.4   s48.2-9.3,48.2-9.3l29.5-7.8l74.1-19.2l79.8-21.2c0,0,13,0,20.7,1.6c7.8,1.6,48.2,13,65.8,13.5s40.9-6.7,40.9-6.7l-1,382.9H-8.9   L-7.4,307.6z"/>
	<path class="st0 file-7-element-10" d="M615.6,124l-8.8-9.7l-21.4,9.7c0,0-3.5,0-6.4-3.5s-5.1-5.5-5.1-5.5s-2,5.5-5.5,7.7s-6.2,3.5-7.9,0.2   c-1.6-3.3-3.5-4.8-3.5-4.8s-0.9,8.1-2.6,10.2c-1.6,2.2-2.9,2.7-4.6,6.9s-3.8,8-5.5,11.2c-1.6,3.1-2.6,5.9-5.9,8   c-3.3,2.2-6.4,6.4-6.4,6.4s10.6,3.8,10.2,11.2c0,0,5.9-5.2,9.1-9.5s7.9-12.4,8.2-13c0.4-0.5,6.6-9.7,6.6-9.7l1.1,7.9   c0,0,1.3,10.2,1.3,10.8c0,0.5,1.5,5.3-1.6,10.2s-6.9,14.6-7.5,15.7c-0.5,1.1-2.7,6.8-0.5,7.3s12.4,1.5,13,1.5c0.5,0,8,0,8,0   l5.1-12.1l1.5,14.4l13.2,1.5l3.3-5.3c0,0-2.9-0.2-2.4-3.1s4.4-13.5,3.8-14.4s1.3-7.3,1.3-7.3s9.3-0.2,11.3,5.5   c0,0,10.6-19.6,10.8-27.4C628.2,137.1,615.6,124,615.6,124z M609.3,159.6c-0.4,1.7-3.3,1.9-3.6,0c-0.5-2.9-0.2-5.8,0.2-8.7   c0.3-2.6,0.6-5.4-0.2-8c-0.4-1.2,0.4-2,1.3-2.2c0,0,0.1,0,0.1-0.1c1-0.6,2-0.1,2.6,0.7C614,146.9,610.9,153.6,609.3,159.6z"/>
	<path class="st0 file-7-element-11" d="M635.2,319.1l15.3-6.7c0,0,21.9,9.3,35.6-7.6c0,0,10,0.7,12.3,5.3c2.3,4.7,11.6,12,13.6,14.6   c2,2.7,4,9,3.3,15.6c-0.7,6.7,0,21.3,0,21.3l-3.7,42.6l-55.9,58.9l-17,3.7l-17.3,6.3l8.3-11l2-76.2L635.2,319.1z"/>
	<path class="st0 file-7-element-12" d="M475.9,494.3c0,0,32.3-9.3,49.2-10.6c16.9-1.3,43.6-5.7,59.5-5.3s23.9,1.3,36.9-5.3c13-6.7,24.9-8,39.6-9.6   c14.6-1.7,25.3-2.3,42.2-9.6c17-7.3,49.2-13,64.5-15.6c15.3-2.7,34.3-6,34.3-6l0.7,106.1c0,0-289.6,37.6-291.6,35.9   C509.2,572.5,475.9,494.3,475.9,494.3z"/>
	<path class="st0 file-7-element-13" d="M510.2,565.1c0.4-1.2,1.9-5.3,4.1-9.4c2.2-4.1,2-5.7,3.5-11.7c1.5-5.9,1-6.9-0.7-15.7s-4.1-16.1-11.2-22.5   c-7.2-6.4-17.7-8.8-26.1-9.9s-11-1.9-20.9,4.3c-9.9,6.2-13.3,13.4-19.8,23.7c-6.5,10.2-5.7,19.3-3,26.4s12.8,20.5,12.8,20.5   L510.2,565.1z"/>
	<path class="st0 file-7-element-14" d="M449.8,564.9c0,0-12.9-12.9-8.6-30.9c4.3-18.1,21-30.6,22.5-31.6c1.4-1,7.9-4.1,15.6-2.5   c7.7,1.5,15.1,5.2,21.4,8.8c6.3,3.6,5.3,0.7,8,5.5c2.8,4.8,1.3,6.3,3.6,10.8c2.3,4.5,0.9,7.3,0.9,11.2c0,4,0,9.2-1.9,13.8   s-2.6,6.1-2.6,6.1s0.9,14.2-3.3,16.4c-4.2,2.2-44.9,4.8-45.2,4.8S449.8,564.9,449.8,564.9z"/>
	<path class="st0 file-7-element-15" d="M801.6,525.3c-0.5-1.4-4.6,0.3-6,0s-7.3,0.5-8.2-3.5s-2.2-4.1-3,0.8c-0.8,4.9-1.9,2.7-3-4.4   c-1.1-7.1-2.4,11.4-4.4,4.1c-1.4-5.5-4.1,4.4-5.4-6.5c-1.4-10.9,0-1.1-0.3,2.7s-1.9,10.3-2.7,5.2s0-6-2.7-3s-2.4,4.9-2.4-0.5   s-2.7,7.9-2.4-0.5c0.3-8.4-3.5,9.8-6.5-2.4s0,0-1.6,3.5s-4.6,9.5-5.7,2.7c-1.1-6.8-0.8-5.2-3-1.9s-4.9,6.3-5.4,1.1   s-0.8-3.3-2.2-0.3s-7.6,10.3-8.4,3c-0.8-7.3-0.8,1.6-1.4,3.8c-0.5,2.2-2.4,5.2-4.1-3.3s0,0-1.6,7.3s-3.5,4.6-5.4-2.7   s-1.9-4.1-3.3,5.4c-1.4,9.5-1.1,0-3.3-7.3s-0.8-3.8-2.2,0.3s-1.9,9.2-3.3,4.4s-1.1-5.2-1.9-2.7c-0.8,2.4-1.9,7.3-3.5,1.4   c-1.6-6-0.5-1.4-1.6,1.9c-1.1,3.3-2.4,4.1-3.3,1.6c-0.8-2.4-2.7-4.1-3.3-0.8c-0.5,3.3-2.4,4.6-4.4-2.2c-1.9-6.8,0,0-1.6,2.7   s-2.7,6-3.8-0.8s-3.3,0-5.2,8.4s0.3-2.7-0.3-9.2c-0.5-6.5-3.3,1.6-4.1,7.9c-0.8,6.3,0.3-1.6-0.3-7.9c-0.5-6.3-3,4.1-4.6,9.2   c-1.6,5.2,0,0-1.4-6.8s-5.2,9-6.5,2.7s-1.6-2.4-4.9,1.6c-3.3,4.1-4.6,6-5.2,0.5s-1.1-1.6-2.7,4.1c-1.6,5.7-6.3,4.4-7.1-3   s-1.1-1.9-2.2,3c-1.1,4.9-4.6,4.1-5.2-1.6c-0.5-5.7-0.3-4.6-2.7,1.4s-5.7,5.2-6.8-0.5s-1.1-2.7-2.2,3c-1.1,5.7-4.4,3.3-6.3-4.9   c-1.9-8.2,0,0-1.6,5.4s-5.2,7.9-5.7,0.8c-0.5-7.1-2.2-4.4-4.6,0.8s-4.1,5.2-4.1-0.8s-0.8-4.1-5.4,4.6c-4.6,8.7-3.8,6.8-3.5,0.3   s-3.8-0.8-6.3,5.7c-2.4,6.5-4.4,4.4-5.4-2.7c-1.1-7.1-1.4-0.5-3.8,5.4s-4.6,3.3-2.7-5.4c1.9-8.7-0.5-3.5-3,1.6s-3.8,6.5-3.5-1.1   s-2.4-4.1-5.7,2.7s-3.8,5.2-2.4-0.3s-3.5-4.6-6.5,0.3s-4.6,4.1-3.5-0.3c1.1-4.4-0.3-4.9-2.4-0.8c-2.2,4.1-3.3,5.2-3,0.3   s-3-0.5-5.2,3.8c-2.2,4.4-5.2,4.4-4.4,0.3s1.6-7.1,0-5.2c-1.6,1.9-8.7,8.4-7.3,4.6s0.8-5.2,0-3.8s-5.7,9-4.4,6   c1.4-3,1.6-10.3-1.1-4.6c0,0-3-3.3-3.3,2.4s0.3,2.4-3.5-4.1s-1.4,0-3.3,5.7s-4.9,6.3-5.2-0.5c-0.3-6.8-2.4-4.1-1.9,1.6   c0.5,5.7-1.6,9.2-1.6,3s-2.4-11.2-3.3-2.4c-0.8,8.7-3.3,7.9-3,1.4s-2.7-9.2-2.7-1.9s-5-3.2-4.4,0.5c1.1,6.5,2.4,14.1-0.8,6.8   c-3.3-7.3-1.6-12.5-3.3-7.3c-1.6,5.2-1.6,7.9-3.5,2.7s-1.6-9-1.9-2.2s-0.5,12.8-2.4,4.4c-1.9-8.4-0.8-6.3-2.2-2.7   c-1.4,3.5-4.1,6-4.1,0.5c0-5.4-0.5-7.3-2.2-2.2c-1.6,5.2-1.4,9.8-2.7,3.3c-1.4-6.5-1.1-8.2-2.4-3s-3.8,7.9-5.7,1.9s-1.9-9-2.7-3.5   c-0.8,5.4-2.4,8.2-3.5,3.3s-4.1-3.8-4.4-0.3s-3.3,2.7-5.2-1.4c-1.9-4.1-2.7-1.1-3.5,3.8s-3.8,4.1-7.6,7.3c-3.8,3.3-7.6-4.1-7.6-4.1   s-2.7-1.9-3.5,3c0,0,0-4.9,0.5-11.2s-1.9,0.8-3.8,6s0,0,0-7.3s-1.1-4.1-4.1,2.2c-3.2,6.6-2.4,11.2-2.4,11.2s-6.8-6.6-6.1-8.6   c0.7-2-1.7,6-2,7.3s-3-6.3-3-6.3l-3.3,3l-4.7,6l-4-5l-2,6.3c0,0-4.7-8.6-4.3-6.7c0.3,2,0.7,11-1.7,5c-2.3-6-1.3-7.3-3-2s-4,2-5-2.3   s-2-2-3.7,1.7s-3.3,6-5,0.7s-1.3-5.7-2.3-1.3c-1,4.3-1,4.3-1,4.3s-1.3-2.7-3.3-1.3c-2,1.3-2,1.3-2,1.3l-3-2l-2.3,2   c0,0-4.3-3.7-4.3-2.7s0,5,0,5s-3.3,1.7-5.7-2.3c-2.3-4-0.7-1-2,3.3s-4.7,8-6.3,0c-1.7-8-5.5-5.3-4.7,0s-3.3-4.7-3.3-4.7l-3.7,7   l-4.3-8.3c-3.6,2.5-5.3,5-5.3,5s-2,0.3-3.3,3s-3.7-6-3.7-6l-1.7,8l-4.3-5.3c0,0-1-0.7-2,2.7c-1,3.3-3.7,3-4.7-1.7s-4-6-4.7-4.7   s0,6.3-0.3,7.3s0.7,4.7-1.3,3s-2.7-3.7-2.7-3.7l-2.7,7.3c0,0-5,6-7-4s-1.3-8.3-1.3-8.3l-3.3,7l-4-7.6l-2.3,11.3l-2.3,2.7l-3-9.3   l-3,9.6c0,0-2.3,5.3-5.3-4.7s-4,1-4,1s-2.3,9-6.3-3l-2.7,3.3c0,0-2-7-4.3-6.7s-1,6-1,6l-4.3-1.3l-4-6.7l-1.7-10.6   c0,0-0.7,0.9-0.8,1.2c-0.2,0.3-1,5.3-1.7,7s-1.5,2.7-3.1,3.2s-0.9,1.9-2,0.2s-1.3-2.2-1.3-2.2s-1.2-1.1-1.9,0.6   c-0.7,1.7-0.5,2.9-2,2.3c-1.5-0.6-2.1,1.2-2.9-1.6c-0.8-2.8-2.5-0.6-2.7,0s-0.4,6.4-0.4,6.4s-5.2-7.1-5.7-7.7   c-0.6-0.7-3.2-6.5-3.2-6.5l-3.7,7.1c0,0-2.8,4.6-3.1,4.3s-1.8-2.7-1.9-3.6c-0.1-0.9-0.6-4.6-1.4-5.3c-0.8-0.7-0.3-0.1-2.3,2.2   s-1.6,5.7-2.7,3.7s-2.7-5.7-2.7-5.7s-2,4.7-2.6,5.3c-0.6,0.7-3.4,3-3.7,3s-2.7-4.6-3.2-6.2c-0.5-1.7-1.3-6.6-2.2-7.4   s-2.3,0.2-1.9,1.9c0.4,1.7-1.4,14.7-1.4,14.7s-1.3-8.3-2.9-9.6c-1.6-1.2-2.7,0.7-2.7,1.2c0.1,0.5-0.2,5.1-0.3,5.6s-0.9,1.9-0.9,1.9   s-2.4-7.8-2.6-8.4c-0.2-0.6-1.1-2.2-1.2-1.3s-0.3,5.4-0.9,6.9c-0.6,1.5-2.5,3.4-2.7,3s-1-6.2-1.3-7.4s-2-2.3-2-2.3s-0.9,6.7-1.1,7   c-0.2,0.3-0.4,3.2-1.7,2.9c-1.2-0.2-2-2.9-2.2-4.2c-0.2-1.2-2.4-6.9-2.4-6.9l-1.7,5.3c0,0-0.2,3.9-3.2,3.7s-3.9-4.3-4.3-5   s-0.9-1.1-0.9-1.1l-0.9,7.1c0,0-1.7,3.9-2,3.5c-0.2-0.4-2.9-7.6-2.9-7.6l-1.2-2.9l-2.3,4.7l-2.4,1c0,0-1.8-2-1.7-4.7   s-0.2-4.6-0.2-4.6s-0.8,3.7-1.6,4.6s-1.8,1.2-2.1,0.8s-2.6-0.6-2.8-0.4c-0.3,0.2-2.7,3.3-3.8,3.2s-3.9-0.5-3.9-0.5s-1.9,1.4-2-2.3   s0.7-6.5-0.8-3.2c-1.6,3.3-2.3,8.5-3.3,3.2c-1-5.2-0.9-6.5-1.7-2.7c-0.7,3.8,1.1,6.8-1.4,2.7s-4.2-3.7-2.1-0.4   c2.2,3.2,0.4,4.7-0.7,2.2s-2.7-2.8-2.2-5s0.4-4.8-1.2-0.5s-1.3,8.7-2,5.8s-2.2-7.8-2.2-5.3c0.1,2.5-1.6,4.6-1.6,4.6   s-3.7-0.6-4.6-3.2c-0.8-2.6-0.1-3-0.8-2.6s-1.3-0.8-2.4,2.2s-1.6,5.1-1.7,4.8c-0.2-0.2-2-7-2.3-6.6s-1.7,3.1-2,2.7   c-0.2-0.3-3.2-6.9-3.2-6.9l-1.8,8.2c0,0-1.7,4.2-1.7,3.6s-1.7-7-1.7-7s-1.3-0.6-1.4,1.2c-0.1,1.7-2.8,1.4-3.2-1.5   c-0.3-2.9-0.6-5.6-1-2.8s-0.4,5.8-1.5,1.7s-1.2-7-2.1-5s0.4,9.3-1.3,5.1s-1.8-4.2-1.7-1.8c0.1,2.3,0.6,4.6-0.5,2.7   s-2.2-1.5-2.5,0.5c-0.2,2-1.5,3.5-1.5,3.5s-2.2-1.9-2.5,1s-2.4,3.9-2.9,2.7s-0.5-5.2-1.6-8.2s-3.8-6.7-3.8-6.7s-0.4,3.7-0.2,5.1   c0.2,1.3,0.4,5.7,0,7.1c-0.4,1.4-1.4,1.7-2.2-1.4c-0.7-3.1-2.4-5.5-2.4-5.5s0.6,3.8-0.1,6.3c-0.7,2.5-0.8,3.2-1.1,3.2   s-3.5-5.3-4.2-6.5s-3-2.8-2.4-0.3s1.2,9-0.5,4.7s-1.7-4.5-2.4-1.7s0.2,5.8-1.6,3.1s-1.7-4.8-4.6-2.7c-2.8,2.1-7.8,1.5-7.8,1.5v47.1   H815V525.6L801.6,525.3z"/>
	<path class="st0 file-7-element-16" d="M442,517.9c0,0-14.6-2.7-20.3-2c-5.7,0.7-8.1,1-9.6-2.7s-3.3-4.3-3.7,0c-0.3,4.3-0.7-4-2.3-7.3s-4.3,5.7-5,7.6   c-0.7,2-1.5-10.7-2-12s-4.3-3-4.3-3s-0.7,8-2.7,8.6c-2,0.7-2.7-10.3-2.7-10.3l-3,5c0,0-4.7-11.3-3.3-15.6c1.3-4.3,3-4.3-2-10   s-6-19,1.7-23.6c7.6-4.7,12.3-4,17,1.7s10.4,15.2,20.3,13.6c8.3-1.3,22.6-6.3,31.3,3c0,0-5.7,5.7-3,9.3c2.7,3.7,8.7,3.4,9,6.7   c0.3,3.3-3.3,5.7,3,7.6c6.3,2,4.7,2.3,4.7,2.3S449.3,505.3,442,517.9z"/>
	<path class="st0 file-7-element-17" d="M451.3,462.1c0,0,1.3,7,0,9s-3.7,1.7-2.7,6.7s2,6,5.3,7.6c3.3,1.7,6.3,9.3,6.3,9.3s3,2.3,15.6-0.3   c12.6-2.7,21.9-5.3,21.9-5.3s-4.7-25.6-2.7-30.9s4.7-12,9.6-12.6c5-0.6,6.3-1.3,6.3-1.3s-4.3-3.7-1.7-6.7c2.7-3,11.3-8,11.3-8   s-3.3-10.6-9.3-18.6s-9.6-12.3-9.6-12.3l-8-7.3l-4.7,4.7l-26.3-27.3c0,0-2.3,3-2.7,5.7c-0.3,2.7-1.1,4.9-2.3,5.7   c-1.2,0.7,1.7-0.7,1.7,3.3s0,7.1,2,9.3s-1.3,8.6,0.7,8.3c2-0.3,7.6-3.3,9-1.3s3.3,2.3-3,3.3s-10,0-13.6,5.3s-7.3,6-8.6,12.3   c-1.3,6.3-0.7,6.3-7.3,10.3c-6.7,4-9.8,7.6-13,11.6s-6.3,12-9.3,13.3s-14.3,1.7-14.3,1.7s9.3,11,18,10.6c8.6-0.3,16.3-3,21.9-8.6   s10-9,10-9L451.3,462.1z"/>
	<path class="st0 file-7-element-18" d="M508.2,395.9c0,0-1.7-14.6-0.3-22.3c1.3-7.6,2-16.3-3-20s-15.6-6-23.3-5.7c-7.6,0.3-13.6,3.3-17,7   c-3.3,3.7-0.4,4.7-0.3,8s0,5.7,0,10s-0.7,13.6-1,15c-0.3,1.3-1,7-1,10s0.2,6.2,2.7,4c2.4-2.2,2.7-4,4-2s10.2,1.4,11.6,1   c1.5-0.4,8.6-5,11-7.3s2.3-2.3,2.3-2.3l8,7.3l2.3-6.7C504.2,391.9,506.2,395.2,508.2,395.9z"/>
	<path class="st0 file-7-element-19" d="M497.9,489c0,0-5.7-29.6-1.3-36.2s7.3-8.3,14.6-8.6c0,0-8-4,1.7-9.3c9.6-5.3,11-8,17-7.6   c6,0.3,10.6,1.3,10.6,1.3s7-4,9-7.6s8-17.3,9.3-20s2.7-5.7,2.7-5.7s2.3-4-2-11.6s-11-14.3-12.3-22.9s-0.3-11.6-5.3-16.6   s-11.3-17.6-5.3-26.3c6-8.6,14.3-8.3,14.3-8.3s-6.3-14.3-8-15s-8-2-9.3-2.3s-5-1-5-1l2.7-8.6c0,0-2-5.7,0.7-9s-1.3-6.7-1.3-6.7   s0-2.3,5-3.3s3.7-6,4.3-7.3c0.7-1.3,5.7-4.3,5.7-4.3l8.6,16.6l40.6,32.3c0,0,15.3,0.7,27.9,7.6c12.6,7,11.6,12,18.3,21.3   s9.3,17,17.6,27.3s9.6,15.1,5.7,21.3c-3.9,6.2-21,34.3-21,34.3s1.4-20.2-4-24.3l-1.3-3l6-11l-9.3-11l-3,17.6c0,0-10,11-47.2,3.7   c0,0-0.3,4.3,0.3,6c0.7,1.7,3.3,12.6,3.3,12.6l-5,6.3l-10,10.6c0,0-12.6,11-18.3,13.6c-5.7,2.7-14,5-14,5l-14.6,1.3l-8.6,4   c0,0-4,1-8,3.7s-4.3,6-3,12.3s4.3,11,4.3,11l12,13.3L497.9,489z"/>
	<path class="st0 file-7-element-20" d="M589,291.1l1.7-11.6c0,0,0.9-20.1-4.7-30.3c-5.6-10.2-11.6-12.3-21.3-13s-12.4,6.1-12.3,6.3   c0.1,0.2-5.3,4.3-5.3,4.3s-2.3,5.3-2,9.3s4,3,0.7,7.6c-3.3,4.7-6,5.3-4.3,7.6c1.7,2.3,4,1.7,0,6s-2.3,6.7-2.3,8.6   c0,2-3.7,1.6-3.3,4s1.7,6.3,0.7,10.3s3.7,0.7,5.3,0.3c1.7-0.3,2.7,0,4,3.7s3,3.3,5.3,0.3s2-2.7,3.3,1.3s3.7,8.3,3.7,8.3   s3.3-3.3,3.7-5c0.3-1.7-0.3-1.4,2.3,0.7c2.6,2,5,3.3,5,3.3l1.7-6.7c0,0,1.3,6,3.7,6.7c2.3,0.7,2.3-4,2.3-4l3.3,5.3l3.7-6.3l5,0.7   l2.3-2l2.3,3c0,0,0.7-2.6,0.3-6C593.3,300.7,589,291.1,589,291.1z"/>
	<path class="st0 file-7-element-21" d="M584.3,384.6c0,0,30.9,8.3,47.2-3.7c0,0,9.4,7.6,10.3,13.3c0.9,5.7,1.7,17.6-1.3,24.3c-3,6.7,2.3,10.3,1.3,15   s-1.7,10-1.7,14s1,8-1.7,11.3s-9,6.3-10.6,8.3s-9.3,9-14,9.6c-4.7,0.7-24.3,2.3-32.3,2s-35.6,2.7-41.9,3.7c-6.3,1-17,2-17,2   s-12.3-11-13.6-16c-1.3-5-2.7-8.3-2.7-8.3s-3.3-11.6,4.7-16c0,0-2.3,4,6.3,0c8.6-4,7-3.7,14-3.7s9.6-2,13.6-2.3s13.3-6.7,13.3-6.7   l14.6-11.3l11.6-13l3.3-4l-3.3-12.6L584.3,384.6z"/>
	<path class="st0 file-7-element-22" d="M709.7,451.1c0,0-4.3-13-1.3-22.3s10.6-21,10.6-21s2-2.3,0-5.3s-3-3.7-5-1.7s-3.7,5-7,2.7s-3-4-11.3-1   s-14.6,6.3-20,5c-5.3-1.3-10.6-4.7-12-3c-1.3,1.7-3,4.7-3,8s3.5,8.6,5,10s2.3,5.3-2.3,4.3s-11-2.3-11-2.3s-1.3,4-0.3,7.6   s6,9.6,1.3,11.3c-4.7,1.7-13.3,4-13.3,4s4.7,1.3,11,9.6l4.7,6l23.6-2C679.4,461.1,696.7,459.4,709.7,451.1z"/>
	<path class="st0 file-7-element-23" d="M650.8,307.8c0,0,16.6,8.6,32.6-3v10.3l-7.3-4.3l-1,11.3l-9.6-9l-3.3,8.6l-6-8.3l-5,5.7L650.8,307.8z"/>
	<path class="st0 file-7-element-24" d="M643.8,263.9c0,0,0.7,2.7-1,5.3c-1.7,2.7-6,4.7-6,4.7s-1.7,2-0.3,3.3c1.3,1.3,3,5.3,2.7,8.6s-0.6,0.3,0,6.7   s-1.3,8.6,3,8c4.3-0.7,7.3-2.7,7.3-2.7l4,3.7l-2.7,6.3c0,0,16,8,32.6-3l-0.3-6c0,0-13.3-8.6-19.6-9.3c-6.3-0.7-10.3-15-11-18.3   S643.8,263.9,643.8,263.9z"/>
	<path class="st0 file-7-element-25" d="M688.7,284.2c0,0,6-4,0.7-16.3c-5.3-12.3-8.3-13.6-18.6-16.6s-13.6-3.9-18.6,0.3s-6.3,4.3-7.3,8.3s-1,7,2,8.3   s3,2.3,3,6.3s-0.3,5-2,6.7s-0.3,4.3,2.3,6c2.7,1.7-1.7,2.7-2.7,4.3c-1,1.7-2,2.7,2,6.3s4,3.7,4,3.7l4.3-4.3l1,7.6l6-5.7l3.7,7.6   l3.7-7.6l3,6.3l5.7-7.6c0,0,3,1.7,2.7,7c0,0,2.7,2.7,2.7-3S685.4,290.5,688.7,284.2z"/>
	<path class="st0 file-7-element-26" d="M424.4,390.6c0,0-2.3,6.7,1.7,4.3c4-2.3,10-2,12.3-8s3-9.6,3-9.6s-13-7.3-27.9-10c-15-2.7-24.6-6-41.9-2.3   s-19,7.6-26.6,8.6s-13.3,6.3-12.6,12.3c0.7,6,4,9.3,11.3,8.6c7.3-0.7,6.3-2.7,10.6,0.3s7,3.3,17.6,1s15-7.3,15-7.3l2.3,4.3l3.3-2.3   l1,8.6l6.7-6l10.3-3C410.4,390.2,407.7,400.2,424.4,390.6z"/>
	<path class="st0 file-7-element-27" d="M348,452.5c-0.9,5.5-3.6-0.3-5.4-2.4c-1.9-2.1-11.7-0.6-13-0.7c-1.2,0-3.7-4.7-3.7-4.7l-15-24.6l-5-12   l-3.7-23.6c-2.7,9-13.3,25.3-13.3,25.3c-4.2-1-6.8-2.1-9.2-3.6c-1,21.7-3.1,74.5-0.8,75.2c2.9,1,7.7,9.3,9.8,6.7   c2-2.6,2.1-1.6,3.4-2.2c1.4-0.5,3.8-0.3,5.9-1s1.5-2.5,3.2,4.4s2.8,5.5,3.4,8.9c0.7,3.4-0.3,6.7-2.3,12.1   c-2.1,5.4-1.2,5.2-1.5,10.3c-0.3,5.1-2.8,27.3-2.9,36.1s3,12.1,3.4,12.8s6.2,4.3,6.9,4.5c0,0-1.9,3.6-1.9,4.8s-1.8,2.1-1.8,2.1   l-2.1-1l-2.3,5.4l-2.5-7.4c0,0-0.2,1.9-1.2,5.3c-1,3.4-2.2,3.7-2.6,3.3s0.7-4.1-2.2-6c-2.9-1.8-1-0.9-2,2.7c-1,3.6-2.7,3.8-2.7,3.8   s-1.9-4.5-3-6.6s-2.5-5.6-2.5-5.6s1.7-9.1,3.3-16.6c1.6-7.5,0.4-12.2-0.1-15.8s-2.3-13.6-3.7-20.5c-1.4-6.9,1.8-14.6,2.2-19.2   c0.4-4.7-1-6.6-1-6.6l4.7-5.9l-8.9-6.9l-35.2,7.3l0.1,2.6c0,0,4,1.4,4.4,1.4s4.5-3.2,4.5-3.2l4.8,2.1c0,0,1.2,3.6,1,10.3   c-0.3,6.7-3.4,10.4-5.8,13.5c-2.3,3-2.9,14.1-2.9,14.6c0,0.4-4.1,27.9-4.2,28.4c-0.1,0.5-1.9,11.1-1.9,13.6s7.3,8.7,7.3,8.7   s-1.7,5.1-3,9.6s-1.9,3-3.2,1c-1.4-1.9-1.4-6.2-3-9.2s-2.6,1.5-4,4.7s-1.2,3.6-3.7,0.8s-1-7.3-1.5-10.4c-0.6-3.2-3.4-1.5-3.6-2.1   c-0.1-0.6,2.1-12.8,2.8-16.6c0.6-3.9,0.8-10.3,1-14.6c0.1-4.3-0.1-8.7-1.2-18.1c-1.1-9.5,2.8-13.7,4.5-19.5   c1.8-5.8,2.6-9.3,2.6-10.3s-0.4-7.4-0.4-7.4l39.2-9.8l1.3-76.2c-2.4-1.9-4.9-4.3-9-7.6c-9.3-7.3-18.3-3.3-18.3-3.3   s-0.7-3.7-1.3-9.3c-0.7-5.6-0.3-15-0.3-15s-11.3,8-16,11s-9.3,4.7-12.3,3.3c-3-1.3-1-8-1-8c-1.3-3.3,1.3-7,5-11s11-7.3,16-9.6   c5-2.3,6.6-5.4,10.6-9.3c4.1-3.9,12.3-6,12.3-6s42.9-29.6,44.6-34.2c1.7-4.7,5.7-5.6,5.7-5.6s1.7,2.2,2.7,6.3c1,4.1,2.7,7,2.7,7   c2.7,3.7-0.3,5-0.3,5l0.7,6.3c-2,10.6-11.3,9.3-11.3,9.3l-4,10.7c8.3,5.6,15.6,16.3,16.3,21.9c0.7,5.7-2,18.9-2.7,22.3   s2.3,13,4.7,18.6c2.3,5.7,4.7,9,6.3,19.3c1.7,10.3,2.3,11.6,5.7,13.3c3.3,1.7,3.3,4,8.6,6C348.2,448.1,349.3,444.5,348,452.5z"/>
	<path class="st0 file-7-element-28" d="M319.3,296.5c0,0-2.3-6.7-10.3-8.3c-8-1.7-14.5-1.8-21,5c-6.4,6.7-6.3,7.3-8.6,10.6c-2.3,3.3-1.7,9.6-4.7,14   c-3,4.3-4,8-7,11.6s-6.1,9.8-3.4,15.1c2.7,5.3,4-1.3,4.3-4.6c0.3-3.3-0.7-0.2,0.7,3.8c1.3,4,4.2,2.9,4.3-2c0.1-6-1.7-2.2,0.3,2.1   s5.6,9.6,6.2,0.9c0.7-8.6,0.2-2.2,1.8,4.2c0.8,3,5.9,5.9,5.5,1.3c-0.7-9,0.9-1.4,2.3,1.6c1.3,3,5.4,1.9,4.2-3   c-1.2-5.2-1-3.4,1.7,1.3s2.6-0.3,5.6-3.6c3-3.3,3.9-2.7,5.5-7.3c1.6-4.6,0.3-9,1.7-14s1.7-5,3.7-9s-1.1-8.4-1.3-10   c-0.2-1.6-2.2-4.1,3-6S318.6,300.1,319.3,296.5z"/>
	<path class="st0 file-7-element-29" d="M250.5,393.9c0,0-5.7,2.1-8.5,6.1s-4.3,2.7-3.7,6.7c0.5,4,2.9,0.5-0.3,7.6s-7.8,14-8.5,21.2   c-0.7,7.1,0.1,16.2-0.8,23.4s-2.2,31.1-2.2,31.1s3.4,1,4.7,4.1c1.2,3.2,4.4,1.4,7.8,0.5s4.5-0.7,7,0.3s3.2,0.7,4.5-1.2   s1.2-1.5,4.1,0.1c2.9,1.6,4.9,1.5,5.5,0c0.5-1.5,1.4-4.8,3.8-4.5c2.5,0.3,7.6,2.2,9.2,1s2.7-4,4.9-1.5c2.2,2.5,3.8,6.7,3.8,6.7   s2.7-1.4,3.8-3.2c1.1-1.8,3-4,4.1-4.8s-0.3-1.6,2.3-1.4s7.1-1,8.5-1.2c1.4-0.3,3.2,0.5,3.3,1.4c0.1,0.8,0.7,0.1,1.1-5.8   s-1.1-13.7-4.1-17.6c-3-3.8-5.5-12-5.5-12s-4.9-11.3-5.4-15.3c-0.4-4-1.2-5.6-0.4-10.3c0.8-4.7,1.1-9.2,0.7-12.5s-1.4-2.9-1.4-2.9   s-7.1-1.6-13.4-6.9S261.8,392.3,250.5,393.9z"/>
	<path class="st0 file-7-element-30" d="M288.8,419.3c0,0-10.2-4.7-16.2-8s-8.5-4.1-16.9-5.9s-17.4,1.4-17.4,1.4l0.8,4.1c0,0,14.7,0,21.7,2.2   s29,12.2,29,12.2S291.7,421.7,288.8,419.3z"/>
	<path class="st0 file-7-element-31" d="M12.5,204.5c0,0-3.2-11.8-1.1-19.9c0,0,17,6,27.8,7.6s41.1,8.7,60.7,2s38.7-14,38.7-14s-6.4,8-7.4,8.5   s-7.4,6.7-10.3,11.2s-4.9,8.8-5.8,10.5s0.5,4.3-3.2,4.4s-5.8-0.9-11.1-2s-7-0.5-12.1,1s-8.8,3.3-12.4,1.6   c-3.6-1.6-7.6-5.8-13.3-4.8s-6.9,4.7-12.1,3.1s-9.8-2.7-13.2-5.7s-4-5.5-8.1-5.9s-8.2,0.1-11.2,1.2S12.5,204.5,12.5,204.5z"/>
	<path class="st0 file-7-element-32" d="M27.7,175.4c0,0,31.8,6.8,44.1,8s29.8,1.9,43,0.5c13.2-1.3,18.9-3.3,18.9-3.3s-3.2,3.7-10.5,5.5   c-7.4,1.8-14.9,7.1-31.6,9.7c-16.7,2.5-40-1.5-40-1.5S17.4,189.6,9.8,184L27.7,175.4z"/>
	<path class="st0 file-7-element-33" d="M30.3,188.6l15.2-7.8l12.5,1.5l-16.3,9.6c0,0,28,4,28.5,3.8c0.4-0.1,14.2-11.1,14.2-11.1l11.5,0.5L81.4,197   l-8.7-0.2l-33.5-4.5l-9.9-2.3L30.3,188.6z"/>
	<path class="st0 file-7-element-34" d="M104.2,574.9c0,0-0.5,10.2,1.9,9.2s4.7-5.7,4.7-5.7l4.1,10.5l3.8-9.6l4.3,5l4.1-6.4l-2-2.9   c0,0-2.3-7.6-0.9-15.4c1.5-7.8,1.2-19.2,12.5-38.6l78.1-0.6l2.9,13.7c0,0,2,13.9,1.2,21.2c-0.9,7.3-3.2,18-3.8,19.2s4,12.6,4,12.6   l4.3,1.3c0,0-0.1-7.3,1-6s4.3,6.7,4.3,6.7l2.8-9.8l-2.5-5.4l2.6-18c0,0-0.9-19.5-1.2-20.6c-0.3-1.2,0.3-14.2,0.3-14.2l-5.8-3.8H211   l-12.8-186.5l16.3-36.3c0,0,2.6,21.8,7,27.6s8.7,9.9,10.2,19.2s3.8,14.8,3.8,14.8s8.1-0.9,12.8-7.8c0,0-5.8-10.6-6.4-16.6   s-0.6-11.6-0.9-15.7c-0.3-4.1-4.9-10.2-6.1-17.1c-1.2-7-1.5-24.7-1.5-24.7L230.5,172c0,0,13.7,1.7,15.7-2.3s-3.2-3.8,3.5-12.5   c0,0,2.9-4.6,2.6-9c-0.3-4.4-1.5-5.2-1.5-5.2s3.5-4.1,1.7-6.1c0,0-8.4,2.5-9.3,6.4c-0.9,3.9-1.3,10.4-4.6,13.9   c-3.4,3.5-7.6,6.4-7.6,9.6c0,3.2-3.5,6.4-3.5,6.4l1.7,103.4l-23.5,18.3l-10.5,36.9l12.5,184.7l-74.1,2.3l-4.6,9.3l-7.3,5.8   l-5.2-0.9l-5.2,1.5c0,0,1.4,14.1-0.6,24.4C108.9,569.1,104.2,574.9,104.2,574.9z"/>
	<path class="st0 file-7-element-35" d="M90.6,335.4c0,0,13.4,1.7,32.2-2.3s29.6-9,41-18.3c11.3-9.3,24.1-24.4,36-29.3s28.2-13.4,32.5-18.6   c4.4-5.2,6.7-13.7,9.6-18c2.9-4.4,14.5-8.1,20.3-9.3c0,0,1.5-6.4-5.5-16.8c-7-10.5-21.8-33.7-21.8-33.7s-5.5-11.6-4.1-19.5   c1.5-7.8,3.8-6.7,5.8-9.6c2-2.9,4.4-7.6,5.5-13.1c1.2-5.5,1.7-6.1,6.1-8.1s4.4-2,4.4-2s5.2-1.2-0.6-4.6l-2-3.5   c0,0-0.9-18-22.4-18.3s-29,12.8-31.4,18.3s0.6,15.1-5.5,25s-10.5,13.9-25.6,20.3s-41.8,32.8-50,45.9s-19.8,35.7-23.8,70   S90.6,335.4,90.6,335.4z"/>
	<path class="st0 file-7-element-36" d="M196.9,139.7c0,0,7.2,2.8,19.2,0.6s34-11.6,34-11.6l2,3.5c0,0-11.9,6.7-25.3,10.5c-13.4,3.8-22.7,4.1-32.5,1.2   L196.9,139.7z"/>
	<path class="st0 file-7-element-37" d="M90.6,335.4l2.9,9.9c0,0,28.2,1.5,51.4-8.1s29-16,43.3-29s22.7-15.1,37.2-25.3c14.5-10.2,22.4-25.3,22.4-25.3   s3.2-3.8,6.1-5.2c2.9-1.4,7-2.6,8.1-6.7s0.3-6.1,0.3-6.1s-5.8,0-12.5,3.5c-6.7,3.5-7.8,4.6-9,9s-4.1,15.4-24.4,25   s-32,17.4-39.2,26.4s-23.5,19.2-31.7,22.4S124,334.9,90.6,335.4z"/>
	<path class="st0 file-7-element-38" d="M116.3,344.1l-3.9,32.6l0.3,36c0,0-1.2,20.3-5.8,29c-4.6,8.7-5.2,34.3-5.2,34.3v37.2c0,0,2,5.7,0.3,13.9   c-1.7,8.3-1.7,8.3-1.7,8.3l7.2,1l9.3-3.5c0,0,4.6-0.6,5.2,0.9s4.4-2.9,4.4-2.9s-1.5-2.9,2.9-2.9s5.1-0.1,5.8-0.6s1.4-1.5,2.3-1.2   c0.9,0.3,1.7,1.2,2.8,1.4s1.4-0.7,2.8-0.6c1.4,0.2,0.4-0.1,2.8,0.5s2.9-0.4,4.5-0.5c1.7-0.1,1.5,0.4,3.4,1s2.1,0.2,3.9-0.2   c1.9-0.4,2.5,0.3,3.5,0.6s0.9-1.3,2.1-0.2s2.3,1.9,3,1.9s1.7,0.1,2.8,0.6c1.2,0.5,1.5,0.6,2.5,0.2c1.1-0.4,3.4-2.7,3.4-2.7   s-0.5,0.9,1.8,0.9s3.8-0.4,5.4-1.1c1.6-0.7,2.3-1.2,3.4-0.6c1.1,0.6,3.8-0.8,4.3-1.4c0.6-0.6,0.7-0.5,2.1,0.3   c1.4,0.8,2.3,0.9,3.3,0.5s2.6,0.2,4.7,0.9c2.1,0.8,2.9,2.1,4.7,1.5s1.8-2,3.5-2.1s1.6,0.6,2.9-0.1c1.3-0.7,1.7-1.7,3.5-2.3   s2-0.2,4.2-0.1c2.2,0.1,3.1,0.8,5-1.1s5.3-2.7,6.2-2.9c0.8-0.2,1.3-0.2,1.3-0.2s1.8-10.7,4.1-14.9c2.3-4.2,2.7-7.8,2.2-8.8   s-2.8-0.6-4.1-1.4s-3.3-3.1-4.1-4.5s-3.2-1.6-3.2-1.6l2.2-31.4c0,0,0.1-14,0.1-16.1s1-11.3,3.5-15.5s6.8-12.6,6.9-13.9   c0.2-1.3-0.6-4-0.6-4l-10.1-25.7c0,0-10.4,7.1-8.5-6.9c0,0-1.2-4.2,2.3-10.4l-4.4-16.8c0,0-8-8.9-5.8-34.1l3.5-24.8   c0,0-16.8,8.1-27,18.4C178,318.5,165.3,334.5,116.3,344.1z"/>
	<path class="st0 file-7-element-39" d="M274.3,230.3c0,0,4.6,4.9,7.4,6.2c2.8,1.2,2.5,0.2,6-1.9s5.1-1.6,5.7-5.7c0.6-4.1,0.2-9.3-0.6-11   c-0.8-1.7,0.9-1.7-4.5-2s-13.1,2.2-13.3,2.9C274.9,219.7,274.3,230.3,274.3,230.3z"/>
	<path class="st0 file-7-element-40" d="M281.4,208.7c0,0-3.7,0.6-6.3,10.2c0,0,10.2-5.1,16.9-2.8C291.9,216.1,291,210.8,281.4,208.7z"/>
	<path class="st0 file-7-element-41" d="M264.4,328.3c0,0-5.9-10.2-1.9-32.8s1.9-27.5,6.2-33.1c4.3-5.6,6.8-12.2,6.8-19s-5.4-25.7,5.9-34.8   c0,0-7.6-0.6-10.8,3.2c-3.2,3.9-9,22.4-9,22.4s4.2,9-0.5,13.3c-4.6,4.3-7.3,4.7-7.3,4.7s-0.6,14.7-4.3,25   c-3.7,10.2-7.4,39.4-7.4,39.4s-1.1,4.2-0.6,5.4c0.5,1.2,0.6,4,0.6,4S264.9,331.3,264.4,328.3z"/>
	<path class="st0 file-7-element-42" d="M292.7,231.7c0,0-1.9,1.2-4.9,2.9c-3.1,1.7-2.5,5.1-6,1.9c-3.6-3.2-7.4-6.2-7.4-6.2s1.1,9.6,0.8,11.4   c-0.3,1.9,0.5,7.6-3.4,14.5c-3.9,7-5.3,8.3-5.7,15.3c-0.5,7-4.5,30.9-4.8,32s-0.5,15.8,1.4,20.3s2.5,5.9,2.5,5.9l2.7-0.4   c0,0,4.6-5.2,7-11.6s6.2-17.4,6.2-17.4l2.8-20.4c0,0,7.7-22.7,7.7-23.2s2-15.6,2.2-22.4S292.7,231.7,292.7,231.7z"/>
	<path class="st0 file-7-element-43" d="M303.1,286.8c0,0-1.5-22.6,2.2-38.7s8.7-25.2,11.4-37.7c2.8-12.5,3.2-20.6,4.2-30.1c0.9-9.6,4.6-21.6,6.3-25.8   s3.7-9.3,7.1-11.3s9.7-2.3,9.7-2.3s-6.5-5.6-15-2.6c-8.5,2.9-10.8,13.5-12.5,19.9c-1.7,6.5-2.2,7.1-6.5,13.6s-11,17.5-11.6,26.6   s-4.3,10.8-4,29.4s-0.5,19.9-3.1,27.8c-2.6,7.9-6,19-7.6,24.4c-1.5,5.4-3.7,18.2-2.8,20.4C280.9,300.4,289.4,286.3,303.1,286.8z"/>
	<path class="st0 file-7-element-44" d="M356.5,183.5l-7.2-28.1c0,0-2.2,12.4-9.1,13.9c-7,1.5-11-4.3-12.7-13.6c0,0-0.3-3.7,4.8-5.7s11.4-4,15.3-3.4   s-3.2-6.2-7-5.6s-7.9,1.4-11.1,7.4s-6.2,17.5-6.5,18.2s-3.1,23.8-3.1,23.8s10.5,12.1,24.4,7.9S356.5,183.5,356.5,183.5z"/>
	<path class="st0 file-7-element-45" d="M348.8,149.9c0,0-0.5-2.9-2.3-3.1c-1.9-0.2-6.2-0.3-10.2,1.4s-8.5,2.8-8.8,4.5s2.6,11.7,2.6,11.7   s4.8,6.2,10,4.8c5.3-1.4,8.2-8.7,9.1-12.7C350.2,152.6,348.8,149.9,348.8,149.9z"/>
	<path class="st0 file-7-element-46" d="M367.1,213.9c0,0-0.6-9-2.2-14.2c-1.5-5.3-8.2-13.5-8.2-13.5s-5.1,9.7-16.5,12.4c-11.4,2.6-20.3-8.2-20.3-8.2   s-0.9,10.2-1.5,13.3s-5.7,20.1-5.7,20.1l-4.2,13.5c6.6,4.2,9.1-0.2,9.1-0.2s4.9,7.4,7.6,11c2.6,3.6,11.6,9.4,15.3,11.1   c3.7,1.7,7.1,1.7,7.1,1.7l4.6-2.5c0,0,6.6-8,12.5-16.9C370.6,232.8,367.1,213.9,367.1,213.9z M351.4,232.7   c-0.5,2.1-1.6,4.1-2.8,5.9c-1.2,1.9-2.5,3.7-3.9,5.4c-0.8,1-2.3,0.5-2.9-0.4c-1.2-1.7-2.1-3.6-3.2-5.3c-0.6-0.9-1-1.6-1.7-2.3   c-0.2-0.2-0.4-0.4-0.6-0.6c0,0-0.4-0.3-0.4-0.4c-0.2-0.1-0.4-0.3-0.6-0.4c0,0-0.3-0.2-0.4-0.2c-0.6-0.2-1.1-0.4-1.7-0.7   c-0.7-0.3-1.1-1.4-0.9-2.1c0.2-0.8,1-1.4,1.8-1.4c5,0,10,1.2,15,0.1C350.5,230,351.8,231.3,351.4,232.7z"/>
	<path class="st0 file-7-element-47" d="M384.5,318.9c0,0-4.5-5.6-3.7-13.9s1.2-17.8,2.3-24.1c1.1-6.3-1.2-11.7-1.5-18.2s-3.7-8.2-1.4-15   c2.3-6.8,3.4-11.1,2.5-18.1s-2.8-16.5,0.8-27.4c3.6-10.8,4.9-19.5,4.9-27.1s8.8-34.2,8.8-34.2s3.4-7.4,6.6-12.2s6-8.2,7.6-15.8   s2.5-15.5,9.4-20.4c7-4.9,14.2-2.2,14.2-2.2s-1.2-4.9-7.4-7.3c-6.2-2.3-11.7-1.7-18.1,3.7c-6.3,5.4-7.1,13-8,16.1s-4,13.3-5.9,15.2   c-1.9,1.9-8,13.5-10.4,17.6c-2.3,4.2-5.7,12.1-7,19.9s-2.6,16.4-2.9,18.2c-0.3,1.9-1.2,7.7-2.9,12.2c-1.7,4.5-5.7,18.1-5.7,18.1   l0.8,23.2l1.5,42.1l-0.2,26c0,0-3.2,11.9-3.4,12.7s-2,7-0.2,15.5C365.4,323.6,373.9,317.4,384.5,318.9z"/>
	<path class="st0 file-7-element-48" d="M440.8,127.2c0,0-3.1,10.2-10.5,13.1c-7.4,2.9-13.3,4.8-18.2,2.6s-10.5-7.4-10.5-9c0-1.5,4-6.5,5.9-10.2   s4.5-12.4,5.4-18.4s5.9-12.8,10.7-15.2c4.8-2.3,11.6,0.2,11.6,0.2l0.6,5.9c0,0-5.3-2.5-8.8-2c-3.6,0.5-6,1.4-8,2s-6,4.2-3.7,11.3   c2.3,7.1,6.6,11.6,11.6,10.8c4.9-0.8,7-7.7,7.7-9.3c0.8-1.5,0.8,1.7,0.9,2.6S440.8,127.2,440.8,127.2z"/>
	<path class="st0 file-7-element-49" d="M435.2,104.8l-0.2-7.3c0,0-1.4-2.3-6.6-2.6S418,96,416.7,97.2c-1.4,1.2-2.8,4.2-1.5,10.4s5.4,11.3,11.6,10.8   s7.7-9.3,7.7-9.3L435.2,104.8z"/>
	<path class="st0 file-7-element-50" d="M384.5,318.9c0,0,22.7,4.3,33.2,1.1c10.5-3.2,11-6.6,15.6-11.3s6-6.5,12.7-9.1c6.6-2.6,15.5-4.5,15.5-4.5   l-2.5-43.4l-3.7-30.3l0.2-11.9c0,0,3.7-4.3,5.1-22.1s-2.3-2.5-10.2-31.5l-7-23.8l-2.6-4.8c0,0-2.6,5.1-3.7,7s-9.7,9.3-17.2,10   c-7.4,0.8-13.6-1.1-18.4-10.2c0,0-1.9,0.5-3.7,4.5c-1.9,4-7.6,26.6-7.6,26.6l-1.7,12.8c0,0-1.7,11.1-1.9,11.7s-3.2,12.5-3.2,12.5   s-2.8,8-1.9,14.2s1.5,15.5,1.2,19.2s-1.4,9-2.6,12.1s-1.2,4.9,0,9.6c1.2,4.6,4.2,12.4,3.2,19c-0.9,6.6-0.8,14.2-1.5,17.3   C381.1,296.7,378.7,307.8,384.5,318.9z"/>
	<path class="st0 file-7-element-51" d="M351.9,165.4c0,0,8.2-3.7,9-10.4c0.8-6.6,8.2-29.1,22.6-17.3l-1.4,3.1c0,0-5.7-2.3-9.3,1.9s-4.9,9.1-4.9,11.4   s-0.2,9.4-0.8,11.7c-0.6,2.3-3.2,7.9-5.4,10.2c-2.3,2.3-5.9,6-5.9,6L351.9,165.4z"/>
	<path class="st0 file-7-element-52" d="M365.4,184.3c0,0-5.4-2.6-6.5-5.7c0,0,6.8-7,7.7-11.1c0.9-4.2,1.5-12.2,2.3-15.9s2.2-8,5.6-10.8   s7.6,0.2,7.6,0.2l-5.7,24.4l-0.8,11l-2,7.3C373.6,183.5,370.5,185.5,365.4,184.3z"/>
	<path class="st0 file-7-element-53" d="M366.8,204.2l6.8-20.7c0,0-9.7,5.3-14.7-4.9l-3.1,3.6C355.8,182.1,366.5,199.1,366.8,204.2z"/>
	<path class="st0 file-7-element-54" d="M367.5,156.3c0,0,2.5,8.7,5.1,9.4c2.6,0.8,3.7-0.5,3.7-0.5s2.3-12.8,2.5-13.5s1.5-5.4,1.5-5.4   s-5.3-2.8-9.9-1.1L367.5,156.3z"/>
	<path class="st0 file-7-element-55" d="M-9.6,47.4c0,0,28.6,23,52.1,5.5c0,0,14.6,5.1,16.8-6.7c0,0,17.5,4.9,23.1-8.4c0,0,28.6,6.2,37.5-11.5   c0,0,30.8-7.7,19-29.2H-7.4L-9.6,47.4z"/>
	<path class="st0 file-7-element-56" d="M132,23.4c0,0,16.8,19,35.2,10.6c0,0,17.3,12.4,29.5,3.8c0,0,38.1,21.1,59.6-2.7c0,0,8.9,15.1,24.2,6.6   c0,0,19.1,25.1,58.3,6.2c0,0,2.2,13.9,17.7,7.7c0,0,8-8.7,9.3-14.8c1.3-6,6.9-16.8,14-24.1s21-19.1,21-19.1H138.9   c0,0,5.1,6.6,2,13.1s-10.6,11.1-10.6,11.1L132,23.4z"/>
	<path class="st0 file-7-element-57" d="M563.6,126.9c0,0,8.8,22.7,17.7,28.9l-12.4,0.4l0.5,6.8c0,0,18.7-3.1,36.4,4l-0.2-7.4l-14.3-2.7   c0,0-14.6-10.2-23-34.2c0,0-2.9,2-4.9,2.6L563.6,126.9z"/>
	<path class="st0 file-7-element-58" d="M558.7,236.8l4-44.8l15.5,1.5l1.8-0.2l5.1-12.1l1.5,14.4l13.2,1.5c0,0-1.6,13.9,6.8,24.7l-8.4,46.5l-2.9,19.2   l-2.7,10.8c0,0-5.4-6.8-3.7-12.8c1.8-6,3.1-13.9,1.1-23.6c-2-9.7-4.8-19.2-13.3-22.3C568,236.4,558.7,236.8,558.7,236.8z"/>
	<path class="st0 file-7-element-59" d="M614.8,228c0,0,11.7-2.7,16.8-22.3s-13.7-21-13.7-21l-5.3,0.2l-1.6,5.7l-4.8,0.7l-3.1,0.5   C603.1,191.8,590.5,211.4,614.8,228z"/>
	<path class="st0 file-7-element-60" d="M619.6,211.2c0,0,7.1-3.3,6.9-10.8c-0.2-7.5-5.9-9.3-8.8-9.1s-9.5,2-11.7,9.9   C603.9,209,610.1,215.6,619.6,211.2z"/>
</g>
<g id="outline">
	<path class="st1 file-7-element-61" d="M-123.9,136.8"/>
	<line class="st1 file-7-element-62" x1="317.6" y1="95.9" x2="-12.3" y2="95.9"/>
	<path class="st1 file-7-element-63" d="M-7.6,48c0,0,28.6,21.3,50.5,4.7c0,0,13.3,4.7,16.6-6.7c0,0,16,5.3,23.3-8.6c0,0,25.9,8,37.2-11.3   c0,0,29.9-8,19.3-28.6"/>
	<path class="st1 file-7-element-64" d="M130.7,21.4c0,0,16,21.9,36.6,12c0,0,15.3,12.6,29.3,4c0,0,38.6,21.9,59.9-2.7c0,0,8.6,15.3,23.9,6.7   c0,0,19.3,25.9,59.2,6c0,0,0,13.3,16.6,8"/>
	<path class="st1 file-7-element-65" d="M415.4-11.1c-23.3,10.6-45.2,36.6-49.2,49.9S338.9,78.7,328.3,84c-10.6,5.3-14,15.3-23.3,33.3   s-33.9,27.3-33.9,27.3s1,3.9-1.6,4.1c-2.6,0.2,2.2,2.6,9.7,0.6"/>
	<path class="st1 file-7-element-66" d="M313,137.2c0,0,21.9-20.6,26.6-31.3s31.9-22.6,37.2-43.2s31.3-42.6,37.2-47.9"/>
	<path class="st1 file-7-element-67" d="M358.9,123.9c0,0,9.3-2,21.9-21.9"/>
	<path class="st1 file-7-element-68" d="M368.2,108.6c0,0,16.6-10,33.3-33.3"/>
	<path class="st1 file-7-element-69" d="M413.4,56.7c0,0,21.3-17.3,23.9-35.9"/>
	<path class="st1 file-7-element-70" d="M452.6,68c0,0,25.3-18,29.3-31.3s15.3-23.9,15.3-23.9"/>
	<path class="st1 file-7-element-71" d="M442.7,87.3c0,0,25.3-14,42.6-34.6c17.3-20.6,37.2-31.9,62.5-34.6"/>
	<path class="st1 file-7-element-72" d="M442,108.6c0,0,10-14,29.9-25.9c20-12,20-20,49.2-35.2"/>
	<path class="st1 file-7-element-73" d="M459.9,139.2c0,0,16-9.3,21.3-17.3s10-4.7,23.3-24.6c13.3-20,32.6-28.6,35.9-28.6"/>
	<path class="st1 file-7-element-74" d="M549.1,56.7c0,0,10-14,20.6-21.9c10.6-8,42.6-18,46.6-18.6"/>
	<path class="st1 file-7-element-75" d="M619.6,46.1c0,0,6.7-8,12-9.3"/>
	<path class="st1 file-7-element-76" d="M626.9,58.7c0,0,26.6-16.6,39.9-17.3"/>
	<path class="st1 file-7-element-77" d="M443.5,562.5c-1.7-2.1-3.3-4.4-4.8-7c-16-27.3,20.6-55.9,23.3-57.2"/>
	<path class="st1 file-7-element-78" d="M801.8,432.5c0,0-82.5,12.6-96.4,20.6s-32.6,8-44.6,10s-19.3,2-32.6,7.3s-16.6,8.6-30.6,8   c-14-0.7-47.9,1.3-70.5,5.3c-22.6,4-53.2,11.3-55.2,11.3c0,0,33.9-0.7,43.2,23.9c5.3,14,3.7,27.4-1.8,37.7"/>
	<path class="st1 file-7-element-79" d="M513.8,498.3c0,0,60.5-12,75.8-11.3s20.6-4.7,43.9-8s62.5-9.3,81.8-14"/>
	<path class="st1 file-7-element-80" d="M555.7,504.3c0,0,32.6-6.7,55.2-9.3s27.3-5.3,47.9-8c20.6-2.7,35.2-6.7,35.2-6.7"/>
	<path class="st1 file-7-element-81" d="M666.1,498.3c0,0,28.6-5.3,44.6-7.3s30.6-6.7,44.6-8.6c14-2,22.6-5.3,25.9-4.7"/>
	<path class="st1 file-7-element-82" d="M744.6,471c0,0,12-4.7,22.6-6.7"/>
	<path class="st1 file-7-element-83" d="M531.1,532.2c0,0,25.9-9.3,40.6-10c14.6-0.7,9.3,0,27.9-3.3c18.6-3.3,23.9-4.7,41.9-5.3"/>
	<path class="st1 file-7-element-84" d="M622.2,526.9c0,0,43.9-10,55.9-9.3s18-2.7,31.9-5.3s61.2-8.6,61.2-8.6"/>
	<path class="st1 file-7-element-85" d="M322.1,587.4c0,0-3.5-8.4-3-12c0.5-3.5-1.6,1.6-3.5,6.5s-3,3-4.1-2.7s-4.1-7.1-5.2-0.5   c-1.1,6.5-3.6-2.1-4.4,2.2c-1.1,6-1.6,9-3.3,1.1c-1.6-7.9-2.4-6.3-2.4-0.5c0,5.7-1.1,11.4-2.4,4.1s-3.3-7.9-4.4-3.3   c-1.1,4.6-2.2,7.9-4.4,0.5c-2.2-7.3-6.5-9.2-5.4-2.2s-1.1,9.2-3,5.2s-1.4-3.8-2.4,2.7c-1.1,6.5-5.2,8.4-7.3,0   c-2.2-8.4-1.1-15-3.5-6.5s-3,3-4.4-1.9s-1.6-4.6-2.7,3.8c-1.1,8.4-3.3,11.7-4.4,2.7c-1.1-9-2.2-5.7-3.5,1.4   c-1.4,7.1-4.1,10.3-5.7,1.9c-1.6-8.4-4.1-8.4-5.2-1.6c-1.1,6.8-4.9,3-5.2-4.1s-3-11.2-2.4-1.9c0.5,9.2,0.5,16.3-1.9,6   s-4.6-8.2-4.6-3.5c0,4.6,1.4,7.3-2.2,3c-3.5-4.4-4.6-2.4-2.7,0.3c1.9,2.7-0.8-0.8-2.4-6.5c-1.6-5.7-3.3-19-3.8-9.2s-8.7,14.1-7.3,6   c1.4-8.2-1.1-8.4-1.9-0.3c-0.8,8.2-6.5,5.2-5.4-0.3c1.1-5.4-1.6-10.3-2.2-0.3s1.9,13.9-4.6,5.4s-4.1-15.2-6.5-8.4s-6,14.7-7.1,6.3   s-1.9-8.2-4.9-1.1c-3,7.1-3.1-9.2-5.4-2.7c-3,8.4-5.7,9.8-8.2,1.9c-2.4-7.9-3.8-14.7-4.6-3.3s-0.3,19-1.9,9.2s-5.7-10.9-5.2-2.4   c0.5,8.4-0.5,6.8-1.9,1.1s-3.8-11.7-3.3-4.6c0.5,7.1-3.5,11.2-4.1,3.3c-0.5-7.9-3-8.2-3.3-1.6s-2.2,9.2-4.4,1.9s-2.2-10.9-3.5-3.3   c-1.4,7.6-4.9,6.5-6.3,3.5s-2.7-8.4-3-2.7s-1.9,13.6-4.1,5.4c-2.2-8.2-1.6-9-4.1-3.8s-4.6,3.5-4.6-1.6c0-5.2,1.4-10.6-1.9-1.9   s-2.9-2.2-5.2,2.2c-2.4,4.6-6.5,4.1-7.3,2.2"/>
	<path class="st1 file-7-element-86" d="M339.5,581.9c0,0,1.4-4.1,0.5-8.7s2.2-1.9,1.9,3.3c-0.3,5.2,3.5,4.9,3.5,0.5s1.4-0.5,2.4,1.6   c1.1,2.2,4.6-2.2,5.4-5.7s2.4,3.3-0.8,7.6"/>
	<path class="st1 file-7-element-87" d="M382.2,578.4c-0.3-3.5-2.2-15-0.8-9.5c1.4,5.4,4.9,14.7,6.3,7.9s3.8-10.6,3.5-5.2c-0.3,5.4,2.4-2.2,3.8-4.4   s0.3,4.9-0.8,8.7s-6.5,6-5.2,7.6"/>
	<path class="st1 file-7-element-88" d="M405.9,576.8c0,0-0.7-4.5,2.4-11.2c3-6.3,4.1-9.5,4.1-2.2s-1.9,12.5,0,7.3s4.4-12.2,3.8-6   c-0.5,6.3-0.5,11.2-0.5,11.2c0.8-4.9,3.5-3,3.5-3s3.8,7.3,7.6,4.1c3.8-3.3,6.8-2.4,7.6-7.3s1.6-7.9,3.5-3.8   c1.9,4.1,4.9,4.9,5.2,1.4c0.3-3.5,3.3-4.6,4.4,0.3c1.1,4.9,2.7,2.2,3.5-3.3c0.8-5.4,0.8-2.4,2.7,3.5s4.4,3.3,5.7-1.9s1.1-3.5,2.4,3   c1.4,6.5,1.1,1.9,2.7-3.3s2.2-3.3,2.2,2.2c0,5.4,2.7,3,4.1-0.5s0.3-5.7,2.2,2.7c1.9,8.4,2.2,2.4,2.4-4.4c0.3-6.8,0-3,1.9,2.2   s1.9,2.4,3.5-2.7c1.6-5.2,0,0,3.3,7.3s1.9-0.3,0.8-6.8c-0.6-3.8,4.4,6.8,4.4-0.5s3-4.6,2.7,1.9s2.2,7.3,3-1.4s3.3-3.8,3.3,2.4   s2.2,2.7,1.6-3c-0.5-5.7,1.6-8.4,1.9-1.6c0.3,6.8,3.3,6.3,5.2,0.5c1.9-5.7-0.5-12.2,3.3-5.7c3.8,6.5,3.3,9.8,3.5,4.1   c0.3-5.7,3.3-2.4,3.3-2.4c2.7-5.7,2.4,1.6,1.1,4.6c-1.4,3,3.5-4.6,4.4-6c0.8-1.4,1.4,0,0,3.8s5.7-2.7,7.3-4.6   c1.6-1.9,0.8,1.1,0,5.2s2.2,4.1,4.4-0.3c2.2-4.4,5.4-8.7,5.2-3.8c-0.3,4.9,0.8,3.8,3-0.3s3.5-3.5,2.4,0.8c-1.1,4.4,0.5,5.2,3.5,0.3   s7.9-5.7,6.5-0.3s-0.8,7.1,2.4,0.3c3.3-6.8,6-10.3,5.7-2.7s1.1,6.3,3.5,1.1s4.9-10.3,3-1.6s0.3,11.4,2.7,5.4s2.7-12.5,3.8-5.4   s3,9.2,5.4,2.7s6.5-12.2,6.3-5.7c-0.3,6.5-1.1,8.4,3.5-0.3s5.4-10.6,5.4-4.6s1.6,6,4.1,0.8s4.1-7.9,4.6-0.8   c0.5,7.1,4.1,4.6,5.7-0.8c1.6-5.4-0.3-13.6,1.6-5.4c1.9,8.2,5.2,10.6,6.3,4.9c1.1-5.7,1.1-8.7,2.2-3c1.1,5.7,4.4,6.5,6.8,0.5   s2.2-7.1,2.7-1.4c0.5,5.7,4.1,6.5,5.2,1.6c1.1-4.9,1.4-10.3,2.2-3s5.4,8.7,7.1,3c1.6-5.7,2.2-9.5,2.7-4.1s1.9,3.5,5.2-0.5   c3.3-4.1,3.5-7.9,4.9-1.6s5.2-9.5,6.5-2.7c1.4,6.8-0.3,12,1.4,6.8c1.6-5.2,4.1-15.5,4.6-9.2s-0.5,14.1,0.3,7.9   c0.8-6.3,3.5-14.4,4.1-7.9c0.5,6.5-1.6,17.7,0.3,9.2c1.9-8.4,4.1-15.2,5.2-8.4c1.1,6.8,2.2,3.5,3.8,0.8s-0.3-9.5,1.6-2.7   c1.9,6.8,3.8,5.4,4.4,2.2c0.5-3.3,2.4-1.6,3.3,0.8c0.8,2.4,2.2,1.6,3.3-1.6c1.1-3.3,0-7.9,1.6-1.9s2.7,1.1,3.5-1.4   c0.8-2.4,0.5-2.2,1.9,2.7s1.9-0.3,3.3-4.4c1.4-4.1,0-7.6,2.2-0.3s1.9,16.9,3.3,7.3c1.4-9.5,1.4-12.8,3.3-5.4   c1.9,7.3,3.8,10.1,5.4,2.7c1.6-7.3,0-15.8,1.6-7.3s3.5,5.4,4.1,3.3c0.5-2.2,0.5-11.2,1.4-3.8c0.8,7.3,7.1,0,8.4-3   c1.4-3,1.6-4.9,2.2,0.3c0.5,5.2,3.3,2.2,5.4-1.1c2.2-3.3,1.9-4.9,3,1.9c1.1,6.8,4.1,0.8,5.7-2.7c1.6-3.5-1.4-15.8,1.6-3.5   c3,12.2,6.8-6,6.5,2.4s2.4-4.9,2.4,0.5s-0.3,3.5,2.4,0.5s1.9-2.2,2.7,3s2.4-1.4,2.7-5.2s-1.1-13.6,0.3-2.7c1.4,10.9,4,1,5.4,6.5   c1.9,7.3,3.3-11.2,4.4-4.1c1.1,7.1,2.2,9.2,3,4.4c0.8-4.9,2.2-4.9,3-0.8s6.8,3.3,8.2,3.5c1.4,0.3,5.4-1.4,6,0"/>
	<path class="st1 file-7-element-89" d="M69.2,582.2c-1.1-0.5-4.6-0.8-5.2-4.9c-0.5-4.1-4.9,0.8-4.1,5.2c0.8,4.4-2.2,0.3-3-5.7s-2,8-3.3,1.6   c-1.1-5.4-3-10.3-3.3-1.9c-0.3,8.4-0.5,18-1.6,7.6s-5.2-7.3-3.8-4.1"/>
	<path class="st1 file-7-element-90" d="M30,581.9c-2.4-4.9-3.5-11.2-3-3s-3.8,8.4-3.8,1.1c0-7.3-7.1-15.2-4.9-7.9s0,17.4-1.1,10.3   c-1.1-7.1-5.4-14.4-3.8-6.5s-0.5,11.7-2.2,5.4s-6-7.9-2.2-1.4s7.1,9.2,8.7,9.8"/>
	<path class="st1 file-7-element-91" d="M695.8,578.7c0-0.8,1.4-1.1,3.3-7.1c1.9-6,1.4-9.2,1.6-2.7c0.3,6.5-0.3,10.3,1.4,5.2   c1.6-5.2,4.4-16.6,4.1-10.3s-3.8,17.1-1.6,12.5s3-2.7,2.7,0s1.4-1.1,2.2-3.3s7.3,1.4,3,4.9"/>
	<path class="st1 file-7-element-92" d="M766,562.9c-0.3-1.6-2.7-8.4-2.4-14.4s2.2-1.4,3.8,4.1c1.6,5.4,1.1,8.7,2.7,0.8s2.2-13.1,3-3.3   s-1.4,12,2.2,4.4s6.8-9,1.9,2.7"/>
	<path class="st1 file-7-element-93" d="M587.3,596.9c-1.1-2.2-10.9-24.5-6.5-16.9s9,16,9,9c0-7.1,3.5-14.4,3.5-5.7s-4.6,17.7,0,8.7s7.9-13.3,4.1-4.9"/>
	<path class="st1 file-7-element-94" d="M491.3,592c0.5-1.1,8.7-16,10.9-8.7c1.5,5.1,3,4.8,4,2.2c0.4-1.2,0.8-2.8,0.9-4.7c0.5-6-1.4,12.5-1.4,12.5"/>
	<path class="st1 file-7-element-95" d="M731.2,588.7c-0.3-3.5,0.5-6.3,0-12.2c-0.5-6,1.6-1.6,2.2,4.9c0.5,6.5,0.3,10.9,1.1,2.4   c0.8-8.4,1.4-18,2.2-7.9c0.7,9.2,0.6,13.2,1.8,8c0.1-0.5,0.2-1.1,0.4-1.7"/>
	<path class="st1 file-7-element-96" d="M324.8,535.7c0,0,13.9-9.5,15-5.2c1.1,4.4-3.8,5.4,9,0.5s13.1-6,9.5,0.3c-3.5,6.3-6,6.3,9.8-1.6   c15.8-7.9,23.9-12,22.8-6s3.5,6.8,15.2,3.8"/>
	<path class="st1 file-7-element-97" d="M356.1,541.1c0,0,5.7,1.9,14.4-2.7s16.6-10.1,13.9-3s-11.4,11.7,4.4,4.9s21.5-7.9,20.7-3s-0.3,4.9,9.2,1.6   c9.5-3.3,9.5-3.3,9.5-3.3"/>
	<path class="st1 file-7-element-98" d="M329.2,500.9c1.1-0.5,7.9-2.4,12.2-5.7c4.4-3.3,6.8-0.8,3.8,2.7s-3.5,6.5,5.7,1.9s11.4-0.3,11.4-0.3"/>
	<path class="st1 file-7-element-99" d="M758.4,350.1c1.1-0.5,7.9-2.4,12.2-5.7c4.4-3.3,6.8-0.8,3.8,2.7s-3.5,6.5,5.7,1.9s11.4-0.3,11.4-0.3"/>
	<path class="st1 file-7-element-100" d="M327.6,482.1c0,0,7.1-4.6,11.2-8.4s3.8,0,2.4,3s0.5,2.2,7.3-0.8s10.3-2.4,10.9-0.5s13.3-5.7,13.3-5.7"/>
	<path class="st1 file-7-element-101" d="M739.7,420.3c0,0,7.1-4.6,11.2-8.4c4.1-3.8,3.8,0,2.4,3s0.5,2.2,7.3-0.8s10.3-2.4,10.9-0.5   c0.5,1.9,13.3-5.7,13.3-5.7"/>
	<path class="st1 file-7-element-102" d="M357.8,431c0,0,2.4,3.3,6.5,1.9s14.7-5.4,11.4-1.1c-3.3,4.4,1.1,1.4,7.6-1.1c6.5-2.4,11.7-4.6,9-0.8   s-4.6,4.6,6.8,1.1s13.9-4.4,15.2-2.4c1.4,1.9,2.2,3.8,2.2,3.8"/>
	<path class="st1 file-7-element-103" d="M386,413.8c0,0,4.1-2.2,5.7-3s0.8,1.4,2.2,2.4c1.4,1.1,2.7,1.1,9.2-2.7c6.5-3.8,4.6-2.2,4.6,0.8   s6.3-1.6,10.9-2.4"/>
	<path class="st1 file-7-element-104" d="M732.5,370.4c0,0,4.1-2.2,5.7-3s0.8,1.4,2.2,2.4s2.7,1.1,9.2-2.7s4.6-2.2,4.6,0.8s6.3-1.6,10.9-2.4"/>
	<path class="st1 file-7-element-105" d="M355.3,345c0,0,8.2,0,11.7-2.4s5.2-1.9,6.3,3c1.1,4.9,6.5-2.7,12.5-4.6s4.1,3,8.7,5.7s5.2,0.8,15.8-2.7   c10.6-3.5,9-0.8,16.9,3.3c7.9,4.1,9.2,2.4,15.2,0"/>
	<path class="st1 file-7-element-106" d="M715.3,314.2c0,0,8.2,0,11.7-2.4s5.2-1.9,6.3,3s6.5-2.7,12.5-4.6s4.1,3,8.7,5.7s5.2,0.8,15.8-2.7   s9-0.8,16.9,3.3c7.9,4.1,9.2,2.4,15.2,0"/>
	<path class="st1 file-7-element-107" d="M451.6,335c0,0,12.2-3.5,14.7-6s2.7,1.6,1.6,3.8c-1.1,2.2,7.1,0.3,15-2.7s10.6-4.6,10.6-4.6s-1.4,0,0.3,3.8   c1.6,3.8,16.6,1.4,19.6-1.9s8.2-2.4,8.2-2.4"/>
	<path class="st1 file-7-element-108" d="M654.5,460.9c0,0-3.8-4.1-7.3-9s-8.7-5.2-2.4-7.1s13.1,0,10.3-6.5c-2.7-6.5-4.6-13.3-1.4-13.3   c3.3,0,16,3,13.6-1.1s-6.3-5.4-6-11.7c0.3-6.3,1.4-7.9,4.4-7.3c3,0.5,9,4.6,17.1,1.6s4.9-1.4,13.3-4.1c8.4-2.7,8.7-1.6,10.9,1.1   s6.5-1.6,8.4-3s3.3,3.5,4.4,4.4c1.1,0.8-2.2,2.4-5.4,8.4c-3.3,6-6.3,10.6-7.1,18.8c-0.8,8.2,0.5,13.9,0.5,13.9"/>
	<path class="st1 file-7-element-109" d="M712.2,401.3c0,0,0.5-16.6,2.2-28.6c1.6-12,1.9-25.8-0.8-34.8"/>
	<path class="st1 file-7-element-110" d="M715.1,341.8c0,0,2.2-1.9-0.3-10.9c-2.4-9-9.8-8.2-12-13.3c-2.2-5.2-4.4-6.8-6.8-9.2s-10.1-3.5-10.1-3.5"/>
	<path class="st1 file-7-element-111" d="M663.7,346.7c0,0,20.1-9,22.8-25.6"/>
	<path class="st1 file-7-element-112" d="M677.6,363.5c0,0,6.5-9.5,8.2-18.2"/>
	<path class="st1 file-7-element-113" d="M684.7,372.2c0,0,10.3-12.2,10.9-17.4"/>
	<path class="st1 file-7-element-114" d="M697.5,381.2c0,0,4.6-3.5,5.2-8.7"/>
	<path class="st1 file-7-element-115" d="M634.9,320.3c0,0,5.7-3.5,11.7-6.3c6-2.7,4.6-5.4,4.9-9.8"/>
	<path class="st1 file-7-element-116" d="M648.5,298.2c0,0-7.3,3-8.7,0.5c-1.4-2.4-0.5-5.2-0.5-7.3c0-2.2,0.3-3-1.1-4.4s1.4-2.4,1.4-4.6s-2.2-4.1-3.8-6   s5.7-4.4,6.3-6.3c0.5-1.9,3.3-3.5,3.3-3.5"/>
	<path class="st1 file-7-element-117" d="M651.5,308c0,0,5.7,4.6,16.9,3s15.8-7.3,15.8-7.3c-1.9-1.1-0.8-8.7-4.4-4.1c-3.5,4.6-3.8,8.4-5.7,4.1   s-1.4-6.3-3.8-2.2c-2.4,4.1-1.4,6.5-3.3,2.7c-1.9-3.8-1.4-7.6-4.6-2.4c-3.3,5.2-4.1,3.8-4.4-1.4c-0.3-5.2-0.8-4.9-3.5-0.3   s0.3,3.5-2.7-0.3s-7.6-4.4-3.8-8.2s5.2-1.9,1.1-5.2c-4.1-3.3-3.3-2.2-0.3-5.7s0.8-6.3,1.1-9s-2.2-2.7-4.6-5.2   c-2.4-2.4-1.4-6.5,1.9-10.9c3.3-4.4,5.7-9.2,22.3-5.4s17.7,13.6,21.2,20.9s-0.5,9.8-2.7,15s-1.6,16.6-1.6,16.6"/>
	<path class="st1 file-7-element-118" d="M650.1,311.8l0.8,7.9l5.4-7.1c0,0,4.9,10.6,5.2,9.8s4.1-9.2,4.1-9.2l9.2,8.7l0.5-11.7l7.6,6.3v-10.3"/>
	<path class="st1 file-7-element-119" d="M643.6,410.8c0,0,11.4-18.8,16.6-26.4s5.7-9,5.2-15.5s-18.5-26.7-22.3-34s-5.4-16.3-13.3-21.8   c-7.9-5.4-13.6-7.6-20.9-9.2c-7.3-1.6-12-3.8-15.5-3.3"/>
	<path class="st1 file-7-element-120" d="M549.2,310.2c0,0-11.7,2.4-13.9,9.5s-0.5,18.8,4.6,23.1s6.3,4.9,6.3,12.2c0,7.3,1.9,12.2,6.5,17.7   c4.6,5.4,9.8,16.3,9.2,20.7"/>
	<path class="st1 file-7-element-121" d="M564.2,394c0,0-4.6,1.4-6.8,8.4c-2.2,7.1-5.7,18-11.4,22.3s-5.7,4.4-5.7,4.4s-8.2-2.7-13.3-1.9   c-5.2,0.8-6.5,3-11.7,6.7"/>
	<path class="st1 file-7-element-122" d="M513.3,445.1c0,0,11.6-5.2,13.6-5.4"/>
	<path class="st1 file-7-element-123" d="M526.9,439.7c0,0,10.9,0.5,15.2-1.6c4.4-2.2,3.3,1.1,8.4-2.2c5.2-3.3,19-10.3,27.2-20.7   c8.2-10.3,10.3-8.7,9.8-15s-7.3-23.1-7.3-28.3c0-5.2-4.4-15-6.5-20.1c-2.2-5.2-3-10.6-3-10.6"/>
	<path class="st1 file-7-element-124" d="M616.1,383.4c0.3-0.8-1.4-8.4-3.8-18.2s-8.2-25-10.6-28.6"/>
	<path class="st1 file-7-element-125" d="M631.6,331.2c0,0,5.2,31.6,0.3,48.1"/>
	<path class="st1 file-7-element-126" d="M635.2,363.5c0,0,5.4,8.2,8.2,10.6c0,0-1.9,3.3-5.4,12.8"/>
	<path class="st1 file-7-element-127" d="M627.3,466.6c0,0,9.2-3.5,11.7-9.2s0-6.3,1.4-16s2.2-8.4,0-14.4s3.8-13.3,2.4-26.9s-9-15.8-9-15.8"/>
	<path class="st1 file-7-element-128" d="M589.5,390.2c0,0,25.6,4.9,40.3-4.4"/>
	<path class="st1 file-7-element-129" d="M521.2,381.2c0,0-0.8,4.9,4.6,1.6c5.4-3.3,12.2-8.4,10.3-4.9s0.3,3.3,5.4,1.1c5.2-2.2,4.1-1.1,1.9,3.5   c-2.2,4.6,7.6,0.3,9.5-1.1"/>
	<path class="st1 file-7-element-130" d="M705.9,273.4c0,0-0.8,4.9,4.6,1.6c5.4-3.3,12.2-8.4,10.3-4.9s0.3,3.3,5.4,1.1c5.2-2.2,4.1-1.1,1.9,3.5   c-2.2,4.6,7.6,0.3,9.5-1.1"/>
	<path class="st1 file-7-element-131" d="M594.9,386.4c0,0,15.5,2.7,31.3-2.2"/>
	<path class="st1 file-7-element-132" d="M552.5,451.4c0,0,10.6,1.4,16-6.3"/>
	<path class="st1 file-7-element-133" d="M587.3,425c1.1-2.2,7.9-14.1,8.4-16.6"/>
	<path class="st1 file-7-element-134" d="M583.5,448.1c0,0,14.1-12,16-15s1.4-13.1,1.4-13.1"/>
	<path class="st1 file-7-element-135" d="M617.5,431.5c0,0-6.3-0.3,2.4-13.3"/>
	<path class="st1 file-7-element-136" d="M628.9,435.3c0,0,2.7-4.9,1.9-8.7"/>
	<path class="st1 file-7-element-137" d="M600.1,466.3c1.1-0.5,15.5-5.7,20.9-25.8"/>
	<path class="st1 file-7-element-138" d="M549,457.4c0,0,3,7.3,11.2,6c8.2-1.4,7.6-3.8,10.3-6.3"/>
	<path class="st1 file-7-element-139" d="M536.2,292.5c0,0-5.7,0.5-7.3-0.3s0.5-4.4,1.6-7.1s1.9-2.7,0.3-4.9c-1.6-2.2-1.1-3.5,0.5-5.4s2.7-2.4,1.1-4.4   s-4.1-4.9-0.3-6.3s6.5-0.3,6.8-2.7c0.3-2.4-0.3-7.9,7.9-9.5"/>
	<path class="st1 file-7-element-140" d="M559.3,243.6c0,0-6.8-1.1-10.3,1.6c-3.5,2.7-3.5,9.2-3.5,12.2c0,3,3.5,2.2,0.3,6.8c-3.3,4.6-6.5,5.4-3.3,7.9   c3.3,2.4,2.4,2.4-0.8,5.2c-3.3,2.7-3.8,5.4-2.4,8.2c1.4,2.7-3.3,2.2-3.3,3.5c0,1.4,1.9,3.5,1.1,8.2c-0.8,4.6-1.1,7.6,3.3,4.4   c4.4-3.3,4.1,0,6.5,4.4s1.6,2.4,4.9-2.4c3.3-4.9,0.5-1.4,3,4.9s3.8,8.4,6,1.9s1.6-2.2,6,1.9s2.4,1.1,3.8-4.6s-0.8,1.6,3.3,4.9   s3-0.8,3-3.3s3.5,15,6.8-1.1c0,0,4.4,3,5.4-0.3c1.1-3.3,4.6,5.2,5.4-0.3s-4.4-9-5.2-16.6s4.1-6,0.8-27.2s-11.2-23.7-16.6-25.3   s-19.9-4.4-20.9,4.4"/>
	<path class="st1 file-7-element-141" d="M513.3,405.9c0,0,9,6.3,20.7,6.3s10.6,1.9,10.6,1.9"/>
	<path class="st1 file-7-element-142" d="M402.6,522.1c1.4-0.5,5.7,0.8,8.4-3c2.7-3.8,10.1-3,10.1-3s10.2-3.5,20.9,2.2"/>
	<path class="st1 file-7-element-143" d="M412.2,516.6c0,0,0-7.3-1.6-7.1c-1.6,0.3-2.4,15.2-3,6.3c-0.5-9-1.6-16.9-3-11.2s-5.2,16.9-5.2,9   c0-7.9,0.5-17.4-0.8-13.3s-4.6-5.2-4.6-2.7s0.3,2.2-1.1,6.8c-1.4,4.6-3.3,5.4-3.3-1.9s0-9.8-1.6-4.9s-2.7,9.2-3.3-1.1   s-1.1-4.1,0-12.5s-7.6-7.1-7.3-15.8s1.1-15.2,10.6-17.7s16,10.6,22.6,14.4c6.5,3.8,13.3,2.4,16.3,1.4c3-1.1,10.3-1.6,18.8-10.3   c8.4-8.7,13.1-11.2,14.4-13.9"/>
	<path class="st1 file-7-element-144" d="M451.9,450.8c0,0-0.3,2.4-1.1,8.4s-1.6,6.3,0.8,9.2s-3,2.7-3,7.9c0,5.2,0,5.2,4.4,7.9c4.4,2.7,4.1,0.5,4.6,6   s2.2,6.5,7.1,5.4"/>
	<path class="st1 file-7-element-145" d="M487.2,465c0,0,9.5-14.4,9.2-38.1"/>
	<path class="st1 file-7-element-146" d="M493.7,490.8"/>
	<path class="st1 file-7-element-147" d="M497.8,488.4c0,0-3.2-15.8-2.8-29.2c0.2-7.4,5.7-13.7,13.1-14.3c0.6-0.1,1.2-0.1,1.7,0"/>
	<path class="st1 file-7-element-148" d="M521.8,483.2c0,0-10.3-8.2-11.7-13.9c-1.4-5.7-4.6-11.2-4.6-11.2"/>
	<path class="st1 file-7-element-149" d="M521.8,433.7c0,0-6.3,5.2-9.5,7.1c-3.3,1.9-1.6,4.9-0.3,4.9"/>
	<path class="st1 file-7-element-150" d="M515.2,433.4c0,0-7.6,3.8-6.8,6.8"/>
	<path class="st1 file-7-element-151" d="M519.9,428.5c0,0-2.2-7.9-6.3-13.6c-4.1-5.7-9-12.5-11.2-15.5s-4.9-3.3-6.5-5.7c-1.6-2.4-2.4-5.2-3.8-1.9   c-1.4,3.3-6,8.2-10.1,8.7s-9.2,0.8-13.9,2.2s-10.6,1.9-15.8,7.3c-5.2,5.4-9.5,18.5-9.5,18.5s-16.3,9.8-20.4,18s-7.3,9.8-7.3,9.8   s-10.9,0.5-12.5,1.4"/>
	<path class="st1 file-7-element-152" d="M482.1,400.5c0,0-3.8-2.2-6-1.4c-2.2,0.8-6.3,3-6.3,0.8s0-3-2.4-0.3s-7.3,1.9-5.7-0.8c1.6-2.7,1.6-3.5,1.4-7.3   c-0.3-3.8,0-3.3,0-7.9s1.6-4.4,0.3-9.2s0,0,0.8-5.7s-1.6-8.4-1.6-8.4s1.1-11.7,17.1-11.7s26.7,4.1,28.3,10.1c1.6,6,0,14.7,0.3,20.1   s-1.6,11.4,0,16.6s-2.7,0.8-4.1-3.5s-1.6,7.6-1.6,7.6"/>
	<path class="st1 file-7-element-153" d="M464.4,366.2c0,0-3.5,3.3-4.1,7.9c-0.5,4.6-3,5.2-3.5,6.5s3.5,0.5,3.5,2.7s-0.5,3.8,0,6.3s3.3,5.2,3.3,5.2"/>
	<path class="st1 file-7-element-154" d="M442.1,309.7c0,0,9.8-7.3,9.8-3.3c0,4.1,2.2,3.8,10.6-1.1s7.6-2.2,6.3,1.6s11.7-2.4,18.8-6   c7.1-3.5-0.5,1.6,0.5,4.4c1.1,2.7,16.3-2.7,21.5-6.5s1.4,1.9,1.9,3.5s9-3.8,9-3.8"/>
	<path class="st1 file-7-element-155" d="M165.2,554.7c0,0,9.5,0.8,15.2-4.9s6-0.3,3.3,4.1c-2.7,4.4,7.1-1.4,11.7-5.2s0,6.3,0,6.3l10.1-3"/>
	<path class="st1 file-7-element-156" d="M258.2,544.1c3.8-1.6,8.7-6.5,8.7-2.4s4.6,3,4.6,3"/>
	<path class="st1 file-7-element-157" d="M318.9,328.7c0,0,7.9,0,13.6-3.8s7.9,0.3,14.1,2.4c6.3,2.2,9.2,1.9,18.8-4.4c9.5-6.3,23.7-3.5,34.3-2.7   c10.6,0.8,23.9,1.4,29.4-6.3c5.4-7.6,13.6-14.4,24.5-16.6s8.4-3.3,23.1-5.7c14.7-2.4,24.2-3.5,33.7-6.8c9.5-3.3,20.4-4.6,20.4-4.6"/>
	<path class="st1 file-7-element-158" d="M441.8,376.3c0.1-1.1-18.5-8.7-27.5-8.7s-12.2-4.1-23.7-4.6c-11.4-0.5-20.4-0.5-31.3,5.4   c-10.9,6-11.7,4.6-19.9,7.3c-8.2,2.7-11.4,13.3-2.7,16.9s15.8-2.4,19.3,2.4s11.7,2.7,22.6-1.6c10.9-4.4,8.2-7.9,9.2-4.9   c1.1,3,0,8.4,3,3.3c3-5.2,1.6-9.5,1.9-2.2s-1.9,12.5,3,6.8s6-9.8,4.9-5.7c-1.1,4.1-4.1,5.4,4.4,1.1c8.4-4.4,5.2-3,5.4,1.1   c0.3,4.1,10.3-0.3,13.9-3.8c3.5-3.5-0.5,3-1.4,4.6C422.2,395.3,439.9,396.2,441.8,376.3z"/>
	<path class="st1 file-7-element-159" d="M406.7,367.3c0,0-1.6,2.7-13.6,2.7s-20.1,2.4-25.8,5.4c-5.7,3-12.2,5.2,0.8,3.8c13.1-1.4,16.3-3.8,24.5-0.5   s4.4,3.3,13.6,3.8s9-1.4,14.1-2.4s5.4-1.6,8.4,0s5.4,1.6,7.6,0.5s5.4-4.4,5.4-4.4"/>
	<path class="st1 file-7-element-160" d="M249.8,393.4c0,0,8.7-1.6,15.2,2.2c6.5,3.8,13.6,10.3,18,12s6.3,1.9,6.3,1.9s2.2,6.5,1.4,11.2   c-0.8,4.6-1.6,3.3-0.3,13.9s4.9,11.4,8.7,26.1c0,0,4.9,3,5.7,12.8c0.8,9.8,0.5,13.9-0.5,13.6c-1.1-0.3-0.8-4.9-3.8-2.7   c-3,2.2-7.6,2.4-8.7,1.9s-2.7,2.7-4.9,4.6c-2.2,1.9-3,6.5-5.2,3.3c-2.2-3.3-2.7-8.2-5.2-6.3s-6.5,3.5-9.2,1.9s-3.5-1.1-5.4,0.8   s-1.1,5.2-5.2,3.5c-4.1-1.6-4.1-3.5-7.1-0.3c-3,3.3-2.4,0-6.5,0s-4.6,0-5.7,1.6c-1.1,1.6-5.7,1.1-7.1-2.4c-1.4-3.5-4.1-4.6-4.1-2.4   s-0.3-5.7,0.3-11.7c0.5-6,1.4-16.9,1.9-24.8S227,437,233,425s6.5-14.1,6.5-14.1s-2.2-2.4-0.3-6.8S249.8,393.4,249.8,393.4z"/>
	<path class="st1 file-7-element-161" d="M290.6,420.6c-1.4-2.7-22.6-11.7-31.6-14.1s-21.2,0.3-21.2,0.3l-9.2-23.4"/>
	<path class="st1 file-7-element-162" d="M239.4,410.8c0,0,23.9-2.4,49,13.9"/>
	<path class="st1 file-7-element-163" d="M246.8,416c0,0-7.9,17.4-7.6,32.6"/>
	<path class="st1 file-7-element-164" d="M238.1,459.5c0,0,1.4,11.4,0.8,14.4"/>
	<path class="st1 file-7-element-165" d="M248.4,465.2c0,0,0-22.8,4.6-36.2"/>
	<path class="st1 file-7-element-166" d="M260.9,465c0,0-2.4,7.9-1.1,11.7"/>
	<path class="st1 file-7-element-167" d="M288.9,431.5c0,0-2.4,12-0.5,16.3"/>
	<path class="st1 file-7-element-168" d="M289.2,409.5c0,0,11.7-16,13.6-28.8"/>
	<path class="st1 file-7-element-169" d="M301.7,374.7c0,0,1.4,18.2,2.7,25.8c1.4,7.6,2.7,12,2.7,12s11.4,22.8,16.3,28.8s3.3,7.9,7.3,8.2   c4.1,0.3,7.3-0.8,9.8,0.3c2.4,1.1,3.8,2.4,3.8,2.4"/>
	<path class="st1 file-7-element-170" d="M347.4,454.6c0,0,0.8-3,1.4-6s-4.1-2.2-6.8-3c-2.7-0.8-5.7-5.4-8.2-5.4s-6.3-13.1-7.3-19   c-1.1-6-2.7-12-5.2-15.8c-2.4-3.8-3.3-15.2-3-19.9c0.3-4.6,3.5-14.4,1.4-21.2c-2.2-6.8-7.9-12.5-11.4-15.8s-3.5-3.3-3.5-3.3"/>
	<path class="st1 file-7-element-171" d="M264.5,339c0,0-14.1,6-17.4,10.9c-3.3,4.9-20.9,10.6-25,17.1s-2.2,8.7-2.2,8.7s-1.9,4.4-0.3,6.8s6.3,2.7,9,0.8   s18.8-12.5,20.7-17.1"/>
	<path class="st1 file-7-element-172" d="M250.9,360.3c0,0-2.7,11.7-3,17.4s2.4,10.1,1.9,15.8"/>
	<path class="st1 file-7-element-173" d="M266.4,383.9c0,0,4.1-6.3,4.6-12s4.1-12.8,4.1-12.8"/>
	<path class="st1 file-7-element-174" d="M281.6,494.1l1.6,7.3c0,0-3.5,19.3-1.6,28.8s5.2,16.6,3.8,25c-1.4,8.4-2.4,13.9-3,16c-0.5,2.2-0.5,4.6-0.5,4.6   "/>
	<path class="st1 file-7-element-175" d="M300.9,486.5c0,0,0,3,0.3,4.1s4.1,7.1,3,13.1s-3.3,8.7-3.5,12.8c-0.3,4.1-1.9,36.4-2.2,41.6   c-0.3,5.2,0.3,9.5,1.6,11.2s6.5,4.6,6.5,4.6"/>
	<path class="st1 file-7-element-176" d="M288.9,574c0,0-0.3-4.9,1.6-5.7"/>
	<path class="st1 file-7-element-177" d="M237.3,495.4c0,0,0.5,4.6,0,6.5s-7.1,15-6.8,26.7c0.3,11.7,2.4,22-0.3,35.9l-1.6,12.5"/>
	<path class="st1 file-7-element-178" d="M249.2,580.6c0,0-6.3-3.5-6.5-7.3s1.1-10.9,3-18s3.8-32.1,5.7-36.7s5.7-6.8,6.3-13.3   c0.5-6.5-1.1-11.2-1.1-11.2"/>
	<path class="st1 file-7-element-179" d="M308.3,334.4c0,0,4.4,0.8,7.6-3.3c3.3-4.1,3.8-4.6,3.3-9.2s-0.3-4.9,0.8-5.4c1.1-0.5-0.5-3-2.2-4.6   c-1.6-1.6,0-7.1-2.4-9.5"/>
	<path class="st1 file-7-element-180" d="M293.6,340.4c0,7.1,1.9,14.1,4.4,10.1c2.4-4.1,6.8-6.5,9.2-11.2c2.4-4.6,0.5-10.1,1.1-16c0.5-6,4.4-6,4.1-10.1   s-2.2-5.7-1.9-8.7c0.3-3,8.4-6.3,8.4-6.3s0.8-6.3-7.1-9.5c-7.9-3.3-14.7-2.4-21.5,3s-11.4,9.8-14.1,21.2c-2.7,11.4-6,12.8-8.4,16.3   s-4.4,10.3-3.5,13.9"/>
	<path class="st1 file-7-element-181" d="M308.8,294.2c0,0-4.4,1.1-7.3-1.1c-3-2.2-7.6,4.9-7.6,6"/>
	<path class="st1 file-7-element-182" d="M286.8,337.7c0,0,0,11.7,1.4,13.9"/>
	<path class="st1 file-7-element-183" d="M280.8,334.4c0,0-1.1,10.1,1.1,15.5"/>
	<path class="st1 file-7-element-184" d="M275.1,326c0,0-2.7,7.9-1.1,18.8"/>
	<path class="st1 file-7-element-185" d="M269.4,334.7c0,0-1.4,7.9,0.3,10.3"/>
	<path class="st1 file-7-element-186" d="M216.9,524.8c0,0,1.9,11.7,2.4,25.6s-3,22.3-3,22.3"/>
	<path class="st1 file-7-element-187" d="M131.5,529.2c0,0-6,16.3-6.8,26.9c-0.8,10.6,0.3,19,0.3,19"/>
	<path class="st1 file-7-element-188" d="M108.9,569.1c0,0,4.9-19.3,3-32.4"/>
	<path class="st1 file-7-element-189" d="M130.4,504.9c0.3-1.6-0.5-30.2,2.4-41.1"/>
	<path class="st1 file-7-element-190" d="M164.6,428.2c0,0,1.9,23.9,0.8,33.7"/>
	<path class="st1 file-7-element-191" d="M221.2,508.8c0,0-6.5-25.6-4.4-40.8"/>
	<path class="st1 file-7-element-192" d="M215.2,450.3c0,0-2.7-15.2-1.1-27.5"/>
	<path class="st1 file-7-element-193" d="M212.5,408.4c0.8,0-3,3.3-3.3-13.3"/>
	<path class="st1 file-7-element-194" d="M162.2,398.3c0,0-0.8-16.9,1.1-22.8"/>
	<path class="st1 file-7-element-195" d="M150.5,372.5c0,0,1.6-20.1,6-26.4"/>
	<path class="st1 file-7-element-196" d="M123.6,429.3c0,0-2.4-33.5,1.1-43"/>
	<path class="st1 file-7-element-197" d="M186.4,494.1c0,0-1.4-13.6,1.6-21.2"/>
	<path class="st1 file-7-element-198" d="M231.6,521c0,0-6.3-0.5-7.9,3c-1.6,3.5-7.6-1.9-10.6,1.9s-4.1-0.5-6.8,2.7c-2.7,3.3-10.9-4.6-10.9-1.4   c0,3.3-5.2-4.9-7.6-0.5c-2.4,4.4-1.6-2.2-6.8,1.9c-5.2,4.1-3.8-4.4-7.9,0.8c-4.1,5.2-4.1-1.1-6,0.8c-1.9,1.9-3.5-3.8-5.2-1.9   c-1.6,1.9-3.3-2.4-5.7,0s-4.9-3.5-7.3-0.8c-2.4,2.7-4.4-3-6.8-0.3s-3.8-3.3-5.7-0.5s-8.7,0.3-9.5,3.5c-0.8,3.3-0.5,0-3.5,3   s-3-2.4-6,0s-8.4,0.8-10.6,2.7s-1.1-1.9-2.7-0.3c-1.6,1.6-3-0.8-3.8-0.3s3.5-12.5,1.6-21.2s-0.3-43.5,1.1-59.3s10.9-16.6,9.2-49.5   c-1.6-32.9,2.4-54.7,5.2-63.6"/>
	<path class="st1 file-7-element-199" d="M222,365.1c0,0-2.7-13.3-8.2-24.2c-5.4-10.9-1.4-36.7,1.1-46.5c0,0,0.8,19.6,7.9,28.8   c7.1,9.2,12.8,32.6,12.8,32.6"/>
	<path class="st1 file-7-element-200" d="M248.4,347.5c0,0-7.3-9-7.1-21.8c0.3-12.8-1.4-10.9-5.2-20.7s-1.6-30.2-1.6-30.2"/>
	<path class="st1 file-7-element-201" d="M251.1,132.6c0,0,7.3,3,1.9,4.1s-10.6,6.8-10.6,10.3s-2.2,8.7-7.1,13.6c-4.9,4.9-4.4,9-3.5,19   c0.8,10.1,22.6,37.3,27.7,49.2c5.2,12,3.8,13.3,1.9,18s-10.3,4.9-14.1,12s-12.5,20.7-36.2,32.9c-23.7,12.2-32.6,30.7-57.7,42.2   c-25,11.4-59.8,11.2-59.8,11.2s-11.2-23.1,2.7-81.9s61.2-85.7,75.6-91.9s20.7-20.9,20.7-20.9l1.9-6.3c0,0,16.6,4.1,34.8-1.9   C247.6,136.1,251.1,132.6,251.1,132.6z"/>
	<path class="st1 file-7-element-202" d="M194.6,144l0.8-4.4c0,0,11.7,5.4,32.6-1.6c20.9-7.1,22.6-9,22.6-9l0.5,3.5"/>
	<path class="st1 file-7-element-203" d="M250.6,129.1c0,0,0.3-16.9-22.3-18.5s-34,13.6-32.9,29.1"/>
	<path class="st1 file-7-element-204" d="M231.6,171.8c0,0,11.4,1.9,14.1-1.4c2.7-3.3-0.8-6.3,1.1-8.7c1.9-2.4,7.3-9.2,5.2-14.4c-2.2-5.2-1.4-5.2,0-6.3   s1.1-4.4,1.1-4.4"/>
	<path class="st1 file-7-element-205" d="M241.3,325.7c0,0,5.4,0.5,12.2,2.2c6.8,1.7,14.1,1.4,14.1,1.4"/>
	<path class="st1 file-7-element-206" d="M263.9,327.6c0,0-5.2-10.9-2.2-27.7s3-31.6,8.4-40.5c5.4-9,5.7-15.8,4.4-25.3c-1.4-9.5,1.1-20.9,6.3-25.6   c0,0-9.2,0-13.1,8.2s-5.7,17.7-5.7,17.7"/>
	<path class="st1 file-7-element-207" d="M253.9,252.5c0,0,0.5,6.8-3.5,22.8c-4.1,16-8.2,40.5-8.2,40.5"/>
	<path class="st1 file-7-element-208" d="M275.6,230.8c0,0,6,9.5,10.3,5.4s7.3-2.4,8.2-11.4c0.8-9-7.9-16.6-13.3-16.3"/>
	<path class="st1 file-7-element-209" d="M281.6,299.9c0,0-0.8-15.2,4.6-28s7.6-28,7.6-34.8s-0.8-31.8,9.2-51.4c10.1-19.6,11.2-19,13.1-26.7   c1.9-7.6,6.5-26.9,24.5-20.1c0,0,6.8,2.2,8.2,10.6s3.8,28,10.1,38.6s8.4,13.1,8.2,21.2c-0.3,8.2,2.2,41.1,1.9,53.3   c-0.3,12.2,0.8,33.7-2.4,42.7c-3.3,9-1.1,17.7-1.1,17.7"/>
	<path class="st1 file-7-element-210" d="M302.8,282.2c0,0-1.1-26.1,5.4-45.7s12-32.9,12.2-48.7c0.3-15.8,5.7-40.3,14.4-44.9s11.2-0.5,11.2-0.5"/>
	<path class="st1 file-7-element-211" d="M328.7,151.9c0,0,10.3-6.5,18-5.4"/>
	<path class="st1 file-7-element-212" d="M327.6,154.9c0,0,1.6,5.7,2.7,8.6c1.1,3,4.7,6.5,9.1,6.2s7.3-5.6,8.4-8.9c1.1-3.3,1.6-6.8,1.6-6.8"/>
	<path class="st1 file-7-element-213" d="M320.8,190.3c0,0,7.6,11.2,20.9,8.4c13.3-2.7,14.7-12.5,14.7-12.5"/>
	<path class="st1 file-7-element-214" d="M311.8,288.7c0,0-3.8-15-0.5-20.7s-3-31.6-3-31.6s2.4,4.1,9.5,1.9"/>
	<path class="st1 file-7-element-215" d="M273.7,256.9c0,0,5.2,1.9,9.5,0.3"/>
	<path class="st1 file-7-element-216" d="M415.7,107.9c0,0,0.6,9.6,9.5,10.5c7.9,0.8,8.8-10.2,8.8-10.2"/>
	<path class="st1 file-7-element-217" d="M401.3,133.7c0,0,4.4,12.2,19,10.3s18-12.5,18-12.5"/>
	<path class="st1 file-7-element-218" d="M367.3,203.3c0,0,7.6-22.8,8.7-33.7s5.7-31.6,12-39.4s12.5-20.4,13.6-28.6s7.1-19.3,18.5-19.9   c11.4-0.5,15.5,6.8,15.5,9.2c0,2.4-1.1,22.3,2.2,28.8s10.3,23.1,11.7,30.5c1.4,7.3,4.9,16,7.6,22s4.1,8.7,3.5,16.3   c-0.5,7.6-1.9,18-5.2,20.4c-3.3,2.4-6.5,4.1-6.5,4.1"/>
	<path class="st1 file-7-element-219" d="M435.5,91c0,0-7.6-3.3-13.1,0.5c-5.4,3.8-9,9-11.4,22.3s-10.6,15.8-14.1,28.6s-8.4,26.1-9,38.4   c-0.5,12.2-7.3,21.2-6.5,36.2s2.7,21.8-1.1,30.5c-3.8,8.7,5.2,16.3,2.4,34.3c-2.7,18-2.7,31.6,0.8,35.4"/>
	<path class="st1 file-7-element-220" d="M398.6,297.7c0,0-0.5-56.6,3.3-76.7"/>
	<path class="st1 file-7-element-221" d="M384.1,202c0,0,3.8,0.3,7.1,3.8c3.3,3.5,4.1,3.5,8.4,4.9s6,3.8,8.4,5.7s6.3,2.7,6.3,2.7"/>
	<path class="st1 file-7-element-222" d="M427.9,220.7c0,0,9.2-1.9,13.1-4.1"/>
	<path class="st1 file-7-element-223" d="M401.5,182.6c0,0,4.4,7.6,7.3,9c3,1.4,4.1,2.2,7.6,1.9"/>
	<path class="st1 file-7-element-224" d="M443.2,198.1c0,0,2.2-3.8,4.1-6"/>
	<path class="st1 file-7-element-225" d="M446.7,178.8c0,0,4.6-12-0.5-24.5c-5.2-12.5-7.1-17.7-7.1-17.7"/>
	<path class="st1 file-7-element-226" d="M411.3,165.2c0.3-0.8,2.2-6.5-1.9-10.3s-4.6-6.8-4.6-6.8"/>
	<path class="st1 file-7-element-227" d="M460.8,294.7c0,0-0.3-31.8-2.7-48.1s-2.7-37.5-2.7-37.5"/>
	<path class="st1 file-7-element-228" d="M430.9,270.2c0,0,3.5-20.9,2.2-30.2"/>
	<path class="st1 file-7-element-229" d="M448.6,271c0,0-0.8-37-1.9-45.1"/>
	<path class="st1 file-7-element-230" d="M325.1,200.9c0,0-1.9,15,6,27.7c7.9,12.8,12.5,17.4,12.5,17.4s0.3,5.7,1.9,12.8s-3.5,0.8-3.5,0.8   s-17.4-5.4-25-25.3"/>
	<path class="st1 file-7-element-231" d="M347.7,261c0,0,6-1.6,3-6.5s-6.5-7.1-5.4-3.3C346.3,255,347.7,261,347.7,261z"/>
	<path class="st1 file-7-element-232" d="M351,259.1c0,0,12.2-7.6,16.6-25.3"/>
	<path class="st1 file-7-element-233" d="M343.6,246c0,0,7.9-7.1,9-19.3s0-25.3,0-25.3"/>
	<path class="st1 file-7-element-234" d="M334.4,230.8c0,0,8.7,3,16.6-0.8"/>
	<line class="st1 file-7-element-235" x1="333.3" y1="154.3" x2="334.2" y2="154"/>
	<line class="st1 file-7-element-236" x1="342" y1="151.8" x2="343" y2="151.6"/>
	<line class="st1 file-7-element-237" x1="420.2" y1="101.8" x2="421.4" y2="101.6"/>
	<line class="st1 file-7-element-238" x1="429.4" y1="100.6" x2="430.7" y2="100.5"/>
	<path class="st1 file-7-element-239" d="M418.5,96.6c0,0,8.6-4.2,15.5-0.2"/>
	<line class="st1 file-7-element-240" x1="338.5" y1="157.8" x2="338.8" y2="157.6"/>
	<path class="st1 file-7-element-241" d="M338.2,162.9c0,0,0.9,0.4,2.1-0.3"/>
	<line class="st1 file-7-element-242" x1="426" y1="105.5" x2="426.8" y2="105.5"/>
	<path class="st1 file-7-element-243" d="M425.5,110.3c0,0,1,0.5,1.9-0.2"/>
	<line class="st1 file-7-element-244" x1="283.2" y1="230.2" x2="284.2" y2="230.1"/>
	<path class="st1 file-7-element-245" d="M283,225.4"/>
	<line class="st1 file-7-element-246" x1="277.9" y1="222.5" x2="278.6" y2="222.4"/>
	<line class="st1 file-7-element-247" x1="286" y1="221.3" x2="286.9" y2="221.1"/>
	<line class="st1 file-7-element-248" x1="282.8" y1="225.5" x2="283.3" y2="225.4"/>
	<path class="st1 file-7-element-249" d="M275.8,218.8c0,0,8.7-4.6,15.3-2.7"/>
	<path class="st1 file-7-element-250" d="M415.2,171.3c0.1,1.2,1.5,7,4.5,7.4s5.2-1.2,8.5-1.5"/>
	<path class="st1 file-7-element-251" d="M436.4,180.5c0,0,3.5-3.4,4.1-6.7"/>
	<path class="st1 file-7-element-252" d="M350.9,166c0,0,9-4.6,9.5-9.1s2.6-17.3,10.9-21s11.5,1,11.5,1"/>
	<path class="st1 file-7-element-253" d="M356,181.1c0,0,10.9-8.9,11.2-17.1s1.8-17.7,5.3-21.4c3.5-3.6,9.1-2.6,9.1-2.6"/>
	<path class="st1 file-7-element-254" d="M371.9,145c0,0,4.6-0.4,7.9,1.2"/>
	<path class="st1 file-7-element-255" d="M368.5,157.9c0,0,2.3,7.4,4.7,8c2.4,0.6,3.2-1.2,3.2-1.2"/>
	<path class="st1 file-7-element-256" d="M359.4,178.4c0,0,3.2,11.1,13.1,4.6"/>
	<line class="st1 file-7-element-257" x1="372.9" y1="150" x2="373.9" y2="149.8"/>
	<line class="st1 file-7-element-258" x1="375.9" y1="155.7" x2="376.8" y2="155.7"/>
	<line class="st1 file-7-element-259" x1="374.8" y1="159.3" x2="375.8" y2="159.6"/>
	<line class="st1 file-7-element-260" x1="570.9" y1="98.1" x2="571.9" y2="98"/>
	<line class="st1 file-7-element-261" x1="567.4" y1="89.1" x2="567.9" y2="89.1"/>
	<line class="st1 file-7-element-262" x1="574.7" y1="87.8" x2="575.1" y2="87.7"/>
	<path class="st1 file-7-element-263" d="M570.8,92.6C570.8,92.6,570.1,92.3,570.8,92.6c0.7,0.2,1.4,0.2,1.4,0.2"/>
	<path class="st1 file-7-element-264" d="M533.1,161.3c0,0,8.2,3.8,9.5,10.2"/>
	<path class="st1 file-7-element-265" d="M529.1,164.7c0,0,5.8,6,7.3,10.9"/>
	<path class="st1 file-7-element-266" d="M557.5,117.7c0,0,1.6,6.9,5.8,7.1s7.1-5.1,9.8-7.8c2.7-2.7-0.2-11.3-0.2-11.3s-11.5,3.3-14.4,9.3   s-1.8,11.1-5.5,15.5c-3.8,4.4-7.8,15.3-9.5,18.2c-1.8,2.9-4.2,6-8.4,9.8s-6.4,7.1-9.3,10.4s-8.9,7.1-9.3,9.3   c-0.4,2.2,3.1,0.9,4.4,0c1.3-0.9-3.5,2.4-1.8,3.1c1.8,0.7,5.1-1.1,5.1-1.1s-4,2.7-2.4,2.9s3.8-0.4,4.7-1.1c0.9-0.7-1.1,2.4-0.4,2   s6.2-5.8,8.9-7.1s4-3.3,8-5.3s9.1-9.5,12.2-13.3c3.1-3.8,7.8-14.3,10.7-17.8c0,0,3.7,12.3,3.5,16.1"/>
	<path class="st1 file-7-element-267" d="M574.6,115.2c0,0,8,9.1,9.1,9.3c1.1,0.2,19.7-8.4,22.8-10.9c3.1-2.4-11.3-12.6-12.9-12.4   c-1.6,0.2-9.1,20.6-9.1,20.6"/>
	<path class="st1 file-7-element-268" d="M568.4,123c0,0,9.5,24.2,22.8,34.1"/>
	<path class="st1 file-7-element-269" d="M563.3,124.8c0,0,6.7,20.4,18.4,31.3"/>
	<path class="st1 file-7-element-270" d="M606,158.7c0,0-0.2-14.6-0.2-17.3l0.4-3.3"/>
	<path class="st1 file-7-element-271" d="M600.5,133.8c0,0,5.8,3.1,9.3,7.5s3.5,4.4,2.2,8.2s-7.8,23.7-7.8,25.3s-3.3,10.4-3.3,14.2s2.9,2.4,3.8,1.8   c0.9-0.7,2.4,1.6,3.5,0.7s2,1.1,2.7-0.2s1.1-3.5,1.8-7.8s3.3-8.6,4.7-10.6c1.3-2,8.9-17.3,10.4-27c1.6-9.8-21.3-32.1-21.3-32.1"/>
	<path class="st1 file-7-element-272" d="M605.8,167.5c0,0,7.5-0.9,11.5,5.3"/>
	<path class="st1 file-7-element-273" d="M604.3,174.9c0,0,4.4-1.3,9.3,2.9"/>
	<path class="st1 file-7-element-274" d="M569.7,162.4c0,0,18.8-1.6,36.4,4.2l0.2-6.9c0,0-15.1-3.9-34.8-3.3C571.5,156.5,567.7,155.1,569.7,162.4z"/>
	<path class="st1 file-7-element-275" d="M569.7,162.4c0,0-6.7,12.6-8.2,16.8c-1.6,4.2-4.2,9-2.7,11.2c1.6,2.2,3.1,1.5,6.4,1.9   c3.3,0.4,11.4,1.6,14.7,0.9c3.3-0.7,6.8-22.2,6.8-22.2s-1.9,24.5,0.8,24.3s12.3,1.2,12.3,1.2"/>
	<path class="st1 file-7-element-276" d="M563.1,192.1c0,0-0.3,0.3-1.2,4.9c-1,5.1-1.1,14.7-1.4,20.7c-0.5,9.2-1.3,17.1-1.3,17.1"/>
	<path class="st1 file-7-element-277" d="M580.4,239.1c0,0,1.9-19.9,2.6-29.6c0.5-7.4-1.7-7.6-1.7-8.3"/>
	<path class="st1 file-7-element-278" d="M612.3,185.1c0,0,9.1-2.2,16,4s4.4,15.3,0.9,23.7s-11.7,15.1-15.3,14.6s-9.8-7.3-12.2-15.3s-2.2-15.3,1.1-20"/>
	<path class="st1 file-7-element-279" d="M614,212.1c0,0,10.4-0.7,12.2-9.3s-5.3-12.2-9.3-11.7c-4,0.4-8.2,4.2-10.6,10.2   C603.8,207.2,608.7,213.2,614,212.1z"/>
	<path class="st1 file-7-element-280" d="M576.6,103.7c-1.8,2-4.7,0.9-7.5,0c-2.9-0.9-3.5-5.8-3.5-5.8s-2.7-10.6,0.9-14.6s12.6,0.2,12.6,0.2"/>
	<path class="st1 file-7-element-281" d="M578.8,85.1c0,0-0.4,14.2,1.3,17.7c1.8,3.5,5.8,6.2,6.7,6.2s3.3-1.8,4.9-5.5c1.6-3.8,5.3-3.5,2-8.9   c-3.3-5.3-2-6.7-2.9-11.1s-4.4-9.5-9.5-11.3s-12.9,0.2-15.5,4s-5.3,7.3-5.5,11.1s-1.1,12,0,14.4s1.3,2.9,6.7,1.8"/>
	<path class="st1 file-7-element-282" d="M606.5,221.8c0,0-1,10.6-2.6,18.3c-1.9,8.9-3.2,16.9-4.7,21.8c-1.6,4.9-2.9,18.8-3.6,22.8   c-0.7,4-1.9,8.8-1.9,8.8"/>
	<path class="st1 file-7-element-283" d="M93.2,335.9c0,0,38.1,0,60.3-13.9s30.9-29.9,52.1-39.7s30.4-15.5,33.5-27.8c3.1-12.4,22.7-14.9,22.7-14.9"/>
	<path class="st1 file-7-element-284" d="M1.9,300.3c0,0,31.4-23.2,56.7-30.4c25.3-7.2,39.7-14.4,39.7-14.4"/>
	<path class="st1 file-7-element-285" d="M12.8,384.9c0,0,10.3-0.5,16.5-5.7s2.1,3.1,1,5.7c-1,2.6,12.4-1.5,20.6-8.2s6.7,0,6.7,0s-1.5,3.6,12.9-2.6"/>
	<path class="st1 file-7-element-286" d="M41.6,472c0,0,22.2-13.6,22.2-7.7c0,5.2,0.5,4.6,8.8,0c8.2-4.6,8.8,1.5,8.8,1.5"/>
	<path class="st1 file-7-element-287" d="M-9.9,542.6c0,0,11.9-1.5,20.1-8.8c8.2-7.2,2.1,2.1,0.5,4.6s4.1-2.6,18-9.3s2.6,3.6,2.6,5.2s12.9-4.1,16-5.7"/>
	<path class="st1 file-7-element-288" d="M54.5,330.2c0,0,8.2-1.5,17.5-7.7s-2.1,4.6,0,4.6s16-10.3,16-10.3"/>
	<path class="st1 file-7-element-289" d="M28.2,312.7c0,0,18.6-16,33-18s28.9-9.3,28.9-9.3"/>
	<path class="st1 file-7-element-290" d="M140.9,179.2c-14.8,6.6-42.9,17.8-61.1,17.5c-25.8-0.5-67.5-9.8-69.1-12.4c-1.5-2.6,17-8.8,17-8.8   s63.1,18.9,113,2.8C144.2,177.3,141.8,178.8,140.9,179.2z"/>
	<path class="st1 file-7-element-291" d="M0.9,197.2c2.1,8.2,14.4,7.2,14.4,7.2s11.9-6.2,17.5-0.5s16,11.9,21.6,9.3s10.3-4.6,14.4-1s12.9,4.6,21.1,1   s12.4,2.1,18.6,2.1s5.2-2.6,9.3-11.3c4.1-8.8,20.6-23.2,20.6-23.2"/>
	<path class="st1 file-7-element-292" d="M11.2,182.3c0,0-1,17.5,1,21.1"/>
	<path class="st1 file-7-element-293" d="M61.9,200.2c0,0,38,5.2,60.6-8.8"/>
	<line class="st1 file-7-element-294" x1="30.8" y1="188.6" x2="44.3" y2="182.1"/>
	<line class="st1 file-7-element-295" x1="40.9" y1="192.2" x2="57.4" y2="183.5"/>
	<line class="st1 file-7-element-296" x1="69.9" y1="195.8" x2="84.8" y2="185.4"/>
	<line class="st1 file-7-element-297" x1="81.6" y1="196.6" x2="95.3" y2="185.8"/>
	<path class="st1 file-7-element-298" d="M3,110.8c0,0,15.3-4,23.8-1.2s18.3,0.8,25.8-0.6s21-0.4,27.4,2c6.3,2.4,21.4,1.4,27-1.2s23.2-1.8,29.6,1   s25.4,0.2,31.2-2s19.2-3.6,26.4-0.4"/>
	<path class="st1 file-7-element-299" d="M93.5,123.3c0,0,15.9,3,22,0.4c6.2-2.6,19.6-5.8,32.1-1.8s29.4,1,32.1-0.6"/>
	<path class="st1 file-7-element-300" d="M11.8,143.8c0,0,22.4-6.9,33.5-3c11.1,4,24,6.7,36.7,2.8c12.7-4,23.6-5.4,33.3-0.2s26.6,4.4,31.5,1"/>
	<path class="st1 file-7-element-301" d="M252,112.2c0,0,11.5-5,18.3-1.8c6.7,3.2,22,5,28.8,1.8"/>
	<path class="st1 file-7-element-302" d="M267.1,128.9c0,0,8.7-5.2,16.5-3"/>
	<path class="st1 file-7-element-303" d="M251.5,178.1c0,0,14.5-7.5,26.8-3.8c12.3,3.8,19.2,1.8,19.8,1.4"/>
	<path class="st1 file-7-element-304" d="M276.1,153.7c0,0,5.2,1,9.3-1.4"/>
	<path class="st1 file-7-element-305" d="M281,157.3c0,0,4.6,6.7,8.9,4.6c4.4-2.2,3.8-2,5.8-2.2"/>
	<path class="st1 file-7-element-306" d="M290.7,164.8c0,0,1,3.4,5.4,3.2s8.5,0.6,8.5,0.6"/>
	<path class="st1 file-7-element-307" d="M299.9,171.4c0,0,6.7,4.2,7.7,4"/>
	<path class="st1 file-7-element-308" d="M253.6,192.8c0,0,13.1,4.8,22.8,0.8c9.7-4,15.3-1,15.3-1"/>
	<path class="st1 file-7-element-309" d="M97.9,157.7c0,0,20.4-8.1,33.9-3s25.2,6.7,32.1,3.4c6.9-3.4,14.7-3,14.7-3"/>
	<path class="st1 file-7-element-310" d="M6.2,245c0,0,17.1-8.9,28.2-4.4s16.5,6,27.4,1.2s22-0.4,27,2.8"/>
	<path class="st1 file-7-element-311" d="M601.9,260.6c0,0,65.5-16.4,86.5-21.4s62.9,12,83.8,13c21,1,39.9-5,39.9-5"/>
	<path class="st1 file-7-element-312" d="M657.5,165.4c0,0,19-18,39.9-21.9c21-4,18-13,37.9-22.9s21.9-14,25.9-14"/>
	<path class="st1 file-7-element-313" d="M739.3,143.5c0,0,12-14,22.9-16c11-2,11-9,15-14s32.9-30.9,32.9-30.9"/>
	<path class="st1 file-7-element-314" d="M681.4,99.6c0,0,21.9-21.9,33.9-23.9s21-14,24.9-17s8-4,15-8s15-14,26.9-17c12-3,40.9-18,40.9-18"/>
	<path class="st1 file-7-element-315" d="M768.2,219.3c0,0,25.9-24.9,31.9-28.9s39.9-31.9,39.9-31.9"/>
	<path class="st1 file-7-element-316" d="M658.5,215.3c0,0,26.9-14,42.9-21.9s19-8,31.9-10c13-2,20-8,24.9-13s12-16,16-18"/>
	<path class="st1 file-7-element-317" d="M475.9,246.2c0,0,19-21,28.9-22.9c10-2,10-1,21-10s23.9-9,26.9-11s9.2-5.3,9.2-5.3"/>
	<path class="st1 file-7-element-318" d="M637.5,73.7c0,0,35.9-11,45.9-23.9c10-13,21-19,27.9-22.9c7-4,13-7,21-12s25.9-14,25.9-14"/>
	<path class="st1 file-7-element-319" d="M448.1,561.4c0,0-3.1-4.4-4.5-8.1s-3.7-10.2-3.3-15s2.5-9.5,4.5-14c2.1-4.5,11.5-15.8,14.7-18.9   s11.8-6.8,16.2-6.1c4.4,0.6,17.2,3.1,23.2,8c6,4.9,9.6,3.4,11.4,11.8c1.8,8.4,4.1,6.5,3.4,12.5c-0.6,6,0.6,11.7-1.8,17.3   c-2.5,5.6-2.5,5.6-2.5,5.6"/>
	<path class="st1 file-7-element-320" d="M458.6,550.2c0,0-9.1-7.2-1.7-21.9"/>
	<path class="st1 file-7-element-321" d="M476.2,526.4c0,0-8.6-0.9-8.5,8.2c0.1,7.5,11.4,11.3,15.6,2.7"/>
	<path class="st1 file-7-element-322" d="M479.1,549.9c0,0,11.2,0.9,14.1-8.6c2.5-8.1-2.5-14.7-2.5-14.7"/>
	<path class="st1 file-7-element-323" d="M426.8,466.3c0,0,13.7-2.4,24.8,2.2"/>
</g>
</svg>
