<?xml version="1.0" encoding="UTF-8" standalone="yes"?>
<svg version="1.1" xmlns="http://www.w3.org/2000/svg" xmlns:xlink="http://www.w3.org/1999/xlink" x="0px" y="0px" viewBox="0 0 792 612" style="enable-background:new 0 0 792 612;" xml:space="preserve">
  <style type="text/css">&#xD;
	.st0{fill:#FFFFFF;}&#xD;
	.st1{fill:none;stroke:#231F20;stroke-width:2.5;stroke-linecap:round;stroke-linejoin:round;stroke-miterlimit:10;}&#xD;
	.st2{fill:none;stroke:#231F20;stroke-width:2;stroke-linecap:round;stroke-linejoin:round;stroke-miterlimit:10;}&#xD;
	.st3{fill:none;stroke:#231F20;stroke-width:1.5;stroke-linecap:round;stroke-linejoin:round;stroke-miterlimit:10;}&#xD;
	.st4{fill:none;stroke:#231F20;stroke-width:2.6507;stroke-linecap:round;stroke-linejoin:round;stroke-miterlimit:10;}&#xD;
</style>
  <g id="coloringShapes">
    <polygon class="st0 file-5-element-1" points="174,-8.2 173.5,445.2 813.4,438.5 813.4,-5.6 813.4,-9.2 	"/>
    <polygon class="st0 file-5-element-2" points="-0.6,613.3 174,445.4 174.5,-8 -13.6,-8 -13.6,626.7 	"/>
    <polygon class="st0 file-5-element-3" points="27.9,237.1 104,214.3 105.6,41.2 28.4,43.8 	"/>
    <polygon class="st0 file-5-element-4" points="104,214.3 127.3,214.8 128.9,40.7 105.1,44.9 	"/>
    <polygon class="st0 file-5-element-5" points="27.9,237.1 104,214.3 127.3,214.8 128.9,219.5 28.4,249.5 	"/>
    <polygon class="st0 file-5-element-6" points="-8.4,620 174,445.4 828.9,438.2 811.8,622.6 -13.6,626.7 	"/>
    <polygon class="st0 file-5-element-7" points="547.7,278.1 546.5,271.9 556.4,257.5 570.4,258.3 581.8,270.8 582.7,280.2 	"/>
    <polygon class="st0 file-5-element-8" points="585.2,266.4 575.1,255.4 570.4,258.3 581.8,270.8 	"/>
    <polygon class="st0 file-5-element-9" points="556.8,249.7 556.4,257.5 570.4,258.3 570,250.9 	"/>
    <polygon class="st0 file-5-element-10" points="576.3,248.4 570,250.9 570.4,258.3 575.1,255.4 	"/>
    <polygon class="st0 file-5-element-11" points="576.3,248.4 576.6,148.6 590.5,148.6 595.2,148.3 593.9,133.5 583.8,132.7 574.4,150.3 570,250.9 	"/>
    <polygon class="st0 file-5-element-12" points="557.9,250 559.2,148.5 533.5,149.8 533.5,134.3 554.3,131.8 554.5,117 570.2,115.5 571.9,131.6 &#xD;
		590.8,132.9 590.5,148.6 574.4,150.3 570,250.9 	"/>
    <path class="st0 file-5-element-13" d="M508.7,299.8c0,0,64.8-3.6,89.6-3.1c24.9,0.5,58-2.1,59.6-1.6c1.1,0.4,12.1-1,18.8-1.8c1-0.1,1.1-1.6,0.1-1.8&#xD;
		l-36-7.8L463,260l-5.1,7.6c0,0,8,5.8,9.6,7.4c1.6,1.6,4.4-1.7,4.4-1.7s5.7,1,7.3,4.1c1.6,3.1,2.1,1.6,10.4,1.6&#xD;
		S508.7,299.8,508.7,299.8z"/>
    <path class="st0 file-5-element-14" d="M464.3,196.6c4.9-1.7,8-5.1,9.2-10.8c1.3-5.8,5.4-4.5,7-13.6s0.2-9.6,2-14.3c1.8-4.7,1.8-9.2,1.8-9.2&#xD;
		s-13.7,18.4-14.1,19c-0.4,0.5-6.1,12-6.5,13.4l-37.2,32.3c0,0,18.1,81.3,18.6,81.9s56.6,4.9,56.6,4.9s19.7-4.7,21.3-5.4&#xD;
		c1.6-0.7,5.1-1.1,5.1-4s-1.6,0,0-2.9c1.6-2.9,2-2.3,1.8-4.3c-0.2-2,0.2-2,0.4-3.3c0.2-1.3-0.9-2.2,0.7-2.2c1.6,0,5.6-1.6,5.2-4&#xD;
		s-7.4-3.1-7.4-3.1l-3.6-3.8c0,0-4.3,3.1-7.6,3.3s-9.8-0.4-12.1,1.3s-3.6,0.7-5.1,3.8s-9,8.9-9,8.9l-33.4,1.1L437.2,214&#xD;
		C437.2,214,455.8,199.5,464.3,196.6z"/>
    <path class="st0 file-5-element-15" d="M42.9,278l-4.1-21.2c0,0,0-3.1-5.2-5.2s-10.9,0-10.9,0l3.1,25.9L42.9,278z"/>
    <path class="st0 file-5-element-16" d="M135.6,247.5c0,0,3.6-1.6,3.6-10.9c0-9.3-2.1-15-2.1-15l-8.3-2.1L22.7,251.6c0,0,11.9-2.6,16.1,5.2&#xD;
		c4.1,7.8,4.1,21.2,4.1,21.2L135.6,247.5z"/>
    <path class="st0 file-5-element-17" d="M335.4,373.4l43.7,1l69.9-161.7c0,0,6-13.9,9.1-19.7c3.1-5.8,9.3-26.2,17.7-33.7s9.8-15.1,9.8-15.1&#xD;
		s-1.1-10.8-9.8-16c-8.6-5.2-23.1-13.7-23.1-13.7s-8.4-4.9-21.3,4s-25.3,22.6-25.3,22.6s-4.9,8.4-5.8,13.7s-4,15.1-12,22.6&#xD;
		s-17.3,13.3-27.5,35c-10.2,21.7-20,46.6-24.8,58.1c-4.9,11.5-11.1,33.3-11.1,33.3l-8.2,17.7c0,0,20.3-6.9,23.3-11.4&#xD;
		C343.3,305.7,335.4,373.4,335.4,373.4z"/>
    <path class="st0 file-5-element-18" d="M391.6,338.6c0,0-8.3,22.3-9.3,25.9c-1,3.6-3.1,9.8-3.1,9.8s-43.1-1.2-43.7-1s4-7.7,10.6-22.9&#xD;
		c7.2-16.6,16.1-32.6,23.3-45.1c7.3-12.4,24.2-51.5,26.9-58.5s23.8-51.8,29-62.7c5.2-10.9,16.6-37.3,20.7-48.2s3.6-22.8,3.6-22.8&#xD;
		s-15,0-22.3,8.8c-7.3,8.8-15.5,14.5-15.5,14.5s4.7,11.9-0.5,23.8s-9.3,19.7-15.5,28c-6.2,8.3-17.1,24.4-21.8,34.7&#xD;
		c-4.7,10.4-12.4,30.6-16.1,39.9c-3.6,9.3-12.1,27.3-12.4,32.6c-0.4,5.4-1.6,11.9-5.2,14.5c-3.6,2.6-23.3,11.4-23.3,11.4&#xD;
		s-9.3,48.2-15,57.5c-5.7,9.3-6.2,15.5-4.1,19.7s7.3,1.6,7.3,1.6s0.5,4.7,3.6,6.2c3.1,1.6-2.6-4.1,14.5-4.7&#xD;
		c17.1-0.5,23.7-0.8,32,8.6s20.9,21.6,16.7,40.7c-4.2,19-15.5,47.7-15.5,47.7s-10.4,20.7-11.9,32.6c-1.6,11.9,2,21.1,9.3,26.4&#xD;
		c7.1,5.1,23,4.5,28.5,8.6c5.6,4.1,1.5,4.9,6.7,6.9c5.2,2.1,17.1,3.1,17.1,3.1s5.2-1,9.3,1c4.1,2.1,11.9,7.3,19.2,2.1&#xD;
		c7.3-5.2,5.3-0.2,7.3-5.2s2-5,2-5l8.9,3.9c0,0,5.3,4.3,8.3,2.6s10.9-8.3,10.9-8.3l6.2-3.6l42-20.2c0,0,18.7-5.7,24.9-4.7&#xD;
		c6.2,1,15.7,7.4,22.3,0c6.6-7.4,12.4-20.2,12.4-20.2s-15-12.4-16.6-18.1c-1.6-5.7-13-63.2-13-63.2s-3.9-18.3-10.9-28&#xD;
		c-7-9.6-11.9-15-11.9-15l-30.6-12.4c0,0-20.2,16.1-36.8,5.2c0,0-8.8-32.7-2.1-63.7c6.7-31.1,19.7-42,19.7-42s3.4-8.1-2.3-8.1&#xD;
		c-5.7,0-8.3,2.4-8.3,2.4s-4.9-12-9.1-8.4c-4.1,3.6-49.7,25.9-49.7,25.9L391.6,338.6z"/>
    <path class="st0 file-5-element-19" d="M295.2,394.3l-16.5,5v6.2l33.2,17.6l49.7-6.2c0,0-4.7-8.3-14.5-12.4c-9.8-4.1-20.2-2.6-23.8-2.6&#xD;
		c-3.6,0-16,4.8-16,4.8l-2.1-6.3l-5.2,2.6L295.2,394.3z"/>
    <path class="st0 file-5-element-20" d="M325.3,474.9c-0.4-22-0.5-31.7-0.4-35.5l-0.8-5.7l-0.4-12.9l-11.3-107c0,0-2.1-28-6.2-47.7&#xD;
		c-4.1-19.7-8.8-31.1-16.1-30.6c-7.2,0.5-10.5,5.4-7.8,10.9c2,4.2,2.5,5.2,2.6,5.5c-0.3-0.4-2.1-2.5-10.9-4.4&#xD;
		c-9.8-2.1-20.7-3.1-20.7-3.1s-2.6-9.3-9.3-8.3c-6.7,1,0,21.8,0,21.8s5.5,19.2,6.7,25.9s6.2,30,6.2,30s5.2,23.3,5.7,33.2&#xD;
		c0.5,9.8,2.6,27.5,1.5,37.8c-1,10.4,0.5,40.4,0.5,42.5c0,2.1,2.1,16.1,2.1,32.1s-6.7,62.2-6.7,62.2s-2.1,20.2,4.7,22.3&#xD;
		c6.7,2.1,9.3-0.5,13-24.9c3.6-24.3,2.6-37.8,2.1-52.8c-0.4-10.9-1-28.3-1.3-37c-0.1-3.4-0.2-5.5-0.2-5.5l1.3,0.7l-0.6-11.1l0.5-7.4&#xD;
		l-0.7-0.3l-1-67.4l26.9,6.7l2.6,26.4l4.7,51.8l-0.9-0.5l1.6,17.1l0.2,6l-0.7-0.3c0.3,7.7,0.8,26-1.2,36.8&#xD;
		c-2.6,14-4.2,47.7-4.2,47.7l-2.6,40.4c0,0-1.5,15.5,7.8,15c0,0,3.1-3.1,5.2-8.3C319.1,571.8,326.3,527.8,325.3,474.9z M293.2,326.7&#xD;
		c-1.6-0.5-19.7-6.7-19.7-6.7l-6.2-43c0,0,5.7,3,5.2,3.1c-0.5,0.2,7.1-0.5,10.9,0.5c3.8,1,11.9,1.6,11.9,1.6l6.2,47.7&#xD;
		C301.4,329.8,294.7,327.2,293.2,326.7z"/>
    <path class="st0 file-5-element-21" d="M539.8,312.1l-19.7,0.6l-10.8-0.4c-2.3,11.2,1,23.4-4.6,34.4l1.5,0.7l-30.6,209.8l7.3,5.7l0.5-3.6l52.3-209.8&#xD;
		c0.2,0,0.5,0.1,0.7,0.1C535.4,336.7,538.2,324.4,539.8,312.1z"/>
    <path class="st0 file-5-element-22" d="M619.1,309.6l-79.3,2.5c-1.6,12.2-4.4,24.6-3.4,37.5c23.9,2.7,76-0.4,85.4-1c2.7-1.1,5.4-1.9,8.1-2.5&#xD;
		L619.1,309.6z"/>
    <path class="st0 file-5-element-23" d="M680.7,521l-8.8-30.1l-15.5-54.9l-26.5-90c-2.7,0.7-5.4,1.4-8.1,2.5c1-0.1,1.5-0.1,1.5-0.1l58,197.4l9.3,4.1&#xD;
		L680.7,521z"/>
    <path class="st0 file-5-element-24" d="M504.5,312.2l-9.3,3.1c0,0,2.2,6.7,4.1,13c2,6.2,0,16.1,0,16.1l5.3,2.4c5.6-11,2.3-23.2,4.6-34.4L504.5,312.2z&#xD;
		"/>
    <path class="st0 file-5-element-25" d="M515.4,312.8l-19.2,130l-6.7,53.4l-4.1,43l-2.1,20.2c0,0,12.1,3.9,17.6,6.2c5.5,2.3,5.5,2.3,5.5,2.3&#xD;
		s2.5-49.5,5.9-67.6c3.4-18.2,13-80.8,16.1-100.5c3.1-19.7,6.2-55.4,6.2-55.4l6.2-30.6l3.7-0.2C535.1,310.2,525,312.6,515.4,312.8z"/>
    <path class="st0 file-5-element-26" d="M678.9,294.6l-53.1,3.1l-37.3-0.5c0,0-31.6,0.5-51.8,1.6c-20.2,1-28,1-28,1l-3.1,7.3l-1,5.2l10.9,0.5l0,0&#xD;
		c9.6-0.1,19.7-2.5,29.1,0.8l74.6-4c0,0,0,0.1,0.1,0.2c10.3-2,20.1-1.2,30.5-0.3l17.1-0.4L681,307L678.9,294.6z"/>
    <path class="st0 file-5-element-27" d="M702,514.8l-19.7-73.1l-27.5-99.5l-8.8-32.6l3.6-0.1c-10.4-0.9-20.2-1.6-30.5,0.3&#xD;
		c1.5,5.3,29.3,104.9,30.5,106.5c1.2,1.7,22.3,74.6,22.3,74.6l15,49.2l3.6,9.8l18.1-2.1L702,514.8z"/>
    <path class="st0 file-5-element-28" d="M449.1,212.7c0,0,13,26.4,14,34.2c1,7.8,4.1,14.5-5.2,20.7c-9.3,6.2-49.7,25.9-49.7,25.9s10.4-32.6,20.2-46.1&#xD;
		C438.2,234,449.1,212.7,449.1,212.7z"/>
    <path class="st0 file-5-element-29" d="M574.2,532.1c0,0,9.8,1.5,14.4-2.3s2.3-5,0.3-9.1c-2-4.1-3.8-5.8-8-4.3c-4.1,1.5-0.5,1.2-2.7,4.3&#xD;
		C576.2,523.8,574.2,532.1,574.2,532.1z"/>
    <path class="st0 file-5-element-30" d="M460,387.3c0,0,13,10,36.1-3.4c0,0-10.1-33.2-13.4-50.6c-3.3-17.3-2-26.6-0.7-34.3c1.3-7.8,2.5-15.9,4.2-17.5&#xD;
		s3.3-2.5,3.3-2.5s-6.5,2.4-10.4-1.6c0,0-1.3,3.3-4.2,7.3c-2.9,4-8.3,11.2-11.9,22.8c-3.6,11.6-6.7,19.7-7.6,30.7&#xD;
		c-0.9,11-0.9,25.3-0.2,32.2C456,377.3,460,387.3,460,387.3z"/>
    <path class="st0 file-5-element-31" d="M496.1,316.4l-0.9-1.1c0,0-7.6,4.5-14.8,4.5l4,21.9c0,0,8.3,36.9,10.5,39.2c2.2,2.3,1.3,3.1,1.3,3.1&#xD;
		s3.4-9.2,3.6-19.7c0.2-10.5-1.3-14.8-0.4-20c0.9-5.2,1.1-12,0-16.1C498.3,324.2,496.1,316.4,496.1,316.4z"/>
    <path class="st0 file-5-element-32" d="M500.5,275.6c0,0-2.9,0.3-5.2,1.3c-2.3,1-3.1,0.8-5.7,2.2s-4.1,3.7-4.2,5.6c-0.2,1.8-3.6,20.8-3.8,21.5&#xD;
		s-1.1,13.7-1.1,13.7s6.1,0.9,10.5-1.8c4.3-2.7,4-2.3,7.2-4.2c3.3-1.8,8-4.3,9.2-14.8l-5.6,1.1C501.7,300.2,499,294.4,500.5,275.6z"/>
    <path class="st0 file-5-element-33" d="M504.4,273.2"/>
    <path class="st0 file-5-element-34" d="M525.2,267.3c0,0-12.3-22.8-40.7-27.8c0,0,1.6,2.3,4.7,4.3c3.1,2,3.8,1.3,4.7,3.4c0.9,2.2,1.3,2.2,2.3,3.4&#xD;
		c1.1,1.3-0.2,1.8,1.4,3.8c1.6,2,0.4,1.4,2.7,3.1s-0.2,1.8,2.2,3.3s1.7,1.3,3.1,3.6s2.2,2.9,3.6,4c1.4,1.1,0,0.4,1.4,1.1&#xD;
		C512.2,270.2,515.8,272.3,525.2,267.3z"/>
    <path class="st0 file-5-element-35" d="M526.8,293.6l24.4-8.1l-13.6-12.6c0,0-1.1,1.4-3.3,3.3c-2.2,1.8-2.5,0.5-3.4,2s0.7,2.1-1.1,5.4&#xD;
		C528.1,286.8,526.8,293.6,526.8,293.6z"/>
    <path class="st0 file-5-element-36" d="M637.8,274.9c0,0-28.7,13.6-41.9,1.3c0,0-1.1-1.1,1.8-4.7c0,0-2.3-7.4-9.8-5.4c-7.4,2-7.4,6-6.1,9&#xD;
		c1.3,3.1,1.1,5.8,6.1,6c5.1,0.2,6.3-1.6,6.3-1.6l-0.2,6.3c0,0,15.5,3.4,26.7,2c11.2-1.4,20-4,20-4L637.8,274.9z M595.1,272.9&#xD;
		c-0.2,1.4-1.4,2.5-2.8,2.5c-0.5,0-1-0.1-1.5-0.2c0,0-0.1,0-0.1,0c-0.1,0-0.2,0-0.2,0c-1.6,0-2.8-1.3-2.9-2.9&#xD;
		c-0.1-1.5,1.4-2.9,2.9-2.9c0,0,0.1,0,0.1,0c0,0,0,0,0.1,0c0.1,0,0.1,0,0.2,0c0.7,0,1.5,0.1,2.2,0.3&#xD;
		C594.4,270.1,595.2,271.5,595.1,272.9z"/>
    <path class="st0 file-5-element-37" d="M604.4,221.2c0,0,1.4,11.7,7,16.3c0,0,0.5,8.7,0.5,13.7s-2.2,10.8-3.8,15.2c-1.6,4.3-1.6,4.3-1.6,4.3&#xD;
		s-8-2.2-10.1,3.3c-2.2,5.4,2.9,5.8,2.9,5.8s22.9,5.4,38.5-4.9c0,0-3.4-6.3-10.7-4.7c0,0-6-7.8-6-12.5s-1.6-17-1.6-17l-0.2-1.6&#xD;
		c0,0,9-1.1,7-19.2C626.4,219.9,605.1,218.8,604.4,221.2z"/>
    <path class="st0 file-5-element-38" d="M609.2,220.3l-0.5-25.7c0,0,5.8,4.9,13.2,1.3v23.9L609.2,220.3z"/>
    <path class="st0 file-5-element-39" d="M615.7,190.3c0,0,10.8-9.2-0.2-22c0,0-1.8,4.7-4.2,6.9C609.1,177.3,608.5,186.5,615.7,190.3z"/>
    <path class="st0 file-5-element-40" d="M558.5,161.9v-9.1c0,0-11.4-8.1-16.1-9.7s-5.7,0.1-4.7-1.5c1-1.6,2.7-4.7,7-1.9s11,6.1,12.3,6.6&#xD;
		c1.3,0.6,2.1-0.8,2.1-0.8s-3.2-6.6,2.3-10.6c5.5-4,7.4,2.3,7.2,6.6c0,0,8.9,0.4,14.6-2.1c5.7-2.5,4.9,0.2,4,2.8&#xD;
		c0,0-7.6,1.5-8.1,1.7c-0.6,0.2-7.6,3.6-8.1,4.7c-0.6,1.1-0.6,11.3-0.6,11.3l-1.9,20.5l-1.7,14.8l0.6,8l-3.2,5.1l-1.3-0.2l0.6-8.3&#xD;
		l-0.6-8.1l-1.3-12.5L558.5,161.9z"/>
    <path class="st0 file-5-element-41" d="M557.9,163.6c0,0,5.5,0.4,8.9-1.5s3.4-1.9,3.4-1.9s1.1,9.7,0.2,12c-0.9,2.3-0.8-0.6-3.6,1.1s-4.4,0.9-6.8,5.5&#xD;
		s-4,8-5.5,3.8c-1.5-4.2-0.8-8.4,0.4-11.2C556.1,168.6,557.9,163.6,557.9,163.6z"/>
    <path class="st0 file-5-element-42" d="M312.6,445.7l-0.7-0.3c-0.1-2.3-0.2-3.7-0.2-3.7l-32.4-17.4l-0.6-11.1l0.5-7.4l31.6,16.8l1.6,17.1L312.6,445.7&#xD;
		z"/>
    <path class="st0 file-5-element-43" d="M369.8,434l-44.6,6.2c0,0-0.4-6.2-0.4-0.8l-0.8-5.7l-0.4-12.9l0.1,0.8l37.8-4.7&#xD;
		C366.7,423.6,369.8,434,369.8,434z"/>
    <path class="st0 file-5-element-44" d="M27.1,91.8c1.1,0,47.1-1.9,47.1-1.9s10.8-3.4,1.9-13.4c0,0-5.2-17.2-13.8-13.4c0,0-7.5-14.9-22.8-7.8&#xD;
		c0,0-7.8-6.3-11.6-0.7L27.1,91.8z"/>
    <path class="st0 file-5-element-45" d="M67.4,225.5c0,0-12.7-12.3-0.4-27.6c0,0-6.7-10.8,2.2-16.1c0,0-1.1-16.4,13.8-16.8c0,0,10.5-11.2,21.7-6.3&#xD;
		l-0.7,55.6L67.4,225.5z"/>
  </g>
  <g id="outline">
    <path class="st1 file-5-element-46" d="M1037.2,372.7c0,0-3.2-12.9,4-20.8c0,0-1.9,7.5,0.3,14.3c0,0,4.3-12.4,3.2-7c-0.3,1.3,0,8.4,1.6,15.6&#xD;
		c0,0,4.6-8.9,4.9-16.7c0,0,4,15.4,1.1,21.6"/>
    <path class="st1 file-5-element-47" d="M306.6,531.8c0,0-3.3,37-2.1,42.4c1.2,5.4,1.8,11.1,6.9,10.8c5.1-0.3,2.4-4.8,5.1-7.5c2.7-2.7,4.8-17.8,6-34.9&#xD;
		s1.8-36.7,2.7-59c0.4-11.1,0.2-24.9-0.3-38.2c-0.6-13.4-1.5-26.2-2.4-34.9c-1.8-17.5-7.2-66.8-8.1-78.2&#xD;
		c-0.9-11.4-4.5-45.4-6.6-56.3c-2.1-10.8-4.2-20.8-8.1-30.4c-3.9-9.6-7.8-10.8-9.6-9.9c-1.8,0.9-3.6-0.3-3.6,1.2s-2.1,0.3-2.7,2.4&#xD;
		c-0.6,2.1-2.4,1.5-1.8,3.3s0.6,4.8,3,9.3s8.4,18.7,9.9,28c1.5,9.3,3,21.1,4.5,30.4c1.5,9.3,6.3,43.3,7.8,64.1&#xD;
		c1.5,20.8,3.9,46.9,4.8,62.9s0.9,28.9-1.5,45.1C308.1,498.7,306.6,531.8,306.6,531.8z"/>
    <path class="st1 file-5-element-48" d="M275,321.2c0,0-4.8-19-6-28c-1.2-9-1.5-13.8-1.5-13.8"/>
    <path class="st1 file-5-element-49" d="M254.6,242.6c0,0-5.7-10.2-11.1-5.7c-5.4,4.5-3.6,6.9,0.6,21.7c4.2,14.7,5.7,17.8,7.8,31.9&#xD;
		c2.1,14.1,7.5,33.4,9.9,50.6s3.9,40,2.7,59.6c-1.2,19.6,2.7,44.2,2.1,60.5c-0.6,16.2-1.8,28.9-4.5,46.9c-2.7,18.1-5.4,34,4.5,36.1&#xD;
		c0,0,4.5,1.8,7.2-7.5c2.7-9.3,6.3-31,6.3-48.4s-2.1-67.7-1.2-78.8s-1.5-42.4-1.5-54.5c0-12,0-14.1-0.3-15.3"/>
    <path class="st1 file-5-element-50" d="M280.7,424.7c0,0,19.3,12.3,27.7,15.3"/>
    <path class="st1 file-5-element-51" d="M309.3,420.8c0,0-21.4-11.7-28.6-14.1"/>
    <path class="st1 file-5-element-52" d="M304.5,374.7c0,0-9.9,16.9-7.8,22.9c2.1,6,2.4,5.1,5.7,3s3.3-2.1,3.3-2.1s-0.3,6.9,1.5,8.1"/>
    <path class="st1 file-5-element-53" d="M297.6,328.7c0,0-6.9-1.5-12.3-4.2c-5.4-2.7-11.7-4.5-12.6-1.5c-0.9,3,0.3,10.8,0.6,12.3s1.2,0.3,8.4,3.3&#xD;
		c7.2,3,20.2,5.4,20.2,5.4"/>
    <path class="st1 file-5-element-54" d="M290.1,281.7c0,0-5.7-2.1-10.5-2.1s-3,1.2-6.6,0.3s-9-3.6-10.2-5.7s-9.3-26.8-10.2-28.3&#xD;
		c-0.9-1.5,1.2-2.7,7.8-0.3c6.6,2.4,12,1.2,16.2,2.4s4.2,1.2,4.2,1.2"/>
    <path class="st1 file-5-element-55" d="M327.1,421.7c0,0,26.5-3.6,28.9-3.3"/>
    <path class="st1 file-5-element-56" d="M329.5,438.8c0,0,13.8-0.6,19.6-1.8c5.7-1.2,18.4-2.7,18.4-2.7"/>
    <path class="st1 file-5-element-57" d="M385.8,567.6c0,0-8.4-4.2-17.8-4.8c-9.3-0.6-16.6-5.7-20.8-12.6c-4.2-6.9-4.8-21.4,2.4-35.5&#xD;
		c7.2-14.1,11.1-28.9,18.1-44.5s5.4-30.7,0.6-43S349,405.4,349,405.4s-7.4-4.9-20.5-4.1"/>
    <path class="st1 file-5-element-58" d="M387.9,423.8c0,0,9.3,12,8.1,33.7c-1.2,21.7-3.3,36.1-6.9,56.6c-3.6,20.5-8.1,37.3-6.3,43.9&#xD;
		c1.8,6.6,0.9,14.4,8.7,15.9c7.8,1.5,10.5,2.7,17.8,1.5c7.2-1.2,10.8,6.3,19.9,5.1c9-1.2,13.8-3,14.7-11.1s1.2-21.7,3.6-40.3&#xD;
		c2.4-18.7,3.9-23.5,0.3-41.8c-3.6-18.4-7.5-32.8-10.8-44.2s-5.7-13.5-8.4-19.3"/>
    <path class="st1 file-5-element-59" d="M409.2,431c0,0,5.4,3.9,6.6,7.5s8.7,20.2,11.1,34s2.4,19.6,3.6,25.6c1.2,6,0.9,19.3-0.3,26.8s-0.9,15.9-3,20.5&#xD;
		"/>
    <path class="st1 file-5-element-60" d="M443.8,569.4c0,0,2.1,0,7.2,3.3c5.1,3.3,9.6,5.1,12.9,1.5c3.3-3.6,3-3,6.3-5.1c3.3-2.1,6-3.9,6-3.9"/>
    <path class="st1 file-5-element-61" d="M509.7,547.8c0,0,12-5.1,17.5-5.7c5.4-0.6,10.5-3,16.6-2.4c6,0.6,9.6,3.3,16.2,2.4c6.6-0.9,8.4-2.7,11.1-6.3&#xD;
		c2.7-3.6,3.9-8.1,5.7-10.8c1.8-2.7,3.3-5.1,1.2-7.2c-2.1-2.1-15-11.4-16.6-22.6s-6.6-28.3-9.6-50.6c-3-22.3-7.5-23.5-9.6-31&#xD;
		c-2.1-7.5-9.9-13.5-9.9-13.5"/>
    <path class="st1 file-5-element-62" d="M476.3,427.4c0,0,6.6,4.5,8.4,10.5c1.8,6,4.8,10.8,4.8,10.8"/>
    <path class="st1 file-5-element-63" d="M529,489.1c0,0,0.3-1.2,3.6,9.6c3.3,10.8,4.8,16.9,4.8,16.9"/>
    <path class="st1 file-5-element-64" d="M539.5,510.4c0,0,3.9-10.5-3.3-15.9"/>
    <path class="st1 file-5-element-65" d="M545.2,516.8c0,0-0.9-8.7-1.5-16.2"/>
    <path class="st1 file-5-element-66" d="M573.8,531.8c0,0,2.7,2.4,12-0.9c9.3-3.3,3.3-8.4,2.1-12.3c-1.2-3.9-9.9-0.9-9.9-0.9"/>
    <path class="st1 file-5-element-67" d="M326.5,397c0,0,3.9-3.6,14.7-6.3c10.8-2.7,8.4-1.8,17.8-3.9c9.3-2.1,11.1-5.1,15.9-8.4&#xD;
		c4.8-3.3,4.5-4.2,5.1-5.4c0.6-1.2,6.3-21.7,10.8-32.2c4.5-10.5,12.6-27.7,14.1-38.2c1.5-10.5,16.6-40.6,23.5-53.9&#xD;
		c6.9-13.2,11.7-23.2,20.2-37c8.4-13.8,11.7-19.9,14.7-29.2c3-9.3,13.5-25.3,18.4-30.1c4.8-4.8,5.1-8.7,0.6-15.9s-6.6-8.7-15-13.2&#xD;
		c-8.4-4.5-16.6-10.2-16.6-10.2s-14.4,0.3-22.6,8.4s-22.3,16.9-25.6,28.9c-3.3,12-8.7,22.3-16.9,30.1c-8.1,7.8-15,9.6-26.2,36.4&#xD;
		s-18.4,43.9-22.6,52.1s-7.8,23.5-9.6,30.4c-1.8,6.9-7.5,21.7-10.5,24.7c0,0,7.8-6.9,14.7-9.9s12.9-6.6,13.5-12.9&#xD;
		c0.6-6.3,1.2-12-6.6-9c-7.8,3-9,7.2-9,7.2"/>
    <path class="st1 file-5-element-68" d="M346.3,296.5c0,0,4.2-10.8,6.3-18.4s9-20.8,11.7-31.3c2.7-10.5,9.3-27.4,16.9-38.2&#xD;
		c7.5-10.8,15.9-25.6,22.6-33.7c6.6-8.1,10.8-22,9.3-33.7"/>
    <path class="st1 file-5-element-69" d="M380,372.9c0,0-3.6,1.5-9.3,1.8s-10.2-0.9-19-0.3c-8.7,0.6-10.2,0-12.6-0.3c-2.4-0.3-4.2,0,0.3-8.4&#xD;
		c4.5-8.4,17.2-38.2,25-51.2c7.8-12.9,28-53.9,34.6-74.6s25.9-54.5,32.8-71s19.6-33.7,19-56"/>
    <path class="st1 file-5-element-70" d="M410.7,292c0,0,17.8-7.2,27.4-12.6c9.6-5.4,21.4-8.7,24.1-15.9c2.7-7.2,3.6-6.6,0.6-18.7&#xD;
		c-3-12-14.1-33.1-14.1-33.1"/>
    <path class="st1 file-5-element-71" d="M457.4,200.8c0,0,2.1-2.7,6.3-3.6c4.2-0.9,7.8-4.8,9.6-10.8c1.8-6,7.2-6.9,7.5-17.2c0.3-10.2,3-11.7,3.9-14.1&#xD;
		c0.9-2.4,0-10.8,0-10.8"/>
    <path class="st1 file-5-element-72" d="M479.3,165.6c0,0,1.8,3.9,5.1,3.3"/>
    <path class="st1 file-5-element-73" d="M476.6,160.8c0,0,2.4-0.9,4.8,0"/>
    <path class="st1 file-5-element-74" d="M433.9,289c0,0,0.6-7.5,6.6-11.1"/>
    <path class="st1 file-5-element-75" d="M458.6,268.2c0,0,2.7,3,4.5,3.3c1.8,0.3,3.9,4.5,3.9,4.5"/>
    <path class="st1 file-5-element-76" d="M437.8,292.6c0,0,14.7-11.7,22-14.1c7.2-2.4,13.5-4.8,16.2-4.5c2.7,0.3,2.4,6,2.4,6s-9.9,5.1-13.8,12.6&#xD;
		c-3.9,7.5-9.3,13.5-12.6,26.5c-3.3,12.9-3,15-3,15"/>
    <path class="st1 file-5-element-77" d="M395.4,339.5c0,0,9.3,3.9,15.9,8.4s10.8,6.9,15.9,17.2c5.1,10.2,5.7,16.9,17.2,20.2c11.4,3.3,13.8,2.4,19,3.9&#xD;
		c5.1,1.5,12.9,2.4,20.8,0s11.7-5.1,11.7-5.1s-3.6-9-5.7-18.7c-2.1-9.6-4.8-21.4-6.6-29.8c-1.8-8.4-4.5-11.7-2.4-27.4s3.6-25,6-26.5&#xD;
		c2.4-1.5,2.4-3.6,5.7-3.9s3.6-2.1,6-2.1s2.4,0,2.4,0s-3,15.3,0,24.4s3,9,3,9s3-2.7,3.3-8.4c0,0,38.8-3,57.5-3.6&#xD;
		c18.7-0.6,38.5-0.3,53.6,0c15,0.3,47.9-2.1,53.9-2.1s6.9-2.4,7.2,1.8c0.3,4.2,1.8,8.4,0.3,10.2c-1.5,1.8-19,2.4-30.2,2.1&#xD;
		c-11.1-0.3-28.9-0.9-40.6,0.6c-11.7,1.5-35.8,1.8-49.7,2.4c-13.8,0.6-22.9,0.9-30.1,0.6c-7.2-0.3-20.5,0.3-20.5,0.3"/>
    <path class="st1 file-5-element-78" d="M478.4,279.9c0,0-7.8,9-12,18.7c-4.2,9.6-9,22.9-10.5,40c-1.5,17.2-0.9,19.3-0.3,30.4&#xD;
		c0.6,11.1,4.5,18.7,4.5,18.7"/>
    <path class="st1 file-5-element-79" d="M497.7,381.9c0,0,3-19,1.8-26.8c-1.2-7.8-1.8-8.7-0.3-14.7c1.5-6-0.3-14.4-1.8-18.4c-1.5-3.9-1.8-6-1.8-6"/>
    <path class="st1 file-5-element-80" d="M486.3,319c0,0,3,0,5.4-2.1c2.4-2.1,3.9-1.5,7.8-3.3c3.9-1.8,4.8-4.5,4.8-4.5"/>
    <path class="st1 file-5-element-81" d="M486.6,316c0,0,5.4-0.3,7.8-3.9"/>
    <path class="st1 file-5-element-82" d="M491.1,312.1c0,0,4.8-3.9,6.3-11.1"/>
    <path class="st1 file-5-element-83" d="M492.9,297.4c0,0-1.8-4.5-0.3-8.4"/>
    <path class="st1 file-5-element-84" d="M498.9,343.7c0,0,1.8,2.4,5.7,3.3"/>
    <path class="st1 file-5-element-85" d="M534.7,349.7c0,0,38.5,1.5,55.4,0.9c16.9-0.6,25.3-1.2,28.3-1.5c3-0.3,9-1.2,9-1.2"/>
    <path class="st1 file-5-element-86" d="M505.5,299.2c0,0,6.3-1.2,12.3-2.7c6-1.5,10.8-3.6,10.5-6.6c-0.3-3-0.3-3-0.3-3s3-1.2,1.2-4.5&#xD;
		c0,0,3-1.8,0.9-4.5c0,0,3.3,1.2,5.4-2.1c2.1-3.3-2.4-4.2-5.1-4.5c-2.7-0.3-2.7-5.4-6-3.9c-3.3,1.5-2.7,3-7.8,3&#xD;
		c-5.1,0-12.6,0-15.3,5.4"/>
    <path class="st1 file-5-element-87" d="M470,261.9c0,0,3.9-0.3,11.4,1.2c7.5,1.5,7.8,0.9,14.4,2.1s11.1,1.5,11.1,1.5"/>
    <path class="st1 file-5-element-88" d="M524.5,267.3c0,0-12-24.4-41.5-28c0,0,7.5,5.7,10.5,6.6s-0.6,3.6,2.4,4.5c3,0.9-1.8,3,2.7,3.6&#xD;
		c4.5,0.6-4.5,2.1,1.2,3.3s-1.5,2.4,3.6,3.6s-1.2,2.7,3.3,3.6s-0.9,2.7,3.6,3.6"/>
    <path class="st1 file-5-element-89" d="M536.2,278.1c0,0,1.2,1.8,2.4,2.1"/>
    <path class="st1 file-5-element-90" d="M533.8,282.3c0,0,0.9,2.7,3.3,2.4"/>
    <path class="st1 file-5-element-91" d="M547.7,275.7l-0.6-4.2c0,0,9.6,2.4,22,3c12.3,0.6,12.3,0.6,12.3,0.6"/>
    <path class="st1 file-5-element-92" d="M548.6,278.4c0,0,4.5,0.6,15,1.2c10.5,0.6,17.2,0.9,18.7,0.3"/>
    <path class="st1 file-5-element-93" d="M597,270.6c0,0-2.1-4.8-8.4-4.5c-6.3,0.3-7.2,5.1-7.2,5.1c-1.5-0.9-9.3-11.1-9.3-11.1"/>
    <path class="st1 file-5-element-94" d="M592.8,279.6c0,0-10.8,4.2-11.4-8.4"/>
    <path class="st1 file-5-element-95" d="M592.8,274.8c0,0-4.8,3.3-5.7-2.1c-0.9-5.4,5.1-3.3,7.5-0.6"/>
    <path class="st1 file-5-element-96" d="M605.1,270c0,0-7.5-0.9-9.6,6c-2.1,6.9-0.3,10.2-0.3,10.2s17.8,2.4,29.5,0.6s15.9-3.9,15.9-3.9l-2.7-7.8&#xD;
		c0,0-1.8-4.8-6.6-5.1"/>
    <path class="st1 file-5-element-97" d="M637.9,275.1c0,0-6.3,3.9-16.6,5.1s-14.7,0.9-19.3,0c-4.5-0.9-6.6-4.2-6.6-4.2"/>
    <path class="st1 file-5-element-98" d="M604.8,275.4c0,0,1.2-6.3,4.8-11.4c3.6-5.1,2.1-25.3,2.1-25.3"/>
    <path class="st1 file-5-element-99" d="M628,273c0,0-3.3-6.3-6-11.7c-2.7-5.4-2.7-22-2.7-22"/>
    <path class="st1 file-5-element-100" d="M604.8,220l21.7-0.3c0,0,2.4,20.2-10.2,20.2C616.3,239.9,606.6,241.7,604.8,220z"/>
    <path class="st1 file-5-element-101" d="M609,216.1l0.3-22c0,0,3.6,3.3,6.6,3.3c3,0,6-1.5,6-1.5l-0.6,18.1"/>
    <path class="st1 file-5-element-102" d="M616,197.5c0,0-0.6-5.7,0.6-7.8c1.2-2.1,8.1-6.6-1.2-22c0,0-0.3,3-3.6,6.9s-1.2,11.1,2.4,14.7"/>
    <path class="st1 file-5-element-103" d="M541.3,313c0,0-5.7,29.8-7.5,46c-1.8,16.2-3.6,34.6-6,49.7c-2.4,15-6.3,45.1-12,73.4&#xD;
		c-5.7,28.3-9.6,82.2-9.6,82.2"/>
    <path class="st1 file-5-element-104" d="M506.4,567.9c-0.9-0.3-17.5-7.8-22-8.4"/>
    <path class="st1 file-5-element-105" d="M516.4,313.3c0,0-6,44.5-9.6,67.7c-3.6,23.2-10.2,61.1-12.6,83.1c-2.4,22-6.6,62.6-9,77.3s-1.5,22.3-3,20.8&#xD;
		s-6-2.1-5.1-7.2c0.9-5.1,2.1-22.3,3.9-32.2s8.4-71.3,10.5-82.5c2.1-11.1,7.2-40.3,9.9-59c2.7-18.7,4.2-34,6-44.2&#xD;
		c1.8-10.2,2.4-20.8,2.4-20.8"/>
    <path class="st1 file-5-element-106" d="M622.6,348.8c0,0,6.3,8.7,9.3,23.5s13.2,40,14.7,54.8s8.7,26.5,16.2,57.2c7.5,30.7,16.6,58.1,18.1,60.5&#xD;
		c1.5,2.4,7.2,5.7,8.7,5.4c1.5-0.3,19.3-1.8,20.2-2.1c0.9-0.3-2.1-10.8-3.9-16.6s-6.6-25.3-9-34.9c-2.4-9.6-7.5-28.6-10.2-40.6&#xD;
		c-2.7-12-13.8-46.3-15.6-56.3c-1.8-9.9-11.1-38.2-14.1-48.7c-3-10.5-7.2-23.8-9.3-30.7c-2.1-6.9-2.4-10.8-2.4-10.8"/>
    <path class="st1 file-5-element-107" d="M618.7,309.4c0,0,6.6,18.1,9.6,29.2c3,11.1,7.2,27.1,9.3,36.7c2.1,9.6,9.3,30.1,13.2,42.7&#xD;
		c3.9,12.6,9,30.7,11.7,42.1s10.8,34.3,12.9,41.5c2.1,7.2,9.6,36.1,10.5,38.2s3.6,10.2,3.6,10.2"/>
    <path class="st1 file-5-element-108" d="M570.8,257.7l-0.6-6.9c0,0,3-92.1,3.3-93.9c0.3-1.8,0.6-4.5,0.6-4.5l0.6-2.1c0,0,10.8,0.3,12.3,0"/>
    <path class="st1 file-5-element-109" d="M590.7,135.5V149l4.2-0.9l-1.5-14.7l-4.2-0.9c0,0-6.6-1.2-10.8-0.6s-6.3,0.3-6.3,0.3s-0.9-11.4-0.9-15&#xD;
		s-5.4-0.6-9.6-0.9c-4.2-0.3-7.5,1.5-7.5,1.5s0.6,12,0.6,13.2c0,1.2-6,1.5-11.1,2.1s-10.2,0.6-10.2,0.6l0.3,15.9"/>
    <path class="st1 file-5-element-110" d="M562.4,180.3c0,0-0.9,4.8,0,9.3s1.5,8.4,1.5,11.4c0,3-1.8,7.5,0,7.5s4.2-5.7,3.9-8.1c-0.3-2.4-0.9-0.9-0.9-4.2&#xD;
		s1.2-10.8,1.2-14.1c0-3.3,0.6-7.5-0.3-8.4c-0.9-0.9-5.4-0.3-6.9,2.4c-1.5,2.7-4.2,9.6-5.4,8.1c-1.2-1.5-1.5-4.8-0.9-7.8&#xD;
		c0.6-3,1.2-5.7,1.5-7.8c0.3-2.1,2.7-3.9,2.7-4.8c0-0.9-1.2-3.9-0.9-6.6c0.3-2.7,0.6-5.4,0.6-5.4"/>
    <path class="st1 file-5-element-111" d="M558.8,163.8c0,0,3.6,1.2,6-0.3c2.4-1.5,5.4-3.3,5.4-3.3"/>
    <path class="st2 file-5-element-112" d="M557.6,174c0,0,0.6-1.5,3.9-3.9s4.8-3.6,4.8-3.6"/>
    <path class="st1 file-5-element-113" d="M571.1,154.4v-5.1c0,0,4.8-5.1,9.3-5.7c4.5-0.6,5.7-1.2,6.3-2.4s-1.1-5.3-4.1-2.7c-2.4,2-5.8,3.3-9.1,3.6&#xD;
		c-3.3,0.3-4.8,0.9-4.8,0.9"/>
    <path class="st1 file-5-element-114" d="M555.8,151.1c0,0-6-4.5-9.3-6c-3.3-1.5-3-1.5-6-2.1c-3-0.6-4.3-1.8-1.8-3c3.5-1.7,4-1.6,8.3,1.3&#xD;
		c4.6,3.1,10,5,10,5"/>
    <path class="st2 file-5-element-115" d="M561,146.3c0,0,2.4,1,4.4,0.1"/>
    <path class="st1 file-5-element-116" d="M558.3,142.5c0,0-1.5-2.3-0.1-4.4"/>
    <path class="st1 file-5-element-117" d="M559.7,135.7c0.4-0.4,1.2-0.7,1.9-1c0.7-0.2,1.9-1.6,2.2-1.1"/>
    <path class="st1 file-5-element-118" d="M566.2,134.1c0,0,0.7,1.5,1,1.9c1,1.2,1,3.3,1,3.3"/>
    <path class="st1 file-5-element-119" d="M561.2,138.9"/>
    <path class="st3 file-5-element-120" d="M561.8,138.7c0.6,0.8-0.6,0.2-0.6,0.2"/>
    <path class="st1 file-5-element-121" d="M565.7,140.1"/>
    <path class="st3 file-5-element-122" d="M565.3,139.3c0,0,0.5,0.2,0.4,0.7"/>
    <path class="st3 file-5-element-123" d="M563.3,143.1c0,0,0.4-0.2,0.8-0.1"/>
    <path class="st1 file-5-element-124" d="M45.5,278.5l90.2-31.1c0,0,2.1-2.1,3.1-6.7s-1.6-19.2-1.6-19.2s-5.7-1.6-8.8-1.6S24.2,250,24.2,250&#xD;
		c3.1,2.1,9.3,1.6,13,3.1c3.6,1.6,4.1,19.7,4.7,22.3S41.3,278,45.5,278.5z"/>
    <path class="st1 file-5-element-125" d="M45.5,278.5c0,0-17.1-1-19.2-1.6L24.2,250"/>
    <path class="st4 file-5-element-126" d="M67.9,224c0,0-14.9-13,0.5-26.5c0,0-9.4-10.4,1-15.5c0,0-2-15.5,13.9-17.1c0,0,10.4-12.3,20.3-6.6"/>
    <path class="st1 file-5-element-127" d="M30.8,91c0,0,31,0.4,41.5-1.1c10.5-1.5,8.2-12,3-13.4c0,0-1.5-16.1-13.1-13.1c0,0-9.3-16.4-22.8-7.5&#xD;
		c0,0-6.3-5.6-10.5-2.6"/>
    <path class="st1 file-5-element-128" d="M75,208c0,0-6.1-8.9,3.5-15.4"/>
    <path class="st1 file-5-element-129" d="M84.1,196.1c0,0-5.4-6.3-0.9-13.8"/>
    <line class="st1 file-5-element-130" x1="281" y1="398.5" x2="295.2" y2="394.3"/>
    <line class="st1 file-5-element-131" x1="640.6" y1="282.9" x2="675.1" y2="291.5"/>
    <line class="st1 file-5-element-132" x1="558.2" y1="247.1" x2="557.6" y2="183.3"/>
    <line class="st1 file-5-element-133" x1="550.4" y1="149" x2="538" y2="149.6"/>
    <line class="st1 file-5-element-134" x1="576.2" y1="248.3" x2="576.5" y2="154.1"/>
    <line class="st2 file-5-element-135" x1="180.7" y1="445.9" x2="262.1" y2="445.9"/>
    <line class="st2 file-5-element-136" x1="282.8" y1="445.4" x2="311.3" y2="445.4"/>
    <line class="st1 file-5-element-137" x1="328.9" y1="445.4" x2="367.8" y2="445.4"/>
    <line class="st1 file-5-element-138" x1="555.8" y1="440.7" x2="647.6" y2="440.7"/>
    <line class="st1 file-5-element-139" x1="686.4" y1="440.2" x2="806.1" y2="440.2"/>
    <line class="st1 file-5-element-140" x1="29.9" y1="235.5" x2="105.1" y2="214.8"/>
    <polyline class="st1 file-5-element-141" points="538,273 551.6,285.3 528.4,292.9 	"/>
    <polyline class="st1 file-5-element-142" points="583.5,264.6 575.6,255.6 576.2,248.3 570.2,250.7 556.7,249.5 556.1,257.7 547.1,271.5 535.9,269.7 	&#xD;
		"/>
    <polyline class="st1 file-5-element-143" points="558.2,257.7 568.4,258.3 575.6,255.6 	"/>
    <polyline class="st2 file-5-element-144" points="174.5,-1.3 174.5,446.4 -0.1,612.7 	"/>
    <polyline class="st1 file-5-element-145" points="27.9,247.5 27.9,43.8 128.4,41.2 128.4,219 	"/>
    <polyline class="st1 file-5-element-146" points="128.4,41.2 105.1,44.3 105.1,214.8 126.8,214.8 	"/>
  </g>
</svg>