<?xml version="1.0" encoding="UTF-8" standalone="yes"?>
<svg version="1.1" xmlns:x="special-ns_extend;" xmlns:i="special-ns_ai;" xmlns:graph="special-ns_graphs;" xmlns="http://www.w3.org/2000/svg" xmlns:xlink="http://www.w3.org/1999/xlink" x="0px" y="0px" viewBox="0 0 792 612" style="enable-background:new 0 0 792 612;" xml:space="preserve">
  <style type="text/css">
	.st0{fill:#FFFFFF;}
	.st1{fill:none;stroke:#231F20;stroke-width:2.5;stroke-linecap:round;stroke-linejoin:round;stroke-miterlimit:10;}
</style>
  <g i:extraneous="self">
    <g id="coloringShapes">
      <path class="st0 file-8-element-1" d="M-15.1-15.6c0,2.1,0,489.2,0,489.2L809.1,407V-12L-15.1-15.6z"/>
      <path class="st0 file-8-element-2" d="M359.4,169.3c0,0,6.5,7.5,17.5,7.4s23.3,4.4,26,7.7s3,11,5.8,10c2.8-1,6.6-6.1,6.6-6.1s-0.7-5.7-10.6-7.9
				c-9.9-2.2-34.9-15.6-34.9-15.6S357.8,161,359.4,169.3z"/>
      <path class="st0 file-8-element-3" d="M192.6,514.3c0,0,12.1,1.6,21.9-3.6c9.8-5.2,19.3-14.1,42.2-14.1s33.3-5.7,54.2-2.1l3.6-0.5l-14.6-18.8
				l-62-19.3c0,0-36.5,19.8-38,25S192.6,514.3,192.6,514.3z"/>
      <path class="st0 file-8-element-4" d="M566,515.3c0,0-37.9-31.7-47.9-36.9c-10-5.2-24-18.8-24-18.8L451.5,431l-24.5,3.1l-49.5,11.5l43.2,93.2
				L566,515.3z"/>
      <path class="st0 file-8-element-5" d="M303,480.5l42.2,53.6c0,0,75.4-10.2,104.2-15.6c28.7-5.4,72.4-15.6,72.4-15.6s-81.8-60.4-86.5-63.5
				s-24.5-14.1-24.5-14.1l-95.3,14.6L303,480.5z"/>
      <path class="st0 file-8-element-6" d="M410.1,195.1C410.1,195.2,410.2,195.2,410.1,195.1C410,194.9,410,195,410.1,195.1z"/>
      <path class="st0 file-8-element-7" d="M509,409.4c-3.7-12.5-98.1-161.9-118.9-194.7c0.2-0.2,4.9-4.6,5.1-4.8c7.4-7.2,8.2-8.5,13.1-15.1
				c0.4-0.5,0.8-0.9,1.1-1.4c-0.1-0.1-0.1-0.2,0-0.1c0-0.1-0.1-0.2-0.1-0.3c-0.2-0.5-0.6-1-0.8-1.5c-0.2-0.4-0.4-0.7-0.5-1.1
				c-0.1-0.5-0.1-0.9-0.1-1.4c0-0.4,0.1-0.8,0.4-1.1c0.4-0.6,1.1-1,1.8-1c0.2,0,0.3,0,0.5,0c0.1,0,0.2,0,0.3,0
				c0.4,0.1,0.7,0.3,1,0.7c0.3,0.2,0.5,0.5,0.8,0.7c0,0,0.1,0,0.1,0.1c0.2,0.1,0.8-1.4,1-1.2c0,0,1.8,0.2,1.9,0.3
				c1.4-1.9,2.8-4,6.7-6.8c7.3-5.2,6.7-9.3,8.8-18.7c2.1-9.4,3.2-9,0.1-15.8c-3.1-6.8-14.4-15.6-31-20.8c-8.5-2.7-17.4-4.6-25.2-5.9
				L386,87.1c3.5,1,7.8,2.3,13.9,4c17.3,4.9,42.4,18.7,42.4,18.7s7.4-46.4-46.5-61.4c-54-15-87.4,22.8-87.4,22.8l7.1,1.3
				c0,0,39.4,7.4,52.1,10c4.6,0.9,7.8,1.7,10.9,2.5l-11.1,33.5c-4.2-0.5-7.8-0.8-10.6-0.8c-8.8,0-18.8,3.3-18.8,3.3
				s-4.4-15.7-15.7-13.3c-18.3,3.8-20,36-20,36s-0.5,6.2,7.8,14.1c0,0,4.7,4.2,4.7,14.6c0,10.4,1,21.9,5.7,34.9
				c2.3,6.4,5.4,13.8,9.8,19.6l-164.5,196l72.4,33.3l-1,5.7c0,0,21.9,15.1,24.5,15.6c2.6,0.5,7.7,1.2,15.1-1
				c7.4-2.3,6.2-4.2,10.4-0.5c4.2,3.7,9.4,10.4,20.3,0c0,0,10.4,3.1,14.6-4.7c0,0,9.4,1,11.5-8.3c0,0,10.9,11.5,16.1,5.7
				c5.2-5.7-1-11.5-7.8-17.2c-6.8-5.7-22.9-24-32.8-29.2c-9.9-5.2-16.2-5.2-27.6-2.6c-11.5,2.6-18.2,3.7-24.5,11.5
				c-6.3,7.8-14.6,18.8-14.6,18.8l-66.7-28.6l161.6-187.7c3.3,2.1,7,3.2,11.3,2.8c15.1-1.6,23.4-12,23.4-12l4.7-2.6
				c0,0,3.5-0.3,8.2-3.2l108.1,172.5c-0.2-0.1-3.5-2-12.2-2.1c-8.9-0.1-19.3-0.5-22.9,1.6c-3.6,2.1-4.7,10.4-5.2,12.5
				c-0.5,2.1-4.7,9.9-6.8,13c-2.1,3.1-4,21.2-1.6,21.9c2.5,0.7,5-1.6,7.3-6.8s8.3-9.4,8.3-9.4s4.2,14.6,4.2,26
				c0,11.5,1.6,21.9,6.8,20.8s6.2-24.5,6.2-24.5s0.5,26.8,4.7,26c4.2-0.7,6.2-3.6,6.2-3.6s7.8,3.1,10.9-4.7c0,0,6.2,5.2,9.4-12.5
				C508.5,449.5,513.2,423.5,509,409.4z M374.4,172.5c-0.1,0.5-0.5,0.9-0.9,1.1c-0.4,0.3-1,0.3-1.5,0.2c0,0-0.1,0-0.1,0
				c-0.2,0-0.4,0-0.5,0c-0.2,0.1-0.5,0.2-0.7,0.2c-0.8-0.1-1.6-0.3-2.3-0.7c-0.5-0.3-1.1-0.7-1.5-1.2c-0.9-1.1-1.5-2.5-1.3-3.9
				c0-0.6,0.2-1.1,0.7-1.5c0.4-0.3,1.1-0.5,1.6-0.3c0.6,0.2,1.2,0.6,1.6,1c0.3,0.3,0.5,0.6,0.8,1c0.3,0.5,0.7,0.9,1.2,1.2
				c0.3,0.2,0.6,0.4,1,0.6c0.2,0.1,0.3,0.1,0.5,0.2C374.1,170.4,374.6,171.5,374.4,172.5z"/>
      <path class="st0 file-8-element-8" d="M149.1,211.7c0,0-6.5,21.9-10.7,30.2c-4.2,8.3-24,42.7-39.6,63.5c-15.6,20.8-28.6,39.6-34.9,51
				c-6.2,11.5-8.3,18.2-10.4,29.2c-2.1,10.9-10.9,49.5-2.1,72.9s19.8,39.6,27.1,42.2c7.3,2.6,29.2,10.9,31.8,13.5
				c2.6,2.6,35.2,25,57.3,13s40.1-21.4,47.9-34.4c7.8-13,14.6-18.7,22.4-37c7.8-18.2,18.8-25,18.8-25l-29.7-6.8l-22.4-9.4l2.6-78.1
				l200.5-16.1l-3.6,96.9l41.7-1.6c0,0,6.8-10.9,9.4-18.2c2.6-7.3,3.7-8.9,14.6-8.9c10.9,0,16,1.1,23.1,2.1s13.9,12.5,13.9,12.5
				l3.6-3.6L499.9,380l-18.2-40.6l-26-56.8l-18.8-41.1c0,0-7.3-3.6-14.1,2.6c-6.8,6.2-14.1,28.1-13.5,47.4c0.5,19.3-1,22.9-1,22.9
				L206.2,332c0,0,2.1-42.7-8.3-67.2c-10.4-24.5-20.3-39.1-26.6-43.2S149.1,211.7,149.1,211.7z"/>
      <path class="st0 file-8-element-9" d="M213.4,577.4c0,0-2.1-21.9,8.9-26s19.8-4.7,19.8-4.7s19.3,13,35.9-1c0,0,23.4-0.5,25.5,7.8
				c2.1,8.3,1.6,26,1.6,26S259.3,595.1,213.4,577.4z"/>
      <path class="st0 file-8-element-10" d="M275.9,537.8l2.1,7.8c0,0-17.7,13.5-35.9,1l-0.5-12.5C241.6,534.1,257.2,543,275.9,537.8z"/>
      <path class="st0 file-8-element-11" d="M278.6,534.1c0,0,2.1-8.9-16.1-10.9s-25,6.2-20.8,10.9C245.7,538.8,268.7,543.5,278.6,534.1z"/>
      <path class="st0 file-8-element-12" d="M255.6,532.6c0,0,14.1,2.1,14.1-2.1C269.7,526.3,239.5,526.8,255.6,532.6z"/>
      <path class="st0 file-8-element-13" d="M230.1,187.8l-37.5,5.2c0,0-24.5,4.2-32.3,10.4s-11.5,10.4-11.5,10.4s14.1-1.6,26,12
				c12,13.5,18.2,26,22.9,39.1c4.7,13,9.4,33.9,8.9,50.5c-0.5,16.7,1.6,41.7,0.5,60.4c-1,18.8-2.6,39.1-2.6,39.1
				s24.5,14.6,52.1,16.1c0,0,15.1-13,32.8-13c17.7,0,29.7,10.9,29.7,10.9l84.9-11.5l5.2-126c0,0,1-54.2,27.6-50
				c0,0-5.2-8.3-16.1-16.1s-16.7-14.1-16.7-14.1l-13,12c0,0-12,15.1-13.5,20.3s-10.9,35.4-24,39.1c-13,3.6-29.7,6.2-40.6-0.5
				l-20.3-27.6C292.6,254.4,269.2,205.5,230.1,187.8z"/>
      <path class="st0 file-8-element-14" d="M325.4,434.6c0,0-20.3-21.4-32.3-42.2c-12-20.8-28.6-41.1-40.6-49s-29.2-14.6-29.2-14.6s6.2,8.3,7.8,9.4
				c1.6,1-2.1,1.6-5.7,2.6c-3.6,1-0.5,5.2,5.2,7.8c5.7,2.6-2.1,4.7-3.6,5.2c-1.6,0.5,20.3,11.5,20.3,11.5L240,368
				c0,0,17.2,5.7,18.2,8.9c1,3.1-2.6,4.7-5.2,5.2c-2.6,0.5,9.9,2.1,12.5,6.2c2.6,4.2,1.7,9.5,1,8.3c-0.7-1.2,7.8,5.2,9.9,6.8
				s18.8,14.6,18.8,14.6S304.1,415.4,325.4,434.6z"/>
      <path class="st0 file-8-element-15" d="M312.6,163.8c0,0-2.3-7.3-8-12s-0.3-34.6-0.3-34.6s8.3-28.3-1-35.6c0,0-18.3,0.3-23.3,6s-10.3,10-13.3,24.6
				c-3,14.6-4.7,21.3-8.3,27.9c-3.7,6.7-3,8-10.6,15c-7.6,7-11.3,10.6-14.6,18.6s-3,14-3,14s10.4,3.3,20.3,13.2
				c10,10,23.6,21.3,39.2,48.9s23.6,36.2,36.6,36.6c13,0.3,29.6,2.7,40.2-17.6c10.6-20.3,17.9-40.8,37.6-57.6l-6.6-4.2l-12.8,11.4
				l-8.2,3.2c0,0-4,1-9.3,5.7c-5.3,4.7-10,10.6-23.9,8c-14-2.7-20.1-19.2-23-28.2c-2.9-9-6.3-17.7-6.6-28
				C313.3,168.8,312.6,163.8,312.6,163.8z"/>
      <path class="st0 file-8-element-16" d="M309.6,71.3c0,0,58.5,11.6,76.2,17s50.2,19.3,55.9,22.3s12.9,14.6,11.6,22.6s-1.3,15.3-9.6,18.3
				c-8.3,3-9.5,0.2-9.5,0.2s-0.2-5.8-17.1-16.2c-17-10.3-46.9-16.3-52.5-16.3s-18,0.7-21.3,2c-3.3,1.3-5.2,1.8-5.2,1.8
				s-3.4-10.1-7.4-11.8c-4-1.7-7.3-4.3-10.6-1.7c-3.3,2.7-8.9,8.7-10.6,12c-4.1,7.7-6.4,23.9-6.4,23.9s0.1-19.5,4.1-35.8
				s2-23.9-3.7-27.9c0,0-5,1.3-1-2.3C306.3,75.7,309.6,71.3,309.6,71.3z"/>
      <path class="st0 file-8-element-17" d="M549.1,147l0.5,105.8l19.6,0.2l0.5-106.9C569.6,146.1,556.3,142.3,549.1,147z"/>
      <path class="st0 file-8-element-18" d="M574.6,253.3l8.1-0.5l1.1-92.7c0,0,8.3-2.3,12-0.2v-10.1l-16.7-5l-9.5,1.4l0.5,105.1
				C570,251.2,569.6,252.8,574.6,253.3z"/>
      <path class="st0 file-8-element-19" d="M589.7,253l6.1-0.2v-92.9c0,0-4.7-4.1-12,0.2l0.5,92L589.7,253z"/>
      <path class="st0 file-8-element-20" d="M608.2,253c0.7,0,9.7,0.2,9.7,0.2l1.6-2.9l-0.2-106.9c0,0-2.9-2-9.9-2s-13.5,2-13.5,2v104.9
				c0,0-2.9,4.1,2,4.5S608.2,253,608.2,253z"/>
      <path class="st0 file-8-element-21" d="M624.2,252.4l3.8,0.5l1.8-78.5l6.3,0.5l1.1-14.9l7.2-1.4l-0.9-11.1l-14-1.4c0,0-6.5-1.6-9-0.5l-0.7,3.2
				v103.3C619.9,252.1,620.3,251.9,624.2,252.4z"/>
      <path class="st0 file-8-element-22" d="M631.4,252.8h4.1l1.1-28.2l-0.5-49.8l-6.3-0.5l0.2,33.4C630,207.7,627.8,254.6,631.4,252.8z"/>
      <path class="st0 file-8-element-23" d="M649.4,160.3c0,0-5.9-3.8-12.2-0.5l-0.5,91.3c0,0,1.1,2,6.8,1.8c5.6-0.2,5.6-2.7,5.6-2.7L649.4,160.3z"/>
      <path class="st0 file-8-element-24" d="M654.4,253l15.8-0.2l2.3-2.9l0.2-106.9c0,0-5-2-12.6-1.4c-7.7,0.7-11.5,2.3-11.5,2.3l0.7,106.5
				C649.2,250.3,649.9,253,654.4,253z"/>
      <path class="st0 file-8-element-25" d="M677.2,252.6l3.6,0.2l1.4-2l-0.2-75.3c0,0,3.2-1.6,7-0.9l0.9-25.7l-8.6-2.5c0,0-4.3-2.3-8.1-0.5l-0.7,104
				C672.4,249.9,672.2,254.4,677.2,252.6z"/>
      <path class="st0 file-8-element-26" d="M685.1,253l4.3-0.5l-0.5-78l-7,0.9l0.2,75.3C682.1,250.8,682.5,253.2,685.1,253z"/>
      <path class="st0 file-8-element-27" d="M699.5,252.8l7.7,0.2l2.7-2.7c0,0,0.1-104.2,0-104.2c-0.1,0-1.4-2-6.8-2c-5.4,0-13.3,2.3-13.3,2.3l0.2,23
				l-0.5,81.6C689.6,251,688.2,253.3,699.5,252.8z"/>
      <path class="st0 file-8-element-28" d="M711,252.8l12.6-0.2l18.9-16.7l-0.2-86.2l-16.7-3.2c0,0-10.4-2.3-15.8-0.5L711,252.8z"/>
      <polygon class="st0 file-8-element-29" points="-6.3,453.9 462.4,413.8 838.4,390.9 808.2,612.8 788.4,623.7 -7.9,623.7 			"/>
      <polygon class="st0 file-8-element-30" points="579.6,525.8 566,515.3 448.3,533.6 452,544 			"/>
      <polygon class="st0 file-8-element-31" points="493.8,257.1 493.4,267.7 806.2,268.6 808.7,257.3 			"/>
      <polygon class="st0 file-8-element-32" points="541.6,227.6 494.5,254.8 493.8,257.1 817.2,257.8 814.1,228.7 			"/>
    </g>
    <g id="outline">
      <path class="st1 file-8-element-33" d="M228.7,189c0,0,4.7-24.7,18.9-33.6c14.2-8.9,16.8-38.4,23.1-53.6s14.2-19.4,28.4-20
				c14.2-0.5,7.9,21,5.8,36.8s-4.7,26.3,1.1,33.6c5.8,7.4,8.4,5.8,8.4,25.7s11,52,25.7,56.7s22.1-2.6,28.9-8.4s7.2-5.2,9.9-5.2
				s25.4-17.9,31.7-27.3c6.3-9.5,16.3-12.6,20-25.7c3.7-13.1,3.7-16.3,3.7-16.3s13.7,4.7,17.9-10.5c4.2-15.2-5.3-26.3-10-30.5
				c-4.7-4.2-45.2-20.5-70.4-26.3c-25.2-5.8-58.8-11-58.8-11"/>
      <path class="st1 file-8-element-34" d="M338.6,122.8c0,0-6.3-17.9-18.4-12.6c-12.1,5.3-14.7,24.2-14.7,24.2"/>
      <path class="st1 file-8-element-35" d="M315.4,134.3c0,0,2.1-6.3,5.8-7.4s3.2-4.7,3.2-4.7"/>
      <path class="st1 file-8-element-36" d="M311.8,150.1c0,0-7.9-6.3-2.1-11"/>
      <path class="st1 file-8-element-37" d="M366.9,146.4c0,0,23.1,2.1,29.4,18.4"/>
      <path class="st1 file-8-element-38" d="M408.4,175.3c0,0,10.5-2.1,15.2,3.2"/>
      <path class="st1 file-8-element-39" d="M361.1,155.9c0,0,6.8,16.8,20.5,16.8"/>
      <path class="st1 file-8-element-40" d="M407.4,182.7c0,0,1.1,3.7,6.3,6.3"/>
      <path class="st1 file-8-element-41" d="M365.9,166.4c0,0-1.1,4.7,3.2,6.3c0,0,3.3,1,5.6-0.9"/>
      <path class="st1 file-8-element-42" d="M408.7,186.4c0,0-1.1,4.7,1.9,7.3"/>
      <path class="st1 file-8-element-43" d="M376.8,200.5c0,0,5.1,1.9,6.5,5.5c1.5,3.6,8.9,3.2,11-0.2c2.1-3.4,2.5-10.1,4-12.5"/>
      <path class="st1 file-8-element-44" d="M359,208.6c0,0,13.1,4.6,17.7,11.4"/>
      <path class="st1 file-8-element-45" d="M362.2,219.1c0,0,3.6,0,4.2,2.3"/>
      <path class="st1 file-8-element-46" d="M308.8,154.9c0,0,7.2-3,14.1-13.9c7-11,9.5-19.6,26.6-21.5s71.1,4.9,84.7,32.2"/>
      <path class="st1 file-8-element-47" d="M301.4,80.8c0,0,20.3-27.9,58.9-33.4s84.5,17.7,83.2,64.6"/>
      <path class="st1 file-8-element-48" d="M237,191.5c0,0,27.5,14.6,44.3,43.9s30.8,49.4,35.9,52.4"/>
      <path class="st1 file-8-element-49" d="M319.3,284c0,0,18,7.6,35.5-2.7c17.5-10.3,14.8-27.5,27.9-46.5s20.5-21.8,20.5-21.8"/>
      <path class="st1 file-8-element-50" d="M397.9,206.7c0,0,8.4,7,14.8,12.9c6.3,5.9,22.8,14.4,25.6,25.8"/>
      <path class="st1 file-8-element-51" d="M225.1,188.7c0,0-42.9,3.2-59.6,11.8s-19.6,19.9-24.9,34.2c-5.3,14.4-16.7,37.6-42.4,71.6
				s-42.4,59.6-44.1,78.6c-1.7,19-9.3,34-6.5,55.1s13.5,46.9,27.9,58.3c14.4,11.4,21.8,9.3,33.2,15.4c11.4,6.1,25.3,17.7,45,16.5
				c19.6-1.3,43.9-17.1,59.6-34.2c15.6-17.1,22.2-36.1,30.2-47.3c8-11.2,18.8-26.2,35.5-28.9c16.7-2.7,22.8-2.3,29.8,1.9
				c7,4.2,16,13.1,19.4,15.6c3.4,2.5,10.1,11.6,15,15.8c4.9,4.2,9.1,8.2,8.9,11c-0.2,2.7-1.5,4.9-2.7,6.1c-1.3,1.3-5.1-0.2-11.6-5.3
				c-6.5-5.1-16.3-13.5-17.1-15.8c-0.8-2.3-14.4-10.8-15-11.4"/>
      <path class="st1 file-8-element-52" d="M298.2,450.2c0,0,11.8,8,16,13.1s8.4,8,12.2,7.8c3.8-0.2,5.9-4,5.9-5.7"/>
      <path class="st1 file-8-element-53" d="M294.2,466.2c0,0,11,7.2,15.2,8.7c4.2,1.5,9.3,0.6,11.6-1.5"/>
      <path class="st1 file-8-element-54" d="M306,477.2c0,0-3.4,4.9-9.3,4.9c-5.9,0-9.7-7.2-12.9-8c-3.2-0.8-8.9,4.6-16.7,4.2
				c-7.8-0.4-12.9-4.9-19.2-9.7s-10.3-5.7-10.3-5.7"/>
      <path class="st1 file-8-element-55" d="M362.8,483.5l-11-16c0,0-0.6,1.5-2.7,2.7c0,0,5.3,8.9,5.9,9.5S362.8,483.5,362.8,483.5z"/>
      <path class="st1 file-8-element-56" d="M327.6,435.2c0,0-19-19.2-28.5-33.4c-9.5-14.1-27.5-45-48.4-58.3c-20.9-13.3-28.9-15-28.9-15s2.3,3,8,8
				s4.4,4.9-2.3,4.2s-5.1,3.2,1.5,6.5c6.5,3.4,10.6,3.8,3,4.9c-7.6,1.1-6.3,1.1,4,7c10.3,5.9,16.7,7.6,7.8,7.2s-1.3,1.9,8,6.8
				c9.3,4.9,11.6,7.4,4,7.6c-7.6,0.2,0.4,3.6,7.2,6.3c6.8,2.7,7,8,3,8.4s2.1,2.5,6.5,4.2c4.4,1.7,4.9,4,9.9,7.6s12,9.9,12,9.9"/>
      <path class="st1 file-8-element-57" d="M251.1,428.4c-1.7-0.2-40.5-2.1-54.1-21.1c0,0-3.6-3.8-7.4-1.3c-3.8,2.5-20.7,20.3-33.4,22.8"/>
      <path class="st1 file-8-element-58" d="M192,404.5c0,0,0.2-11.6-8.2-12.7s-17.3,8.7-28.1,11"/>
      <path class="st1 file-8-element-59" d="M183.7,391.9c0,0-0.2-12-4.4-15.4c-4.2-3.4-13.9,5.5-33.8,2.3"/>
      <path class="st1 file-8-element-60" d="M141.3,383.2c0,0,20.3,2.7,30.2-2.7"/>
      <path class="st1 file-8-element-61" d="M177.2,375c0,0,0.1-16.3,18.7-27"/>
      <path class="st1 file-8-element-62" d="M157.3,216c0,0,10.3-0.2,19,12s26.6,32.7,29.6,75.6c3,42.9,0,103.7,0,103.7"/>
      <path class="st1 file-8-element-63" d="M330.3,426.7c0,0,73.7-7.7,107.7-11.4"/>
      <path class="st1 file-8-element-64" d="M454.1,451.8c-2.3-2.7-35.6-20.7-40.9-25.4l-81.1,10.8"/>
      <path class="st1 file-8-element-65" d="M435.9,241.3c0,0-12.5-3.2-20.3,15.6s-9.5,131.6-11.2,158"/>
      <path class="st1 file-8-element-66" d="M507.3,402.6C507.3,402.6,503.9,403.9,507.3,402.6c3.4-1.3,2.3-2.7,2.3-2.7s-9.7-16.3-13.5-27.7
				c-3.8-11.4-14.4-32.9-18.2-41.8c-3.8-8.9-35.3-79.8-36.7-81.5"/>
      <path class="st1 file-8-element-67" d="M499.7,427.8c0.1,1.5,3.6,28.9-3.6,37.4c-4.9,5.8-8.2-0.5-8.2-0.5"/>
      <path class="st1 file-8-element-68" d="M488.9,435.1c0,0,4.1,25.3-3,34.2c-2,2.6-6.8,0.6-7.5-2.8s-1-27.1-2.3-31.3s-1.4-6.4-1.4-6.4"/>
      <path class="st1 file-8-element-69" d="M476.1,435.2c0,0,1.1,29-3.8,32.7c-2.5,1.8-5.8,2.4-6.8-5.4c-1-7.8-1-18.9-2-24.3c-1-5.4-4.1-24.5-5.5-25.5"/>
      <path class="st1 file-8-element-70" d="M459.5,421c0,0-4.6,0.8-5.7,4.8c-1.1,4-5.2,12.8-7.1,12.6c-1.9-0.2-4.6,0.1-3.7-7.3
				c0.9-7.4,4.6-20.1,7.3-23.2c2.7-3.1,4-12.7,4-12.7s1.7-7.4,17.4-6.5c4.9,0.3,9.9,0.1,14.8-0.1c3.1-0.2,6.7,0.2,9.8,2.3
				c6.6,4.4,11.3,12.4,13.2,20.3s0.3,27-0.6,34.6s-2.8,15.9-6.7,16"/>
      <path class="st1 file-8-element-71" d="M464.2,482c0,0-4.4,0.6-7,1.7c-2.5,1.1-6.5,0.4-7.2,0.4"/>
      <path class="st1 file-8-element-72" d="M435.7,485.2c-1.9,1.1-1.7,1.9-4.9,2.1c-3.2,0.2-1.5-0.6-3.2,0.2"/>
      <path class="st1 file-8-element-73" d="M419.8,488.2c-0.6,0-4.6,1.9-5.7,1.7c-1.1-0.2,1.1-0.2-1.1-0.2"/>
      <path class="st1 file-8-element-74" d="M404.9,489.2c0,0-1.7-0.8-4.4,0.2s-3.4,0.2-5.1,0.4s-3.2,0.6-3.2,0.6"/>
      <path class="st1 file-8-element-75" d="M384.2,491.3c-1.1,0-2.7,0.2-6.5,0.6s-4,1.3-5.9,1.7c-1.9,0.4-4.9,1.1-7.4,0.4c-2.5-0.6-4-0.2-5.9,0.4"/>
      <path class="st1 file-8-element-76" d="M477.7,493.9c-0.8,0.2-4.6,1.3-7,2.1c-2.3,0.8-2.7,1.7-3.4,1.7"/>
      <path class="st1 file-8-element-77" d="M454.1,496c-0.6,0.4-3.6,1.3-5.7,2.3c-2.1,1.1-1.3,0.4-5.3,0.8c-4,0.4-4.6,0.2-7.6,1.3"/>
      <path class="st1 file-8-element-78" d="M429.8,500.4c0,0,0,0.6-2.1,1.1c-2.1,0.4-3,0.4-4.4,0.8c-1.5,0.4-3.8,0-3.8,0"/>
      <path class="st1 file-8-element-79" d="M413.3,500.8c-2.1,1.3-4.2,1.7-4.2,1.7s-4.2,0-5.1,0.4c-0.8,0.4-2.3,1.1-3.8,1.3s-4,0.4-5.1,0.6
				s-5.5,0.2-5.5,0.2l-3.8,0.2"/>
      <path class="st1 file-8-element-80" d="M490.2,478.2c0,0,21.1,12.5,27.9,18.6c6.8,6.1,6.8,6.1,6.8,6.1s-22.2,5.1-46.7,10.1
				c-24.5,5.1-43.3,5.5-66.3,9.5c-23,4-60.2,10.1-60.2,10.1"/>
      <path class="st1 file-8-element-81" d="M344.2,532.7c0,0-19-23.4-25.8-31.5c-6.8-8-8-9.1-8-9.1"/>
      <path class="st1 file-8-element-82" d="M311.1,494.3c0,0-5.5-1.3-13.3-1.3s-11.4-1.7-35.5,2.3s-32.1,8.4-38,10.1c-5.9,1.7-16.3,6.8-20.9,7.4
				c-4.6,0.6-13.7,2.5-13.7,2.5"/>
      <path class="st1 file-8-element-83" d="M411.8,522.6c0,0,4.6,10.6,7,13.3c2.3,2.7,2.1,1.5,11,0.8s50.9-8.9,71-11.2s59.3-9.3,62.7-9.9"/>
      <path class="st1 file-8-element-84" d="M508.1,473.2c0.8,0.4,13.9,8.2,20.9,12.5s21.3,17.1,24.7,19.9c3.4,2.7,9.5,7.6,15.8,11.8
				c6.3,4.2,10.8,7.6,11.4,8.4s-8,0.4-17.1,1.9s-46,8.2-57.7,9.5c-11.6,1.3-30.2,4.6-40.1,5.7c-9.9,1.1-13.7,1.9-15-0.4
				s-3-5.7-3-5.7"/>
      <path class="st1 file-8-element-85" d="M243.3,547.3c0,0-12.2-1.7-21.1,3.8c-8.9,5.5-8.7,15.2-8.4,24.5c0.2,9.3,57.4,14.8,91.4,4.2
				c0,0,3-19.2-2.1-26.8s-22-8.2-25.1-7.2s-7,6.1-17.5,6.1C249.8,552,243.3,547.3,243.3,547.3z"/>
      <path class="st1 file-8-element-86" d="M258.9,538.4c1.2,0,2.5,0.1,3.7,0.1c3.9,0.2,12.9,0.2,15.7-3.3c3.6-4.4-6.7-11.4-16.9-11.8
				c-10.1-0.4-18.8,3-20.5,6.5C238.8,534.6,244.1,538.3,258.9,538.4z"/>
      <path class="st1 file-8-element-87" d="M251.7,531.5c0,0,6.8,1.5,15.4,0.8s-3.2-4.9-10.6-4.2S248.4,530.8,251.7,531.5z"/>
      <path class="st1 file-8-element-88" d="M219.6,573.7c0,0,33.6,11.2,81.3,0.4"/>
      <path class="st1 file-8-element-89" d="M826,268.4H493l0.8-12.9c13.4-7.2,47.2-27.7,47.2-27.7h6.6"/>
      <path class="st1 file-8-element-90" d="M549.2,250.9V146.6c0,0,11.6-4.1,20.3-0.4v104.8c0,1.1-0.9,2-2,2h-16.3C550.1,252.9,549.2,252,549.2,250.9z"/>
      <path class="st1 file-8-element-91" d="M596,250V143.6c0,0,13.5-4.3,23.6-0.4V250c0,1.6-1.3,2.9-2.9,2.9h-17.8C597.3,252.9,596,251.6,596,250z"/>
      <path class="st1 file-8-element-92" d="M570.1,250.7V146.6c0,0,7.2-3.3,13.7-0.4v104.6c0,1.2-1,2.1-2.1,2.1h-9.4
				C571.1,252.9,570.1,251.9,570.1,250.7z"/>
      <path class="st1 file-8-element-93" d="M619.8,251.5v-105c0,0,4.7-1.7,9.3-0.4v105.4c0,0.7-0.6,1.3-1.3,1.3h-6.6
				C620.4,252.9,619.8,252.3,619.8,251.5z"/>
      <path class="st1 file-8-element-94" d="M629.7,251.5V175c0,0,3.5-1.2,6.8-0.3v76.8c0,0.8-0.6,1.4-1.4,1.4h-4C630.3,252.9,629.7,252.3,629.7,251.5z"/>
      <path class="st1 file-8-element-95" d="M583.8,251.1v-91.2c0,0,6.4-2.1,11.9-0.4v91.6c0,1-0.8,1.8-1.8,1.8h-8.3
				C584.6,252.9,583.8,252.1,583.8,251.1z"/>
      <path class="st1 file-8-element-96" d="M689.5,249.8V146.6c0,0,11.6-4.1,20.3-0.4v103.6c0,1.7-1.4,3.1-3.1,3.1h-14.1
				C690.8,252.9,689.5,251.5,689.5,249.8z"/>
      <path class="st1 file-8-element-97" d="M648.9,249.4V143.6c0,0,13.5-4.3,23.6-0.4v106.2c0,1.9-1.5,3.4-3.4,3.4h-16.7
				C650.5,252.9,648.9,251.3,648.9,249.4z"/>
      <path class="st1 file-8-element-98" d="M710.4,251.2V146.6c0,0,7.2-3.3,13.7-0.4v105c0,0.9-0.8,1.7-1.7,1.7h-10.2
				C711.2,252.9,710.4,252.1,710.4,251.2z"/>
      <path class="st1 file-8-element-99" d="M672.7,250.9V146.6c0,0,4.7-1.7,9.3-0.4v104.7c0,1.1-0.9,2-2,2h-5.3C673.6,252.9,672.7,252,672.7,250.9z"/>
      <path class="st1 file-8-element-100" d="M682.7,251.1V175c0,0,3.5-1.2,6.8-0.3v76.4c0,1-0.8,1.8-1.8,1.8h-3.2C683.5,252.9,682.7,252.1,682.7,251.1z"/>
      <path class="st1 file-8-element-101" d="M636.8,250.6v-90.7c0,0,6.4-2.1,11.9-0.4v91.1c0,1.3-1,2.3-2.3,2.3h-7.4
				C637.8,252.9,636.8,251.9,636.8,250.6z"/>
      <path class="st1 file-8-element-102" d="M434,393.9c0,0,17-20,36.9-20c20,0,28.9,10,28.9,10"/>
      <path class="st1 file-8-element-103" d="M252.4,177.4c0,0,21.9-15,22.9-37.9"/>
      <path class="st1 file-8-element-104" d="M305.3,245.2c0,0,12,23.9,26.9,23.9c15,0,23.9-8,34.9-21"/>
      <path class="st1 file-8-element-105" d="M276.4,116.6c0,0,9-29.9,16-18"/>
      <path class="st1 file-8-element-106" d="M114.8,485.7c0,0,20.6,34.6,52.9,15"/>
      <path class="st1 file-8-element-107" d="M460.9,366c0,0,23.4-7.4,35.1,6.3"/>
      <line class="st1 file-8-element-108" x1="243.3" y1="547.3" x2="241.8" y2="536.7"/>
      <line class="st1 file-8-element-109" x1="277.9" y1="545.8" x2="277.1" y2="538.2"/>
      <line class="st1 file-8-element-110" x1="511.6" y1="410.8" x2="807.8" y2="393.2"/>
      <line class="st1 file-8-element-111" x1="49.6" y1="449.1" x2="-13.6" y2="454.4"/>
      <line class="st1 file-8-element-112" x1="829.3" y1="257.1" x2="495.4" y2="257.1"/>
      <line class="st1 file-8-element-113" x1="746.5" y1="228.7" x2="826.8" y2="228.7"/>
      <line class="st1 file-8-element-114" x1="682" y1="146.2" x2="689" y2="149.2"/>
      <line class="st1 file-8-element-115" x1="583.8" y1="146.2" x2="595.6" y2="149.4"/>
      <polyline class="st1 file-8-element-116" points="723.9,252.2 742.4,236.4 742.4,149.7 724,146.2 			"/>
      <polyline class="st1 file-8-element-117" points="629.1,146.2 644,147.6 644,158.3 			"/>
    </g>
  </g>
</svg>