<?xml version="1.0" encoding="UTF-8" standalone="yes"?>
<svg version="1.1" xmlns:x="special-ns_extend;" xmlns:i="special-ns_ai;" xmlns:graph="special-ns_graphs;" xmlns="http://www.w3.org/2000/svg" xmlns:xlink="http://www.w3.org/1999/xlink" x="0px" y="0px" viewBox="0 0 792 612" style="enable-background:new 0 0 792 612;" xml:space="preserve">
  <style type="text/css">
	.st0{fill:#FFFFFF;}
	.st1{fill:none;stroke:#231F20;stroke-width:2.5;stroke-linecap:round;stroke-linejoin:round;stroke-miterlimit:10;}
	.st2{fill:none;stroke:#231F20;stroke-width:2;stroke-linecap:round;stroke-linejoin:round;stroke-miterlimit:10;}
</style>
    <g i:extraneous="self">
      <g id="coloringShapes">
        <rect id="element-1" x="-15.6" y="-15.8" class="st0" width="814.7" height="641.1"/>
        <path id="element-2" class="st0" d="M315.5,173.3c0,0,6.1,6.2,3.7,12.2c-2.4,5.9-1.8,58.4-1.8,58.4s-1.1,6-0.8,6.3c0.3,0.3-0.5,3.2-2,3.4
				c-1.6,0.2-12.3,0.8-12.3,0.8s-7.9,2.6-11,0.5c-3.1-2.1-4.2-2.7-4.3-7.7c-0.1-5-1-7.4-0.4-11.7c0.6-4.3-2.1-2.8-2.1-2.8
				s3.1-3,0.4-4.9c0,0-2.4-3.3-1.6-4.2c0.7-0.9,5.6-6.4,1.2-10.2c-4.4-3.9-3.9,2.4-8.5-3.4c0,0,0.9-6.4,8.6-14.1
				C292.4,188.1,315.5,173.3,315.5,173.3z"/>
        <path id="element-3" class="st0" d="M170.3,111.9c0,0-3,2-2.2,4.7c0.8,2.7,2.6,3.4,4.8,2.6c2.2-0.8,3.6-4.5,3.7-5.3c0.1-0.9,2.3-1.9,2.3-1.9
				s6.3,3,7.6-3.3l4.2-3.6c0,0,6.9,4.8,8.5-3.4h3.1c0,0,3.2,6.6,6.5-1l3.7-1.7c0,0,5.2,6.9,8.1-1.4c0,0-0.6-3.8-3.8-2.9
				c-3.3,1-4.5,3.4-4.5,3.4l-3.6,1c0,0-0.6-3-3.4-2c-2.9,1-3.2,3.2-3.2,3.2L199,101c0,0-0.7-2.7-4.6-1.8c-3.9,1-4.5,2.8-4.1,4.9
				l-4,2.3c0,0-1.3-2.6-4.8-1c-3.5,1.7-3.1,4.7-3.1,4.7l-3,2.2C175.5,112.4,173.7,110.9,170.3,111.9z"/>
        <path id="element-4" class="st0" d="M179.2,169c0,0,0.2,0.1,0.6,0.3c2.2,1.2,10.4,5.5,19.9,6.1c11.1,0.7,20.2-0.6,22.3-3.1
				c2.1-2.5,4.9-8.4,4.9-8.4s-5-3.4-7-4.4c-2-1-1.2,2.9-4.6,4.2c-3.4,1.3-5.8,3-9.5,2.2c-3.7-0.8-9,0-12.6-1.8s-4-4.4-8-3.2
				C181.3,162.2,179.2,169,179.2,169z"/>
        <path id="element-5" class="st0" d="M255.4,234.9c-3-4.7-0.7-5-0.7-5s3.3-3.2,3.3-3.7c0-0.5-0.7-6.7-0.7-6.7s-5.3-0.7-8-3
				c-2.7-2.3-2.3-5.3-4.3-10c-2-4.7-1-8.6-0.7-13.3c0.3-4.7-0.3-5-2-8.6c-1.7-3.7-4.3-6-5.7-10.3c-1.3-4.3-3.7-7-9.3-11
				c-1.2-0.8-2.4-1.5-3.5-2c0.2,0.4,0.3,0.7,0.4,1.1c0.1,0.5,0.1,1,0.1,1.6c-0.1,0.6-0.2,1.2-0.5,1.7c-0.4,0.8-1.2,1.3-2.1,1.3
				c-0.7,0-1.3-0.2-1.8-0.6c-0.3-0.2-0.5-0.4-0.7-0.8c-0.2-0.2-0.3-0.5-0.4-0.8c-0.2-0.4-0.2-0.9-0.3-1.3c0-0.3,0-0.6,0-0.9
				c0-0.4,0.1-0.9,0.2-1.3c0.1-0.2,0.1-0.4,0.2-0.5c0.1-0.1,0.1-0.3,0.2-0.4c0.2-0.3,0.4-0.5,0.7-0.6c-2.1-0.6-3.5-0.7-3.5-0.7
				l-7,4.8l-6.8-2.2l-8.2,0.5l-4.1-2.9L183,159l0,0c-0.1,0.4-0.3,0.7-0.4,1c-0.4,0.9-1,1.8-1.6,2.6c-0.1,0.3-0.3,0.6-0.6,0.8
				c-0.7,0.5-1.6,0.5-2.3,0c0,0,0,0,0,0c-0.1,0-0.1-0.1-0.2-0.1c-0.2-0.2-0.5-0.3-0.7-0.5c-0.6-0.6-0.6-1.3-0.5-2
				c0-0.1,0-0.1,0.1-0.2c-0.2-1.2,0-2.5,0.5-3.8c0.4-1,0.9-1.9,1.4-2.9c0.2-0.4,0.4-0.8,0.6-1.2c0.1-0.2,0.2-0.4,0.3-0.6
				c0.1-0.1,0.1-0.2,0.2-0.3c0,0,0,0,0,0c0,0,0,0,0,0c0,0,0-0.1,0-0.1l-2.1-2.4l-2.7,2c-1.7,1.7-3.7,10.3-6.7,13
				c-3,2.7-9.3,2.3-13.6,1.7c-4.3-0.7-12.6,2.3-12.6,9.6c0,7.3-2,8-5.7,13s-3.3,10-3.7,12s3.7,10,0,15.3s-3.7,5.3-3,11.3
				s1.3,7.3-2,14.3c-3.3,7-1.7,12.6-0.7,20.6c1,8,0,14.6,0,20.6c0,6,2.7,9.6,5,14c2.3,4.3,2,11,2,11l2.7,7.6c0,0,0,6-0.3,7.6
				c-0.3,1.7,0.7,17.6,0.7,17.6l111.9-88.8l13.5-9C262.4,242.6,258.4,239.6,255.4,234.9z M188,168.6c-0.2,0.2-0.4,0.4-0.7,0.5
				c-0.2,0.1-0.3,0.2-0.5,0.3c-0.2,0.1-0.3,0.2-0.5,0.2c-0.6,0.1-1,0.1-1.6,0c-0.1,0-0.2,0-0.3-0.1c-0.2-0.1-0.5-0.2-0.7-0.3
				c0,0-0.1,0-0.1-0.1c-0.2-0.1-0.5-0.2-0.7-0.4c-0.2-0.2-0.3-0.4-0.4-0.7c0,0,0-0.1-0.1-0.1c-0.1-0.2-0.2-0.5-0.3-0.7
				c-0.1-0.2-0.1-0.5-0.1-0.8c0-0.1,0-0.2,0-0.3c0-0.3,0-0.5,0.1-0.8c0.1-0.2,0.2-0.4,0.2-0.6c0,0,0-0.1,0.1-0.1
				c0-0.1,0.1-0.1,0.1-0.1c0.1-0.2,0.2-0.3,0.4-0.5c0.2-0.2,0.4-0.4,0.6-0.5c0.1-0.1,0.2-0.2,0.4-0.2c0.2-0.1,0.5-0.2,0.7-0.3
				c0.1,0,0.2,0,0.2-0.1c0.2,0,0.5-0.1,0.7-0.1c0.7,0,1.5,0.3,2,0.8c0.1,0.2,0.3,0.3,0.4,0.5c0,0.1,0.1,0.1,0.1,0.2
				c0.1,0.2,0.2,0.4,0.2,0.6c0.1,0.2,0.1,0.5,0.1,0.7c0,0.1,0,0.1,0,0.2c0,0.2,0,0.4-0.1,0.6c0,0,0,0,0,0.1c0.1,0.2,0.2,0.5,0.2,0.7
				C188.5,167.8,188.3,168.3,188,168.6z M199.1,170.9c-0.1,0.2-0.3,0.4-0.4,0.5c0,0-0.1,0.1-0.1,0.1c-0.2,0.2-0.5,0.4-0.7,0.5
				c-0.4,0.2-0.9,0.4-1.4,0.6c-0.3,0.1-0.7,0.2-1,0.2c-0.4,0.1-0.9,0.1-1.4,0.1c-0.1,0-0.1,0-0.2,0c-0.3,0-0.5,0-0.8,0
				c-0.4-0.1-0.9-0.5-1.1-0.9c-0.2-0.4-0.3-0.8-0.2-1.2c0,0,0-0.1,0-0.1c0-0.1,0-0.2-0.1-0.3c0-0.1-0.1-0.1-0.1-0.2
				c-0.1-0.2-0.1-0.5-0.1-0.7c0-0.2,0-0.4,0.1-0.6c0,0,0-0.1,0-0.1c0.1-0.2,0.2-0.5,0.3-0.7c0.3-0.5,0.7-0.9,1.2-1.2
				c0.3-0.2,0.7-0.4,1.1-0.5c0.3-0.1,0.6-0.1,0.8-0.1c0.1,0,0.3,0,0.4,0c0.8,0,1.6,0.2,2.2,0.6c0.5,0.4,1.1,0.8,1.4,1.4
				c0.2,0.4,0.3,0.8,0.3,1.3C199.4,170.1,199.3,170.5,199.1,170.9z M208.2,172.2c-0.1,0.2-0.2,0.4-0.2,0.6c0,0.1-0.1,0.1-0.1,0.2
				c-0.1,0.2-0.3,0.4-0.5,0.6c-0.4,0.4-0.9,0.6-1.5,0.8c-0.4,0.1-0.9,0.2-1.3,0.2c-0.7,0-1.4-0.1-2.1-0.2c-0.5-0.1-0.9-0.5-1.1-0.9
				c-0.3-0.4-0.3-1-0.2-1.4c0.1-0.3,0.2-0.5,0.4-0.8c0-0.3,0.1-0.6,0.2-0.9c0.3-0.5,0.6-0.9,1-1.3c0.5-0.5,1.1-0.9,1.7-1.1
				c0.5-0.1,0.9-0.1,1.4,0c0.2,0,0.3,0.1,0.4,0.1c0.3,0.1,0.4,0.2,0.6,0.3c0.3,0.2,0.6,0.5,0.8,0.9c0.2,0.3,0.3,0.7,0.4,1
				C208.3,171,208.3,171.6,208.2,172.2z M218.5,170.3c0,0.2-0.1,0.3-0.1,0.4c-0.1,0.1-0.1,0.3-0.2,0.4c-0.2,0.2-0.3,0.5-0.6,0.7
				c-0.2,0.2-0.5,0.4-0.8,0.5c-0.3,0.1-0.6,0.3-0.9,0.4c-0.3,0.1-0.7,0.2-1.1,0.3c-0.5,0.1-0.9,0.1-1.4,0.1c-0.5,0-1-0.2-1.3-0.5
				c-0.4-0.3-0.5-0.8-0.5-1.3c0-0.2,0-0.4,0.1-0.6c0-0.1-0.1-0.2-0.1-0.3c-0.1-0.4-0.1-0.9,0-1.4c0-0.2,0.2-0.4,0.3-0.6
				c0.1-0.2,0.3-0.4,0.4-0.5c0.2-0.2,0.5-0.4,0.7-0.6c0.3-0.2,0.6-0.3,0.9-0.4c0.2-0.1,0.3-0.1,0.5-0.1c0.3-0.1,0.7-0.1,1-0.1
				c0.2,0,0.5,0,0.7,0.1c0.1,0,0.2,0,0.2,0c0.3,0.1,0.6,0.2,0.9,0.4c0.4,0.3,0.7,0.5,1,1c0.2,0.3,0.3,0.6,0.4,0.9
				c0.1,0.2,0.1,0.5,0.1,0.7C218.6,169.8,218.6,170,218.5,170.3z"/>
        <path id="element-6" class="st0" d="M232.9,421.8c0,0-11.7-18.5-7.7-34.3c4-15.8-5.6-57.1-5.6-57.1s2.7-28.5,3.4-35.5c0.7-7,4.4-4,4.4-4
				s17.1-40.5,23.8-45.1c6.7-4.7,11.3-3.3,11.3-3.3s0.3,2.7,2,5.7c1.7,3,0.3,4.3,4,8c3.7,3.7,3.7,7.6,4.3,12.3
				c0.7,4.7,3.5,7.3,4.3,8.6c0.8,1.3,4,2.7,3.3,7c-0.7,4.3,0.7,9,0.7,9l11.3,5.7c0,0,6-10.1,7-10.6l-0.7-8.3l-1-9.3l4.3,6v4.7
				l2.7,5.7v3.7l16.6-4l3.7-1l-0.3-3.7l5,3.7c0,0,3.3-8.3,9-12.3l-2.7-10.6c0,0-2-4-2-11.6c0-7.6-1.3-9.6-1.3-9.6s9.3,2.3,15,8.3
				c5.7,6,10.6,7.6,11.3,21.6c0.7,14,1.1,29.4,1.1,29.4l-37.9,3.1c0,0-13.1-0.3-22.4,1.7c-9.3,2-17.6,4.3-20,9.3s-4.9,4-5.3,8.3
				s-3.2,5.9,1.3,8.6s4.6,2.7,4.6,2.7l2.3,15.2l-3.7-0.2c-1.5,3.6-2.3,6,1.5,7.6c3.8,1.5,3,0.3,4,3.3c1,3,1.7,7.3,1.7,7.3
				l-35.6,32.6L232.9,421.8z"/>
        <path id="element-7" class="st0" d="M306.6,398.1c0,0,6.5,7,4.8,8.2c-1.7,1.2-3.4-1.7-3.4-1.7s-1-0.2,0.5,2.8c1.5,3.1-0.3,4.6-0.3,4.6l-10.7-9.6
				c0,0,5.3,6.8,4.8,9.7c-0.5,2.9-3.2,1.2-6.8-1.7c-3.6-2.9-3.1-2.4-2.9-0.7c0.2,1.7,0.5,3.4-3.2,1.9c-3.6-1.4-4.9-5.6-7.3-10.4
				c-2.4-4.8-5.8-8-5.8-8l-50.9-53l-14.5,35.1c0,0,2.4,1.5,7.8,1.9c5.3,0.5,7.8,5.1,7,6.5c-0.7,1.4-5.1-0.7-5.5-0.9
				c0.3,0.2,1.8,1.4,3.1,5.8c1.5,4.8-1.2,4.4-4.1,6.8c-2.9,2.4-2.9,3.4-5.3,5.1c-2.4,1.7-3.5,4.4-3.1,4.4c0.3,0-3.2,1-7.3-1.5
				c-4.1-2.4-6.3-7.8-9.4-13.3c-3.2-5.6-9.5-5.3-9.5-5.3l-1.7,1l6.8-13.3c0,0,1.7,2.4,5.3,3.9c3.6,1.5,12.6-0.5,12.6-0.5l15.3-38.2
				l-5.9-6.1l-4.3-30.4c-3.1-0.2-6.9-1.1-10.5-3.2l-11.6-9.2c0,0,8,0.2,8-3.6c0-3.9,1.9-8.7,1.9-8.7l2.2-2.2c0,0-1-4.8,1.4-6.1
				c2.4-1.2,5.8,2.9,5.8,2.9s4.4,7,3.9,0.5l0.5-4.6l-1.5-4.1l2.2-6.3c0,0,1.7,0.2,4.8,2.2c3.2,1.9,3.9,3.1,5.8,1
				c1.9-2.2,1-4.4,0-8.5c-1-4.1-1.7-7.8-0.2-11.1c1.5-3.4,1.5-2.9,3.6-4.6c2.2-1.7,0-5.8,1.7-6.1c1.7-0.2,3.6,1.9,4.8,1.5
				c1.2-0.5,2.7-1.9,2.7-1.9l1.9,3.2c0,0,4.6,8,4.4,16.2c0,0,2.7,2.7,4.1,3.4c1.5,0.7,5.1,1.7,3.2,4.6c-1.9,2.9-1.9,2.9-1.9,2.9
				l2.9,5.6c0,0,0.2,2.2-3.1,4.8c-3.4,2.7-1.5,3.9,0,4.4c1.5,0.5,2.9-0.5,1.9,2.7c-1,3.1,1.2,7-1.7,10.9c-2.9,3.9-6.3,4.6-10.7,4.6
				c-4.4,0-12.1-1-12.1-1l-3.4-1.2c0,0-2.2,3.4-1.2,9c0,0-1,1.7-2.7,1.9c-0.7,0.1-2.5,0.4-4.9,0.4l4.5,29.4l4.5,4.5l54.6,54.4l6.5-7
				c0,0,4.1,2.4,6.5,2.9c2.4,0.5,12.1,6.5,17.2,8.7c5.1,2.2,5.6,5.6,5.6,5.6L306.6,398.1z"/>
        <path id="element-8" class="st0" d="M240.8,445.1l-7.8-22.4l-4.9-15.1l-4.2-9.4c0,0,2.7-11.9,2.5-31.4l1.7,2.5c0,0,21.5-14.6,23.7-21.3
				l-7.9-23.5c0,0-3.2-7.7-7.4-10.6c-4.2-3-10.6-9.6-10.6-9.6s-3,3.2-9.6,3s-19.5-2.5-30.2-16.8c0,0-10.8-1.5-23.1,9.4
				c-12.3,10.9-13,17.1-14.7,20.8s-13.3,22-13.3,22s-43.8,66.5-49.5,106.5c-5.7,40-2.5,44.2,3.2,47.2c5.7,3,19.3,3.5,21.8,7.2
				s10.9,5.9,10.9,5.9s7.9,4.7,10.9,6.9s10.5,2,14.2,2.4c3.6,0.3,9.3,4.4,21.9,6.1s26,2.2,35.1,1.7c9.1-0.5,12.6-1.2,17.6-6.2
				l-3.2-52.7l-2-32.1l20.6,23.5l4.9-7.6L240.8,445.1z M221.4,384.3c0.6,0.7,1.3,1.3,1.8,2.1c0.8,1.2,0.1,1.6,0,3
				c-0.3,4.2-5.3,7.4-7.9,10.1c-4.5,4.7-5.4,5.8-9.4,4c-1.2-0.6-2.2-1.5-3.1-2.5c-1.1-0.8-2.1-2-3.2-3.5c-1.9-2.5-3.5-5-5.3-7.5
				c-2-2.8-5.3-2.8-7.4-5.3c-3.1-3.5,0.1-7.5,2.5-10.4c0.8-0.9,2.5-1.1,3.5-0.4c5.4,3.5,9.9,2.7,16,2.3c3.4-0.2,6.2,0.4,9,1.1
				c1.9-0.2,4,0.4,5.5,1.5c2.6,1.8,1.1,5.8-2.1,5.2C221.2,384.1,221.3,384.2,221.4,384.3z"/>
        <path id="element-9" class="st0" d="M248.1,611.4l-1.3,9l337.8,1.4c0,0,4.8-21,3.1-30.2c-1.7-9.2-6.9-12.2-5.8-18.2s4-2.5-0.4-11.1l3.1-10.6
				l-2.7-6.7l-2.2-12.4c0,0,1.6-2-2.2-7.5c0,0-1.1-1.9,1.6-6.9l0.3-12l-0.6-28.2l6.2-0.9l1-5.9l-0.1-7.9c0,0-4.2-0.8-6.5-3.8
				c-2.3-3-0.1-14-0.1-14l-6.5-0.7l-79.1,1.7l-21.9,1.3l-15,0.3l-21.3-0.3l-53.9,1l-37.9,1.3l-25.9,1l-11.6-0.3l-23.3-0.3l-41.6,0.7
				l-4.3,7.3l2.7,38.6l3.7,48.9L248.1,611.4z"/>
        <path id="element-10" class="st0" d="M115.5,553.1l109.3,11.8l63.5-24.8l0.8-3.8l-24.1-6.7l-16.6-2.6l-4.9,3.1l-24.8,5.1c0,0-24.8,0.5-24.1-7.7
				l-21-1.5c0,0,1.8,4.9-5.4,7.2c-7.1,2.2-11.3,4.4-16.1,3.1c-4.9-1.3-8.4-4.4-8.4-4.4l-3.3,7.9C140.4,539.8,119.6,548,115.5,553.1z
				"/>
        <path id="element-11" class="st0" d="M146.3,518.8c0,0-1.1,9.7-2.6,13.1c0,0,2.4,0.7,3.4,1.9c1,1.2,1.4,3.7,8.3,3c6.9-0.6,9.9-2.8,9.9-2.8
				l5.3,5.3c0,0-3.1,3.9,2.4,4.2c5.5,0.3,7.5,0.7,9.4-2.3c2-3.1,0.4-5.9,0.4-5.9l-5.7-2.4l-4.3-2.4l-0.9-3.6
				C172,526.7,159.9,525.3,146.3,518.8z"/>
        <path id="element-12" class="st0" d="M247.3,522.2c-0.6-1.8-10.7-2.6-10.7-2.6l-12.2-2.4l-7.1,5.5c0,0-3.9,4.3-10.8,4.3c-6.9,0-38.4-2-38.4-2
				l3.8,1.9l-0.3-1.3c0,0,10.3,1.2,16.6,1.6c6.3,0.4,6.3,0.4,6.3,0.4s-2.1,1.6,2,3.6c4.1,2,11.6,4.1,17.9,4.3s24.2-2.3,29.1-5.3
				S247.9,524,247.3,522.2z"/>
        <path id="element-13" class="st0" d="M192.9,539.7c-4.2-1.8-12.4-5.9-13.8-6.5s-6.3-2.8-6.3-2.8l-0.3-1.2c-0.6,0.9-1.4,1.9-2.3,2.6
				c-2,1.4-11.5,5.7-14.8,5.1s-11.7-5-11.7-5s-4.9,6.6-1.3,10.6s8.7,5.9,12.6,6.9c3.9,1,13.4,3,17.2,4.1c3.9,1,14,3,18.1,2.2
				s7.3-4.9,7.7-8.1S197.2,541.5,192.9,539.7z M183.1,538.4c0,0.1-0.1,0.2-0.1,0.2c0.1,0.8-0.1,1.7-0.6,2.5
				c-1.1,1.9-3.2,2.6-5.2,2.6c-0.8,0-1.7-0.1-2.5-0.2c-0.3,0-0.7-0.1-1-0.1c-0.2,0-1.3,0.1-0.6,0c-1.5,0.3-3.1-0.4-3.5-2
				c-0.4-1.4,0.5-3.2,2-3.5c0,0,0,0,0,0c0-0.1,0.1-0.2,0.1-0.4c0.1-0.4,0.3-0.7,0.6-0.9c0.4-0.4,0.9-0.7,1.5-0.8
				c0.3-0.5,0.8-1,1.6-1.2c0.1,0,0.3-0.1,0.4-0.1c0.2-0.2,0.4-0.3,0.5-0.4c0.7-0.4,1.4-0.4,2.2-0.3c0.7,0.1,1.5,0.5,2.1,0.8
				c0.1,0.1,0.3,0.1,0.4,0.2c0,0,0,0,0.1,0C182.6,535.2,183.6,537,183.1,538.4z"/>
        <path id="element-14" class="st0" d="M548.1,404.2l-28.3-20.6L288.4,363l-37.9,37.2l-16.6,20.3l20.3,21.6l37.2,0.7l20-1.7l276.8-8.2L548.1,404.2z
				 M313.9,398.8c-0.4,0.8-1.8,1.2-2.6,0.7c-1.3-0.9-2.5-1.9-3.9-2.7c-0.4-0.3-0.8-0.5-1.2-0.7c0,0.1,0,0.2,0,0.3
				c2.9,2.5,5.2,6.1,5.3,8.4c0.1,1.4-0.8,2.3-1.8,2.6c-0.1,1.9-2.3,3.6-4.3,2.5c-0.9-0.5-2-1.1-3.1-1.7c0,0.1,0.1,0.2,0.1,0.3
				c0.4,2.2,0.1,7.2-2.2,5.5c-1.3-1-4.8-5.1-6.4-6.6c0.9,3.1-1.6,7.8-6.4,1.9c-1.4-3.1-3.7-5-5.2-8.1c-1.5-3-1.4-5.5-4.3-7.5
				c-1.9-1.3-1.4-3.8-0.1-4.9c0.6-2.8,4.6-5.7,7.3-6.5c3.2-0.9,4.7,1.1,7.5,2.3c3.2,1.4,6.7,2.4,9.6,4.5c1,0.7,1.8,1.4,2.4,2.2
				c3.2,0.9,5.8,3,8.5,4.9C314.1,396.8,314.5,397.8,313.9,398.8z"/>
        <path id="element-15" class="st0" d="M436.1,333c0,0-39.1,3.5-63.7,4.7c-24.6,1.2-71.5-1-72.1-1s-18.9-2-18.9-2l0.2,12.9l8,35.9l22.1,11.3
				c0,0,47.5,4.1,89.5,2.9l21.5,0.4c0,0,7-9.8,14.5-10.4l2.3-1.6c0,0-0.4-6.1,5.5-6.1c5.9,0,3.3,6.4,3.3,6.4s4.7,0,8.4,2.5
				c3.7,2.5,8.2,7.6,8.2,7.6l12.3-0.8c0,0-15.8-18-23.8-32.6S436.1,333,436.1,333z"/>
        <path id="element-16" class="st0" d="M427,298l-67,2.5l-37.9,3.1c0,0-29.1,1.2-36.9,5.7c-7.8,4.5-9,12.7-1.6,14.6c7.4,2,12.5,2.3,12.5,2.3
				s-10.9-4.1-10.9-8.6c0-4.5,9.4-7.6,16.6-8.4c7.2-0.8,54.5-3.3,54.5-3.3l70.7-3.3V298z"/>
        <path id="element-17" class="st0" d="M531.5,305.3c0,0-18.9-23.4-34-35c-15-11.5-31.4-17.4-47.3-13.7c-15.8,3.7-22.9,13.1-23,35
				c-0.2,21.9,8,44.9,26.2,71.9s25.2,34.8,25.2,34.8s13.5-4.9,16.6-5.1c3.1-0.2,7.4,3.5,2.7,4.5c-4.7,1-15.6,5.3-15.6,5.3
				s12.3,14.6,27.5,19.1c15.2,4.5,37.5,7.2,49.4-6.8c11.9-14.1,8.8-40.4,6.8-47.5s-8.8-24.2-13.9-31.3
				C547.1,329.5,531.5,305.3,531.5,305.3z"/>
        <path id="element-18" class="st0" d="M516.4,374.8c0,0,8.2,4.1,12.9-1c4.7-5.1,4.5-9.2,2.3-12.7s-6.6-6.6-8.4-6.6c-1.8,0-3.9,0-3.9,0l-32.6-47.7
				c0,0,6.6-4.9,0.2-12.3c-6.4-7.4-15.2,1-15.2,1s-6.4,6.8-2.1,12.3c4.3,5.5,7.4,4.9,9.4,5.1c2,0.2,4.7-0.2,4.7-0.2l6.6,10.9
				c0,0,21.3,32.4,21.3,33c0,0.6-2.9,7.4-1.6,11.3S510.6,373.1,516.4,374.8z"/>
        <path id="element-19" class="st0" d="M490.2,323.6c0,0-2.5-6.6-6.6-10.9c-4.1-4.3-7.2-5.5-7.4-8.8s-0.6-5.3,3.3-5.5c3.9-0.2,5.1,0.6,6.1,4.3
				c1,3.7,3.5,6.8,6.3,10.2c2.7,3.3,4.1,5.9,4.1,5.9s16,21.8,18.2,27c2.2,5.2,2.7,9,5.1,10.5c2.3,1.6,9.2,5.3,3.7,10
				c-5.5,4.7-10.4-0.6-10.7-2.1c-0.4-1.6,0.4-5.5-1.8-10.2C508.2,349.2,490.2,323.6,490.2,323.6z"/>
        <path id="element-20" class="st0" d="M449,174.2c0,0,12.3-8.8,12.1-12.5c-0.2-3.7-4.9-1.8-10.5,1.6c-5.7,3.3-15,9-15.8,9.8
				c-0.8,0.8-24.6,15-24.6,15l-27.3,19.1c0,0-3.1,7.2-7.6,10.5s-12.5,7-13.9,7.4c-1.4,0.4-2.9,0.2-2.9,0.2s3.9,4.7,11.9,2.9
				c8-1.8,11-6.2,12.9-10s3.5-6.8,7.4-9.8c3.9-2.9,22.5-15,22.5-15L449,174.2z"/>
        <path id="element-21" class="st0" d="M450.9,64.8c10.8-4.6,39.2,21.6,39.2,21.6c33,29.4,83.5,78.4,96.9,89.7c13.4,11.3,49.5,51,58.8,72.7
				c9.3,21.6,16,66.5,16.5,83.5c0.4,13.8-0.8,28.9,4.4,28.2c8.4-1,14.6,3.7,18.2-6.6c3.6-10.3,4.1-26.3-3.1-66.5
				s-20.6-68.6-46.4-102.1s-70.6-73.7-70.6-73.7s-38.1-28.4-45.9-37.1c-7.7-8.8-22.2-18.6-33-30.4s-25.3-10.8-25.3-10.8l-15.5,33
				c0,0,1.5,10.6,9.5,15.1c8,4.5,11.9,5.6,19.7,16.5s25.7,25.9,28.2,33.1c2.5,7.2,4.9,18.8,5.6,23.9s4.5-14.5,1.3-22.6
				c-3.1-8-6.5-11.2-6.5-11.2s-32.9-34-40-37.1c-7.2-3.1-6.7-1.3-8.9-5.6C451.8,74.3,450.9,64.8,450.9,64.8z"/>
        <path id="element-22" class="st0" d="M503.4,123c0,0-5.3,5.9-9.3,6.5c-3.9,0.6-5.5-1.5-8.8-5.5c-3.3-3.9-3.3-6.1-3.3-6.1l-6.1-2l-1.6-5.5
				l-6.4,1.2c0,0-2-0.2-1.4-3.5s0.5-11.1-0.2-13.1c-0.7-2-3.3-4.7-4.1-5.3c-0.8-0.6-2.7-2.9-2.7-2.9s2.9-5.4,12.2-5.9
				c9.3-0.5,11-1,11-1l28.2,25.4l64.1,173.4l-48,46.7c0,0-5.1,4.3-6.3,5.1c-1.2,0.8-7.2,2-8.6,3.7c-1.4,1.8-3.7,2.7-3.9,6.6
				c-0.2,3.9-0.9,6.2-3.3,6.8c-2.5,0.6-8.6-3.9-9.2-3.9s-8.4-7.4-8.4-7.4s-1-8.4,2.7-12.9s2.3-5.3,7.8-5.9
				c5.5-0.6,11.3-1.4,18.9-1.6c7.6-0.2,20.5-10,20.5-10l30.7-29.3l-16-43L452,198.6l-8-4.5l-7.4,1.4l-14.5,1.2c0,0-7.8,1.8-9.6,2.1
				c-1.8,0.4-3.8-1.6-5.1-1.6c-1.3,0-1.6-2.1,3.9-3.3c5.5-1.2,6-1.5,10.7-5.1c4.7-3.5,4.7-3.5,4.7-3.5s-0.3-3.5-5.3-5.4
				s-10.2,3.9-10.2,3.9l-5.3,5.5c0,0-2.1,4.3-2.7,5.1s-4.5,2.5-4.5,2.5s-1-1.6-0.4-3.1s3.3-9.2,7.2-12.9c3.9-3.7,3.7-5.9,9-7.2
				c5.3-1.4,12.5-3.5,17-3.3s20.5,5.1,20.5,5.1l0.8,18.6l98.2,35l-45.1-123.8C506.1,105.1,509.1,117.3,503.4,123z"/>
        <path id="element-23" class="st0" d="M582.8,225.8c0,0-6.2,10.2-8,24.4c0,0-14,5.5-22.8,21.1s-15.8,32.3-22.9,36.3c-7.1,4-8.9,6-8.9,6
				s6.7,6.7,7.1,8.9c0.4,2.2,0,4,4.4,8.4c4.4,4.4,3.1,8.9,4.9,11.1c0,0,10.2-10.6,18.2-11.5c8-0.9,29.3,3.1,41.2-15.1
				c12-18.2,24.4-41.2,27-43.9c2.7-2.7,4-4.4,4-4.4s12.4-14.2,14.2-26.2c0,0-16.5-27.6-43.5-55c0,0-15,4.9-21.7,12.9l-32,4.5
				c0,0-29.9-6.2-35.6-9.3s-24.2-10.2-40.5-15c-16.3-4.7-15.6-5.3-15.6-5.3s0.5,7.7,0.6,9c0.1,1.3,0.9,13.2-1.4,18.2
				c-2.3,5-4,9.2-4,9.2l6.6,0.2c0,0,5.9,2.6,5.9,3.2c0,0.6,6.9,10,18.7,18.7c11.9,8.7,27.1,15.3,36.9,17.9c0,0,17,12.4,28.9,12.8
				c0,0-14.8-19.6-17.6-28c0,0,9.2-4.6,15.4-11c6.3-6.4,17.4-8.4,17.4-8.4l6.9-4.9C566.5,210.8,570.6,222.1,582.8,225.8z"/>
        <path id="element-24" class="st0" d="M736.6,564.2c-1.8-47-12.4-142.8-12.4-142.8s-9.3-90-12.4-112.6c-3.1-22.6-16.4-63.8-37.7-101.5
				c-21.3-37.7-38.1-54.5-51.9-74c-13.7-19.5-31.5-26.6-42.1-33.7c-10.6-7.1-19.1-30.6-29.3-50.1c-10.2-19.5-15.5-25.7-40.8-31.9
				C484.8,11.2,466.2,33,466.2,33c12.4,3.5,23.1,10.6,27,17.3s18.6,18.2,18.6,18.2L548.2,99l43.9,38.1c0,0,25.3,23.1,51,59
				c25.7,35.9,31.9,59.4,38.8,91.3c6.8,31.9,4.7,63.4,4.7,63.4l-7.1,9.8c0,0-3.1-0.3-11.5,0.5c-4.4,0.4-4-2.7-4-2.7l-3.5-49.2
				c0,0-0.9-26.6-13.7-57.2c0-0.1-0.1-0.2-0.1-0.2c1.9,17.6,3.8,35.2,3.1,52.9c-5,86,0.3,171.4-8.2,254.3c-2.2,21.6-3,44.4-4.3,65.9
				l97.7,5C734.9,629.8,738.4,611.2,736.6,564.2z"/>
        <path id="element-25" class="st0" d="M597.8,185.9c-14.2-0.5-32.3,24.4-32.3,24.4s-4.9,4.9-16.1,8c-11.2,3.2-23.7,17.5-23.7,17.5
				c10.7,22,23.3,31.5,26.6,33.7c2.4-4,5.5-7.6,9.2-10.6c3-2.4,6.7-5.9,10.4-7.1c0.8-0.3,1.7-0.4,2.6-0.7c1.8-2.9,0.7-6.9,2.1-10
				c0.1-0.2,5.7-14.1,6.4-15.5c-2.5-1.7-5.2-3.2-7.9-4.9c-4.5-2.8-11-7-7.7-11.5c12.4-17.1,23.9-22.7,28.7-22.5
				c4,0.2,10.3,9.4,14.9,14.3c5,5.3,9.9,10.4,13.9,16.5c0.9,1.4,7.8,10.2,8.6,11.1c0.1,0.1,0.2,0.3,0.5,0.6
				C618.3,206.2,597.8,185.9,597.8,185.9z"/>
        <path id="element-26" class="st0" d="M641.1,240.9c-1.1-3.2-5.6-9.5-7.2-11.6C636.5,233.1,638.9,237,641.1,240.9z"/>
        <path id="element-27" class="st0" d="M652.6,301.6c0.7-17.6-1.5-38.1-6.1-49.9c-1.5-3.6-3.4-7.2-5.4-10.9c0.2,0.7,0.3,1.2,0.1,1.5
				c-9,20.7-16.5,26.7-22,34.9c-5.7,8.6-8.4,14-13.4,23c-4.7,8.3-10,16.3-17.7,22c-5.3,4-10.5,7.2-19.1,6.9
				c-0.4,0.3-2.1-0.1-2.7-0.1c-11.1-0.4-17.3,4.4-17.3,4.4c9.8,12.9,18.6,29.3,18.2,51c-0.4,21.7-5.3,28.4-5.3,28.4l26.2,20
				l-0.4,12.4l-8.4,0.4c0,0-0.4,2.2-0.9,9.3c-0.4,7.1,7.5,8.4,7.5,8.4l-0.9,13.7l-6.2,0.9v8.9c0,0,2.2,25.7,0.9,29.3
				c-1.3,3.5-3.5,7.5-2.2,8.9c1.3,1.3,2.2,7.5,2.2,7.5l2.2,12.4l2.7,6.7c0,0-5.3,7.5-3.1,10.6c2.2,3.1,2.7,6.5,0.4,11.1
				s3.5,12.9,5.8,18.2c2.2,5.3-3.1,30.2-3.1,30.2l53.4,2.8c1.2-21.5,1.6-44.1,3.4-65.7C649.4,472.9,647.6,387.6,652.6,301.6z"/>
        <path id="element-28" class="st0" d="M525.6,235.9c0,0-16.1-21.7-16.6-50.1s1.6-35,1.1-46.3s-6.8-16.5-6.8-16.5s5.2-3.1,2.6-20.6l-23.1-22.3
				c0,0-17.1,0.1-23.2,6.8c0,0-11.2-12.3-8.8-22.2c0.7-2.8,13.5,1.4,21.3,6.6c7.7,5.2,50.9,45.5,50.9,45.5l74.7,69.1
				c0,0-14.4,1.4-28.9,21.1c-8.7,11.9-15.5,8.8-19.6,11.3C545.2,220.9,533.4,235.9,525.6,235.9z"/>
        <path id="element-29" class="st0" d="M441.1,195.2c0,0-1.4,10.6,2.1,12.9s7.2,3.1,8.8-7.7C451.9,200.3,446.3,191.1,441.1,195.2z"/>
        <path id="element-30" class="st0" d="M358.4,225.4c0,0,18.4-2,23-17.4C381.4,208,358,210.5,358.4,225.4z"/>
        <path id="element-31" class="st0" d="M391,285.2c0,0-0.4-10.2-0.8-12.1s-3.1-4.9-4.5-7.4s-2.3-6.3-2.9-9.2s-2.3-3.5-6.6-7
				c-4.3-3.5-13.4-5.1-16-4.3c-2.6,0.8-6.1,2-4.7,4.5s3.3,5.5,8.6,7.8c5.3,2.3,10.2,0.4,11.9,3.7c1.8,3.3,2.7,4.7,2.7,8
				c0,3.3-1.2,7.2,1.2,10.5c2.3,3.3,1.8,4.5,5.9,6.3c4.1,1.8,5.7,2.9,5.7,2.9L391,285.2z"/>
        <path id="element-32" class="st0" d="M393.8,286.9c0,0,9-0.8,14.1,1.4s6.4,5.5,6.1,13.3c-0.4,7.8-2.3,10.7-6.8,12.9s-10.9,2.3-15.8,2
				c-4.9-0.4-8.4-6.1-12.7-9.6c-4.3-3.5-6.8-4.3-12.1-5.3c-5.3-1-6.4-1-6.4-1s-2,4.8-3.1,3.9c-1.1-0.9-11.9-6.6-11.9-6.6l-4.5-2.9
				l1.6-6.4c0,0,4.5-11.9,6.8-14.3c2.3-2.3,1.8,0.4,3.9,1.2c2.1,0.8,6.3,1.2,2.7-2.7s-6.6-7.2-5.7-8.8s4.3,2.3,4.3-0.4
				s-2.5-2.3-2.1-5.9c0.4-3.5,2.3-8.8,3.1-9.6c0.8-0.8,0.8,5.1,4.9,7.2c4.1,2.1,5.9,4.1,9.4,4.7s4.3-3.5,6.6,1.2
				c2.3,4.7,3.1,7.2,3.5,10.5c0.4,3.3-1.7,7.4,2,10.4c3.7,3,5.7,5.3,7.8,6.1C391.4,288.9,393.8,286.9,393.8,286.9z"/>
        <path id="element-33" class="st0" d="M405.3,301.8c0,0,4.5,0.6,4.3-2.9c-0.2-3.5-1.8-5.5-1.8-5.5s-2,0-2.5,2.3C404.7,298,405.3,301.8,405.3,301.8
				z"/>
        <path id="element-34" class="st0" d="M430.1,322.9l-105.3,4.5c0,0-20.9-1.4-26.6-2.3s-13.3-2.3-13.1-7.2c0.2-4.9,11.9-8.8,25-9.6
				c13.1-0.8,62.7-2.9,62.7-2.9s5.1,2.9,6.6,3.7s6.4,8.6,17,7s11.7-0.5,14.1-4.9s2.7-7.6,2.7-7.6l13.7-0.8l5.1,20.1H430.1z"/>
        <path id="element-35" class="st0" d="M436.1,333l-4.1-10.2l-88.7,4.1l-41.6-0.2c0,0-13.3-0.2-18.2-2.7c-4.9-2.5-6.3-4.3-6.3-4.3s-5.5,5.1-2.9,9.8
				c2.5,4.7,5.9,5.1,7,5.3c1.2,0.2,41.4,3.5,42.2,3.5c0.8,0,59,0.4,81.3-2.5S436.1,333,436.1,333z"/>
        <path id="element-36" class="st0" d="M277.3,354.5c0,0,3.7,4.3,13.3,4.9s16.8-0.2,22.1-2.3c5.3-2.1,4.1-4.9-1-4.3c-5.1,0.6-13.7,0.2-18.8-0.8
				s-12.7-2.3-14.1-2.5C277.5,349.2,276.9,352,277.3,354.5z"/>
        <path id="element-37" class="st0" d="M466,413.7c0,0,5.1-5.7,6.8-6.8c1.7-1.1,10.5-4.5,17-6.6c6.4-2.1,9.6-3.7,9.4-6.1c-0.2-2.3-7.8-1-11.1,0.6
				c-3.3,1.6-12.5,5.9-14.8,6.4c-2.3,0.6-4.9,1-7.6,2.3c-2.7,1.3-4.7,2.3-4.7,4.1C460.9,409.4,465.1,413.2,466,413.7z"/>
        <path id="element-38" class="st0" d="M422.1,406.5c0,0-7.8-0.6-8-3.5s1.2-3.5,3.9-3.1c2.7,0.4,2,1.8,4.7-1.6c2.7-3.3,8.1-9.4,12.7-10.7
				c4.6-1.4,4.6-1.4,4.6-1.4s0.6-5.5,4.9-5.9c4.3-0.4,3.3,6.4,3.3,6.4s12.5,1.4,16.6,10.2l2.7,5.3c0,0-5.9,2-6.6,5.5l-2.3-1
				L422.1,406.5z"/>
        <path id="element-39" class="st0" d="M421.1,410.9c0,0,1.6,6.3,2,7.4c0.4,1.2,1.8,6.8,10.9,6.8c9.2,0,16,1,22.9,0.2c6.8-0.8,7.2-3.3,9-5.7
				c1.8-2.3,0.2-6.1,0.2-6.1s-3.1-1-4.1-3.5s-1-2.5-1-2.5l-40.8-0.6L421.1,410.9z"/>
        <path id="element-40" class="st0" d="M460.6,485.7v7.6c0,0-5.3,1.7-4,6.3s5.7,7,5.7,7l-0.7,13c0,0-4.7,2-4,7c0.7,5,4.7,4,4.7,4l0.3,3l68.2-2.7
				l-1.7-46.2L460.6,485.7z"/>
        <path id="element-41" class="st0" d="M308.1,411c-0.3,0-0.6-0.1-0.9-0.3c-0.4-0.2-0.9-0.4-1.3-0.6c-0.6-0.3-1.2-0.7-1.8-1
				c-0.4-0.2-0.6-0.5-0.8-0.9l-2.1,0.3c0.3,0.3,0.6,0.6,0.9,0.9c0.2,0.2,0.4,0.5,0.5,0.8c0,0.2,0,0.3,0.1,0.5c0,0.5-0.2,1-0.5,1.3
				c-0.3,0.3-0.9,0.5-1.3,0.5c-0.3,0-0.5,0-0.7-0.2c-0.2-0.1-0.4-0.2-0.6-0.4c-0.3-0.4-0.7-0.8-1.1-1.1c-0.4-0.3-0.8-0.5-1.2-0.7
				c-0.3-0.2-0.5-0.4-0.7-0.7c-0.1-0.1-0.1-0.2-0.2-0.4l-3.2,0.4c0,0,0,0.1,0,0.1c0.1,0.2,0.1,0.4,0.1,0.6c0,0.2,0,0.3-0.1,0.5
				c-0.1,0.3-0.3,0.6-0.5,0.8l-0.4,0.3c-0.2,0.1-0.4,0.2-0.7,0.2c-0.2,0.1-0.5,0-0.7,0c-0.2-0.1-0.5-0.2-0.6-0.3
				c-0.2-0.1-0.4-0.3-0.5-0.5c-0.1-0.2-0.2-0.4-0.2-0.6c0,0,0-0.1,0-0.1c0,0,0-0.1,0-0.1c0-0.1,0-0.2,0-0.3l-3.6,0.5l-56.8,12.3
				l-2.8-1l-4.6,1.8l4.1,43.5l2.3,31.7l2,36.8l2.3,37.2l-6.6-0.6l-82.6-7.3l31.9,3.8l0.5,51.4l6.9,0.2l-0.5-51.4l40.5,3.6l10,2.9
				l2.4,32.4l1,12.5l5.9-1.8l0.5-11L240,569l17.5-7l28.2-10.5l9-3.3l-0.3,25.8l-1.5,42.5l6.1,0.5l-1.3-5.4l4.3-78.1l4.3-61.7l1-39.7
				l0.8-20.2l0.1-1.1C308.3,411,308.2,411,308.1,411z M295,533.1l0,4.2l-10.2,4l-45.2,18.2l-0.3-6l-2.6-34l16.9-5.1l14.1-5.6
				l17.9-3.1l10.7-2.2L295,533.1z M297.1,483.2l-28.7,9c0,0-14.8,3.3-15.6,3.3c-0.6,0-12,3.2-17.8,4.7l-0.9-10.6l-1.8-25.9
				l-1.3-17.7l4.6-2.8l38.1-11.3l24.8-4.9l0.8,4.3L297.1,483.2z"/>
        <path id="element-42" class="st0" d="M338.2,508.6l49.5-4.7l0.3-4.3c0,0,5.7-3.3,5-7c-0.7-3.7-5.7-5-5.7-5v-4c0,0,5.3-0.7,4.7-6.3
				c-0.7-5.7-5.3-4.7-5.3-4.7l0.3-5.3l-49.9,3.7L338.2,508.6z"/>
        <path id="element-43" class="st0" d="M502.5,501.6c0,0-2-4.7-5.3-2.7c-3.3,2-2.7,8.3,1,10.3c3.7,2,12.3,5,16.3,3.7c4-1.3,9-6.3,16.6-8
				c7.6-1.7,11.6,0,15,1.7c3.3,1.7,4,3,4.3-1c0.3-4-0.8-6.1-6-7.6c-5.2-1.5-8.1-2.6-13.6,0.3s-8.3,4.3-13,5
				C513.2,504,507.8,506,502.5,501.6z"/>
        <path id="element-44" class="st0" d="M338.6,494c0,0,4-1.3,9.3,0.3c5.3,1.7,8.3,3.3,14.6,1.7c6.3-1.7,7,0,8-5c1-5-1-7.3-5.7-4.3
				c-4.7,3-4.3,6.3-12,3.7c-7.6-2.7-12.6-3.6-15.3-3.7c-2.7-0.1-6.7,0.3-8.6,4.7c-2,4.3,0.7,7,0.7,7S335.6,494,338.6,494z"/>
        <path id="element-45" class="st0" d="M242.2,615.3l-2-54.5l-3.6-36.3l-1.8-22.8l-2.6-37.9l-1.3-17.7l1.3-1.8c0,0,45.3-14.1,56.8-15.6
				s10.5-2.3,10.2,2.8c-0.3,5.1-3.1,63.5-3.1,63.5l-1.5,61.9l-1.8,57.8l-7.9-0.3l2.8-62.7c0,0,2.3-0.3,2-2.6s-0.3-6.7-0.3-6.7
				l-1.3-2.6l1.5-35.3c0,0,0.8,0.5,1.5-4.1c0.8-4.6,0.5-13.6,0.5-13.6l-1.3-1.8l0.5-53.5l-27.4,6.1l-26.9,7.9c0,0-1.5,9.5-1,16.9
				c0.5,7.4,3.8,31.5,3.8,31.5s3.5,22,2.8,22.5c-0.7,0.6,0.8,22.3,0.8,22.3l0.3,17.7l1.5,10l0.5,17.1l1.5,32.5L242.2,615.3z"/>
        <path id="element-46" class="st0" d="M183,159c0,0,5.8,0,7.5,0.5c1.7,0.5,2.5,2.7,4.1,2.9c1.6,0.2,5.2-1.3,8.2-0.5s3.9,2.2,6.8,2.2s7-4.8,7-4.8
				l-0.7-7.5c0,0,12.8-8.2,9.9-24.9l2.4-5.3c0,0,1.5-6.1-0.5-11.9c-1.9-5.8-3.6-6.5-3.6-6.5s-5.8-1.2-8.7,0.2
				c-2.9,1.5-6.3,2.2-10.7,3.1c-4.4,1-10.2,3.1-12.1,3.9c-1.9,0.7-8.7,3.6-8.7,3.6l-7,3.9c0,0,7,4.4,1.7,12.1c0,0,4.6,8.2,0,12.1
				c0,0,4.8,4.8,1.7,9C180.4,151,183.8,153.7,183,159z"/>
        <path id="element-47" class="st0" d="M188.9,287.9c0,0,6.3,1.8,8.1-1c1.8-2.8,1.8-6.9,2.6-8.3c0.8-1.4,3.3-4.5,3.3-4.5s-1.6-5.8,1.4-6.1
				c3-0.3,5.8,2.9,5.8,2.9l4.3,3.3l-0.4-2.9l0.5-4.6l-1.5-4.1l2.2-6.3c0,0,0.8-1,2.9,1c2,2,4.6,4.8,7.8,2.1
				c3.2-2.7-1.7-10.2-1.7-10.8c0-0.6,1.2-11.2,1.2-11.2s2.7-1.2,3.9-2.2c1.2-1,0.8-4.5,0.8-4.5s-1-2.3,0.9-1.6
				c1.9,0.8,2.7,1.3,4.8,1.5c2.2,0.1,2.2,0.1,2.2,0.1l2.4,1.1l1.6,0.1c0,0,2.2-1.6,1-6.5c-1.2-4.9-3.9-7.9-13.8-11s-14.6-4.7-21.5-2
				c-6.9,2.6-11,6.7-14.8,8.1c-3.9,1.4-13,0.6-16.6,7.5c-3.7,6.9,4.1,3.4-6.3,12.8c0,0-3.2,6.5-3,15.8c0.2,9.3,4.1,7.1,4.3,15.2
				c0.2,8.1,9.5,14.2,9.5,14.2s-5.9,3-7.3,4.1c-1.4,1-4.7,0-6.9,2.6s-2.2,4.3-5.1,4.3s-19.7-0.2-22.9-0.2c-3.2,0-6.3,3-1.8,3
				c4.5,0,6.7,0,3,1c-3.7,1-7.1,5.1-1.4,3.7c5.7-1.4,10.3-2.6,4.5-0.8c-4.7,1.4-9.5,7.5-2.6,4.9c6.9-2.6,1.6-0.2,0,2s1,1.6,6.7-2.8
				c5.7-4.5,12.6-6.3,16-8.1c3.4-1.8,12.2-6.5,13.2-6.9s6.5-1.9,7.7-2.6C185,289.6,188.9,287.9,188.9,287.9z"/>
        <path id="element-48" class="st0" d="M85.4,449.2c0,0,4.1,0.6,8.9,3.9c4.9,3.2,7.5,4.3,8.3,4.3s-0.6,0.8,1.8,0.2c2.4-0.6,6.1-1.9,6.5-1.8
				c0.4,0.1,2.8-0.2,4.1,1.6c1.2,1.8,2,6.7,4.5,6.1s3.9-3.2,8.3-0.2c4.5,3,2.2,2.8,7.5,7.9c5.3,5.1,6.5,6.5,10.1,6.3
				c3.7-0.2,6.9-0.6,9.9,0.6s8.3,3.4,10.8,3.7c2.4,0.2,5.8,1.2,5.9-0.4c0-1.6-1-14.2-1-17.2c0-3-0.6-22.9,1.4-32.7s7.1-31.9,10.1-40
				s9.1-21.1,9.1-21.1s-4.9-12.4-14.6-20.7c0,0-10.6,7.3-23.7,5.7c-13.2-1.6-18.5-3.9-18.5-12.6l-17.7,31c0,0-9.1,14-17.2,32.3
				S85.4,449.2,85.4,449.2z"/>
        <path id="element-49" class="st0" d="M158.1,355.2c0,0,8.2-9.1-1-14.1c-9.1-4.9-11.9,7.2-11.9,7.2l1.2,7.4L158.1,355.2z"/>
        <path id="element-50" class="st0" d="M189,364.6c0.7-0.2,6.9,2.2,10.6-5.4s-8.4-10.1-8.4-10.1s-5.2,2-6.4,5.7C183.5,358.4,189,364.6,189,364.6z"/>
        <path id="element-51" class="st0" d="M194.7,333.9c0,0,4.7,2,8.2-3c3.5-4.9-0.7-9.4-4.7-9.4C194.2,321.6,187.2,332,194.7,333.9z"/>
        <path id="element-52" class="st0" d="M165.7,316.1c0,0,8.4,2.2,9.4-5.9c1-8.2-10.6-5.4-10.6-2.5S161.3,316.1,165.7,316.1z"/>
        <path id="element-53" class="st0" d="M187.5,308.7c0,0,6.9-0.2,7.4-4.9c0.5-4.7-4.5-6.9-7.9-5.7C183.5,299.3,181.8,308,187.5,308.7z"/>
        <path id="element-54" class="st0" d="M212.7,374.7c0,0,5.9,1.7,6.4-6.4c0.5-8.2-8.4-6.8-8.4-6.4C210.7,362.3,199.9,373,212.7,374.7z"/>
        <path id="element-55" class="st0" d="M209.5,417.8c0,0,4.9,2.7,7.4-4.5c2.5-7.2-6.7-7.2-9.4-4.9C204.8,410.6,206,419.7,209.5,417.8z"/>
        <path id="element-56" class="st0" d="M187.7,418.3c0,0,8.2,6.9,10.6-3c2.5-9.9-7.9-7.9-7.9-7.9S183.3,411.3,187.7,418.3z"/>
        <path id="element-57" class="st0" d="M173.6,428.1c-0.1-0.7,5.2,7.7,10.6-2.2c5.4-9.9-9.9-7.2-9.9-7.2L173.6,428.1z"/>
        <path id="element-58" class="st0" d="M212.2,467c0,0,5.9-2.7,3.5-8.2c-2.5-5.4-7.7-6.2-9.9-4.2s-4.5,6.2-3,9.9S208,468.7,212.2,467z"/>
        <path id="element-59" class="st0" d="M226.8,405.6c0,0-4.2,2.5-2.7,6.4s6.2,3.5,6.2,3.5L226.8,405.6z"/>
        <path id="element-60" class="st0" d="M228,369.3c0,0,6.4,6.9,10.4,10.4c4,3.5,7.9,11.4,20.3,13.6c12.4,2.2,10.4,3.2,15.3,2c4.9-1.2,1.2-4,6.9-8.9
				c5.7-4.9,6.9-5.4,6.9-5.4s-13.6-8.4-18.5-12.4c-4.9-4-17.3-16.8-17.6-20.5s-0.5,2.2-0.5,2.2S241.9,359.9,228,369.3z"/>
        <path id="element-61" class="st0" d="M186,290.4c0,0,2.8,6.6,9,9.5c6.2,2.9,11.5,7.8,19.3,8.2s12-2.2,12-2.2l-3.5-7.1c0,0-3.3,5.8-16,1.6
				c-12.6-4.2-13.5-10.4-13.5-10.4S187.2,285.2,186,290.4z"/>
        <path id="element-62" class="st0" d="M201.8,299c0,0,0.9-3.3-1.1-3.8c-2-0.5-4.2,0.4-4.5,2.7s3,3.2,3,3.2s-2.3,2.3-1.8,4.2
				c0.6,1.9,2.5,4.2,5.1,3.3c0,0-1.2,6.6,4.9,4.4c0,0-0.4,8.1,5.4,6.1c0,0-4.5,7.7,2.8,6.6c0,0-1.3,5.6,3.9,4.7c0,0-6.6,5,0.1,6.1
				c0,0,6.3-0.5,1.2-5.7c0,0-1.6-0.2-0.5-1.5s0.9-3.5,0.9-3.5s5.2-0.9,2.7-6.7c0,0,5.1-2.1,1.1-6.9c0,0,6.8-1,2.9-6.1
				c0,0-6.5-0.5-3.2,5.4c0,0-6.2,2-2,6.9c0,0-3.9,1-3.8,5.5c0,0-0.1-6.1-5.2-4.6l-1.3-1c0,0,2.5-6.3-3.8-5.8c0,0,1.5-6.8-4.8-4.4
				l-0.9-0.7c0,0,3.1-4.2-2.6-5.8L201.8,299z"/>
        <path id="element-63" class="st0" d="M147.6,208.3c0,0-3.1,4.1,0.4,5.4c3.5,1.3,4.5-2.2,4.5-2.2s4.1,3.4,6.2,0.8c2.1-2.6-0.9-5.5-0.9-5.5
				s4.2-5.5-2.2-4.8c0,0,0.7-3.5-4.2-4.4s-1.9,5.1-1.9,5.1s-3.9-1.9-5.1,0.9C143.3,206.3,143.9,207.1,147.6,208.3z"/>
        <path id="element-64" class="st0" d="M187.5,220.8l-2.6-2.9c0,0,2-2.3,0.2-4.9c-1.9-2.5-5.1-0.5-5.1-0.5s-2.1-3.5-5-1.9c-2.8,1.7,0,4.4,0,4.4
				s-4.3,1.2-4.6,4c-0.3,2.8,3.8,4.1,3.8,4.1s-1.2,3.3-0.4,3.8c0.8,0.5,2.5,1.2,2.5,1.2S180.1,222.1,187.5,220.8z"/>
        <path id="element-65" class="st0" d="M161.1,189.2c0,0-0.5,4.6,2.1,4.3c2.6-0.3,3.8-2.5,3.8-2.5s3.7,0.9,4.9-1.6c1.2-2.4-1.6-5.8-1.6-5.8
				s2.5-1.8,0.1-6.1c-2.4-4.4-6.4,0.5-6.4,0.5s-1.7-3.2-4.9-1.4c-3.2,1.9-1.8,5-1.8,5s-4,3.4-1.6,6.2
				C158.3,190.7,161.1,189.2,161.1,189.2z"/>
        <path id="element-66" class="st0" d="M205.4,185.2c0,0-3.6,2.8-1.5,5.4s5.6,0.1,5.6,0.1s2.7,2.6,5.7,1.3c2.9-1.4,0.1-5.6,0.1-5.6s5.2-1.2,3.5-5.2
				c-1.7-4-5.1-1.5-5.1-1.5s-0.5-4.2-3.2-4.4c-2.7-0.2-3.7,4.2-3.7,4.2s-2.7-1.9-4,1C201.5,183.4,205.4,185.2,205.4,185.2z"/>
        <path id="element-67" class="st0" d="M218.6,204.4c0,0,3.4,1.3,4.6-0.5c0,0,3.9,3.3,6.3,1.5c2.4-1.9-0.5-4.7-0.5-4.7s3.2-0.9,3.5-4.1
				c0.3-3.2-2.4-3.7-4-2.8c0,0-0.3-5.5-3.9-5.3s-4.1,5.1-4.1,5.1s-3.7,0-3.5,1.6c0.2,1.6,2,4.1,2,4.1S215.7,202.9,218.6,204.4z"/>
        <path id="element-68" class="st0" d="M252.3,305.2c0,0-2.9-5.9-6.2-3.4c-3.3,2.4-3,8.6-2.5,8.8s2,1.1,2,1.1s-1.6,3.6-0.5,4.9
				c1.1,1.3,4.8,0.8,4.8,0.8s1.1,6,4.5,4.5c3.4-1.6,3.2-5.8,3.2-5.8l0.8-1.1c0,0,4.1,0.1,5.1-3.7c1-3.8-3.9-3.9-3.9-3.9
				s3.2-3.7-0.2-6.9S252.3,305.2,252.3,305.2z"/>
        <path id="element-69" class="st0" d="M169,126.5c0,0-0.2,4,0.2,4.8c0.3,0.8-2.3,3.3-1.4,5.7c0.9,2.4,1.3,3.1,1.8,4.9c0.5,1.8,0.5,4.9,1.4,6.1
				c0.9,1.2,2.3-1.4,3.5-3.5c1.2-2.1,1.1-2,1.8-0.6c0.6,1.4,0,4.3,1.7,6.2c1.7,2,3.7,1.6,1.8,3.1c-1.9,1.5-3.6,6.8-2.3,8.9
				c1.3,2.1,2.2,1.6,2.5,1.4c0.2-0.2,4.1-3.3,3.4-6.5s-2.4-4.5-2.4-4.5s2.2-3.3,0.4-6.8c-1.8-3.4-2.5-3.6-2.5-3.6s3.5-4.1,1.9-7.2
				c-1.6-3-1.6-3-1.6-3s2.9-5.7,1-9.2c-1.9-3.5-3.5-4-3.5-4l-3.1,3.1L169,126.5z"/>
        <path id="element-70" class="st0" d="M224.8,96.2c-2.7-3-2.6-4.4-3.9-3.7c-1.4,0.6-1.8,1.3-5,1.1c-3.2-0.2-3.3,0-6.7,0.7
				c-3.3,0.7-2.8,1.9-7.1,1.5c-4.3-0.4-6.1-0.6-9.2,0.6s-4.3,5.3-8.5,6c-4.2,0.7-8.5,2.7-10.5,4.2c-2,1.5-8.1,7.4-9.2,8.3
				c-1.1,0.9-3,3.3-3,3.3l6.1,8.3c0,0,1.8-0.2,3.4-1.9c1.7-1.7,3.4-5.4,10.7-9.3c7.3-3.9,16.9-6.6,23.1-8.7c6.2-2.1,4.9-2.2,8.3-2.9
				c3.3-0.7,3.4-1.5,7.2-1.3c3.7,0.2,3.4,1.4,4.6,0.1S227.5,99.3,224.8,96.2z M175.7,116c0,0.1,0,0.1-0.1,0.1c0,0.1,0,0.1,0,0.2
				c0,0.3-0.1,0.6-0.1,0.9c0,0.1-0.1,0.3-0.2,0.4c-0.1,0.1-0.1,0.2-0.2,0.4c-0.1,0.2-0.2,0.3-0.4,0.5c0,0-0.1,0.1-0.1,0.1
				c-0.1,0.1-0.3,0.3-0.5,0.4c0,0-0.1,0-0.1,0.1c-0.2,0.1-0.4,0.2-0.7,0.3c-0.2,0-0.5,0.1-0.8,0.1c-0.3,0-0.5,0-0.8-0.1
				c-0.4-0.1-0.7-0.3-1-0.5c-0.7-0.4-1.3-1-1.7-1.7c-0.2-0.3-0.4-0.7-0.5-1.1c-0.1-0.3-0.1-0.6-0.1-0.8c0-0.1,0-0.2,0-0.3
				c0-0.6,0.2-1.1,0.4-1.6c0.3-0.5,0.7-0.9,1.2-1.2c0.3-0.2,0.7-0.4,1.1-0.5c0.6-0.1,1.1-0.1,1.6,0c0.4,0.1,0.7,0.2,1,0.4
				c0.2,0.1,0.4,0.3,0.6,0.5c0.1,0.1,0.2,0.1,0.2,0.2c0.2,0.3,0.5,0.6,0.6,0.9c0.2,0.5,0.4,0.9,0.4,1.5
				C175.9,115.3,175.9,115.6,175.7,116z M185.1,111.2c-0.9,0.9-2.3,1.5-3.6,1.5c-1.1,0-1.8-0.8-1.9-1.9c0-0.1,0-0.1,0-0.2
				c-0.2-0.3-0.4-0.6-0.5-1c-0.2-0.7-0.2-1.5,0-2.2c0.2-0.6,0.5-1.3,1-1.7c0.6-0.6,1.3-0.9,2.2-0.9c0.1,0,0.2,0,0.4,0
				c0.4-0.1,0.8-0.1,1.2,0c0.8,0.2,1.3,0.8,1.7,1.4c0.1,0.2,0.2,0.5,0.2,0.7c0.1,0.2,0.2,0.3,0.2,0.5
				C186.7,108.8,186.1,110.3,185.1,111.2z M198.1,104.7c-0.3,0.3-0.7,0.6-1.1,0.9c-0.4,0.2-0.8,0.4-1.3,0.5
				c-0.3,0.1-0.6,0.1-0.9,0.1c0,0,0,0-0.1,0.1c-0.2,0.1-0.4,0.2-0.7,0.2c-0.2,0.1-0.5,0-0.7,0c-0.8-0.1-1.6-0.5-2.1-1.2
				c-0.3-0.4-0.5-0.9-0.5-1.4c-0.2-0.4-0.3-0.7-0.2-1.2c0-0.9,0.4-1.6,1-2.2c0.2-0.3,0.5-0.5,0.8-0.7c0.2-0.1,0.4-0.2,0.6-0.3
				c0.3-0.1,0.7-0.3,1-0.4c0.3-0.1,0.7-0.1,1.1-0.1c0.3,0,0.6,0.1,0.9,0.2h0c0.6,0,1.1,0.2,1.6,0.5c0.5,0.2,0.9,0.6,1.2,1.1
				c0.3,0.4,0.4,0.9,0.5,1.5C199.2,103.1,198.7,104,198.1,104.7z M209,101.1c-0.1,0.5-0.2,0.9-0.5,1.3c-0.3,0.5-0.7,0.9-1.1,1.2
				c-0.5,0.3-1,0.4-1.5,0.4c-0.1,0-0.2,0-0.3,0c-0.2,0-0.4,0-0.6-0.1c-0.3,0-0.5,0-0.8,0c-0.1-0.1-0.3-0.1-0.4-0.2
				c-0.4-0.2-0.7-0.7-0.9-1.1c0-0.1,0-0.2-0.1-0.3c-0.2-0.4-0.4-0.9-0.4-1.4c0-0.5,0.2-1.1,0.4-1.5c0.3-0.5,0.7-0.9,1.2-1.2
				c0.1-0.1,0.2-0.1,0.2-0.2c0,0,0,0,0,0c0.3-0.3,0.7-0.6,1.2-0.6c0.2,0,0.5-0.1,0.7-0.1c0.2,0,0.4,0,0.6,0.1c0,0,0.1,0,0.1,0
				c0.5,0.2,0.8,0.3,1.2,0.7c0.1,0.1,0.1,0.1,0.2,0.2c0.1,0.2,0.3,0.4,0.4,0.6c0.2,0.3,0.3,0.6,0.4,0.9c0,0.2,0.1,0.5,0.1,0.8
				C209.1,100.6,209.1,100.9,209,101.1z M220.9,98.9c-0.2,0.5-0.4,1-0.8,1.4c-0.2,0.2-0.4,0.4-0.7,0.5c-0.1,0.1-0.2,0.2-0.4,0.2
				c-0.5,0.3-1,0.4-1.5,0.4c-0.1,0.1-0.2,0.2-0.3,0.3c-0.4,0.2-1,0.3-1.4,0.2c-0.4-0.1-0.8-0.3-1.2-0.5c-0.5-0.3-0.8-0.6-1.1-1.1
				c-0.1-0.1-0.1-0.2-0.2-0.3c-0.1-0.2-0.2-0.5-0.3-0.7c-0.1-0.3-0.1-0.7-0.1-1.1c0.1-0.7,0.2-1.3,0.6-1.9c0.4-0.6,0.9-1.1,1.5-1.4
				c0.6-0.4,1.3-0.6,2-0.6c0.4,0,0.7,0,1.1,0.1c0.4,0.1,0.8,0.3,1.1,0.5c0.9,0.6,1.5,1.4,1.6,2.5C221,98,221,98.4,220.9,98.9z"/>
        <path id="element-71" class="st0" d="M162.7,116.6c0,0-4.7-6.9-4.7-7.5c0-0.6-1.5-0.9,1.1-5.1c2.6-4.2,1.9-6.9,2.5-8.9c0.6-2,2.5-4.3,5-5.6
				c2.6-1.3,7.7-3.3,8.9-4.9c1.2-1.5,2.2-5.2,7.5-6.5c5.3-1.4,15.9-3,20.5-2.4c4.6,0.6,7.3,0.5,10.2,3.3s5.7,9.6,6.4,11.6
				c0.7,1.9,1.7,2.5-0.5,2.6c-2.2,0.2-4,1.4-7.7,1.3c-3.7-0.1-3.5,0.4-6.5,0.9c-3,0.5-3.7,0.1-7.2,0.3c-3.5,0.2-4.7-0.2-7.3,1.7
				c-2.6,1.8-4.7,4.3-7.7,5.3c-3,1-5.7,2.2-7.8,3.6c-2.1,1.4-5.4,3.7-6.7,5.1C167.5,112.7,162.7,116.6,162.7,116.6z"/>
        <path id="element-72" class="st0" d="M192.1,82.3c0,0,4.9-1.5,7.1,1.5c2.2,3,2.3,4.9,2.3,4.9S194.5,89.9,192.1,82.3z"/>
        <path id="element-73" class="st0" d="M275.1,234.8l-10.7,9.6c0,0-0.7,5.3,1.2,7.8c1.9,2.5,5,3.1,5.9,7.7c0.9,4.6,1.1,9.4,2.7,12.6
				s3.4,6.2,3.4,6.2s7.4-6.9,13.9-8.1c6.5-1.2,9.2-1.5,9.2-1.5s1-4.4-1.9-6.3s-2.2-5.2-1.6-5.8s4.4-2.7,5.3-2.7s3.2,1.4,6.3,0.6
				s4.4-1.3,4.4-1.3l3.3,11.6c0,0,14.2,0.3,18.3-4.8c0,0-1.6-6.9-0.5-10.6s-1.1-7.5-1.8-7.8c-0.7-0.3-8.7-0.5-11.5-0.1
				c-2.8,0.4-4.9,0.9-4.8,2.5c0.1,1.6,1.6,3.7,0.6,5.7s-2.2,2.2-3.2,2s-1.2,1.1-3.7,1.5s-3.3,1-4.9,0.1c-1.6-0.9-2.1,0-4.6,0.6
				c-2.5,0.6-2.9,2-6.1,1.3c-3.2-0.7-6.8-2.8-6.8-2.8s-1.2,3.6-4.5,5.9s-4.1,3-5.4,1.1s-2-3.8-1.8-8c0.2-4.2,1.3-10,0.6-13.4
				C275.6,235,276.1,234.2,275.1,234.8z"/>
        <path id="element-74" class="st0" d="M279,279c0,0,1.7,5.3,1.8,8.7s0.2,5.4,0.2,5.4l12.2,6c0,0,5.3-9.7,7.1-11.3c1.8-1.6-1.3-5.2-1.3-6
				c0-0.7-1.4-11.3-1.4-11.3l19.3-3.2l1.4,11.3l11.2,6.9c0,0,3.5-5.8,5.3-8.3s3.7-4,3.7-4l-3.9-12.7c0,0-8.1,5.8-18.3,4.8l-19.1,3.6
				C297.3,268.9,282.7,271.6,279,279z"/>
        <path id="element-75" class="st0" d="M297,257c0,0-0.4,2.2,1.6,5.8c2,3.5,2.9,3.7,1.9,6.3s-1.9,1.9,0.2,4.5c2.1,2.6,1.8,2.9,1.3,5.9
				s1.2,2.8,1.9,5.1c0.7,2.3-2.1,5.8,0.7,6c2.7,0.2,8.2-2.5,12.7-3c4.5-0.5,5.7-0.6,6.4-1.6c0.7-1,0.5-2.2,0.2-3.6
				c-0.3-1.4-5.5-3.6-5.5-3.6s-0.4-7.9-1.5-12.6s-3.8-12.4-3.8-12.4s-1.2,0-2.6,0.6c-1.4,0.6-6.8-0.1-7.1-0.2
				C303,254,297.7,254.2,297,257z"/>
        <path id="element-76" class="st0" d="M332.7,222.2c-1,6.3-1.5,11.4-8.7,17c-4.2,3.2-7.1,4.4-10.7,4.4c-0.9,1.3-2.8,2.3-3.3,3.7
				c-0.6,1.8,1.7,3.6,2,5.2c0.3,1.6-1.6,1.7-4.8,2c-3.2,0.3-2.4-0.8-2.4-3c0-2.1-1.3-2.7-2.4-4.3s-3.8-3.1-6.9-6.2
				c-1.5-1.5-1.7-2.8-1.5-3.7c-2.3-1.8-3.2-3.4-3.2-3.4c2.2-3.4-0.2-14.3,0.7-23.2c1-9,1.7-9,4.6-11.1c2.9-2.2,5.8-1,10.4-0.5
				c4.6,0.5,7.3-3.2,7.3-3.2l5.6-12.8c6.3,3.4,6.3,12.3,6.3,12.3l1.2,7.3l3.4,4.1C330.3,207,333.7,215.9,332.7,222.2z"/>
        <path id="element-77" class="st0" d="M252.2,313.5c0,0,5,0.7,3.3-4.9S247.3,312.5,252.2,313.5z"/>
        <path id="element-78" class="st0" d="M281.1,261.6c0,0,6.1-6.4,6.1-15.7s-0.6-14.1-0.6-14.1l-1.5-0.7l-0.1-3.4l-1.6-4.2c0,0,5.8-5.2,2.5-9.8
				c-3.3-4.6-5,0.3-7.4-1.8s-3.4-3.7-3.4-3.7l-1.6,3.7c0,0-1.8,4.9-4.7,5.5c-3,0.6-10.4,0.6-10.4,0.6l-0.2,8.3l-3.2,4.6
				c0,0-1,4.2,1.9,7.9c3,3.7,6.4,6.1,6.4,6.1s11-10.7,11.9-10.1s1.2,3.3,1,4.8c-0.1,1.5-1.6,12.3,0,15.4
				C277.7,258.1,277.4,261.9,281.1,261.6z"/>
        <path id="element-79" class="st0" d="M264.4,218.6c0,0,9.9-0.1,9-11.9c-0.9-11.7-9.9-12.5-14.1-9.9c-4.2,2.5-10.7,10.8-5.3,17.6
				C259.3,221.3,264.4,218.6,264.4,218.6z"/>
        <path id="element-80" class="st0" d="M274.2,202.3l4.3-13l11.7,0.7l25.4-16.8c0,0-1-7.7-8.5-9.8c0,0-18.8,12.6-27.9,19.7s-11.6,12.8-11.6,12.8
				l5.6,7.4L274.2,202.3z"/>
        <path id="element-81" class="st0" d="M307.1,163.5c0,0-5.6-3.7-15.9-0.3c-10.2,3.4-19.4,5.8-21.8,7.3c-2.4,1.5-4.5,5.3-4.9,7.1
				c-0.4,1.8-0.4,5.2-4.6,7.6s-3.7,1.8-5.2,4.2c-1.5,2.4-1.5,4.4-4,6.4s-2.2,5.5-2.7,8.2c-0.4,2.7-1,8-0.9,9.2
				c0.1,1.2,3.4,4.9,6.8,5.8c3.4,0.9,1-1.5,0-4.3c-1-2.8-4.3-8.2,1.3-14.2c5.6-6.1,12.3-4.3,12.3-4.3s4-7,13-13.9
				S307.1,163.5,307.1,163.5z"/>
        <polygon id="element-82" class="st0" points="587.3,434.1 587.6,445.3 543.1,445.8 479.9,446.8 467.3,448.4 441.7,447.8 384.5,449.4 317.6,451.4
				280.7,450.1 241.1,451.4 240.8,445.1 246.8,442.4 288.4,442.1 308.3,440.8 			"/>
        <polygon id="element-83" class="st0" points="235.8,620.4 228.7,622.2 225.5,573.3 225.3,573.3 174.6,568.3 175.9,597.6 175.4,620.2 168,620.9
				168.5,567.7 125.6,563.4 125.3,575.1 125.5,618.6 120.1,618.1 118.5,562.7 115,562.3 115.5,553.1 224.9,563.2 223.5,542.1
				218.9,486.1 215.6,423.3 216.9,421.3 221.5,423.6 225.1,462.8 233.5,584.3 			"/>
        <polygon id="element-84" class="st0" points="134,589.7 134.2,618.1 125.5,618.6 125.6,563.4 132.5,564 			"/>
        <polygon id="element-85" class="st0" points="143,564.9 132.5,564 132.4,563.7 			"/>
        <polygon id="element-86" class="st0" points="276.8,207.1 274.3,209.3 273.3,204.5 278.5,189.3 283,189.3 290.2,190 			"/>
      </g>
      <g id="outline">
        <path id="element-87" class="st1" d="M506.1,102.3c0,0,1.1,15.2-0.6,17.8c-1.7,2.6-8.3,9.2-12.9,9.5c-4.6,0.3-9.2-9.5-10.6-9.5s-0.3-2.9,1.1-2.9
				s-6.6-0.3-7.2-1.4c-0.6-1.1-1.7-6-1.7-6"/>
        <path id="element-88" class="st1" d="M472.3,107.2c0,0,2.6-2,2.3,0.3c-0.3,2.3,0,2.9-4.3,4c-4.3,1.1-4-0.6-3.7-5.7c0.3-5.2,0.3-12-0.9-12.6
				c-1.1-0.6-13.5-12-14.9-25.8"/>
        <path id="element-89" class="st1" d="M459.7,86.6c0,0,8-6.9,21.5-6"/>
        <path id="element-90" class="st1" d="M454.6,81.1c0,0-9.7-7.7-8.3-14s17.8-1.1,28.4,6.3c10.6,7.4,42.7,39,51.9,46.7c9.2,7.7,42.4,39,50.4,46.7
				c8,7.7,58.2,51.5,72.4,91.9s12.9,95.8,14.6,100.2c1.8,4.4,7.1,0.9,12.4,1.8c5.3,0.9,6.7-2.2,10.2-8c3.5-5.8,2.7-91.8-38.1-149.4
				s-77.6-84.7-98.4-102.4c-20.8-17.7-38.6-31.9-50.1-43.5c-11.5-11.5-13.7-16.4-24.4-21.3s-13.3-3.5-14.6-0.4S445.3,65,445.3,65"/>
        <path id="element-91" class="st1" d="M466.2,33c0,0,12.4-17.3,37.2-16.4c24.8,0.9,37.7,12.4,49.7,37.2c12,24.8,20.4,43.9,34.6,51
				s23.1,9.8,60.3,61.2c37.2,51.4,61.2,115.3,64.7,153.4s27.5,207.9,23.9,292.2"/>
        <path id="element-92" class="st1" d="M560.2,88.8c0,0,16,19.5,33.7,27.5"/>
        <path id="element-93" class="st1" d="M513.2,127.4c0,0,6.2,4.4,13.3-1.3"/>
        <path id="element-94" class="st1" d="M503.4,123c0,0,7.5,6.2,6.7,17.3s-4,50.5,4.4,74.5s10.2,21.7,15.5,19.1c5.3-2.7,15.5-13.7,21.3-15.5
				c5.8-1.8,12.9-3.5,18.2-11.5s13.7-17.3,26.6-20"/>
        <path id="element-95" class="st1" d="M499.4,126.5c0,0,7.5,9.8,8.9,28.8"/>
        <path id="element-96" class="st1" d="M566.8,211.7c0,0,5.8,14.2,21.7,14.6c16,0.4,27.5-0.9,35.5-8"/>
        <path id="element-97" class="st1" d="M581.9,225.8c0,0-7.1,14.6-7.1,25.7c0,0-10.6-1.3-24.4,22.2c-13.7,23.5-14.6,29.3-22.6,35
				c-8,5.8-9.8,3.1-5.3,7.5c4.4,4.4,7.1,6.2,5.3,8.4c-1.8,2.2,7.1,5.8,5.8,8.4c-1.3,2.7,3.5,7.5,3.1,8.9c-0.4,1.3,8.9-10.6,21.3-12
				c12.4-1.3,29.3,2.7,43.9-23.5c14.6-26.2,19.1-32.4,27-41.7c8-9.3,12-23.5,12-23.5"/>
        <path id="element-98" class="st2" d="M570.4,318.1c0,0,13.3,3.1,26.2-16"/>
        <path id="element-99" class="st2" d="M635.1,318.5c0,0,7.1-13.3,6.7-31"/>
        <path id="element-100" class="st2" d="M614.2,246.7c0,0,7.1-6.2,8.4-17.3"/>
        <path id="element-101" class="st2" d="M621.3,247.1c0,0,2.7-2.7,3.1-12"/>
        <path id="element-102" class="st2" d="M625.3,257.3c0,0,4.4-4.9,6.7-12"/>
        <path id="element-103" class="st1" d="M625.8,268.9c0,0,12-0.4,21.7-13.7"/>
        <path id="element-104" class="st2" d="M626.7,273.7c0,0,6.2-0.4,15.5-6.7"/>
        <path id="element-105" class="st2" d="M635.1,276.8c0,0,6.7-1.8,10.6-5.3"/>
        <path id="element-106" class="st1" d="M526.5,235.2c0,0,11.1,23.9,25.3,34.6"/>
        <path id="element-107" class="st1" d="M574.8,251.6c0,0-3.1-18.6-14.2-36.4"/>
        <path id="element-108" class="st1" d="M652.4,313.2c0,0-1.3,94.9-4.9,152.1s-9.8,149.4-9.8,149.4"/>
        <path id="element-109" class="st1" d="M543.3,263.1c0,0-21.7-3.1-38.1-23.9"/>
        <path id="element-110" class="st1" d="M514.9,250.2c0,0-33.7-8.4-56.3-37.7"/>
        <path id="element-111" class="st1" d="M510.5,195.3c0,0-11.1-7.1-24.4-10.2c-13.3-3.1-34.1-12-34.1-12s3.1,18.2-1.3,31c-4.4,12.9-8.9,3.5-9.8-8.4"/>
        <path id="element-112" class="st1" d="M446.6,210.3c0,0,9.8,1.3,17.3-5.3"/>
        <path id="element-113" class="st1" d="M453.3,210.3c0,0,8.9,5.3,19.1,2.2"/>
        <path id="element-114" class="st1" d="M469.1,86.4c0,0,5.6-1.4,11.7,1.1"/>
        <path id="element-115" class="st1" d="M470.8,90.1c0,0,8.4,2.1,11.9,1.9c0,0-1.6,0.6-2.6,1.6c-1,1-3.8,3.2-6.7,2.6"/>
        <path id="element-116" class="st1" d="M474.9,96.1c0,0-1.9-1.3-1.6-5"/>
        <path id="element-117" class="st1" d="M474.5,95.2c0,0,1.8-2.3-1.1-2.8C473.4,92.4,473.1,94.5,474.5,95.2z"/>
        <path id="element-118" class="st1" d="M451.9,175.2c0,0-16.7-6.1-25.2-4.3c-5.8,1.2-12.1,2.7-13.7,3.5c-2.8,1.4-8.1,7.8-9.1,9.1
				c-2.3,2.8-5.3,9.7-6.3,12.2c-1,2.5,3.9,1,5.8-1.7c1.8-2.7,2.7-5.1,4.5-7.1c3.3-3.8,7.2-6.2,7.9-6.7c1.2-0.7,5.3-0.1,7.2,0.5
				c1.9,0.6,5.1,3,3.9,4.5s-6.9,3.8-8.8,6c-1.9,2.3-8.4,2.7-10.3,3.7c-1.9,1-2.3,3.2,0.1,3.2c2.3,0.1,3.5,1.6,7.2,0
				c3.7-1.6,9.7-2.1,12.3-2.1c2.6,0,12.7-0.6,16.3-2.6c0,0,7.4,4.8,7.7,5"/>
        <path id="element-119" class="st1" d="M431,182.5c-0.3,0.1-2.3,3-4.5,3.6"/>
        <path id="element-120" class="st1" d="M448.3,174c0,0,11.2-7.4,12.9-11.5c1.7-4.1-1.1-3.7-5.1-1.9c-4.1,1.8-13.4,6.5-17.7,10.4"/>
        <path id="element-121" class="st1" d="M397.5,196.9c0,0-12.3,9.1-14.9,10.1c-2.6,1-9.8,1.1-17.4,6.6c-7.6,5.5-7.5,11.4-7.5,11.4s4.3,4.3,10.3,3.4
				c5-0.7,11.6-1.6,17.2-13.9c0,0,1.8-3.2,3.6-4.6c1.8-1.4,17.4-12.7,17.4-12.7"/>
        <path id="element-122" class="st1" d="M357.7,225c0,0,11.7,1.8,23.1-13.8c0,0,2.4-5-4.1-2.8"/>
        <path id="element-123" class="st2" d="M580.3,216.5c0,0,1.9,5.4,4.8,9.4"/>
        <path id="element-124" class="st2" d="M586.3,219.4c0,0,1.6,3.7,4,6.9"/>
        <path id="element-125" class="st2" d="M590.7,220.4c0,0,1.6,3.9,3.8,5.5"/>
        <path id="element-126" class="st2" d="M595.6,220.5c0,0,1.9,4,4.3,5.4"/>
        <path id="element-127" class="st2" d="M601.9,221c0,0,1.4,3.8,3.1,4.7"/>
        <path id="element-128" class="st2" d="M627.8,236.9c0,0,0.9,4.3-2.7,8.6"/>
        <path id="element-129" class="st1" d="M520.7,315c0,0-4.7,1.7-6,1.6c-1.3-0.1-10.3-0.1-15.4,0.9c-5.1,1-6.8,2-7.1,2.5c-0.3,0.6-4,8.4-4.4,10.4
				c-0.4,2,0,5.2,0.1,6.8c0.1,1.6,6.1,7.9,9.4,9.2"/>
        <path id="element-130" class="st1" d="M497.7,334.7c0,0,0.6,5.7,0.9,7s2.4,3.3,3.4,4.2c1,0.9,3.4,1.7,3.4,1.7s-0.9,0.8-2.9,0.9
				c-2,0.1-4.7-3.4-6.4-5s-3.1-3-3.8-5.4c-0.7-2.4-0.1-8.5-0.1-8.5"/>
        <path id="element-131" class="st1" d="M502.2,337.4c0,0,0.3,4.9,1.1,6.2s3,3.7,3,3.7s2.2-1,2.1-5.1c-0.1-4.1,0.8-6.7,3.3-7.6s8.1-2,11.1-5.4
				c3-3.4,4.2-3.9,4.2-3.9"/>
        <path id="element-132" class="st1" d="M506.3,347.2c0,0,3.1,5.4,4.7,7.9c1.6,2.4,0.6,8.1,2.1,9.6c1.6,1.6,5.8,5.3,10.1,1.1
				c4.3-4.2,0.2-8.6-2.2-9.4c-2.4-0.8-2.4-1.4-4.7-5.5c-2.2-4.1-7.3-13.3-7.3-13.3"/>
        <path id="element-133" class="st1" d="M516.5,359.4c0,0-1.6,2.8,0.8,3.3c2.3,0.6,2.4-0.9,2.1-2C519,359.6,517.7,358.9,516.5,359.4z"/>
        <path id="element-134" class="st1" d="M511.6,359c0,0-3.8,7.8,1.1,13.3s12.9,5.7,17.1,1.6c4.2-4.1,3.4-11.5,0.2-14.7c-3.2-3.2-7.8-5.4-11.3-4.1"/>
        <path id="element-135" class="st1" d="M490.7,322.8c0,0-6.3-10-9.1-12.4s-4.8-1.3-5.7-5.1s-0.2-5.7,2.8-6.8s6.3,1.1,6.7,3.9s1.4,4.2,2.9,5.9
				c1.4,1.7,7.8,9.3,7.8,9.3"/>
        <path id="element-136" class="st1" d="M479.5,304.8c0,0,1.3,1.1,2.5-0.2c1.2-1.3-0.2-2.9-1.9-2.8C478.5,301.9,479.5,304.8,479.5,304.8z"/>
        <path id="element-137" class="st1" d="M487.4,307.1c0,0,4.7-6.8-0.1-12.1c-4.8-5.3-12.5-3.3-15.6,0.9s-4.2,10.5-0.1,14.3s10.5,1.6,10.5,1.6"/>
        <path id="element-138" class="st2" d="M529.9,311.6c0,0,1.6-2.4,3.7-3"/>
        <path id="element-139" class="st2" d="M532.7,313.6c0,0,1.4-2.3,3.7-2.3"/>
        <path id="element-140" class="st2" d="M535.7,318.6c0,0,2.9-3,4.3-2.5"/>
        <path id="element-141" class="st2" d="M537.9,323.5c0,0,3.3,0.2,4.9-1.8"/>
        <path id="element-142" class="st2" d="M540.1,328.2c0,0,3,0.7,4.7-1.1"/>
        <path id="element-143" class="st2" d="M541.3,332.6c0,0,2.7,0.1,4.4-1.7"/>
        <path id="element-144" class="st2" d="M583.3,320.1c0,0,6.8-1.6,9.8-8"/>
        <path id="element-145" class="st1" d="M419.3,286c0,0,5.4-1.4,5.7-8c0.2-6.5-5-7.9-5-7.9"/>
        <path id="element-146" class="st1" d="M416.5,261.2c0,0,7.6-1.2,7.5-11.6s-8.3-15.6-8.3-15.6"/>
        <path id="element-147" class="st1" d="M438.3,234.9c0,0,4.2-6.5,2.4-12.5c-1.8-6-10.1-10.6-10.1-10.6"/>
        <path id="element-148" class="st1" d="M419.8,406.2c0,0,3.4,7.5,3.4,10s1.7,9.3,11.9,9.2c10.2-0.1,22.3,1.3,27.5-2.7s3.2-5.8,4.3-8.5"/>
        <path id="element-149" class="st1" d="M421.8,400.9c0,0-3.8-2.5-6.2-1.4c-2.4,1.1-1.2,4.3,0.6,5.3c1.8,1,1.8,1.6,9.8,1.8c8,0.2,34.7,0,34.7,0"/>
        <path id="element-150" class="st1" d="M422,401.7c0,0,0.8-5.1,7.1-10.2c6.3-5.1,12.6-5.4,21.2-4.5s15.3,9.6,16.8,14.5"/>
        <path id="element-151" class="st1" d="M448.3,386.5c0,0,1-2.8-0.4-4.5c-1.4-1.8-3.5-1.9-4.9-1.4c-1.3,0.4-4.9,2.5-3,5.7"/>
        <path id="element-152" class="st1" d="M490.7,399.5c5.3-1.7,9-3,8.6-5c-0.3-2-3.3-1.9-7.9-0.6s-17.3,6.8-19.3,7.5s-7.1,0.6-9.2,3.3
				c-2.1,2.8-1.9,5-0.3,6.7c1.6,1.7,3.7,2.4,5.2,0.9s3.7-5.1,6.8-6.7C477.7,404.2,485.3,401.2,490.7,399.5z"/>
        <path id="element-153" class="st1" d="M466.5,423.9c0,0,12.6,0.6,19.8,0"/>
        <path id="element-154" class="st1" d="M465.2,427.8c0,0,3.3,0.3,8.3,0"/>
        <path id="element-155" class="st1" d="M549.4,332.5c0,0,15.8,21.6,17.3,40.7c1.5,19.1,2.2,41.7-18.3,49.7c-20.5,8-49.4,1.2-66.2-20.3"/>
        <path id="element-156" class="st1" d="M478.7,398.2c0,0-18.5-21.6-32.1-45.4C433,329,427.2,312.6,426.9,295c-0.3-17.6,4.2-35.7,24.3-38.9
				c20.1-3.2,40.2,2.7,80.1,48.6"/>
        <path id="element-157" class="st1" d="M390.1,162.4c0,0,4.5-7.6,16.3-7.3c11.8,0.3,13.3,7.8,13.3,7.8"/>
        <path id="element-158" class="st1" d="M361,205.5c0,0-9-3.5-9.1-16.5s7.8-17,7.8-17"/>
        <path id="element-159" class="st1" d="M345.7,236.6c0,0-4.8-4.3-4.7-12.1c0.2-7.8,8.8-12.1,8.8-12.1"/>
        <path id="element-160" class="st1" d="M361.7,215.6c0.1-1.2,0.4-2,1.1-2.3c2.5-1.3,6.4-0.8,7.9,5.5s2.2,11.6,1.7,20.6c-0.5,9,1,13.1,0.8,18.3
				c-0.2,5.2-1.3,11.1-1.3,11.1"/>
        <path id="element-161" class="st1" d="M357,249.7c0,0,2.5-3.8,2.6-7.6c0.1-4.3,2-10.4,2.5-14.4"/>
        <path id="element-162" class="st1" d="M342.2,288.6c0,0,7,3.7,10.8,6.8c3.8,3.2,7.1,4.8,11.6,5.5c4.5,0.7,7.5,2.8,13.5,6.8c6,4,6.2,6,10.8,7
				s10,2,14.1,0.8c4.2-1.2,8.1-4.2,9.8-8.8c1.7-4.7,0.5-12.6-1-15.8c-1.5-3.2-5.8-3.8-11.3-3.5c-5.5,0.3-9.8,0.8-10.3-4.8
				c-0.5-5.7,0.8-8.3-1.5-12.3c-2.3-4-4.3-3.8-5.5-9.3c-1.2-5.5,0.5-6.2-6.2-10.3s-13.1-6.5-19.6-4.8c0,0-3.3,2-4.2,5
				c-0.8,3-2.8,6-1.2,8.5c1.7,2.5,3.7,4.8,1.5,4.5c-2.2-0.3-3.5-2.3-3.8,0.3s4.3,7.8,6.5,10c2.2,2.2-1.7,3.2-3.5,0.8
				s-2.5-3.2-3.2-1.8c-0.7,1.3-5.8,6-7.1,14.1c-0.9,5.2-3.5,6.8-1.8,7.8c1.7,1,11.6,8,15,8.5s4.5-2.8,4.5-2.8"/>
        <path id="element-163" class="st1" d="M359.2,245.4c0,0-6,3.3,0.3,8.5c6.3,5.2,6.7,5.2,11,5.7c4.3,0.5,7.1,0,8.3,7.8c1.2,7.8-0.5,13.8,6.3,17.6
				c6.8,3.8,11,6.5,11,7.3c0,0.8-0.5,3-4.7,2.7"/>
        <path id="element-164" class="st1" d="M366.2,300.8c0,0,3.7-0.2,10,3c6.3,3.2,9.6,5.7,13.8,8s13.1,2.8,16.3-1.8"/>
        <path id="element-165" class="st2" d="M408.1,292.5c0,0-2.2,0.7-2.5,4s-1.7,4.8,0.3,5.3c2,0.5,3.2,0.3,3.8-2.7
				C410.4,296.1,408.1,292.5,408.1,292.5z"/>
        <path id="element-166" class="st2" d="M386.5,291.8c0,0,1-3.8-1.8-2.5S384.1,294.3,386.5,291.8z"/>
        <path id="element-167" class="st2" d="M388.3,279.2c-0.2-0.9-2.2-0.8-2.8-0.1c-0.3,0.4,0,1.9,0.8,2.4C387.6,282.5,388.6,280.3,388.3,279.2z"/>
        <path id="element-168" class="st2" d="M385.6,273.3c0,0,2-1.5-0.2-3.2c-2.2-1.7-2,1.7-1.8,2.2C383.8,272.8,384.1,273.7,385.6,273.3z"/>
        <path id="element-169" class="st2" d="M378.8,284.8c0,0,2-1.7,0.3-3.3c-1.7-1.7-2.7,1-2.3,2.3C377.1,285.2,378.8,284.8,378.8,284.8z"/>
        <path id="element-170" class="st2" d="M374,276.5c0.7,1.1,2.3,0.9,2.7-0.3c0.4-1.1,0.5-2.2-0.9-2.4C373.1,273.5,373,274.8,374,276.5
				C374,276.5,374,276.5,374,276.5z"/>
        <path id="element-171" class="st2" d="M372.2,270.4c0,0,1.8,0,1.5-2.2c-0.3-2.2-3-2.2-3.5-0.8S369.8,270.7,372.2,270.4z"/>
        <path id="element-172" class="st1" d="M426.8,297.8c0,0-7.7,0.1-13.1,0.5"/>
        <path id="element-173" class="st1" d="M426.9,302.3c0,0-6,0-12.9,0.5"/>
        <path id="element-174" class="st1" d="M373.2,305.1c0,0-36.7,1.9-48.7,2.6c-12,0.8-28.6,1.1-36,6.2c-5.5,3.8-5.9,11.7,22,12.4"/>
        <path id="element-175" class="st1" d="M351,302c0,0-30.7,1.8-45.7,3c-15,1.2-21.6,5-25.1,8.9c-3.5,3.8-3.5,8.9,4.6,11.1s26.9,2.6,48.7,2.2
				c21.8-0.4,65.4-1.5,98-4.5"/>
        <path id="element-176" class="st1" d="M335.3,299.1c0,0-3.1,9.7,3.1,15.2s14.9,3.9,14.9,3.9"/>
        <path id="element-177" class="st1" d="M277.5,320.1c0,0-3.9,1.2-3.5,7.3c0.3,4.9,4.2,6.2,6.4,7c8.2,3.1,85.1,7.1,155.2-1.6"/>
        <path id="element-178" class="st1" d="M279.4,349.5c-2.4-1-2.5,3.7-1,5.7s13,5.9,24.3,4.3c11.3-1.6,13.3-4.2,13.8-5.7c0.5-1.5-3.6-1.9-10.5-1.4
				C299.1,352.8,281.8,350.5,279.4,349.5z"/>
        <path id="element-179" class="st1" d="M289.7,379.4c0,0,18.1,7.3,44,8.5c26,1.2,97.2,1.5,97.2,1.5"/>
        <path id="element-180" class="st1" d="M456,388.5c0,0,10.6,0.1,14.4-0.4"/>
        <path id="element-181" class="st1" d="M311.5,394.7c0,0,28.9,3.6,65.1,3.4s46.3-0.2,46.3-0.2"/>
        <path id="element-182" class="st1" d="M478.2,465.9v-7.6c0,0,34.1-1,45.2-0.9"/>
        <path id="element-183" class="st1" d="M406.5,486.5c0,0,29.2-1.1,35.2-1.6c5.9-0.5,7.6-1,7.6-1"/>
        <path id="element-184" class="st1" d="M406.2,503.8c0,0,21.4-0.9,36.5-0.7"/>
        <path id="element-185" class="st1" d="M437.2,509.8c0,0,0.8,5.8,0.7,8.9"/>
        <path id="element-186" class="st1" d="M384.8,515.2c0,0,0.9,5.1,0.5,8.5"/>
        <path id="element-187" class="st1" d="M376.6,524.8c0,0,17.7-3.1,34.1-2.8c16.3,0.2,35.4-0.9,35.4-0.9"/>
        <path id="element-188" class="st1" d="M314,527.5c0,0,16.1-0.7,26.1-1.2c10-0.5,19.1-1.4,27.1-0.7"/>
        <path id="element-189" class="st1" d="M346.1,514.7c0,0-0.3,5.8,0.1,7"/>
        <path id="element-190" class="st1" d="M311.2,510.9c0,0,11.6-0.7,13.6-0.9"/>
        <path id="element-191" class="st1" d="M339,487c0,0-6.7-0.3-8.8,2.4c-2.1,2.7-1.9,7.3-0.2,7.9c1.6,0.5,8.2-4.5,13-3.8s14.6,4.4,20.2,2.5
				c5.6-1.9,8.3-4.8,7.9-7.9s-3.2-4.3-5.5-1.2c-2.3,3.1-4.3,5.9-9.9,4.4C350.2,489.8,343.4,487.1,339,487z"/>
        <path id="element-192" class="st1" d="M338.2,494.2c0,0-0.1,14.4,0.2,14.4c0.3,0,18.6-1.8,23.7-2.2s26.4-1.9,26.7-2.4c0.3-0.5-0.7-31.1-0.8-33.1
				c-0.1-2,0.9-3.3-2.6-3.3s-29.7,2.4-38.2,2.8s-10.2,1.6-10.2,1.6l0.4,14.2"/>
        <path id="element-193" class="st1" d="M388.7,498.6c0,0,4-1.6,3.9-5.1c-0.1-4.4-4.3-5.1-4.3-5.1"/>
        <path id="element-194" class="st1" d="M388.5,483.2c0,0,3.8-0.4,3.7-5.4c-0.1-4.3-4.1-4.8-4.1-4.8"/>
        <path id="element-195" class="st1" d="M315.7,545.1c0.3,0.1,31.1-0.3,45.6-0.7s16.1,0.2,16.1,0.2"/>
        <path id="element-196" class="st1" d="M313.6,563.9c0,0,16.7-0.2,30.6-0.9c13.9-0.7,28.6-1.2,28.6-1.2"/>
        <path id="element-197" class="st1" d="M313.5,580.3c0,0,13.4-0.7,24.6-1.1c11.3-0.4,27.4-0.7,27.4-0.7"/>
        <path id="element-198" class="st1" d="M310.2,592.2c0,0,19-0.2,29.9-0.4c11-0.2,19.1,0.1,19.1,0.1"/>
        <path id="element-199" class="st1" d="M377.4,584.2c0,0,0.8,3.9,0.3,7.9"/>
        <path id="element-200" class="st1" d="M391.5,546.8c0,0,1,3,0.5,10.8"/>
        <path id="element-201" class="st1" d="M404.8,564c0.1,0.3,0.7,10.1,0.7,10.1"/>
        <path id="element-202" class="st1" d="M398.4,541.9c0,0,22.2-0.8,31.8-0.7c9.5,0.1,10.5,0.2,10.5,0.2"/>
        <path id="element-203" class="st1" d="M401.3,558.1c0,0,19.4-1.8,32.5-1.8s35.8-2.1,35.8-2.1"/>
        <path id="element-204" class="st1" d="M437.5,572.1c0,0,17.4-0.7,27.5-0.9c10.1-0.2,14.4-0.5,14.4-0.5"/>
        <path id="element-205" class="st1" d="M430.5,594.4c0,0,14.9,0,31-0.4"/>
        <path id="element-206" class="st1" d="M462.4,530.3c0,0-4.3,1-4.4-4.5c-0.1-5.5,4.2-6.7,4.2-6.7"/>
        <path id="element-207" class="st1" d="M460.9,505.3c0,0-4.3-0.3-4.9-5.7s4.7-6.1,4.7-6.1"/>
        <path id="element-208" class="st1" d="M460.2,487.5c0,0,2.4,26.2,2.5,35.8c0.1,9.6,0.1,9.6,0.1,9.6s20.3-1.3,35.3-1.4c15-0.1,31.9-0.8,31.9-0.8"/>
        <path id="element-209" class="st1" d="M530.1,499c0,0-0.3-12.7-0.5-14.1c-0.2-1.4-10-0.3-16.9-0.2c-6.9,0.1-19.8,0-28.2,0.8
				c-8.3,0.8-21.1,0.5-21.1,0.5"/>
        <path id="element-210" class="st1" d="M536.5,501.1c0,0,0.8,6.2,0.8,9.3"/>
        <path id="element-211" class="st1" d="M510.9,504.2c0,0,10.5-1.2,14.4-3s8.3-5.1,14-4.8c5.7,0.3,14.1,6.7,11.9,9.9c-2.2,3.2-3.3,1.9-7.1,0.2
				c-3.8-1.6-7.4-3.7-14.2-1.6c-6.8,2.1-12,8.3-21.6,7.3c-9.5-1-13.1-5-12.9-9.3c0.2-4.3,4.5-6,5.9-4.2
				C502.7,500.6,501.8,505.2,510.9,504.2z"/>
        <path id="element-212" class="st1" d="M535.1,520c0,0,10.8-2.2,20-2.4c9.2-0.2,14.6-0.9,14.6-0.9"/>
        <path id="element-213" class="st1" d="M561.1,499.1c0,0,2.8,0.8,5.7,0.1"/>
        <path id="element-214" class="st1" d="M539.7,490.1c0,0,7.2-1.1,14.9-1.4c7.7-0.3,13.8,0.2,13.8,0.2"/>
        <path id="element-215" class="st1" d="M499.1,547.6c0,0,16-1.2,23.1-0.7c7.1,0.5,8.5,0.7,8.5,0.7"/>
        <path id="element-216" class="st1" d="M511.2,538.9c0,0-0.1,5.4,0.3,7.7"/>
        <path id="element-217" class="st1" d="M495.4,556.1c0,0,0.7,4.5,0.4,9.5"/>
        <path id="element-218" class="st1" d="M491.5,565.9c0,0,9.7,0.1,19.1-0.8s18.7-0.4,18.7-0.4"/>
        <path id="element-219" class="st1" d="M537.9,552.7c0,0,7.1-0.3,17.9-1.3c10.7-1,16.3-0.9,16.3-0.9"/>
        <path id="element-220" class="st1" d="M547.8,543.5c0,0,0.5,1.6,0.8,7"/>
        <path id="element-221" class="st1" d="M540.7,560.6c0,0-1.1-2.8-0.9-7.7"/>
        <path id="element-222" class="st1" d="M536.8,535c0,0,12.5-1.2,18.2-1.2"/>
        <path id="element-223" class="st1" d="M522.9,577.4c0,0,10.7,0.5,21.6,0.4s19.9-1.3,23-0.5"/>
        <path id="element-224" class="st1" d="M519.5,596.1c0,0,22.9-2.4,25.6-2.7c2.7-0.3,7.3-0.1,7.3-0.1"/>
        <path id="element-225" class="st1" d="M516.8,468.8c0,0,13-1.9,27.2-2.5c14.1-0.7,18.2-1.4,18.2-1.4"/>
        <path id="element-226" class="st1" d="M546.2,475.6c0,0,0.5-8.9,0.5-9.3"/>
        <path id="element-227" class="st1" d="M551,458.1c0,0,11.2-2.6,28-3.1"/>
        <path id="element-228" class="st1" d="M585.2,613c0,0,2.2-11.4,2.1-18.2c-0.1-6.8-3.8-8.8-4.4-16.3c-0.5-7.6,1-7.4,1.3-9.6c0.3-2.2-1.6-3.8-2.6-6
				c-1-2.2,0.2-4.7,1.3-8.2c1.1-3.5,2.7-3.7,1.1-6.5c-1.6-2.7-2.6-1.3-3-10.2s-0.8-8.4-2.8-11.5c-2.1-3.1-1.5-4.4,0-6.7
				c1.5-2.3,1.8-5.5,1.3-15c-0.4-9.5-0.9-19.5-0.7-23.2c0.2-3.7-0.2-3.6,3-4.3s4.2,1.3,4.2-2s-0.1-10-0.3-11.4
				c-0.2-1.4-1.6-0.1-3.9-1.6c-2.3-1.5-3.1-3.1-3-4.8s0.1-12.4,0.1-12.4"/>
        <path id="element-229" class="st1" d="M297.9,613.4c0,0,1.2-27.3,1.9-45.6c0.7-18.3,2.6-40.1,3.3-53.5c0.7-13.4,2.8-31.8,3.1-44s0.5-28.5,1.3-37.7
				c0.8-9.2,1.3-21.3,1.3-21.3"/>
        <path id="element-230" class="st1" d="M587.5,434.2c-22.5-0.1-110.2,3.4-129.5,3.9c-19.3,0.5-78.9,1-96.5,1.4c-17.6,0.4-48.7,1.1-54.2,1.5"/>
        <path id="element-231" class="st1" d="M561.4,413.7c0,0,23.2,17.3,24.5,18.4s2,0.7,2.2,5.8c0.2,5.1,0.2,6.4-0.1,6.9c-0.3,0.5-37.8,0.4-37.8,0.4
				s-66.8,1.8-74.3,2.4s-14.9,1.3-23.8,0.8c-8.9-0.5-60.8,0.7-60.8,0.7s-30.6,0.5-47.7,1.1c-17.1,0.5-35.2,1.9-36.8,0.7"/>
        <path id="element-232" class="st1" d="M240.2,443.7c0,0,1.2,5,0,9.4c-1.2,4.4-4.8,7.1-4.8,7.1"/>
        <path id="element-233" class="st1" d="M275.4,463.9l-26.2,0.4c0.7-5.5-0.4-8.7-0.4-8.7"/>
        <path id="element-234" class="st1" d="M240.7,499.3C240.7,499.3,239.9,499.5,240.7,499.3c3.6-1.1,13.1-4.1,21.6-5.7c10.4-1.9,28.3-8.3,28.3-8.3
				l0.5-53.3c0,0-35,6.5-55.2,14.2c0,0-0.5,9.9,0.5,20.9s2.1,22.1,2.7,24.9c0.5,2.8,0.5,5.7,0.5,5.7l1.6,16.5c0,0,1.9,17.5,1.9,26.2
				c0,8.7,0.5,17.9,0.5,17.9s17.9-7.6,26.9-11.1s18.2-6.9,18.2-6.9l1.1-35.7c-3.4,1.2-14.9,1.9-24.8,5.5c-9.9,3.5-23.4,7.4-23.4,7.4
				"/>
        <path id="element-235" class="st1" d="M260.9,516.4c0,0,12.7-0.5,20.9,0.7"/>
        <path id="element-236" class="st1" d="M274,523.9c0,0,0.7-0.7,0.4-7.1"/>
        <path id="element-237" class="st1" d="M261.8,563.9c0,0,8.5,0.2,15.2-0.4c6.7-0.5,6.4,0.4,6.4,0.4"/>
        <path id="element-238" class="st1" d="M249.8,582.3c0.7-0.2,13.8-2.1,23.9-1.9"/>
        <path id="element-239" class="st1" d="M263,571.6c0,0,0.7,3.7,0.2,8.7"/>
        <path id="element-240" class="st1" d="M286.6,410.4l-57.7,12.7l-0.9-1.8l-6.5,1.8c0,0,3.9,34,5.5,63.2c1.6,29.2,3.5,53.1,4.2,69.4
				s4.4,60.9,4.4,60.9"/>
        <path id="element-241" class="st1" d="M293.1,612.9c0,0,1.8-54.9,2.5-89.4s3.5-88.7,3.7-92.9c0.2-4.2-0.4-3.4-2.3-3.2c-1.9,0.2-17.2,3-34.5,7.8
				c-17.3,4.8-28.7,8.8-29.7,9.2c-1.1,0.4-2.1,0.2-1.6,6c0.5,5.8,3,31.5,4.2,53.8c1.2,22.3,3.5,41.9,4.6,55.2s2.5,55.4,2.5,55.4"/>
        <path id="element-242" class="st1" d="M289.6,536.1c0,0-19.5-6.2-29.6-7.6c-10.1-1.4-12.9-1.9-12.9-1.9"/>
        <path id="element-243" class="st1" d="M242.7,530.2c0,0,4.1-0.2,4.6-5.1c0.5-5-5.5-5-5.5-5"/>
        <path id="element-244" class="st2" d="M252.1,550.1c0,0,10.3-5.5,14.5-7.6s8.3-4.2,8.3-4.2"/>
        <path id="element-245" class="st2" d="M248.5,546.7c0,0,5.1-3,11.9-5.7"/>
        <path id="element-246" class="st1" d="M243.8,558.2l1.1,9.6c0,0,8.1-3.9,19.8-8.5c11.7-4.6,24.6-8.7,24.6-8.7"/>
        <path id="element-247" class="st1" d="M244.8,566.7c0,0,1.4,31.5,2.3,48"/>
        <path id="element-248" class="st1" d="M228,421.4c0,0-6.7-0.4-8-0.4c-1.2,0-5,1.8-5,1.8s0.4,11,1.2,19.1c0.9,8.1,0.9,30.8,3.7,55.9
				c2.8,25.1,2.8,32.9,4.2,54.1c1.4,21.2,4.2,64.2,4.2,64.2"/>
        <path id="element-249" class="st1" d="M225.9,573.2c0,0-107.1-10.8-109.4-11c-2.3-0.2-1.2-4.1-1.1-8.8c0,0-0.2-1.2,0.9-1.9
				c1.1-0.7,25.1-13.6,25.1-13.6"/>
        <path id="element-250" class="st1" d="M115.5,553.4c0,0,43.4,4.2,66,6.7s43.9,4.1,43.9,4.1"/>
        <path id="element-251" class="st1" d="M132.6,564.4c0,0,1.6,18.6,1.4,29.6c-0.2,11,0.2,22.1,0.2,22.1"/>
        <path id="element-252" class="st1" d="M119,562.6c0,0,1.2,16.1,1.1,28.7c-0.2,12.6,0.2,23.7,0.2,23.7"/>
        <path id="element-253" class="st1" d="M125.9,616.6c0,0,0.5-9.9,0-27.2c-0.5-17.3-0.9-25.8-0.9-25.8"/>
        <path id="element-254" class="st1" d="M168.9,614.5c0,0-0.2-43.2,0-45.5c0.2-2.3,0-1.4,0-1.4"/>
        <path id="element-255" class="st1" d="M175.3,615c-0.2-1.6,0.7-20.7,0.2-28.1c-0.5-7.4-0.7-18.4-0.7-18.4"/>
        <path id="element-256" class="st1" d="M182,614.6c0,0-0.4-22.5-0.2-31.1c0.2-8.7-0.2-14.9-0.2-14.9"/>
        <path id="element-257" class="st2" d="M197.8,553.9c0,0,12.9-7.4,18.2-11.5"/>
        <path id="element-258" class="st1" d="M172.8,526.7c0,0-0.4,3.4,0.4,3.9s10.1,5.1,15.6,7.3c5.5,2.1,11.3,6.4,8,12.4c-3.4,6-10.8,5.7-19.1,3.7
				c-8.3-1.9-19.5-2.3-27.3-5.7s-10.8-8-7.4-15.2s3.2-13.1,3.2-13.6"/>
        <path id="element-259" class="st1" d="M146.6,533.1c0,0,3.7,6,14.5,2.3c10.8-3.7,10.6-4.6,10.6-4.6"/>
        <path id="element-260" class="st1" d="M176.5,533.4c0,0-5,4.6-7.3,6.5c-2.3,1.9,4.6,3.2,8,3.4c3.4,0.2,5-0.9,5.8-2.7c0.9-1.8,0-5.1,0-5.1"/>
        <path id="element-261" class="st1" d="M182.7,551.3c0,0,3.4,0.5,6.7-1.1s3.5-4.6,3.5-4.6"/>
        <path id="element-262" class="st1" d="M194.2,527.1c0,0-0.4,2.5,2.8,4.2c3.2,1.8,15.6,5.8,25.5,3.2"/>
        <path id="element-263" class="st1" d="M135.3,342.8c0,0-1.8,9.6,12,11.5c13.8,1.9,26.4-0.9,30.3-4.4c3.9-3.5,5.3-2.7,5.7-15.6"/>
        <path id="element-264" class="st1" d="M171.9,333.6c0,0,7.3,4.1,5.7,16.3c0,0,9.9,11,14.5,20c0,0-5.8,10.6-11.5,28.7c-5.7,18-9,35.4-9.2,49.4
				c-0.2,14,1.2,30.3,0.7,31.7s-3.4,4.1-10.6,0.5c-7.3-3.5-9.7-3.7-13.3-2.8c-3.5,0.9-10.8-3.2-15-10.6c-4.2-7.4-12-4.2-14.2-3.9
				c-2.1,0.4-4.1-8.1-7.6-7.1c-3.5,1.1-8.3,3.9-14.3-0.5c-6-4.4-12.6-6.2-12.6-6.2"/>
        <path id="element-265" class="st1" d="M177.4,332.2c0,0,4.6,5.1,3,14.5"/>
        <path id="element-266" class="st1" d="M171.6,458.6c0,0,6.7-0.7,9,4.8s3.5,7.3,9.4,8.1c5.8,0.9,8.3,2.1,14.5,5.8c6.2,3.7,7.4,4.6,8.8,4.4
				c1.4-0.2,4.6-3.5,4.6-3.5"/>
        <path id="element-267" class="st1" d="M207.1,468.5c0,0,3.5,0.7,7.6-3.4c4.1-4.1-1.9-10.4-5-11.1s-7.1,2.3-7.3,7.4
				C202.4,466.5,204.3,468.3,207.1,468.5z"/>
        <path id="element-268" class="st1" d="M173.5,427.4c0,0,2.5,5.5,8,2.5c5.5-3,2.8-9.9,0.2-11.3c-2.7-1.4-5.7-0.7-6.9,0.9"/>
        <path id="element-269" class="st1" d="M190.5,419.8c0,0,4.1,2.8,6.7-1.2c2.7-4.1,1.4-10.1-2.3-11.1c-3.7-1.1-7.4,0.2-8,6
				C186.4,419.3,190.5,419.8,190.5,419.8z"/>
        <path id="element-270" class="st1" d="M209.8,419.3c0,0,3.9,0.9,6.5-3.2c2.7-4.1,0.7-8.7-4.4-8.8s-5.8,2.5-5.8,5.5
				C206.1,415.8,206.8,418.9,209.8,419.3z"/>
        <path id="element-271" class="st1" d="M226.2,406.2c0,0-4.8,1.8-2.8,6.4c1.9,4.6,6.9,2.7,6.9,2.7"/>
        <path id="element-272" class="st2" d="M86.1,458.6c0,0,4.8,6.9,12.7,6.9s9.4,0.9,10.8,3.4c1.4,2.5,6.5,4.2,10.4,3.7c3.9-0.5,0.5,6,5.3,6.7
				c4.8,0.7,6.5-1.6,8.1,2.3c1.6,3.9,3.4,6,7.3,5c3.9-1.1,5.8,1.6,6.5,3.9c0.7,2.3,3.5,2.5,6.4,1.4c2.8-1.1,4.1,2.5,5.5,4.1
				s6.2,0.4,8.7-0.9c2.5-1.2,2.5,1.8,5,3.2s3.4-0.4,5.5-2.3c2.1-1.9,3.2,2.1,5.8,2.8c2.7,0.7,6.2-0.2,8.8-1.9
				c2.7-1.8,3.7,0.9,5.7,1.8c1.9,0.9,5.1,1.2,6.4-0.5c1.2-1.8,2.5-2.8,5-1.4c2.5,1.4,3.9,1.1,5.1-0.7"/>
        <path id="element-273" class="st2" d="M218.1,503.3c0,0-2.7,1.8-4.8,0.5c-2.1-1.2-3.9,0.5-5.8,2.3c-1.9,1.8-4.2-0.2-5.8-1.6s-4.6,1.6-6.7,2.7
				c-2.1,1.1-3.5,1.6-5.8-0.7s-2.8-2.1-5.8,0s-6.4,1.8-7.6-1.4c-1.2-3.2-3.7-0.5-6.4,0.9c-2.7,1.4-4.6-0.5-7.1-2.8
				c-2.5-2.3-8.1-2.5-9.6-1.8c-1.4,0.7-4.8-0.5-6.2-3.2c-1.4-2.7-3.2-3.7-7.3-2.1s-4.8-0.9-5.8-3.4c-1.1-2.5-2.7-3.4-5.7-2.1
				c-3,1.2-3.2,0-4.1-3s-6.4-4.4-8.7-2.7c-2.3,1.8-4.1-0.4-5.3-3.5c-1.2-3.2-7.8-4.6-11.5-2.7c-3.7,1.9-7.4-2.3-8.3-5.3
				s-6.4-1.2-6.4-1.2"/>
        <path id="element-274" class="st2" d="M83.3,483c0,0,3.9,0,5.5,2.8c1.6,2.8,4.6,2.3,8.1,1.4s5.1,0,6.5,2.7c1.4,2.7,3.5,4.2,7.3,3.5s6-0.5,7.3,2.8
				c1.2,3.4,3.2,4.4,6,3.5c2.8-0.9,4.2,0.5,5.8,3c1.6,2.5,3.7,3.9,6.5,2.8c2.8-1.1,3.5-0.5,5.1,2.3c1.6,2.8,5.3,3.2,8.3,1.8
				s3.9,0.2,5.8,3c1.9,2.8,4.8,3.9,8.3,1.6c3.5-2.3,7.4,0.4,9.2,2.3c1.8,1.9,6.2,1.6,8.5,0c2.3-1.6,5.5-2.1,9.2-0.2
				c3.7,1.9,3.9,2.3,6.7-0.2c2.8-2.5,3.5-3,6.5-1.1c3,1.9,5.3,0.9,7.8-1.2c2.5-2.1,2.1-3.5,4.6-1.9c2.5,1.6,4.4-0.7,4.4-0.7"/>
        <path id="element-275" class="st1" d="M147.3,354.4c0,0-3.9-2.3-0.4-10.1c3.5-7.8,15.7-3,14.3,4.1c-1.4,7.1-5.8,6.9-5.8,6.9"/>
        <path id="element-276" class="st1" d="M185.4,359.8c0,0-3-4.6,3.2-9.6c6.2-5,14.5,4.2,10.1,10.8s-10.4,2.7-10.4,2.7"/>
        <path id="element-277" class="st1" d="M195.6,335.2c0,0,5.3,0.7,7.4-4.6c2.1-5.3-2.1-10.1-7.4-7.8C190.3,325.2,190.1,333.8,195.6,335.2z"/>
        <path id="element-278" class="st1" d="M168.4,316.7c0,0,4.8,0.7,6.5-5c1.8-5.7-4.2-8-8.5-5.7C162.2,308.3,162.4,316.5,168.4,316.7z"/>
        <path id="element-279" class="st1" d="M191.2,297.7c0,0-6.5-1.8-7.1,6c-0.5,7.8,9,6.2,10.8,0.7C196.7,299,191.2,297.7,191.2,297.7z"/>
        <path id="element-280" class="st2" d="M199.9,300.7c0,0,2.5,0.5,1.9-3.2c-0.5-3.7-4.4-3-5.3-0.2C195.6,300.2,197.4,301.3,199.9,300.7z"/>
        <path id="element-281" class="st2" d="M201.3,308.7c0,0,3.7-1.9,2.3-5s-5.8-1.4-5.8,0.9S198.3,309.2,201.3,308.7z"/>
        <path id="element-282" class="st2" d="M205.9,313.8c0,0,2.3,0.5,2.8-3c0.5-3.5-4.4-3.7-5.5-1.8C202.2,311,203.1,314.9,205.9,313.8z"/>
        <path id="element-283" class="st2" d="M210.5,319.3c0,0,3.5-1.2,2.5-4.8c-1.1-3.5-5.7-2.1-5.7,0.5C207.3,317.7,208.4,319.7,210.5,319.3z"/>
        <path id="element-284" class="st2" d="M214,326c0,0,3.4-0.2,3.7-3.7c0.4-3.5-3.2-4.2-5-2.7S210.7,325.7,214,326z"/>
        <path id="element-285" class="st2" d="M216.5,330.3c0,0,2.5,1.9,4.1-0.9s-0.5-4.8-2.5-4.6C216.2,325,214.6,329.6,216.5,330.3z"/>
        <path id="element-286" class="st2" d="M216.7,333.3c0,0-1.2,2.5,1.2,3s4.8,0.4,4.4-2.7S217.9,330.8,216.7,333.3z"/>
        <path id="element-287" class="st2" d="M222.2,325.9c0,0,3.5-1.2,2.5-4.6c-1.1-3.4-5.3-2.1-5.3,0.7S220.4,325.7,222.2,325.9z"/>
        <path id="element-288" class="st2" d="M225,318.6c0,0,2.7-1.1,1.4-3.9s-4.1-3.2-4.8-0.2S222.7,318.8,225,318.6z"/>
        <path id="element-289" class="st2" d="M225.7,311.5c0,0,3.2,0.5,3.7-1.9s-3-4.8-4.8-2.7C222.9,309.1,223.6,310.8,225.7,311.5z"/>
        <path id="element-290" class="st1" d="M219.7,339.1c0,0,0.9,5.7,0.2,14"/>
        <path id="element-291" class="st1" d="M230.1,320.7c0,0,0,16.6-1.9,25.7c-1.9,9-2.3,18.2-2.1,27.1c0.2,8.8,0.5,19.3-4.6,31
				c-5.1,11.7-14.5,33.8-14.5,33.8"/>
        <path id="element-292" class="st1" d="M223.4,399.5l9.6,21.8c0,0,9.6-15,25.3-27.8"/>
        <path id="element-293" class="st1" d="M277.6,372.8c0,0,3-3.5,8.3-6.7"/>
        <path id="element-294" class="st1" d="M225,289.1c0,0-3.7,5-1.6,10.3s4.4,6.4,10.1,11.5s8.7,8,11.9,17.5c3.2,9.6,6,21.8,14.7,31.3
				s24.6,17.2,26.4,19.5c1.8,2.3-0.5,3.2-1.9,3.9s-7.4,7.3-8.5,9.7c-1.1,2.5-5.8,3.7-12.9,2.1c-7.1-1.6-14.3-3.7-24.8-15.2
				c-10.4-11.5-12.4-13.4-12.4-13.4"/>
        <path id="element-295" class="st1" d="M227.1,365.3c0,0,6.7-9.9,7.3-18c0.5-8.1,4.8-20.5,4.8-20.5"/>
        <path id="element-296" class="st1" d="M226.4,355.9c0,0,3.9-6.4,5.1-13.4c1.2-7.1,3-17.2,3.2-17.9"/>
        <path id="element-297" class="st1" d="M227.7,368.3c0,0,6-3.9,14-9.4c8-5.5,10.3-10.1,10.3-10.1"/>
        <path id="element-298" class="st1" d="M270.8,391.5c0,0,2.8-4.2,3-5.8c0.2-1.6,4.2-3.7,5.5-5"/>
        <path id="element-299" class="st1" d="M191.1,373.1c0,0,5.5,3.7,8.3,3.8s8.1-2.2,12.6-1.2c4.5,1,6,0.7,10,3s3.5,3,3.3,4.7
				c-0.2,1.7-3.8-0.7-3.8-0.7"/>
        <path id="element-300" class="st1" d="M217,378.8c0,0,4,5,5.3,7c1.3,2,2,3.2,0.8,5.5s-2.2,2.3-2.7,3.3c-0.5,1-2.2,2.2-2.8,3.5
				c-0.7,1.3-4,2.5-4.3,3.7c-0.3,1.2-1.8,2.8-2.8,3.2c-1,0.3-5.8,0.2-10-4.8s-4.5-9.1-8.6-12.1c-4.2-3-7.1-3.5-7.1-3.5"/>
        <path id="element-301" class="st1" d="M286,382.6c0,0,4.5,0.8,9.8,4c5.3,3.2,14.1,6.8,18,10.6c3.8,3.8-1.7,2.5-6.3-0.2"/>
        <path id="element-302" class="st1" d="M304.2,395.6c0,0,4.8,5.2,6.8,8.1c2,3,1.5,5.7-4,0.7c-5.5-5-6.8-6.8-6.8-6.8"/>
        <path id="element-303" class="st1" d="M295.7,400.5c0,0,6.7,6.7,9.8,9.3c3.2,2.7,6.3,0.8,1.5-5.5"/>
        <path id="element-304" class="st1" d="M287.5,399.9c0,0,4.3,5.7,8.3,9.8c2.6,2.6,4.6,5,6.5,3.7c2.4-1.8-6.3-11.5-6.3-11.5"/>
        <path id="element-305" class="st1" d="M276,392.7c0,0,1.6,1.1,3.6,3.6s2.7,6.8,5.2,9.6s7.3,7.8,8,5.8c0.8-2.5,0-3.3-1.3-5.3
				c-1.6-2.4-4.2-5.7-4.2-5.7"/>
        <path id="element-306" class="st2" d="M145.2,378.8c0,0,3-6.5,6.8-11.1"/>
        <path id="element-307" class="st2" d="M151.7,375.6c0,0,1.3-3,3.8-6.5"/>
        <path id="element-308" class="st2" d="M143.9,372.4c0,0,4-8.3,7.1-13.5"/>
        <path id="element-309" class="st2" d="M141,367.8c0.2-0.5,4.8-9.6,7.6-12.8"/>
        <path id="element-310" class="st2" d="M140,357.8c0,0,2.5-4,3.2-4.2"/>
        <path id="element-311" class="st2" d="M145.2,326.9c0,0,2.8,4.7,6.7,6"/>
        <path id="element-312" class="st2" d="M163.2,366c0,0,3.3-6,6.7-9.6"/>
        <path id="element-313" class="st2" d="M165,370.6c0,0,4.5-5.3,7-12.8"/>
        <path id="element-314" class="st2" d="M169.1,371.4c0,0,3.2-4.2,4.7-5.5"/>
        <path id="element-315" class="st1" d="M212,375.8c0,0,6,0.2,7.5-5.7c1.5-5.8-4.2-10-8.8-7.8S205.1,373.8,212,375.8z"/>
        <path id="element-316" class="st1" d="M233.3,355.7c0,0,3.7-0.8,5.2-6.2c1.5-5.3,2-7.1,2-7.1"/>
        <path id="element-317" class="st1" d="M203.7,304.9c0,0,11.8,5.5,22.1,0.7"/>
        <path id="element-318" class="st1" d="M223.4,299.3c0,0-2.1,2.8-9.5,1.8c-7.5-1-12-3.6-12-3.6"/>
        <path id="element-319" class="st1" d="M197.1,295c0,0-2.8-2.2-5.2-5.2c-2.3-3-6-2-5.5,0.3c0,0,0,3.5,6.3,8"/>
        <path id="element-320" class="st1" d="M252.8,332.4c0.5-0.3,20.8-20.1,22.4-22.6c1.7-2.5-5.5-17.1-5.5-17.1"/>
        <path id="element-321" class="st2" d="M310.6,303.6c0,0-0.7-4,0-4.8c0.7-0.8,7.8-3.3,12-3.7c4.2-0.3,4.2-0.3,4.2-0.3l1.5,8.3"/>
        <path id="element-322" class="st2" d="M246.3,311.4c0,0-3.6,2-0.4,5.5c1.3,1.4,4.5-1.5,3.9,0.6c-0.7,2.2,2.2,4.8,4.8,4c2.7-0.8,2.2-6.5,3.5-6.7
				c1.3-0.2,4.7,0.2,5.3-4c0.7-4.2-4.2-3.2-4.2-3.2s2.5-2.8,1-6.2s-5.5-1.8-7.6,4.3c0,0,1,0.7-2-2.6c-3-3.3-5.2-2-6,0.7
				C243.7,306.7,241.8,311.8,246.3,311.4z"/>
        <path id="element-323" class="st2" d="M252.8,313.6c0,0,3.2,0.8,3.2-2.5s-2.3-3.7-4.3-2.7C249.6,309.4,250.4,313.9,252.8,313.6z"/>
        <path id="element-324" class="st1" d="M233.2,307.4c0,0,1.3-4.3-4-16.1"/>
        <path id="element-325" class="st1" d="M216.9,287.1c0,0,5.8,2.7,15.1,4c9.3,1.3,11.8,1.2,15.5-1.5c3.7-2.7,4.7-5,4-8.3c-0.7-3.3-0.3-5.2,0.8-5.7
				s-1.7-2.7-3.5-3.2c-1.8-0.5-0.5-2,2-4c2.5-2,3.8-2.5,2.2-5c-1.7-2.5-2.7-3.3-2.7-3.3"/>
        <path id="element-326" class="st1" d="M248.5,260.4c0,0,0.8-2.2,2.5-2.8s2.8-1.8,2.2-3.5s-7.3-3.7-8.1-5c-0.8-1.3,0.3-11.8-6.8-20.8
				c0,0-0.2,3.2-2.5,2.7s-5.2-1.8-5.5-0.5c-0.3,1.3,1,4.7-1.3,5.7s-3.2-0.2-3.5,4.3s-1.2,8,0.3,11.5c1.5,3.5,2.2,6.7,0,7.8
				c-2.2,1.2-3.5,2-7.1-1.8c-3.7-3.8-3.5-1-4.3,1.7c-0.8,2.7-2,2-0.7,4.3s2.2,1.5,1.3,3.7c-0.8,2.2-0.2,4,0.2,5.2
				c0.3,1.2-1.3,2.2-3.5,0.2c-2.2-2-3.7-5.2-6.7-4.5c-3,0.7-3.3,5.7,0.5,10c3.8,4.3,6.5,6.7,7.5,3"/>
        <path id="element-327" class="st1" d="M192.6,288.1c0,0,4.2,0.2,5.5-1.8c1.3-2,0.7-3.8,1-6.3c0.3-2.5,3.7-5.2,3.7-5.2"/>
        <path id="element-328" class="st1" d="M211,277.5c0,0-2,0.2-2.2-3.3c0,0-2.5-3.5-3.2-2.2"/>
        <path id="element-329" class="st1" d="M228.2,252.4c0,0,2.7-1.3,4.3-4.8c1.7-3.5,1.7-3.5,1.7-3.5"/>
        <path id="element-330" class="st1" d="M237.1,248.6c0,0-1.2,2.8-3.3,6s-1.7,5.5-1.7,5.5s7.1-3.5,8-3.7"/>
        <path id="element-331" class="st1" d="M239,256.9c0.5-5-3.3-5-3.3-5"/>
        <path id="element-332" class="st1" d="M238.8,255.4c-1,1.3-2.7-0.3-2.7-0.3s-1.3-2.2,1.2-2.3"/>
        <path id="element-333" class="st1" d="M230.3,226.1c0,0-7.6-6.5-15.1-6.7c-7.5-0.2-12.6,1.2-12.6,1.2"/>
        <path id="element-334" class="st1" d="M240.5,230.9c0,0,4.7,3.8,3-4.7c-1.7-8.5-9.3-10.5-17-12.6s-11.5-4-19.1-1.2s-9.5,7.5-14.5,8.1
				c-5,0.7-12.8,1.5-15.5,6.2c-2.7,4.7-0.7,7-3.3,9.8s-7,6.7-6.8,16.3c0.2,9.6-1.7,7.5,2,12c3.7,4.5,1,12.3,4.2,15.3
				c3.2,3,3.7,4.2,5.2,4c0,0,1,2.3,3.3,2c2.3-0.3,3.1,3.4,3.1,3.4s-5.5,0-14,5c-8.5,5-17.7,11.3-18.8,16.5
				c-1.1,5.1-9.4,17.7-18.6,34.9s-24.9,36.8-37.2,68.3s-15,54-14.5,63.3s0.9,15.4,6.7,18.9c5.8,3.5,12.9,3.7,18.8,5.3
				c5.8,1.6,3.5,4.4,9.4,6.2c5.8,1.8,5.5,1.1,9.9,4.8c4.4,3.7,9.9,4.8,14,4.8s6.5,1.1,11.5,3.2c5,2.1,6,2.7,14.3,4.2
				c8.3,1.6,11.3,1.8,23.2,1.8s17.9,0.9,23.7-1.8s8.5-5.5,8.5-5.5"/>
        <path id="element-335" class="st1" d="M181.4,254.1c0,0-5.5-4.8,0.8-9.5"/>
        <path id="element-336" class="st1" d="M182.6,240.8c0,0-3.8-4.7,2.5-8.3"/>
        <path id="element-337" class="st1" d="M178.5,246.7c0,0-2-1.8-1.3-4.8c0.7-3,4-3.2,4-3.2"/>
        <path id="element-338" class="st1" d="M263.1,245.6c2.3-1.3,11.8-10.5,11.8-10.5"/>
        <path id="element-339" class="st1" d="M319.8,241.9c0,0,9.8-1.2,16,0.5s12.6,6.8,15.8,12"/>
        <path id="element-340" class="st1" d="M332.1,241.9c0,0,2,1.7,1.8,6.5c-0.2,4.8-1.3,4.2,1,12c2.3,7.8,3.5,12.6,3.5,12.6s-6.8,6.3-8,12.5
				c0,0-5.5-4.3-11.6-6.5c0,0-0.8-7.6-2-13.8c-1.2-6.2-3.2-12.6-3.2-12.6"/>
        <path id="element-341" class="st1" d="M316.8,265.2c0,0,11.5-0.3,18.1-4.8"/>
        <path id="element-342" class="st1" d="M296.3,256.9c0,0-1.3,2.7,1.2,5.5s3.8,3.2,2.8,6.5s-0.2,4.2,1.2,6.3c1.3,2.2-0.3,4.7,1,6.8
				c1.3,2.2,2.3,3.3,1.8,5.7s-0.3,3.8,6.3,1.7c6.7-2.2,7-2.2,9.8-2.5s4-2,4-2l-0.8-3.5"/>
        <path id="element-343" class="st1" d="M277.9,278.5c0,0,10.8-10,22.4-9.6"/>
        <path id="element-344" class="st1" d="M265.2,243.8c0,0-1.5,6.5,1.7,10c3.2,3.5,4.5,3.8,5.8,13.5c1.3,9.6,5.2,9,7,13.6s1,11.8,1,11.8
				s9.6,3.5,12.5,6.5c0,0,1.2-2.5,2-4.3s3.7-6.7,5.2-7.1s-0.2-3.2-1.3-8c-1.2-4.8-0.7-10.8-0.7-10.8"/>
        <path id="element-345" class="st2" d="M284.5,288.5c0,0,5.7-8.3,8.6-12.3"/>
        <path id="element-346" class="st2" d="M289,291c0,0,2.5-5.3,6.8-10.5"/>
        <path id="element-347" class="st2" d="M287.4,277.3c0,0,7.6,6.2,8.6,8.8"/>
        <path id="element-348" class="st2" d="M284.5,281.8c0,0,6.3,5,8.5,9"/>
        <path id="element-349" class="st1" d="M286.7,251.1c0,0,5.5,6.8,13.1,4.3s5.7-6.5,2.5-8s-8-6.8-8-6.8"/>
        <path id="element-350" class="st1" d="M303.8,253.9c0,0,3.8,1.3,6.8,0c3-1.3,1.7-3,0-5.3c-1.7-2.3,1.5-4,1.5-4"/>
        <path id="element-351" class="st1" d="M311.8,253.2c0,0,5-0.3,5.2-2.8c0.2-2.5-2.7-5.2,0.3-7.1"/>
        <path id="element-352" class="st1" d="M291.7,234.4c0.3,0.7,1.2,3.2,7,5.5c5.8,2.3,7.3,3,12.1,3.2c4.8,0.2,7.1,0.8,13.3-4.2s8.5-10,8.3-18
				s-0.8-12.1-3.2-14.6s-3.3-3.8-3-8.3s-1.2-10.6-6.8-15"/>
        <path id="element-353" class="st1" d="M308.8,232.3c0,0,4.8-2.5,7.8-2c3,0.5,5.7-2,6.7-2.8"/>
        <path id="element-354" class="st1" d="M315.8,233.6c0,0,2,0.3,3.8-1"/>
        <path id="element-355" class="st1" d="M314.8,226.3c0,0,3.7-1,4.8-3.7c1.2-2.7-4.7-6.5-6.2-9.1"/>
        <path id="element-356" class="st1" d="M294.3,216.8c0,0,6.5,0.8,9.8-2.7"/>
        <path id="element-357" class="st1" d="M317.6,209c0,0,6-0.8,8.1-5.8"/>
        <path id="element-358" class="st1" d="M297.7,217.3c0,0,0.5,2.2,3.5,1.3c3-0.8,1-3,1-3"/>
        <path id="element-359" class="st1" d="M320.8,208.7c0,0,1.3,2.2,3.5,0.7c2.2-1.5,0.2-4,0.2-4"/>
        <path id="element-360" class="st1" d="M317.5,204.3c0,0,2.3-4.5,8.1-4.7"/>
        <path id="element-361" class="st1" d="M295.2,208.3c0,0,4.2-0.7,6.5,1.7"/>
        <path id="element-362" class="st1" d="M263.6,244.1c0,0-5.8-3.5-7.1-6.8s-2.3-5.3-2.3-5.3s3.5-6.5,9.8-7.3c6.3-0.8,8.6,0,8.6,0s-3,2.2-0.3,6.3
				c2.7,4.2,4,1.2,4.2,6.2c0.2,5,0,11.5-0.2,16.1c-0.2,4.7,1.3,7.3,3.3,7.8s4.3-3.3,5.7-5.5c1.3-2.2,2-6.3,2-12s-0.2-8.6-0.2-8.6
				s5,1.3,5-6s-1.5-21.8,1.2-25.9c2.7-4.2,5.7-5.7,11.1-4.2c5.5,1.5,8.1,0.3,11.3-5.8c3.2-6.2,4.3-9.3,3.5-13.8
				c-0.8-4.5-4-6.2-4-6.2s1-5-7.5-9.5c0,0-1.3-0.2-3.2-1c-1.8-0.8-3.7-0.8-8.3-0.2s-22.4,5.3-26.3,7.8c-3.8,2.5-5.3,7-5.8,9.1
				s-2,5.5-5.5,6.7c-3.5,1.2-4.7,3.8-5.7,6.7s-5.2,3.7-4.8,9.5c0.3,5.8-0.5,10.8-0.5,10.8"/>
        <path id="element-363" class="st1" d="M274.4,210c0,0,7.8-13.5,19.5-22.4c11.6-9,21.3-14.5,21.3-14.5"/>
        <path id="element-364" class="st1" d="M267.4,197.2c0,0,1.7-5.7,12.1-13.8c10.5-8.1,21.8-17.8,28.1-19.8"/>
        <path id="element-365" class="st2" d="M304.3,173.3c0,0,3.8-3,8.8-5"/>
        <path id="element-366" class="st2" d="M273.4,203.5c0,0,4.2-9.8,4.7-13s3-0.5,11.1-0.5"/>
        <path id="element-367" class="st2" d="M277.7,203.3c0,0,1.3-7.3,3.2-8.5s4.2,0.3,4.2,0.3"/>
        <path id="element-368" class="st1" d="M266.6,218.3c0,0,11.8-4.2,5-17.3c-6.8-13.1-24.9,1-18.3,12.6C258.1,222.1,266.6,218.3,266.6,218.3z"/>
        <path id="element-369" class="st2" d="M280.2,219.6c0,0,1.5,0.3,2-1.3C282.7,216.6,278,217.5,280.2,219.6z"/>
        <path id="element-370" class="st2" d="M285.5,229.5c0,0-0.3-2.8-3.3-0.8c-3,2-2.5,4.8-0.8,4.7C283,233.1,283.9,233.6,285.5,229.5z"/>
        <path id="element-371" class="st2" d="M281.4,236.3c0,0,4.5,19-4.3,21.4"/>
        <path id="element-372" class="st2" d="M275.9,255.9c0,0,2.8-6.3,7-10"/>
        <path id="element-373" class="st2" d="M273.6,233.3c0,0-2.2-0.7-3.8,1.5c-1.7,2.2-7.6,3.2-7.6,3.2s2.7-4,3.2-7c0.5-3,2.7-6.2,2.7-6.2"/>
        <path id="element-374" class="st2" d="M264.1,234.4c0,0-3-0.3-4.5-3.2c0,0,1.8-2.2,5.3-1.7"/>
        <path id="element-375" class="st2" d="M266.6,228.3c0,0-1.2,5.5,3.2,6.5"/>
        <path id="element-376" class="st2" d="M258.9,215.5c0,0,4-9.3,4.7-15.6"/>
        <path id="element-377" class="st2" d="M263.8,215c0,0,3.7-5.5,4.2-12.1"/>
        <path id="element-378" class="st2" d="M258.6,204.3c0,0,6,0.2,12.6,3.3"/>
        <path id="element-379" class="st2" d="M255.8,208.8c0,0,7.6,0.2,13.3,2.2"/>
        <path id="element-380" class="st1" d="M137.7,338.4c0,0-1.2-4.2-0.7-9.5s-1.3-5.8,0.2-12c1.5-6.2-2.8-5.3-3.2-10.6c-0.3-5.3-1.5-10-4.3-14.1
				s-2.2-15-2.3-21.9s-3-18.1-1.5-23.6c1.5-5.5,5-10.6,3.8-16.6s-2.2-5.5,1.3-11.1c3.5-5.7,2.5-11.5,2-16s-0.5-10.3,3.8-14.6
				s5.5-7,5.2-12.1s3.7-9.1,10.5-10.1c6.8-1,13.1,1.7,16.1-1.8c3-3.5,4.8-11.6,6.7-14s1.8-2.3,1.8-2.3"/>
        <path id="element-381" class="st1" d="M216.7,152.8c0,0,0,4.7,1.2,5.8s7,2.5,11.1,5.3c4.2,2.8,6.2,4,7.1,8.8c1,4.8,1.7,5,4.7,9.5
				c3,4.5,4.2,6.8,3,13.3c-1.2,6.5,3.2,19.6,7,21.4s7.1,2.7,7.1,2.7c-0.5,3.3,0.2,7.1,0.2,7.1"/>
        <path id="element-382" class="st1" d="M184.9,159.3c0,0,3.8,0.5,5.7,0.5s1.3,3,5.7,2.8c4.3-0.2,5.8-1.2,9.6,0.2c3.8,1.3,5.5,1.3,7.1-0.3
				s4.8-3.8,4.8-3.8"/>
        <path id="element-383" class="st1" d="M182.4,148c0,0,8.8,6.3,14.5,9.1s10.1,2.8,13.5,0.2s9.6-7,13.8-16.3s1.8-14,1.8-14"/>
        <path id="element-384" class="st1" d="M228.2,122c0,0,3.2-11.3-4.3-19.1"/>
        <path id="element-385" class="st1" d="M216.9,127.2c0,0,5.7,1.2,11-2.8"/>
        <path id="element-386" class="st1" d="M190.4,128.7c0,0,6.7,1.7,12.3-0.2"/>
        <path id="element-387" class="st1" d="M189.8,118.9c0,0,4.8-0.3,11.3,2"/>
        <path id="element-388" class="st1" d="M218.4,122.4c0,0,3-3.3,6.8-4.7"/>
        <path id="element-389" class="st1" d="M211,138.3c0,0,3.5,1.8,3.8-1.3c0.3-3.2-1.5-9.1-1.5-9.1"/>
        <path id="element-390" class="st1" d="M203.9,138.8c0,0,1.8,1.2,3.2,0.3"/>
        <path id="element-391" class="st1" d="M200.7,145.8c0,0,2,0.5,3.7-1c1.7-1.5,4,0.8,5.2,0.7s1-2.2,3.7-1.8c2.7,0.3,1.7,0.3,2.7,0.3"/>
        <path id="element-392" class="st1" d="M207.6,148.5c0.5,0,1.3-0.2,2.2,0"/>
        <path id="element-393" class="st1" d="M194.4,129.5c0,0,0.5,2.7,2.5,2.3c2-0.3,1.8-2.3,1.8-2.3"/>
        <path id="element-394" class="st1" d="M219.5,127.7c0,0,0.7,2,2.5,1.8c1.8-0.2,1.8-2.5,1.8-2.5"/>
        <path id="element-395" class="st1" d="M179.3,163.8c0,0,5-3.3,3.2-8.3s-6.9-3.9-5.7-10.8c0.8-4.7,5-4.5,3.7-8.8c-0.3-0.9-1.5-2.9-1.9-3.4
				c-2.3-4.1-3.6-2.6-3.6-9c0-7.3,4-3.8,5.3,0.3c1.3,4.2-2.3,8.1-3.7,10.6c-1.3,2.5-0.3,6.2,2.8,9c3.2,2.8,2,6.7-0.7,10.5
				C176.1,157.6,175.6,162.1,179.3,163.8z"/>
        <path id="element-396" class="st1" d="M162,118.4c0,0,4,4.5,4.7,6.7c0.7,2.2,3.5,0.8,4.3-0.2c0.8-1,3.5-6.5,11.6-10.5c8.1-4,16.3-7.5,22.8-8.5
				c6.5-1,8.8-4.2,14.3-3.7c5.5,0.5,6.5,1.3,6.5-2.3s-4.2-7.1-5.3-7.3c-1.2-0.2-5.2,2.5-8.5,1.7s-6.2,2.3-11.6,1.7
				c-5.5-0.7-5.8-1-9.3,1.3c-3.5,2.3-5.2,5.3-10.1,6.3c-5,1-9.8,5.2-12.1,7.5C166.8,113.4,162.2,115.9,162,118.4z"/>
        <path id="element-397" class="st1" d="M169.5,126.4c0,0-1.3,4,1,7c2.3,3,4.7,4.2,4.5,8c-0.2,3.8-3,7.5-3,7.5s-3.2-2.7-1.8-8.1
				c1.3-5.5,3-3.5,4.3-8.6c1.3-5.2,0.5-8.6,0.5-8.6"/>
        <path id="element-398" class="st1" d="M170.1,140.7c0,0-4.8-1.2-1-8.5"/>
        <path id="element-399" class="st1" d="M162.3,115.9c0,0-1.2-1.8-3-4.3c-1.8-2.5-2.3-4.5-0.3-7.8c2-3.3,2.2-6.3,2.5-8.5c0.3-2.2,3.5-6.3,7.3-7
				c3.8-0.7,8.5-4,9-6.2c0.5-2.2,4.2-4.3,8.6-5c4.5-0.7,14.1-2.2,17.8-1.5c3.7,0.7,8.3,0,11.6,5.2s5,11.8,5,11.8"/>
        <path id="element-400" class="st1" d="M184.6,93.6c0,0-4.7,3-8.6-2"/>
        <path id="element-401" class="st1" d="M192.3,82.5c0,0,1.3,4.7,4.7,5.5c3.3,0.8,4.5,0.5,4.5,0.5s-0.8-4.7-4-5.8C194.2,81.5,192.3,82.5,192.3,82.5z
				"/>
        <path id="element-402" class="st2" d="M181.4,192c0,0,9.3-9.1,11.6-10.8"/>
        <path id="element-403" class="st2" d="M184.6,194.7c0,0,8-6.7,11.5-9.6"/>
        <path id="element-404" class="st2" d="M188.8,182.2c0,0,5,5.8,7.8,7.8"/>
        <path id="element-405" class="st2" d="M184.6,184.4c0,0,6.3,7,9,8"/>
        <path id="element-406" class="st2" d="M181.3,187.4c0,0,4.2,4.8,8.8,7.6"/>
        <path id="element-407" class="st2" d="M194.2,205.3c0,0,7.8-7.3,13-10.1"/>
        <path id="element-408" class="st2" d="M197.4,208.5c0,0,5.8-5.5,12-9.1"/>
        <path id="element-409" class="st2" d="M193.9,201.2c0,0,6,5.7,9.3,9.3"/>
        <path id="element-410" class="st2" d="M197.1,198.4c0,0,5.5,4.3,9.3,8.8"/>
        <path id="element-411" class="st2" d="M201.1,195.7c0,0,5.5,5.2,8.1,8.8"/>
        <path id="element-412" class="st1" d="M241.1,216.3c0,0-3.2-3.7-4.7-4.5c-1.5-0.8,4.7-0.3,4.7-0.3l3.3,3.8"/>
        <path id="element-413" class="st1" d="M129.7,237.3c0,0,3.3-5.2,7.6-2.7c4.3,2.5,5.3,5.3,7.6,4.8s4.5-2.7,7.1,1.5c2.7,4.2,4.5,3.7,7.1,3.8
				c2.7,0.2,6.7,0.7,7.5,2.8"/>
        <path id="element-414" class="st1" d="M126.9,264.9c0,0,5.3-7,9.3-6s3.2,4.3,6.7,5c3.5,0.7,3.2-2.7,6.7-1.7s1.3,4.2,5.2,4c3.8-0.2,3.2-1.8,6,0.3
				s9,0.2,9.5,0.5"/>
        <path id="element-415" class="st2" d="M137.2,297.1c0,0,24.1,1.7,26.8,0.7"/>
        <path id="element-416" class="st2" d="M138.7,304.8l18.1-6.2c-6,0.3-17.8,2.7-17.8,2.7"/>
        <path id="element-417" class="st2" d="M140.5,308.9c1.7-1,21.4-10.8,22.9-12.5c1.5-1.7,2.5-3.8,6.8-4.5c4.3-0.7,6.3-3.5,6.8-3.8s4.8-2,4.8-2"/>
        <path id="element-418" class="st2" d="M151.5,256.6l2.2-4.7l1.2,6.2c0,0,1.7-4,1.7-3.5s1,2.3,1,2.3l1.5,0.2"/>
        <path id="element-419" class="st2" d="M148,207.8c0,0-3.3,4-0.2,5.7c3.2,1.7,4.8-2.5,4.8-2.5s2.7,3.7,5.5,1.5s-0.7-5.5-0.7-5.5s3.2-2,1.2-4.7
				c-2-2.7-3.3-0.3-3.3-0.3s0.5-4.2-3.5-4.3c-4-0.2-2.7,5-2.7,5s-3.7-2-4.5-0.2C143.9,204.3,143.4,207.3,148,207.8z"/>
        <path id="element-420" class="st2" d="M151.7,207.2c0,0,2.5,0.8,2.2-1.3s-2.3-1.8-3-0.5C150.2,206.7,151.7,207.2,151.7,207.2z"/>
        <path id="element-421" class="st2" d="M176.3,228.1c0,0-5-0.8-1.5-4.8c0,0-3.2-0.5-4.2-4s4.7-3.8,4.7-3.8s-3.3-3.3-0.2-5c3.2-1.7,4.7,2.2,4.7,2.2
				s3.7-2.7,5.5,0.8s-0.8,4.5-0.8,4.5s3.3,1.5,2.8,3.3"/>
        <path id="element-422" class="st2" d="M180.1,220.1c0,0,1.7-0.8,0.7-2.5s-3-0.8-3,0.7C177.8,219.8,179,220.1,180.1,220.1z"/>
        <path id="element-423" class="st2" d="M161.3,188.9c0,0-1.3,3.7,1.8,4.5c3.2,0.8,3.8-3,3.8-3s3,2.7,4.8-0.7c1.8-3.3-1.5-6.2-1.5-6.2s2.8-1.3,0.2-6
				c-2.7-4.7-6.5,0.7-6.5,0.7s-1.3-3.7-4.3-2c-3,1.7-2.2,5.7-2.2,5.7s-3.3,2.2-2,5.7C156.8,191,161.3,188.9,161.3,188.9z"/>
        <path id="element-424" class="st2" d="M165.2,186.7c0,0,3.3-1.3,1.8-3.7c-1.5-2.3-3.5,0.2-3.3,1.3C163.8,185.6,165.2,186.7,165.2,186.7z"/>
        <path id="element-425" class="st2" d="M206.1,185.2c0,0-4.5,2.7-1.8,5.7c2.7,3,5.8-1.2,5.8-1.2s1,4,5.2,2.2c4.2-1.8-0.2-5.5-0.2-5.5s4.7-0.7,4-4.8
				s-5.3-1.8-5.3-1.8s0.3-3.7-2.8-4.2c-3.2-0.5-4,4.3-4,4.3s-2.8-2-4.2,0.8C201.4,183.6,206.1,185.2,206.1,185.2z"/>
        <path id="element-426" class="st2" d="M210.4,185.7c0,0,2,0.2,2.3-1.8c0.3-2-2.2-1.5-3-0.5C208.9,184.4,210.4,185.7,210.4,185.7z"/>
        <path id="element-427" class="st2" d="M219.7,199.4c0,0-3.5,1.8-1.3,4.8c2.2,3,4.8-0.7,4.8-0.7s3.5,3.8,6.3,1.8c2.8-2-0.7-5-0.7-5s4-0.3,3.7-4.3
				c-0.3-4-4-2-4-2s-0.2-4.8-3.3-5.3c-3.2-0.5-4.8,3.7-4.2,5c0,0-1.8-0.7-3.5,0.8S219.7,199.4,219.7,199.4z"/>
        <path id="element-428" class="st2" d="M225,200.2c0,0,2-1.3,1-3.3c-1-2-2.8-0.2-2.7,1C223.5,199,225,200.2,225,200.2z"/>
        <path id="element-429" class="st2" d="M184.6,163.1c0,0-4.5,3.2-2.5,5.5c2,2.3,6.5,0.5,6.8-1.7C189.3,164.8,187.8,161.4,184.6,163.1z"/>
        <path id="element-430" class="st2" d="M191.4,169.8c0,0-0.5,3.5,3.2,2.8c3.7-0.7,4.5-2.3,4-4.3C198.1,166.3,191.8,165.4,191.4,169.8z"/>
        <path id="element-431" class="st2" d="M201.7,174.1c0,0,6.5,1.2,6.7-3.3s-3.8-3.5-5.7-1.7S200.1,173.3,201.7,174.1z"/>
        <path id="element-432" class="st2" d="M212.4,173.1c0,0-1.5,0-0.5-4.5s5.3-2,5.3-2s3.5,3,0.2,4.8c0,0-0.5,1.5-2.3,1.2"/>
        <path id="element-433" class="st2" d="M220.2,160.4c0,0-3.3,2.7-0.8,5.3c2.5,2.7,5.3,0.7,4.8-2.5"/>
        <path id="element-434" class="st2" d="M168.8,117.9c0,0,2.3,3.2,5.8,0.5c3.5-2.7,1.5-7.6-3.3-7C166.5,112.1,168.8,117.9,168.8,117.9z"/>
        <path id="element-435" class="st2" d="M180.9,112.7c0,0,5.2,1.2,5.5-4c0.3-5.2-3.3-4.3-5.7-3.3C178.5,106.4,177.5,111.6,180.9,112.7z"/>
        <path id="element-436" class="st2" d="M192.3,105.9c0,0,4.3,2.2,6.5-2c2.2-4.2-2.3-6.3-5.8-4.5C189.4,101.3,189.3,104.6,192.3,105.9z"/>
        <path id="element-437" class="st2" d="M203.7,104.1c0,0,5.2,1.3,5-3.7c-0.2-5-3.3-3.8-4.8-2.7C202.4,98.9,201.2,102.1,203.7,104.1z"/>
        <path id="element-438" class="st2" d="M213.2,100.9c0,0,5.7,3.2,7.3-1.7s-4.2-5.7-6.3-3.7S213,99.9,213.2,100.9z"/>
        <path id="element-439" class="st1" d="M216.5,344.1c0,0,4.2-1.3,7.4-0.8"/>
        <path id="element-440" class="st1" d="M249.1,248.3c1.1-2.2,4.1-5.3,11.6-5.6"/>
        <path id="element-441" class="st2" d="M275.6,209.6c0,0,3.4,3,4,3c0.6,0,1-0.5,4.2,0.4c0,0,3.8,0.5,2.7,5.5c-1.2,5-5.5,7.3-8.8,6
				c-3.3-1.3-1.8-5.2-1.2-7.6c0.7-2.5-3-4.7-3-4.7"/>
        <path id="element-442" class="st2" d="M282.9,223.8c0,0,1.9,2.2,1,4.2"/>
        <path id="element-443" class="st1" d="M285,230.8c0,0,2.2,0.7,2.1,4.1"/>
        <line id="element-444" class="st1" x1="421.1" y1="180.8" x2="404.9" y2="192"/>
        <line id="element-445" class="st1" x1="280.3" y1="334.4" x2="282.5" y2="350"/>
        <line id="element-446" class="st1" x1="284.1" y1="358.5" x2="290" y2="382.9"/>
        <line id="element-447" class="st1" x1="464.7" y1="396.3" x2="476.6" y2="396.1"/>
        <line id="element-448" class="st1" x1="312.1" y1="461.4" x2="353.9" y2="461.1"/>
        <line id="element-449" class="st1" x1="320.2" y1="451.5" x2="320.2" y2="461.1"/>
        <line id="element-450" class="st1" x1="368.8" y1="453.4" x2="368.8" y2="460.9"/>
        <line id="element-451" class="st1" x1="416.6" y1="451.3" x2="416.6" y2="460.6"/>
        <line id="element-452" class="st1" x1="374.4" y1="460.6" x2="428.1" y2="460.6"/>
        <line id="element-453" class="st1" x1="431.8" y1="469.5" x2="487.1" y2="469.5"/>
        <line id="element-454" class="st1" x1="509.9" y1="448.1" x2="510.1" y2="457.2"/>
        <line id="element-455" class="st1" x1="422.6" y1="473.8" x2="422.7" y2="481.5"/>
        <line id="element-456" class="st1" x1="310.3" y1="478.5" x2="316.2" y2="478.5"/>
        <line id="element-457" class="st1" x1="308.3" y1="495.7" x2="319.8" y2="495.7"/>
        <line id="element-458" class="st1" x1="333.9" y1="491.6" x2="335.1" y2="500.9"/>
        <line id="element-459" class="st1" x1="334.9" y1="486.6" x2="334.2" y2="480.4"/>
        <line id="element-460" class="st1" x1="361.3" y1="536.7" x2="361.3" y2="544.4"/>
        <line id="element-461" class="st1" x1="355.1" y1="553.7" x2="355.4" y2="562.3"/>
        <line id="element-462" class="st1" x1="311.1" y1="572.1" x2="310.8" y2="578.9"/>
        <line id="element-463" class="st1" x1="358.8" y1="578.3" x2="359" y2="572"/>
        <line id="element-464" class="st1" x1="331.8" y1="592.1" x2="332.2" y2="601"/>
        <line id="element-465" class="st1" x1="402.2" y1="596.4" x2="421.9" y2="595.6"/>
        <line id="element-466" class="st1" x1="447" y1="546.2" x2="447.5" y2="555.1"/>
        <line id="element-467" class="st1" x1="468.9" y1="562.8" x2="469.2" y2="570.6"/>
        <line id="element-468" class="st1" x1="447.1" y1="584.5" x2="447.2" y2="591.3"/>
        <line id="element-469" class="st1" x1="531.6" y1="529.3" x2="530.5" y2="507.1"/>
        <line id="element-470" class="st1" x1="535.6" y1="496.1" x2="535.1" y2="491.8"/>
        <line id="element-471" class="st1" x1="548.5" y1="512.5" x2="548.7" y2="517.6"/>
        <line id="element-472" class="st1" x1="560.2" y1="576.7" x2="558.8" y2="567.1"/>
        <line id="element-473" class="st1" x1="539.1" y1="459.1" x2="538.9" y2="466.4"/>
        <line id="element-474" class="st1" x1="562.8" y1="448.2" x2="562.9" y2="456"/>
        <line id="element-475" class="st1" x1="291.2" y1="442.6" x2="244.1" y2="442.8"/>
        <line id="element-476" class="st1" x1="291.7" y1="450.8" x2="241.5" y2="451.5"/>
        <line id="element-477" class="st1" x1="247.7" y1="479.5" x2="276.3" y2="478.6"/>
        <line id="element-478" class="st1" x1="278.3" y1="468.5" x2="278.6" y2="475.4"/>
        <line id="element-479" class="st1" x1="248.2" y1="485.1" x2="248.4" y2="491.3"/>
        <line id="element-480" class="st1" x1="285.2" y1="613.4" x2="288" y2="551.1"/>
        <line id="element-481" class="st1" x1="290.1" y1="549" x2="290.1" y2="541.2"/>
        <line id="element-482" class="st1" x1="291.7" y1="501.9" x2="292.4" y2="486.2"/>
        <line id="element-483" class="st1" x1="221.5" y1="423.2" x2="215.1" y2="422.8"/>
        <line id="element-484" class="st2" x1="136.2" y1="355" x2="138.9" y2="351.5"/>
        <line id="element-485" class="st2" x1="161.7" y1="362.1" x2="166.1" y2="355.5"/>
        <line id="element-486" class="st2" x1="172.6" y1="372.4" x2="175.5" y2="369.1"/>
        <line id="element-487" class="st2" x1="176.8" y1="373.8" x2="178.8" y2="370.8"/>
        <line id="element-488" class="st1" x1="281.2" y1="311.6" x2="280.7" y2="299.3"/>
        <line id="element-489" class="st1" x1="288.4" y1="307.4" x2="288" y2="300.1"/>
        <line id="element-490" class="st2" x1="317.6" y1="296.5" x2="319.3" y2="302.9"/>
        <line id="element-491" class="st2" x1="325.8" y1="278.5" x2="334.4" y2="269.2"/>
        <line id="element-492" class="st2" x1="322.6" y1="275.7" x2="330.4" y2="266.9"/>
        <line id="element-493" class="st2" x1="325.1" y1="266.2" x2="333.6" y2="273.8"/>
        <line id="element-494" class="st2" x1="321.4" y1="269.9" x2="330.6" y2="278.2"/>
        <line id="element-495" class="st2" x1="244" y1="231.8" x2="254.1" y2="231.9"/>
        <line id="element-496" class="st2" x1="248.1" y1="238.9" x2="248.1" y2="226.5"/>
        <line id="element-497" class="st2" x1="251.6" y1="237.9" x2="251.6" y2="225.8"/>
        <line id="element-498" class="st2" x1="249.9" y1="238.4" x2="249.9" y2="226.3"/>
        <line id="element-499" class="st2" x1="139.4" y1="293.1" x2="140.2" y2="272.5"/>
        <line id="element-500" class="st2" x1="144" y1="290.8" x2="143.4" y2="275.3"/>
        <line id="element-501" class="st2" x1="147.2" y1="290.5" x2="147" y2="279.7"/>
        <line id="element-502" class="st2" x1="152.7" y1="289.1" x2="152" y2="274.8"/>
        <line id="element-503" class="st2" x1="156.2" y1="287.8" x2="155.7" y2="280.5"/>
        <line id="element-504" class="st2" x1="160.3" y1="286.5" x2="159.8" y2="281.7"/>
        <line id="element-505" class="st2" x1="138.9" y1="256.9" x2="139.7" y2="240.6"/>
        <line id="element-506" class="st2" x1="143" y1="258.2" x2="142.4" y2="242.9"/>
        <line id="element-507" class="st2" x1="147.5" y1="258.4" x2="147.2" y2="249.4"/>
        <line id="element-508" class="st2" x1="150" y1="257.1" x2="150.2" y2="251.7"/>
      </g>
    </g>
</svg>
