<?xml version="1.0" encoding="UTF-8" standalone="yes"?>
<svg version="1.1" xmlns="http://www.w3.org/2000/svg" xmlns:xlink="http://www.w3.org/1999/xlink" x="0px" y="0px" viewBox="0 0 792 612" style="enable-background:new 0 0 792 612;" xml:space="preserve">
  <style type="text/css">&#xD;
	.st0{fill:#FFFFFF;}&#xD;
	.st1{fill:none;stroke:#231F20;stroke-width:2.5;stroke-linecap:round;stroke-linejoin:round;stroke-miterlimit:10;}&#xD;
</style>
  <g id="coloringShapes">
    <rect x="-37.8" y="277.1" class="st0 file-9-element-1" width="879.9" height="371.1"/>
    <rect x="-37.8" y="-93" class="st0 file-9-element-2" width="879.9" height="371.1"/>
    <path class="st0 file-9-element-3" d="M593.6,503.6c0,0-23.1,2.7-24.8,4c-1.8,1.3-13.1,4.7-21.3,5.3c-8.2,0.7-25.3,6-25.3,6s-10.6,2.7-11.1,4&#xD;
		c-0.4,1.3,8.2,6.9,8.2,6.9s30.2,16.2,54.3,35.2c24.2,19.1,31.9,26.6,36.4,26.4c4.4-0.2,15.5-3.1,18.6-3.1s53-6.4,53-6.4&#xD;
		s14-1.3,24.2-0.4l1.3-9.8L593.6,503.6z"/>
    <path class="st0 file-9-element-4" d="M664.8,432c0,0,6-6,5.3-17.5c-0.7-11.5-2.7-12-2.7-12s-10.6-2-23.9,0.4c-13.3,2.4-20.4,1.3-22.8,6.2&#xD;
		c-2.4,4.9,2.7,8.4,5.1,10C628.2,420.7,664.8,432,664.8,432z"/>
    <path class="st0 file-9-element-5" d="M172,465.2c0,0,15.2-17.5,17.2-19c2.1-1.6-1.8-6.8-4.4-13.3c-2.7-6.5-27.4-12.4-27.4-12.4l-14.5-2.1l-7.5,3.2&#xD;
		l0.3,34.6L172,465.2z"/>
    <path class="st0 file-9-element-6" d="M44.5,429.3c0,0,7.4,5.7,22,1.8c14.5-3.9,23.1-10.4,34-11c10.9-0.6,35.8,5.1,35.8,5.1s0.6-6.6,1.2-9.3&#xD;
		c0.6-2.7-3.1-8.7-3.5-9.9c-0.5-1.2-1.3-3.9-1.3-3.9l-41.4-13.1c0,0-9.3,4.5-12.2,5.5c-2.9,1-12.2,2.1-13.1,5.4&#xD;
		c-0.9,3.3-0.1,7.1-4.5,8.2s-6.7,0-9.2,4.3C49.8,416.7,44.5,429.3,44.5,429.3z"/>
    <path class="st0 file-9-element-7" d="M482.9,144.8c0,0,8.9-8.4,9.2-8.8c0.3-0.4,3.3-8.1,4.3-9.2c1-1.1,1.3-1.4,3.5-2.1c2.2-0.7,6.4-5.9,6.4-5.9&#xD;
		s2.2,4,5.9,6.3c3.6,2.2,5,6.1,8.4,6.4s5,0.1,6.6-0.4c1.5-0.6,7-7.5,9.2-11.2c2.2-3.6,3.9-9.8,3.9-9.8s6.4,2,7.3,2.1&#xD;
		s3.1,2.2,3.1,3.3c-0.1,1.1-0.7,2.8,0.8,2.9c1.5,0.1,4,0.3,5.4,1.1c1.4,0.8,3.6,2.2,3.6,2.2l8.1,0.6c0,0,3.6,0.3,4,0.3&#xD;
		s-1.7,4.5-3.5,5.7c-1.8,1.3-11.2,8.9-12.6,12c-1.4,3.1-7,25-7,25l-0.7,15.2c0,0-2.7,1.5-3.6,1.3c-1-0.3,4.2,25.7,4.2,25.7&#xD;
		s1,15.5-3.6,28.9c-2.8,8.2-2.6,32.5-2.6,32.5s-0.7,8-0.1,8.7c0.6,0.7-17.5-2.4-17.5-2.4s-3.2-3.6,0.3-11.4s3.8-13.1,3.1-21.9&#xD;
		c-0.7-8.8-1.5-17-0.4-19c1.1-2,0.5-4.2,1.7-3.6c1.2,0.6,3.9-3,3.6-6.6s-1.4-17.9-1.1-18.3c0.3-0.4,7-20,4.7-26&#xD;
		c-2.2-6-5-13.5-9.5-15.5c-4.5-2-10.5-3.5-16.2-2.2s-11.7,2.9-13.7,4c-2,1.1-3.4,3.5-5.8,4.5c-2.3,1-2.3,4-2.3,4l-7.3-7.7&#xD;
		c0,0,2.4,1,1.7-3.5C483.7,147.8,482.9,144.8,482.9,144.8z"/>
    <path class="st0 file-9-element-8" d="M552.1,93.5c0,0,2.4,3.2,2,7.3c-0.4,4,0.7,9.5,0.7,9.5l3.9-1.1c0,0,1.4,3.6,2.4,4.3s2,1,1.8,2s-0.1,5.4,2,6.1&#xD;
		c2.1,0.7,4.6,1.8,5.7,1.3s5-2.8,5-2.8l3.3,9.6l-31.4,52.6c0,0,6,3.5,2.2,6.1c-2.7,1.9-7.3,3.8-10.6,4.2c-3.3,0.4-5.2,0.6-5.2,0.6&#xD;
		l-0.4,3.5c0,0,3.8,0,4.6,1c0.8,1,5.3,3.3,5.3,3.3l5.6,2.8c0,0,7.8,0.7,17.2-6.7l2.7,187.4c0,0-8.1,3.1-9.5,3.8s-3.5,4.5-1,4.7&#xD;
		c2.5,0.3,29.2,1,29.2,1s-4.7,4.2-9.4,4.3c-4.6,0.1-8.4,0.8-8.9,3.9s2.8,3.1,5.6,3.3c2.8,0.3,18.3-2.4,23.3-0.7s14.1,1.4,15.2-1.8&#xD;
		c1.1-3.2,1.4-5.2-1.1-9.5c-2.5-4.3-5.6-12.7-5.6-12.7l-35.2,2l-2.9-187c0,0,24.1,5.3,24.8,5.4c0.7,0.1,25.3,4.7,36.6-1.8l-1.7-3.3&#xD;
		l-11.2-11.6c0,0-13-0.4-22.7,1.3c-9.8,1.7-22.3,1.3-22.3,1.3s-4.3-0.1-8-2c-3.6-1.8-13.4-4.2-13.4-4.2l29.3-50.1&#xD;
		c0,0-3.7-5.3-5.3-14.4s-1.4-13.4-5.9-17.6s-9.4-7.5-13.4-6.8C551.4,92.6,552.1,93.5,552.1,93.5z"/>
    <path class="st0 file-9-element-9" d="M636.4,308l-3.2-24l-1.7-43c0,0,0.4-8.5-1.8-17.9c-2.2-9.4-8.7-20.7-8.7-20.7l8.9-3.1l2.8,3.2l11-7.5l-10-15.2&#xD;
		c0,0-14.8-20.5-31.4-32.2c-16.6-11.7-39.9-12.8-39.9-12.8s-5.3,5.2-8.1,11.9c-2.8,6.7-3.5,13-4.2,16.3c-0.7,3.3-1.3,17.7-1.3,17.7&#xD;
		l-0.5,1.5c1.4-0.5,2.9-0.5,4.3-0.3c4,0.5,7.9,2,11.8,3.1c1.8,0.5,3.5,1.2,5.4,1.5c2.3,0.3,4.7,0.1,6.9,0.1c5.3,0.1,10.4-0.2,15.6-1&#xD;
		c5.1-0.7,10.1-1.6,15.3-1.6c3.9,0,8.2-0.1,11.6,2.2c3.6,2.6,5.9,6.7,9.8,8.9c1,0.6,1.3,2.1,0.4,2.9c-2.4,2.2-5.7,1.5-8.6,2.6&#xD;
		c-1.4,0.5-2.8,1.1-4.3,1.5c-1.8,0.5-3.7,0.6-5.5,0.7c-13.2,0.6-25.5-5.9-38.6-6.3c-1.6,0-3.2-0.1-4.8,0.4c-1.4,0.4-2.6,1-3.8,1.7&#xD;
		c-2.7,1.5-5.3,3.4-8.4,4.1c-1.7,0.4-3.5,0.5-5.2,0.1c-1.2-0.3,0.5,0.5-0.6,0c-1.3-0.6,0.1,0.7-1.2-0.3l0.9,2.7&#xD;
		c0,0,0.5,8.7-0.9,16.5c-1.4,7.8-4.6,30.9-4.6,30.9l-1.6,25.3l-5.6-0.4l21.9,3.3V297l-4.3,2.3l1.4,83.3c0,0,2.1,1.5,3.9,1.5&#xD;
		c1.8,0,4.7-3.8,6.6-2.2s2,2,2.2,4.3s-1.1,4.6,2.4,4s5.3-0.6,8-3.2s2.7-2.9,5-1.3s3.3,3.6,6,3.2c2.7-0.4,2.7-0.8,6.3,0.4&#xD;
		c3.6,1.3,4.2,1.4,5.9,0.1c1.7-1.3,1.1-3.5,2.8-2.4c1.7,1.1,3.1,4.3,4.6,3.6s1.8-3.6,5-2.7s3.1-0.4,5-1.7c2-1.3,1.4,0,4.9,0.6&#xD;
		c3.5,0.6,2.5-2.8,5.2-2c2.7,0.8,4.7,2.4,4.7,2.4s3.5-10.7,4-20.9s2-18.3,1.4-23C639,338.8,636.4,308,636.4,308z"/>
    <path class="st0 file-9-element-10" d="M408.9,133.8c0,0-11.5,15.2-11.7,41.6l59.5,79l42.3-48l-5.6-40.5l-5.7-4.6l-4.9-5.6c0,0-20.8,5.2-39.4-1.7&#xD;
		C424.8,147.2,408.9,133.8,408.9,133.8z"/>
    <path class="st0 file-9-element-11" d="M409.7,135.1c0,0,5,6.4,22.5,13.8s27.6,11.4,52.2,6c0,0-1.7-15.1-7.1-25.1c-5.4-10-9.5-15.2-11-16.6&#xD;
		c-1.5-1.4,0.1-3.9,0.1-3.9L489.9,88c0,0,2.3-6-0.4-12.9c0,0-8.8,0.4-12.3,5.5c-3.5,5-7.1,10.9-12.3,13.4s-20.7,9.1-29.7,15.1&#xD;
		C426.1,115.1,414.2,125.3,409.7,135.1z"/>
    <path class="st0 file-9-element-12" d="M228.7,276.3l21-2.9l-2.5-77.5c0,0-2.2-33.2,12.8-45.6c15.1-12.4,38.1-25.3,38.1-25.3l70.8,26.4h5&#xD;
		c0,0-0.1-7.8-1.8-19.4c-1.7-11.6-7.4-28.1-7.1-30.8c0.3-2.8,2.4-12.7,4.5-18.1c2.1-5.4,3.2-12.1-0.4-19.3c-3.6-7.1-11-9.4-11.4-9.6&#xD;
		c-0.4-0.3-6.7-1.7-6.7-1.7s-7.7-5.9-17.7-2.2c-10,3.6-12.4,10.2-17,19.3c-4.6,9.1-22.1,24.7-22.1,24.7s-17.3,11.7-24.7,22.3&#xD;
		S253,143.3,253,143.3s-9.8,19-12.4,32.7c-2.7,13.7-7.1,33.1-8,44.7C231.8,232.2,228.3,267,228.7,276.3z"/>
    <path class="st0 file-9-element-13" d="M467.4,196.2c0,0-20.1-8.5-35.9-10.7c-15.8-2.2-64.8-7.8-108,12.1c0,0,3.8,5.4,3.1,6.4c-0.7,1-2.4,1.8-2.4,1.8&#xD;
		l2,2c0,0,21.2,11.3,88.6,7c54-3.5,56.2-14,56.2-14L467.4,196.2z"/>
    <path class="st0 file-9-element-14" d="M467.3,204c0,0-7.5-7.2-25.3-9.9c-17.7-2.7-51.6-6.3-76-1.8c-24.3,4.5-40,10.9-40,10.9s-2.3,3.2-0.2,4.3&#xD;
		c2,1.1,19.5,6.5,37.7,7.2c18.2,0.7,37.1,1,51.2,0.1S453.4,211.7,467.3,204z"/>
    <path class="st0 file-9-element-15" d="M323.5,197.6c0,0,4.7-0.6,7.3,0.7s10.3,5.3,15.2,4.9s5.7-2.8,9.6-2.5c3.9,0.3,7.1,1.8,7.7,1.7s2.7-0.4,3.3-3.1&#xD;
		c0.7-2.7,1.5-3.9,1.5-3.9l0.4-3.6c0,0-8.4-4.5-11.3-4.7c-2.9-0.3-9.2-0.8-13.8,0.1s-8.4,1.1-12.6,0.6c-4.2-0.6-4.2-0.6-4.2-0.6&#xD;
		l37.4-17.3l12,6.8l11.7,6.3l0.6,4.6l11-2.2c0,0,2.2,2.2,7-0.8l13.3,0.6c0,0,0.3-3.1-3.6-4.7c-3.9-1.7-11.6-3.9-11.6-3.9&#xD;
		s-4-0.1-4.7-0.1s-4.5-1.4-5.9-2.8c-1.4-1.4-13.8-9.4-13.8-9.4l-3.6,10l-11.7-5.6l-21.5-58.5c0,0,10.7-7.3,12.8-8.9&#xD;
		c2.1-1.7,4.5-7.4,5.7-9.4c1.3-2,1.8-4.7,2.5-6.8s0.4-3.8,0.4-3.8s-6.1-4.3-12.4-5.3c-6.3-1-12.8-0.7-12.8-0.7L322,93&#xD;
		c0,0,0.4,9.4,8,13.8s9.8,4.7,10.6,4.9c0.8,0.1,2.5,0.1,2.5,0.1l1.7,1.4l18.1,54.8l-38.8,18.4l1.7,2.7&#xD;
		C325.7,189.2,322.2,193.4,323.5,197.6z"/>
    <path class="st0 file-9-element-16" d="M307.4,206c0,0,16.9,1.4,19.5-1c0,0-3.3-3.3-3.5-7.4c-0.1-4,2.2-8.4,2.2-8.4l3.1-2l-12.4-1.8l43.7-13.8&#xD;
		l13.8,7.4c0,0,4.3-9.2,4.5-9.9c0.1-0.7,4.2-4.3-0.3-8.4s-9.2-9.4-9.2-9.4s-3.6,8-4.6,11.2c-1,3.2-2.8,7.5-2.8,7.5L314.6,185&#xD;
		l0.4,3.3C315,188.4,310.7,193.1,307.4,206z"/>
    <path class="st0 file-9-element-17" d="M345.8,259.4c0,0-17.2-12-20.5-27.9C322,215.6,322,206,322,206l-4.2,0.3c0,0-6.6,18.4-13.3,25.8&#xD;
		c0,0-2.2-3.3-0.8-11.7c1.4-8.4,3.9-19,6.7-24.7c2.8-5.7,6-10.2,6-10.2l8.9,0.7c0,0,1.4,0.7,3.5,1.1c2.1,0.4,6.1,2.1,12.3,0.6&#xD;
		c6.1-1.5,9.9-1.4,14.1-1.4c4.2,0,4.5,0.8,4.5,0.8s-0.6-13,2.9-21.1c3.5-8.1,6.3-14.8,6.3-14.8s-8.8,2.8-9.5,3.6&#xD;
		c-0.7,0.8-12.3,6.4-28.2,4.5c-15.9-2-33.1-7-38.9-10.3c-5.9-3.3-16.7-10.5-16.7-10.5s-14.2,8-19.7,19c-5.4,11-8.9,15.1-8.7,38.2&#xD;
		s-6,28.9,2.1,76.1l0.4,1.4L345.8,259.4z"/>
    <path class="st0 file-9-element-18" d="M321.8,210.4c0,0-1.3-3.1,0.1-4.5c1.4-1.4,6.7,4,18.3,5.7c11.6,1.7,31.3,4.5,60,3.2s48.6-0.6,70.8-14.1&#xD;
		l0.5,7.8c0,0-29.5,11.9-84.9,11.2C331.2,219.1,321.8,210.4,321.8,210.4z"/>
    <path class="st0 file-9-element-19" d="M222.1,206.2c0,0,2.6,26.5,2.6,70.1l-44.5,5.5v16.2l3.8,1.8l0.1,99.2c0,0-8.7,1.6-15.6-0.2&#xD;
		c-6.9-1.8-16.4-4-16.4-4s2.7-1.6,3.7-2.1c1-0.5,0.4-6.2,0.5-6.1s2.4-2.9,3.1-3.5c0.6-0.6,3.2-4.7,3.4-7.1c0.2-2.4,1.3-7.2,1.3-8&#xD;
		s-5.6-11.2-7.7-12.7c-2.1-1.4,0.6-16.9,0.6-16.9s3.5-15.7,5.5-23s3.9-30.5,3.9-30.5s-1-7.6,3.1-15.1c4-7.6,13-12.4,13-12.4&#xD;
		S203.4,239.6,222.1,206.2z"/>
    <path class="st0 file-9-element-20" d="M207,174.7c0,0,0-3.1,1.9-1.9c1.9,1.1,2.4,4.5,6.7,3.9c4.3-0.6,7.1,2.6,7.9,6.1c0.8,3.5,3.1,4.8,2.9,8.5&#xD;
		s-1.6,11.7-7.1,19.9s-19.9,28-19.9,28s-12,14.8-17.2,18.2c-5.2,3.3-15.3,11.1-16.1,23c-0.8,11.9-1.1,28-3.5,32.6&#xD;
		c-2.4,4.7-6.3,19-6.3,28.6s-0.2,13.7-0.2,13.7l-12.2-6.1l4.2-37.3c0,0,0.3-24.1,4.7-34.7c4.3-10.6,4.3-15.4,4.8-26&#xD;
		s1.1-38.4,1.1-38.4l17.8-11.6L207,174.7z"/>
    <path class="st0 file-9-element-21" d="M200.3,315l0.2,86c0,0,7.8,2,12.2,7.8c4.4,5.8,11.1,14.2,18.8,13.5c7.8-0.7,7.3-0.2,11.1,4.9&#xD;
		c3.8,5.1,10.4,8.4,15.3,9.1c4.9,0.7,8.9,4.4,10,7.1c1.1,2.7,3.8,4,7.8,4.2c4,0.2,20,2,23.3,4.7c3.3,2.7,8.4,4.7,14.2,3.5&#xD;
		s10.9-1.6,13.1-5.3s2.7-5.5,8-3.1s9.8,6.9,21.9,1.3c0,0,3.8-2.4,7.3-2.2c3.5,0.2,3.3-1.6,4.4-3.3c1.1-1.8,8.4-5.1,10.9-6.7&#xD;
		s5.6-4.6,9.5-4c4,0.6,14.2,4.2,19.1-0.4c4.9-4.7,4.2-4.7,10.9-3.8s16.6,0.9,20.4-3.1c3.8-4,10-5.8,10-5.8l88.5-20l1.3-90.3&#xD;
		l-239.2,47.6l-21.1-0.7L200.3,315z"/>
    <path class="st0 file-9-element-22" d="M183.3,401.4l0.7-101.8l103.8,52.1l267.6-53l-0.4,109.7l-8.4,2.2L546,308.3l-246.7,48.3l-1.3,107.3l-10.4,1.6&#xD;
		l-9.3-4.9V356L191,308.5v92.7c0,0-2.9-0.4-5.3,0.9S183.1,403.6,183.3,401.4z"/>
    <path class="st0 file-9-element-23" d="M275.3,264l0.2,9.3c0,0,29,7.8,53.6-1.1l0.4-8.6c0,0-5.5,5.3-12.4,6c-6.9,0.7-22.2,0.2-27.9-0.2&#xD;
		C283.5,268.9,275.3,264,275.3,264z"/>
    <path class="st0 file-9-element-24" d="M275.3,264c0,0,5.5,8.2,25.9,6.7c20.4-1.6,26.4-3.5,28.4-7.1c2-3.5-8-9.5-25.9-8.9S276.8,257.8,275.3,264z"/>
    <path class="st0 file-9-element-25" d="M287.5,262.6c0,0,22.8,5.1,32.1,0c0,0,0.5-1.7-5.3-2.2C308.5,259.9,283,258.4,287.5,262.6z"/>
    <path class="st0 file-9-element-26" d="M275.5,273.3l2.4,6.9c0,0,25.1,8,49-0.2l2.2-7.8C329.2,272.2,303.9,279.9,275.5,273.3z"/>
    <path class="st0 file-9-element-27" d="M320.7,289.3l6.2-9.3c0,0-18.2,7.8-49,0.2l6,8.9C283.9,289,302.5,293.9,320.7,289.3z"/>
    <path class="st0 file-9-element-28" d="M293,293.7c0,0,11.5,5.5,24.6-1.8l0.9-2c0,0-15.3,2.2-31.7-0.2C286.8,289.7,288.4,292.1,293,293.7z"/>
    <path class="st0 file-9-element-29" d="M450.4,270.4l1.1,6.2l-9.1,2.7l-8.3-11.1c-10.1,8.4-17.5,10.3-17.5,10.3l0.9,16.4l-14-0.2l-4.4-13.7&#xD;
		c-19.5-0.2-35.7-7.8-35.7-7.8l-5.5,9.1l-6.6,3.3l-10.4-6.9l8.4-17.7c-25.5-8.9-28.8-50.8-28.8-50.8s19.5,10,71,9.3&#xD;
		c48.3-0.6,80-10.9,80-10.9c-9,25.6-20,42-29.8,52.4L450.4,270.4z"/>
    <path class="st0 file-9-element-30" d="M452.4,433.4l1.8,51.4c0,0-0.8,8.8-3.8,11.7c-3,2.9-6.4,4.7-8.2,5.5c-1.8,0.9-10,2.4-12.9,2.9&#xD;
		s-2.2,4.7-2.2,5.8c0,1.1-2.2,2,2.9,2s10.6-1.8,17.3-0.2c6.7,1.6,20.4,0.9,21.1-2.7c0.7-3.5-2.2-12.4-2.2-12.4l0.2-16.6&#xD;
		c0,0-0.2-7.3,1.6-14.6c1.8-7.3,3.1-16,3.3-22.2c0.2-6.2,1.3-14,1.3-14l11.1-15.5c0,0,26.8,2.9,27,3.5c0.2,0.7,7.3,29,7.3,29&#xD;
		s9.3,27.2,8.4,30.6c-0.9,3.4-4.7,9.3-5.1,11.5c-0.4,2.2,0.2,4.2-3.1,8.9c-3.3,4.7-3.8,8.2,0.2,8c4-0.2,4.2-1.8,10.4-9.8&#xD;
		c6.2-8,13.3-6.7,15.1-16s-7.8-8.2-8.2-11.7c-0.4-3.5-3.5-14.9-3.3-20.6c0.2-5.8-0.7-19.1-0.7-19.1l-4.9-7.3l-14-4l-28.2-4.7&#xD;
		l24.2-254.5c0,0-15.3-1.3-16.6,0.9c-1.3,2.2-2.2,7.8-4.4,10.2c-2.2,2.4-6.7,4-6.7,4s1.3,4,1.3,6.7s-0.9,8.4-0.9,9.3&#xD;
		c0,0.9-4,4.2,0.7,5.3c4.7,1.1,4.7,1.6,6.9,1.1s4.2-2.7,4.2-2.7l13.7-32.8l-7.5,74.3l-26.2-4l-7.5-10.4c0,0-1.1-10.7-3.5-13.1&#xD;
		c-2.5-2.4-3.5-2.7-4-0.4c-0.4,2.2,0.4,5.3,0.4,5.3s-8.9-8.9-11.1-9.3c-2.2-0.4-3.1,0-3.3,1.1c-0.2,1.1-2.6,1.3-2.9,2.4&#xD;
		s-2,1.1-1.8,2.9c0.2,1.8-3.3,0.4,0.7,5.1c4,4.7,6.9,6.9,10,8.9c3.1,2,10.9,5.3,11.7,7.8c0.9,2.4,4.4,7.1,4.4,7.1l7.1-5.1l23.7,3.8&#xD;
		l-0.4,19.1h-36.4l-32.8-25.3c0,0-4.4-6.7-4.4-10.9s0-7.1-2.2-8.2c-2.2-1.1-2.9-0.4-2.9,4.2c0,4.7,0,4.7,0,4.7l-8.4-3.5l-9.1-7.3&#xD;
		l-1.6,1.8l-1.1,2l-1.3,2.9l-0.7,4l0.7,4c0,0,7.5,6.4,10,7.5c2.4,1.1,8.9,2.7,10.6,4s20.8,23.1,20.8,23.1s10.6,12.9,16,14&#xD;
		s10.9-2,10.9-2l12.4-12.4l18.6,0.2l-12.6,154.1l-12.4,14l-17.7-5.8L452.4,433.4z"/>
    <path class="st0 file-9-element-31" d="M496.5,155.1c0,0,17.5-6.9,25.5-3.5c8,3.3,12.4,7.3,14.4,14.9s-1.3,18.6-1.6,21.3c-0.2,2.7-3.3,10.6-2,17.1&#xD;
		c1.3,6.4,2,13.1,0.4,15.3c-1.6,2.2-1.8,2.2-3.1-0.7c-1.3-2.9-4.7-8.4-4.7-8.4s-0.9,3.1-2.4,2s-1.6-1.1-1.6-1.1l-1.1,5.3&#xD;
		c0,0-1.6,2.4-4.7-1.6c-3.1-4-3.8-7.8-3.8-7.8l-0.9,7.8c0,0-3.1,3.1-5.5-1.3s-4-10.6-4-10.6l-10.6,3.1c0,0,1.3-10.4,1.6-11.5&#xD;
		c0.2-1.1,0.7-14.2,1.1-17.1c0.4-2.9,6-6.9,7.1-9.5c1.1-2.7-4.4-8.9-6.4-10S496.5,155.1,496.5,155.1z"/>
    <path class="st0 file-9-element-32" d="M535.1,432.9c0,0,2-20-0.2-36.1c-2.2-16.2-6.4-26.4-3.8-42.6c2.7-16.2,0.9-29.9-1.1-40.3s-2.9-21.1-2.9-21.1&#xD;
		s-5.8,0.9-7.8,0.7c-2-0.2-5.5,2-8.4,0.2c-2.9-1.8-6.2-2.4-6.2-2.4s-6.9,4-10.9,0.9l-3.8-0.2c0,0-4.9,3.1-8.9,0.4l-6.9,0.7&#xD;
		l-11.7,34.6c0,0-7.8,25.3-10.9,46.1c-3.1,20.8-6,38.8-4.9,54.8l6.4-7.8l2.4,15.7l1.8-1.8l3.1-8.6l4,11.1l1.3-1.8l4-7.5l4,7.5&#xD;
		l5.5-5.5l5.5,7.8l4.4-10l5.3,8.9l4.4-10.9l7.1,11.3l2.4-11.5l2.7,1.6l3.8,6.2l4.7-6.9l3.8,6.4l1.8-6&#xD;
		C525.3,426.7,528.7,426.3,535.1,432.9z"/>
    <path class="st0 file-9-element-33" d="M450.4,270.4c0,0,0,16.4,14.2,17.5c0,0-0.2-6.4,1.1-11.7c1.3-5.3,0.7-7.1,0.7-7.1S457.3,276.4,450.4,270.4z"/>
    <path class="st0 file-9-element-34" d="M459.1,245.8l-4.2,4.7c0,0,6.2,3.8,8.6,8.6c2.4,4.9,4.2,9.3,3.1,15.1c-1.1,5.8-3,13.3-0.2,15.5&#xD;
		c2.8,2.2,8.2,3.1,11.5,2.9c3.3-0.2,4.4,1.1,6,1.3s10-1.8,10-1.8s3.5,3.5,10.9-0.9c0,0,4.9,4,9.8,3.1c4.9-0.9,11.1,0.9,12.6-1.6&#xD;
		c1.6-2.4,2.5-10.2,0-16c-2.5-5.8-2.7-7.3,0.7-17.1c3.3-9.8,0-24.2,0-24.2s-0.2-10,1.8-14.6s-3.8-11.5-3.8-11.5s-1.1,4.7-2.7,3.5&#xD;
		s-2.9-3.5-2.9-3.5s2.4,5.8,0.2,7.8c-2.2,2-6.4-5.5-6.9-7.1c-0.4-1.6-1.6-2.2-1.6-2.2s-0.2,8.9-2.9,9.1c-2.7,0.2-7.5-13.3-7.5-13.3&#xD;
		l-4,3.8C497.6,207.4,490.8,209.9,459.1,245.8z"/>
    <path class="st0 file-9-element-35" d="M254.1,259.7c0,0-2.4,2.2-7.6,1.9s-5.1,1.6-5.9,1.9c-0.9,0.4-2.7,2.6-5.1,1.6s-5.8-0.8-7.2-4&#xD;
		c-1.4-3.2,0.6-3.7-5.5-4.2c-6.1-0.5-15.1,0.2-22.7-1s-14.5-2.2-17.5-3.1c-3.1-0.8-6.1-2.7-8.5-8s-8.2-19.1-12.9-28.9&#xD;
		c-4.7-9.8-8-23.3-5.3-28.1s4.8-6.1,7.4-7.1s6.7-0.7,8-2.6s0.8,2.8,0.8,3.9c0,1,5.1-3.1,6.6-4.2c1.4-1.1,5-2.4,5-2.4&#xD;
		s0.8,3.8,0.6,5.5s1.8,1.4,3.5-0.2c1.7-1.5,3.1-2.6,3.1-2.6s0.3,4,0.2,5.3c-0.2,1.3,1.4,1.9,2.4,0.5c1-1.4,1.3-8,1.8-10.1&#xD;
		c0.5-2.1,1.9-10.9,7.2-15.1c5.3-4.2,7.1-8.7,9.2-15.3c2.1-6.6,6.1-12.9,11.7-14.1c0,0,2.6,8.4,1.9,12.4c-0.6,4,0.3,5.9,0.8,7.2&#xD;
		c0.5,1.3,0.3,2.6-1,3.4c-1.3,0.8-2.4,2.7-2.6,4.3c-0.2,1.6-1.4,2.1-1.4,4.5s-0.6,5.3-2.6,5.8s-13,0.8-13,0.8s-4,7.4-3.5,7.2&#xD;
		s5-0.3,5-0.3s-1,16.7-10.6,24.3c-9.6,7.6-13.3,5.3-15.6,4.5c-2.2-0.8-3.7-1.3-3.7-1.3l11.2,35.8c0,0,17.5,3.4,23.5,7.1&#xD;
		c5.9,3.7,18.8,4.3,21.9,3.1c3-1.3,1.6-2.6,1.6-2.6l-11.2-4.8l-0.6-14.1c0,0,15.3,11.1,19,12.4c3.7,1.3,9.8,2.1,11.6,1.4&#xD;
		s5.8-3.4,7.7-3.4s5.9,1.4,8.2,1.8c2.2,0.3,4.9,0.5,4.5,0.8c-0.4,0.3,0.8,3.1-0.3,3.1s-10.9-0.3-13.7-0.2c-2.7,0.2-8.2,0.5-9.8,1&#xD;
		c-1.6,0.5-7.2,0.8-9.3,1.9c-2.1,1.1-4.2,1.6-3.5,2.2s7.1-1.9,7.9,0.6s-1.2,3.6-1.9,3.4s-4.2-0.2-4.8,1.9c-0.6,2.1,3.4,2.9,6.3,3.9&#xD;
		S254.5,257.6,254.1,259.7z"/>
    <path class="st0 file-9-element-36" d="M193.5,184c0,0,1.6-3.2,3.4-12.2c1.8-9,3.7-10.1,8-14.9c4.3-4.8,5.1-9.8,7.4-16.1c2.2-6.3,7.6-9.8,11.1-11.4&#xD;
		c3.5-1.6-3.9-5.9-4.3-6.3c-0.5-0.3-15.6-7.6-25.9-0.3c-10.3,7.2-11.2,16.2-12.4,19.6c-1.1,3.4-0.2,5-9.6,17.4&#xD;
		c-9.5,12.4-12.9,16.4-14.3,26c0,0,6.6-5.6,9.6-5.5v2.2l5.9-5.1l-0.3,5.9c0,0,4.8-5.5,7.7-6.3c2.9-0.8,3.9-1.6,3.9-1.6l0.8,8.4&#xD;
		c0,0,4.3-6.4,6.4-5.6C193,179,189.1,187.5,193.5,184z"/>
    <path class="st0 file-9-element-37" d="M245.9,249.6c0,0,19.8,5,39.9-3.2c0,0-2.6,9.6-20.4,11.7c-17.8,2.1-27.3-3.4-27.3-3.4s1.9-2.9,4-3.4&#xD;
		C244.1,250.9,245.9,249.6,245.9,249.6z"/>
    <path class="st0 file-9-element-38" d="M281.2,243.5l4.5,2.9c0,0-23.1,7.6-39.9,3.2c0,0,0.5-1.4-5.5-1.3s-3.7-2.4,0.8-2.9&#xD;
		C245.7,244.9,260.2,240.3,281.2,243.5z"/>
    <path class="st0 file-9-element-39" d="M382,195.2c0,0,34.1,13.3,59.2,0.1c0,0,0.5,11.9-20,13S383.4,205.4,382,195.2z"/>
    <path class="st0 file-9-element-40" d="M399.4,185.3c0,0-8.2,0.6-13.1,3.2s-7.4,5.3-1.7,8.1c5.7,2.8,43,9.9,56.5-1.3c0,0,3.2-6.8-9.1-8.4&#xD;
		C419.8,185.4,399.4,185.3,399.4,185.3z"/>
    <path class="st0 file-9-element-41" d="M420.4,197.2c0,0,13.3-1.7,14.1-4.2c0.8-2.5-14.7-4.2-23.7-3.9c-9.1,0.3-20.7,1.7-21.4,3.3&#xD;
		C388.7,194.1,401.5,198.4,420.4,197.2z"/>
    <path class="st0 file-9-element-42" d="M303.3,232.3c0,0,9.2-8.8,14.5-26.1l-11.6,0.1C306.2,206.4,300.9,223.7,303.3,232.3z"/>
    <path class="st0 file-9-element-43" d="M275.5,138.7c0,0,53.5,37.5,92.5,11.7c0,0-4.6-22.5-14.5-30.1s-10.5-8.4-10.5-8.4s-1.8-0.7,2.1-2.9&#xD;
		c1.8-1,3.3-2.2,4.5-3.2c1.5-1.2,2.7-2.2,3.8-2.7c2.1-0.8,5.7-3.8,7-7.5c1.3-3.8,2.7-5.3,3.8-7.7c1.1-2.4,1.4-4.7,1.8-6&#xD;
		s2.4-7.4,0-12.7s-9.6-5.4-9.6-5.4l-17,11.4c0,0,13.3-0.3,19,2.4c5.7,2.7,6.3,4.5,6.3,4.5s0,4.2-3.8,9.9c-3.8,5.7,0.7,3.9-4.3,8&#xD;
		c-5,4-8.9,8.8-9.4,8.9c-0.4,0.1-3.6-0.3-4.3,0c0,0-3.5-1.4-8-4.5s-7.8-8.1-5.7-18.7c0,0-16.5,19.3-19.8,26.4&#xD;
		c-3.3,7.1-16.7,16.5-16.7,16.5L275.5,138.7z"/>
    <path class="st0 file-9-element-44" d="M491.1,86.2c-1.3,3.4-0.4,4.5-0.6,10.9c-0.1,6.4-3.5,13.7-6,22.5c-2.5,8.8-2.9,18-2.9,18s-0.1,3.9-3.5-5.2&#xD;
		c-3.4-9.1-12.8-20.2-12.8-20.2l1.1-2.9c0,0,7.8,1.8,9.1,1.5c1.2-0.3,1.7-2.6,2.2-3.8c0.6-1.1,1.4-2.2,1.4-3.6&#xD;
		c0-1.4,2.3-4.7,2.8-4.5c0.5,0.2,2.1,0.7,3.1-0.6c1-1.3,0-3.3,1.1-5.7c1.1-2.4,3.8-4.6,3.8-4.6c1.5-3.1,1.4-6.8,0.7-10.6&#xD;
		c-0.2-0.9-0.6-1.7-1.1-2.3c-2,0-7.7,0.2-10.2,3.7c-3.1,4.2-10.9,11.9-11.9,12.6c-1,0.7-4,3.5-18.6,9.9&#xD;
		c-14.5,6.4-27.5,17.3-34.2,24.7c-6.7,7.4-16,27.2-17.5,49.4l-12-8c0,0,2.8-22,11.2-33.8c8.4-11.7,21.4-20.2,30-31&#xD;
		c8.7-10.8,11.7-15.2,14-21.6s15.3-23.2,34.9-20.2c0,0,9.1,0.2,13.6,10.6c0.1,0.1,0.1,0.2,0.2,0.3c0.7,1.1,1.3,2.2,1.7,3.3&#xD;
		C492.4,79.3,492.1,83.5,491.1,86.2z"/>
    <path class="st0 file-9-element-45" d="M463.3,94.6c0,0-4.6,7.4-1.8,11s9.2,4.5,11.3,4.6c2.1,0.1,4.2-0.8,4.7-2.4c0.6-1.5,2.8-5.6,2.8-5.6l1.5-3.3&#xD;
		c0,0,2.8,0.7,3.6-2.1c0.8-2.8,0.1-4.6,2-6.1c1.8-1.5,2.4-2.7,2.4-2.7s-4.7-6.4-16-3.3C473.8,84.7,468.6,91.5,463.3,94.6z"/>
    <path class="st0 file-9-element-46" d="M524.9,87.3l3.6,1.8c0,0,17.9-13.8,17.2-24.3C545.7,64.9,526.1,75,524.9,87.3z"/>
    <path class="st0 file-9-element-47" d="M519.4,86.3c0,0,1.1-18.4,12.1-24.7c0,0,2.9,4.9,0,13.3c0,0-5.2,4.9-6.7,12.4L519.4,86.3z"/>
    <path class="st0 file-9-element-48" d="M526.1,131.6c0,0-2.8-8.8-1.4-12.3c1.4-3.5,1.8-6-1.5-9.6l-6-2.9l-4.5-2.9c0,0-3.5,3.2-3.9,3.5&#xD;
		c-0.4,0.3-2.7,2.2-4.6,2.2s-3.6-3.4-2.2-5.7s2.8-7.4,3.1-9.1s4.9-8.1,14.4-8.4c9.5-0.3,15.2,7.8,15.9,8.9s4.2,12.7,4.5,13.7&#xD;
		c0.3,1-0.1,4.3-0.6,6.1C538.8,116.9,533.5,127.2,526.1,131.6z"/>
    <path class="st0 file-9-element-49" d="M504.6,116.8c0,0,3.8,5.9,6,8.1c2.2,2.2,5.4,5.4,8.5,6.3c3.1,0.8,7,0.4,7,0.4s-0.4-4.7-0.3-8.9&#xD;
		c0.1-4.2,0.8-8.7-0.1-10.7c-1-2.1-9.4-5.6-9.9-6.6c-0.6-1-3.1-1.5-3.1-1.5l-3.9,3.5c0,0-2.7,1.8-5.6,2.5&#xD;
		C500.3,110.5,504.6,116.8,504.6,116.8z"/>
    <path class="st0 file-9-element-50" d="M603.2,119.7c0,0,11.3,1.7,19.5,5.9c0,0,8.1-8.2,3.5-21.4c0,0-4.2-0.6-6.6,0.7s-5.7,0.6-7.5-1&#xD;
		c-1.8-1.5-3.8-2.8-6-1.5C603.9,103.7,600.4,108.1,603.2,119.7z"/>
    <path class="st0 file-9-element-51" d="M573.3,111.6c0,0,4.3,15.5,6.7,19.1s1.5,0.4,2.8-2.5c1.3-2.9,1-5.2,3.2-4.9c2.2,0.3,4.2,1,4.6-2.7&#xD;
		c0.4-3.6,2-5.6,4.6-6s3.6-6.3,2.9-14.2c-0.7-8-0.8-6.4-1.1-11.9s-2.5-13.4-8.4-16.2c-5.9-2.8-18.6-0.1-21.8,1.4&#xD;
		c-3.2,1.5-9.9,5.9-11.2,7.8c-1.3,2-1.1,4.2-1.1,4.2s19.8,6.6,41,4.7l0.3,2.4c0,0-20.8,3.2-33.6,0.1&#xD;
		C562.3,93,572.9,96.1,573.3,111.6z"/>
    <path class="st0 file-9-element-52" d="M553.4,92.3c0,0,2.5-1,5.6,0.3c3.1,1.3,29.3,3.3,37.4-0.7l0.3-1.4c0,0-22.7,1.7-42-4.7c0,0-1,3.6-2.2,4.3&#xD;
		C551.1,90.8,549.6,93.5,553.4,92.3z"/>
    <path class="st0 file-9-element-53" d="M591.6,117.6c0,0,24.1,0.4,37.5,11.2c0,0,8.7,2.8,6.3,7.7s-4.5,7.8-4.5,7.8s-18.4-13.1-31.7-17s-16.5,1-16.5,1&#xD;
		s0.7-5.2,3.2-4.9c2.5,0.3,4.2,0.6,4.5-1.4C590.8,119.9,590.3,117.7,591.6,117.6z"/>
    <path class="st0 file-9-element-54" d="M606.1,102.4c0,0,2.1-0.7,4.9,1.3c2.8,2,5.2,2.9,8.7,1.3s6.6-0.7,6.6-0.7s0.3-4.9-8.5-6.8&#xD;
		C608.9,95.4,606.2,99.6,606.1,102.4z"/>
    <path class="st0 file-9-element-55" d="M562.4,134.8c0,0,15.4-1.1,30,7.7c14.7,8.8,16.7,9.2,24.3,18.3c7.5,9.1,19.3,19.5,26.8,33.4&#xD;
		c0,0,1-3.3-0.8-10.3c-1.8-7-3.2-13.7-3.2-15.1c0-1.4-0.1-15.5-7-23c-6.8-7.5-33.2-18.4-33.2-18.4s-5.7-2.4-14.7-1.1l-1.8,2.1&#xD;
		c0,0,0.4,5-0.7,5.2c-1.1,0.1-4-2.9-5.2-6.8c-1.1-3.9-1.7-5.3-1.7-5.3s-1.1,2.2-3.6,4.7C569.1,128.5,564.2,130.6,562.4,134.8z"/>
    <path class="st0 file-9-element-56" d="M534,193.1c0,0,14.7-1.1,16.7-7.1c0,0-4.2-5.4-13.4-6.1L534,193.1z"/>
    <path class="st0 file-9-element-57" d="M381.9,211l5.9-0.7l-39.9-34.6c0,0-5.5-4.1-6.4-2.8s-0.8,3.1,3.6,6.9s9.2,7.1,9.2,7.1s10.4,2.8,13.5,4.6&#xD;
		s1,4.3,0.2,4.7c-0.8,0.4,0,1.9,0,1.9L381.9,211z"/>
    <path class="st0 file-9-element-58" d="M91.1,318.8c0,0-2-10.4-0.9-12.3c1.1-2,8.1-2.1,10.1-2.7c2.1-0.6,3.5-2.3,3.4-5.9c-0.1-3.5-1.9-8.8-0.5-9.4&#xD;
		c1.4-0.6,3.7,0.4,2.2-2.9s-3.4-8.4-3.3-11c0.1-2.6-4.2-8.1-5.4-8.1s-8.3,7.1-9.4,13.2c-1.1,6.1-1.2,16.1-1.5,21.1&#xD;
		s1.5,18.1,1.5,18.1L91.1,318.8z"/>
    <path class="st0 file-9-element-59" d="M91.9,262c0,0-10-2.9-17.3-1.2c-7.3,1.7-14.5,2-19.2,10.4c-4.6,8.4-4.9,11.6-5.3,19.2&#xD;
		c-0.4,7.6,2.6,11-0.1,17.2c-2.7,6.2-7.1,14.5-7,15c0.1,0.5,4.5,0.5,4.9,0.4c0.4-0.1-0.2,6.2-0.2,6.2s4.9-6,7.3-6.1&#xD;
		c2.4-0.1,0.7,3.5,0.7,3.5s8.5-7.6,10.3-7.9c1.7-0.4,2.2,0.4,2.2,0.4s0.4,8.5,2.8,7.9c2.4-0.6,1.3-5.9,3.5-7.2&#xD;
		c2.2-1.3,3.3-3.8,3.3-3.8s4,1.7,4.4,1.8c0.4,0.1,5.1,1.1,5.1,1.1s-3.8-25.2-0.4-36.6s9.8-15.8,9.8-15.8S96.2,264.9,91.9,262z"/>
    <path class="st0 file-9-element-60" d="M32.9,450.9c0,0,6-12.1,10.4-19.4c4.4-7.3,6.6-14.3,7.3-15.6c0.7-1.3,2.1-5.9,4.8-6.2s6-0.2,7.9-2.4&#xD;
		c2-2.2,1.3-5.1,5.3-7.4c3.9-2.3,12.8-5.6,12.8-5.6s0-2.5,5.9-6.7s10.7-7.6,11.2-8.9c0.5-1.3,10.7-15.4,10.7-15.4l2.3-4.8&#xD;
		c0,0-0.9-7.4-3.3-10.9c-2.4-3.4-3.4-6.1-3.3-10.1s0.5-6.6-3.5-10.5c-4-3.9-4.5-5.3-9.4-7.1c-4.9-1.8-5.9-1.2-7.8-1.6&#xD;
		c-2-0.4-3.9-2.3-5.5-2.2c-1.6,0.1-2.8,1.6-4.2,3.8c-1.3,2.2-2,7.4-3.5,7.2s-2.3-2.1-2.6-5c-0.2-2.9-0.4-3.7-2.4-3.3&#xD;
		s-9.2,7.2-9.2,7.2l-1.2-4.2l-7.9,7.4l-0.5-3.4l-0.9-1.3l-2,2.4c0,0-9.6,9.8-11,11.1c-1.3,1.3-5,5.9-5.9,11.7s1.1,11.4,1.1,11.4&#xD;
		s-1.7,11.1-0.6,14.7c1.1,3.5-2.9,15.6-2.9,15.6s-2.9,13.9,4.2,30.3l-0.1,4.2c-0.7,0.5-8.6,13-2,16.2c0,0,2-7.3,5.3-6.2&#xD;
		C35.7,436.9,32.1,444.7,32.9,450.9z"/>
    <path class="st0 file-9-element-61" d="M128.1,407.1l7.4-6.2c0,0,2.9-2.7,5.3-9.6c2.3-7,11.5-12.5,13.4-14c2-1.6,7.1-3.8,7.9-3.8&#xD;
		c0.9,0,1.2-0.7,1.2-0.7s1.3-5.7-0.9-9c-2.2-3.3-9.2-13.1-18.6-15.5c-9.4-2.4-15.3,0-18.7,1.1c-3.4,1.1-12.1,6.6-14.7,10.5&#xD;
		c-2.6,3.9-5.5,11.2-7.2,13.1c-1.7,1.8-5.1,8.1-8.8,10c-3.7,2-9,6.3-10.7,7.7s-3.4,8.1-1.2,7.9c2.2-0.1,7-3.7,7-3.2s1.2,5.9,1.2,5.9&#xD;
		s6.8-6.8,8.1-6.4s-1.1,7.4-0.4,7.8c0.7,0.4,6.4-5.9,7.2-5.5s-1.1,6.7,0.1,7.3c1.2,0.6,6.8-5.5,8.7-5.3c1.8,0.2,0.6,6.8,1.8,7.1&#xD;
		c1.2,0.2,6.7-4.3,7.9-3.9c1.2,0.4-1.1,4.8,0.4,5.4C126.1,408.3,128.1,407.1,128.1,407.1z"/>
    <path class="st0 file-9-element-62" d="M108,368.9c0,0,19.4,9,32,9s13.9-2,17.5-3.1c3.5-1.1,4.6-1.5,4.6-1.5s1.9-0.6,1.8-3.1&#xD;
		c-0.1-2.5-4.2,1.3-12.7,1.3s-16.6-0.4-26.7-3.5c-10.1-3.2-14.7-6-14.7-6l-3.3,5.5L108,368.9z"/>
    <path class="st0 file-9-element-63" d="M167.1,444.8c0,0,2.7-7.6,6.8-9.5c4.2-2,13.6-5.9,16.1-8.2c2.6-2.3,4.5-3.7,5-5.3c0.5-1.6-1.8-2.3-1.8-2.3&#xD;
		s2.6-2,1.1-3.9s-0.1-2.3-1.6-4.2c-1.5-1.8-2.1-1.5-2.1-2.1c0-0.6,1-1-0.5-1.3s-4.5-0.4-5-0.1c-0.5,0.2,5.3-3.9,4-5.5&#xD;
		c-1.2-1.6-5.1,0.5-7.7,2.1c-2.6,1.6-5.4,2.8-8.3,6.6s-7.9,15.3-8.3,15.6s-9.6,8.1-9.6,8.1L142.2,445c0,0,1.4-7.1-0.8-11.6&#xD;
		c-2.2-4.5-4.9-9-4.9-9.4s-1.1-5.4,0-7.2c1.1-1.8,1-5.4-1.2-8.3c-2.2-2.9,0.4-1.7,1.5-1.5c1.1,0.2,7-1.1,10.3-6s4.5-7.9,6.6-7.7&#xD;
		c2.1,0.2,3.4-1.1,3.4-4.4s-1.4-2.4,2.2-5.9c3.6-3.6,4.1-10.3,4.1-10.3s-6.4,1.2-7.2,2.4c-0.9,1.2-10.4,5.9-12.3,12&#xD;
		s-8.3,13.8-8.3,13.8s-3.9,2.2-3.2,3.4c0.7,1.2,0.7,2.9,1.1,3.8s7.2,2.4,2,13.6c0,0,5.1,10.3,5.5,14c0.4,3.8,0.6,10.4,0.6,10.4&#xD;
		l9.8-6.5l9-9.6l3.5,6L167.1,444.8z"/>
    <path class="st0 file-9-element-64" d="M141.5,444.5c0,0,5.6-2,8.1-4.2c2.4-2.2,10.7-10.4,10.7-10.4l6.7,13.8l4.8,4.6l-1,23.4l-2.4,11.2&#xD;
		c0,0,15.6,2.1,22,1c6.4-1.1,10.6-4,10.6-4s7.7,8.4,8.7,12c1,3.5,3.3,15.1-5.4,26.4c-8.7,11.2-23.1,28.2-25.3,29.9&#xD;
		s-14.2,5.4-31.5,9.3c-17.3,3.9-56.9,6.5-70.3,5c-13.4-1.5-22.8-4.9-23.6-4.9S34.4,554,34.4,554l-1.6-11.1l-2.9-14.4&#xD;
		c0,0-1.6-11.5-0.5-33.5c1.1-22,2.3-36.5,2.3-36.5s1.5-10.5,3.5-13.8s9.4-16.2,9.4-16.2s5.9,3.3,14.3,3.1c8.4-0.2,12.5,0.1,23.2-5.5&#xD;
		c10.7-5.6,22.2-6.8,30.7-5.5s18.7,2,24.2,5C137,425.5,143.2,432,141.5,444.5z"/>
    <path class="st0 file-9-element-65" d="M172,465.2c0,0,17-4,25.9,1.3s8.5,5.7,5.4,7.9c-3.2,2.2-8.9,6-16,5.6s-12.3,0.1-17.1-2.9&#xD;
		C170.2,477.2,167.7,466.7,172,465.2z"/>
    <path class="st0 file-9-element-66" d="M187.7,476.2c0,0,8.7-1.2,9.5-4.5c0.9-3.3-15.6-3.4-15.6-3.4s-9.2-0.6-10,2.3S179.5,476.5,187.7,476.2z"/>
    <path class="st0 file-9-element-67" d="M168.1,482.2c0,0,26.9,8.4,37.2-7.2l-1.1-2.3c0,0-8.3,8.5-20.8,7.3c-12.5-1.2-15.3-4.4-15.3-4.4L168.1,482.2z"/>
    <path class="st0 file-9-element-68" d="M176.4,408.1c0,0-2.4-0.6-5.9,0c-3.4,0.6-10,2.3-14.7,1.2c-4.6-1.1-5.3-3.1-2.2-5c3.1-2,8.7-2.4,10.9-0.6&#xD;
		c2.2,1.8,4.2,0.6,4.2,0.6l13.1-0.6c0,0,5-2.8,6.1-3.1c1.1-0.2,2.2,1.2,2.2,1.6s4.6-0.1,4.6-0.1s15.8-1,16.5,0.6&#xD;
		c0.7,1.6-1.3,2.7-6.5,3.2c-5.1,0.5-17.8,0.7-17.8,0.7l2.3-4.2c0,0-0.1-1.3-4.5,0.7C180.3,405.3,177.9,406.4,176.4,408.1z"/>
    <path class="st0 file-9-element-69" d="M34.3,549.5c0,0-12,4.9-12.6,8.6c-0.7,3.8-2,12.2-0.9,19.5c1.1,7.3,5.1,35,5.1,35s6.7,6.2,30.4,0.9&#xD;
		c23.7-5.3,67.2-14,84-22.2c16.8-8.2,65.4-25.9,65.4-25.9s11.7-1.6,13.3-10.4c1.6-8.9-14.9-24.6-14.9-24.6l-4.9-6.4l-8.2,10.2&#xD;
		c0,0-8.6,15.3-22.2,18.8c-13.5,3.5-42.1,8.6-61.2,9.3s-34.1,0.2-46.1-2.4c-12-2.7-27.2-5.9-27.2-5.9L34.3,549.5z"/>
    <path class="st0 file-9-element-70" d="M637.3,439.8c0,0-1.8-2.2-5.8-1.8s-8.9-3.8-9.1-4.4s-1.3-3.5-1.3-3.5s-2-4.4-2-6.9s-4.2-4.9-3.3-6.9&#xD;
		c0.9-2,7.1,1.3,7.1,1.3s6,1.3,10.4,1.1c4.4-0.2,4.4-0.2,4.4-0.2s-6-5.1-4.7-9.1c1.3-4,13.5,10.4,13.3,17.1l28.6,15.3l17.1-102.2&#xD;
		l-8.2,0.2c0,0-7,2.5-7.3-5.1c-0.3-7.6-0.3-7.6-0.3-7.6l1.2-2.5l-4.7-4l5.8-7.5c0,0-1.3-8.6,1.1-11.3c2.4-2.7,4.7-5.1,4.7-5.1&#xD;
		l3.1,40.8l5.8,0.2L677,442.9l-31.5-14.4C645.5,428.5,640.2,433.8,637.3,439.8z"/>
    <path class="st0 file-9-element-71" d="M730.9,340.9c0,0-5.8-1.3-0.9-6.9s8.6-25.5,5.1-35.2c-3.5-9.8-12-13.5-21.5-13.3c-9.5,0.2-17.7,0-23.7,4.9&#xD;
		c-6,4.9-5.8,11.7-4.9,18.6c0.9,6.9,3.3,22.8,2.4,28.4s-0.4,21.1-0.4,21.1s3.1-1.3,5.5-2c2.4-0.7,3.7-1.6,6.4-3.1s5.2-1.4,6.9-2.9&#xD;
		c1.7-1.4,2.4-1.6,3.3-1.6s1.6-2,3.3-2c1.8,0,1.8,0.7,4.2-0.7s3.3-3.5,5.1-2.7c1.8,0.9,2.9-2.7,5.3-2&#xD;
		C729.5,342.2,730.9,340.9,730.9,340.9z"/>
    <path class="st0 file-9-element-72" d="M733.3,342.2c0,0-6.7-1.9-8-0.7c-1.3,1.3-2,2.4-5.5,1.3l-3.1,3.3l-4.2,0.7l-1.3,2.7l-2-0.7l-3.3,1.6l-13.3,6&#xD;
		l-12.2,6.4c0,0-8.9,4.4-10,10.2s7.1,2.7,7.1,2.7l-1.8,3.1c0,0-7.8,6.2-8,16.8c-0.2,10.6,3.1,18.8,2.2,21.7&#xD;
		c-0.9,2.9-0.8,8.8-3.1,11.7c-2.3,3-1.8,2-6-2.2c-4.2-4.2-11.1-3.5-17.1,4c-6,7.5-11.7,16-13.3,33.3l-1.8,4.2c0,0-31-4.4-37.2,9.1&#xD;
		c-6.2,13.5,0.4,29.3,14.6,43.2s62.3,39.7,62.3,39.7s14.9,8.4,16,9.1c1.1,0.7,14.9,3.5,17.7,7.1s6.4,9.5,16.6,11.5&#xD;
		s19.1,4.7,19.1,4.7l11.5-2.2l9.5,0.9l6.4-1.3l10.4,0.9l6.2-3.3c0,0,3.5-3.8,2.4-9.1s-0.9-7.1-5.1-9.8c0,0-0.2-17.7-7.8-23.3&#xD;
		s2-12.9,3.3-18.2c1.3-5.3,1.3-15.1,0-21.5c-1.3-6.4-2.9-6.7-0.2-14.6c2.7-8,0.7-18-0.7-25.3c-1.3-7.3,1.3-31,1.6-39.2&#xD;
		c0.2-8.2-4-22.6-9.3-31.5c-5.3-8.9-2.9-9.8-3.1-14.2c-0.2-4.4-4-7.1-6.2-9.8c-2.2-2.7-6.4-6.7-5.1-11.3c1.3-4.7-0.9-5.1-4.9-7.3&#xD;
		c-4-2.2-6-7.1-6-7.1S738,339.6,733.3,342.2z"/>
    <path class="st0 file-9-element-73" d="M663,397.9l4.2,0.7l0.2,4c0,0-10.2-1.3-26.2,0.9s-20.6,5.8-20.6,5.8s-2.2,6.4,5.1,10l-12.2-4&#xD;
		c0,0-2.9-6.4,8.4-10.9S641.5,396.8,663,397.9z"/>
    <polygon class="st0 file-9-element-74" points="538,407.4 538.4,310.1 537.5,308.1 287.7,356.2 196.6,310.1 196.5,312.3 200.4,315 200.6,401 &#xD;
		189.9,403.2 191,401.2 191,308.5 194.7,311 194.8,307.9 288.4,354.7 543.8,305.4 546.2,306.8 546.4,410.7 	"/>
    <polygon class="st0 file-9-element-75" points="180.2,297.9 287.7,351.8 287.5,332.9 180.2,281.7 	"/>
    <polygon class="st0 file-9-element-76" points="558.6,280.8 558.6,297 528.9,304.8 287.7,351.8 287.5,332.9 	"/>
    <polygon class="st0 file-9-element-77" points="180.2,281.7 287.5,332.9 557.1,280.8 520.5,274.8 432.9,266.4 347.3,259.1 	"/>
  </g>
  <g id="outline">
    <path class="st1 file-9-element-78" d="M631.5,468.7c0,0-18.6-5.7-33.6,3c-15,8.6-12,37.2,22.6,60.5c34.6,23.3,45.9,25.3,59.5,34.3&#xD;
		c13.6,9,15,5,20.3,8.6c5.3,3.7,3.7,8.6,15.3,12.3c11.6,3.7,13,3,21.6,4.3s12.6-2.7,18-0.7s7-2,13-1c6,1,12,1,14-3c2-4,4-12-1-16.6&#xD;
		c-5-4.7,0.3-8.6-4.7-17.6c-5-9-11-9.3-5-19.6c6-10.3,5-22.9,2-29.9c-3-7,4.3-12.3,1.7-28.6c-2.7-16.3-1-35.9,0-41.9&#xD;
		c1-6-0.7-19.3-6.3-30.6c-5.7-11.3-7.3-14.6-6.3-20c1-5.3-5-10-8-13.6c-3-3.7-3.7-4.3-2.7-9.3c1-5-4.3-5.3-7-8.3s-3.7-4.7-3.7-4.7"/>
    <path class="st1 file-9-element-79" d="M733,364c0,0,11.3-1,15.6,2.7"/>
    <path class="st1 file-9-element-80" d="M727.6,377.9c0,0,12.3,29.6,19.3,43.2c7,13.6,3.3,31.6,6.7,37.2"/>
    <path class="st1 file-9-element-81" d="M740.6,459.4c0,0-6-11.6-4.7-18.3c1.3-6.7-24.6-50.2-30.3-54.5"/>
    <path class="st1 file-9-element-82" d="M676.1,438.8c0,0-5.3,4.7,4,20.6s22.6,33.6,40.9,39.2c18.3,5.7,22.9,10,22.9,10"/>
    <path class="st1 file-9-element-83" d="M655.2,453.4c0,0-2.7,11.3,13.3,31.3c16,20,45.2,61.9,72.8,58.2"/>
    <path class="st1 file-9-element-84" d="M749.9,567.8c0,0-43.2-1-74.2-21.9c-30.9-21-34.6-28.6-42.9-47.9c-8.3-19.3,0-51.5,3.7-57.9&#xD;
		c3.7-6.3,7.3-9.3,10.3-13c3-3.7,12.6-4,17.6,5"/>
    <path class="st1 file-9-element-85" d="M669.8,461.7c0,0-5-14-5.3-23.9c-0.3-10,6.7-11.6,5-23.3c-1.7-11.6-7-26.6,11.3-39.9"/>
    <path class="st1 file-9-element-86" d="M736,346c0,0-20,4.3-36.6,14.6c-16.6,10.3-27.6,18.6-28.3,16.3s-0.3-9.6,9.6-14.6s49.2-18,51.9-19.6"/>
    <path class="st1 file-9-element-87" d="M704.4,581.8c0,0-13.3-1.7-27.9,0.7c-14.6,2.3-33.9,3-48.2,5.3c-14.3,2.3-15.6,9.3-34.6-6.7&#xD;
		s-32.9-25.6-40.6-30.9s-9.6-6.7-17-11.3s-14.3-7.6-19.3-11c-5-3.3-10.3-5-0.7-7.3c9.6-2.3,23.3-6.7,34.6-8c11.3-1.3,19.3-5,24.6-6&#xD;
		c5.3-1,19.3-2,19.3-2"/>
    <path class="st1 file-9-element-88" d="M646.8,427.1c0,0-0.8-6.5-5.5-11.8c-4.7-5.3-7.5-6.5-8.8-6s0,4.2,2,6.5s2,2.3,2,2.3"/>
    <path class="st1 file-9-element-89" d="M639,420.2c0,0-4.5-1.5-8.1-1.2s-7.1,0.3-9.8-1.3c-2.7-1.7-3.8-2.5-4.8-1.2s1,6.2,8.6,9.3"/>
    <path class="st1 file-9-element-90" d="M620.2,424.5c0,0-2.3,4,5,6"/>
    <path class="st1 file-9-element-91" d="M621.6,430.5c0,0-0.8,2.7,5,5.8c5.8,3.2,8.1,0.8,9.6,2"/>
    <path class="st1 file-9-element-92" d="M616.2,416.5c0,0-7.1-4.3,0.8-9.6c8-5.3,26.8-10.8,49.4-7.8"/>
    <path class="st1 file-9-element-93" d="M667.6,403c-0.5,0-8-1.5-19.1-0.5c-12.2,1.1-20.3,2.8-26.4,6c-6.2,3.2-2.2,8.6,7.6,10.6"/>
    <path class="st1 file-9-element-94" d="M643,410.2c0,0,4.7-0.7,7.3,1.7s4.3,0.5,6.2-0.2c1.8-0.7,7.1,1.5,7.1,1.5"/>
    <path class="st1 file-9-element-95" d="M649.5,418c0,0,2.7,3.7,5.2,2.2c2.5-1.5,6.5-1.3,7.3,0"/>
    <path class="st1 file-9-element-96" d="M687.7,339.4c0,0-6,1.3-8.3,0.2c-2.3-1.2-2.8-4.5-2.5-5.8c0.3-1.3,0.8-2.3-0.5-3.2c-1.3-0.8-1-2.5-0.2-3.5&#xD;
		s2.2-2.8,0-3.5c-2.2-0.7-4.7-2.5-2.5-5c2.2-2.5,5.2-6.8,5.2-6.8s-1.5-6.2,1.2-9.5c2.7-3.3,4.8-5.5,4.8-5.5"/>
    <path class="st1 file-9-element-97" d="M680.1,310.4c0,0,1.8,0.3,2.8,2.8c0,0-2.5,0.7-3.5,0.7"/>
    <path class="st1 file-9-element-98" d="M720.5,285.7c0,0-12.3-1.7-20.1,0.3s-16.3,6.5-15.8,15.6c0.5,9.1,2.2,20.3,2.5,29.8c0.3,9.5,0.2,18.1-0.5,23.1&#xD;
		c-0.7,5,2.2,4.5,4.8,1.3c2.7-3.2,1.7,2.5,4.7-1.5s2.7,0.2,5.7-2.5c3-2.7,3.5-0.3,5.8-2.8c2.3-2.5,2.7,2.3,4.2-1.8&#xD;
		c1.5-4.2,4,2.8,6.5-2c2.5-4.8,4,0.3,5.8-2.3c1.8-2.7,4-0.3,6.5-1.2c2.5-0.8-4.3-2.5-2.7-5c1.7-2.5,9.8-14.6,9.1-27.8&#xD;
		C736.3,295.8,728.3,287.1,720.5,285.7z"/>
    <path class="st1 file-9-element-99" d="M726.6,317.7c0,0-8.8,23.1-2.5,21"/>
    <path class="st1 file-9-element-100" d="M701.2,319.2c0,0-1.2,21,1.3,31.1"/>
    <path class="st1 file-9-element-101" d="M696.7,335.7c0,0-2.2,12,1,16.1"/>
    <path class="st1 file-9-element-102" d="M713.2,290.3c0,0,4.3,4.7,2.2,12"/>
    <path class="st1 file-9-element-103" d="M514.2,434.5c0,0,6.5,20.5,8.9,30.3s4.4,12.1,2.5,16.3s-4.2,8.4-4.2,11.6s-6.1,8.8-6,11.4&#xD;
		c0.2,2.6,6.8,3.2,8.6-0.4c1.8-3.5,6.3-9.3,10.2-11.9c3.9-2.6,12.8-8.8,10.3-14.9s-6.8-4.4-8.8-9.5s-3.1-14.9-3-19.1&#xD;
		c0.2-10-1.4-18.4-1.4-18.4"/>
    <path class="st1 file-9-element-104" d="M452.7,434.6c0,0,0.7,17,0.9,30.6c0.2,12.1,1.1,19.6-0.7,25.9c-1.1,4.1-3.3,7.2-5.4,8.2&#xD;
		c-6.5,3-7.5,4.6-12.1,5.1s-7.4-0.4-8.1,2.5c-0.7,2.8-0.7,5.3,2.3,5.1c3-0.2,16.3-1.1,22.6,0.4c6.3,1.4,15.1,0.9,16.5-2.6&#xD;
		c1.4-3.5-2.3-9.1-2.3-14.4c0-5.3-0.7-17.5,0.4-23.1c1.1-5.6,5.3-19.6,4.7-33.6"/>
    <path class="st1 file-9-element-105" d="M473.5,297c0,0-12.6,30.5-19.1,60.6c-6.5,30.1-8.9,59.9-7.2,75.1c0,0,2.3-9.1,4.2-11&#xD;
		c1.9-1.9,3.2,12.4,4.6,14.5c1.4,2.1,2.3-4.9,3.7-9.5c1.4-4.6,4.4,8.6,4.7,10.5c0.4,1.9,4-7.9,5.3-10c1.2-2.1,2.6,3.5,3.3,6.7&#xD;
		c0.7,3.2,2.5,0.9,4.7-3.5c2.3-4.4,4,5.1,6.7,6.7c2.6,1.6,3.2-7.7,4.4-8.9s3,6.1,5.3,8.2c2.3,2.1,2.8-7.9,4-10.7&#xD;
		c1.2-2.8,4.9,7.7,7.2,11.2c2.3,3.5,1.4-7.4,3.5-10.9c2.1-3.5,5.4,6.3,6.7,7c1.2,0.7,2.6-4,3.3-7.4c0.7-3.3,5.3,8.1,5.4,8.8&#xD;
		c0.2,0.7,0.2-5.8,1.1-7.7c0.9-1.9,9.6,4.6,10.7,7.2c1.1,2.6,1.1-28.9-2.1-44c-3.2-15.1-3.7-27.7-2.5-36.4c1.2-8.8,1.8-28.2-1.1-37&#xD;
		s-3-21-3-21"/>
    <path class="st1 file-9-element-106" d="M465.1,269.8c0,0-7.5,4.7-11.7,1.9c-4.2-2.8-15.1-13.8-27.3-27.7s-13.1-9.5-18.2-12.1&#xD;
		c-5.1-2.6-10-6.8-10.9-8.8c-0.9-1.9-0.9-1.9-0.9-1.9"/>
    <path class="st1 file-9-element-107" d="M460.2,255.7c0,0-10.9-8.9-19.3-14.5s-14.4-11.2-15.9-15.4c-1.6-4.2-0.5-10.2-2.3-12.6&#xD;
		c-1.8-2.5-4.6-3.3-4.6-1.4s1.2,5.6,0.7,7.5"/>
    <path class="st1 file-9-element-108" d="M420.1,222c0,0-2.3-2.6-5.1-3.2c-2.8-0.5-7.5-2.8-9.8-6c-2.3-3.2-4.9-3.5-6-2.3s4.9,6.3,8.1,8.8"/>
    <path class="st1 file-9-element-109" d="M398.4,212.6c0,0-2.6,0.5-1.1,2.8c1.6,2.3,5.4,6.3,8.4,8.2"/>
    <path class="st1 file-9-element-110" d="M397.3,215.4c0,0-3.3,2.5,1.2,6.1c4.6,3.7,5.3,4.9,5.3,4.9"/>
    <path class="st1 file-9-element-111" d="M450.2,272.1c0,0,3.5,9.3,6.7,12.4c3.2,3.2,4.6,3.3,8.4,3.3"/>
    <path class="st1 file-9-element-112" d="M463.2,257.4c0,0,5.1,9.6,2.8,18.6c-2.3,8.9-1.8,14.7,3.2,15.9c4.9,1.2,9.8,1.6,15.4-1.8"/>
    <path class="st1 file-9-element-113" d="M480.9,292.4c0,0,3.9,2.8,8.4,0.4s6.5-1.9,7.9-4.2"/>
    <path class="st1 file-9-element-114" d="M494,291.7c0,0,2.1,3.9,6,1.8c3.9-2.1,7-4.2,7.7-4.2"/>
    <path class="st1 file-9-element-115" d="M510.1,292.8c0,0,1.8,5.3,11.7-2.1"/>
    <path class="st1 file-9-element-116" d="M469.5,263.4c0,0,4.7,2.8,3,11.2c-1.8,8.4,2.3,11.6,4.2,10.3"/>
    <path class="st1 file-9-element-117" d="M465.6,253.4c0,0,13.7-14.2,19.3-15.9"/>
    <path class="st1 file-9-element-118" d="M459.5,246.2c0,0,16.5-18.7,22.1-24.7s13.8-13.5,17.7-15.1"/>
    <path class="st1 file-9-element-119" d="M524.5,293c0,0,5.4-0.4,4.6-8.4c-0.9-8.1-4.7-9.3-4.4-13.5c0.4-4.2,5.4-13.5,4.6-24.5c-0.9-11-1.6-23.6,0.2-27&#xD;
		"/>
    <path class="st1 file-9-element-120" d="M472.5,230.3c0,0-5.4-7.9-5.8-10.7c-0.4-2.8-3.3-13.9-6.8-14.8"/>
    <path class="st1 file-9-element-121" d="M466,236.9c0,0-5.4-9.1-7.5-10.3c-2.1-1.2-7.4-1.9-12.3-6.7c-4.9-4.7-7-6.3-7-6.3"/>
    <path class="st1 file-9-element-122" d="M458.8,216.4c0,0-0.7-2.8,0.7-4l-1.2-4.4c0,0-1.3-2.8,0.7-2.8"/>
    <path class="st1 file-9-element-123" d="M492.6,195.6c0,0,0.2,11.4-2.8,12.8c-3,1.4,11.9-4.2,12.6-4.6s1.8,8.1,5.4,12.3c3.7,4.2,3.7-7,4.2-8.6&#xD;
		c0.5-1.6,3,7.4,6.1,10.5c3.2,3.2,2.3-7,2.3-8.9c0-1.9,1.4,1.9,2.8,4.4s2.3-2.5,2.5-4.4c0.2-1.9,3.9,9.6,5.3,12.1&#xD;
		c1.4,2.5,3.7-10.9,2.3-16.8c-1.4-6,2.5-20.3,3.9-25.7c1.4-5.4,1.6-17.2-8.9-24.7c-10.5-7.5-29.4-0.7-32,2.1"/>
    <path class="st1 file-9-element-124" d="M495.2,159c0,0,5.6,2.6,4.9,8.1c-0.7,5.4-5.4,6-6.5,10.2c-1.1,4.2-0.5,14.7-0.5,14.7"/>
    <path class="st1 file-9-element-125" d="M489.8,195.1c0,0-5.1,0.9-7.4-0.7s-1.4-3.5-0.5-6s0.2-1.4,0.4-3.5c0.2-2.1,0.4-3.3,0.9-5.1&#xD;
		c0.5-1.8-1.8-3.3-2.3-5.4s4.4-1.8,6.7-4.6s2.1-4.7,2.1-4.7s0.5-4,3.2-6"/>
    <path class="st1 file-9-element-126" d="M490.2,167.4c0,0,2.5,0.7,3.3,3.3"/>
    <path class="st1 file-9-element-127" d="M520.8,228.3c0,0,2.6,11.2,0.7,20.3"/>
    <path class="st1 file-9-element-128" d="M484,263.7c0,0,2.1,2.3,1.8,5.8"/>
    <path class="st1 file-9-element-129" d="M493.8,257.4c0,0,3.9,5.1,2.6,8.4"/>
    <path class="st1 file-9-element-130" d="M475.6,319.6c0,0-5.1,14.5-7,28.9"/>
    <path class="st1 file-9-element-131" d="M517.8,408.6c0,0-0.4-36.2,3.2-46.1c8.3-23.1,5.8-31,4.4-36.8"/>
    <path class="st1 file-9-element-132" d="M199.5,523.6c0,0,0,0,5.3,7.6c5.3,7.6,21.3,24.3,10.6,29.6c-10.6,5.3-55.9,22.3-76.8,31.3&#xD;
		c-21,9-111.4,31.6-113.1,19.6c-1.7-12-8.3-47.9-4-53.2c4.3-5.3,12.3-8.3,12.3-8.3s-1.3-15.3-3.3-21.6s-2-17.6-1.3-34.3&#xD;
		c0.7-16.6,2-43.6,8-52.9c6-9.3,10.6-19,13.3-25.6s4.3-6.7,10.3-7.3c6-0.7,2.3-7.6,8-9.6c5.7-2,12-4.3,12-4.3"/>
    <path class="st1 file-9-element-133" d="M34.6,553.8c0,0,29.6,7,39.9,7.3c10.3,0.3,15.3-5.7,30.9-11s30.6-13.3,41.6-28.6c11-15.3,21.6-27.6,23.3-50.9&#xD;
		c1.7-23.3,1.7-23.3,1.7-23.3s-1.7,3.3-6.3-7c-4.7-10.3-4.7-10.3-4.7-10.3s-4.7,3-9,8c-4.3,5-8.6,5.7-10,7.3&#xD;
		c-1.3,1.7,2-8.6-2.7-15.3s-4.3-10-2.3-13.3c2-3.3-2-7.3-4-11.3c-2-4,3.3-2,7-11.6c3.7-9.6,11.3-17.6,21.6-20.6"/>
    <path class="st1 file-9-element-134" d="M161,430.1c0,0,5-4,7-10c2-6,7-12,10.3-13.6c3.3-1.7,9.6-5.7,11.3-5.3c1.7,0.3-2.3,5.7-7,8"/>
    <path class="st1 file-9-element-135" d="M186.2,413.8c0,0,7-4,4-7c-1-1-11.6,5-11.6,5"/>
    <path class="st1 file-9-element-136" d="M187.6,417.5c0,0,9.3-4,4.3-7"/>
    <path class="st1 file-9-element-137" d="M190.2,421.8c0,0,7.6-4.3,3.3-7"/>
    <path class="st1 file-9-element-138" d="M167.9,443.1c0,0,3-6.7,9-9.6c6-3,15.3-7,17.6-10.6"/>
    <path class="st1 file-9-element-139" d="M190.2,406.9l19.3-1.7c0,0,4.3-3.7-3.3-3.3c-7.6,0.3-15.6,1.7-15.6,1.7"/>
    <path class="st1 file-9-element-140" d="M181.6,403.9l-15.3,0.7c0,0-6-4.3-13,0.3s5.3,6,11.6,4.3c6.3-1.7,10.3-1.7,10.3-1.7"/>
    <path class="st1 file-9-element-141" d="M173.3,462.1c0,0,4-3.7,8.3-8.6c4.3-5,9.3-7,8-10c-1.3-3-6.3-12.3-6.3-12.3"/>
    <path class="st1 file-9-element-142" d="M161,422.2c0,0-11.6-3-16-3.3c-4.3-0.3-7,2-7,2"/>
    <path class="st1 file-9-element-143" d="M68.2,562.2c0,0,43.6,2,73.5-3.7s33.3-5.7,43.2-17.3c10-11.6,20.3-22.9,24.3-31.9s-0.3-21.6-4-25.3&#xD;
		c-3.7-3.7-3.7-3.7-3.7-3.7"/>
    <path class="st1 file-9-element-144" d="M169.3,482.3c0,0,26.9,7.3,36.2-7.3"/>
    <path class="st1 file-9-element-145" d="M169.9,477c0,0,13,7.6,28.3,0.3c15.3-7.3-2-12.6-9.3-13c-7.3-0.3-12-1-18.3,1.3"/>
    <path class="st1 file-9-element-146" d="M175.3,474c0,0,8.3,3,16.6,1c8.3-2,7.3-6.3-6.3-7C171.3,467.4,167.3,472,175.3,474z"/>
    <path class="st1 file-9-element-147" d="M71.2,514.9c1.7-1,59.5-27.3,67.2-64.2"/>
    <path class="st1 file-9-element-148" d="M67.5,489c0,0,48.6-17.6,65.5-49.5"/>
    <path class="st1 file-9-element-149" d="M128.7,422.8c0,0-10.3-3-20.6-2.7c-10.3,0.3-15,0.3-23.9,5.3c-9,5-21.3,8.6-38.2,4"/>
    <path class="st1 file-9-element-150" d="M134.3,414.5c0,0-15.6-7.6-35.9-2s-22.6,11.3-49.5,10"/>
    <path class="st1 file-9-element-151" d="M151,528.6c0,0,4.3,3.7,0.7,10.3"/>
    <path class="st1 file-9-element-152" d="M174.9,500.3c0,0,1.7,4.3,8.6,6.3"/>
    <path class="st1 file-9-element-153" d="M169.3,513.9c0,0,0.7,9.3,2,11.3"/>
    <path class="st1 file-9-element-154" d="M136,551.5c0,0,4-6.7,3.3-12.3"/>
    <path class="st1 file-9-element-155" d="M129.7,405.2c0,0-5.7,6.3-5.3,0.7s-0.3-3.7-4.7-1c-4.3,2.7-3.7,1.3-4-3.7c-0.3-5-5,0-8,2.7s-2.7-1-2-5.7&#xD;
		s-1.3,0-5.3,3.7s-2-1.7-1.7-6s-4,1.3-6.7,4.3c-2.7,3-2.7-5.3-2-7c0.7-1.7-1.3,3-6,4.7c-4.7,1.7-2-6-2-6s5.7-6,11-8.6&#xD;
		c5.3-2.7,13.6-15.6,16.3-21s17.3-20,33.6-13.6s20.6,13.6,20.6,21c0,0-23.6,8-51.9-6.3"/>
    <path class="st1 file-9-element-156" d="M106.4,367c0,0,19.6,13.6,46.9,9.6"/>
    <path class="st1 file-9-element-157" d="M133,405.5c0,0,7.3,2.3,11-1c3.7-3.3,3.7-6,5.7-8c2-2,2.7-4,5.3-3.7c2.7,0.3,1.7-3.7,1.3-6.3&#xD;
		c-0.3-2.7,4.7-1.3,6-10.3"/>
    <path class="st1 file-9-element-158" d="M110.7,359.3c0,0,1.3-6.3-3.3-13c-4.7-6.7-0.3-11.6-3.7-16.3c-3.3-4.7-8.6-11.6-19.6-12"/>
    <path class="st1 file-9-element-159" d="M46.2,324.4c0,0-5.3,7-12.3,13.3c-7,6.3-7,14.3-5,22.9"/>
    <path class="st1 file-9-element-160" d="M33.9,349.7c0,0-7.3,12.6-6,24.3c1.3,11.6-8,24.3-0.3,43.2"/>
    <path class="st1 file-9-element-161" d="M31.3,412.2c0,0-0.3,8.6-3,16c-2.7,7.3-1.3,15.6-1.3,15.6s2.7-7.6,5.3-8c2.7-0.3-0.3,14,0.3,15.3"/>
    <path class="st1 file-9-element-162" d="M39.9,415.2c0,0-4.3-12.6,0.7-23.3c5-10.6,1.3-23.9,1.3-23.9"/>
    <path class="st1 file-9-element-163" d="M67.5,389.2c-0.3-1-1-22.3,7.6-32.6"/>
    <path class="st1 file-9-element-164" d="M90.5,316.7c0,0-1.3-7-0.3-10c1-3,8.3-1.7,11.3-3.3c1.4-0.8,2.2-2.4,1.9-3.9c-0.3-1.7-0.3-3.1-0.3-3.1"/>
    <path class="st1 file-9-element-165" d="M100.3,280.7c0,0-3.2,1.6-4.6,4.3"/>
    <path class="st1 file-9-element-166" d="M97.9,283.4c0,0,1.2,1.9,1.3,0.6"/>
    <path class="st1 file-9-element-167" d="M96.7,265.3c0,0-5.2-4.8-15-5.2c-9.8-0.4-27.6,3.1-30,19.6c-2.4,16.5,1.5,24.9-1.9,29.6s-6,12.7-6,14.2&#xD;
		c0,1.5,2.7-0.8,5.5-2.3s-2.1,1.6-2.2,7s2.6-4,9.4-6.1c0,0-0.2,3.8-0.5,5c-0.3,1.2,7.1-7.5,10.6-9s0.8,7,3.6,8.7&#xD;
		c2.8,1.7,1.2-4.5,6.4-9.6c5.2-5.1-1.2,2.3,10.1,0.5"/>
    <path class="st1 file-9-element-168" d="M87,316.5c0,0-2.3-27,0.1-35.4c2.4-8.5,10-14.5,10-14.5c7.4,4.8,5,10,6,13.6c1,3.7,5.4,7.4,1.6,7.8&#xD;
		c-1.2,0.1-2.3,2-2.3,2s-0.2,1.6,0.6,4.5c0.3,1.3-2.3,1.4-2.3,1.4"/>
    <path class="st1 file-9-element-169" d="M74.6,284.2c0,0,3.5-17.9,13.6-20.5"/>
    <path class="st1 file-9-element-170" d="M60.4,276.5c0,0-7,18.6-3.2,28.3"/>
    <path class="st1 file-9-element-171" d="M287.8,262.8c0.6,0.4,1.3,0.7,2.1,0.9c2.5,0.7,9.2,1.9,22.6,1c13-0.9,9.2-4.5-4-4.8&#xD;
		C296,259.7,282.8,259.8,287.8,262.8z"/>
    <path class="st1 file-9-element-172" d="M306,254.6c0,0-12,0-20.5,1.8c-8.5,1.8-21.9,13.1,15.7,14C339.3,271.3,335.6,253.7,306,254.6z"/>
    <path class="st1 file-9-element-173" d="M275.4,264.5c0,0-1,6.6,0.7,8.4c1.6,1.8,12.2,3.3,28.4,3.4s24.7-4.1,24.7-4.1s1.2-4.9,0.3-8.8"/>
    <path class="st1 file-9-element-174" d="M276.9,274.1c0,0,0,4.7,1.4,5.6c1.4,1,11.7,4.3,25.3,4s20.7-2.6,22.9-3.7c2.2-1.1,2.2-6.5,2.2-6.5"/>
    <path class="st1 file-9-element-175" d="M278.6,280.8c0,0,2.9,7.3,6.7,8.2s22.1,4.1,35.7,0c0,0,4-4,4.5-8"/>
    <path class="st1 file-9-element-176" d="M285.3,289c0,0,5.5,7,18.3,6.6c12.8-0.4,16.2-5.8,16.2-5.8"/>
    <path class="st1 file-9-element-177" d="M156.2,342c0,0,1-13.6,4.4-22.4c3.4-8.8,5.5-29.4,4.9-36.3c-0.5-6.9,4.3-17.2,11.5-22.7&#xD;
		c7.3-5.5,9.6-6.9,9.6-6.9"/>
    <path class="st1 file-9-element-178" d="M144.7,344.7c0,0,4.4-38.4,4.6-46.9c0.5-17.5,8.4-33.8,8.2-41.8c-0.1-8,1.3-37.2,1.3-37.2"/>
    <path class="st1 file-9-element-179" d="M175.1,181.3c0,0,4-4.1,6.7-5.2"/>
    <path class="st1 file-9-element-180" d="M192.8,154c0,0-8.7,10.9-8.7,16.3s1.9,8.2,0,12.2s2.3-0.1,5.4-3.3c3-3.2,2.7,0.5,1.9,4&#xD;
		c-0.8,3.4,2.3,2.6,3.3-1.8c1-4.4,1.1-15.7,6.6-20.7c5.5-5.1,9.2-10.6,10.2-17c1-6.5,7.6-13.9,12.9-14.8c0,0-1.8-4.7-8.8-7.1&#xD;
		c-7-2.5-18.1-5.6-27.3,4.7s-5.4,16.9-11.5,25.6s-17.2,22.5-19,29.5c-1.8,7,0.5,2.1,6.3-0.7c5.8-2.7,2.5,0,1.4,2.2&#xD;
		c-1.1,2.2,6.3-4.9,7.1-6.6c0.8-1.6-0.4,5.5-0.5,6.7"/>
    <path class="st1 file-9-element-181" d="M223.8,130c0,0,2.7,5.6,1.6,11.4s0,4.7,1.2,8.1c1.2,3.4-2.7,2.7-3.7,2.9"/>
    <path class="st1 file-9-element-182" d="M218.7,158.3c0,0,4,1.1,4.3-0.7c0.3-1.8,0.5-3.7,0.5-3.7"/>
    <path class="st1 file-9-element-183" d="M201.6,176c0,0,2.2-4.9,3.8-7.3"/>
    <path class="st1 file-9-element-184" d="M203.3,166.1c0,0,3.3,1.9,8.4,1.1c5.1-0.8,8.4,0.3,9.2-1.6c0.8-1.9,1.4-4.7,0.1-6.5"/>
    <path class="st1 file-9-element-185" d="M221.8,142c0,0-1.6-1.2-5.1-0.1"/>
    <path class="st1 file-9-element-186" d="M221.8,144.9c0,0-2.6,0.4-4.7,1.6"/>
    <path class="st1 file-9-element-187" d="M218.9,145.8c0,0-0.1,2.2,1,1.9"/>
    <path class="st1 file-9-element-188" d="M195.6,220.5c0.1-0.4,20.7-24.3,23.1-42.9"/>
    <path class="st1 file-9-element-189" d="M209.7,173.6c0,0,2.3,3.8,4.3,3.3s4.9-3,8.7,3c3.7,6,1.1,6,2.9,8.7c1.8,2.6,1.9,9.6-5.6,21.3&#xD;
		c-7.6,11.7-19.4,27.8-20.1,28.3"/>
    <path class="st1 file-9-element-190" d="M157.7,185.5c0,0-4.9,3.8-1.6,16.9c3.3,13.1,6.6,14.7,12.5,27.9c5.9,13.2,6.9,18.7,10.7,20.9&#xD;
		c3.8,2.2,11,2.3,18,4.5c7,2.2,19.6,0.4,26,1.2s1.6,5.6,12.8,8.2c0,0,3.2,0,3.7-1.2s2.5-1.1,3-2.2"/>
    <path class="st1 file-9-element-191" d="M239.3,259.4c0,0,3.4,2.1,10.2,2.2c6.7,0.1,5.8-2.3,3.7-2.9"/>
    <path class="st1 file-9-element-192" d="M207.1,174.6c0,0,0.4,12.4-7.7,21c-8.1,8.7-12.2,10.3-16.2,8.5c-4-1.8-6.5-3.4-6.5-3.4s3.2,8.5,6.3,20.9&#xD;
		s5.5,16.5,5.5,16.5s12.5,1.2,21.7,5.8s16.3,5.8,19.1,5.2c2.7-0.5,7.7-1.6,11-1.5c3.3,0.1,4.5-0.4,5.6,1.1s-1.2,2.6-3.2,2.7&#xD;
		c-1.9,0.1-3.6,1.5-3.6,1.5"/>
    <path class="st1 file-9-element-193" d="M236,252.8c0,0,6.2,5.5,15.2,5.5c9.1,0,23.2-0.4,30.5-5.8c7.3-5.4,4-8.4-4-9.6s-31.9-1.2-41.1,4"/>
    <path class="st1 file-9-element-194" d="M245.6,249.6c0,0,20.5,3.7,40.1-3.4"/>
    <path class="st1 file-9-element-195" d="M224.6,271.9c0,0-1.4-7.8-0.4-11.3"/>
    <path class="st1 file-9-element-196" d="M216.3,237c0,0-1-6.3,0-9.9"/>
    <path class="st1 file-9-element-197" d="M224.2,241.1c0,0-0.1-24.6-1.4-32"/>
    <path class="st1 file-9-element-198" d="M224.4,226.7c0,0,13.3,11.8,18.7,12.5c5.4,0.7,9.2,2.2,12.5,0.5s5.4-3.2,9.8-1.6s8.4,0.4,8.5,1.8"/>
    <path class="st1 file-9-element-199" d="M458.3,212.2c0,0-7.7-8.1-10.4-9.3c-2.7-1.2-2.9,1.1-2.6,1.9c0.3,0.8,7.7,6.7,7.7,6.7"/>
    <path class="st1 file-9-element-200" d="M445.2,204.8c0,0-2.2-1-3.3,0.7c-1.1,1.6,9.2,9.8,9.2,9.8"/>
    <path class="st1 file-9-element-201" d="M441.2,207.4c0,0-2.9,0.8-1.4,2.6c1.5,1.8,7,6.2,7,6.2"/>
    <path class="st1 file-9-element-202" d="M405.8,267.9c0,0-7.6,6.5-7.4,7.4s5.1,19,5.6,19.6c0.5,0.7,14.3-0.3,14.3-0.3l-1.8-17.9"/>
    <path class="st1 file-9-element-203" d="M360.7,268.3l-9.2,17.6c0,0-10.6-6-10.6-6.7c0-0.7,9.8-19.1,9.8-19.1l7.1-1.5"/>
    <path class="st1 file-9-element-204" d="M352.5,285.9l5.1-3.7l5.6-9.9c0,0,13.5,8,32.8,8.7"/>
    <path class="st1 file-9-element-205" d="M418.8,278.3c0,0,13.3-5.2,20.6-14.3"/>
    <path class="st1 file-9-element-206" d="M452,248.9c0,0,7.7-9.8,9.8-17"/>
    <path class="st1 file-9-element-207" d="M468,221.3c0,0,3.3-10.6,3.4-18.7s-17.4-14-40.3-17.7"/>
    <path class="st1 file-9-element-208" d="M349,260.9c0,0-12.8-6.5-20.2-21c-7.4-14.6-7.6-29.3-7.6-29.3"/>
    <path class="st1 file-9-element-209" d="M324.3,206.5c0,0,16.6,10,69.4,8.7"/>
    <path class="st1 file-9-element-210" d="M323.6,210.6c0,0,9.9,9.8,70.1,8.9"/>
    <path class="st1 file-9-element-211" d="M426.4,214.2c0,0,5.2-0.1,10.7-1.8"/>
    <path class="st1 file-9-element-212" d="M427.1,218.2c0.4,0,6.3-0.7,10-1.5"/>
    <path class="st1 file-9-element-213" d="M470.8,201.3c0,0-1.5,2.2-5.9,3.6"/>
    <path class="st1 file-9-element-214" d="M470.9,207.3c0,0-2.5,1.5-3.8,1.9"/>
    <path class="st1 file-9-element-215" d="M381.7,165c0,0,11.3,7.7,14.4,10.3s4.4-0.5,8.5,1.5c5.8,2.9,13.9,1.8,14.8,5.9c0.5,2.3-1.4,1.9-4.5,1.6&#xD;
		c-3.2-0.3-7.7-1-9.3,0.5c-1.6,1.5-3.8,1.6-5.4,0.7"/>
    <path class="st1 file-9-element-216" d="M376.7,177.1c0,0,10.2,4.9,11.1,6.2"/>
    <path class="st1 file-9-element-217" d="M389.6,181.7c0,0.5-2.1,2.9-1.1,4.5"/>
    <path class="st1 file-9-element-218" d="M395.3,186c-16.6,2.9-16.3,8.8-9.3,11.1c0,0,19.6,6.2,39.8,3.7c20.2-2.5,16.6-10.7,10-12.9&#xD;
		c-5.3-1.8-16.9-3.8-30.2-3"/>
    <path class="st1 file-9-element-219" d="M397.7,189.6c0,0-11.8,1.8-7.1,4.3c4.7,2.5,26.1,4.4,38.7,1.6c13.9-3-1.8-5.8-9.3-6.5&#xD;
		C414,188.5,406.9,188.5,397.7,189.6z"/>
    <path class="st1 file-9-element-220" d="M381.3,194.3c0,0,2.1,14.4,33.2,14s26.7-15.5,26.7-15.5"/>
    <path class="st1 file-9-element-221" d="M370.1,154.1c0,0,8.5,6.7,9.2,7.8c0.7,1.1,1.1,4-1.6,8.9c-2.7,4.9-2.9,8.2-2.9,8.2s-8.5-4.4-12.2-7.1"/>
    <path class="st1 file-9-element-222" d="M366.5,156.5c0,0-6.5,14.6-6.6,19.9c-0.1,5.4-0.1,7-0.1,7"/>
    <path class="st1 file-9-element-223" d="M308.9,206.2c0,0,14.8,0,17.6-1.2c2.7-1.2-3.3-3.3-3.3-8s4.4-9.9,6-9.9s6.2,1.4,9.6,1&#xD;
		c3.4-0.4,9.9-1.4,13.6-1.5c3.7-0.1,8.1,0.8,10.3,2.2c2.2,1.4,5.9,2.6,6,4c0.1,1.4,0.3,2.9-2.2,2.2c-2.5-0.7-6.9-3.2-8.2-3.3&#xD;
		c-1.4-0.1-5.2,0.3-5.2,0.3"/>
    <path class="st1 file-9-element-224" d="M367.3,196.6c0,0-0.1,3-3.8,1.8c-3.7-1.2-5.6-2.9-6.9-2.9c-1.2,0-5.2,1.1-5.2,1.1"/>
    <path class="st1 file-9-element-225" d="M327.6,197.4c0,0,4.3-0.1,6.9,2.2c2.6,2.3,12,3.8,15.7,2.9c3.7-1,4.3-2.5,5.9-2.5s5.4,2.2,7.1,1.9"/>
    <path class="st1 file-9-element-226" d="M378.9,210.6c0,0,5.8,0.5,10.4-1"/>
    <path class="st1 file-9-element-227" d="M359.4,186.4c0,0-11.4-9.9-13.3-11.4s-3.3-2.3-4.5-1c-1.2,1.4,1.6,3.7,1.6,3.7l10.4,8.1"/>
    <path class="st1 file-9-element-228" d="M297.3,151.5c0,0-1.6,4.7-1.5,8.4s2.1,5.5-1.4,9.3c-3.4,3.8-7.7,4.4-9.3,10.7"/>
    <path class="st1 file-9-element-229" d="M295.5,169.4c0,0,3.4-0.3,3.4,4.5"/>
    <path class="st1 file-9-element-230" d="M288,184.6c0,0,4.8-2.7,6.2-5.4s4.1-6.5,7.1-4.3s12.1,7.1,14,8.5c1.9,1.4,1.2,2.2,1.2,2.2&#xD;
		s-15.1,17.9-13.2,47.9c0,0,9.6-11.5,14-25.6"/>
    <path class="st1 file-9-element-231" d="M319.6,211.6c0,0-5.9,19.5-16.3,29.5c-10.4,10-7.3-44.1,10.3-57.6"/>
    <path class="st1 file-9-element-232" d="M300.3,242.5c0,0-35.3-19.6-41.8-22.8s-11.3-17.9-11.3-17.9s-0.8-20.1,2.7-32c0,0,4.1-16.3,17.6-26.4&#xD;
		c13.5-10,35.3-18.5,41.5-31s27.2-41.1,55.2-51.9"/>
    <path class="st1 file-9-element-233" d="M232,230.1c0,0,3.4-45.1,14.3-71.4s22-46.7,40.5-59.5s29.3-28.4,32.8-37.8c3.6-9.3,20.5-15.7,30.2-9.9"/>
    <path class="st1 file-9-element-234" d="M325.6,70.3c0,0,9.2-8.2,12.1-11.8c2.9-3.6,13.6-11.4,25.8-1.2"/>
    <path class="st1 file-9-element-235" d="M321,75.3c0,0-5.1,8.5-12.6,15.1"/>
    <path class="st1 file-9-element-236" d="M302.1,107.3c0,0-7.4,11.7-23.1,19.5"/>
    <path class="st1 file-9-element-237" d="M278.7,140.7c0,0,9.9,8.2,26.1,13.5c16.2,5.2,43.3,11.3,63.7-3.6c0,0-3.7-12.9-10-23.1s-15.9-16.6-16.5-15.9&#xD;
		c-1.8,1.8-13-3.8-16.8-9.8"/>
    <path class="st1 file-9-element-238" d="M363.6,124.7c0,0-3.6-3.8-3.8-10.3c-0.3-6.5-1.8-8.1-1.8-8.1"/>
    <path class="st1 file-9-element-239" d="M370.6,151.7c0,0,3,0.3,3.2-0.5c0.1-0.8,0.5-15.5-3.8-29.3c-4.4-13.7-6-24-2.7-32.7s7.4-19.5-0.1-28"/>
    <path class="st1 file-9-element-240" d="M328.7,92c0,0,0.1,5.9,1.6,8.5s5.5,4.7,7.7,6.3c2.2,1.6,6,3.3,8.4,1.5c2.3-1.8,4.1-4.1,6-4.7&#xD;
		c1.9-0.5,7.6-6.2,8.4-10c0.8-3.8,4.4-4.9,4.1-10.9"/>
    <path class="st1 file-9-element-241" d="M341.1,75.1c0,0,13.1-0.7,19.5,3.4c6.5,4.1,5.8,4.3,6.5-0.5c0.7-4.8-0.3-12.8-8.2-13.5"/>
    <path class="st1 file-9-element-242" d="M315.1,178.9c0,0,0.7-6.2-2.2-9.9c-2.9-3.7-2.7-10-2.7-10"/>
    <path class="st1 file-9-element-243" d="M354.4,175c0,0-0.3-6.9,2.1-12.5"/>
    <path class="st1 file-9-element-244" d="M324.2,175.3c0,0,0.7-6-1.1-8.9"/>
    <path class="st1 file-9-element-245" d="M341.4,98.6c0,0,1.5,1.4,3,1.4c1.5,0,3.4,0.1,3.4,0.1"/>
    <path class="st1 file-9-element-246" d="M344.9,94.5c0,0,1.2-0.3,2.2,0.5"/>
    <path class="st1 file-9-element-247" d="M339.2,81c0,0,4.7-0.7,7.4,2.7"/>
    <path class="st1 file-9-element-248" d="M353.7,84.6c0,0,5.8-1.8,7.7,0.8"/>
    <path class="st1 file-9-element-249" d="M342,84.9c0,0,0.3-0.6-0.6-0.1"/>
    <path class="st1 file-9-element-250" d="M357.6,88.2c0,0,0.2-0.6,0.8,0.2"/>
    <path class="st1 file-9-element-251" d="M299.7,450.7c0,0,1.9,7.1,10.3,5.4c8.5-1.6,12-0.2,15.5-5.2c3.5-4.9,4-6.3,9.6-3.1s11.3,5.6,17.9,1.9&#xD;
		c6.6-3.8,7.8-3.5,11.8-3.3c4,0.2-0.2-3.5,8.9-7.8s10.3-7.5,18.6-5.6c8.2,1.9,11.5,1.6,16.2-2.6c4.7-4.2,5.6-2.1,12.2-2.1&#xD;
		c6.6,0,12.9,0.9,17.6-3.1"/>
    <path class="st1 file-9-element-252" d="M276.4,446.9c0,0-7.1,0.7-8.2-2.8c-1.2-3.5-5.4-7.1-8.9-7.5s-14.6-4.5-18.1-11.5c-3.5-7.1-6.8-0.8-15.5-4.1&#xD;
		s-8.6-7.7-12.4-12.9"/>
    <path class="st1 file-9-element-253" d="M267.5,373.6c0,0,2.1,30.6-0.7,44.4"/>
    <path class="st1 file-9-element-254" d="M231.3,391.6c0,0-1.7-16.1,2-33"/>
    <path class="st1 file-9-element-255" d="M250.8,387.7c0,0-3.1,21.9-1.4,31.5"/>
    <path class="st1 file-9-element-256" d="M317.8,384.9c0,0,4.5,31.5,1.6,51.3"/>
    <path class="st1 file-9-element-257" d="M359.2,432.6c0,0,1.4-30.6-2.6-54.3"/>
    <path class="st1 file-9-element-258" d="M378.7,363.5c0,0,0.7,35.7,5.6,52.7"/>
    <path class="st1 file-9-element-259" d="M421.2,356.4c0,0-4.9,36.7,4.7,57.4"/>
    <path class="st1 file-9-element-260" d="M406.4,353.4c0,0-6.6,24.7-5.9,41.1c0.7,16.5,4.7,20.5,4.7,20.5"/>
    <path class="st1 file-9-element-261" d="M338.7,372.6c0,0,6.1,22.6,3.3,40"/>
    <path class="st1 file-9-element-262" d="M213.4,385.6c0,0,4.2-25.2,1.6-46.1"/>
    <path class="st1 file-9-element-263" d="M490.1,75.9c0,0-7.1-1.4-12.7,4.7c-5.6,6.1-9.2,12.2-20.9,17.4c-11.8,5.2-27.5,12.2-41.6,28.2&#xD;
		c-14.1,16-17.2,41.4-17.2,41.4"/>
    <path class="st1 file-9-element-264" d="M413.2,138.2c0,0,39,28.5,71.2,16.9c0,0-0.7-10.3-4-17.9s-10.1-21.9-14.6-24.5c-4.5-2.6-6.1-0.7-7.8-1.9"/>
    <path class="st1 file-9-element-265" d="M419.6,155.9c0,0-0.7,14.6,5.6,20.9"/>
    <path class="st1 file-9-element-266" d="M482.4,155.6c0,0,5.6,6.8,6.6,6.8"/>
    <path class="st1 file-9-element-267" d="M448.5,168.1c0,0,8.5,11.1,18.3,14.8"/>
    <path class="st1 file-9-element-268" d="M463.8,94.5c0,0-4.6,6.5-2,11.8c1,2.1,9.2,4.1,11.6,4.2c2.9,0.1,4.1-3.5,4.9-5.5"/>
    <path class="st1 file-9-element-269" d="M474.7,102.6c0,0,4.3,2.7,4.7,0.9c0.6-2.1,1.9-4.8,1.9-4.8s4.2,1.9,4-2.4s1.9-5.9,3.3-6.8&#xD;
		c1.4-0.9,1.2,0.2,2.4-4c0,0,2.1-22.6-16.9-24.7c-19-2.1-32,13.6-33.6,20s-8.7,19.3-29.9,37.2S386,161.5,386,161.5"/>
    <path class="st1 file-9-element-270" d="M477.4,84.4c6.8-0.9,12.5,3.5,12.5,3.5s1.5,9.8-1.7,18.6s-5.9,18.9-5.9,25.8"/>
    <path class="st1 file-9-element-271" d="M483.3,89.3c0,0-3.8-0.5-6.1,1.2"/>
    <path class="st1 file-9-element-272" d="M485.9,141.5c0,0,6.5-5,7.8-8.8c1.3-3.8,3.1-8.2,5.5-8.2c2.3,0,4.2-2.1,5.2-2.9"/>
    <path class="st1 file-9-element-273" d="M502.1,126.2c0,0,0.6,15.7,10.5,10.9"/>
    <path class="st1 file-9-element-274" d="M522.8,131.2c0,0-5.7,0.2-9-3.8c-3.4-4-5.5-2.7-6.9-8.2c-0.4-1.4-5-4.2-3.6-9.9"/>
    <path class="st1 file-9-element-275" d="M506.9,119.3c0,0,2.3-0.8,3.1-1"/>
    <path class="st1 file-9-element-276" d="M515.1,114.9c0,0,2.9-1.3,4.2-1.5"/>
    <path class="st1 file-9-element-277" d="M516.7,123.7c0,0,1,1.5,2.3,0.4"/>
    <path class="st1 file-9-element-278" d="M518.6,129.6c0,0,3.1-1.5,4.2-2.9"/>
    <path class="st1 file-9-element-279" d="M525.1,132.3c0,0,1.9-3.8,0.8-7.1c-1-3.4-1.5-4.8-0.4-8.8c1-4-0.6-5.9-3.4-7.1c-2.7-1.3-8.6-3.6-9.2-5.7&#xD;
		c-0.6-2.1-2.1,3.4-5.7,5"/>
    <path class="st1 file-9-element-280" d="M501.6,108.6c0,0-0.8-4.2,1.7-7.1s0.2-8.8,6.7-12.2s15.1-3.6,21,1.3c5.9,4.8,7.5,10.7,8,15.3&#xD;
		c0.4,4.6,2.3,6.7,6.5,6.5c4.2-0.2,5,1.7,5,4.4c0,2.7,2.5,0.2,5.5,2.3c2.9,2.1,1.3,2.7,4.8,3.4"/>
    <path class="st1 file-9-element-281" d="M528.5,88.9c0,0,9-6.3,14.7-16.1s2.7-10.3-4.8-3.8c-7.5,6.5-12.6,12.6-13.8,17.8"/>
    <path class="st1 file-9-element-282" d="M531.8,73.8c0,0,4.4-20.8-4.6-8.2s-6.9,21.2-6.9,21.2"/>
    <path class="st1 file-9-element-283" d="M533.5,117.4c0,0-2.5-2.3-2.5-7.1c0-4.8-5.2-9.2-5.2-9.2"/>
    <path class="st1 file-9-element-284" d="M533.7,102.9c0,0-2.1-7.5-8.4-10.5"/>
    <path class="st1 file-9-element-285" d="M521.4,134.6c0,0,14.3-5.5,17.8-21.2"/>
    <path class="st1 file-9-element-286" d="M524.5,141.7c0,0,15.9-3.4,24.3-20.3"/>
    <path class="st1 file-9-element-287" d="M542.1,140.9c0,0,10.1-4.4,16.1-19.1"/>
    <path class="st1 file-9-element-288" d="M539.2,157.2c0,0,18.5-18,21.4-21c2.9-2.9,2.1-1.5,2.1-1.5s28.3,0.2,49.9,21.4s29.8,36.7,29.8,36.7"/>
    <path class="st1 file-9-element-289" d="M615.7,183c0,0,11.7,10.5,15.1,16.6s3.6,1,9.4-1.9c5.9-2.9,3.4-7.8,2.1-14c-1.3-6.3-2.5-14.9-10.1-23.3"/>
    <path class="st1 file-9-element-290" d="M640.2,173.6c0,0-0.6-18.2-5.7-26s-34.4-22-41.7-21.6s-7.3,0.4-7.3,0.4"/>
    <path class="st1 file-9-element-291" d="M630.8,199.6c0,0-13,5-27,3.1c-14-1.9-24.1-5.2-28.1-5.9c-4.3-0.7-7.3-1.3-9.2,0c-1.9,1.3-7.8,5.5-12.8,6.3&#xD;
		c-5,0.8-6.7-0.8-6.7-0.8"/>
    <path class="st1 file-9-element-292" d="M554.7,198.5c0,0-9.2,4.2-12.2,2.1"/>
    <path class="st1 file-9-element-293" d="M549.5,197.1c0,0-6.7,3.1-10.5,1.5"/>
    <path class="st1 file-9-element-294" d="M546.1,193.3c0,0-4.2,4.2-12.6,2.9"/>
    <path class="st1 file-9-element-295" d="M534.1,192.7c0,0,9.9,0,15.7-4.6c5.9-4.6-13-7.8-13-7.8"/>
    <path class="st1 file-9-element-296" d="M547.1,181.3c0,0,6.9-0.4,12.2,2.1c5.2,2.5,8.4,4,10.1,4s11.5-1,16.4-0.4s17.2-3.6,27.5-1.5"/>
    <path class="st1 file-9-element-297" d="M562.7,134.8c0,0-14.7,15.5-13.4,42.6"/>
    <path class="st1 file-9-element-298" d="M543.4,270c0,0,0.4-25,4.4-41.3s1.7-23.5,1.7-23.5"/>
    <path class="st1 file-9-element-299" d="M537.7,260c0,0-1.3-29.6,1.9-39.6c3.1-10.1,2.9-16.6,2.9-16.6"/>
    <path class="st1 file-9-element-300" d="M620.7,202.3c0,0,7.3,10.9,9.6,25.6s1,57,4.4,69.8s5.7,53.9,4,64.8s-3.4,23.1-4,25c-0.6,1.9-5.9-5.2-7.8-1.3&#xD;
		c-1.9,4-6.9-2.9-9,1.3c-2.1,4.2-5-1.9-7.8,2.3c-2.7,4.2-4.8-6.1-7.3-1c-2.5,5-11.1-3.4-12.8,0c-1.7,3.4-8-7.3-11.3-2.7&#xD;
		c-3.4,4.6-10.1,6.7-9.6,0.6c0.4-6.1-4.6-5.9-6.5-3.6c-1.9,2.3-5.5,0-6.3,0"/>
    <path class="st1 file-9-element-301" d="M606.9,204c0,0-5.9,18.5-6.5,31.9c-0.6,13.4-1.7,42.8-7.5,59.6S563.1,356,563.1,356"/>
    <path class="st1 file-9-element-302" d="M623.5,362.9c0,0,3.6-27.7,2.1-41.7c-1.5-14-2.7-5.2-2.7-12.2c0-6.9-3.4-3.6-2.3-13c1-9.4-2.5-1.7-1.7-12.2&#xD;
		s-0.6-5.7-3.8-15.5s1.3-27.5-0.8-37.1"/>
    <path class="st1 file-9-element-303" d="M561,248.9c0,0,30-12.4,34.2-40.9"/>
    <path class="st1 file-9-element-304" d="M595,182.6c0,0,8.8-9.9,19.1-8.8"/>
    <path class="st1 file-9-element-305" d="M586.6,179.5c0,0,11.5-15.3,24.1-14"/>
    <path class="st1 file-9-element-306" d="M558.3,230.4c0,0,18.2-10.1,19.1-23.9"/>
    <path class="st1 file-9-element-307" d="M559.7,175.3c0,0,4-17.8,12.2-31"/>
    <path class="st1 file-9-element-308" d="M567.3,177.2c0,0,7.3-17.2,16.4-25"/>
    <path class="st1 file-9-element-309" d="M631.4,144.4c0,0,3.8-5.9,4.2-9c0.4-3.1-18.5-15.9-40.9-17.2"/>
    <path class="st1 file-9-element-310" d="M558.5,92.2c0,0,13.6,4.2,14.7,15.1c1,10.9,4.6,21.8,7.1,25c2.5,3.1,1.9-0.2,2.5-3.1c0.6-2.9,1.5-7.8,4-6.1&#xD;
		c2.5,1.7,4-0.6,4-3.1c0-2.5,1.9-5.5,3.8-5c1.9,0.4,3.8-5.7,3.8-8.8c0-3.1,0.2-9.9-2.1-13.4c0,0,3.4-8.4-2.3-15.7&#xD;
		c-5.7-7.3-21.8-6.3-28.1-2.3c-6.3,4-10.9,6.3-11.3,10.9c-0.4,4.6-3.1,3.6-3.6,6.5S556.4,90.8,558.5,92.2z"/>
    <path class="st1 file-9-element-311" d="M596.4,90.1c0,0-21.2,2.9-41.9-4.6"/>
    <path class="st1 file-9-element-312" d="M596.2,92.6c0,0-19.7,3.4-37.7-0.4"/>
    <path class="st1 file-9-element-313" d="M581.1,98.3c0,0-3.1,9.9,0.8,21.6"/>
    <path class="st1 file-9-element-314" d="M577.8,80.1c0,0,5,4.8,5,9.4"/>
    <path class="st1 file-9-element-315" d="M588.7,100c0,0,3.8,4.8-0.2,12.2"/>
    <path class="st1 file-9-element-316" d="M575.7,119.5c0,0-5,2.9-8,3.1s-5.7-4.4-5-6.3c0.6-1.9,0.6-1.9,0.6-1.9s-0.2,0.2-1.9-0.4s-2.5-5.2-2.5-5.2&#xD;
		s-2.7,2.1-4,1.5c-1.3-0.6-1.9-8.6-1.3-10.5c0.6-1.9-1.7-4.8-0.8-6.9"/>
    <path class="st1 file-9-element-317" d="M561.4,97.7c-0.7,0.1-1.3,0.5-1.8,1c-0.8,0.8-1.2,1.8-1.2,1.8h1.7"/>
    <path class="st1 file-9-element-318" d="M565.4,131.4c0,0,4-2.9,5.9-4.4c1.9-1.5,2.3-3.6,2.3-3.6"/>
    <path class="st1 file-9-element-319" d="M593.7,373.8c0,0-3.1-28.3,3.1-42.6s7.1-24.1,5.9-31.2c-1.3-7.1-0.2-12.8,0-13.4"/>
    <path class="st1 file-9-element-320" d="M526,202.5c0,0-1.9-8.6,5.5-22.6"/>
    <path class="st1 file-9-element-321" d="M498.9,198.1c0,0,1.9-10.5,2.1-16.6s2.7-3.4,4.2-9.2"/>
    <path class="st1 file-9-element-322" d="M516.5,203.8c0.2-0.8,1-12.8,2.7-15.1"/>
    <path class="st1 file-9-element-323" d="M623.1,124.5c0,0,6.7-5,4.6-17.2c-2.1-12.2-15.9-11.1-19.9-8c-4,3.1-6.7,13.8-4.6,19.1"/>
    <path class="st1 file-9-element-324" d="M605.9,103.1c0,0,2.2-2.6,5.6,0.4c1.9,1.7,6.2,2.6,8.3,1.3c3.3-2,6.3-0.1,6.3-0.1"/>
    <path class="st1 file-9-element-325" d="M613.7,112.9c0,0,1-0.4,2.4,0.5"/>
    <path class="st1 file-9-element-326" d="M614,118.2"/>
    <path class="st1 file-9-element-327" d="M610.3,389.8c0,0,5,6.5,3.9,11.8c-1.1,5.3-10.3,3.8-16.7,3s-14.8,1.5-19.8,1.1c-4.9-0.4-9.5-0.8-9.1-3&#xD;
		c0.4-2.3,3-4.6,10.3-4.6c7.2,0,9.1-7.2,14.1-6.8c4.9,0.4,4.6-1.9,4.6-1.9"/>
    <path class="st1 file-9-element-328" d="M583.8,393.8c-8.4-1.1-25.8-0.8-25.8-0.8"/>
    <path class="st1 file-9-element-329" d="M558,393.1c0,0-4.2-3.4,1.5-4.6"/>
    <line class="st1 file-9-element-330" x1="676.4" y1="330.5" x2="679.9" y2="330.9"/>
    <line class="st1 file-9-element-331" x1="482.3" y1="184.9" x2="484.7" y2="186.1"/>
    <line class="st1 file-9-element-332" x1="558.8" y1="280.7" x2="526.4" y2="276"/>
    <line class="st1 file-9-element-333" x1="468.4" y1="298" x2="290" y2="332.4"/>
    <line class="st1 file-9-element-334" x1="179.8" y1="294.9" x2="179.8" y2="283.3"/>
    <line class="st1 file-9-element-335" x1="184.2" y1="281.4" x2="270.9" y2="270.5"/>
    <line class="st1 file-9-element-336" x1="332.2" y1="262" x2="345.3" y2="259.9"/>
    <line class="st1 file-9-element-337" x1="225.4" y1="241.4" x2="235.8" y2="245.2"/>
    <line class="st1 file-9-element-338" x1="409.2" y1="268.6" x2="413.6" y2="273.8"/>
    <line class="st1 file-9-element-339" x1="368.4" y1="197.7" x2="382.3" y2="210.3"/>
    <line class="st1 file-9-element-340" x1="369.9" y1="194.1" x2="387.2" y2="209.6"/>
    <line class="st1 file-9-element-341" x1="325.7" y1="186.4" x2="316.6" y2="185.7"/>
    <line class="st1 file-9-element-342" x1="184" y1="299.3" x2="184" y2="397.8"/>
    <line class="st1 file-9-element-343" x1="200.6" y1="313.2" x2="200.6" y2="397.8"/>
    <line class="st1 file-9-element-344" x1="480" y1="91.7" x2="480.2" y2="89.8"/>
    <line class="st1 file-9-element-345" x1="614.2" y1="117.7" x2="614.2" y2="117.7"/>
    <line class="st1 file-9-element-346" x1="621.8" y1="110.2" x2="621.8" y2="110.2"/>
    <line class="st1 file-9-element-347" x1="609.4" y1="108.8" x2="609.4" y2="108.8"/>
    <line class="st1 file-9-element-348" x1="637.5" y1="277.1" x2="809.7" y2="277.1"/>
    <line class="st1 file-9-element-349" x1="151.9" y1="278.7" x2="111.2" y2="278.7"/>
    <line class="st1 file-9-element-350" x1="51.7" y1="279.7" x2="-38.3" y2="279.7"/>
    <polyline class="st1 file-9-element-351" points="528.7,286.8 558.8,280.7 558.8,297.3 528.3,305.2 	"/>
    <polyline class="st1 file-9-element-352" points="287.7,348.5 287.7,333.1 183.9,284.2 	"/>
    <polyline class="st1 file-9-element-353" points="465.1,317.5 288.1,352.2 181.6,298.2 	"/>
    <polyline class="st1 file-9-element-354" points="434.9,270.4 442.1,278.9 450.7,276.4 	"/>
    <polyline class="st1 file-9-element-355" points="287,359.5 287,465.9 298.4,463.6 298.4,356.8 457.8,325.2 	"/>
    <polyline class="st1 file-9-element-356" points="287,465.9 279,460.8 279,355.3 190.7,308.7 190.7,397 	"/>
    <polyline class="st1 file-9-element-357" points="554.9,298.7 554.9,408.7 546.3,410.6 546.3,307.2 532.3,311 	"/>
    <polyline class="st1 file-9-element-358" points="546.3,410.6 538.6,407.9 538.6,309.9 	"/>
  </g>
</svg>