<?xml version="1.0" encoding="UTF-8" standalone="yes"?>
<svg version="1.1" xmlns:x="special-ns_extend;" xmlns:i="special-ns_ai;" xmlns:graph="special-ns_graphs;" xmlns="http://www.w3.org/2000/svg" xmlns:xlink="http://www.w3.org/1999/xlink" x="0px" y="0px" viewBox="0 0 792 612" style="enable-background:new 0 0 792 612;" xml:space="preserve">
  <style type="text/css">
	.st0{fill:#FFFFFF;}
	.st1{fill:none;stroke:#231F20;stroke-width:2.5;stroke-linecap:round;stroke-linejoin:round;stroke-miterlimit:10;}
</style>
   <g i:extraneous="self">
      <g id="coloringShapes">
        <rect id="element-1" x="-30.9" y="-23.8" class="st0" width="845.3" height="288.6"/>
        <rect id="element-2" x="-68.8" y="264.9" class="st0" width="927.8" height="379.8"/>
        <path id="element-3" class="st0" d="M28.2,332.8l-0.4-107.1l7.3-11.7l31.2-37.4l19.6,55.7l-4.1,116C81.8,348.3,39,340,28.2,332.8z"/>
        <path id="element-4" class="st0" d="M84.4,236.1l-2.6,112.2l107.7-0.5l69.6,0.5c0,0,58.8-1,83-8.8l0.5-6.2l2.1-56.7l1-42.3L84.4,236.1z"/>
        <path id="element-5" class="st0" d="M348.4,240.8c0,0,1.9-7,5.1-9.6s5.3-15.3,5.3-15.3s4-9.1,4.9-13.2s-1.5-19.5,6.6-34.2s-0.2-38.8,4.9-45.6
				c5.1-6.8,32.1-38.6,32.1-38.6l15.3-12.3c0,0,2.8-6.8,7.4-8.7c4.7-1.9,19.5-7.6,21.7-21.7c0,0-0.6-4.9,1.5-7.9
				c2.1-3,6.4-10.6,7-15.1c0.6-4.5,1.7-4.5,4.2-4.2c2.5,0.2,7-4,7-4s-13.6-12.5,9.3-21h108.7c0,0,5.1,22.9-8.7,30.8
				c0,0,0.7,5.1-8.9,8.7c-1.7,0.6,0.6,4.5-11.5,8.1c0,0-0.2,11.9-7.4,17.6c0,0-3.2,12.1-13.6,17c0,0,0,5.3-10.6,8.5
				c0,0,0.8,4.7-10.6,7.9c0,0-2.1,6.6-14.4,8.1c0,0-2.8,5.1-10.8,3.4s-5.3,3.2-8.1,5.9c-2.8,2.8-3.8,3.8-10,4.9l-2.5,1.3
				c0,0,1.9,11.3-2.3,18.7c0,0-1.7,10-12.5,16.6c0,0,3.2,8.9-1.3,13.4c0,0-2.1,10.4-11.7,15.9c0,0-1.5,1.5-3.6,4
				c-2.1,2.5-4,5.9-8.3,6.6c-4.2,0.6-4.9,4.3-8.5,4.5c-3.6,0.1-17.8,14.9-19.7,16.6c-1.9,1.7-62.2,48-62.2,48l-0.8-5.5
				C341.2,250.1,347,248.4,348.4,240.8z"/>
        <path id="element-6" class="st0" d="M641.5,457.3L655,401l11.2-58.4c0,0,3.6-33.9-1.2-61.9c-4.9-28-15.8-30.7-17.4-36.6
				c-1.6-5.9-2.3-9.5-2.3-9.5l-9.6,3.3l-9.9,30.7c0,0,10.4,30.8,9.2,37.7c-1.3,6.9,0,15.6-1.5,21.8c-1.5,6.1-2.9,22.1-2.1,29.1
				c0.8,7,1.1,24.9,1.1,27.7c0,2.8-0.4,11.1-0.4,11.1L641.5,457.3z"/>
        <path id="element-7" class="st0" d="M506.8,536.2c0,0,9.9,16.3,15.7,19.7c5.8,3.4,14.3,8,14.3,8s12.9,7.4,14.6,8c1.7,0.6,8.8,0.6,12.1,2.5
				s9.9,7.2,18.4,6.6c8.5-0.6,22-1.4,22.8-1.4s9.9,0,17.9-2.8s17.1-4.4,17.1-4.4s6.1-7.2,6.9-11.8c0.8-4.7,1.7-41,1.7-41
				s1.4-24.8-5.2-53.1c-6.6-28.4-11-70.5-11-70.5l-51.8-136.3c0,0-16.2-11.3-24.2-11.6s-14,8-17.9,17.6c-3.9,9.6-5.2,25.9-1.4,36.3
				c3.9,10.5,6.1,47.4,4.7,53.1c-1.4,5.8-2.5,8-2.5,8l-15.3,48.9l-13.8,54.3C509.9,466.4,498.7,515.9,506.8,536.2z"/>
        <path id="element-8" class="st0" d="M361.1,544.4c0,0-6.6-1-8.1,1.2c-1.4,2.3,6.4,12.8,7,13.4c0.6,0.6,7.7,4.3,9.9-1.7c2.3-6-3.5-9.5,0.2-25.6
				s1-35,1-35l11.2,0.2l-0.4,13.4c0,0,1.4,16.1,1.9,20.3c0.4,4.1-0.2,10.8-0.2,10.8s-1.4-3.1-4.8-1.7c-3.3,1.4-1.9,3.5-0.6,6.6
				c1.2,3.1,2.5,9.1,4.3,9.1s3.3-1.7,3.3-1.7s-1.7-11.6,1-21.1c2.7-9.5,2.1-14.5,6.8-21.5c4.8-7,1-17.6,1-17.6l-26.9-4.1l-7.4,7
				c0,0-2.3,14.7,0,25.4C362.7,532.8,361.1,544.4,361.1,544.4z"/>
        <path id="element-9" class="st0" d="M348.9,495.8c0,0,6.2-2.1,11.6,0.8s9.8,6.7,15.7,4.8s5.6-4.1,11.6-3.3c6,0.8,13.2-1.9,13.2-1.9l7.9-24.6
				c0,0-12.2-9.3-10.5-26.3s4.1-29.4,3.5-36.8c-0.6-7.4-8.9-17-7.2-29c0,0-10.5-2.9-17.2-2.9s-19,1.7-22.3,11.8s-6.2,12.8-2.5,19.4
				s3.1,20.9,2.9,26.7c-0.2,5.8-2.7,27.5-2.7,29.8s-3.3,21.9-4.3,24.4C347.4,491.2,342,495,348.9,495.8z"/>
        <path id="element-10" class="st0" d="M452.3,578.5c0,0,2.7,2.9,6,2.3c3.3-0.6,4.8-3.1,12.8-6c8.1-2.9,8.3-3.5,10.5-3.7c2.3-0.2,3.1-2.3,6.8-1.4
				c3.7,0.8,19.9,2.5,23.4,1.4s7.9-1.9,8.1-8.9c0.2-7-22.7-16.3-22.7-16.3l-38.7-1.2C458.5,544.6,437,565.5,452.3,578.5z"/>
        <path id="element-11" class="st0" d="M468.4,590.3c0,0,9.1,1.2,11.8-2.9c2.7-4.1,2.3-5.4-0.6-8.7c-2.9-3.3-1.4-8.9-0.4-12.8s-0.8-9.9-0.8-9.9
				s6.8-3.5,7.4-3.5c0.6,0,0.6,1.7,2.1,5s3.7,9.7,4.3,13c0.6,3.3,0.2,14.1,2.1,14.7c1.9,0.6,7.4,0.4,11-1.7c3.5-2.1,3.5-6.6,2.5-9.3
				c-1-2.7-2.7-5.8-4.5-7.9c-1.9-2.1-0.4-9.7-1-11.8c-0.6-2.1-3.3-8.1-7-7.2c-3.7,0.8-6.2,5-6.4,5.6c-0.2,0.6-2.9-3.1-3.9-2.3
				c-1,0.8-13.2,2.3-13.2,2.3s-7.7,1.3-8.1,6.8c-0.3,5.5,1,12.8,1.7,13.9c0.6,1,2.3,6.2,1.9,9.3S464.7,588.2,468.4,590.3z"/>
        <path id="element-12" class="st0" d="M702.2,352.6c0,0-16.2,36.8-10.7,38c5.5,1.2,6.7,1.7,13,0.1c6.3-1.5,4.5-1.8,11-1.6c6.4,0.1,7.5,2.2,8.4,3.6
				c0.8,1.4,2.3,4.4,0.5,7.3c-1.8,2.9-1.9,0.8-3.7,1.4c-1.8,0.5-2.6-2.7-2.6-2.7s-4-2.1-8.9-1.8c-4.9,0.3-8,3.3-11.4,3.7
				c-1.7,0.2-6.9-0.9-11.7-2.1l-2.3,136.5l0.4,10.8c0,0,7.8,7.1,10.6,7.5c2.8,0.4,7,2.5,6.3,4.2c-0.7,1.8-7.8,2.1-11.2,0.1
				s-10.3-0.7-12.1-0.8c-1.8-0.1-2.6-5.1-1.2-9.3s-1-9.3-1-9.3s-3.3-0.7-6.3-0.7l13.3-1.3l1.2-138.3c-4.1-1-7.4-2-7.4-2
				c1.9-6.2,6-8.1,6-8.1l5.1,1.8l12.3-36.9c-0.3,0.1-5.2,1.5-6.7,2.3c-1.5,0.8-5.8,2.1-7.6,2.6c-1.8,0.5-3.4-2.5-2.5-0.5
				c1,1.9-1.2,2.8-2.9,2.9c-1.7,0.1-2.1-4.1-1-7c1.1-2.9,2.3-6.2,2.7-8c0.4-1.8,2.1-7.8,3.4-9.7c1.4-1.9,6-2.3,7-2.3
				c1,0,3.3-3.7,6.2-0.7c2.9,3,5.2,1.4,5.2,1.4c2.1,2.3,6.2,3,6.2,3l-3.4,8c0,0,5.6-1,10.1-2.7c4.5-1.8,11-0.1,11.5,3.8
				c0.5,4-1.6,6-5.3,8.2C719.2,356,702.2,352.6,702.2,352.6z"/>
        <path id="element-13" class="st0" d="M666.3,342.5l-8,6.6c0,0-3.7,5.2-1.9,5.2c1.8,0,4.1,0.4,7.3-2.1c3.2-2.5,3.8-4,9.1-4.3s7,1.6,9.3-3.2
				c2.3-4.8,0.4-9.5,5.3-11.5c4.9-2.1,8-1.8,8-1.8s-0.7-1.4,3.3,0.5s7.2,3.9,8.2,4c1,0.1,3.2,0.4,3.2,0.4s2.7-10.3-4.4-17.6
				c-7.1-7.3-13-6.6-19.5-2.6c-6.4,4-8.1,13-8.1,13S676.4,338.4,666.3,342.5z"/>
        <path id="element-14" class="st0" d="M723.2,354.9c0,0-14,5.5-18.1,9.2c-4.1,3.7-4.5,4.7-5.3,8.5c-0.8,3.8-1.6,18.9-1.6,18.9l-15.6-3.8
				c0,0-5.1,3.6-6,8.1c0,0,12.5,3.4,15.2,3.7s6.2,1,6.2,1l0.4,8.2c0,0,5.3,36.3,5.2,39.9c-0.1,3.6,1.4,41.7,1.5,42.4
				c0.1,0.7,0.3,25.1,0.3,25.1s0.7,7.1-0.8,9.5c-1.5,2.3-8.9,6.9-13.6,8.4c-4.7,1.5-9.7,3.7-15.2,4.3s-26.9,1.5-26.9,1.5
				s0.8-12.9-0.3-31c-1.1-18.1-6.4-49.4-6.4-49.4s2.1-20.3,3.2-30s9.2-26.6,9.2-26.6s-8.1-0.1-4.9-25.5c0,0,4.6-16.9,7-22.8
				c0,0,5.6,1.4,7.3-2.1s6.6-3.8,9.1-4.3c2.5-0.4,8.4-1.6,8.4-1.6s2.3-0.4,0.3,2.1c-2.1,2.5-4,7.5-2.2,9.5c1.8,1.9,4,1,4-1
				s2.5,0.5,2.5,0.5s1-1.6,2.6-1.4s7.3-2.6,7.3-2.6s-0.4-1.4,6.7-1S723.5,354.3,723.2,354.9z"/>
        <path id="element-15" class="st0" d="M669.3,537.4l-2.5,0.2C667.5,537.5,668.4,537.4,669.3,537.4z"/>
        <path id="element-16" class="st0" d="M678.5,563.5c-1,2.3-4.4,0.1-8.2-1.2c-3.8-1.4-10.7-1.1-13.7-1.6c-3-0.6,0.3-8.1,1.1-11.7
				c0.8-3.6-1.2-10.3-1.2-10.3l10.4-1c-0.8,0.2-1.5,0.6-1.8,1.2c-1.2,2.7-2.2,7.7-2.2,10.3c0,2.6,1.9,1.5,4.5,4
				c2.6,2.5,6.6,4.8,9.5,5.9S679.4,561.2,678.5,563.5z"/>
        <path id="element-17" class="st0" d="M531.4,364.6c0,0,5.9-5.4,7.9-6.3c2-0.9,19.4-6.7,21.6-9.8s11.1-26.2,11.1-26.2s2.9-0.5,6.9-7.7
				s1.2-6.4,1.2-6.4l-0.2-3.6c0,0,0.9-4.8-0.4-4.7c-1.3,0.1-1.5-1.3-4.2,0.2c-2.7,1.5-3.4,5.2-3.6,5.7c-0.3,0.4-3.1,2.9-3.6,3.7
				c-0.5,0.8-1.5,2.7-1.7,4c-0.2,1.3,1.1,3.4,1.1,4.7c0,1.4-3.9,6.9-5.9,9.9c-2.1,3-3.9,11.3-7.2,13.6s-7,4.6-8.8,3
				s-0.8-5.2-0.8-5.2s-1.1-4.5,0.5-4.5c1.6,0,5.7,1.7,7.5-2.3c1.8-4,2.3-4.5,1.9-9.6c-0.4-5.2-1.5-10.1-2-11
				c-0.5-0.9-2.4-3.3-2.8-3.3c-0.4,0-3.9,1.4-5.6,0.8c-1.7-0.6-3.6-0.8-5.3-0.1c-1.7,0.7-2.8,1.6-6.6,3c-3.8,1.4-3.7,5.9-3.9,7.8
				c-0.2,1.9,2.7,5.8,2.7,5.8s1.6-0.2,2.3,2.3s1.3,6.3,1.5,6.7c0.2,0.4-1.7,2.9-2.3,4.2c-0.6,1.3,6.7,2.7,7.4,4c0,0-4.5,1.2-5.8,4.1
				c-1.3,2.9-0.1,8.8-0.4,10.3S531.4,364.6,531.4,364.6z"/>
        <path id="element-18" class="st0" d="M517.4,333.9c0,0,1.2,6.6,2.7,7.5c1.5,0.9,4.6,0.2,6.2,0.9c1.5,0.8,2.9,1.9,4,0c1.1-1.9,3.2-5.5,4.4-6.4
				c1.2-0.9-0.1-5.2-0.3-6.4c-0.2-1.2-4.5-6.2-4.5-6.2s-2.1-3.4-1.1-6.5c0.9-3.1,5.6-4,6.9-5.5c1.3-1.5,4.5-2.9,6.4-2.7
				c1.9,0.2,4.8,0.9,6.2,0.1s2-2.7,2-2.7l-7.6-3.1c0,0-9.6-0.9-11.7,0.4c-2.1,1.4-4,3-5.3,4c-1.4,0.9-1.5,2.1-2.9,3.7
				c-1.5,1.5-2.2,2.4-2.8,5.1c-0.6,2.7-1.5,5,0.3,7s3.1,3.8,3,4c-0.1,0.3-5.2,3.9-6.2,7.6S517.4,333.9,517.4,333.9z"/>
        <path id="element-19" class="st0" d="M538.9,343.1l-7.2-3.4l-2.3,4.2l-3.7-2.3l-4.4,0.1l-6.1,6.4c0,0-9.6,16.6-11,29.5
				c-1.4,12.9,0.3,13.7,6.4,14.4c6.1,0.7,17,1.8,17,1.8l0.8,0.1l13.2-35.9c0,0-11.4,8.6-11.9,9.2c-0.5,0.6,4-8.2,4-8.2l-0.7-8.2
				C532.9,350.8,531.5,347.5,538.9,343.1z"/>
        <path id="element-20" class="st0" d="M497.6,428.3c0,0,0.5-19.5,3.4-26c2.8-6.5,6.6-10.9,6.6-10.9l20.6,1.8l-4.5,19c0,0-12.9,48.5-15.5,66.1
				c-2.7,17.6-4.2,34.1-3.8,36.2c0.4,2.1,2.4,21.8,2.4,21.8L494,524.9c0,0,0.6-9.1-1.2-13.1c0,0,0.8-9.8-0.4-14.3
				c0,0,1.6-12.2-4-16.6c0,0,12.5-5.9,13.8-13.7c1.4-7.8-0.3-25-0.3-25L497.6,428.3z"/>
        <path id="element-21" class="st0" d="M194.4,347.5c0,0-0.6,3.3,5.6,5.6c6.2,2.3,24,14.1,31.4,36.2c7.4,22.1,5.8,36.4-4.1,43.8
				c-9.9,7.4-24.6,16.8-47.8,21.1c-23.2,4.3-48.2,10.1-64.5,17.8c-16.3,7.7-47.4,25.4-63.5,65.8s-7.7,75.5-7.7,75.5h367.9
				c0,0-13.9-8.3-22.7-11c-8.9-2.7-52.3-17.8-70.5-46.3c-18.2-28.5-8.9-54.6,0.6-83.1s14.9-48.6-5.6-70.7s-57.5-40.5-94.9-54.2
				L194.4,347.5z"/>
        <path id="element-22" class="st0" d="M417.9,290.6c0,0-1.9,4.5-1.7,6s-1.2,3.5-3.3,4.8c-2.1,1.2-3.7,3.6-2.9,4.1s1.9,1.4,0.4,4.5s0.8,3.9-0.6,7
				c-1.4,3.1,0.2,5,4.1,5.4c3.9,0.4,7.9,0.2,7.9,0.2l-22.1,50.7l-44.9,35.2c0,0-9.7,8.1-8.5,11c1.2,2.9,1.4,5.2,1.4,5.2l2.5,5
				c0,0,3.5,0.6,7.7-2.3l1.4-1.9l-3.7-14.7l45.9-35.8l23-53.2l-0.4-3.5c0,0,3.7-13.4,1.7-21.5C425.8,296.8,420.8,290.6,417.9,290.6z
				"/>
        <path id="element-23" class="st0" d="M382.4,376.9l-7,0c0,0,1.7-2.1,1.4-4.1c-0.2-2.1,1.4-4.8,3.1-6.2s1.7-3.7,0-6.8s-2.7-1.9-3.5-3.1
				c-0.8-1.2,0.4-2.3,0.6-4.8c0.2-2.5,1.7-5.4,1.7-5.4s3.7,1.6,5,4.3c1.3,2.8,2.5,5,3.1,7c0.6,2.1,2.8,6.3,2.3,7.4
				c-0.6,1.1-0.7,2.6-3.3,3.9c-2.6,1.3-3.2,2-3.3,4.3C382.3,375.9,382.4,376.9,382.4,376.9z"/>
        <path id="element-24" class="st0" d="M394,370.9c0,0,1.9,7.7,1.9,11.2c0,3.5-2.1,8.9,1.9,14.5s4.3,10.5,4.1,16.3c-0.2,5.8-3.7,19-3.5,32.5
				s3.9,18.4,10.5,26.3c6.6,7.9,9.5,17,9.7,21.1s6,11.2,14.1,16.5c8.1,5.4,11.4,9.5,13.9,13.9s6.6,8.5,11.6,2.5l7.9-12.4l7.4-7.4
				c0,0-1.7-7.7-0.4-11.4c1.2-3.7,1.2-6.2,8.9-10.5c7.7-4.3,17.8-5,20.3-18.6c2.5-13.6,0.4-21.8-0.6-26.5c-1-4.7-4.8-11.6-7.7-32.5
				c-2.9-20.9-8.1-23.8-10.5-32.7c-2.5-8.9-3.9-17.2-4.5-20.5c-0.6-3.3-4.1-10.8-8.9-14.3c-4.8-3.5-13.4-14.1-14.3-27.9
				c-0.8-13.9-2.9-26.3-15.3-29.4c0,0-12.8,0-15.5,3.9l2.1,18c0,0-0.6,9.7-2.7,14.9c-2.1,5.2-3.9,8.1-7.9,11.6
				c-3.9,3.5-5.4,5.6-9.1,11.6C403.5,347.5,394,370.9,394,370.9z"/>
        <path id="element-25" class="st0" d="M350.7,383.5c0,0,4.5,0.6,5.8,0.4s3.1-2.1,3.1-2.1s1.2-1.2,2.9-0.2c1.7,1,3.5,2.5,6.4-0.4s6.2-3.1,6.2-3.1
				l0.2-1.2c0,0,1.7-5.8,1.9-6.4c0.2-0.6,1-3.5,2.7-3.9s1.2-3.1,0-6.8s-3.5-3.1-3.5-3.1l0.2-6.6l2.1-3.5c0,0-2.9-5-6.4-5.8
				c-3.5-0.8-3.7,2.7-5.4,2.9c-1.7,0.2-3.1,0-4.3,1.7c-1.2,1.7-1,2.1-4.3,2.3c-3.3,0.2-4.1,3.1-5.8,4.8s-4.3,3.7-3.7,6.8
				c0.6,3.1-0.5,3.7-0.4,5.6c0.1,1.9,2.3,2.5,0.8,6c-1.4,3.5-0.8,4.1,0.2,5.8C350.3,378.1,350.7,383.5,350.7,383.5z"/>
        <path id="element-26" class="st0" d="M394,370.9c0,0-5.2,6.4-10.3,10.3c-5.2,3.9-11.4,7.7-17.6,12.2c-6.2,4.5-8.9,7.4-9.7,14.1
				c-0.8,6.6,3.1,16.8,3.1,18s1.4,11.2,6,17c4.5,5.8,0.4,8.7,4.3,7.7c3.9-1,6.6-13.2,6.6-13.2s1.2-9.5,6.4-12.6s10.1-6.2,12.4-9.5
				s6.8-7.7,6.8-7.7s-2.1-6-4.3-10.5c-2.3-4.5-2.9-10.5-3.1-17C394.4,373.2,394,370.9,394,370.9z"/>
        <path id="element-27" class="st0" d="M407.6,472.6l-6.6,23.6c0,0-3.7,11.6-7.7,17c-3.9,5.4-7.4,27.1-7.7,35.6s3.7,16.1,13.4,18.2
				c9.7,2.1,22.5,4.5,31,5.2s13.4,4.3,17.4,8.1c3.9,3.7,2.9,0.8,4.5-3.7s2.3-12,6-13c3.7-1,5.6-5.2,7-6.6s6.2-5,10.3-4.8
				c4.1,0.2,2.1,6.8,5.8,7.4c3.7,0.6,3.5-1.7,6-4.8c2.5-3.1,6-8.1,9.3-7c3.3,1,4.3,3.1,5.6,6.8c1.2,3.7,0.4,8.5,5.8,9.3
				s8.1,4.5,10.8,0.6c2.7-3.9-0.8-8.3-2.5-12c-1.7-3.7-2.7-10.2-9.4-16.3S494,524.9,494,524.9s0.4-8.3-1.2-13.1
				c-1.6-4.7,2-9.5-0.4-14.3s3.3-9.9-4-16.6c0,0-11.2,3.9-13.3,8.6c-2.1,4.8-2.9,8.7-2.3,13.2c0.6,4.5,0.2,2.7-2.7,5.8
				s-9.1,13.4-12,17c-2.9,3.5-5.4,5.6-9.7-0.4c-4.3-6-5.4-10.5-14.3-15.1c-8.9-4.5-13.4-9.3-15.5-17.4
				C416.5,484.6,414.4,476.8,407.6,472.6z"/>
        <path id="element-28" class="st0" d="M580.9,182c0,0,7.9,4.9,6.3,10.4s-6.3,9.2-7.6,12.8c-1.3,3.6-4,12.8-4,16.2c0,3.4,0.4,6.7-0.6,7.9
				s-15.2,20-15.2,20s-6.4-2.5-11.3,1.6c0,0,0.6-9.2,2.4-15.5c1.8-6.3,4.3-7,5.7-6.3c1.3,0.7,6.6,2.2,6.6,2.2l5.1,2.2
				c0,0,0.7,1,1.6,0.6s4.8-6,4.8-6s2.4-2.8-1.3-6.4c-3.7-3.6-9.7-10.9-7.3-14.5c2.4-3.6,4-2.2,4-2.2s-1.4-1-0.3-3.1
				c1.1-2.1,0.9-3,0.1-4.9c-0.7-1.9-1.5-1.8,1.6-3.4c3.1-1.6,6.6-3,7.5-4.9C579.7,186.9,580.9,182,580.9,182z"/>
        <path id="element-29" class="st0" d="M592.1,177.8c0,0-0.2,10.9-3.3,14.3c-3.1,3.4-12.7,15.4-12.4,31.6c0.3,16.2,4,40.5,4,40.5
				s-12.4-11.8-13.4-12.4c-1-0.6-8.8-2.8-8.8-2.8l17.1-21.2c0,0-1.5-12.8,4.3-23.7c5.8-10.9,8.3-13.4,8.3-13.4l-7.2-8.8
				C580.9,182,586.3,175.9,592.1,177.8z"/>
        <path id="element-30" class="st0" d="M597.9,178.1c0,0,10.9,0.3,16.1,8c5.2,7.8,6.3,11.5,4,18.2c-2.2,6.7-5.5,15.7-5.5,15.7l13.4,48.6
				c0,0,7.8,27.4,7.8,30.7c0,3.3,1,19.5-0.3,31.2c-1.3,11.6-1.9,26.7-1.9,26.7l2.1,25.5c0,0,0.7,11.3-2.7,18.5
				c-3.4,7.2-8.5,16.4-8.5,16.4l-12.8,26.2l-3.7-6.4c0,0-1.3-14.6-7.6-19.2s-11.3-5.7-9.5-11.8c1.8-6.1,0.1-12.5-3-19.2
				c-3.1-6.7-5.8-11.8-3.3-15.7c2.5-3.9,5.1-4.3,5.8-7c0.7-2.7-4-5.1-5.8-8.3s-4.9-5.2-2.1-18.8c2.8-13.6,0.9-25.2,0.9-25.2
				l-0.7-31.2l-1.9-27.7c0,0-5.8-28.9-1.3-41.4c4.5-12.5,14.6-19.7,14.9-34L597.9,178.1z"/>
        <path id="element-31" class="st0" d="M646.8,203.5c0,0-0.9-8.8-13.3-14.1c0,0-1.9,3-1.4,5.5s-0.7,4.6-1.9,5.5s-5.4,1.9-5.5,3.3
				c-0.1,1.4,0.6,2.2,0.4,4.1c-0.1,1.9,0.1,4.1,1.2,5.2c1,1.2,2.3,2.8,1,3.9c-1.3,1.2-2.8,1.9-2.8,1.9s-0.4,5.8,1,7.1
				c1.4,1.3,6.5,1.6,8.3,0.6c1.8-1,1.8-1,1.8-1l0,7c0,0-0.1,5.7-1.4,8c-1.3,2.3-2.6,4.1-1.7,5.2c0,0-2,1-1.9,2.5
				c0.1,1.4-0.4,1.9,0,2.8l0.4,1.6c0,0-2.6,0-2.5,1.9c0.1,1.9,2.2,1.7,3.3,3.6s3,3.6,2.8,6.5s1.7,8.3,2.3,9.4
				c0.6,1.2,6.7,14.9,6.7,14.9l3.6-11.6c0,0-3-4.8-2.8-11.2c0.3-6.4,2.8-6.8-0.4-13.5c-3.2-6.7-8.8-9.9-8.8-9.9s-1.4,0.4,0.7-4.9
				c2.2-5.4-0.7-9.9-0.7-9.9s1.8-3,6.1-7.6C645.5,215.7,646.8,203.5,646.8,203.5z"/>
        <path id="element-32" class="st0" d="M643.3,182.5c0,0-5.2,2.2-8.7,6.7c0,0,10,8.1,11.5,13.2c1.4,5.1-2,10.6-2,10.6s-1.7,8.1-8.4,11.7
				c0,0,0.4,12.4-0.6,14.6l10.3-4.8l-0.6-20c0,0,3-8.4,3.3-17.7C648.4,187.6,643.3,182.5,643.3,182.5z"/>
        <path id="element-33" class="st0" d="M666.3,342.5c0,0,7.7-3.1,11.8-13.2c4.1-10,4.4-11.8,10.8-15.2c0,0-2.6-21-5.4-29.9
				c-2.8-9-9.7-32.5-11.5-44.5c-1.8-12-3.1-22.8-1.5-34c1.5-11.3-0.5-17.7-7.7-21.5c-7.2-3.8-19.4-1.7-19.4-1.7s8.4,3.5,4,23.9
				l-2.6,8.1l0.6,20c0,0,1,10.8,6.4,15.4s12.5,15.9,13.3,30.7C665.8,295.5,672.1,313.5,666.3,342.5z"/>
        <path id="element-34" class="st0" d="M94.8,267.5l12.7,0.2l0.2-14.6l-4-1.9l-6.4-1.1l-2.3,0.6C95,250.8,92.9,266.5,94.8,267.5z"/>
        <path id="element-35" class="st0" d="M228.3,303.7v19.7l12.9,0.2l-0.6-7.6c0,0-4.7-4.5-5.3-8.7c-0.6-4.2-0.6-4.2-0.6-4.2L228.3,303.7z"/>
        <path id="element-36" class="st0" d="M257.2,304.2l0.8,18.3l11.3,0.2l0.2-17.4l-4.9,1.3c0,0-0.6-2.8-1.3-2.8C262.7,303.8,257.2,304.2,257.2,304.2
				z"/>
        <path id="element-37" class="st0" d="M286.7,300.4l1.1,22.1l11.5,0.2c0,0,1.7-9.1,1.5-10.2c-0.2-1.1-1.1-11.9-1.1-11.9L286.7,300.4z"/>
        <path id="element-38" class="st0" d="M172.1,312.1c0,0,2.9-0.8,10.2-6.4c7.2-5.5,11.9-9.8,14.4-15.5c2.5-5.7,10.2-14.2,10-18.9
				c-0.2-4.7,3.6-8.1,3.8-11c0,0,10.2,0,12.1-7.2c0,0,7.6-1.9,7.4-9.1c0,0-0.4,5.7,1.5,5.9c1.9,0.2,2.5-4.5,5.5-5.5
				c3-1.1,5.9-2.3,5.9-5.7c0-3.4,5.1-6.8,10-9.3c4.9-2.5,7-6.8,9.6-13.4c2.5-6.6,6.1-6.7,6.6-9.8c0.5-3.1,1.5-7.2,6.6-9.3
				c5.1-2.1,12.9-15.7,12.9-15.7s3.4-5.7,2.1-9.3s-1.5-6.2-0.4-8.5c1.1-2.3-0.4-3.4-1.1-5.3c-0.6-1.9,1.7-4.9,1.7-4.9
				s4.7,5.5,11-0.2c0,0,6.2-6.2,11.9-6.4s12.1-1.5,13.6-8.1c0,0-2.3-11.3,6.8-17.4c9.1-6.2,9.1-1.9,14.9-6.8c5.7-4.9,3,2.5,11.3-6.8
				c8.3-9.3,10.6-6.2,13.8-12.7s1.5-10.4,7.4-12.1c5.9-1.7,7.2-2.8,7.9-6.6c0.6-3.8,5.3-5.7,9.3-7.2c4-1.5,28.2-13.6,24.6-28
				c0,0-1.3-6.2,1.7-6.6c3-0.4,10.8-7,8.1-11.7c0,0,13.2-10.4,2.3-25l-41.4-3l-80.9,76.2c0,0-60.5,58.2-65.6,73.7
				s-26.5,63.9-28.9,76.8c-2.3,12.9-27.4,48.6-33.8,59.6c-6.4,11-12.7,22.9-15.5,25.5c-2.8,2.5-5.9,2.5-5.9,2.5
				S168.5,311.9,172.1,312.1z"/>
        <path id="element-39" class="st0" d="M105.9,255.5c0,0,3.8-2.4,5.3-4.4c1.5-2,0.4-5.1,3.6-6.6c3.3-1.5,4.6-6,7.8-7.3c3.3-1.3,4.4-3.6,6-6
				c1.6-2.4,2.4-2.7,4.7-4c2.4-1.3,1.8-5.1,2.4-6.6c0.5-1.5,5.3-8.4,4-14.4c0,0,4.2-0.7,4.9-8.4c0,0,11.3-0.4,13.3-11.3
				c0,0-3.3,4-1.1,12c0,0-2.4,5.3-2.2,8.7c0.2,3.5-2.6,3.6-4.2,6s-2.6,2.6-3.8,6.9c-1.3,4.4,0,2.7-2.4,6.4s-3.3,5.3-4,7.7
				c-0.7,2.4,0.2,2.7-3.5,5.6c-3.6,2.9-4.4,2.7-3.8,4.9c0.5,2.2-0.2,6.2,1.1,3.3c1.3-2.9,2.7-1.5,2.6,2.2c-0.2,3.6,3.5-6,4.6-7.8
				c1.1-1.8,2.7-5.5,2.7-5.5s4.7-6,7.1-10.4s5.1-6.4,6-10.4c0.9-4,6.2,1.3,10-14.2c0,0,7.8-13.9,3.5-22.1c0,0-2.4-24.4,7.5-31.7
				l3.3-1.8c0,0,9.1-1.1,13.9-10.8c0,0,13.1,3.3,15.5-9.7l78-73.4l20.4-62l-144.3-3.8l4.3,97.5l-35,79.5l-2.4,30.6
				c0,0-10.6,4-12,6.6c-1.5,2.6-7.5,3.1-7.7,11.3c-0.2,8.2-3.3,23.1-4.6,24.6c-1.3,1.5-3.7,10.4-3.9,14.2
				C103.5,255,101.9,258.4,105.9,255.5z"/>
        <path id="element-40" class="st0" d="M166.1,307.9c0,0-2.5,1.7-2.5,1.1c0-0.6-1.1-9.2,2.8-11.3c3.8-2,3.8-2,3.8-2s-0.4-12,6.4-16
				c6.8-4,10.8-3.2,10.8-7.9c0-4.7-0.2-8.1,3-10.4c3.2-2.3,0-11-0.6-15.1s6.4-8.3,6.4-8.3s-5.7-2.5-10-17.6c-4.2-15.1-2-22.6,0.4-28
				c2.4-5.4,7-12.5,7.4-13.4c0.4-0.8,3-6.8,5.5-8.3c2.5-1.5,3.4-2.8,3.4-2.8s-4.7-10.4,0-16.8c4.7-6.4,5.5-9.8,10.6-12.1
				c5.1-2.3,4.7-5.5,2.1-8.1c-2.5-2.5-7.4-13.4-6.8-23.6s4-13.4,5.1-18.3c1.1-4.9,0-17.8,4.2-23.6s7-11.3,16.6-18.7
				s13.4-7.4,15.3-9.6c1.9-2.1,4.7-10.4,14.4-11.9c0,0-1.5-17.8,6.2-20c0,0,1.1-8.1,11.3-9.6s113.6,0.8,113.6,0.8S404.9,10,385,18.3
				c0,0,3.2,24.8-19.5,29.3c0,0,1.3,13.8-17,13.6c0,0,2.1,6.6-6.2,8.1c0,0,11.5,3.8-9.6,15.5c0,0-4,20.8-23.6,18.7
				c0,0-4.5,16.6-22.7,15.7c0,0-1.1,15.5-17.2,15.9c0,0,5.7,18.3-8.3,22.7c0,0,2.3,12.5-9.8,14.4c0,0,5.3,8.5-1.9,11.5
				c0,0-3.8,4.2-5.3,5.7c-1.5,1.5,1.9,8.7-0.6,12.7c-2.5,4-2.8,5.5-3.6,10.4s-0.6,6.4-3.4,10.4c-2.8,4-4.2,5.1-5.3,9.1
				s-1.7,6.4-7.6,8.3c-5.9,1.9-7.2,3-7.2,3s0.9,12.3-11,13.6c-0.8,0.1-1.3,5.5-4.9,8.1c-3.6,2.5-5.9,5.7-5.9,5.7l-4.7,6.8
				c0,0-4.5,4.7-4,7.9c0.4,3.2,1.3,5.1-3.2,8.1c-4.5,3-9.8,9.8-9.8,9.8L166.1,307.9z"/>
        <path id="element-41" class="st0" d="M209.5,318c-0.9,2.4-1.6,4.2-1.7,4.5C207.9,322.2,208.4,320.3,209.5,318z"/>
        <path id="element-42" class="st0" d="M419.9,85.4c-2.1,8.4-11.9,11.2-11.9,11.2c-2.1,9.8-12.9,9.8-12.9,9.8c0.7,9.4-7.2,15.9-7.2,15.9
				c0.7,12.4-11.5,17.1-11.5,17.1c-7.2,18.7-20.3,17.1-21,20.3c-0.7,3.3-4,5.9-5.8,6.1c-1.9,0.2-2.6,2.3-6.5,3.7
				c-4,1.4-2.8,0.2-4,4.7c-1.2,4.4-5.2,4-6.8,8.4c-1.6,4.4-5.1,4-7.2,5.6c-2.1,1.6-6.5,6.5-4,11.7c2.6,5.1-1.2,5.6-1.2,5.6
				c-1.4,9.8-4.9,4.9-7.5,11.5c-2.6,6.5-7.3,5.4-8.4,9.1c-0.8,2.6-0.7,6-2.8,10.1l0.4,0l-5.3,8.1c5.9,5.9,1.1,13.2,1.1,13.2
				c3.4,7.2-6.2,16.3-6.2,16.3c0.6,6.2-8.9,13-13.4,15.3c-4.5,2.3-6.8,4.9-9.8,7.8c-3,3-12.3,5.5-12.3,5.5s-1.3-0.2-4.7,6.2
				c-3.4,6.4-14,7.9-14,7.9l-1.1-4c-5.7,1.9-3.2-4.7-2.1-6.4c0.7-1.1,1.1-2.9,0.3-3.6c-3.7,1.5-9.4,4-16,6.7c-4.3,1.7-7,5.7-8.6,8.8
				c1.5-4.1,3.6-9.8,4.4-12.5c1.2-4.5,5.4-6.1,7-9.8c1.6-3.7,5.4-8,7.7-10c2.3-2.1,9.3-5.4,11.7-6.5c2.3-1.2,5.8-8.9,5.8-8.9
				l10.5-11.7c0,0,6.3-6.5,7.5-7.7c1.2-1.2,1.9-8.2,7-10.1c5.2-1.9,5.6-4.9,6.3-9.6c0.7-4.7,3-5.4,5.2-8c2.1-2.6,0-5.6,1.9-8
				c1.9-2.3,2.6-4.4,2.8-5.6c0.2-1.2-1.9-6.8-0.9-8.4c0.9-1.6,0.8-1,2.6-8.4c1.8-7.4,5.6-5.6,10.8-8.9c5.1-3.3,3.7-7.5,2.1-13.8
				c-1.6-6.3,2.6-7.7,5.8-8.9c3.3-1.2,7.5-1.6,8.2-2.8c0.7-1.2-0.2-4.5,4.9-4.7c5.1-0.2,4.9-0.2,7.5-4.9c2.6-4.7,5.2-4.2,10.1-6.5
				s5.1-9.6,7-15.4c1.9-5.8,5.1-7.2,8-9.4c2.8-2.1,8.2-1.9,9.6-3c1.4-1.2,4.4-2.8,5.6-3.3c1.2-0.5,5.4-0.7,8-7
				c2.6-6.3,4.5-4.4,7-10.1c2.6-5.6,9.4-8,12.4-11c3-3,7.5-3.3,10.8-5.1c3.3-1.9,11-4,15.9-5.8c4.9-1.9,4.9-7.5,5.4-8.4
				c0.5-0.9,12.2-5.1,12.2-5.1C441.9,84.7,419.9,85.4,419.9,85.4z"/>
        <path id="element-43" class="st0" d="M259.1,306.6c0,0-3.4-3.2-0.4-5.1s8.5-2.8,11-7c2.5-4.2,10-6.2,13.8-9.3c3.8-3.2,8.9-10.8,8.9-10.8
				s7-3.8,7.6-6.6c0,0,15.9-5.7,17.2-14.6c0,0,6.2-4.9,5.9-10c0,0,5.5-6.4,4.5-11.7c0,0,1.7-10.2-1.7-12.3c0,0,7.9-4.7,7.4-12.5
				c-0.4-7.9-1.5-10.4,4.5-13.8c5.9-3.4,4-6.6,3.2-10c-0.8-3.4,0.4-7.2,3-9.6c2.5-2.3,4.5-7.6,5.6-7.4c1,0.2,5.6-1.5,5.8-6.1
				c0,0,18.5-6.2,21-20.3c0,0,6,21.3-2.1,32.8c0,0-6.9,6.2-7.6,9.3c-0.7,3.2,0,4.7-0.6,8.1c-0.6,3.4-2.5,9.6-2.3,13.2
				c0.2,3.6,0.4,4.2-1.3,6.8c-1.7,2.5-2.5,7.6-3.4,10.8c-0.8,3.2-1.5,8.3-3.8,10.2c-2.3,1.9-3,3.2-4.7,7.9s-5.7,10.8-12.5,13.4
				c0,0,0.4,7-11,7.6c0,0-2.3,10.8-9.1,7.6c0,0-8.1,9.1-18.3,10.2c0,0-2.3,4.5-6.6,6.2c0,0-1.3,0.2-3.6,3.2c-2.3,3-11,8.3-11,8.3
				s-2.5,5.3-3.2,6.2c-0.6,0.8-8.1,4-10.6,5.5C262.1,308.1,267.1,303,259.1,306.6z"/>
        <path id="element-44" class="st0" d="M270.1,311.2c0,0,13.6-2.8,15.1-11.9c0,0,14.4,3.4,20.4-3c0,0,12.9-1.1,18.3-7.2c0,0,12.7-3.4,17-12.5
				c0,0,10.2-0.8,12.9-12.1c2.8-11.3,3.8-4.7,7.2-15.5c0,0,17,1.5,19.3-10.8c0,0,30.8-1.7,34.6-18.7c0,0,10-1.7,9.6-11.9
				c0,0,11.9-1.3,13.4-9.8c0,0,13.8-6.2,4.2-20c0,0-5.9,9.3-9.6,8.7s-4.7,1.5-5.7,3c-1.1,1.5-6.8,2.8-12.7-0.6c0,0-1.1,5.5-5.3,6.2
				c-4.2,0.6-6.1,2.1-8.3,5.3c-2.2,3.2-3.3,6-8.5,5.1s-7.6-1.9-10.2,3.6c-2.6,5.5-4.6,8.8-8.7,8.9s-3.2-1.1-7.4,4.5
				c-4.2,5.5-5.7,5.9-6.4,9.6c-0.6,3.6-1.3,5.9-3.4,8.3c-2.1,2.3-4,3.6-7.2,4.7s-6.8,4.9-7.4,5.1c-0.6,0.2-2.8,1.9-3.8,3.6
				c-1.1,1.7-3.8,4.9-6.4,5.5c-2.5,0.6-4,0.2-4,0.2s-2.1,4.2-3.4,5.9s-7.2,3-7.2,3s-4.5,6.8-16.8,8.9c0,0-4,5.9-6.6,6.2
				c-2.5,0.2-7.2,7-7.2,7l-5.1,4c0,0-2.3,0-3.6,2.5c-1.3,2.5-1.5,4.9-5.3,6.8c-3.8,1.9-7.2,2.8-7.2,2.8S266.7,309.5,270.1,311.2z"/>
        <path id="element-45" class="st0" d="M97.7,253c0,0-1.3-5.5-0.5-9.3c0.7-3.8,2-4.4,3.5-5.8c1.5-1.5,0.4-8.6,2.7-10.9s2.9-2.2,2.6-7.1
				c-0.4-4.9,0.2-8.7,0.2-8.7l-0.2-8.7c0,0-8.7-6.4-11.1-27.7s4.4-34.1,13.3-44.5c0,0-10.4-15.5,14-30.8c0,0-9.3-24.8,14.2-50.7
				c0,0-21-46.3,9.7-50.5c0,0,51.6-2.7,55.2-1.6s5.8-1.8,5.8-1.8s-6.7,8-16.4,14.6c-9.7,6.6-13.9,17.9-5.8,29.2s6,32.1-7.3,49.6
				c0,0,3.1,16-9.3,20.2c0,0,2.2,2.4-2,7.3c0,0,4.4,13.9-8.9,21.9c0,0,2,12.6-10.2,14.8c0,0,6.4,10.8-1.5,17.1
				c0,0,3.1,13.5-9.7,19.1c0,0,0,12.8-12.8,14.8c0,0-1.5,4.7-5.6,6c0,0,4.9,17.1-5.5,24.8c0,0-1.8,6-5.3,7.3c0,0-0.9,9.8-3.5,11.1
				s-3.8-0.4-4-1.6S98.4,249.7,97.7,253z"/>
        <path id="element-46" class="st0" d="M426.1,298.5c0,0-5.2-7.6-8.2-7.8c-3-0.3,5.6-4.6,5.6-4.6S425.5,292.1,426.1,298.5z"/>
        <polygon id="element-47" class="st0" points="194.4,347.5 198.2,294.7 218.8,296.2 218.6,347.9 			"/>
        <polygon id="element-48" class="st0" points="95,298.3 95,321.9 107.3,321.9 108.4,298.1 			"/>
        <polygon id="element-49" class="st0" points="128.3,298.7 128.3,321.6 140,321.6 141.7,299.8 			"/>
        <polygon id="element-50" class="st0" points="159.3,298.5 160.8,321.6 172.5,321.9 172.7,312.3 171.4,304.7 165,298.7 			"/>
        <polygon id="element-51" class="st0" points="160.4,248 160.4,266.5 174.2,265.8 173.8,246.1 			"/>
        <polygon id="element-52" class="st0" points="128.3,266.7 140.2,266.5 140,246.5 128.5,246.1 			"/>
        <polygon id="element-53" class="st0" points="47.2,287.5 47.7,311.7 59.3,314.6 59.3,289.8 			"/>
        <polygon id="element-54" class="st0" points="48.3,261.6 60,263.9 61.2,240.6 49.8,238.2 			"/>
        <polygon id="element-55" class="st0" points="316.6,299.6 316.8,319.9 327.9,319.5 327,299.4 			"/>
        <polygon id="element-56" class="st0" points="227.7,249.3 227.9,269 240.4,268.4 240.4,249.3 			"/>
        <polygon id="element-57" class="st0" points="27.9,225.7 35.6,226.1 63.6,181.6 69.1,181.6 84.4,236.1 333.6,236.1 348,170.1 78,170.1
				76.7,161.6 68.9,159.5 61.2,161.6 60,177.9 35.1,214 			"/>
      </g>
      <g id="outline">
        <path id="element-58" class="st1" d="M676,537.3c0,0,1.9,5.3,1.2,10.2c-0.7,4.8-2.7,9.2,1,9.7c3.6,0.5,6.3-1.7,10.9,0.5
				c4.6,2.2,11.6,1.9,12.3,0.2c0.7-1.7-3.6-4.6-6.8-4.8s-7.7-4.8-9.7-6.3s-0.5-11.8-0.5-11.8"/>
        <path id="element-59" class="st1" d="M656.6,538.5c0,0,1.2,9.9,0.2,13.3c-1,3.4-3.1,8-0.2,9.2c2.9,1.2,6.8-0.5,11.1,0.5s9.2,2.9,11.1,1.2
				s-2.4-4.8-5.6-5.3s-6.3-5.6-9.2-6.5c-2.9-1,1.5-12.3,1.5-12.3"/>
        <path id="element-60" class="st1" d="M647.5,539c0,0,32.2,0.2,45-6s13.1-3.9,13.3-19.3c0.2-15.5-2.9-44.2-2.7-57.5c0.2-13.3-5.1-52-5.1-52"/>
        <path id="element-61" class="st1" d="M643.6,452.9c0,0-1.5-26.1,9.9-48.3"/>
        <path id="element-62" class="st1" d="M655.7,453.6c0,0-3.9-4.1-1.5-18.4s3.6-25.9,3.6-25.9"/>
        <path id="element-63" class="st1" d="M677.9,432.9c0,0,0.2-11.8-0.7-19.3"/>
        <path id="element-64" class="st1" d="M679.1,396.6c0,0,15.2,3.6,19.3,3.4c4.1-0.2,6-3.4,12.1-3.4c6,0,8,2.2,8,2.2"/>
        <path id="element-65" class="st1" d="M724.3,399.7c0,0,1.5-3.9,0-5.6c-1.5-1.7-1.2-3.9-4.6-4.6c-3.4-0.7-6-1.2-9.4-1c-3.4,0.2-8.5,3.6-12.1,3.6
				c-3.6,0-15.2-4.6-15.2-4.6s-3.9,1.7-5.8,6c-1.9,4.4-1.9,9.4-1.2,10.6c0.7,1.2-4.6,1.9-6.5,2.7c-1.9,0.7-6.3-4.8-10.2-4.6
				c-3.9,0.2-7,1-9.2-4.6s-1.7-22.2,1.9-32.2c3.6-9.9,4.4-11.8,4.4-11.8"/>
        <path id="element-66" class="st1" d="M716.6,392.7c0,0,3.6,1.2,4.4,1.5c0.7,0.2,0.5,5.8,0.5,5.8"/>
        <path id="element-67" class="st1" d="M697.3,388.1c0,0-1.5-1.9,0.7-8.9s3.9-10.9,2.4-17.4"/>
        <path id="element-68" class="st1" d="M701.6,368.1c0,0,1.9-5.3,10.4-8.5s11.8-3.4,14-7.3s3.1-6.3,1.2-8.9s-5.3-3.4-9.4-2.2
				c-4.1,1.2-13.8,4.4-18.4,3.6c-4.6-0.7-8,0.2-10.4,1c-2.4,0.7-5.3,1.2-6,1.7s-3.1,3.6-3.6,4.8c-0.5,1.2-1,6.5,0.7,6.5"/>
        <path id="element-69" class="st1" d="M726,352.4c0,0-6,2.7-13.5,1.7c-7.5-1-9.4-2.2-13.3-1.5c-3.9,0.7-5.3,2.4-8,3.4c-2.7,1-4.1-0.5-4.1-0.5"/>
        <path id="element-70" class="st1" d="M682.8,352.1c0,0-2.2,2.2-0.5,3.9"/>
        <path id="element-71" class="st1" d="M684.2,353.8c0,0-1,4.4,1.9,3.9"/>
        <path id="element-72" class="st1" d="M681.8,385c0,0-1.5-4.8-5.3-7.3c-3.9-2.4-6.8-7.3-6.8-8.5"/>
        <path id="element-73" class="st1" d="M661.5,396.4c0,0-6.3,3.4-7.7-4.6"/>
        <path id="element-74" class="st1" d="M674.1,364.4c0,0-6.3-0.5-4.6-6.5"/>
        <path id="element-75" class="st1" d="M706.4,344.6c0,0,5.6-6.3,3.4-16.4s-10.6-15-15.7-15.2c-5.1-0.2-13.3,5.3-16,16.2
				c-2.7,10.9-12.8,12.8-19.3,19.3s-0.7,6.3,1.5,6c2.2-0.2,6.8-7.3,11.1-6.5s9.4-1.5,10.4-2.9c1-1.5,2.2-12.1,6.5-12.3
				c4.4-0.2,6.3-0.7,7.3-1.5"/>
        <path id="element-76" class="st1" d="M699.7,325.8c0,0-1.9,5.1-0.7,6.3c1.2,1.2,2.9,1.7,2.9,1.7"/>
        <path id="element-77" class="st1" d="M703.3,327.7c0,0-0.7,4.4,1.2,6.5s3.4,1.9,3.4,1.9"/>
        <path id="element-78" class="st1" d="M691.8,337.5c0,0,1.1,1.6,3.4,1.7"/>
        <path id="element-79" class="st1" d="M700.8,340.5c0,0,1.8,0.9,3.2,0.9"/>
        <path id="element-80" class="st1" d="M647,277.5c0,0-2.7-5.5-2.7-7.7c0-2.2,0.5-7.5,1.3-11.1c0.8-3.6-3.8-8.6-4.2-9.9c-0.5-1.3-4.7-4.1-6.4-5.5
				s-2.4,1.9-2,2.4"/>
        <path id="element-81" class="st1" d="M643.9,289.7c0,0-5.2-13.9-6.1-15.4s-3.6-6.1-2.8-8s-1.7-7.5-2.7-8.3c-0.9-0.8-2.7-1.7-2.7-1.7s-2-2.4-0.5-3
				"/>
        <path id="element-82" class="st1" d="M638.2,263.1c0,0-1.7-6.6-4.5-8.9c-2.8-2.4-2.8-2.4-2.8-2.4"/>
        <path id="element-83" class="st1" d="M641,259.1c0,0-2.8-6.1-4.1-8c-1.3-1.9-6-3.4-6-3.4"/>
        <path id="element-84" class="st1" d="M634.1,241.6c0,0,2.4-3.4,1.9-9.7s-0.5-6.3-0.5-6.3"/>
        <path id="element-85" class="st1" d="M635.5,239.2c0,0,5.2-2.8,9.2-4.4"/>
        <path id="element-86" class="st1" d="M662.5,274.8c0,0-2.7,2.5-4.2,1.6c-1.6-0.9-4.9-3.6-6.3-2.7c-1.4,0.9-4.1-0.9-6.1,7.5
				c-2,8.5-5.3,16.6-5.2,27.9c0.2,11.3-3.3,37-1.3,46.1c2,9.1-6,34.6-6,34.6"/>
        <path id="element-87" class="st1" d="M639.1,357.3c0,0,9.7-6.9,12.5-7.5c2.8-0.6,5.3,0.2,5.3,0.2"/>
        <path id="element-88" class="st1" d="M667.4,341.6c0,0,2.2-30.4,0-44.2c-2.2-13.8-1.9-23.7-6.7-33.4c-4.9-9.7-14.1-19.9-14.6-25.9
				s-1.6-21.9-1.3-25.4"/>
        <path id="element-89" class="st1" d="M646,181.4c0,0,11.4,0,17.7,3.9s8,10.2,6.6,26.2c-1.4,16,1.9,31.7,6,46.1c4.1,14.4,11.8,39.5,11.9,57.4"/>
        <path id="element-90" class="st1" d="M658.3,276.4c0,0,6.6,10.5,2.7,33.7"/>
        <path id="element-91" class="st1" d="M650.9,274.3c0,0,5.3,10.2,2.8,22.4"/>
        <path id="element-92" class="st1" d="M643.7,334.7c0,0-2.5,13,1.6,11.1"/>
        <path id="element-93" class="st1" d="M643.1,182.5c0,0,5.3,2.8,4.9,10.5c-0.5,7.7-0.5,20.7-7.5,28.5c-7.1,7.8-10.2,5.2-12.2,5.2
				c-2,0-3.8-1.1-3.9-3c-0.2-1.9,0-6.1,0-6.1s2.7,0.6,3.9-0.8c1.3-1.4-1.3-4.1-2.5-4.4c-1.3-0.3,0.2-4.2,0.3-4.7s-0.9-2-1.4-3.1
				c-0.5-1.1,2.7-3,5-4.2c2.4-1.3,2.7-2.8,2.4-3.8C631.6,195.7,629.9,188.1,643.1,182.5z"/>
        <path id="element-94" class="st1" d="M633.4,189.5c0,0,8.5,2.7,12.7,12.9"/>
        <path id="element-95" class="st1" d="M634.6,195.5c0,0,1.4-0.5,2.4,0.8"/>
        <path id="element-96" class="st1" d="M651.2,220.1c0,0-1.6,21.5,8.9,32.6"/>
        <path id="element-97" class="st1" d="M556.9,230.1c0,0-3.9,5.3-1.4,6.9c2.5,1.6,5.2-5.5,5.2-5.5"/>
        <path id="element-98" class="st1" d="M564.5,233c0,0-4.2,5.5-1.9,6.1s5.8-4.1,5.8-4.1C567.8,232.8,564.5,233,564.5,233c-1.6-3.3-3.9-1.4-3.9-1.4
				c-1.3-2.7-3.8-1.4-3.8-1.4c-0.6-1.7-3.3-0.9-5.3,3.8c-2,4.7-3.4,17.4-3.4,17.4"/>
        <path id="element-99" class="st1" d="M573.3,222.6c0,0-5.8-7.5-7.1-9.7c-1.3-2.2-1.3-4.7,0.8-6.4c2-1.7,3.1-0.8,3.1-0.8l-1.3-2.8l1.7-2.8
				c0,0-1.1-3-1.9-3.9s0.5-1.7,3.9-3.3c3.4-1.6,6-3,6-4.1c0-1.1,3.4-11.6,13.5-10.7c0,0,0.5,7.8-6.4,17.4s-11.3,18.2-9.7,35.6
				c1.6,17.4,5.5,36.2,4.4,53.4c-1.1,17.2,3.9,32.1,0.3,50.5s1.4,20.8,6.6,25.9c5.2,5-3,6.6-4.9,12.5c-1.9,6,9.9,21.5,6.7,32.1
				c-3.1,10.7,7.4,4.1,13.2,19.4c5.8,15.4,5.6,23.2,9.1,15.7s7.5-19.3,12.2-25.7c4.7-6.4,10.7-18.3,9.9-37.9
				c-0.8-19.6-1.7-29.5-0.2-44c1.6-14.6,1.9-26.3-2-42.2c-3.9-15.8-5.2-19.4-8.8-36c-3.6-16.6-10.2-34.3-10.2-34.3"/>
        <path id="element-100" class="st1" d="M581.3,182.5c0,0,5.2,3.1,5.8,8.3"/>
        <path id="element-101" class="st1" d="M594.6,177.2c0,0,17.4,1.6,23,14.9c5.6,13.3-8.3,29.9-10.2,36.4c-1.9,6.4-0.5,15.2-0.2,15.8"/>
        <path id="element-102" class="st1" d="M602,407.9c0,0,3.1,3.9,4.5,11.8c1.4,7.8,1.9,7.5,10-6.3"/>
        <path id="element-103" class="st1" d="M599.2,339.2c0,0-0.5-9.1,2.2-20.2s-6.3-20.7-7.7-44.5c-1.4-23.8-1.3-36.2-1.3-36.2"/>
        <path id="element-104" class="st1" d="M626.5,337.7c0,0-3.9-19.3-2.7-29.5c1.3-10.2-3.8-25.9-3.8-25.9"/>
        <path id="element-105" class="st1" d="M575,228.1l-15.5,20.5c0,0,15,6,20.1,17.1"/>
        <path id="element-106" class="st1" d="M559.5,248.6c0,0-7.2-3.4-14.1,4.7c-6.9,8.2-14.3,28.1-9.1,47.5"/>
        <path id="element-107" class="st1" d="M554.7,264.3c0,0-5.6,11.3,0.2,23.5"/>
        <path id="element-108" class="st1" d="M631.8,397.4c0,0,4.7,33.1,8.5,53.1c3.8,20.1,7.8,42.2,8.3,61.3c0.5,19.1-0.9,47-2.4,49.5
				c-1.4,2.5-1.7,4.7-4.5,8.6c-2.8,3.9-3.3,2.2-8,3.6c-4.7,1.4-14.1,4.1-18.7,5.5c-4.5,1.4-9.7-0.8-19.4,1.1
				c-9.7,1.9-11.3,0.3-14.6,0.8s-6.1-0.6-9.9-2c-3.8-1.4-8-6.7-13.3-6.3c-5.3,0.5-15.2-6.4-17.4-7.7c-2.2-1.3-9.6-4.4-12.1-5.6
				c-2.5-1.3-5.8-2-4.9-8.2c0.9-6.1-0.8-35.3,5-67.9s8.9-54.9,10.3-66c1.4-11.1,8.8-57.4,8.8-57.4"/>
        <path id="element-109" class="st1" d="M540.1,361c0,0-10.3,28.5-17,52.7c-6.7,24.2-15.1,60.5-17.5,79.8s-3.1,35.3,3.2,44.2
				c6.3,8.9,9,21.1,10.8,21.5c0,0,1,4.6-1.4,8.5s-9.3,4.6-11.1,2.6c-1.9-2-3.2-2.6-3.2-2.6"/>
        <path id="element-110" class="st1" d="M498,426c0,0,1.4-22.9,5.8-29.6c4.5-6.6,5.6-4.9,5.6-4.9s4,0.6,8.6,0.8c4.6,0.2,6.2-0.3,6.7,0.3"/>
        <path id="element-111" class="st1" d="M508.4,391.4c0-0.3-4.2-3-5.3-6c-1-3.1,1.3-6.3,3.3-16.1c2.1-9.8,8.2-22.3,12.9-26.5"/>
        <path id="element-112" class="st1" d="M533.2,340.1c0,0,4.1,0.6,7,3.3c0,0-6.6,1.1-6.8,6.5c-0.2,5.4,1.5,8.7-1.3,12.6c-2.7,3.9-4.6,7.4-4.6,7.4
				s6.2-5,8.6-8.4c2.4-3.4,0.7-2.5,9-4.8c8.3-2.3,13.7-6.5,15.5-7.9c1.8-1.4,7.9-18.9,10.4-23.4s3.3-2.2,5-6
				c1.7-3.9,5.6-8.4,5.5-9.7c-0.1-1.3-1.5-2.1-3.7,0.3"/>
        <path id="element-113" class="st1" d="M540.1,343.4c0,0,3.9,0,6,0.8c2.2,0.8,7.3-2.4,8.1-3c0.8-0.6,5.4-9.4,9.4-15.2c4-5.8,4.2-6.6,3.8-7.9
				c-0.5-1.3-2.9-3.8-0.9-6.6s3.1-5.8,4-5.4"/>
        <path id="element-114" class="st1" d="M569.9,310.8c0,0,3-8.3,4.9-10.5"/>
        <path id="element-115" class="st1" d="M573.6,309.4c0,0,2.3-6.4,4.5-8.8"/>
        <path id="element-116" class="st1" d="M575.9,310.5c0,0,2.6-4.7,4.5-6.3"/>
        <path id="element-117" class="st1" d="M524.8,326.3c0,0-3.2,0.5-4.2,2.9c-1,2.4-3.3,4.2-2.6,6.5s0.3,3.2,2.1,4.7c1.7,1.5,1.4,2.7,1.9,2.6"/>
        <path id="element-118" class="st1" d="M524.7,341.3c0.6,0,1.1,0.1,2.9,1.4c1.7,1.3,2.5,1.4,3,0c0.5-1.4,0.9-4,3.4-5.8c2.5-1.8,1.3-3,0.7-4.5
				s0.2-3.3-0.8-4.5"/>
        <path id="element-119" class="st1" d="M530.8,327c0,0,1.4-1.4,0-2.7c-1.4-1.4-3.3-1.9-2.5-3.5"/>
        <path id="element-120" class="st1" d="M528.9,317.7c0.2-0.5-0.3-3,1.9-4.5s2.3-0.1,4.9-2.2c2.6-2.1,5-2.5,6.6-2.2s3,1.3,4.3,0.5s2.5,0.1,3.7-1.3
				c1.1-1.4,0.1-3.7-1.6-4c-1.7-0.3-4-2.2-6.7-1.7c-2.7,0.5-3.9-1-6.8,0.1s-5.1,0.9-7.3,2.4s-3.2,2.5-4.6,4.5s-1.8,0.5-2.4,2.7
				c-0.6,2.3-2.2,3.1-1.8,5.6c0.3,2.5,1.5,5.5,2.3,6.2s1.4,1.6,2.4,1.6"/>
        <path id="element-121" class="st1" d="M544.6,341.4c0,0-1.3-3.2,0.1-5.6"/>
        <path id="element-122" class="st1" d="M536.5,334.4c0,0,2.4-1.5,4.5-0.5s6.5,1.4,8.9,0.9s3.1-2.9,4.1-5.5c1-2.6,0.6-7,0.1-9.1s-0.8-2.9-0.8-4.6
				s-0.5-5.1-2.7-6.6"/>
        <path id="element-123" class="st1" d="M547.3,327.3c0,0-1.7,4.5,1.4,3.3C551.8,329.5,550.6,326.4,547.3,327.3z"/>
        <path id="element-124" class="st1" d="M546.4,321.3c0,0,1.5-0.5,1.9,0.2"/>
        <path id="element-125" class="st1" d="M539.8,318.9c0,0-1.6,0.6-2.7,2.1"/>
        <path id="element-126" class="st1" d="M550.4,313.9c0,0-2.7,0.8-2.7,1.9"/>
        <path id="element-127" class="st1" d="M507.8,420.2c0,0,0.1-15,5.5-21.5"/>
        <path id="element-128" class="st1" d="M421.5,322.3c0,0-5.5,0-8.8-0.2c-3.3-0.3-4.4-2.7-2.9-5.8c1.4-3.2,2.9-2.5,3.6-1.9"/>
        <path id="element-129" class="st1" d="M410.2,313.8c0,0-0.4-2.9,0.9-4.9c1.3-2,0.9-1.9-0.2-2.8c-1.1-0.9-1.4-2.2,1.6-4.3s4.3-4,4.3-4.9
				c0-0.9-1-7.4,7.5-11.1c0,0,4.3,16.6,0.4,30.3s-9,13-17.2,25c-8.2,12.1-13.9,29.7-13.9,29.7s1.3,2.2,1.7,9.1s-1.5,10.4,2.8,17.1
				s4.3,11.3,2.8,23s-4.5,36,2.4,45c6.9,8.9,14.3,17.5,15,25.1c0.7,7.6,3.2,10.6,15.6,18.9c12.4,8.4,14.1,16.5,17.8,19.5
				c3.7,3,8.2-5.8,13.7-14.7c5.6-8.9,9.1-4.6,7.4-13.6c-1.7-8.9,3.2-13.7,12.1-18c8.9-4.3,16.5-9.7,17.5-17.3s0.2-25.8-1.9-31
				s-4.3-10.2-6.3-27.7c-2-17.5-2.1-15.9-9.9-30.4c-7.8-14.5,1.7-22.6-16-38.6c-10.6-9.6-13-25.1-13.2-32.5s-1.7-15.2-8.3-20.3
				s-13.2-3.8-19.6-1.1"/>
        <path id="element-130" class="st1" d="M418,290.7c0,0,4.8,1.3,6.3,6.3"/>
        <path id="element-131" class="st1" d="M448.1,318.5c0,0,0.4,14.8,11,24.1"/>
        <path id="element-132" class="st1" d="M466.3,499.8c0,0-1.9-11.5,10.4-23.6"/>
        <path id="element-133" class="st1" d="M408.9,431.3c0,0-4.6,19.3,7.2,28.8c11.9,9.5,15.2,27.5,15,30.1"/>
        <path id="element-134" class="st1" d="M393.4,370.9c0,0-6.5,8.4-16.3,14.3s-16.7,11.3-19.3,16.9c-2.6,5.6-2.2,9.3,0,18.2
				c2.2,8.9,2.2,13.4,6.9,20.6c4.6,7.2,0.7,9.1,4.8,9.3c4.1,0.2,7.4-20.2,11.9-24.5c4.5-4.3,10.4-7.4,12.3-9.8
				c1.9-2.4,7.4-9.3,7.4-9.3"/>
        <path id="element-135" class="st1" d="M356.1,407.3c0,0-5.4,5.2-7.6,8.2c-2.2,3-2.6,4.5-1.1,5.2c1.5,0.7-1.1,2.6,1.1,4.1c2.2,1.5-0.6,4.6,1.7,4.8
				c2.2,0.2,0-0.2,2.2,0.2c2.2,0.4,7.4-4.1,7.4-4.1"/>
        <path id="element-136" class="st1" d="M355.9,430.3c0,0-2.4,26-4.1,39s-5.8,22.3-4.6,25.5c1.1,3.2,9.3-1.5,14.7,2.8c5.4,4.3,11,4.6,17.3,2.2
				s7.1-1.9,10.6-1.3c3.5,0.6,9.1-1.3,9.1-1.3"/>
        <path id="element-137" class="st1" d="M407.2,474.4c0,0-7.1,28.2-13.6,38.5c-6.5,10.2-10,36-6.7,42.9c3.3,6.9,8.2,10.4,20.8,13.4
				s32.1,2.2,38.3,9.3c6.1,7.1,5.2,2.2,5.6,1.1c0.4-1.1,2-13,6.7-16.5"/>
        <path id="element-138" class="st1" d="M490.4,483.6c0,0,3.3,3.9,1.9,11.7c-1.5,7.8-2.6,5.8-6.1,9.5"/>
        <path id="element-139" class="st1" d="M492.3,497.9c0,0,2.4,7.4-0.2,12.4c-2.6,5-1.7,2.2-5.6,7.4"/>
        <path id="element-140" class="st1" d="M492.1,510.4c0,0,2.8,6.5,2.2,10.8c-0.6,4.3-1.7,5.9-7.2,7.2c-5.6,1.3-9.1-1.9-14.7,1.1
				c-5.6,3-10.4,9.5-13.4,9.5"/>
        <path id="element-141" class="st1" d="M403.5,542.2c0,0,10.2-9.7,24.5-7.6c14.3,2,15.4,6.9,18.9,6.7"/>
        <path id="element-142" class="st1" d="M407,527.9c0,0,9.8,0.4,16.3,5.6"/>
        <path id="element-143" class="st1" d="M494.3,524.9c0,0,10.8,8.2,16,16"/>
        <path id="element-144" class="st1" d="M477.8,557c0,0-3-6.3-8.7-3.5c-5.8,2.8-5.2,4.8-5.9,11.7c-0.7,6.9,4.6,9.5,3.3,16.7c-1.3,7.2,2,8.2,4.3,8.2
				c1.4,0,5.2-1,8-1.7c1.6-0.4,3.9-3.1,2.8-6.1c-1.1-2.9-3.8-4.9-3-8.9C479.8,566.9,480.6,559.4,477.8,557z"/>
        <path id="element-145" class="st1" d="M493,581c0,0,0.2-9.8-2.6-15c-2.8-5.2-3.5-12.8,1.3-16.9c4.8-4.1,10.8,1.5,10.4,7.2
				c-0.4,5.8,0.6,10.4,3.5,13.2c3,2.8,4.3,11.1,0.9,13c-3.3,1.9-11.3,3.9-12.3,2.8C493.4,584.1,492.3,582.8,493,581z"/>
        <path id="element-146" class="st1" d="M491.4,569.8c0,0-4.3-1.7-5.9,0.6c-1.7,2.2-5.8,0-5.8,0"/>
        <path id="element-147" class="st1" d="M454.8,579.3c0,0,1.3,2.6,4.6,0.4c3.3-2.2,5.8-2.6,5.8-2.6"/>
        <path id="element-148" class="st1" d="M491.7,549c-1.7,0.9-3.9,5.4-7.2,9.7c-3.3,4.3-5.6-5.2-5.6-5.2s-0.4-3.9-9.8,0"/>
        <path id="element-149" class="st1" d="M503.1,553.5c0,0,0.4,11.9,8.2,10.4"/>
        <path id="element-150" class="st1" d="M500.6,543.5c0,0-7.4-4.5-11.1-0.6"/>
        <path id="element-151" class="st1" d="M459,554.1c0,0,10.6-10.4,18.6-6.5"/>
        <path id="element-152" class="st1" d="M482.6,550c0,0,3.3,1.9,3-3"/>
        <path id="element-153" class="st1" d="M360,497.4c0,0-1.1,15.4,0.6,26.9c1.7,11.5,1.5,17.5,0.9,20.4c-0.6,3-1.5,4.8,0,5"/>
        <path id="element-154" class="st1" d="M372.1,502.4c0,0,1.9,12.3-0.9,22.9s-2,21.7-1.9,24.2c0.2,2.4,1.5,8.9-0.7,10.4c-2.2,1.5-6.9,0.9-8.5-1.3
				c-1.7-2.2-4.8-6.5-6.5-9.8c-1.7-3.3,2.2-5.2,6.1-4.8"/>
        <path id="element-155" class="st1" d="M382.1,499.4c0,0-0.9,20.1,1.1,26.9c2,6.9,0,16.3,0.2,19.1"/>
        <path id="element-156" class="st1" d="M385.5,552.9c0,0-1.5,3.9-3.5,1.1c-2-2.8-3-8.5-4.8-11c-1.9-2.4,1.3-5,6.7-3"/>
        <path id="element-157" class="st1" d="M352.6,407.3c0,0-2.6-10.6,1.5-18c4.1-7.4,5.8-7.4,5.8-7.4"/>
        <path id="element-158" class="st1" d="M382.3,375.9l0.7-5.4c0,0,4.1-1.7,5.4-4.1c1.3-2.4-0.2-2.8-0.9-4.8s-0.7-3.9-0.7-3.9s-0.9-3.3-1.9-4.1
				c-0.9-0.7-0.7-4.5-4.5-6.9"/>
        <path id="element-159" class="st1" d="M376.7,375c0,0-0.7-4.1,1.3-6.3c2-2.2,3.5-2.4,2.8-5.9c-0.7-3.5-0.7-6.1-3.5-5.9c-2.8,0.2,0-4.3-0.2-5.9
				c-0.2-1.7,3.3-4.1,0.7-6.3c-2.6-2.2-6.5-5.6-8.9-2.6c-2.4,3-5.4,0-6.5,3.7c-1.1,3.7-6.1,0.2-7.6,3.7c-1.5,3.5-7.6,4.6-5.9,8.9
				c1.7,4.3-3.2,4.6-0.6,8.4c2.6,3.7-2,6.7,0.7,9.3c2.8,2.6-0.2,6.3,1.7,7.4c1.9,1.1,5,0.9,5.8,0.6"/>
        <path id="element-160" class="st1" d="M362.2,381.3c0.6,0.2,2.8,3.9,5.6,1.3"/>
        <path id="element-161" class="st1" d="M364.3,378.3c0,0,4.5,4.3,6.5,1.3c2-3,6.1,0.9,3.7-5"/>
        <path id="element-162" class="st1" d="M357.8,366.2c0,0-3,3.7-0.4,5.6"/>
        <path id="element-163" class="st1" d="M368.4,369.2c0,0,6.9-0.9,6.1-4.5"/>
        <path id="element-164" class="st1" d="M365.2,350.8c0,0-3.7-0.6-3.3,1.9c0,0-4.5,1.9-1.7,4.5"/>
        <path id="element-165" class="st1" d="M28.6,231.5l-0.4,100.7c0,0,3.3,2.6,9.3,4.8s45,10.4,45,10.4s-1.9-0.6,11,0.6c12.8,1.1,82.1-1.5,103.1-0.7
				s33.4,0.6,68.6,0.6s78.4-7.8,78.4-7.8v-62.6"/>
        <path id="element-166" class="st1" d="M29.1,224.1c0,0,29-40.9,30.8-46.3c1.9-5.4,1.5-16.2,1.5-16.2l8.9,1.5l7.1-1.3l1.3,15.6"/>
        <path id="element-167" class="st1" d="M145.4,235.6h48.5c0,0-5.4-2.2-8.2-15.2c-2.8-13-3.9-24.2,3.2-33.4c7.1-9.3,4.6-12.3,13.7-18.6
				c0,0-3.9-10.2,0.9-16.5c0,0,1.7-8.2,5.4-9.1c0,0,2.8-4.3,7.1-5.2c0,0,3.5-2.4-1.3-7.2c-4.8-4.8-8.7-23.8-3-36.2
				s-2.2-25.6,19.7-44.2c0,0,8.4-8.2,15.2-10.6c6.9-2.4,5.8-12.3,18.2-13.6c0,0-3.3-18.9,5.6-19.7"/>
        <path id="element-168" class="st1" d="M195.4,344.3c0,0,1.9-42.9,2-45s0.7-3.9,0.7-3.9L219,296l-0.4,12.4"/>
        <path id="element-169" class="st1" d="M217.5,341.9c0,0,0.9-24.5,0.9-25.1"/>
        <path id="element-170" class="st1" d="M208.2,324.1c0,0,0.7-13.9,19.1-19.1"/>
        <path id="element-171" class="st1" d="M175,310.9c0,0,16.9-12.3,20.4-20.1c3.5-7.8,6.3-7.8,8.9-14.1s3.5-10,3.3-11"/>
        <path id="element-172" class="st1" d="M165.9,308.3c0,0,8.5-5.8,13.4-11.5c4.8-5.8,6.3-4.5,6.3-10.4s6.7-10.2,7.4-13.9c0.7-3.7,11.3-9.1,11.3-15.4
				"/>
        <path id="element-173" class="st1" d="M181.7,277.4c0,0,5.6-2.4,5.9-6.5c0.4-4.1-2.4-5.2,2.2-9.3c4.6-4.1,1.7-6.3,0.9-10c-0.7-3.7-1.7-9.7,7.1-15"/>
        <path id="element-174" class="st1" d="M207.1,256.4c0,0,9.5-3,9.8-13c0,0,12.3-3.5,15-12.4s5.4-5.9,7.6-17.8s4.6-8,4.3-16.3
				c-0.4-8.4,2.6-9.1,2.6-9.1"/>
        <path id="element-175" class="st1" d="M225.7,289.5c0,0,6.3-7.4,12.3-9.3c5.9-1.9,4.3-7.6,10.4-12.3s8-11.7,13.4-14.9c5.4-3.2,4.6-11.1,9.5-12.3
				c4.8-1.1,7.2-6.5,6.5-11.1c-0.7-4.6,5.9-3.5,6.1-11c0.2-7.4,4.6-3.5,3.5-9.1s-2.6-6.5-0.2-9.5s-1.1-10.4,5.6-13.2
				c6.7-2.8,11.3-6.7,10-12.6c-1.3-5.9-2.4-10.8,3.3-12.8c5.8-2,9.1,0,10.6-5.6c1.5-5.6,7.6,2.6,10.8-5.8s12.6-5.2,14.1-13
				c1.5-7.8,7.2-20.1,15-20.8c7.8-0.7,5.8-4.5,12.8-5.4c7.1-0.9,7.1-13.4,13.6-16.5"/>
        <path id="element-176" class="st1" d="M234.2,301.6c0,0,5.4-1.1,7.8-5.6c2.4-4.5,3-3.2,7.4-4.5c4.5-1.3,7.8-3.3,9.1-7.6c1.3-4.3,8.4-3.2,10.8-11
				c2.4-7.8,7.2-5,8.5-11.5c1.3-6.5,5.2-13.9,7.4-15.6"/>
        <path id="element-177" class="st1" d="M238.7,316.3c0,0,13.7-4.3,16.7-14.1c0,0,11.1-1.5,14.3-7.1s20.4-10.2,22.1-21.2c0,0,7.1-1.5,8-6.3
				c0,0,14.1-4.8,16.7-14.1c0,0,6.5-3.7,6.9-10.2c0,0,5.2-6.3,4.3-12.6c0,0,2.2-8.9-2.4-11.9c0,0,8.4-3.9,8.2-11.7
				c-0.2-7.8-1.5-10,2.2-12.4c3.7-2.4,7.2-4.8,5.8-10.6s2-10.6,3.5-11"/>
        <path id="element-178" class="st1" d="M295,244.2c0,0,10.6-8.9,9.5-16c-1.1-7.1,4.8-1.7,7.2-10.4s8.2-3.2,7.2-13.2"/>
        <path id="element-179" class="st1" d="M323.8,202c0,0-7.6-1.9-2-10s6.5-2,8.9-7.6s8.5-5.6,8.5-14.5c0,0,6.1,1.3,7.4-3.5c0,0,8.4,0.7,8.5-6.5
				c0,0,18.9-6.1,21.9-21"/>
        <path id="element-180" class="st1" d="M264.7,306.4c0.7-0.4,11-2.6,12.6-8.5c1.7-5.9,4.5-1.3,10.2-10c5.8-8.7,6.9-1.5,11.7-10.6
				c0,0,16.9-3,18.8-12.3"/>
        <path id="element-181" class="st1" d="M272,310.9c0,0,11-2,13.4-11.9c0,0,15.4,3.3,21-2.8c0,0,15-1.9,17.3-6.5c0,0,13.2-5.6,17.3-12.8
				c0,0,9.5-1.7,12.4-11.9c3-10.2,4.3-5.6,7.4-16.2c0,0,16.9,2.5,19.5-10.3c0,0,31.4-2.1,34.5-19.1c0,0,11.3-2.1,9.8-11.9
				c0,0,11.3-0.5,12.9-9.3c0,0,9.8-8.2,7.2-16.5"/>
        <path id="element-182" class="st1" d="M290.3,153c-2.8,1.5-3,2.4-0.2,6.3c2.8,3.9-2.6,3.3-0.2,11.5c2.4,8.2-0.6,8.4-6.9,18.6s-12.4,6.1-13.6,13.7
				c-1.1,7.6-7.1,7.2-7.6,13.7c-0.6,6.5-2.6,9.1-13,14.9s-3.9,9.7-8.7,10.2s-4.8,6.7-4.8,6.7l5.8,0.2l-0.2,19.7l-12.6,0.4l0.2-20.2"/>
        <path id="element-183" class="st1" d="M351.6,243.4c0,0,6.3-4.1,7.8-10.4c1.5-6.3,4.1-5,9.5-14.9c0,0,7.6,0.6,10.2-3.5c2.6-4.1,2.2-10,7.6-10
				s7.8,3.9,11.5-0.9s3.7-8.4,8.7-8.2s8.9-4.8,7.2-9.1"/>
        <path id="element-184" class="st1" d="M420.4,191.2c0,0,5.9,1.3,8.7-4.1c0,0,8.4-0.4,14.3-10.8c0,0,12.4-6.7,11.9-16.2c0,0,4.6-7.2,1.9-13.4"/>
        <path id="element-185" class="st1" d="M461.4,143.9c0,0,8.2-8.2,7.4-13.2c0,0,3.3-4.3,3.7-9.7c0,0,1.5-10.6-1.3-13.4"/>
        <path id="element-186" class="st1" d="M475.4,109.9c0,0,9.3,0.9,10-5.9c0,0,0.9-6.5,5-5.4s10.6,2.8,12.4-2.4c0,0,12.8-2,15-8.2
				c0,0,10.4-2.4,10.8-8.2c0,0,9.3-1.9,9.5-8c0,0,12.6-5.9,14.1-16.7c0,0,8-7.2,7.2-18c0,0,11.1-2.2,12.1-8.2c0,0,8.7-2.8,8.9-8.5
				c0,0,9.5-5.4,9.3-17.6"/>
        <path id="element-187" class="st1" d="M367.4,126.8c0,0,3.9-13,14.9-12.6"/>
        <path id="element-188" class="st1" d="M303.2,153.1c0,0,4.5-6.9,11.3-6.5s13.4-3.5,12.6-10c-0.7-6.5,6.5-18.4,12.6-18.6c6.1-0.2,7.8-5.2,12.6-5
				c4.8,0.2,6.3-7.1,15.8-12.4c9.5-5.4,5.9-11.9,9.1-15.6c3.2-3.7,8.9-0.9,10.8-6.3c1.9-5.4,5-8.7,12.8-9.8"/>
        <path id="element-189" class="st1" d="M390.3,89.6c0,0,7.4-11.3,15.4-11c0,0,11.3-5.6,15.2-5.8s4.5-8.4,8.2-9.7c3.7-1.3,16.5-5.8,20.4-14.7
				s2.2-13.7,2.2-13.7s5.6-6.1,7.8-15.6c2.2-9.5,6.7,0.6,12.3-8.4"/>
        <path id="element-190" class="st1" d="M420.4,84.2c0,0,15.2,1.5,19.7-20.4"/>
        <path id="element-191" class="st1" d="M408.3,62.9c0,0,12.1-5.4,14.5-14.9s-2-13.2,2.8-14.1s10.2-7.6,6.9-11.7c0,0,8.5-6.9,6.3-17.6"/>
        <path id="element-192" class="st1" d="M460.5,49.1c0,0,16.2-6.7,27.3-38.3"/>
        <path id="element-193" class="st1" d="M164.2,302c0,0,1.5-5.8,5.9-6.3c0,0,0.4-14.3,7.1-16.2"/>
        <path id="element-194" class="st1" d="M139.1,245.7c0,0,3.9-4.3,4.3-7.1c0.4-2.8,3.9-1.9,6.5-9.3c2.6-7.4,2.8-2.2,8-13.7c0,0,8.2-4.1,9.7-15
				c0,0,7.1-11,3.2-20.6c0,0-2.2-29.7,10.6-33.4"/>
        <path id="element-195" class="st1" d="M180.3,146.6c0,0,5.8,2.5,15-10.6"/>
        <path id="element-196" class="st1" d="M196.8,136.2c0,0,4.4,0.5,14-7.4"/>
        <path id="element-197" class="st1" d="M133.7,244.2c0,0,0-3.3,3.9-5.2c3.9-1.9,1.9-8,6.9-13.2c5-5.2,0.9-7.2,7.1-13.2s0.7-7.6,4.6-12.1
				c3.9-4.5-3.7-7.8,2.2-14.3"/>
        <path id="element-198" class="st1" d="M107.9,252.9c0,0,4.5-0.7,5-5.6s3.9-1.1,6.1-6.3c2.2-5.2,5.2-1.1,8.9-8.7c3.7-7.6,8.2-1.5,7.4-12.1
				c0,0,5.6-3.2,4.5-14.7"/>
        <path id="element-199" class="st1" d="M130.9,186c0,0,8.7-11.5,5.2-24.5c-3.5-13-2-26.6,7.8-31.6"/>
        <path id="element-200" class="st1" d="M147.3,167.4c0,0,4.1-3.2,0.9-10.6c-3.2-7.4-0.6-3.7,4.6-7.4s3.9-11.9,3.9-11.9"/>
        <path id="element-201" class="st1" d="M106.4,185.1c0,0-8.4-15,1.9-28.8c10.2-13.7,14.3-23.6,9.8-32.5"/>
        <path id="element-202" class="st1" d="M97.7,248.6c0,0-1.9-9.3,2-10c3.9-0.7-0.4-5.8,4.3-11.1c4.6-5.4-0.6-3.7,2.6-16.7c0,0-3.5-12.4,1.3-17.1"/>
        <path id="element-203" class="st1" d="M103.3,252c0,0,3.7-7.2,3.3-11.1c0,0,4.8-2.6,5-7.2c0,0,10.8-8.5,5.2-25.1"/>
        <path id="element-204" class="st1" d="M101.4,197.2c0,0-11.9-23.4-5.8-42.5s12.8-25.3,12.8-25.3s-10.8-16.9,14.1-30.1c0,0-10.6-20.2,13.9-50.7
				c0,0-14.5-41.4,0.7-46.8"/>
        <path id="element-205" class="st1" d="M160.1,90c0,0,9.5-20.1,3-37.2c-6.5-17.1,6.7-46.3,6.7-46.3"/>
        <path id="element-206" class="st1" d="M177.6,88.5c0,0,19.9-29.5,8.2-47.7s3-30.3,5-31.4"/>
        <path id="element-207" class="st1" d="M327.3,299.2c0,0-8.2,0-10.8,0.2c0,0,0.4,18.6,0.4,20.1c0,1.5,9.7,0.4,10.6,0.4
				C328.4,319.8,327.7,303.8,327.3,299.2z"/>
        <path id="element-208" class="st1" d="M107.9,252.9c0,0,0.7,13.2-0.2,14.9H95.6c0,0-0.2-15.8-0.4-16.7"/>
        <path id="element-209" class="st1" d="M140.4,247.1c0,0,1.9,18.4-0.4,19.7c-2.4,1.4-11.1,0.2-11.1,0.2s-0.2-19.1-0.4-20.1"/>
        <path id="element-210" class="st1" d="M299.6,302.5c0,0,1.9,18.4-0.4,19.7c-2.4,1.4-11.1,0.2-11.1,0.2s-0.2-19.1-0.4-20.1"/>
        <path id="element-211" class="st1" d="M257.6,305.5c0,0,0.2,16.7,0.7,16.7c0.6,0,10.2,0.4,10.8,0.2c0.6-0.2,0.2-16.5,0.2-16.5"/>
        <path id="element-212" class="st1" d="M228.5,307c0,0-0.6,16,0.6,16.2c1.1,0.2,11.9,0.4,11.9,0.4v-7.2"/>
        <path id="element-213" class="st1" d="M173.9,247.5v18.2l-13,0.4V247c0,0,11.5-1.5,12.6-0.9"/>
        <path id="element-214" class="st1" d="M318.4,267.6c0,0,5.2,2.4,8.7-8.2c0,0,7.6,0.7,10.6-7.2c0,0,10.4-4.3,12.4-13.7s5.4-2.8,8.5-18.4
				s5.8-8.9,5-17.5s4.1-11.7,2.2-17.8c-1.9-6.1,9.1-9.3,9.3-16.7"/>
        <path id="element-215" class="st1" d="M226.7,351.4c0,0,20.1,7.2,40.2,17.5s64.4,36,60.3,70.1c-6.2,51.5-66,120.1,66,164.9"/>
        <path id="element-216" class="st1" d="M42.1,603.4c0,0-9.8-68,43.3-113.4s161.3-27.3,150-87.1c-7.8-41.3-38.7-51.5-38.7-51.5"/>
        <path id="element-217" class="st1" d="M49.9,591.1c0,0-7-70.5,52.9-106.7c49.5-30,105.7-26.6,126-52.9"/>
        <path id="element-218" class="st1" d="M375.5,603.7c0,0-75.5-27.9-73.5-76.5c2.1-50.5,25.6-67.5,23.3-103.8"/>
        <line id="element-219" class="st1" x1="626.3" y1="268.5" x2="629.1" y2="257.9"/>
        <line id="element-220" class="st1" x1="82.3" y1="338.6" x2="84.9" y2="236.6"/>
        <line id="element-221" class="st1" x1="70.4" y1="163.2" x2="70.4" y2="176.9"/>
        <line id="element-222" class="st1" x1="69.6" y1="182.3" x2="83.6" y2="232.1"/>
        <line id="element-223" class="st1" x1="83.4" y1="170.4" x2="93.2" y2="170.1"/>
        <line id="element-224" class="st1" x1="291.1" y1="170.4" x2="301" y2="170.1"/>
        <line id="element-225" class="st1" x1="302.4" y1="235.6" x2="326.6" y2="235.6"/>
        <line id="element-226" class="st1" x1="245.6" y1="235.6" x2="275.3" y2="235.6"/>
        <line id="element-227" class="st1" x1="125.2" y1="235.6" x2="138.4" y2="235.6"/>
        <line id="element-228" class="st1" x1="87.5" y1="235.6" x2="101.2" y2="235.6"/>
        <line id="element-229" class="st1" x1="77.3" y1="183.2" x2="90.8" y2="183.2"/>
        <line id="element-230" class="st1" x1="78" y1="197.4" x2="95.3" y2="197.4"/>
        <line id="element-231" class="st1" x1="85.6" y1="210.2" x2="100.8" y2="210.2"/>
        <line id="element-232" class="st1" x1="85.4" y1="222.6" x2="101.6" y2="222.6"/>
        <line id="element-233" class="st1" x1="159.2" y1="222.8" x2="182.6" y2="222.8"/>
        <line id="element-234" class="st1" x1="168.3" y1="209.4" x2="179.4" y2="209.4"/>
        <line id="element-235" class="st1" x1="173.7" y1="195.3" x2="180.5" y2="195.3"/>
        <line id="element-236" class="st1" x1="175" y1="183.2" x2="185.9" y2="183.2"/>
        <line id="element-237" class="st1" x1="173.7" y1="169.7" x2="202.8" y2="169.7"/>
        <line id="element-238" class="st1" x1="264.3" y1="223" x2="277.5" y2="223"/>
        <line id="element-239" class="st1" x1="270.1" y1="210.9" x2="283.5" y2="210.9"/>
        <line id="element-240" class="st1" x1="280.7" y1="197.7" x2="283.1" y2="197.7"/>
        <line id="element-241" class="st1" x1="312.3" y1="223" x2="323.6" y2="223"/>
        <line id="element-242" class="st1" x1="321.6" y1="210" x2="329" y2="210"/>
        <line id="element-243" class="st1" x1="323.8" y1="194.9" x2="330.1" y2="194.9"/>
        <line id="element-244" class="st1" x1="60.7" y1="186.9" x2="37.5" y2="222.5"/>
        <line id="element-245" class="st1" x1="678.7" y1="265" x2="792.1" y2="265"/>
        <line id="element-246" class="st1" x1="353.3" y1="265" x2="538" y2="265"/>
        <line id="element-247" class="st1" x1="28" y1="262.9" x2="-1" y2="262.9"/>
        <polyline id="element-248" class="st1" points="632.9,201.6 634,201.5 633.4,202.9 			"/>
        <polyline id="element-249" class="st1" points="578.2,193.3 579.7,193 579.7,191.9 			"/>
        <polyline id="element-250" class="st1" points="384.9,353.6 386.8,354.2 386.8,357.7 			"/>
        <polyline id="element-251" class="st1" points="61.5,161.7 69.8,160 77.4,161.9 			"/>
        <polyline id="element-252" class="st1" points="172.6,312.2 172.9,321.1 160.5,321.5 160.3,299.4 			"/>
        <polyline id="element-253" class="st1" points="58.4,264.2 49.6,262.6 49.6,237.9 61.5,239.9 60.4,258 			"/>
        <polyline id="element-254" class="st1" points="49.6,287.9 59.9,289.4 59.3,313.9 47.4,311.3 47.5,290.3 			"/>
        <polyline id="element-255" class="st1" points="418.8,300.7 419.9,300 419.1,299.4 			"/>
        <polyline id="element-256" class="st1" points="199.2,342.7 200.9,299.8 214.9,299.8 			"/>
        <polygon id="element-257" class="st1" points="140.2,321.5 127.6,321.8 128,299 141.7,298.6 			"/>
        <polygon id="element-258" class="st1" points="96.4,322 107.7,322 109,298.4 94.9,298.4 94.7,321.3 			"/>
      </g>
    </g>
</svg>
