<?xml version="1.0" encoding="UTF-8" standalone="yes"?>
<svg version="1.1" xmlns:x="special-ns_extend;" xmlns:i="special-ns_ai;" xmlns:graph="special-ns_graphs;" xmlns="http://www.w3.org/2000/svg" xmlns:xlink="http://www.w3.org/1999/xlink" x="0px" y="0px" viewBox="0 0 792 612" style="enable-background:new 0 0 792 612;" xml:space="preserve">
  <style type="text/css">
	.st0{fill:#FFFFFF;}
	.st1{fill:none;stroke:#231F20;stroke-width:2.5;stroke-linecap:round;stroke-linejoin:round;stroke-miterlimit:10;}
</style>
  <g i:extraneous="self">
      <g id="coloringShapes">
        <rect id="element-1" x="-77.8" y="-35.1" class="st0" width="928.8" height="528.7"/>
        <path id="element-2" class="st0" d="M-16.7,476.8c0,0,18.5-4.6,23.4-4.3c4.9,0.3,10.4,2.3,16.8,3.8s15.9,2.3,21.7-0.3c5.8-2.6,24.3-4.1,38.2-3.8
				s26.1,4.1,35.9,2.9c9.8-1.2,32.1-2.6,37.3-3.5c5.2-0.9,16.8,1.2,16.8,1.2l81.3,6.9l34.2-11l19.4,0.6c0,0,21-2,21.7-2
				c0.7-0.1,88.6,0.3,88.6,0.3s72.4-3.2,84.2-0.7c11.9,2.5,11.3,3.9,19.1,3.6c7.8-0.3,11.9-1.4,19.1-0.3c7.2,1.2,7.8,2.6,15.6,1.4
				c7.8-1.2,22.9-3.5,22.9-3.5s94.4,1.2,95.5,0.9c1.2-0.3,26.9-0.9,30.7-0.3c3.8,0.6,11.6,2.9,19.1,1.7c7.5-1.2,16.8-0.6,29-3.2
				c12.2-2.6,54.4,6.7,54.4,6.7l2.9,150.5H-12.7L-16.7,476.8z"/>
        <path id="element-3" class="st0" d="M284.5,488c0,0,5-12.9,5-23.1c0,0-11.9-0.7-13.8,0.5c-1.9,1.2-6.4,5.7-10.9,7.4c-4.5,1.7-6.4,1.2-6.4,1.2
				l0.2-11.4l-3.3,1l-0.7,10.9c0,0-15,0.9-19.8,0.5l-1.2-10.5l-3.3,1.9l0.2,8.8l-33.8-5.9c0,0-8.1-2.1-11.9-5
				c-3.8-2.9-5.7,0.7-5.7,0.7l-5,4.3c0,0-2.1,12.1-1.4,13.3c0.7,1.2,5.7,11.2,15.7,9.8c0,0,9.5-2.9,13.6-3.1c4-0.2,8.8,1.2,14.3,2.4
				c5.5,1.2,7.4,1.9,12.6-0.2s7.1-3.3,12.6-3.1c5.5,0.2,7.6-0.7,12.9,1.7c5.2,2.4,5.5,3.7,11.7,1.2c6.2-2.5,5.2-4.3,10.9-4.3
				C282.6,486.8,284.5,488,284.5,488z"/>
        <path id="element-4" class="st0" d="M226,423.9l-51.4-3.6c0,0-5,10.9-6.7,16.7c-1.7,5.7-4,18.8,2.9,27.6l8.3,0.2l3.6-3.8l2.1,3.1
				c0,0,25,1.2,39.3,4.5C224,468.7,209.8,444.2,226,423.9z"/>
        <path id="element-5" class="st0" d="M255.2,428c0,0-17.1,17.1-3.8,38.8l-15.9-2.4c0,0-8.3,0.5-11.4,4.3c0,0-13.6-20.2,1-42.4L255.2,428z"/>
        <path id="element-6" class="st0" d="M279.5,463.9c0,0-10-19.8,6.4-42.8l-29-1.2l-1.2,3.6l-3.6-1.4c0,0-2.9-2.6-8.6-4c-5.7-1.4-19-0.2-19-0.2
				l-1.4,4.8l2.9,1.4l-1,2.4l30.2,1.7c0,0-15.5,16.9-5.5,35.7C249.7,463.7,255.5,459.2,279.5,463.9z"/>
        <path id="element-7" class="st0" d="M190.3,420.6c0,0,12.4-7.9,35.2-6.9c22.8,1,27.6,10.2,27.6,10.2s3.3,2.9,2.6-0.5c-0.7-3.3-5.5-20.5-0.2-34.5
				c5.2-14,15.9-27.4,15.9-27.4l-25.9-3.8l-50.2,0.5C195.3,358.3,175.7,389.4,190.3,420.6z"/>
        <path id="element-8" class="st0" d="M278.5,437c0,0,11.4,0.5,16.9,6.2c0,0-8.6-24,5.5-70.9c0,0-29.3,1.4-37.6,0c0,0-15.9,25-8.1,45.7l1.7,1.9
				l29,1.2L278.5,437z"/>
        <path id="element-9" class="st0" d="M206.2,357.3c0,0,25.2-16.2,62.1,1.4c0,0-12.9-13.6-2.4-41.2c0,0-41.2-2.6-53.8-5.2
				C212.1,312.3,191.2,332.1,206.2,357.3z"/>
        <path id="element-10" class="st0" d="M269.7,364.5l10,0.2c0,0-10.2-11.2-8.1-33.3c2.1-22.1,7.1-22.8,7.1-22.8s-36.4,0.5-47.6-1.4l-1.7,7.4
				l36.4,3.1c0,0-11.4,18.3,2.4,41.2l3.1,2.9L269.7,364.5z"/>
        <path id="element-11" class="st0" d="M291.9,368c0,0-3.3-17.4,5.5-41.6c0,0-11.9,2.6-24.5,0c0,0-4.3,20.9,5.7,36.6C278.5,363,284,359.2,291.9,368
				z"/>
        <path id="element-12" class="st0" d="M252.1,269.5c0,0-2.4,0.2-4.5-1.7c-2.1-1.9-10-1-13.6,1.9v11.9c0,0,5-3.8,8.3-3.8c3.3,0,4.8,0.7,5.9,1
				s3.3-0.2,3.3-0.2L252.1,269.5z"/>
        <path id="element-13" class="st0" d="M226.4,279l0.5-15.9c0,0-2.1,2.1-8.8,0.7c-6.7-1.4-10.5,6.4-10.5,6.4v8.8c0,0,9.7-4.1,11.7-2.9
				C221.3,277.4,226.4,279,226.4,279z"/>
        <path id="element-14" class="st0" d="M280.7,295.7l1.9,1l-1.2,6.9c0,0-2.6-3.3-5-4s-5,0.2-6.4,1.4c-1.4,1.2-5.5,0-5.5,0s4-2.4,5.7-5.9
				C271.9,291.4,277.1,290.2,280.7,295.7z"/>
        <path id="element-15" class="st0" d="M252.6,301.1l-0.2-9.8c0,0-4.5,2.4-7.1-2.6c-2.6-5-16.7,6.4-16.7,6.4v1.9c0,0,8.8-4.3,12.6-3.8
				c3.8,0.5,0.5,6.1,5.2,6.7C251.2,300.5,252.6,301.1,252.6,301.1z"/>
        <path id="element-16" class="st0" d="M225.7,298.3c0,0,1.2-4.8,0.7-8.6c0,0-3.7,2.2-4.5,1.7c-0.9-0.5-7.9-3.1-7.9-3.1s-3.1-1.9-6.7,0.5
				c-3.6,2.4-3.8,7.6-6.2,9.5c-2.4,1.9-2.1,2.4-5.5,1.4c-3.3-1-7.9-0.9-9,1.4s3.1-1.9,8.1,2.1s11.2-1.4,12.4-2.9s4.3-6.2,6.2-6.2
				c1.9,0,3.6,2.9,5.5,3.3C220.7,298.1,225.7,298.3,225.7,298.3z"/>
        <path id="element-17" class="st0" d="M668.7,489.4c0,0,4.2-10.8,4.2-19.3c0,0-10-0.6-11.6,0.4c-1.6,1-5.4,4.8-9.2,6.2c-3.8,1.4-5.4,1-5.4,1
				l0.2-9.6l-2.8,0.8l-0.6,9.2c0,0-12.6,0.8-16.5,0.4l-1-8.8l-2.8,1.6l0.2,7.4l-28.3-5c0,0-6.8-1.8-10-4.2s-4.8,0.6-4.8,0.6
				l-4.2,3.6c0,0-1.8,10.2-1.2,11.2c0.6,1,4.8,9.4,13.1,8.2c0,0,8-2.4,11.4-2.6c3.4-0.2,7.4,1,12,2c4.6,1,6.2,1.6,10.6-0.2
				c4.4-1.8,6-2.8,10.6-2.6c4.6,0.2,6.4-0.6,10.8,1.4s4.6,3.1,9.8,1c5.2-2.1,4.4-3.6,9.2-3.6C667.1,488.4,668.7,489.4,668.7,489.4z"/>
        <path id="element-18" class="st0" d="M619.7,435.8l-43-3c0,0-4.2,9.2-5.6,13.9c-1.4,4.8-3.4,15.7,2.4,23.1l7,0.2l3-3.2l1.8,2.6
				c0,0,20.9,1,32.9,3.8C618.1,473.3,606.2,452.7,619.7,435.8z"/>
        <path id="element-19" class="st0" d="M644.2,439.2c0,0-14.3,14.3-3.2,32.5l-13.3-2c0,0-7,0.4-9.6,3.6c0,0-11.4-16.9,0.8-35.5L644.2,439.2z"/>
        <path id="element-20" class="st0" d="M664.5,469.3c0,0-8.4-16.5,5.4-35.9l-24.3-1l-1,3l-3-1.2c0,0-2.4-2.2-7.2-3.4c-4.8-1.2-15.9-0.2-15.9-0.2
				l-1.2,4l2.4,1.2l-0.8,2l25.3,1.4c0,0-13,14.1-4.6,29.9C639.6,469.1,644.4,465.3,664.5,469.3z"/>
        <path id="element-21" class="st0" d="M589.8,433c0,0,10.4-6.6,29.5-5.8c19.1,0.8,23.1,8.6,23.1,8.6s2.8,2.4,2.2-0.4c-0.6-2.8-4.6-17.1-0.2-28.9
				c4.4-11.8,13.3-22.9,13.3-22.9l-21.7-3.2l-42,0.4C594,380.8,577.7,406.9,589.8,433z"/>
        <path id="element-22" class="st0" d="M663.7,446.8c0,0,9.6,0.4,14.1,5.2c0,0-7.2-20.1,4.6-59.4c0,0-24.5,1.2-31.5,0c0,0-13.3,20.9-6.8,38.3
				l1.4,1.6l24.3,1L663.7,446.8z"/>
        <path id="element-23" class="st0" d="M603.2,380c0,0,21.1-13.5,52,1.2c0,0-10.8-11.4-2-34.5c0,0-34.5-2.2-45-4.4
				C608.2,342.4,590.6,358.9,603.2,380z"/>
        <path id="element-24" class="st0" d="M656.4,386l8.4,0.2c0,0-8.6-9.4-6.8-27.9c1.8-18.5,6-19.1,6-19.1s-30.5,0.4-39.8-1.2l-1.4,6.2l30.5,2.6
				c0,0-9.6,15.3,2,34.5l2.6,2.4L656.4,386z"/>
        <path id="element-25" class="st0" d="M674.9,389c0,0-2.8-14.5,4.6-34.9c0,0-10,2.2-20.5,0c0,0-3.6,17.5,4.8,30.7
				C663.7,384.8,668.3,381.6,674.9,389z"/>
        <path id="element-26" class="st0" d="M641.6,306.5c0,0-2,0.2-3.8-1.4c-1.8-1.6-8.4-0.8-11.4,1.6v10c0,0,4.2-3.2,7-3.2c2.8,0,4,0.6,5,0.8
				c1,0.2,2.8-0.2,2.8-0.2L641.6,306.5z"/>
        <path id="element-27" class="st0" d="M620.1,314.5l0.4-13.3c0,0-1.8,1.8-7.4,0.6c-5.6-1.2-8.8,5.4-8.8,5.4v7.4c0,0,8.1-3.4,9.8-2.4
				C615.8,313.1,620.1,314.5,620.1,314.5z"/>
        <path id="element-28" class="st0" d="M665.5,328.4l1.6,0.8l-1,5.8c0,0-2.2-2.8-4.2-3.4c-2-0.6-4.2,0.2-5.4,1.2s-4.6,0-4.6,0s3.4-2,4.8-5
				S662.5,323.8,665.5,328.4z"/>
        <path id="element-29" class="st0" d="M642,333l-0.2-8.2c0,0-3.8,2-6-2.2c-2.2-4.2-13.9,5.4-13.9,5.4v1.6c0,0,7.4-3.6,10.6-3.2
				c3.2,0.4,0.4,5.1,4.4,5.6C640.8,332.4,642,333,642,333z"/>
        <path id="element-30" class="st0" d="M619.5,330.6c0,0,1-4,0.6-7.2c0,0-3.1,1.8-3.8,1.4c-0.7-0.4-6.6-2.6-6.6-2.6s-2.6-1.6-5.6,0.4
				s-3.2,6.4-5.2,8s-1.8,2-4.6,1.2c-2.8-0.8-6.6-0.8-7.6,1.2c-0.9,2,2.6-1.6,6.8,1.8c4.2,3.4,9.4-1.2,10.4-2.4s3.6-5.2,5.2-5.2
				c1.6,0,3,2.4,4.6,2.8C615.3,330.4,619.5,330.6,619.5,330.6z"/>
        <path id="element-31" class="st0" d="M511.4,507.2c0,0,8.4-21.6,8.4-38.8c0,0-19.7-0.5-23.2,0.8c-6.6,2.5-10.9,8.1-18.5,10.9
				c-7.6,2.8-10.7,3.5-10.7,3.5l-1.9-0.9l-1.7,1.1l-2.7,0.6c0,0-25.2,1.6-33.2,0.8l-2.2-0.4l-3.1,0.5l-1.9,0.3l-56.8-10
				c0,0-18.3-2-22.2-12.7c-2.7-7.5-7.4,5.5-7.4,5.5l-8.4,7.2c0,0-3.6,20.4-2.4,22.4c1.2,2,12.6,20.2,29.4,17.8c0,0,13-6.2,19.8-6.6
				c6.8-0.4,14.8,2,24,4c9.2,2,12.4,3.2,21.2-0.4c8.8-3.6,12-5.6,21.2-5.2c9.2,0.4,12.8-1.2,21.6,2.8c8.8,4,9.2,6.3,19.6,2
				c10.4-4.3,8.8-7.2,18.4-7.2C508.2,505.2,511.4,507.2,511.4,507.2z"/>
        <path id="element-32" class="st0" d="M414.3,397.6l-87.7-3.9c0,0-8.4,18.4-11.2,28c-2.8,9.6-6.8,31.6,4.8,46.4l14,0.4l6-6.4l3.6,5.2
				c0,0,42,2,66,7.6C409.8,474.8,387.1,431.5,414.3,397.6z"/>
        <path id="element-33" class="st0" d="M462.2,406.4c0,0-28.8,28.8-6.4,65.2l-26.8-4c0,0-14,0.8-19.2,7.2c0,0-22.8-34,1.6-71.2L462.2,406.4z"/>
        <path id="element-34" class="st0" d="M503,466.8c0,0-16.8-33.2,10.8-72L462,392l1,6.8l-6-2.4c0,0-4.8-4.4-14.4-6.8c-9.6-2.4-32-0.4-32-0.4l-2.4,8
				l4.8,2.4l-1.6,4l50.8,2.8c0,0-26,28.4-9.2,60C453,466.4,462.6,458.8,503,466.8z"/>
        <path id="element-35" class="st0" d="M353,394c0,0,20.8-13.2,59.2-11.6s46.4,17.2,46.4,17.2s5.6,4.8,4.4-0.8c-1.2-5.6-9.2-34.4-0.4-58
				s26.8-46,26.8-46l-43.6-6.4l-84.4,0.8C361.4,289.2,328.6,341.6,353,394z"/>
        <path id="element-36" class="st0" d="M500.2,420.8c0,0,20.3,1.6,29.5,11.2c0,0-14.4-40.4,9.2-119.2c0,0-49.2,2.4-63.2,0c0,0-26.8,42-13.6,76.8
				l2.8,3.2l48.4,0.7L500.2,420.8z"/>
        <path id="element-37" class="st0" d="M379.8,287.6c0,0,42.4-27.2,104.4,2.4c0,0-21.6-22.8-4-69.2c0,0-69.2-4.4-90.4-8.8
				C389.8,212.1,354.6,245.3,379.8,287.6z"/>
        <path id="element-38" class="st0" d="M486.6,299.6l16.8,0.4c0,0-17.2-18.8-13.6-56s12-38.4,12-38.4s-61.2,0.8-80-2.4l-2.8,12.4l61.2,5.2
				c0,0-19.2,30.8,4,69.2l5.2,4.8L486.6,299.6z"/>
        <path id="element-39" class="st0" d="M523.7,305.6c0,0-5.6-29.2,9.2-70c0,0-20,4.4-41.2,0c0,0-7.2,35.2,9.6,61.6
				C501.4,297.2,510.6,290.8,523.7,305.6z"/>
        <path id="element-40" class="st0" d="M457,140.1c0,0-4,0.4-7.6-2.8c-3.6-3.2-16.8-1.6-22.8,3.2v20c0,0,8.4-6.4,14-6.4c5.6,0,8,1.2,10,1.6
				c2,0.4,5.6-0.4,5.6-0.4L457,140.1z"/>
        <path id="element-41" class="st0" d="M413.8,156.1l0.8-26.8c0,0-3.6,3.6-14.8,1.2c-11.2-2.4-17.6,10.8-17.6,10.8v14.8c0,0,16.3-6.9,19.6-4.8
				C405.1,153.4,413.8,156.1,413.8,156.1z"/>
        <path id="element-42" class="st0" d="M505,184.1l3.2,1.6l-2,11.6c0,0-4.4-5.6-8.4-6.8c-4-1.2-8.4,0.4-10.8,2.4c-2.4,2-9.2,0-9.2,0s6.8-4,9.6-10
				C490.2,176.9,499,174.9,505,184.1z"/>
        <path id="element-43" class="st0" d="M457.8,193.3l-0.4-16.4c0,0-7.6,4-12-4.4c-4.4-8.4-31.5,11.3-31.5,11.3v5.2c0,0,18.3-9.6,24.7-8.8
				s0.8,10.3,8.8,11.2C455.4,192.2,457.8,193.3,457.8,193.3z"/>
        <path id="element-44" class="st0" d="M412.6,188.5c0,0,2-8,1.2-14.4c0,0-6.1,3.7-7.6,2.8c-1.5-0.9-13.2-5.2-13.2-5.2s-5.2-3.2-11.2,0.8
				c-6,4-6.4,12.8-10.4,16c-4,3.2-3.6,4-9.2,2.4c-5.6-1.6-13.3-1.5-15.2,2.4c-1.9,3.9,5.2-3.2,13.6,3.6c8.4,6.8,18.8-2.4,20.8-4.8
				c2-2.4,7.2-10.4,10.4-10.4s6,4.8,9.2,5.6S412.6,188.5,412.6,188.5z"/>
        <path id="element-45" class="st0" d="M791.3,115.1c0,0-16.9-10-32.3,6.1c0,0-16.9-13.6-30.9,1.1c0,0-33-15.1-63.2,10.8c0,0-15.1-4.3-22.3,14.4
				c0,0-37,7.5-24,37c0,0-5.7,23,14.7,24.4c0,0,24,35.9,58.9,13.3c0,0,26.9,24.4,50.2,4.3c0,0,15.4,23.7,35.2,14.4
				c0,0,12.9,17.9,33,7.5l-3.1-138.1C807.6,110.1,795.6,108.7,791.3,115.1z"/>
        <path id="element-46" class="st0" d="M528.6,26.1c0,0-23-10.4-34.1,10.4c-11.1,20.8,14.7,29.8,23.7,27.3c0,0,4.7,19,27.6,14
				c0,0,17.6,26.2,51.7,7.5c0,0,39.8,17.6,60.7-1.4c0,0,24.4,1.4,29.8-18.3c0,0,6.5-17.6-11.1-23.3c0,0-1.8-16.5-23.3-12.9
				c0,0-7.9-16.5-34.5-9.7c-1.8,0.5-12.6-15.8-37-1.1C582.1,18.6,553.7-3,528.6,26.1z"/>
        <path id="element-47" class="st0" d="M54.1,80.3c0,0,25.8-34.1,63.5-22.6c0,0,4.3-21.2,23.7-17.2c0,0,13.3-15.1,32.7-1.8c0,0,31.6-26.2,81.1,2.2
				c0,0,25.5-10.8,35.2,11.5c0,0,36.2-0.4,29.8,34.8c0,0,30.5,24.8-4.3,47.7c0,0,0,19.7-23,17.2c0,0-9.7,37-45.2,27.6
				c0,0-8.6,16.1-29.4,11.8c0,0-14,23-51.7,12.2c0,0-56.3,40.2-76.8-6.5c0,0-36.6,13.3-43.8-16.1c0,0-26.2-3.6-21.2-34.8
				c0,0-11.1-15.8,6.1-37C30.7,109.4,24.6,81,54.1,80.3z"/>
        <polygon id="element-48" class="st0" points="425.6,484.7 425.9,468.7 419.4,469.3 418.6,484.4 			"/>
        <polygon id="element-49" class="st0" points="461.6,463.7 461.3,482.9 467.4,483.6 466.3,463.7 			"/>
      </g>
      <g id="outline">
        <path id="element-50" class="st1" d="M341.6,462.9c0,0,3.6,7.5,14,10.4c10.4,2.9,67.5,16.5,101.9,11.5s26.6-15.6,45.6-16.7l16.9,0.2
				c0,0-2.5,28.4-9.3,38c0,0-13.3-3.2-20.5,1.4c-7.2,4.7-21.5,6.5-34.1,1.4c-12.6-5-26.9-2.2-37.3,3.2c-10.4,5.4-25.1-1.8-35.9-3.2
				c-10.8-1.4-22.6,5-29.1,6.1c-6.5,1.1-17.2-34.1-14.7-53.8c0,0-3.9,8.3-10.8,10.8c-6.8,2.5-10,39.8,15.8,41.6"/>
        <path id="element-51" class="st1" d="M358.1,479.4c0,0,56.3,17.6,108,9.3"/>
        <path id="element-52" class="st1" d="M343,474c0,0,2.9,21.2,8.6,31.2"/>
        <path id="element-53" class="st1" d="M345.2,467.9c27.6,0,65.3,7.5,65.3,7.5c-28.4-49.2,5.4-77.5,5.4-77.5l-87.6-4.3
				c-31.6,53.5-7.2,74.6-7.2,74.6s5-1.4,9.7-1.1"/>
        <path id="element-54" class="st1" d="M411.6,472.5c0,0,15.4-11.5,43.4,0.4c0,0-22.3-34.8,7.9-68.5c0,0-34.5,1.4-51-1.4"/>
        <path id="element-55" class="st1" d="M460,399.3c-48.1-36.2-106.9-6.8-106.9-6.8s-28.4-41.6,8.6-102.6c0,0,76.8-5,128.8,3.9
				c0,0-47.7,43.4-26.6,104.4"/>
        <path id="element-56" class="st1" d="M452.9,465.4c0,0,24.8-5,50.2,2.7c0,0-19-32.5,11.1-74.1c0,0-33.7-2.9-49.5-1.8"/>
        <path id="element-57" class="st1" d="M499.5,421.9c0,0,16.1-1.1,30.1,10.4c0,0-14.4-42,9-120.2c0,0-44.9,3.6-61.4,1.1"/>
        <path id="element-58" class="st1" d="M381.1,285.9c0,0,35.9-24.4,103.7,4.3c0,0-23.3-24.8-4.3-70.7c0,0-50.2,0-91.9-7.5c0,0-33.7,31.9-10,72.1"/>
        <path id="element-59" class="st1" d="M488,299.6c0,0,5.7-1.4,15.8,1.1c0,0-30.5-37.7-3.2-95.5c0,0-52.4,2.9-79.7-2.5c0,0,0,5.4-0.7,7.9"/>
        <path id="element-60" class="st1" d="M503.1,295.6c0,0,8.6-0.7,20.8,10.8c0,0-7.2-38,8.6-66.4"/>
        <path id="element-61" class="st1" d="M493.4,236c0,0,14.7,3.9,34.5,1.1"/>
        <path id="element-62" class="st1" d="M397.2,493.4c0,0,52.8,10,94.7-6.8"/>
        <path id="element-63" class="st1" d="M386.8,497.3c0,0,30.5,7.5,54.9,3.9"/>
        <path id="element-64" class="st1" d="M456.5,217v-77.9c0,0-2.9,2.5-5.4,0c-2.5-2.5-12.2-7.9-23.7,1.8l-1.1,18.7c0,0,16.1-10,21.2-5.4
				s7.2,1.4,7.2,1.4"/>
        <path id="element-65" class="st1" d="M505.6,185.1c0,0-2.5-1.8-5-4.3c-2.5-2.5-10-2.9-14,3.2c-3.9,6.1-9.3,9.3-16.5,8.6c0,0,12.9,3.9,19.7-1.8
				s8.3,2.9,15.1,4.7"/>
        <path id="element-66" class="st1" d="M412.7,130.2c0,0-3.6,3.6-9.3,0.7c-5.7-2.9-15.4,1.8-20.5,6.8l-0.4,20.5c0,0,13.6-10.8,22.3-5
				c8.6,5.7,9.3-0.7,9.3-0.7"/>
        <path id="element-67" class="st1" d="M456.1,176.1c0,0-3.6,2.9-7.2,0c-3.6-2.9-6.1-9.7-15.8-3.9c-9.7,5.7-17.2,11.1-17.2,11.1"/>
        <path id="element-68" class="st1" d="M414.2,187.1c-1.3,0.1-1.9,0.1-1.9,0.1c-16.1,8.3-17.2-13.6-24.4-3.6c-7.2,10-20.5,20.5-28.7,12.9
				c-8.3-7.5-14.4,0.4-14.4,0.4s2.2-11.8,14.7-6.5c12.6,5.4,12.9-9.7,21.9-17.9c9-8.3,14.7,1.8,23,3.2s9.3-5.4,9.3-5.4"/>
        <path id="element-69" class="st1" d="M455,191.9c0,0-5,1.4-8.6,0c-6.4-2.6-1.1-14.7-13.6-11.1c-8.3,2.4-13.6,4.3-17.6,8.3"/>
        <path id="element-70" class="st1" d="M332.3,510.2c0,0-4.3-6.8-9-1.8c-4.7,5-0.7,8.6-11.5,8.3"/>
        <path id="element-71" class="st1" d="M353.8,515.3c0,0,21.2-10,35.9-4.7c14.7,5.4,22.3,7.9,39.1,5.4"/>
        <path id="element-72" class="st1" d="M350.9,525.7c0,0,10-10.4,24.8-6.8s19.7,7.5,24,7.2"/>
        <path id="element-73" class="st1" d="M343.8,522.8c0,0-3.9,2.2-7.5-2.5c-3.6-4.7-12.6-0.7-14,0.7"/>
        <path id="element-74" class="st1" d="M583.8,466.9c0,0,1.8,3.8,7,5.2c5.2,1.4,33.7,8.2,50.9,5.7c17.2-2.5,13.3-7.8,22.7-8.3l8.4,0.1
				c0,0-1.3,14.2-4.7,19c0,0-6.6-1.6-10.2,0.7c-3.6,2.3-10.7,3.2-17,0.7c-6.3-2.5-13.4-1.1-18.6,1.6c-5.2,2.7-12.5-0.9-17.9-1.6
				c-5.4-0.7-11.3,2.5-14.5,3s-8.6-17-7.3-26.9c0,0-2,4.1-5.4,5.4c-3.4,1.3-5,19.9,7.9,20.8"/>
        <path id="element-75" class="st1" d="M585.6,469.4c13.8,0,32.6,3.8,32.6,3.8c-14.2-24.5,2.7-38.7,2.7-38.7l-43.7-2.1
				c-15.8,26.7-3.6,37.3-3.6,37.3s2.5-0.7,4.8-0.5"/>
        <path id="element-76" class="st1" d="M618.8,471.7c-0.2,4,7.6-4.2,21.7,0.2c0,0-11.1-17.4,3.9-34.2c0,0-17.2,0.7-25.4-0.7"/>
        <path id="element-77" class="st1" d="M642.9,435.2c-24-18.1-53.4-3.4-53.4-3.4s-14.2-20.8,4.3-51.2c0,0,38.3-2.5,64.3,2c0,0-23.8,21.7-13.3,52.1"/>
        <path id="element-78" class="st1" d="M639.4,468.1c0,0,12.4-2.5,25.1,1.4c0,0-9.5-16.2,5.6-37c0,0-16.8-1.4-24.7-0.9"/>
        <path id="element-79" class="st1" d="M662.6,446.4c0,0,8.1-0.5,15,5.2c0,0-7.2-21,4.5-60c0,0-22.4,1.8-30.6,0.5"/>
        <path id="element-80" class="st1" d="M603.5,378.6c0,0,17.9-12.2,51.8,2.1c0,0-11.6-12.4-2.1-35.3c0,0-25.1,0-45.9-3.8c0,0-16.8,15.9-5,36"/>
        <path id="element-81" class="st1" d="M656.9,385.4c0,0,2.9-0.7,7.9,0.5c0,0-15.2-18.8-1.6-47.6c0,0-26.2,1.4-39.8-1.3c0,0,0,2.7-0.4,3.9"/>
        <path id="element-82" class="st1" d="M664.4,383.4c0,0,4.3-0.4,10.4,5.4c0,0-3.6-19,4.3-33.1"/>
        <path id="element-83" class="st1" d="M659.6,353.7c0,0,7.3,2,17.2,0.5"/>
        <path id="element-84" class="st1" d="M641.1,344.2v-38.9c0,0-1.4,1.3-2.7,0c-1.3-1.3-6.1-3.9-11.8,0.9l-0.5,9.3c0,0,8.1-5,10.6-2.7
				c2.5,2.3,3.6,0.7,3.6,0.7"/>
        <path id="element-85" class="st1" d="M665.7,328.2c0,0-1.3-0.9-2.5-2.1c-1.3-1.3-5-1.4-7,1.6c-2,3-4.7,4.7-8.2,4.3c0,0,6.4,2,9.9-0.9
				c3.4-2.9,4.1,1.4,7.5,2.3"/>
        <path id="element-86" class="st1" d="M619.3,300.8c0,0-1.8,1.8-4.7,0.4c-2.9-1.4-7.7,0.9-10.2,3.4l-0.2,10.2c0,0,6.8-5.4,11.1-2.5
				c4.3,2.9,4.7-0.4,4.7-0.4"/>
        <path id="element-87" class="st1" d="M641,323.7c0,0-1.8,1.4-3.6,0c-1.8-1.4-3-4.8-7.9-2c-4.8,2.9-8.6,5.6-8.6,5.6"/>
        <path id="element-88" class="st1" d="M620,329.2c-0.6,0.1-0.9,0.1-0.9,0.1c-8.1,4.1-8.6-6.8-12.2-1.8c-3.6,5-10.2,10.2-14.3,6.4
				c-4.1-3.8-7.2,0.2-7.2,0.2s1.1-5.9,7.3-3.2c6.3,2.7,6.4-4.8,10.9-9c4.5-4.1,7.3,0.9,11.5,1.6c4.1,0.7,4.7-2.7,4.7-2.7"/>
        <path id="element-89" class="st1" d="M640.4,331.6c0,0-2.5,0.7-4.3,0c-3.2-1.3-0.5-7.3-6.8-5.6c-4.1,1.2-6.8,2.1-8.8,4.1"/>
        <path id="element-90" class="st1" d="M183.6,461.8c0,0,2.1,4.5,8.3,6.2c6.2,1.7,40.2,9.8,60.7,6.8c20.5-3,15.8-9.3,27.1-9.9l10,0.1
				c0,0-1.5,16.9-5.6,22.6c0,0-7.9-1.9-12.2,0.9s-12.8,3.8-20.3,0.9c-7.5-3-16-1.3-22.2,1.9c-6.2,3.2-15-1.1-21.4-1.9
				c-6.4-0.9-13.5,3-17.3,3.6s-10.3-20.3-8.8-32.1c0,0-2.4,4.9-6.4,6.4s-6,23.7,9.4,24.8"/>
        <path id="element-91" class="st1" d="M185.8,464.8c16.5,0,38.9,4.5,38.9,4.5c-16.9-29.3,3.2-46.2,3.2-46.2l-52.1-2.6
				c-18.8,31.8-4.3,44.4-4.3,44.4s3-0.9,5.8-0.6"/>
        <path id="element-92" class="st1" d="M225.3,467.6c0,0,9.2-6.8,25.9,0.2c0,0-13.2-20.7,4.7-40.8c0,0-20.5,0.9-30.3-0.9"/>
        <path id="element-93" class="st1" d="M254.2,424c-28.6-21.6-63.7-4.1-63.7-4.1s-16.9-24.8,5.1-61.1c0,0,45.7-3,76.7,2.4c0,0-28.4,25.9-15.8,62.2"/>
        <path id="element-94" class="st1" d="M249.9,463.3c0,0,14.7-3,29.9,1.6c0,0-11.3-19.4,6.6-44.1c0,0-20.1-1.7-29.5-1.1"/>
        <path id="element-95" class="st1" d="M277.7,437.5c0,0,9.6-0.6,17.9,6.2c0,0-8.5-25,5.3-71.6c0,0-26.7,2.1-36.5,0.6"/>
        <path id="element-96" class="st1" d="M207.2,356.5c0,0,21.4-14.5,61.8,2.6c0,0-13.9-14.7-2.6-42.1c0,0-29.9,0-54.7-4.5c0,0-20.1,19-6,42.9"/>
        <path id="element-97" class="st1" d="M270.8,364.6c0,0,3.4-0.9,9.4,0.6c0,0-18.2-22.4-1.9-56.8c0,0-31.2,1.7-47.4-1.5c0,0,0,3.2-0.4,4.7"/>
        <path id="element-98" class="st1" d="M279.8,362.2c0,0,5.1-0.4,12.4,6.4c0,0-4.3-22.6,5.1-39.5"/>
        <path id="element-99" class="st1" d="M274,326.8c0,0,8.8,2.4,20.5,0.6"/>
        <path id="element-100" class="st1" d="M252,315.4v-46.4c0,0-1.7,1.5-3.2,0c-1.5-1.5-7.3-4.7-14.1,1.1l-0.6,11.1c0,0,9.6-6,12.6-3.2
				c3,2.8,4.3,0.9,4.3,0.9"/>
        <path id="element-101" class="st1" d="M281.3,296.4c0,0-1.5-1.1-3-2.6s-6-1.7-8.3,1.9c-2.4,3.6-5.6,5.6-9.8,5.1c0,0,7.7,2.4,11.8-1.1
				c4.1-3.4,4.9,1.7,9,2.8"/>
        <path id="element-102" class="st1" d="M226,263.7c0,0-2.1,2.1-5.6,0.4c-3.4-1.7-9.2,1.1-12.2,4.1l-0.2,12.2c0,0,8.1-6.4,13.2-3s5.6-0.4,5.6-0.4"/>
        <path id="element-103" class="st1" d="M251.8,291.1c0,0-2.1,1.7-4.3,0c-2.1-1.7-3.6-5.8-9.4-2.4c-5.8,3.4-10.3,6.6-10.3,6.6"/>
        <path id="element-104" class="st1" d="M226.8,297.6c-0.8,0.1-1.1,0.1-1.1,0.1c-9.6,4.9-10.3-8.1-14.5-2.1c-4.3,6-12.2,12.2-17.1,7.7
				c-4.9-4.5-8.5,0.2-8.5,0.2s1.3-7.1,8.8-3.8c7.5,3.2,7.7-5.8,13-10.7c5.3-4.9,8.8,1.1,13.7,1.9c4.9,0.9,5.6-3.2,5.6-3.2"/>
        <path id="element-105" class="st1" d="M251.2,300.5c0,0-3,0.9-5.1,0c-3.8-1.5-0.6-8.8-8.1-6.6c-4.9,1.4-8.1,2.6-10.5,4.9"/>
        <path id="element-106" class="st1" d="M508.8,500.5c0,0,3.6-12.9,3.9-27.6l-8.3,0.4"/>
        <path id="element-107" class="st1" d="M-4.7,475.1c0,0,10.4-3.9,18.3-1.8c7.9,2.2,20.1,6.1,33.7,2.5s36.6-4.7,52.4-2.5c15.8,2.2,42,0.4,50.2-1.4
				c8.3-1.8,21.9,0,21.9,0"/>
        <path id="element-108" class="st1" d="M289.6,469c0,0,9.7-0.4,15.8,0.4c6.1,0.7,15.8-1.1,15.8-1.1"/>
        <path id="element-109" class="st1" d="M520.3,471.1c0,0,15.1-2.5,23.7,0c8.6,2.5,29.6-1.6,29.6-1.6"/>
        <path id="element-110" class="st1" d="M672.9,469.6c0,0,24-2.7,35.2,0.1c11.1,2.9,31.2,0,40.9-1.8c9.7-1.8,34.8,1.4,41.3,2.5"/>
        <path id="element-111" class="st1" d="M88.2,563.7c0,0,10.4,6.5,26.9,0.7c16.5-5.7,21.2-9,35.2-2.5c14,6.5,23.7,8.6,38.4,3.2
				c14.7-5.4,15.1-6.5,28-3.9s26.6,6.1,29.8,5.4"/>
        <path id="element-112" class="st1" d="M531.5,524.2c0,0,10.8-11.5,30.5-5.4c19.7,6.1,31.2,10,54.2,3.6c23-6.5,41.6-6.1,52,0
				c10.4,6.1,41.6,2.2,48.8-1.1"/>
        <path id="element-113" class="st1" d="M390.1,566.2c0,0,12.9-9.7,31.9-5c19,4.7,29.1,7.2,51,0.7c21.9-6.5,37-5.7,50.2,0.4
				c13.3,6.1,40.2,1.4,50.6-2.5"/>
        <path id="element-114" class="st1" d="M35.1,518.5c0,0,19,2.9,27.3-2.9c8.3-5.7,20.5-6.1,33.7,0c13.3,6.1,33.7,1.1,48.8-3.9
				c15.1-5,26.6-1.4,36.2,2.9"/>
        <path id="element-115" class="st1" d="M668.2,580.6c0,0,12.2,3.2,20.5-3.9c8.3-7.2,19.7-7.5,30.9-1.4c11.1,6.1,30.5,5,35.2,2.5s16.9-3.6,20.1-2.9"/>
        <path id="element-116" class="st1" d="M791.3,115.1c0,0-16.9-10-32.3,6.1c0,0-16.9-13.6-30.9,1.1c0,0-33-15.1-63.2,10.8c0,0-15.1-4.3-22.3,14.4
				c0,0-37,7.5-24,37c0,0-5.7,23,14.7,24.4c0,0,24,35.9,58.9,13.3c0,0,26.9,24.4,50.2,4.3c0,0,15.4,23.7,35.2,14.4
				c0,0,12.9,17.9,33,7.5"/>
        <path id="element-117" class="st1" d="M651.7,161.8c0,0,1.8-21.5,28.7-22.3"/>
        <path id="element-118" class="st1" d="M716.3,212.4c0,0-18.3,9.7-31.2-7.5"/>
        <path id="element-119" class="st1" d="M528.6,26.1c0,0-23-10.4-34.1,10.4c-11.1,20.8,14.7,29.8,23.7,27.3c0,0,4.7,19,27.6,14
				c0,0,17.6,26.2,51.7,7.5c0,0,39.8,17.6,60.7-1.4c0,0,24.4,1.4,29.8-18.3c0,0,6.5-17.6-11.1-23.3c0,0-1.8-16.5-23.3-12.9
				c0,0-7.9-16.5-34.5-9.7c-1.8,0.5-12.6-15.8-37-1.1C582.1,18.6,553.7-3,528.6,26.1z"/>
        <path id="element-120" class="st1" d="M54.1,80.3c0,0,25.8-34.1,63.5-22.6c0,0,4.3-21.2,23.7-17.2c0,0,13.3-15.1,32.7-1.8c0,0,31.6-26.2,81.1,2.2
				c0,0,25.5-10.8,35.2,11.5c0,0,36.2-0.4,29.8,34.8c0,0,30.5,24.8-4.3,47.7c0,0,0,19.7-23,17.2c0,0-9.7,37-45.2,27.6
				c0,0-8.6,16.1-29.4,11.8c0,0-14,23-51.7,12.2c0,0-56.3,40.2-76.8-6.5c0,0-36.6,13.3-43.8-16.1c0,0-26.2-3.6-21.2-34.8
				c0,0-11.1-15.8,6.1-37C30.7,109.4,24.6,81,54.1,80.3z"/>
        <path id="element-121" class="st1" d="M71.6,155.3c0,0,5.4,31.2,39.8,24"/>
        <path id="element-122" class="st1" d="M284.5,132.3c0,0,18.7-3.6,15.4-27.3c0,0,6.1-9.7-3.9-17.9"/>
        <path id="element-123" class="st1" d="M210.9,58c0,0-27.3-14.4-44.1,2.9c0,0-39.5-10.4-67.8,30.5"/>
        <path id="element-124" class="st1" d="M544,45.1c0,0-0.4,21.9,23.3,22.3"/>
        <path id="element-125" class="st1" d="M137.4,140.5c0,0,3.6,33.5,45.4,24.7c0,0,11.9,19.6,33.5,0"/>
        <path id="element-126" class="st1" d="M410,397.2c0,0,0.3-5.8-1.7-8.1l34.7,0.6"/>
        <line id="element-127" class="st1" x1="506.3" y1="236.4" x2="506.3" y2="182.2"/>
        <line id="element-128" class="st1" x1="414.1" y1="211.6" x2="414.1" y2="127.7"/>
        <line id="element-129" class="st1" x1="419.5" y1="484" x2="419.5" y2="468.2"/>
        <line id="element-130" class="st1" x1="425.6" y1="484.7" x2="425.6" y2="466.8"/>
        <line id="element-131" class="st1" x1="461.5" y1="482.6" x2="461.5" y2="463.9"/>
        <line id="element-132" class="st1" x1="466.5" y1="482.2" x2="466.5" y2="463.9"/>
        <line id="element-133" class="st1" x1="666" y1="353.8" x2="666" y2="326.8"/>
        <line id="element-134" class="st1" x1="620" y1="341.5" x2="620" y2="299.6"/>
        <line id="element-135" class="st1" x1="622.7" y1="477.4" x2="622.7" y2="469.6"/>
        <line id="element-136" class="st1" x1="625.7" y1="477.8" x2="625.7" y2="468.8"/>
        <line id="element-137" class="st1" x1="643.7" y1="476.7" x2="643.7" y2="467.4"/>
        <line id="element-138" class="st1" x1="646.2" y1="476.5" x2="646.2" y2="467.4"/>
        <line id="element-139" class="st1" x1="281.7" y1="327" x2="281.7" y2="294.7"/>
        <line id="element-140" class="st1" x1="226.8" y1="312.2" x2="226.8" y2="262.2"/>
        <line id="element-141" class="st1" x1="230" y1="474.4" x2="230" y2="465"/>
        <line id="element-142" class="st1" x1="233.6" y1="474.9" x2="233.6" y2="464.2"/>
        <line id="element-143" class="st1" x1="255" y1="473.6" x2="255" y2="462.5"/>
        <line id="element-144" class="st1" x1="258" y1="473.4" x2="258" y2="462.5"/>
        <polyline id="element-145" class="st1" points="617.9,434.5 618.2,430.2 638.4,431 			"/>
        <polyline id="element-146" class="st1" points="223.9,423.2 223.3,418.3 243,418.6 			"/>
      </g>
    </g>
</svg>
