<?xml version="1.0" encoding="UTF-8" standalone="yes"?>
<svg version="1.1" xmlns="http://www.w3.org/2000/svg" xmlns:xlink="http://www.w3.org/1999/xlink" x="0px" y="0px" viewBox="0 0 792 612" style="enable-background:new 0 0 792 612;" xml:space="preserve">
  <style type="text/css">&#xD;
	.st0{fill:#FFFFFF;}&#xD;
	.st1{fill:none;stroke:#231F20;stroke-width:2.5;stroke-linecap:round;stroke-linejoin:round;stroke-miterlimit:10;}&#xD;
</style>
  <g id="coloringShapes">
    <rect x="-11" y="278.7" class="st0 file-12-element-1" width="821.6" height="350"/>
    <rect x="-4.3" y="-6.9" class="st0 file-12-element-2" width="818" height="247.4"/>
    <path class="st0 file-12-element-3" d="M804.2,106.4c0,0-22.8-8-31,17.3c0,0-17.5-7.5-26.4,13.3c0,0-11.3,2-8.2,11.7c0,0-24.2-8-42.1,19.3&#xD;
		c0,0-17.5-4-25.9,19.5l1.1,7.1c0,0-5.5,14.2-5.5,15.3s0.9,14.2,0.9,14.2l131.9-1.7L804.2,106.4z"/>
    <path class="st0 file-12-element-4" d="M448.4,130.7c0,0,24.2-25.9,52.1-18c0,0,25.7,6.7,25.9,29.5c0,0,24.2-25.1,55.2-21.5c31,3.5,37.7,33,37.7,33&#xD;
		s26.8-6.7,41,15.7c0,0,8.4,9.1,10.6,15.5l0.7,9.5c0,0,11.5,10.9,6,26.2l-1.8,1.8l-143,1.1l-0.3-32.8l-25.6-8.2l0-24.2l-33.9-1.1&#xD;
		l0.1-9.9l-24.2-0.6L448.4,130.7z"/>
    <path class="st0 file-12-element-5" d="M68.4,229.5c0,0-8.4-0.6-10-8.8c0,0-10.6-8.9-3.5-23.5c0,0-6.9-23.7,12.9-28.8c0,0-2.4-6.7,2-9.8&#xD;
		c0,0-2-7.5,6.4-13.1c0,0-12.9-8.9-2.9-34.1c0,0,6-16.2,24.4-29.5c0,0,6.9-16,21.9-8.9c0,0,13.7-14.2,18.4-3.3&#xD;
		c0,0,20.8-7.3,25.5,16.6c0,0,18-6.2,19.5,12c0,0,22.6-18.4,32.4,6.4L198,118.5l1.4,103.1l-44.8,4.5c0,0-49.2,3.5-56.3,3.1&#xD;
		S68.4,229.5,68.4,229.5z"/>
    <path class="st0 file-12-element-6" d="M387.3,333.3c0,0,7-3.4,7-1.4s-0.6,5.4,2.3,5.1c2.8-0.3,3.9-3.7,8.2-0.8c4.2,2.8,6.8,0.6,9.3-1.1&#xD;
		c2.5-1.7,5.4-2,6.5,0.8s2.5,3.7,6.8,0c4.2-3.7,5.9-5.4,5.9-5.4s3.4,0.6,5.6,0.3s1.4,3.7,3.7,4.5s3.9,1.1,5.1-1.7&#xD;
		c1.1-2.8-0.8-4.8,5.4-5.6c6.2-0.8,2.8,3.9,11.5,3.7l8.7-3.9l2-0.8l2.8,3.4l8.4-5.4l6.8-2.5l7.9,5.6c0,0,2.4,0.3,4.5-1.7&#xD;
		c2.1-2,4.2-2,4.2-2l4.5-0.6c0,0,1.7-2.8,4.8-2.3c3.1,0.6,5.6,0.8,5.6,0.8l2.8,2h5.6l2.5-13.8l-4.5-32.9l-8.7-89.5&#xD;
		c0,0-4.6-4.1-11.8-4.2s-9-5.4-9-7.9c0-2.5-3.9-20.3-3.9-20.3s-13.8,2-18.6,0c-4.8-2-4.8-2-4.8-2l-1.1-6.2L463,148&#xD;
		c0,0-9.9-0.3-14.1-1.1c-4.2-0.8-14.9-35.2-14.9-35.2l-63.6,3.7l-21.7,18.3l-27.6,93.8l51.5,86.7L387.3,333.3z"/>
    <path class="st0 file-12-element-7" d="M324.2,226c0,0,11.3-36,14.6-43.4c3.4-7.3,9-14.9,9-20.6s-0.6-7.3,4.2-12.7c4.8-5.4,6.2-14.1,8.7-19.1&#xD;
		c2.5-5.1,9.6-14.9,9.6-14.9l-47-44.8L289,42.7l-91,75.7l36.3-7.6l42.5-10.4l15.8,5.6l-1.4,87.9l21.3,1.3l8.6,2.3l-0.8,21.4&#xD;
		C320.3,219,319.7,228,324.2,226z"/>
    <path class="st0 file-12-element-8" d="M379.1,337.3c0,0-0.5-4.8-2.8-2.8s-4.5,3.4-7.3,1.4s-3.1-4.6-7-2c-4,2.6-2.8,4.8-9,5.4&#xD;
		c-6.2,0.6-111.2,17.2-111.2,17.2l-44.5-11.3l2.3-123.6L198,118.5c0,0,26.8-5.6,32.4-6.8c5.6-1.1,19.4-5.6,25.6-6.2&#xD;
		c6.2-0.6,20.8-5.1,20.8-5.1l-1.1,92.4c0,0,27.3,2.3,28.2,2.3s8.6,0.2,8.6,0.2s-1.6,25.2,0.1,29.1c1.7,3.9,14.9,9.6,20.3,11.8&#xD;
		c5.4,2.3,30.1,31.3,30.1,31.3l12.4,34.9C375.4,302.4,382.8,325.2,379.1,337.3z"/>
    <path class="st0 file-12-element-9" d="M534.5,222.7l264.4-0.3l0.8,96l-9.9-1.4c0,0-4.8,0.3-8.2-2c-3.4-2.3-2.7-2-8.2-0.6c-5.5,1.4-6.5,2.3-9.3,2.8&#xD;
		c-2.8,0.6-8.7,0.3-10.7,0c-2-0.3,2.3-2.6-4.8-2.3c-7.1,0.4-5.1,0.6-11.3,0.6s-6.2-1.1-11.3-0.3c-5.1,0.8-4.2,0-6.8,1.7&#xD;
		c-2.5,1.7-3.1,3.1-5.9,3.1s-3.9-2.3-8.7-2.3c-4.8,0-1.6-1.7-8.4,0.3s-6.2,2.5-9.9,2s-5.4-3.1-7-3.1s-4.4,0.1-8.4-0.3&#xD;
		c-4.1-0.4-6.5-0.3-6.5-0.3s-1.9,3.2-8.2,3.7s-3.8,0.4-11.3,0.8s-7.3,0.3-14.1,1.7s-3.9,2.5-12.4-0.6c-8.4-3.1-61.9,2.8-63.9,2.5&#xD;
		c-2-0.3-5.9-4.5-8.4-4.2c-2.5,0.3-10.1,2-10.1,2s0.3-17.2,0.6-21.4s2.8-0.3,0.3-4.2c-2.5-3.9-3.4-7.6-4.2-11.8&#xD;
		c-0.8-4.2-1.4-4.8-0.3-10.4c1.1-5.6,0-9.6-0.8-13.5c-0.8-3.9,2.3-3.7,2.3-9s-0.8-6.5,0-10.7c0.8-4.2,2.8-7,0.3-11&#xD;
		C531.7,226.3,534.5,222.7,534.5,222.7z"/>
    <path class="st0 file-12-element-10" d="M-5,231.1l121.5-2.6l83-7c0,0-0.2,154.5-1.4,156.1c0,0-114.1,7.9-114.6,8.1c-0.8,0.3-7.6,5.4-11,4.5&#xD;
		c-3.4-0.8-10.2-4.8-17.2-5.1s-13.2-0.8-17.2,1.1s-10.4,2.8-16.6,2s-11.3,1.7-11.3,1.7s0.3-3.4-8.2-3.7s-13.2,4.8-13.2,4.8L-5,231.1&#xD;
		z"/>
    <path class="st0 file-12-element-11" d="M675.1,277.1c0,0,6,10.7,8.2,10.5c2.3-0.2,6-3.6,6-3.6l-30.5-45c0,0-13.7-22.4-16.3-27.6&#xD;
		c-2.6-5.2-4.4-10-6.9-15s-13.2-16.3-13.2-16.3s-6.8,1.9-6.9,3.4s10.3,17.6,10.3,17.6s12.8,16.9,14.5,19.4S675.1,277.1,675.1,277.1z&#xD;
		"/>
    <path class="st0 file-12-element-12" d="M609.8,257.9l4.7-6.5c0,0,3.9,4.4,9.7,0.5s4.6-8.2,6.8-7.6c2.2,0.6,3.2,2.7,6,2.1c2.7-0.6,3.4-3.7,7.1-2.4&#xD;
		c3.7,1.3,5.9,2.9,6.9,4.7c1,1.7,2.4,3.6,2.3,4s-4.2,2.6-5.3,5c-1.1,2.4,0.2,6.3-1.1,7.1s-3.4,0.5-4.5,0.3c-1.1-0.2-1.3,1.1-2.6,3.2&#xD;
		c-1.3,2.1-2.1,2.1-4.5,3.7s-2.7,2.6-5.5-0.2c-2.7-2.7-4-6.4-4.7-6.9c-0.7-0.6-5.3,3.1-5.3,3.1s-3.7,8.1,1.1,12.8&#xD;
		c4.8,4.7,8.6,11.9,10.7,11.8c2.1-0.2,7.9-1.1,7.9-1.1s1.1-4.4,5.6-6.9c4.5-2.6,11.4-7.2,14.2-10.7c2.8-3.5,4-8.4,6.1-10.7&#xD;
		c2.1-2.3,7.7-6.3,7.7-6.3s2.3,1.5,3.2,2.9c1,1.5,6,6.2,6.3,7.1c0.3,0.9,3.1,1.5-0.3,3.7c-3.4,2.3-6.9,4.4-9.7,5&#xD;
		c-2.7,0.6-5,3.4-6.6,5.6s-8.1,10.7-9.4,12.4c-1.3,1.8-6.9,10.3-8.9,11.8c-1.9,1.5-4.7,3.2-7.1,2.9c-2.4-0.3-3.4,0-3.4,0&#xD;
		s-1.8-9.4-1-13.4l-6-0.5l-9.2-9.7c0,0-6.5-7.4-6.1-9c0.3-1.6,2.1-10.7,2.1-10.7L609.8,257.9z"/>
    <path class="st0 file-12-element-13" d="M640.3,220.5c0,0-6.1,0.6-11,2.9s-7,6.3-9.7,9.8c-2.7,3.5-3.5,4.8-4.2,9.7c-0.7,4.9-1.3,7.6-1,8.6&#xD;
		c0.3,1,5.8,2.4,8.2,1.6s4.4-2.7,5.5-5.2s2.9-4.2,4.7-3.1c1.8,1.1,1.2,3.4,4,1.6c2.9-1.8,6.5-3.4,8.2-2.9c1.8,0.5,5.2,5.6,6.6,7.4&#xD;
		s1.5,1.8,1.5,1.8s3.1-1.5,3.6-5.3L640.3,220.5z"/>
    <path class="st0 file-12-element-14" d="M671.7,169.4c0,0-29.2-0.3-46.7,13.1c-17.4,13.4-30.2,31.3-33.7,45.4c0,0,15.5-21.5,36.3-36.3&#xD;
		C648.5,176.7,671.7,169.4,671.7,169.4z"/>
    <path class="st0 file-12-element-15" d="M629.1,314.2c0,0,7.7,0.6,8.9,0c1.1-0.6-0.8-2.7-1.3-7.3c-0.5-4.5-1.5-10.2,0-13.6c1.5-3.4,2.6-3.9-0.2-5.2&#xD;
		c-2.7-1.3-7.4-1.6-7.4-1.6s-0.4-0.6-3.2-3.9s-4.5-2.9-5.3-5.3s1-3.7,0.3-6.1s-3.4-5.5-7.7-9.5c-4.4-4-4.8-7.3-6.9-6.9&#xD;
		c-2.1,0.3-3.2,3.6-5.8,4.7s-8.7,4.7-12.6,11c-3.9,6.3-11.8,17.4-11.8,17.4s-4.2,4-5.5,8.9s-0.9,5.8-3.6,10.3&#xD;
		c-2.6,4.5-5.8,5.5-7.3,9.7c-1.5,4.2-3.9,7.6-3.2,11c0.6,3.4-1.5,4.8,2.7,5.2c4.2,0.3,12.1,2.3,16.3,5s11,2.9,15.2,2.9&#xD;
		s8.9,0.8,9.5,0.6c0.6-0.2,3.1-1.8,4.2-5.6c1.1-3.9,5-11,7.9-15.2c2.9-4.2,7.3-11.3,7.9-11.1c0.6,0.2,3.6-0.8,5.2,1.6&#xD;
		S629.1,314.2,629.1,314.2z"/>
    <path class="st0 file-12-element-16" d="M556.2,342.2c0,0-1.1,6.6,5,8.9c6.1,2.3,13.1,4.4,17.3,3.7c4.2-0.6,4.7-1,8.9-0.8c4.2,0.2,8.2,0.5,10-2.7&#xD;
		c1.8-3.2,2.9-9.7,2.9-9.7l-13.6-1c0,0-5.2,1-13.1-3.4c-7.9-4.4-16.9-4.4-16.9-4.4L556.2,342.2z"/>
    <path class="st0 file-12-element-17" d="M552.8,347.5l2.4-2.4c0,0,1.5,4.7,9.8,7.3c8.4,2.6,9.2,3.1,13.4,2.4c4.2-0.6,6-0.3,10.5-0.5&#xD;
		c4.5-0.2,6.8-1.3,6.8-1.3s1,8.2,2.9,10.5c1.9,2.3,0.8,9.8,0.8,11.8s-0.5,8.1,2.4,12.4c2.9,4.4,11.5,22,11.5,22s10.3,20.7,10.8,22.4&#xD;
		s2.1,6.9,1.3,11.6c-0.8,4.7-1.9,11-1.9,11l-27.9-1.1c0,0,1.2-4.6-5.8-18.7c-7-14.1-13.2-29.4-13.2-29.4s-2.9,2.4-2.6,5.2&#xD;
		s1.1,5-0.5,13.2c-1.6,8.2-6.6,26.6-6.6,26.6l-37.1-3.9c0,0,6-6.3,8.2-20.8c2.3-14.5,4.4-28.1,3.7-33.9s-0.3-17.6,2.3-26.8&#xD;
		C546.5,355.9,552.8,347.5,552.8,347.5z"/>
    <path class="st0 file-12-element-18" d="M284.7,249.9c0,0-16.5-2.5-25.6,4.8c0,0-1,9.5-1.3,11.1c-0.3,1.7,1.8,9.3,4.7,12.5s9.1,6.7,11,7&#xD;
		s39.7,115.2,39.9,115.7c0.2,0.5-0.2,3-5.2,5.5c-4.9,2.4-9.1,4.8-10.6,8c-1.5,3.2-2.5,4.5,0.8,4.2c3.3-0.3,7-2.7,7.5-2.7&#xD;
		c0.5,0,0.7,10.5-3,12.3s-2.5,3.3-0.5,4.3s5.8,2,8.8,1c3-1,6-8.1,6-8.1l5.2-10.6l-6.5-13.5L276.1,285c0,0,10.1-4.3,10.5-16&#xD;
		C286.9,257.4,284.7,249.9,284.7,249.9z"/>
    <path class="st0 file-12-element-19" d="M261.9,241.8c0,0-6.4,4.2-2.8,13c0,0,11-6.5,23.3-4.8c0,0,4.3-1.2,6.2,5.7c1.8,6.8-1.8,14.6-1.8,14.6&#xD;
		s-2.3,11.1-7.8,13.1c-5.5,2-12.6-0.2-12.6-0.2s-0.8,4.8-5.2,7.3c-4.3,2.5-8.1,4.7-10.6,17.3c-2.5,12.6-2.5,18.3-2.5,18.3&#xD;
		s8.1,20,32.6,11.3s35.1-15.1,44.2-28.4c0,0-2.8-9.3-10.6-17c-7.8-7.6-15.6-9.3-19.6-13.6c-4-4.3-6-2.7-4.8-10.1&#xD;
		c1.2-7.5,3.3-15.1-3.3-19.6s-5.5-9.3-11.5-10C268.9,237.9,263.4,239.8,261.9,241.8z"/>
    <path class="st0 file-12-element-20" d="M239.3,349c0,0,1.5-19,4.3-25.8c2.8-6.8,1-14.5,1.3-20c0.3-5.5,4.3-16.5,5.2-19.8c0.8-3.3,3-18.3,3.2-21.6&#xD;
		c0.2-3.3-1.3-8,1.2-16.8c2.5-8.8,7.1-12.1,14.3-13c7.1-0.8,12.5-1.5,19.6,7.1c7.1,8.6,9.1,14.6,11,20.1c1.8,5.5,6.9,11.6,11.8,17&#xD;
		c4.9,5.4,10.8,8.3,16.8,15.8c6,7.5,9.8,12.5,16.5,26.3s10.5,36.9,10.5,36.9l3.3,23.1c0,0,1.7,23.1,1.7,23.6s-0.5,7.8,0.8,9.6&#xD;
		c1.3,1.8,2.5,3.5,1.7,6.2c-0.8,2.7-2.8,2.3-3,7c-0.2,4.7-1.2,8.5-3.3,10.6s-2.2,2.2-2.2,2.2l-1.5-24.6c0,0-0.8-22.9-5-40.2&#xD;
		c-4.2-17.3-9.1-40.7-15.8-54.2c-6.7-13.5-13.8-23.9-22.3-31.4s-13-6-17.8-11.5c-4.8-5.5-5.2-8.5-5.8-14.8c-0.7-6.3-1-13.1-4-17.3&#xD;
		c-3-4.2-9-6.3-16-4c-7,2.3-7.1,5.5-7.8,9.8c-0.7,4.3,1.7,7.5,0.5,13.6c-1.2,6.2,1,10.8,1.3,11.3s5.3,9.5,5.3,9.5s0.7,4.2-5,7.6&#xD;
		c-5.7,3.5-8.8,7.6-9.5,14.8s0,16.8-2.7,19.8S241.6,336.5,239.3,349z"/>
    <path class="st0 file-12-element-21" d="M324.8,308.9c0,0,6.7,11,13,29.4c6.3,18.5,13.3,53.4,14.3,65.7c1,12.3-1,23.4,1.2,34.8s5.5,46.6,9,56.9&#xD;
		l-45.4,9.1l-2.7,53.5c0,0-7,3.2-14.6,3.8c-7.6,0.7-8.6-0.2-9.1-2.2c-0.5-2,0.2,2-6.8,3.3c-7,1.3-10.3,2.3-17.8-1&#xD;
		c-7.5-3.3-7.6-6-11.6-7.8c-4-1.8-5.5-2-9.6-0.2c-4.2,1.8-9.8,1.7-10.3-1.5c-0.5-3.2-0.8-11.5-0.7-12.1c0.2-0.7,4.2-34.3,6.5-48.7&#xD;
		c2.3-14.5,3.7-20.8,3.7-20.8l15.8,1.5c0,0,6.5-0.2,7.3-0.7c0.8-0.5,7.3-8.6,7.3-8.6l26.8-33.8l1.5,0.3c0,0-1.7,1.8,0,2.7&#xD;
		c1.7,0.8,3.7-0.7,4.8,0c1.2,0.7,4.5,1.1,5.8-0.3s1.7,4.3,2.2,5.8c0.5,1.5,5.7,13.8,8.8,14.6c3.2,0.8,5,0.8,5.5-1.8&#xD;
		c0.5-2.7,0.7-13.1-1.7-20.8c-2.3-7.6-5.7-16.3-8-21.4s-4-7.3-4-7.3l-2.8,0.8c0,0-3.3,4.3-4.8,4.3c-1.5,0-3.2-10.1-3.2-10.1l-4.8-20&#xD;
		c0,0,6,1.2,11-1.8c5-3,5.7-5.3,5.7-6c0-0.7-1.2-3.5-1.2-3.5s-8.1,6.3-11.5,6.3s-4.8-0.2-4.8-0.2s-0.8-7-2.3-9s-2-2.7-3.7-3&#xD;
		c-1.7-0.3-54.5-8.1-54.5-8.1s0.3-11.5,2.7-17.3c2.3-5.8,6.5-7.8,6.5-7.8s6.2,13.8,23.4,12.3C288.7,336.9,311.5,326.7,324.8,308.9z"/>
    <path class="st0 file-12-element-22" d="M320.6,418l1.7-3.2c0,0,11,25.1,6.5,38.1c0,0-8.6,6-14.5-22.4L320.6,418z"/>
    <path class="st0 file-12-element-23" d="M300.2,376.4c0,0,11.3,1.2,15.5-5.5c4.2-6.7-1.5-4.7-1.5-4.7s-4.3,4.8-14.8,5L300.2,376.4z"/>
    <path class="st0 file-12-element-24" d="M269.9,468.7l-13.6-49.5l39.6-59.9l11.3,46.1c0,0-8.6,6.7-9.6,9.1c-1,2.5-2.7,4.3-0.2,3.8&#xD;
		c2.5-0.5,4.5-2,6.5-2.2c2-0.2,2.7,2.5,1,6.3c-1.7,3.8-8.5,11.8-8.5,11.8L269.9,468.7z"/>
    <path class="st0 file-12-element-25" d="M810.2,640l-9.5-2.6l-0.2,33.2l-69.6-17.3l-160.1-28.8c0,0-27-3.5-39.9-5.8c-12.9-2.2-46.1-11.1-46.1-11.1&#xD;
		s-27-6.7-50.1-10.2c-23.1-3.5-54.1-10.2-54.1-10.2l-67.3-12.3l3.5-70.1l52.7,11l2.7,4l2.7-70.5l77.6,15.1l24.8,5.8l31,2.2l31.9,7.1&#xD;
		l32.4,4.4l227,34.1L810.2,640z"/>
    <path class="st0 file-12-element-26" d="M565,604.5"/>
    <path class="st0 file-12-element-27" d="M452.4,433.8l77.3,12.8L581,452l52.3,4.9l44.3,5.3l119.7,12.4l2.2,43.5l-55.4-9.8l-60.3-8.9l-96.2-12.9&#xD;
		l-47.4-7.1c0,0-20.8-6.2-39.5-7.5c-18.6-1.3-27-1.8-34.6-4.9l-91.3-17.7L452.4,433.8z"/>
    <path class="st0 file-12-element-28" d="M215.8,258.4c0,0-6.2-8.2-13.2-7c0,0-7,4.8-12.1,9.3c-5.1,4.5-3.7,9.9-3.4,12.1s1.7,6.8,1.7,6.8l-30.7,138&#xD;
		c0,0-5.4,5.1-7.6,11.3c0,0,3.4,8.4,7,11.3c3.7,2.8,6.2,5.9,6.2,5.9s3,0.4,4.8-1.7c1.8-2.1,1.8-2.1,1.8-2.1s8,7.1,9.7,5.5&#xD;
		c1.7-1.7-4.5-9.6-6.5-12.1c-2-2.5-4.2-6.5-4.2-6.5s11.5,2.3,11.8,0s-3.2-5.7-9-7c-5.8-1.3-11.3-3.7-11.3-3.7l30.7-139.1&#xD;
		c0,0,1.5,5,9.6-0.3l3.7-3.7l3.4-2l2.3,0.6l1.1-7.6C211.6,266.3,211.8,262.4,215.8,258.4z"/>
    <path class="st0 file-12-element-29" d="M215.8,258.4c0,0,5.1-5.6,3.9-13c0,0,1.1-8.2-15.8-3.4s-51.5,71.5-51.5,71.5s3.4,18.9,22.5,16.6&#xD;
		c19.1-2.3,29-13.5,29-13.5l-9-27.9l-3.4-9.6c0,0-5.1-0.8-3.9-10.7s-0.6-9.3,6.5-15.8c7-6.5,10.4-2,10.4-2S212.7,251.7,215.8,258.4z&#xD;
		"/>
    <path class="st0 file-12-element-30" d="M196.1,460l-2.3-1.4l-12.7-29.6h-11.8l6.2,8.2c0,0,6.2,7.6,4.5,10.4s-10.1-8.7-10.1-8.7s1.1,5.1-1.4,5.4&#xD;
		c-2.5,0.3-4.3,3-8.4-2c-4.1-5-9.6-13.5-9.6-13.5l7.6-11.3c0,0,3.7-6.8,7-6.5c3.4,0.3-0.6,8.4-0.6,8.4s5.9,0.8,10.1,3.1&#xD;
		c4.2,2.3,6.5,3.7,6.5,3.7l-5.4-18.4l7-9.4c-0.6-0.8-1.2-1.7-1.6-2.7c-1.2-0.1-2.4-0.8-2.8-2.2c-2.4-9-5.7-19.5-2.8-28.7&#xD;
		c0.3-2.5,1.2-4.9,3.2-7.1c0.2-0.2,0.6-0.3,0.9-0.2c0-0.1,0.1-0.1,0.1-0.2c0.4-0.6,1.5-0.6,1.6,0.2c0.2,0.8,0.4,1.6,0.6,2.4&#xD;
		c0.2,0.2,0.4,0.5,0.6,0.8c0.7,1.4,1.2,2.9,1.7,4.4c0.9,1.6,1.8,3.2,2.9,4.8c1.6,1,3.2,2,4.7,3c1.6,1,3.2,2,4.6,3.2&#xD;
		c0.5,0.5,1,1,1.4,1.5c0.1,0,0.1,0.1,0.2,0.1l21.6-29.1c0,0-5.5-0.4-7.7-5.5c-2.3-5.1-10.1-24.8-10.1-24.8s-11.8,9-27,11.8&#xD;
		s-22.5-16.6-22.5-16.6s-9.6,5.9-14.4,15.5c-4.8,9.6-7.6,14.6-11.3,20.3c-3.7,5.6-9.3,11.3-13.2,15.8c-3.9,4.5-6.5,6.8-8.2,11.5&#xD;
		c-1.7,4.8-5.4,17.2-6.2,19.1c-0.8,2-7.6,23.1-10.4,32.4c-2.8,9.3-6.5,20.8-10.1,42c-3.7,21.1-9.9,60.3-10.4,63.6s-2,13.2-0.6,13.8&#xD;
		s7.3-0.8,9,2.8c1.7,3.7,5.6,8.2,6.2,11.5c0.6,3.4,6.5,0.6,9.3,4.8s4.5,8.7,9.6,7c5.1-1.7,11-2.3,15.8,0.6s9,4.5,16.6,3.4&#xD;
		c0,0,9.6,2.1,14.6,1.1s12.7-4.8,12.7-4.8s13.2-9.3,18-10.7s7.8,0.8,10.1,2.3c2.3,1.4,8.3,1.9,10.4-1.7s7-10.1,7-10.1&#xD;
		s-2-31.8-3.7-51.8C201.7,482,196.1,460,196.1,460z"/>
    <path class="st0 file-12-element-31" d="M80.3,457.5L94.4,411l12.7-39.4c0,0,13.2-12.1,19.7-22.2c6.5-10.1,8.7-22,17.7-29.3c9-7.3,12.7-10.1,21.4-22.5&#xD;
		c8.7-12.4,17.2-31.5,27.9-40.3s19.7-16.6,25.9-11.8c0,0,1.1-13.5-9.9-18.9s-21.7-5.6-29.8,1.7c-8.2,7.3-0.3,10.4-16.3,21.4&#xD;
		S131,283.8,124,296.2c-7,12.4-17.2,38.9-17.2,38.9s-14.6,38.9-27.3,53.8c0,0-5.4,5.4-3.7,9.3s5.9,7.3,3.9,10.7&#xD;
		c-2,3.4-9.6,6.5-9.9,7.9s-0.6,3.4,3.1,5.6c3.7,2.3,6.2-0.3,4.5,5.1c-1.7,5.4-3.4,3.7-1.7,9.3c1.7,5.6,2.5,4.8,3.1,12.4&#xD;
		S80.3,457.5,80.3,457.5z"/>
    <path class="st0 file-12-element-32" d="M158.1,417.5l6.5,2c0,0,2.3-6.2,0.6-8.4C165.1,411,163.7,409.9,158.1,417.5z"/>
    <path class="st0 file-12-element-33" d="M95,228.3c0,0,9.6-4.2,15.2-11.5c0,0-2.8,2.8-12.7-2.5c0,0,11-2.8,14.4-9c0,0-6.5,1.4-10.7-0.8&#xD;
		c0,0,9.6-2.8,12.1-8.7c0,0-2.8,2-7-3.4c0,0,10.7-4.2,11-10.7c0,0-4.8,1.1-6.5-1.7c0,0,9.3-6.8,10.4-12.1c0,0,5.4,11.3,8.7,12.1&#xD;
		l-4.5,2.5c0,0,0.8,5.6,7.3,7.9c0,0-2.8,4.2-7.6,4.8c0,0,2.8,5.6,7.6,7c0,0-2,2.5-8.2,2.3c0,0,3.2,6.6,11.5,8.7c0,0-1.4,3.4-9.3,3.7&#xD;
		c0,0,1.1,5.9,9.9,6.5l-3.9,4.5L95,228.3z"/>
    <path class="st0 file-12-element-34" d="M140.3,226.6c0,0,9-7,9.9-7.3c0.8-0.3,1.7-1.7-0.3-2s-6.8-0.8-2.3-3.4c4.5-2.5,5.9-5.4,5.9-5.4l-5.6-0.6&#xD;
		l9.9-8.7h-8.7c0,0,11.5-5.9,13.5-15.2c0,0,3.7,9.6,10.7,13c0,0-2,2-6.5,1.7c0,0,0.3,4.8,6.8,8.2l-7.9,0.6c0,0,1.1,4.5,9.6,7.3&#xD;
		c0,0-0.6,2.8-7.9,2.8c0,0,3.1,3.4,7.6,4.5l-0.8,2L140.3,226.6z"/>
    <path class="st0 file-12-element-35" d="M211,184.6c0,0,9-0.6,14.4-0.6s7.9-1.1,7.9-1.1v-36.9l-24.2,1.7L211,184.6z"/>
    <path class="st0 file-12-element-36" d="M245.9,144.9l2.3,34.6c0,0,13.8-2.7,15.5-2.8l1.7-2.5l-0.8-30.1C264.5,144.1,251.8,142.7,245.9,144.9z"/>
    <path class="st0 file-12-element-37" d="M276.9,100.5l-1.1,92.4l36.8,2.4c0,0,0.4,33.9,1,35.3c0.6,1.4,7.9,4.8,9.3,8.4s-0.3,6.5,3.7,5.1&#xD;
		s6.2-2,11.8-0.6c5.6,1.4,4.2,3.9,3.1,7.9c-1.1,3.9,3.4,10.9,5.9,11c2.5,0.1,4.5-1.4,6.5,1.7c2,3.1,2,4.2,2.5,7.6s8.2,1.1,7.6,3.9&#xD;
		c-0.6,2.8-2.3,8.7,0.6,13c2.8,4.2,8.7,8.7,5.6,14.1c-3.1,5.4-2.3,6.5,2.5,11.5c4.8,5.1,7.9,16.1,7,20s-1.1,3.7,2.8,2.5&#xD;
		c3.9-1.1,6.6-1,4.8-3.4s-0.3-9.9-2.3-15.2c-2-5.4-1.7-6.6,1.1-7.3c2.9-0.7,3.7,4.5,5.1-2.5c1.4-7,2.5-9.6,0.6-15.5&#xD;
		c-2-5.9-1.7-4.9-1.1-9.9c0.6-5,0.6-8.7-1.1-11s-5.9-4.2-9-6.2c-3.1-2-5.1,0.6-8.2-4.2c-3.1-4.8-3.4-6.2-5.4-8.7&#xD;
		c-2-2.5-0.6-3.7-3.9-3.9c-3.4-0.3-3.7,1.4-5.6-0.8c-2-2.3-0.8-3.4-4.2-8.7c-3.4-5.4,0.8-3.4-5.6-5.6c-6.5-2.3-3.9,2.3-7.6-3.4&#xD;
		c-3.7-5.6-1.4-4.2-5.6-4.2c-4.2,0-10.1,0-10.1,0s-4.9-2.4-3.9-7c0.9-4.7,0.8-20.3,0.8-21.4c0-1.1-7.6-1.7-11-2.3&#xD;
		c-3.4-0.6-18.9-1.4-18.9-1.4l1.4-90.4L276.9,100.5z"/>
    <path class="st0 file-12-element-38" d="M434,111.7l0.3,37.2c0,0,3.4-4.2,10.4-2.8c7,1.4,18.3,2,18.3,2l1.1,2v5.9c0,0,6.2-2.3,14.9-0.3&#xD;
		c8.7,2,18.6,0,18.6,0s0.6,27,1.7,28.4c1.1,1.4,7.6-0.4,11.3-0.3c3.7,0.1,11.8,4.2,11.8,4.2s3.1,6.5,2,14.1&#xD;
		c-1.1,7.6-0.5,18.9,0.6,23.7c1,4.7,1.4,8.4,0.6,18c-0.8,9.6-0.8,11-0.8,17.2c0,6.2,3.4,5.1,2.5,10.1c-0.8,5.1-0.3,7.6,0.3,11.8&#xD;
		c0.6,4.2,2.8,8.4,2.5,12.7c-0.3,4.2,3.7,11,3.1,18.3s0,10.4,0,10.4l3.1-2c0,0,0.6-21.7,0.8-25.6c0.3-3.9-0.6-3.9-2.3-9.9&#xD;
		c-1.7-5.9-3.7-7.6-2.3-12.4c1.4-4.8,2-3.4,1.1-9.9c-0.8-6.5,0.3-5.4,0.3-12.7c0-7.3,1.1-14.9,1.1-14.9l-0.6-14.4l-1.4-8.4&#xD;
		l-0.6-23.4l-6.8-2c0,0-14.1-7-18.9-6.2l1.1-26.5l-8.4-0.8c0,0-20,2-25.3-1.7l-1.1-6.2l-7,0.6c0,0-17.2,3.4-17.2-3.7&#xD;
		c0-7-1.4-31.5-1.4-31.5L434,111.7z"/>
    <path class="st0 file-12-element-39" d="M235.2,87.7c0,0-6.4-10.4-17.7-3.8c0,0,4.2-13.1-9.5-18c-13.7-4.9-21.3-3.5-29,4.9c0,0-11.1-6.7-18.2,6.2&#xD;
		l2.9,9.3c0,0,17.3-6.9,19.5,12c0,0,27.5-16.8,32.4,6.4L235.2,87.7z"/>
    <polygon class="st0 file-12-element-40" points="175.8,407.9 256.3,419.2 269.9,468.7 264.4,473.9 194.1,460.4 	"/>
    <polygon class="st0 file-12-element-41" points="219.9,348.7 295.5,360.8 256.3,419.2 175.8,407.9 	"/>
    <polygon class="st0 file-12-element-42" points="316.8,504.8 369.5,515.8 372.2,493.7 	"/>
    <polygon class="st0 file-12-element-43" points="316.9,135.7 318,164.7 329.8,163.2 328.4,133.7 	"/>
  </g>
  <g id="outline">
    <path class="st1 file-12-element-44" d="M794.9,474.2c0,0-120.5-12.1-153.1-16.4c-32.6-4.4-83.6-6.9-111.5-10.8c-28-3.8-65.1-10.8-73.1-12.1&#xD;
		c0,0-4.6-1.3-7.7-0.8c-3.1,0.5-74.9,15.4-74.9,15.4s48.5,9.2,60.8,11.5c12.3,2.3,40.3,10,60,10.8c19.7,0.8,40.5,7.2,46.7,7.9&#xD;
		c6.2,0.8,43.8,6.2,54.9,7.2s62.8,8.2,68.5,9c5.6,0.8,130.4,21.3,130.4,21.3"/>
    <path class="st1 file-12-element-45" d="M374.6,519.7c0,0,48.5,9.2,60.8,11.5c12.3,2.3,40.4,8.2,60,10.8c11.8,1.5,26.2,5.1,48.3,10.4&#xD;
		c6,1.4,36.1,9.3,47.1,10.3s60.2,10.1,65.8,10.8c5.6,0.8,136.1,25.3,136.1,25.3"/>
    <path class="st1 file-12-element-46" d="M371.1,494.1c-22.2,4.6-54.2,11.2-54.2,11.2s40.3,7.7,52.6,10"/>
    <path class="st1 file-12-element-47" d="M316.9,575.4c0,0,48.5,9.2,60.8,11.5c12.3,2.3,40.4,8.2,60,10.8c11.8,1.5,26.2,5.1,48.3,10.4&#xD;
		c6,1.4,36.1,9.3,47.1,10.3s60.2,10.1,65.8,10.8c5.6,0.8,136.1,25.3,136.1,25.3"/>
    <path class="st1 file-12-element-48" d="M218.4,351.9c0,0-41.8,51.5-42.8,55.7s18.6,51.5,18.6,51.5"/>
    <path class="st1 file-12-element-49" d="M198.8,461.2c0,0,62.9,13.4,65.5,12.4c2.6-1,3.1-2.6,4.6-2.6l32.5-42.8c0,0,4.5-4.8,4.2-9&#xD;
		c-0.2-4.2,1.1-4.4,1.1-4.4"/>
    <path class="st1 file-12-element-50" d="M294.7,362.2c0,0-35.6,53.1-37.6,56.7c-2.1,3.6,11.9,48.5,11.9,48.5"/>
    <path class="st1 file-12-element-51" d="M307.1,405l-8.8-38.7c0,0,0.5-7.2-7.7-6.7c0,0-64.4-10.3-66.5-9.8"/>
    <path class="st1 file-12-element-52" d="M175.6,407.5c0,0,45.9,7.2,55.2,8.8c9.3,1.5,22.2,2.6,22.2,2.6"/>
    <path class="st1 file-12-element-53" d="M160.5,418.7c0,0,4.9,1.3,5.8,2c0.9,0.7,5.8,0.7,9.8,3.1s5.8,3.3,4.7,5.3s-9.8-0.4-10.6,0.2"/>
    <path class="st1 file-12-element-54" d="M168.5,427.1c0,0,3.8,6.9,6.9,10.2c3.1,3.3,6,9.1,4.9,10c-2.2,1.9-6-2.3-11.6-9.6"/>
    <path class="st1 file-12-element-55" d="M170.3,442.2c0,0-1.3,5.1-6.2-1.3"/>
    <path class="st1 file-12-element-56" d="M164.3,445.1c0,0-5.5-2.9-8.4-7.8c-2.9-4.9-4.2-8-4.2-8"/>
    <path class="st1 file-12-element-57" d="M164.8,419.6c0,0,1.1-3.8,1.6-7.8c0.4-4-11.5,4.2-17.1,20.2c0,0-0.9,2.9-4,2.2s-8.4-5.5-11.3-13.1&#xD;
		s-9.8-20.2-15.7-25.7c-6-5.5-5.2-11.3-5.2-11.3"/>
    <path class="st1 file-12-element-58" d="M111.7,377c0,0-1.3-6.2,0.2-9.1"/>
    <path class="st1 file-12-element-59" d="M133.7,411.4c0,0-0.4-7.1,3.8-10.2s3.1-8.2,8.6-9.8c5.5-1.6,8.4-4.2,8.4-4.2s1.6,0.4,3.3,5.5&#xD;
		c1.8,5.1,8.4,19.1,8.4,19.1"/>
    <path class="st1 file-12-element-60" d="M154.6,387.2c0,0,0.8-1.7-2.8-6.4s-2.7-4.9-2.9-16c-0.2-11.1,1.6-10.2-0.4-14c-2-3.8-0.4-10-0.7-11.3"/>
    <path class="st1 file-12-element-61" d="M149.6,377.9c0,0-7.3-1.1-9.8-0.2c-2.4,0.9-12,5.3-12,5.3"/>
    <path class="st1 file-12-element-62" d="M141.4,373.3c0,0-4.2-0.7-6.9-3.5s-6.4-3.5-6.4-3.5"/>
    <path class="st1 file-12-element-63" d="M157.6,370.6c0,0,2.4,2.2,10.2-0.4"/>
    <path class="st1 file-12-element-64" d="M164.2,360.4c0,0,2.9-3.5,3.5-8.6c0.7-5.1,2-10.6,2-10.6"/>
    <path class="st1 file-12-element-65" d="M180.2,397.2c0,0-5.3-11.7-4.4-18.4s-2.2-11.7-2.2-11.7s-2.2,0.4-5.1,0.2c-2.9-0.2-13.5-2.2-13.5-2.2"/>
    <path class="st1 file-12-element-66" d="M173.5,367.1c0,0,1.1-4,3.5-8c2.4-4,8.9-13.1,8.2-26.4"/>
    <path class="st1 file-12-element-67" d="M154.9,320.5c0,0,10,14.6,28.4,7.5s20.6-12.2,20.6-12.2s-3.8-14-7.3-22.2c-3.5-8.2-5.5-12.2-5.5-12.2"/>
    <path class="st1 file-12-element-68" d="M188.2,266.2c0,0-1.6,7.8,0.2,10.9c1.8,3.1,5.1,5.3,8.6,4.7c3.5-0.7,3.5-3.5,5.1-3.8c1.6-0.2-0.7-3.5-0.7-3.5&#xD;
		s1.1,2.2,3.3,1.3c2.2-0.9,3.1-2.9,4.4-2c1.3,0.9,2.4-1.1,2.7-6.7s3.5-8.6,3.5-8.6s6.2-5.1,4.2-13.3c0,0-5.5-3.1-12.4,2.2&#xD;
		c-6.9,5.3-14.9,8.6-25.5,24.8s-18.6,34.1-33,44.3s-17.3,31.7-30.2,43.7c-12.9,12-22.8,28.6-32.6,41c-9.8,12.4-19.7,16-15.3,19.3&#xD;
		s10.2,0.7,6.9,8.2s-1.6,8.4,0.7,12.4s-0.4,11.7,1.3,15.5"/>
    <path class="st1 file-12-element-69" d="M203.4,251.1c0,0,8.2,0.4,12,7.3"/>
    <path class="st1 file-12-element-70" d="M79.7,408.1c0,0,0.2-6.2-2.9-8.6c-3.1-2.4-1.6-5.1,4.4-13.5s19.5-31,23.7-46.1s15.7-41,26.8-56.1&#xD;
		s16.2-22.2,27.3-30.6c11.1-8.4,13.5-9.3,15.1-14.9c1.6-5.5,12-20.6,30.2-14.4s15.3,21.3,15.3,21.3"/>
    <path class="st1 file-12-element-71" d="M209.2,234.7c0,0-18.6,7.3-28.6,23.1"/>
    <path class="st1 file-12-element-72" d="M180.2,250c0,0-15.1,11.3-24.6,27.5"/>
    <path class="st1 file-12-element-73" d="M131.2,310.5c0,0-16.6,27.7-22.4,41"/>
    <path class="st1 file-12-element-74" d="M193.7,353.3c0,0,2.4-7.5,14-8.2"/>
    <path class="st1 file-12-element-75" d="M199.2,364.9c0,0,0.2-12.9,11.1-17.5"/>
    <path class="st1 file-12-element-76" d="M180.2,354.4c0,0,4,10.2,6.7,15.1c2.7,4.9,10,6.9,10,6.9"/>
    <path class="st1 file-12-element-77" d="M219,349.8c0,0-4.4-2.4-5.1-4.2c-0.7-1.8-3.3-3.5-3.3-3.5s-2.2-11.7-8.4-22.6"/>
    <path class="st1 file-12-element-78" d="M197.2,463.9c0,0,11.3,58.7,10.4,90.2c0,0-2.2,0.7-5.5,6.2s-5.8,7.5-10.2,6.7c-4.4-0.9-6.7-7.1-15.3-2.2&#xD;
		c-8.6,4.9-16.2,10.2-19.7,10.6"/>
    <path class="st1 file-12-element-79" d="M153.8,577.9c0,0-9.5,2.4-15.7,0.7s-12.9,0.9-17.3-2c-4.4-2.9-9.8-5.3-17.1-3.3c-7.3,2-8.2-0.4-10.9-5.5&#xD;
		c-2.7-5.1-8-1.6-10.4-7.8c-2.4-6.2-4.2-11.5-9.3-12.2c-5.1-0.7-5.8,1.6-5.5-5.5c0.2-7.1,6.4-47,10-65.4s4.7-29.7,13.3-55.2&#xD;
		s16-48.3,16-48.3"/>
    <path class="st1 file-12-element-80" d="M102.6,447.5c0,0-16.6,70.3-8.9,89.3"/>
    <path class="st1 file-12-element-81" d="M101.5,411c0,0-11.1,28.8-12.2,50.8"/>
    <path class="st1 file-12-element-82" d="M322.1,413.2c0,0,0.2,1.6-2.7,6.7s-5.5,12.2-8.2,13.3s-5.1-0.2-5.1-0.2"/>
    <path class="st1 file-12-element-83" d="M314.5,421.2c0,0-0.4,4.7-3.8,7.3c-3.3,2.7-6.7,6.2-8.9,3.8"/>
    <path class="st1 file-12-element-84" d="M311,418.7c0,0-2.9,10.4-8.6,11.7"/>
    <path class="st1 file-12-element-85" d="M312.5,400.8c0,0,1.1,2.9-1.6,4.2c-2.7,1.3-4,0.4-7.8,4c-3.8,3.5-7.8,7.8-6.4,9.8c1.3,2,6-2.9,6.9-2.9"/>
    <path class="st1 file-12-element-86" d="M314.3,430.9c0,0,3.3,21.7,11.7,22.6c8.4,0.9,1.6-35.9-10.9-52.3"/>
    <path class="st1 file-12-element-87" d="M309.4,402.3c0,0,3.5-19.1,7.3-21.9c0,0-2.2-3.5,1.3-4.7c0,0-4.4-6.7,0-7.5c0,0-3.8-2.4-0.4-7.8s4.4-8,4.4-8"/>
    <path class="st1 file-12-element-88" d="M316.5,362.9c0,0-2.2-10.6-3.8-15.7c-1.6-5.1-6.2-13.7-4-18.2"/>
    <path class="st1 file-12-element-89" d="M318.1,368.2c0,0,4.2,0.2,6.9-7.5"/>
    <path class="st1 file-12-element-90" d="M318.1,375.7c0,0,5.1-3.3,8-0.7"/>
    <path class="st1 file-12-element-91" d="M316.7,380.4c0,0,3.3,6.4,9.8,8.9c6.4,2.4,16,15.3,15.5,43"/>
    <path class="st1 file-12-element-92" d="M328.5,453.1c0,0,10.4-8.9,18-31.5c0,0,3.1-7.1,4-16.6"/>
    <path class="st1 file-12-element-93" d="M300.8,371.5c0,0,8,0,15.1-5.8"/>
    <path class="st1 file-12-element-94" d="M301.7,376.4c0,0,8.9,0.9,13.7-5.1"/>
    <path class="st1 file-12-element-95" d="M309.6,368.4c0,0,1.1-3.3-2.7-12"/>
    <path class="st1 file-12-element-96" d="M278.8,356.6c0,0-3.5-4.7-2.7-8"/>
    <path class="st1 file-12-element-97" d="M263.1,354.2c0,0-2.7-10.2-1.8-16"/>
    <path class="st1 file-12-element-98" d="M246.7,324.5c0,0,8,15.1,21.7,14.4c13.7-0.7,43-10.4,56.5-29.9"/>
    <path class="st1 file-12-element-99" d="M360.2,487c0,0-7.3-37.5-7.1-54.8c0.2-17.3-1.8-42.1-7.3-65.2s-12.9-51.7-26.2-68.1s-16.8-16.2-22.6-19.5&#xD;
		c-5.8-3.3-11.1-8-11.1-17.1c0-9.1-2.7-21.5-10.9-23.1c-8.2-1.6-15.5-0.2-19.3,10.9c-3.8,11.1-1.8,22.6-5.1,31.7&#xD;
		c-3.3,9.1-5.8,22.2-4.9,28.2c0.9,6-5.1,24.2-6,29c-0.9,4.9-0.7,11.3-0.7,11.3"/>
    <path class="st1 file-12-element-100" d="M250.9,309.2c0,0-0.7-12.2,7.3-16.8s7.1-9.3,7.1-9.3"/>
    <path class="st1 file-12-element-101" d="M257.3,266.2c0,0,3.8,16.4,12.6,18.4c8.9,2,15.1-5.3,16.4-15.5"/>
    <path class="st1 file-12-element-102" d="M253.1,257.1c0,0-2.2-25.1,20.8-25.1c12.4,0,23.1,18.8,24.2,25.1c1.1,6.2,10,18.2,18,24.6&#xD;
		c8,6.4,29,23.9,37.7,70.3s4,55.4,7.3,60.7s-2.4,7.1-2.4,13.7s-2.7,9.8-3.3,10.6"/>
    <path class="st1 file-12-element-103" d="M254.7,278.6c0,0,4.9-16.2,4-21.7c-0.9-5.5-0.7-11.7,2.4-14.2"/>
    <path class="st1 file-12-element-104" d="M258.9,254.4c0,0,5.5-6,24.4-4.7"/>
    <path class="st1 file-12-element-105" d="M293.5,537.3c0,0-0.2-32.6,7.8-62.3"/>
    <path class="st1 file-12-element-106" d="M244,474.4c0,0-12.4,54.1-10.4,76.7c0,0,1.6,4.4,6.9,4.4c5.3,0,8.2-6.4,14.6,0.7c6.4,7.1,27.9,13.3,35,2.7&#xD;
		c0,0-0.4,4.2,2.9,3.8c3.3-0.4,13.7,0.9,20.8-4.7"/>
    <path class="st1 file-12-element-107" d="M268.8,263.1c0,0-1.3-5.3-4.2-5.1c-2.9,0.2-5.3,2.2-5.3,2.2"/>
    <path class="st1 file-12-element-108" d="M273.7,257.6c0,0,1.6-3.8,7.1-2.4"/>
    <path class="st1 file-12-element-109" d="M270.8,266.9c0,0,1.1,2.4,3.5,1.1"/>
    <path class="st1 file-12-element-110" d="M270.6,276c0,0,2.9-2.7,5.5-2.4c2.7,0.2,1.3,3.1-0.9,3.1S270.6,276,270.6,276z"/>
    <path class="st1 file-12-element-111" d="M188.4,223.4c0,0-37.9,2.4-59.4,4.7s-53.4,1.3-66.3,1.8c-12.9,0.4-68.5,1.3-68.5,1.3"/>
    <path class="st1 file-12-element-112" d="M161.3,250c0,0-8.9-2-23.1-0.2c-14.2,1.8-11.3,2.4-27.7,2.2c-16.4-0.2-47.9,2.7-55.2,2.7s-40.1,0.4-43.7,0.2&#xD;
		s-22.8,1.1-22.8,1.1"/>
    <path class="st1 file-12-element-113" d="M-7.2,282.6c0,0,39.5-2.2,55-2c15.5,0.2,28.2-0.2,33.5-0.4c5.3-0.2,21.3-0.7,29.7-1.8s24.4-0.9,24.4-0.9"/>
    <path class="st1 file-12-element-114" d="M115.7,306.3c0,0-16.6,0.9-31.5,1.3s-43.5,0.7-59,1.1s-26.6,0-26.6,0"/>
    <path class="st1 file-12-element-115" d="M-4.5,335c0,0,51.7-0.4,57.9-0.4s21.9-1.1,28.8-0.9c6.9,0.2,20.8-1.1,20.8-1.1"/>
    <path class="st1 file-12-element-116" d="M94.4,359.3c0,0-36.4,1.8-42.1,1.3s-27.5,0.4-38.8-0.2c-11.3-0.7-25.3-0.7-25.3-0.7"/>
    <path class="st1 file-12-element-117" d="M129,228.1c5.1,0.4,9.1-6,9.1-6c-10.2,1.6-12.6-6.2-12.6-6.2c8.2,2,12-3.5,12-3.5c-8.6,0.9-14-8.6-14-8.6&#xD;
		c8,2.4,11.3-2.2,11.3-2.2c-5.3,1.1-11.5-6.7-11.5-6.7c7.1,0,10.6-4.4,10.6-4.4c-8.6-2-8.9-8.4-8.9-8.4c3.8,0.2,5.8-2.2,5.8-2.2&#xD;
		c-5.1-1.3-9.5-13.3-9.5-13.3s-2.2,8.4-10.2,13.3c0,0,0.9,3.1,7.1,1.6c0,0-3.8,10.2-12.4,10.6c0,0,1.8,4.4,8.2,2.9&#xD;
		c0,0-3.8,9.3-13.3,9.1c0,0,4.4,3.5,12,0.7c0,0-4.9,9.3-15.7,9.1c0,0,6.2,5.5,14.2,2c0,0-6.4,10.4-13.7,10"/>
    <path class="st1 file-12-element-118" d="M144,222.7c0,0,6.9-2.4,8.9-6.2c0,0-4.9,2-8.4-1.3c0,0,8-2.7,10.4-8.2c0,0-4.2,2.2-8.6,1.1&#xD;
		c0,0,10.6-6.2,12.6-10.2c0,0-5.3,3.1-10.6,1.6c0,0,14.6-8,14.4-17.1c0,0,3.1,12.9,11.7,14.6c0,0-3.1,3.5-9.8,0.7&#xD;
		c0,0,4.2,8.9,11.7,8.9c0,0-5.8,2.9-12,0c0,0,4,8.2,12.9,7.3c0,0-4,4.9-10.9,2.9c0,0,4.4,4.9,8,4.7"/>
    <path class="st1 file-12-element-119" d="M58.2,220.1c0,0-11.3-9.8-2.9-22.8c0,0-6.9-22.8,11.5-28.6"/>
    <path class="st1 file-12-element-120" d="M69.5,172.4c0,0-5.5-7.5,0-13.7c0,0-1.8-13.5,12-13.3"/>
    <path class="st1 file-12-element-121" d="M76.9,145.2c0,0-11.3-4.7-6.7-25.3c4.7-20.6,27.7-38.1,27.7-38.1s8.2-16.8,21.7-8.2c0,0,13.3-14.4,18.8-4&#xD;
		c0,0,19.7-6.2,25.3,17.1c0,0,18.4-6.7,19.3,12.6c0,0,23.5-19.3,32.4,5.8"/>
    <path class="st1 file-12-element-122" d="M163.3,73.5c0,0,6.9-8.9,14.9-2.2c0,0,9.1-12,26.4-6.7s12.2,19.7,12.2,19.7s6.7-6.7,14-0.2"/>
    <path class="st1 file-12-element-123" d="M210.1,150c0,0,0.9,29.9,0.9,33.3s18.4-0.4,21.1-0.4c2.7,0,1.3-30.6,1.8-34.4"/>
    <path class="st1 file-12-element-124" d="M208.8,148.3c0,0,6.7,0.2,10.4-0.9s10.2-1.3,10.2-1.3"/>
    <path class="st1 file-12-element-125" d="M245.6,146.3c0,0,6.9-1.3,9.3-1.8c2.4-0.4,10.4-0.4,10.4-0.4s0.7,31.9,0,32.6c-0.7,0.7-9.5,0-13.1,2.2&#xD;
		c-3.5,2.2-4.7,0.7-4.9-3.3s-0.7-26.6-0.7-26.6"/>
    <path class="st1 file-12-element-126" d="M230.1,197.9c0,0,3.1,28.2,3.3,39.7c0.2,11.5-0.7,47.4-0.7,47.4"/>
    <path class="st1 file-12-element-127" d="M317,135.4c0,0,0.4,27.5,1.1,28.6c0.7,1.1,10.4-0.7,11.3-0.7c0.9,0-0.2-28.4-0.2-29.7&#xD;
		C329.2,132.3,317,135.4,317,135.4z"/>
    <path class="st1 file-12-element-128" d="M199,217.6c0,0-1.1-93.8-1.1-96.9"/>
    <path class="st1 file-12-element-129" d="M201,117.2c0,0,20.8-17.3,31.3-25.9c10.4-8.6,52.8-44.1,54.3-45.7"/>
    <path class="st1 file-12-element-130" d="M289.5,43.2c0,0,21.3,16.2,33.9,27.3s29.9,29.9,35,34.6c5.1,4.7,10.2,9.5,10.2,9.5"/>
    <path class="st1 file-12-element-131" d="M203.9,118.1c0,0,12.4-4.2,23.5-6s23.7-5.8,33-7.8c9.3-2,16-4.7,16-4.7s15.1,4.9,16,5.1s-0.2,31.5-0.7,44.6&#xD;
		c-0.4,13.1-0.4,43.5-0.4,43.5"/>
    <path class="st1 file-12-element-132" d="M277.1,103.9c0,0-0.4,19.7-0.9,34.8s-0.9,51.2-0.4,53.9c0.4,2.7,5.5,0.2,9.3,0.9c3.8,0.7,23.9,1.6,27.5,1.8&#xD;
		c3.5,0.2,9.1,2.4,9.1,2.4s0,11.7-0.4,16.6c-0.4,4.9,0,12,2.2,12.6c2.2,0.7,7.3-2,11.1-0.9"/>
    <path class="st1 file-12-element-133" d="M337.8,226.7c0,0,1.8,0,2,3.8c0.2,3.8,4.9,3.5,8.4,4.2c3.5,0.7,6.9,2.7,7.1,7.5c0.2,4.9,0.7,7.5,3.1,7.1&#xD;
		s6.7,0.2,9.3,4c2.7,3.8,4,9.1,8,10.4c4,1.3,8.9,3.3,10.6,5.8c1.8,2.4,6,4,4.9,8.4"/>
    <path class="st1 file-12-element-134" d="M312.5,195.3c0,0-1.1,26.8,0.2,31.9c1.3,5.1,0.7,5.8,3.8,6.9c3.1,1.1,6.4,1.1,6.9,6.2c0.4,5.1,3.3,4.7,4.9,2.9&#xD;
		c1.6-1.8,3.5-1.6,8.6,0c5.1,1.6,5.3-2.7,5.5-0.2c0.2,2.4-2.4,13.3,0.7,15.3c3.1,2,4,4.7,6.7,4.2c2.7-0.4,4.2-1.3,6.2,3.1&#xD;
		s-0.9,7.5,2.4,8.4s5.5-0.9,6,2.7c0.4,3.5-3.1,6.4,0.2,12.6s6.2,9.1,4.7,14c-1.6,4.9,2.9,10.9,6,13.5c3.1,2.7,4.2,15.1,4.2,15.1"/>
    <path class="st1 file-12-element-135" d="M358.6,323.4c0,0-0.4-17.5-2.9-29.7"/>
    <path class="st1 file-12-element-136" d="M299.2,231.8c0,0-0.2-20,1.3-26.2"/>
    <path class="st1 file-12-element-137" d="M385.5,330.9c1.1-0.4,0.2-13.5-2-16.6c-2.2-3.1-2.4-5.5,0-3.5s5.5-0.7,5.5-0.7"/>
    <path class="st1 file-12-element-138" d="M326.5,220.5c0,0,10-37.2,17.1-48.6c7.1-11.3,1.3-14,7.1-20.4c5.8-6.4,5.1-8.4,6.4-12.4s8.2-17.3,8.2-17.3"/>
    <path class="st1 file-12-element-139" d="M371.1,119.4c0,0,1.3,26.8,0.9,50.3s-1.6,35.7-0.2,45.2c1.3,9.5-0.2,23.3-0.2,28.2"/>
    <path class="st1 file-12-element-140" d="M373.7,115.4c0,0,13.1-1.6,20.2-2c7.1-0.4,17.7-2,24.2-2c6.4,0,14.9-0.2,19.7,0.7c4.9,0.9,10.2,1.3,10.2,1.3"/>
    <path class="st1 file-12-element-141" d="M434.7,111.9c0,0-0.2,20.8-0.4,25.9c-0.2,5.1-0.7,12-0.7,12s5.1-5.3,9.3-3.8c4.2,1.6,12,2.2,14.6,2&#xD;
		s7.3,0,7.3,0v7.8c0,0,2-0.9,6.7-1.3c4.7-0.4,8.6,0.7,14.9,1.3s11.5-0.9,11.5-0.9l10,1.3l-0.7,26.8"/>
    <path class="st1 file-12-element-142" d="M499.2,183.7c0,0-2.4-7.8-1.3-28.8"/>
    <path class="st1 file-12-element-143" d="M449.1,146.3c0,0-0.2-7.5-0.4-14.9c-0.2-7.3-0.9-14.6-0.9-14.6"/>
    <path class="st1 file-12-element-144" d="M503.4,183.7c0.7,0,6.9-0.9,10.9,0.2c4,1.1,7.3,4.9,9.5,4.4c2.2-0.4,8.9,2.4,8.9,2.4s-0.7,24.2,0.4,31.7&#xD;
		c1.1,7.5,2.2,9.1,2.2,9.1v7.8h75.8"/>
    <path class="st1 file-12-element-145" d="M523.8,188.4c0,0,2,15.1,0.7,22.4c-1.3,7.3,1.6,19.7,1.6,19.7s-1.3,15.6-1.7,22.3c-0.4,6.7,0.6,10.2,1.8,14.2&#xD;
		c1.1,4.1,0.3,6.9,0.6,10.7c0.3,3.8,5,18.2,5.1,23.7c0.1,5.6,2.3,10.4,0.6,18.6"/>
    <path class="st1 file-12-element-146" d="M425.1,331.4c0-0.7,2.2-20.2-0.7-34.8s-1.6-25.1-0.7-34.6c0.9-9.5-0.9-26.2-0.9-26.2"/>
    <path class="st1 file-12-element-147" d="M519.8,318.5c0.2-1.1-2.7-29.9-0.7-44.1s-0.9-59.6-1.3-66.5c-0.4-6.9,0-8.6,0-8.6"/>
    <path class="st1 file-12-element-148" d="M462.4,248.2c0,0-2.2-20,1.1-30.4s-1.3-22.4-0.7-31.9c0.7-9.5-0.2-17.1-0.2-17.1"/>
    <path class="st1 file-12-element-149" d="M454.9,126.3c0,0,20.8-22.2,47.7-12.9c26.8,9.3,23.7,29.7,23.7,29.7s27.7-30.4,60.5-21.1&#xD;
		c32.8,9.3,31.9,32.1,31.9,32.1s22.8-7.8,39.2,12.2"/>
    <path class="st1 file-12-element-150" d="M665,175.3c4,4.3,6.7,10.5,6.9,18.8c0,0,9.4,8.8,7.4,21.1"/>
    <path class="st1 file-12-element-151" d="M672.6,183.3c0,0,6.2-18,23.5-15.3c0,0,18.8-26.8,42.6-18.8c0,0-3.1-10.2,7.8-11.5c0,0,7.3-21.5,26.6-13.7&#xD;
		c0,0,6.2-21.7,25.1-18.4"/>
    <path class="st1 file-12-element-152" d="M532.9,442c0.4-1.1,5.1-12.9,6.2-25.1s3.3-16.2,3.3-23.7c0-7.5-2.7-24.6,4.9-36.6s9.3-12.2,9.3-12.2"/>
    <path class="st1 file-12-element-153" d="M569,443.1c0,0,2.9-14.2,5.1-22.6s-1.1-10.9,2-14.9c3.1-4,8-8.6,9.5-18.2"/>
    <path class="st1 file-12-element-154" d="M576.1,405.6c1.6,0.2,4,8.9,6.7,15.1s10,19.1,11.1,23.7s1.1,4.7,1.1,4.7"/>
    <path class="st1 file-12-element-155" d="M624.2,450.2c0,0,2.4-13.1-0.4-18c-2.9-4.9-12.2-26.4-14.9-32.1s-9.8-15.3-9.8-20.8s0.2,2.7,0-5.5&#xD;
		c-0.2-8.2,0.7-8.2-1.6-12.2c-2.2-4-1.8-8.2-1.8-9.1"/>
    <path class="st1 file-12-element-156" d="M553.9,380.8c0,0,10-6.7,14-19.1"/>
    <path class="st1 file-12-element-157" d="M601.4,385.2l-2.2-6c0,0-3.1-0.4-4.7,0.2"/>
    <path class="st1 file-12-element-158" d="M557.5,332.7l-1.3,9.8c0,0-0.4,4.4,3.8,7.5c4.2,3.1,15.3,6.7,20.2,4.9c4.9-1.8,4.9-1.1,8.2-0.9&#xD;
		c3.3,0.2,9.1-1.6,9.3-2.4s2.4-5.8,2.9-8.6s-5.8-1.3-10-1.8c-4.2-0.4-8.6,0.7-13.3-2.2C572.6,336,557.5,332.7,557.5,332.7z"/>
    <path class="st1 file-12-element-159" d="M557.5,332.7c0,0-2.9-1.1-0.9-7.8c2-6.7,4-10,7.8-13.3s3.5-12.4,7.8-17.7c4.2-5.3,13.3-23.3,22.2-30.6l5.3-3.3&#xD;
		"/>
    <path class="st1 file-12-element-160" d="M600.5,342.9c0,0,3.1-3.3,4-5.8c0.9-2.4,3.8-12,5.8-14.2c2-2.2,7.5-10.9,8.2-11.3"/>
    <path class="st1 file-12-element-161" d="M595.6,322.3c0,0,4.9-4.4,7.8-7.5c2.9-3.1,5.3-4,7.8-5.1c2.4-1.1,11.3,0.2,11.3,0.2l4.9,2.2"/>
    <path class="st1 file-12-element-162" d="M630.2,286.4c0,0-1.8-0.4-3.5,4.9c-1.8,5.3-3.1,12.4-2.2,15.1c0.9,2.7,1.3,7.8,4.2,8c2.9,0.2,8.6,1.1,10,0&#xD;
		c1.3-1.1-2.2-6.9-2.2-11.1s-0.2-9.5,1.8-12.2S631.1,287.5,630.2,286.4z"/>
    <path class="st1 file-12-element-163" d="M627.8,286.4c0,0-2-3.8-4.7-6.9c-2.7-3.1-7.3-0.2-9.5,1.3"/>
    <path class="st1 file-12-element-164" d="M621.1,278.4c0,0,0.7-3.5-3.8-6.2s-11.5-7.3-14.4-10.9c-2.9-3.5-1.6-4.2-1.6-4.2l6-2.9c0,0,4.2,6.4,8.9,10.9"/>
    <path class="st1 file-12-element-165" d="M621.8,272.2c0,0-2-4-2.7-4.9"/>
    <path class="st1 file-12-element-166" d="M638.2,308.1c0,0,4.2,0.2,6.9-0.4c2.7-0.7,11.7-14.9,19.3-24.8c7.5-10,6.7-4.9,12.4-8.7&#xD;
		c5.7-3.8,7.8-4.9,6.1-6.3c-1.7-1.3-0.9-3.7-3.8-5c-2.9-1.4-1.6-3.8-3.6-4.1c-2-0.3-1.4-2.8-3.1-2.1c-1.8,0.7-5.1,4.9-7.5,6.4"/>
    <path class="st1 file-12-element-167" d="M638.2,291c0,0,2.2,1.6,2.2,3.3"/>
    <path class="st1 file-12-element-168" d="M640.2,291.7c0,0,1.3-5.3,7.3-9.3c6-4,12.2-7.8,14.4-12s2.2-4.2,2.2-4.2"/>
    <path class="st1 file-12-element-169" d="M613.4,309.6c0,0-6-2.2-16.2,0.2"/>
    <path class="st1 file-12-element-170" d="M677,277.9c0,0,3.5,8.2,6,9.1c2.4,0.9,4.2-1.1,6-2.7s-7.5-13.3-7.5-13.3"/>
    <path class="st1 file-12-element-171" d="M670.3,256.2c0,0-17.5-27.3-24.8-39.5c-7.3-12.2-6-14.4-11.5-22.4l-3.1-4.7l-8.6,7.1c0,0,2.9,5.8,11.1,14.2&#xD;
		c8.2,8.4,31,47.4,31,47.4"/>
    <path class="st1 file-12-element-172" d="M626.9,192.4c21.9-15.8,37.2-20.4,48.1-23.1c0,0-28.8-2.9-52.8,16.2c-18,12.2-28.3,33.6-32.1,45.9&#xD;
		C590.1,231.4,603.8,209,626.9,192.4z"/>
    <path class="st1 file-12-element-173" d="M624.2,183.1c0,0-1.1-4-3.3-2.7c-2.2,1.3-5.3,3.1-4.7,3.8c0.7,0.7,2.2,3.1,2.2,3.1"/>
    <path class="st1 file-12-element-174" d="M557.3,336.3c0,0-1.3,4.7,2.9,4.9c4.2,0.2,8.9,4.4,11.7,6c2.9,1.6,11.7,0.4,11.7,0.4"/>
    <path class="st1 file-12-element-175" d="M576.1,299c0,0,10.2-21.5,14.9-26.4"/>
    <path class="st1 file-12-element-176" d="M542.9,396.3c0,0-0.4,10,1.1,13.7s0,11.1-0.2,12.4"/>
    <path class="st1 file-12-element-177" d="M610.7,256.9c0,0,2.9-3.1,3.3-5.3"/>
    <path class="st1 file-12-element-178" d="M622.5,259.1c0,0,2.4,6,5.3,10.2s4.4,5.3,6.2,4.2c1.8-1.1,2.4-3.1,3.5-3.3c1.1-0.2,2.9-1.3,2.9-2.9&#xD;
		c0-1.6,1.3-2.7,1.3-2.7s2.4,1.3,4.4,0.7c2-0.7-0.2-5.3,1.6-8c1.8-2.7,5.1-2.2,6.9-5.8"/>
    <path class="st1 file-12-element-179" d="M651.9,250.5c0,0-2.4-4.9-5.5-5.8c-3.1-0.9-4.7-2.4-6.7,0c-2,2.4-3.3,2.4-6.7,0.2c-3.3-2.2-4.4,2.7-6.2,4.9&#xD;
		s-3.3,2.2-6.4,3.3s-7.5-1.3-5.8-5.3s-0.2-7.3,2.2-11.1c2.4-3.8,8.2-11.1,10.4-12c2.2-0.9,7.1-3.5,10.2-3.5"/>
    <path class="st1 file-12-element-180" d="M645.7,253.3c0,0-2.7-0.9-3.5-0.9s0.7,1.1,1.1,2.4"/>
    <path class="st1 file-12-element-181" d="M641.7,264.6c0,0-0.9-2,0.2-2.7"/>
    <path class="st1 file-12-element-182" d="M358,336.5c0.7,0,8.2-4.9,9.5-2.7c1.3,2.2,3.5,5.1,6.4,2.7s2.4-3.3,4.4-1.3c2,2,0.9,4.9,5.1,1.6&#xD;
		s2.9-1.1,6.7-3.1s5.8-3.8,5.1-0.9s-3.1,4.7,2.2,3.5c5.3-1.1,5.8-2.2,8.2-0.2c2.4,2,2,2.7,5.8,0.7c3.8-2,6.9-3.8,8.9-2&#xD;
		c2,1.8-2.7,8.2,5.5,2c8.2-6.2,4.7-8.4,8.2-6.2c3.5,2.2,7.3-1.1,6.7,1.3c-0.7,2.4,4.2,6.7,6,2.7s-1.3-4.9,3.5-5.8&#xD;
		c4.9-0.9,12.2-3.1,8.9-1.6c-3.3,1.6-8.2-0.2-3.3,1.6c4.9,1.8,3.8,1.6,4.9,1.8c1.1,0.2,2,0.4,3.5,1.1c1.6,0.7,2.4-1.1,6-2.4&#xD;
		c3.5-1.3,3.5-3.3,5.5-1.3c2,2,0.9,4.2,6.2-0.2c5.3-4.4,4.2-2.9,8-4s0.4-4.2,3.8-1.1c3.3,3.1,3.3,3.5,4.9,4.2&#xD;
		c1.6,0.7,2.9,1.8,4.4,1.1c1.6-0.7,3.8-3.1,4.7-3.5s3.8-0.2,4.9,0c1.1,0.2,0.7-0.4,2.9-2c2.2-1.6,3.8-0.2,5.3,0&#xD;
		c1.6,0.2,3.8-2.4,4.7,0.4s-1.6,0.7,3.8,1.6c5.3,0.9,3.3,3.5,5.3,0.9c2-2.7,3.3-3.8,5.8-2.9c2.4,0.9,2.9-2.2,6-1.8&#xD;
		c3.1,0.4,4.2,1.3,4.2,1.3s1.8,2.4,2.4,2.4c0.7,0,3.8,0.7,3.8,0.7"/>
    <path class="st1 file-12-element-183" d="M618.2,321c0,0,5.8,4.9,11.1,2.7c5.3-2.2,3.8-2.9,8.4-2.2c4.7,0.7,7.1-0.4,12.4-0.9c5.3-0.4,5.5,1.3,10.2-1.6&#xD;
		s1.8-5.1,6.7-2.7c4.9,2.4,10.9-2.2,13.7,1.1s6,3.3,8.9,2.7c2.9-0.7-3.3,1.1,2.9-0.7c6.2-1.8,10.2-3.1,13.7-1.3s11.1,2.9,12.2,0.9&#xD;
		s3.8-4.4,8.4-4s11.3,0.2,14.9,0.4c3.5,0.2,4.7-2.9,8.4-0.4c3.8,2.4,4.2,2.4,8,2.2c3.8-0.2,6.4,0.7,7.3-0.2s0.9-0.9,2.7-1.1&#xD;
		c1.8-0.2,1.1-1.3,5.3-1.3c4.2,0,6.2-2.9,8.2-0.2c2,2.7,0.4,2,4.2,2.2c3.8,0.2,6.7,0.2,6.7,0.2"/>
    <path class="st1 file-12-element-184" d="M457.1,318.9c0,0-2.1-21.1-0.5-31.4s1.5-17.5,1.5-22.2c0-4.6-1-10.8-1-10.8"/>
    <path class="st1 file-12-element-185" d="M491.1,265.3c0,0-4.1-5.2,0-4.6c4.1,0.5,5.2,3.6,5.2,3.6L491.1,265.3z"/>
    <path class="st1 file-12-element-186" d="M418.4,196.2c0,0,2.1-8.2,1-15.5c-1-7.2-3.6-21.6-3.6-23.7s-1-18-1-18"/>
    <path class="st1 file-12-element-187" d="M389,246.2c0,0,0-26.3-1.5-35.6s-1.5-21.6-1-23.7"/>
    <path class="st1 file-12-element-188" d="M362.8,223c0,0-2.6-24.7-0.5-38.7s1.5-30.4,1.5-30.4"/>
    <path class="st1 file-12-element-189" d="M353,220.4c0,0,2.6-14.4,0-19.1c-2.6-4.6-0.5-9.8-0.5-9.8"/>
    <path class="st1 file-12-element-190" d="M502.4,299.3c0,0-4.6-13.9-2.6-22.7c2.1-8.8,1-19.1,0-28.9c-1-9.8-2.1-34.5-2.1-34.5"/>
    <path class="st1 file-12-element-191" d="M388,378.7c0,0,12.4-4.6,21.6-3.6c9.3,1,13.4,4.6,19.6,1c6.2-3.6,7.2-3.6,11.9-3.1c4.6,0.5,5.2-2.1,9.3-1&#xD;
		c4.1,1,5.7-1,7.2,1s-2.1,4.6,7.2,1s4.1-5.7,9.3-3.6c5.2,2.1,10.3,1,13.4,2.1c3.1,1,2.6,0,5.7,1.5s5.2,1.5,9.3,0s4.1-1.5,4.1-1.5"/>
    <path class="st1 file-12-element-192" d="M642.6,372.5c0,0,19.6-5.2,25.8-3.6c6.2,1.5,9.8-1,18,2.1s9.8,5.2,16.5,2.6c6.7-2.6,0.5-3.1,9.8-3.1&#xD;
		c9.3,0,12.9-3.6,16.5-0.5c3.6,3.1-0.5,2.1,7.2,2.1"/>
    <path class="st1 file-12-element-193" d="M673.6,416.8c0,0,20.6,1.5,29.9,1c9.3-0.5,7.2,1.5,15.5-2.6c8.2-4.1,8.2-3.6,13.9-1.5s-0.5,2.6,9.8,1&#xD;
		s7.7-5.7,12.9-1.5c5.2,4.1,10.3,3.1,10.3,3.1"/>
    <path class="st1 file-12-element-194" d="M452.4,412.2c0,0,8.8,4.6,17.5,0c8.8-4.6,3.6-2.6,12.4-2.6s6.7,3.6,15.5,3.6c8.8,0,12.4,0.5,16,0"/>
    <path class="st1 file-12-element-195" d="M5.5,439c0,0,8.2-4.1,16.5-2.6c8.2,1.5,9.3,3.1,17.5,1s8.2-1,12.4-1"/>
    <path class="st1 file-12-element-196" d="M-7.9,389.5c2.1-0.5,8.8-3.6,13.4-2.1s0.5,2.6,8.2,1c7.7-1.5,7.2,1,14.9,0.5s10.3-4.6,19.6-4.1&#xD;
		c9.3,0.5,16,0,18.6,3.6c2.6,3.6,14.4-2.6,14.4-2.6"/>
    <path class="st1 file-12-element-197" d="M14.3,503.9c0,0,10.8-2.6,20.6-1s12.9,1,16.5,0.5"/>
    <path class="st1 file-12-element-198" d="M210.2,490.5c0,0,5.2-3.1,11.3-2.6c6.2,0.5,11.9-0.5,11.9-0.5"/>
    <path class="st1 file-12-element-199" d="M214.3,519.4c5.2,0,4.6,0.5,8.2,0"/>
    <path class="st1 file-12-element-200" d="M700.9,342.1c0,0,11.9-5.2,17.5-2.1c5.7,3.1,10.3,2.6,16.5,1c6.2-1.5,9.8-2.1,14.9-1.5c5.2,0.5,8.2-3.1,11.9,0&#xD;
		c3.6,3.1,8.2,4.6,12.4,3.6s8.8-3.1,11.3-3.1s23.2,2.6,23.2,2.6"/>
    <path class="st1 file-12-element-201" d="M10.2,594.1c0,0,6.2-1,15.5,0c9.3,1,11.9-2.6,19.6-2.6s3.6-2.6,11.9,0.5s19.6,3.6,23.2,3.6s13.9-3.6,20.1-1.5&#xD;
		c6.2,2.1,18,0.5,25.3-0.5c7.2-1,11.9-0.5,17-0.5c5.2,0,14.4,0,14.4,0"/>
    <path class="st1 file-12-element-202" d="M218.9,581.8c2.1-0.5,8.8-6.7,18-6.2c9.3,0.5,29.9,5.7,33.5,4.6s7.7-1,9.8-1s8.8,0,8.8,0"/>
    <path class="st1 file-12-element-203" d="M629.9,254.4c0,0-5.3-0.6-3-4.6"/>
    <path class="st1 file-12-element-204" d="M536.8,295.2c0,0-1.2-7.2-2.8-11.1s-3.4-5.3-0.6-11.6s-0.4-8.6,0.1-19.5c0.6-10.8,1.6-12.9,1.6-18.8"/>
    <line class="st1 file-12-element-205" x1="590.8" y1="562.7" x2="591" y2="489.9"/>
    <line class="st1 file-12-element-206" x1="591.8" y1="486.8" x2="641.8" y2="457.8"/>
    <line class="st1 file-12-element-207" x1="371" y1="517.6" x2="374.6" y2="449.6"/>
    <line class="st1 file-12-element-208" x1="533" y1="618.4" x2="533.3" y2="549.5"/>
    <line class="st1 file-12-element-209" x1="407.4" y1="590.4" x2="409.2" y2="526.4"/>
    <line class="st1 file-12-element-210" x1="313.3" y1="573.2" x2="316.9" y2="505.3"/>
    <line class="st1 file-12-element-211" x1="664.8" y1="641.1" x2="664.3" y2="575.2"/>
    <line class="st1 file-12-element-212" x1="262.6" y1="263.5" x2="264.4" y2="263.3"/>
    <line class="st1 file-12-element-213" x1="277.1" y1="260.2" x2="279.5" y2="259.3"/>
    <line class="st1 file-12-element-214" x1="25" y1="254.9" x2="25.4" y2="231.2"/>
    <line class="st1 file-12-element-215" x1="75.3" y1="253.8" x2="75.3" y2="230.5"/>
    <line class="st1 file-12-element-216" x1="126.1" y1="251.8" x2="126.1" y2="230.5"/>
    <line class="st1 file-12-element-217" x1="42.7" y1="278.6" x2="43.2" y2="254.9"/>
    <line class="st1 file-12-element-218" x1="93" y1="277.5" x2="93" y2="254.2"/>
    <line class="st1 file-12-element-219" x1="18.1" y1="307.9" x2="18.6" y2="284.2"/>
    <line class="st1 file-12-element-220" x1="68.4" y1="306.8" x2="68.4" y2="283.5"/>
    <line class="st1 file-12-element-221" x1="39" y1="333" x2="39.4" y2="309.3"/>
    <line class="st1 file-12-element-222" x1="89.3" y1="331.9" x2="89.3" y2="308.6"/>
    <line class="st1 file-12-element-223" x1="13.5" y1="359.6" x2="13.9" y2="335.9"/>
    <line class="st1 file-12-element-224" x1="63.8" y1="358.5" x2="63.8" y2="335.2"/>
    <line class="st1 file-12-element-225" x1="-11.2" y1="385.7" x2="-10.7" y2="362"/>
    <line class="st1 file-12-element-226" x1="39.2" y1="384.6" x2="39.2" y2="361.4"/>
    <line class="st1 file-12-element-227" x1="620.9" y1="267.1" x2="624.2" y2="264.4"/>
    <line class="st1 file-12-element-228" x1="639.3" y1="269.3" x2="636.4" y2="266.6"/>
    <line class="st1 file-12-element-229" x1="539.5" y1="223.4" x2="587.2" y2="223.4"/>
    <line class="st1 file-12-element-230" x1="601.2" y1="223.4" x2="624" y2="223.4"/>
    <line class="st1 file-12-element-231" x1="654.2" y1="222.3" x2="792.5" y2="222.3"/>
    <line class="st1 file-12-element-232" x1="663.2" y1="238.3" x2="794.7" y2="238.3"/>
    <line class="st1 file-12-element-233" x1="534.2" y1="258" x2="597.8" y2="258"/>
    <line class="st1 file-12-element-234" x1="679.9" y1="257.8" x2="798" y2="257.8"/>
    <line class="st1 file-12-element-235" x1="532" y1="277.7" x2="578.6" y2="277.7"/>
    <line class="st1 file-12-element-236" x1="691.2" y1="278.4" x2="794" y2="278.4"/>
    <line class="st1 file-12-element-237" x1="539.8" y1="297" x2="565" y2="297"/>
    <line class="st1 file-12-element-238" x1="658.6" y1="297.9" x2="794.7" y2="297.9"/>
    <line class="st1 file-12-element-239" x1="559.3" y1="223.4" x2="559.3" y2="239.2"/>
    <line class="st1 file-12-element-240" x1="599.6" y1="224.7" x2="599.6" y2="237.9"/>
    <line class="st1 file-12-element-241" x1="539.1" y1="241.4" x2="539.1" y2="257.1"/>
    <line class="st1 file-12-element-242" x1="579.4" y1="239.6" x2="579.4" y2="255.8"/>
    <line class="st1 file-12-element-243" x1="688.7" y1="241.4" x2="688.7" y2="257.1"/>
    <line class="st1 file-12-element-244" x1="729.1" y1="239.6" x2="729.1" y2="255.8"/>
    <line class="st1 file-12-element-245" x1="769.2" y1="239.6" x2="769.2" y2="255.8"/>
    <line class="st1 file-12-element-246" x1="671" y1="223.9" x2="671" y2="239.6"/>
    <line class="st1 file-12-element-247" x1="711.4" y1="222.1" x2="711.4" y2="238.3"/>
    <line class="st1 file-12-element-248" x1="751.5" y1="222.1" x2="751.5" y2="238.3"/>
    <line class="st1 file-12-element-249" x1="707.6" y1="260.7" x2="707.6" y2="276.4"/>
    <line class="st1 file-12-element-250" x1="747.9" y1="258.9" x2="747.9" y2="275.1"/>
    <line class="st1 file-12-element-251" x1="788.1" y1="258.9" x2="788.1" y2="275.1"/>
    <line class="st1 file-12-element-252" x1="723.3" y1="280.2" x2="723.3" y2="295.9"/>
    <line class="st1 file-12-element-253" x1="763.7" y1="278.4" x2="763.7" y2="294.6"/>
    <line class="st1 file-12-element-254" x1="803.8" y1="278.4" x2="803.8" y2="294.6"/>
    <line class="st1 file-12-element-255" x1="699.4" y1="299.7" x2="699.4" y2="315.4"/>
    <line class="st1 file-12-element-256" x1="664.1" y1="299.7" x2="664.1" y2="315.4"/>
    <line class="st1 file-12-element-257" x1="739.7" y1="297.9" x2="739.7" y2="314.1"/>
    <line class="st1 file-12-element-258" x1="779.9" y1="297.9" x2="779.9" y2="314.1"/>
    <line class="st1 file-12-element-259" x1="560.4" y1="260.2" x2="560.4" y2="277.5"/>
    <line class="st1 file-12-element-260" x1="559.9" y1="296.8" x2="559.9" y2="314.1"/>
    <line class="st1 file-12-element-261" x1="541.1" y1="279" x2="541.1" y2="296.3"/>
    <line class="st1 file-12-element-262" x1="631.4" y1="250" x2="632" y2="248.4"/>
    <polyline class="st1 file-12-element-263" points="465.1,534.7 466.9,466.8 520.5,446 	"/>
    <polyline class="st1 file-12-element-264" points="722.5,585.4 721,506.5 766.9,470.9 	"/>
    <polyline class="st1 file-12-element-265" points="208.8,262.4 208.5,264.6 206.6,262.9 	"/>
    <polyline class="st1 file-12-element-266" points="473.7,153.6 473.7,147.6 464.8,148 	"/>
  </g>
</svg>